  0
SECTION
  2
HEADER
  9
$ACADVER
  1
AC1009
  9
$DWGCODEPAGE
  3
ansi_1252
  9
$INSBASE
 10
0.0
 20
0.0
 30
0.0
  9
$EXTMIN
 10
-86.00000000000003
 20
0.0
 30
0.0
  9
$EXTMAX
 10
0.4675583342226304
 20
107.7603520019464
 30
0.0
  9
$LIMMIN
 10
0.0
 20
0.0
  9
$LIMMAX
 10
12.0
 20
9.0
  9
$ORTHOMODE
 70
     0
  9
$REGENMODE
 70
     1
  9
$FILLMODE
 70
     1
  9
$QTEXTMODE
 70
     0
  9
$MIRRTEXT
 70
     1
  9
$DRAGMODE
 70
     2
  9
$LTSCALE
 40
1.0
  9
$OSMODE
 70
    37
  9
$ATTMODE
 70
     1
  9
$TEXTSIZE
 40
0.2
  9
$TRACEWID
 40
0.05
  9
$TEXTSTYLE
  7
STANDARD
  9
$CLAYER
  8
DEFAULT
  9
$CELTYPE
  6
BYLAYER
  9
$CECOLOR
 62
   256
  9
$DIMSCALE
 40
1.0
  9
$DIMASZ
 40
0.18
  9
$DIMEXO
 40
0.0625
  9
$DIMDLI
 40
0.38
  9
$DIMRND
 40
0.0
  9
$DIMDLE
 40
0.0
  9
$DIMEXE
 40
0.18
  9
$DIMTP
 40
0.0
  9
$DIMTM
 40
0.0
  9
$DIMTXT
 40
0.18
  9
$DIMCEN
 40
0.09
  9
$DIMTSZ
 40
0.0
  9
$DIMTOL
 70
     0
  9
$DIMLIM
 70
     0
  9
$DIMTIH
 70
     1
  9
$DIMTOH
 70
     1
  9
$DIMSE1
 70
     0
  9
$DIMSE2
 70
     0
  9
$DIMTAD
 70
     0
  9
$DIMZIN
 70
     0
  9
$DIMBLK
  1

  9
$DIMASO
 70
     1
  9
$DIMSHO
 70
     1
  9
$DIMPOST
  1

  9
$DIMAPOST
  1

  9
$DIMALT
 70
     0
  9
$DIMALTD
 70
     2
  9
$DIMALTF
 40
25.4
  9
$DIMLFAC
 40
1.0
  9
$DIMTOFL
 70
     0
  9
$DIMTVP
 40
0.0
  9
$DIMTIX
 70
     0
  9
$DIMSOXD
 70
     0
  9
$DIMSAH
 70
     0
  9
$DIMBLK1
  1

  9
$DIMBLK2
  1

  9
$DIMSTYLE
  2
STANDARD_ACAD
  9
$DIMCLRD
 70
     0
  9
$DIMCLRE
 70
     0
  9
$DIMCLRT
 70
     0
  9
$DIMTFAC
 40
1.0
  9
$DIMGAP
 40
0.09
  9
$LUNITS
 70
     2
  9
$LUPREC
 70
     3
  9
$SKETCHINC
 40
0.1
  9
$FILLETRAD
 40
0.0
  9
$AUNITS
 70
     0
  9
$AUPREC
 70
     0
  9
$MENU
  1
.
  9
$ELEVATION
 40
0.0
  9
$PELEVATION
 40
0.0
  9
$THICKNESS
 40
0.0
  9
$LIMCHECK
 70
     0
  9
$CHAMFERA
 40
0.0
  9
$CHAMFERB
 40
0.0
  9
$SKPOLY
 70
     0
  9
$TDCREATE
 40
2460513.814879178
  9
$TDUPDATE
 40
2460513.814931991
  9
$TDINDWG
 40
0.0000000116
  9
$TDUSRTIMER
 40
0.0000000116
  9
$USRTIMER
 70
     1
  9
$ANGBASE
 50
0.0
  9
$ANGDIR
 70
     0
  9
$PDMODE
 70
     0
  9
$PDSIZE
 40
0.0
  9
$PLINEWID
 40
0.0
  9
$COORDS
 70
     1
  9
$SPLFRAME
 70
     0
  9
$SPLINETYPE
 70
     6
  9
$SPLINESEGS
 70
     8
  9
$ATTDIA
 70
     0
  9
$ATTREQ
 70
     1
  9
$HANDLING
 70
     1
  9
$HANDSEED
  5
B8
  9
$SURFTAB1
 70
     6
  9
$SURFTAB2
 70
     6
  9
$SURFTYPE
 70
     6
  9
$SURFU
 70
     6
  9
$SURFV
 70
     6
  9
$UCSNAME
  2

  9
$UCSORG
 10
0.0
 20
0.0
 30
0.0
  9
$UCSXDIR
 10
1.0
 20
0.0
 30
0.0
  9
$UCSYDIR
 10
0.0
 20
1.0
 30
0.0
  9
$PUCSNAME
  2

  9
$PUCSORG
 10
0.0
 20
0.0
 30
0.0
  9
$PUCSXDIR
 10
1.0
 20
0.0
 30
0.0
  9
$PUCSYDIR
 10
0.0
 20
1.0
 30
0.0
  9
$USERI1
 70
     0
  9
$USERI2
 70
     0
  9
$USERI3
 70
     0
  9
$USERI4
 70
     0
  9
$USERI5
 70
     0
  9
$USERR1
 40
0.0
  9
$USERR2
 40
0.0
  9
$USERR3
 40
0.0
  9
$USERR4
 40
0.0
  9
$USERR5
 40
0.0
  9
$WORLDVIEW
 70
     1
  9
$SHADEDGE
 70
     3
  9
$SHADEDIF
 70
    70
  9
$TILEMODE
 70
     1
  9
$MAXACTVP
 70
    64
  9
$PLIMCHECK
 70
     0
  9
$PEXTMIN
 10
1.000000000000000E+20
 20
1.000000000000000E+20
 30
1.000000000000000E+20
  9
$PEXTMAX
 10
-1.000000000000000E+20
 20
-1.000000000000000E+20
 30
-1.000000000000000E+20
  9
$PLIMMIN
 10
0.0
 20
0.0
  9
$PLIMMAX
 10
12.0
 20
9.0
  9
$UNITMODE
 70
     0
  9
$VISRETAIN
 70
     1
  9
$PLINEGEN
 70
     0
  9
$PSLTSCALE
 70
     1
  0
ENDSEC
  0
SECTION
  2
TABLES
  0
TABLE
  2
VPORT
 70
     1
  0
VPORT
  2
*ACTIVE
 70
     0
 10
0.0
 20
0.0
 11
1.0
 21
1.0
 12
10.42990654205607
 22
4.5
 13
0.0
 23
0.0
 14
0.5
 24
0.5
 15
0.5
 25
0.5
 16
0.0
 26
0.0
 36
1.0
 17
0.0
 27
0.0
 37
0.0
 40
9.0
 41
1.972972972850329
 42
50.0
 43
0.0
 44
0.0
 50
0.0
 51
0.0
 71
     0
 72
   100
 73
     1
 74
     3
 75
     0
 76
     0
 77
     0
 78
     0
  0
ENDTAB
  0
TABLE
  2
LTYPE
 70
     1
  0
LTYPE
  2
CONTINUOUS
 70
     0
  3
Solid line
 72
    65
 73
     0
 40
0.0
  0
ENDTAB
  0
TABLE
  2
LAYER
 70
    15
  0
LAYER
  2
0
 70
     0
 62
     7
  6
CONTINUOUS
  0
LAYER
  2
DEFAULT
 70
     0
 62
     7
  6
CONTINUOUS
  0
LAYER
  2
TOPLAYER
 70
     0
 62
    -1
  6
CONTINUOUS
  0
LAYER
  2
TOPSILKLAYER
 70
     0
 62
   -40
  6
CONTINUOUS
  0
LAYER
  2
SILKMASK
 70
     0
 62
     7
  6
CONTINUOUS
  0
LAYER
  2
LINES
 70
     0
 62
    -7
  6
CONTINUOUS
  0
LAYER
  2
HOLES
 70
     0
 62
    -7
  6
CONTINUOUS
  0
LAYER
  2
LARGE_HOLES
 70
     0
 62
    -7
  6
CONTINUOUS
  0
LAYER
  2
TRACES
 70
     0
 62
    -7
  6
CONTINUOUS
  0
LAYER
  2
TRACES$LAYER_01
 70
     0
 62
    -7
  6
CONTINUOUS
  0
LAYER
  2
SVG
 70
     0
 62
  -150
  6
CONTINUOUS
  0
LAYER
  2
POWER_LINES
 70
     0
 62
  -140
  6
CONTINUOUS
  0
LAYER
  2
MULTI-LAYER
 70
     0
 62
    -9
  6
CONTINUOUS
  0
LAYER
  2
MARK
 70
     0
 62
  -151
  6
CONTINUOUS
  0
LAYER
  2
OUTERTRACES
 70
     0
 62
    -7
  6
CONTINUOUS
  0
ENDTAB
  0
TABLE
  2
STYLE
 70
     2
  0
STYLE
  2
STANDARD
 70
     0
 40
0.0
 41
1.0
 50
0.0
 71
     0
 42
0.2
  3
txt
  4

  0
STYLE
  2
DEFAULT
 70
     0
 40
0.0
 41
1.0
 50
0.0
 71
     0
 42
0.2
  3
arial.ttf
  4

  0
ENDTAB
  0
TABLE
  2
VIEW
 70
     0
  0
ENDTAB
  0
TABLE
  2
UCS
 70
     0
  0
ENDTAB
  0
TABLE
  2
APPID
 70
     3
  0
APPID
  2
ACAD
 70
     0
  0
APPID
  2
RHINO
 70
     0
  0
APPID
  2
ACADANNOTATIVE
 70
     0
  0
ENDTAB
  0
TABLE
  2
DIMSTYLE
 70
     1
  0
DIMSTYLE
  2
STANDARD_ACAD
 70
     0
  3

  4

  5

  6

  7

 40
1.0
 41
0.18
 42
0.0625
 43
0.38
 44
0.18
 45
0.0
 46
0.0
 47
0.0
 48
0.0
140
0.18
141
0.09
142
0.0
143
25.4
144
1.0
145
0.0
146
1.0
147
0.09
 71
     0
 72
     0
 73
     1
 74
     1
 75
     0
 76
     0
 77
     0
 78
     0
170
     0
171
     2
172
     0
173
     0
174
     0
175
     0
176
     0
177
     0
178
     0
  0
ENDTAB
  0
ENDSEC
  0
SECTION
  2
BLOCKS
  0
BLOCK
  8
0
  2
$MODEL_SPACE
 70
     0
 10
0.0
 20
0.0
 30
0.0
  3
$MODEL_SPACE
  1

  0
ENDBLK
  5
21
  8
0
  0
BLOCK
 67
     1
  8
0
  2
$PAPER_SPACE
 70
     0
 10
0.0
 20
0.0
 30
0.0
  3
$PAPER_SPACE
  1

  0
ENDBLK
  5
1D
 67
     1
  8
0
  0
ENDSEC
  0
SECTION
  2
ENTITIES
  0
LINE
  5
6D
  8
DEFAULT
 10
-86.00000000000003
 20
0.0
 30
0.0
 11
-11.0
 21
0.0
 31
0.0
  0
LINE
  5
6E
  8
DEFAULT
 10
-11.0
 20
0.0
 30
0.0
 11
-11.0
 21
100.0
 31
0.0
  0
LINE
  5
6F
  8
DEFAULT
 10
-11.0
 20
100.0
 30
0.0
 11
-86.00000000000003
 21
100.0
 31
0.0
  0
LINE
  5
70
  8
DEFAULT
 10
-86.00000000000003
 20
100.0
 30
0.0
 11
-86.00000000000003
 21
0.0
 31
0.0
  0
TEXT
  5
72
  8
SILKMASK
 10
-75.1892747408828
 20
9.417161213017806
 30
0.0
 40
2.5
  1
D3
  7
DEFAULT
1001
ACADANNOTATIVE
1000
AnnotativeData
1002
{
1070
     1
1070
     0
1002
}
  0
TEXT
  5
73
  8
SILKMASK
 10
-75.18941455522913
 20
11.92999237998457
 30
0.0
 40
2.5
  1
D2
  7
DEFAULT
1001
ACADANNOTATIVE
1000
AnnotativeData
1002
{
1070
     1
1070
     0
1002
}
  0
TEXT
  5
74
  8
SILKMASK
 10
-66.67582665602855
 20
95.94666823856411
 30
0.0
 40
2.5
  1
M2
  7
DEFAULT
1001
ACADANNOTATIVE
1000
AnnotativeData
1002
{
1070
     1
1070
     0
1002
}
  0
TEXT
  5
75
  8
SILKMASK
 10
-53.50071033556313
 20
95.9616283354141
 30
0.0
 40
2.5
  1
M1
  7
DEFAULT
1001
ACADANNOTATIVE
1000
AnnotativeData
1002
{
1070
     1
1070
     0
1002
}
  0
TEXT
  5
76
  8
SILKMASK
 10
-32.8582366941822
 20
6.887412567146526
 30
0.0
 40
2.5
  1
D0
  7
DEFAULT
1001
ACADANNOTATIVE
1000
AnnotativeData
1002
{
1070
     1
1070
     0
1002
}
  0
TEXT
  5
77
  8
SILKMASK
 10
-22.27455366510691
 20
0.7491188384268526
 30
0.0
 40
2.5
  1
M3
  7
DEFAULT
1001
ACADANNOTATIVE
1000
AnnotativeData
1002
{
1070
     1
1070
     0
1002
}
  0
TEXT
  5
78
  8
SILKMASK
 10
-80.67295920421074
 20
2.887156133007787
 30
0.0
 40
2.5
  1
5V
  7
DEFAULT
1001
ACADANNOTATIVE
1000
AnnotativeData
1002
{
1070
     1
1070
     0
1002
}
  0
LINE
  5
79
  8
SILKMASK
 10
-38.28830132997996
 20
72.55062229800058
 30
0.0
 11
-29.03351731365728
 21
72.55062229800058
 31
0.0
  0
LINE
  5
7A
  8
SILKMASK
 10
-29.03351731365728
 20
72.55062229800058
 30
0.0
 11
-29.03351731365728
 21
77.0654448648541
 31
0.0
  0
LINE
  5
7B
  8
SILKMASK
 10
-29.03351731365728
 20
77.0654448648541
 30
0.0
 11
-38.28830132997996
 21
77.0654448648541
 31
0.0
  0
LINE
  5
7C
  8
SILKMASK
 10
-38.28830132997996
 20
77.0654448648541
 30
0.0
 11
-38.28830132997996
 21
72.55062229800058
 31
0.0
  0
TEXT
  5
7D
  8
SILKMASK
 10
-66.02613591526342
 20
76.67185073740932
 30
0.0
 40
2.5
  1
TB6612
  7
DEFAULT
1001
ACADANNOTATIVE
1000
AnnotativeData
1002
{
1070
     1
1070
     0
1002
}
  0
LINE
  5
7E
  8
SILKMASK
 10
-61.38497842231921
 20
64.52112348220254
 30
0.0
 11
-58.4370760169033
 21
64.52112348220254
 31
0.0
  0
LINE
  5
7F
  8
SILKMASK
 10
-58.4370760169033
 20
64.52112348220254
 30
0.0
 11
-58.4370760169033
 21
66.81393646419271
 31
0.0
  0
LINE
  5
80
  8
SILKMASK
 10
-58.4370760169033
 20
66.81393646419271
 30
0.0
 11
-61.38497842231921
 21
66.81393646419271
 31
0.0
  0
LINE
  5
81
  8
SILKMASK
 10
-61.38497842231921
 20
66.81393646419271
 30
0.0
 11
-61.38497842231921
 21
64.52112348220254
 31
0.0
  0
LINE
  5
82
  8
SILKMASK
 10
-62.42356909300553
 20
68.41220285985203
 30
0.0
 11
-57.39848534621699
 21
68.41220285985203
 31
0.0
  0
LINE
  5
83
  8
SILKMASK
 10
-57.39848534621699
 20
68.41220285985203
 30
0.0
 11
-57.39848534621699
 21
75.00590164970929
 31
0.0
  0
LINE
  5
84
  8
SILKMASK
 10
-57.39848534621699
 20
75.00590164970929
 30
0.0
 11
-62.42356909300553
 21
75.00590164970929
 31
0.0
  0
LINE
  5
85
  8
SILKMASK
 10
-62.42356909300553
 20
75.00590164970929
 30
0.0
 11
-62.42356909300553
 21
68.41220285985203
 31
0.0
  0
TEXT
  5
86
  8
SILKMASK
 10
-39.32546103256411
 20
66.75551783906593
 30
0.0
 40
2.5
  1
RELAY
  7
DEFAULT
1001
ACADANNOTATIVE
1000
AnnotativeData
1002
{
1070
     1
1070
     0
1002
}
  0
TEXT
  5
87
  8
SILKMASK
 10
-32.37520280007935
 20
86.87883026281594
 30
0.0
 40
2.5
  1
COM
 50
90.00000000000038
  7
DEFAULT
1001
ACADANNOTATIVE
1000
AnnotativeData
1002
{
1070
     1
1070
     0
1002
}
  0
TEXT
  5
88
  8
SILKMASK
 10
-25.56519518006422
 20
86.70167886595117
 30
0.0
 40
2.5
  1
NO
 50
90.00000000000162
  7
DEFAULT
1001
ACADANNOTATIVE
1000
AnnotativeData
1002
{
1070
     1
1070
     0
1002
}
  0
TEXT
  5
89
  8
SILKMASK
 10
-20.22697085498864
 20
92.95615443230882
 30
0.0
 40
2.5
  1
12V
  7
DEFAULT
1001
ACADANNOTATIVE
1000
AnnotativeData
1002
{
1070
     1
1070
     0
1002
}
  0
TEXT
  5
8A
  8
SILKMASK
 10
-19.82613731795128
 20
90.39044283055956
 30
0.0
 40
2.5
  1
GND
  7
DEFAULT
1001
ACADANNOTATIVE
1000
AnnotativeData
1002
{
1070
     1
1070
     0
1002
}
  0
TEXT
  5
8B
  8
SILKMASK
 10
-83.93041746742988
 20
6.824275698225177
 30
0.0
 40
2.5
  1
GND
  7
DEFAULT
1001
ACADANNOTATIVE
1000
AnnotativeData
1002
{
1070
     1
1070
     0
1002
}
  0
TEXT
  5
8C
  8
SILKMASK
 10
-32.85995811136055
 20
9.389987299974562
 30
0.0
 40
2.5
  1
D1
  7
DEFAULT
1001
ACADANNOTATIVE
1000
AnnotativeData
1002
{
1070
     1
1070
     0
1002
}
  0
TEXT
  5
8D
  8
SILKMASK
 10
-30.19690975293046
 20
55.78553015453372
 30
0.0
 40
2.5
  1
GND
 50
270.0000000000001
  7
DEFAULT
1001
ACADANNOTATIVE
1000
AnnotativeData
1002
{
1070
     1
1070
     0
1002
}
  0
TEXT
  5
8E
  8
SILKMASK
 10
-32.62041714537413
 20
52.47773841928004
 30
0.0
 40
2.5
  1
5V
 50
270.0
  7
DEFAULT
1001
ACADANNOTATIVE
1000
AnnotativeData
1002
{
1070
     1
1070
     0
1002
}
  0
TEXT
  5
8F
  8
SILKMASK
 10
-27.07713601344688
 20
14.46999745999447
 30
0.0
 40
2.5
  1
2
  7
DEFAULT
1001
ACADANNOTATIVE
1000
AnnotativeData
1002
{
1070
     1
1070
     0
1002
}
  0
TEXT
  5
90
  8
SILKMASK
 10
-27.6361221824436
 20
11.95716629302816
 30
0.0
 40
2.5
  1
15
  7
DEFAULT
1001
ACADANNOTATIVE
1000
AnnotativeData
1002
{
1070
     1
1070
     0
1002
}
  0
TEXT
  5
91
  8
SILKMASK
 10
-27.17616530651324
 20
17.03717645304819
 30
0.0
 40
2.5
  1
0
  7
DEFAULT
1001
ACADANNOTATIVE
1000
AnnotativeData
1002
{
1070
     1
1070
     0
1002
}
  0
TEXT
  5
92
  8
SILKMASK
 10
-26.95926707641646
 20
19.56000762001496
 30
0.0
 40
2.5
  1
4
  7
DEFAULT
1001
ACADANNOTATIVE
1000
AnnotativeData
1002
{
1070
     1
1070
     0
1002
}
  0
TEXT
  5
93
  8
SILKMASK
 10
-27.63999315297467
 20
24.63001778003546
 30
0.0
 40
2.5
  1
17
  7
DEFAULT
1001
ACADANNOTATIVE
1000
AnnotativeData
1002
{
1070
     1
1070
     0
1002
}
  0
TEXT
  5
94
  8
SILKMASK
 10
-27.64032345321806
 20
22.11718661306869
 30
0.0
 40
2.5
  1
16
  7
DEFAULT
1001
ACADANNOTATIVE
1000
AnnotativeData
1002
{
1070
     1
1070
     0
1002
}
  0
TEXT
  5
95
  8
SILKMASK
 10
-27.17595312221304
 20
27.2275772078718
 30
0.0
 40
2.5
  1
5
  7
DEFAULT
1001
ACADANNOTATIVE
1000
AnnotativeData
1002
{
1070
     1
1070
     0
1002
}
  0
TEXT
  5
96
  8
SILKMASK
 10
-27.64191166476692
 20
29.73720185309875
 30
0.0
 40
2.5
  1
18
  7
DEFAULT
1001
ACADANNOTATIVE
1000
AnnotativeData
1002
{
1070
     1
1070
     0
1002
}
  0
TEXT
  5
97
  8
SILKMASK
 10
-27.66356466756934
 20
32.277206933109
 30
0.0
 40
2.5
  1
19
  7
DEFAULT
1001
ACADANNOTATIVE
1000
AnnotativeData
1002
{
1070
     1
1070
     0
1002
}
  0
TEXT
  5
98
  8
SILKMASK
 10
-27.25979422664371
 20
34.76433157833664
 30
0.0
 40
2.5
  1
GND
  7
DEFAULT
1001
ACADANNOTATIVE
1000
AnnotativeData
1002
{
1070
     1
1070
     0
1002
}
  0
TEXT
  5
99
  8
SILKMASK
 10
-27.09046697101499
 20
37.33004318008602
 30
0.0
 40
2.5
  1
21
  7
DEFAULT
1001
ACADANNOTATIVE
1000
AnnotativeData
1002
{
1070
     1
1070
     0
1002
}
  0
TEXT
  5
9A
  8
SILKMASK
 10
-27.0377773183689
 20
39.88004826009626
 30
0.0
 40
2.5
  1
TR
  7
DEFAULT
1001
ACADANNOTATIVE
1000
AnnotativeData
1002
{
1070
     1
1070
     0
1002
}
  0
TEXT
  5
9B
  8
SILKMASK
 10
-27.03539977506182
 20
42.42005334010651
 30
0.0
 40
2.5
  1
TX
  7
DEFAULT
1001
ACADANNOTATIVE
1000
AnnotativeData
1002
{
1070
     1
1070
     0
1002
}
  0
TEXT
  5
9C
  8
SILKMASK
 10
-27.06315392590488
 20
44.95005842011675
 30
0.0
 40
2.5
  1
22
  7
DEFAULT
1001
ACADANNOTATIVE
1000
AnnotativeData
1002
{
1070
     1
1070
     0
1002
}
  0
TEXT
  5
9D
  8
SILKMASK
 10
-58.49840484115863
 20
25.85608626102606
 30
0.0
 40
2.5
  1
ESP32
  7
DEFAULT
1001
ACADANNOTATIVE
1000
AnnotativeData
1002
{
1070
     1
1070
     0
1002
}
  0
TEXT
  5
9E
  8
SILKMASK
 10
-74.47357399156121
 20
34.8172120130756
 30
0.0
 40
2.5
  1
32
  7
DEFAULT
1001
ACADANNOTATIVE
1000
AnnotativeData
1002
{
1070
     1
1070
     0
1002
}
  0
TEXT
  5
9F
  8
SILKMASK
 10
-74.52288159542412
 20
37.35721709312995
 30
0.0
 40
2.5
  1
35
  7
DEFAULT
1001
ACADANNOTATIVE
1000
AnnotativeData
1002
{
1070
     1
1070
     0
1002
}
  0
TEXT
  5
A0
  8
SILKMASK
 10
-74.48883618160392
 20
39.89722217314019
 30
0.0
 40
2.5
  1
34
  7
DEFAULT
1001
ACADANNOTATIVE
1000
AnnotativeData
1002
{
1070
     1
1070
     0
1002
}
  0
TEXT
  5
A1
  8
SILKMASK
 10
-75.20903915978097
 20
42.42005334010696
 30
0.0
 40
2.5
  1
VN
  7
DEFAULT
1001
ACADANNOTATIVE
1000
AnnotativeData
1002
{
1070
     1
1070
     0
1002
}
  0
TEXT
  5
A2
  8
SILKMASK
 10
-75.14519994342615
 20
44.96005842011721
 30
0.0
 40
2.5
  1
VP
  7
DEFAULT
1001
ACADANNOTATIVE
1000
AnnotativeData
1002
{
1070
     1
1070
     0
1002
}
  0
TEXT
  5
A3
  8
SILKMASK
 10
-75.47567230101114
 20
47.50006350012745
 30
0.0
 40
2.5
  1
EN
  7
DEFAULT
1001
ACADANNOTATIVE
1000
AnnotativeData
1002
{
1070
     1
1070
     0
1002
}
  0
TEXT
  5
A4
  8
SILKMASK
 10
-76.80284401499495
 20
50.01392823206462
 30
0.0
 40
2.5
  1
3V3
  7
DEFAULT
1001
ACADANNOTATIVE
1000
AnnotativeData
1002
{
1070
     1
1070
     0
1002
}
  0
LINE
  5
A5
  8
SILKMASK
 10
-54.99695199390408
 20
3.918973837947647
 30
0.0
 11
-49.89852679705359
 21
3.918973837947647
 31
0.0
  0
LINE
  5
A6
  8
SILKMASK
 10
-49.89852679705359
 20
3.918973837947647
 30
0.0
 11
-49.89852679705359
 21
8.871983743967462
 31
0.0
  0
LINE
  5
A7
  8
SILKMASK
 10
-49.89852679705359
 20
8.871983743967462
 30
0.0
 11
-54.99695199390408
 21
8.871983743967462
 31
0.0
  0
LINE
  5
A8
  8
SILKMASK
 10
-54.99695199390408
 20
8.871983743967462
 30
0.0
 11
-54.99695199390408
 21
3.918973837947647
 31
0.0
  0
ENDSEC
  0
EOF
