  0
SECTION
  2
HEADER
  9
$ACADVER
  1
AC1009
  9
$DWGCODEPAGE
  3
ansi_1252
  9
$INSBASE
 10
0.0
 20
0.0
 30
0.0
  9
$EXTMIN
 10
-387.0000000000001
 20
-0.0000000000000284
 30
-1.500000000002065
  9
$EXTMAX
 10
-312.0000000000001
 20
100.0
 30
0.0000000000000004
  9
$LIMMIN
 10
0.0
 20
0.0
  9
$LIMMAX
 10
12.0
 20
9.0
  9
$ORTHOMODE
 70
     0
  9
$REGENMODE
 70
     1
  9
$FILLMODE
 70
     1
  9
$QTEXTMODE
 70
     0
  9
$MIRRTEXT
 70
     1
  9
$DRAGMODE
 70
     2
  9
$LTSCALE
 40
1.0
  9
$OSMODE
 70
    37
  9
$ATTMODE
 70
     1
  9
$TEXTSIZE
 40
0.2
  9
$TRACEWID
 40
0.05
  9
$TEXTSTYLE
  7
STANDARD
  9
$CLAYER
  8
0
  9
$CELTYPE
  6
BYLAYER
  9
$CECOLOR
 62
   256
  9
$DIMSCALE
 40
1.0
  9
$DIMASZ
 40
0.18
  9
$DIMEXO
 40
0.0625
  9
$DIMDLI
 40
0.38
  9
$DIMRND
 40
0.0
  9
$DIMDLE
 40
0.0
  9
$DIMEXE
 40
0.18
  9
$DIMTP
 40
0.0
  9
$DIMTM
 40
0.0
  9
$DIMTXT
 40
0.18
  9
$DIMCEN
 40
0.09
  9
$DIMTSZ
 40
0.0
  9
$DIMTOL
 70
     0
  9
$DIMLIM
 70
     0
  9
$DIMTIH
 70
     1
  9
$DIMTOH
 70
     1
  9
$DIMSE1
 70
     0
  9
$DIMSE2
 70
     0
  9
$DIMTAD
 70
     0
  9
$DIMZIN
 70
     0
  9
$DIMBLK
  1

  9
$DIMASO
 70
     1
  9
$DIMSHO
 70
     1
  9
$DIMPOST
  1

  9
$DIMAPOST
  1

  9
$DIMALT
 70
     0
  9
$DIMALTD
 70
     2
  9
$DIMALTF
 40
25.4
  9
$DIMLFAC
 40
1.0
  9
$DIMTOFL
 70
     0
  9
$DIMTVP
 40
0.0
  9
$DIMTIX
 70
     0
  9
$DIMSOXD
 70
     0
  9
$DIMSAH
 70
     0
  9
$DIMBLK1
  1

  9
$DIMBLK2
  1

  9
$DIMSTYLE
  2
STANDARD_ACAD
  9
$DIMCLRD
 70
     0
  9
$DIMCLRE
 70
     0
  9
$DIMCLRT
 70
     0
  9
$DIMTFAC
 40
1.0
  9
$DIMGAP
 40
0.09
  9
$LUNITS
 70
     2
  9
$LUPREC
 70
     3
  9
$SKETCHINC
 40
0.1
  9
$FILLETRAD
 40
0.0
  9
$AUNITS
 70
     0
  9
$AUPREC
 70
     0
  9
$MENU
  1
.
  9
$ELEVATION
 40
0.0
  9
$PELEVATION
 40
0.0
  9
$THICKNESS
 40
0.0
  9
$LIMCHECK
 70
     0
  9
$CHAMFERA
 40
0.0
  9
$CHAMFERB
 40
0.0
  9
$SKPOLY
 70
     0
  9
$TDCREATE
 40
2460559.791665301
  9
$TDUPDATE
 40
2460559.791679606
  9
$TDINDWG
 40
0.0000000116
  9
$TDUSRTIMER
 40
0.0000000116
  9
$USRTIMER
 70
     1
  9
$ANGBASE
 50
0.0
  9
$ANGDIR
 70
     0
  9
$PDMODE
 70
     0
  9
$PDSIZE
 40
0.0
  9
$PLINEWID
 40
0.0
  9
$COORDS
 70
     1
  9
$SPLFRAME
 70
     0
  9
$SPLINETYPE
 70
     6
  9
$SPLINESEGS
 70
     8
  9
$ATTDIA
 70
     0
  9
$ATTREQ
 70
     1
  9
$HANDLING
 70
     1
  9
$HANDSEED
  5
413
  9
$SURFTAB1
 70
     6
  9
$SURFTAB2
 70
     6
  9
$SURFTYPE
 70
     6
  9
$SURFU
 70
     6
  9
$SURFV
 70
     6
  9
$UCSNAME
  2

  9
$UCSORG
 10
0.0
 20
0.0
 30
0.0
  9
$UCSXDIR
 10
1.0
 20
0.0
 30
0.0
  9
$UCSYDIR
 10
0.0
 20
1.0
 30
0.0
  9
$PUCSNAME
  2

  9
$PUCSORG
 10
0.0
 20
0.0
 30
0.0
  9
$PUCSXDIR
 10
1.0
 20
0.0
 30
0.0
  9
$PUCSYDIR
 10
0.0
 20
1.0
 30
0.0
  9
$USERI1
 70
     0
  9
$USERI2
 70
     0
  9
$USERI3
 70
     0
  9
$USERI4
 70
     0
  9
$USERI5
 70
     0
  9
$USERR1
 40
0.0
  9
$USERR2
 40
0.0
  9
$USERR3
 40
0.0
  9
$USERR4
 40
0.0
  9
$USERR5
 40
0.0
  9
$WORLDVIEW
 70
     1
  9
$SHADEDGE
 70
     3
  9
$SHADEDIF
 70
    70
  9
$TILEMODE
 70
     1
  9
$MAXACTVP
 70
    64
  9
$PLIMCHECK
 70
     0
  9
$PEXTMIN
 10
1.000000000000000E+20
 20
1.000000000000000E+20
 30
1.000000000000000E+20
  9
$PEXTMAX
 10
-1.000000000000000E+20
 20
-1.000000000000000E+20
 30
-1.000000000000000E+20
  9
$PLIMMIN
 10
0.0
 20
0.0
  9
$PLIMMAX
 10
12.0
 20
9.0
  9
$UNITMODE
 70
     0
  9
$VISRETAIN
 70
     1
  9
$PLINEGEN
 70
     0
  9
$PSLTSCALE
 70
     1
  0
ENDSEC
  0
SECTION
  2
TABLES
  0
TABLE
  2
VPORT
 70
     1
  0
VPORT
  2
*ACTIVE
 70
     0
 10
0.0
 20
0.0
 11
1.0
 21
1.0
 12
10.42990654205607
 22
4.5
 13
0.0
 23
0.0
 14
0.5
 24
0.5
 15
0.5
 25
0.5
 16
0.0
 26
0.0
 36
1.0
 17
0.0
 27
0.0
 37
0.0
 40
9.0
 41
1.972972972850329
 42
50.0
 43
0.0
 44
0.0
 50
0.0
 51
0.0
 71
     0
 72
   100
 73
     1
 74
     3
 75
     0
 76
     0
 77
     0
 78
     0
  0
ENDTAB
  0
TABLE
  2
LTYPE
 70
     1
  0
LTYPE
  2
CONTINUOUS
 70
     0
  3
Solid line
 72
    65
 73
     0
 40
0.0
  0
ENDTAB
  0
TABLE
  2
LAYER
 70
     3
  0
LAYER
  2
0
 70
     0
 62
     7
  6
CONTINUOUS
  0
LAYER
  2
MOSFET$MASK
 70
     0
 62
     7
  6
CONTINUOUS
  0
LAYER
  2
MOSFET$TRACES
 70
     0
 62
     7
  6
CONTINUOUS
  0
ENDTAB
  0
TABLE
  2
STYLE
 70
     1
  0
STYLE
  2
STANDARD
 70
     0
 40
0.0
 41
1.0
 50
0.0
 71
     0
 42
0.2
  3
txt
  4

  0
ENDTAB
  0
TABLE
  2
VIEW
 70
     0
  0
ENDTAB
  0
TABLE
  2
UCS
 70
     0
  0
ENDTAB
  0
TABLE
  2
APPID
 70
     2
  0
APPID
  2
ACAD
 70
     0
  0
APPID
  2
RHINO
 70
     0
  0
ENDTAB
  0
TABLE
  2
DIMSTYLE
 70
     1
  0
DIMSTYLE
  2
STANDARD_ACAD
 70
     0
  3

  4

  5

  6

  7

 40
1.0
 41
0.18
 42
0.0625
 43
0.38
 44
0.18
 45
0.0
 46
0.0
 47
0.0
 48
0.0
140
0.18
141
0.09
142
0.0
143
25.4
144
1.0
145
0.0
146
1.0
147
0.09
 71
     0
 72
     0
 73
     1
 74
     1
 75
     0
 76
     0
 77
     0
 78
     0
170
     0
171
     2
172
     0
173
     0
174
     0
175
     0
176
     0
177
     0
178
     0
  0
ENDTAB
  0
ENDSEC
  0
SECTION
  2
BLOCKS
  0
BLOCK
  8
0
  2
$MODEL_SPACE
 70
     0
 10
0.0
 20
0.0
 30
0.0
  3
$MODEL_SPACE
  1

  0
ENDBLK
  5
21
  8
0
  0
BLOCK
 67
     1
  8
0
  2
$PAPER_SPACE
 70
     0
 10
0.0
 20
0.0
 30
0.0
  3
$PAPER_SPACE
  1

  0
ENDBLK
  5
1D
 67
     1
  8
0
  0
ENDSEC
  0
SECTION
  2
ENTITIES
  0
CIRCLE
  5
60
  8
MOSFET$MASK
 10
384.0000000000001
 20
96.99999999999994
 30
0.0
 40
1.5
210
0.0
220
0.0
230
-1.0
  0
CIRCLE
  5
61
  8
MOSFET$MASK
 10
384.0000000000001
 20
3.0
 30
0.0
 40
1.5
210
0.0
220
0.0
230
-1.0
  0
CIRCLE
  5
62
  8
MOSFET$MASK
 10
315.0000000000001
 20
2.999999999999943
 30
0.0
 40
1.5
210
0.0
220
0.0
230
-1.0
  0
CIRCLE
  5
63
  8
MOSFET$MASK
 10
315.0000000000001
 20
97.0
 30
0.0
 40
1.500000000000057
210
0.0
220
0.0
230
-1.0
  0
LINE
  5
64
  8
MOSFET$MASK
 10
-315.0000000000001
 20
100.0
 30
0.0
 11
-384.0000000000001
 21
100.0
 31
0.0
  0
ARC
  5
65
  8
MOSFET$MASK
 10
-384.0000000000002
 20
97.00000000000016
 30
-0.0000000000000002
 40
2.999999999999829
 50
89.99999999999675
 51
180.0000000000032
  0
LINE
  5
66
  8
MOSFET$MASK
 10
-387.0000000000001
 20
96.99999999999999
 30
0.0
 11
-387.0000000000001
 21
2.999999999999986
 31
0.0
  0
ARC
  5
67
  8
MOSFET$MASK
 10
-384.0000000000002
 20
2.999999999999858
 30
-0.0000000000000002
 40
2.999999999999886
 50
179.9999999999976
 51
270.0000000000021
  0
LINE
  5
68
  8
MOSFET$MASK
 10
-384.0000000000001
 20
-0.0000000000000142
 30
0.0
 11
-315.0000000000001
 21
-0.0000000000000142
 31
0.0
  0
ARC
  5
69
  8
MOSFET$MASK
 10
-315.0000000000001
 20
2.999999999999972
 30
0.0000000000000004
 40
2.999999999999986
 50
270.0
 51
0.0000000000002799
  0
LINE
  5
6A
  8
MOSFET$MASK
 10
-312.0000000000001
 20
2.999999999999986
 30
0.0
 11
-312.0000000000001
 21
96.99999999999999
 31
0.0
  0
ARC
  5
6B
  8
MOSFET$MASK
 10
-314.9999999999999
 20
97.00000000000017
 30
-0.0000000000000002
 40
2.999999999999829
 50
359.9999999999965
 51
90.00000000000325
  0
LINE
  5
6D
  8
MOSFET$TRACES
 10
-315.0000000000001
 20
100.0
 30
0.0
 11
-384.0000000000001
 21
100.0
 31
0.0
  0
ARC
  5
6E
  8
MOSFET$TRACES
 10
-384.0000000000002
 20
97.00000000000016
 30
-0.0000000000000002
 40
2.999999999999829
 50
89.99999999999675
 51
180.0000000000032
  0
LINE
  5
6F
  8
MOSFET$TRACES
 10
-387.0000000000001
 20
96.99999999999999
 30
0.0
 11
-387.0000000000001
 21
2.999999999999986
 31
0.0
  0
ARC
  5
70
  8
MOSFET$TRACES
 10
-384.0000000000002
 20
2.999999999999858
 30
-0.0000000000000002
 40
2.999999999999886
 50
179.9999999999976
 51
270.0000000000021
  0
LINE
  5
71
  8
MOSFET$TRACES
 10
-384.0000000000001
 20
-0.0000000000000142
 30
0.0
 11
-315.0000000000001
 21
-0.0000000000000142
 31
0.0
  0
ARC
  5
72
  8
MOSFET$TRACES
 10
-315.0000000000001
 20
2.999999999999972
 30
0.0000000000000004
 40
2.999999999999986
 50
270.0
 51
0.0000000000002799
  0
LINE
  5
73
  8
MOSFET$TRACES
 10
-312.0000000000001
 20
2.999999999999986
 30
0.0
 11
-312.0000000000001
 21
96.99999999999999
 31
0.0
  0
ARC
  5
74
  8
MOSFET$TRACES
 10
-314.9999999999999
 20
97.00000000000017
 30
-0.0000000000000002
 40
2.999999999999829
 50
359.9999999999965
 51
90.00000000000325
  0
CIRCLE
  5
75
  8
MOSFET$TRACES
 10
315.0000000000001
 20
97.0
 30
0.0
 40
1.500000000000057
210
0.0
220
0.0
230
-1.0
  0
CIRCLE
  5
76
  8
MOSFET$TRACES
 10
315.0000000000001
 20
2.999999999999943
 30
0.0
 40
1.5
210
0.0
220
0.0
230
-1.0
  0
CIRCLE
  5
77
  8
MOSFET$TRACES
 10
384.0000000000001
 20
3.0
 30
0.0
 40
1.5
210
0.0
220
0.0
230
-1.0
  0
CIRCLE
  5
78
  8
MOSFET$TRACES
 10
384.0000000000001
 20
96.99999999999994
 30
0.0
 40
1.5
210
0.0
220
0.0
230
-1.0
  0
LINE
  5
79
  8
MOSFET$TRACES
 10
-380.642113284249
 20
83.32990218422007
 30
-1.5
 11
-380.6421132842267
 21
7.787421424802695
 31
-1.5
  0
ARC
  5
7A
  8
MOSFET$TRACES
 10
381.1352077543588
 20
7.784001388236817
 30
1.500000000000001
 40
0.4931063304450563
 50
179.6026105933682
 51
233.0921884408045
210
0.0
220
0.0
230
-1.0
  0
ARC
  5
7B
  8
MOSFET$TRACES
 10
-380.1421132842266
 20
6.474980949961846
 30
-1.5
 40
1.149999999999984
 50
127.3052009657887
 51
52.6947990342189
  0
ARC
  5
7C
  8
MOSFET$TRACES
 10
379.1421132842268
 20
7.787421424802432
 30
1.5
 40
0.499999999999778
 50
307.3052009657812
 51
0.0000000000407111
210
0.0
220
0.0
230
-1.0
  0
LINE
  5
7D
  8
MOSFET$TRACES
 10
-379.6421132842266
 20
7.787421424802787
 30
-1.5
 11
-379.6421132842266
 21
83.33613815385984
 31
-1.5
  0
ARC
  5
7E
  8
MOSFET$TRACES
 10
379.1421132842266
 20
83.33613815385984
 30
1.5
 40
0.5
 50
0.0
 51
48.06402021924545
210
0.0
220
0.0
230
-1.0
  0
ARC
  5
7F
  8
MOSFET$TRACES
 10
-380.145605791222
 20
84.45313690627556
 30
-1.5
 40
1.001560329954851
 50
311.9359797807685
 51
228.4213138030203
  0
ARC
  5
80
  8
MOSFET$TRACES
 10
381.142113284249
 20
83.32990218421824
 30
1.5
 40
0.5
 50
131.5786861969794
 51
179.9999999997899
210
0.0
220
0.0
230
-1.0
  0
LINE
  5
81
  8
MOSFET$TRACES
 10
-376.1421132842266
 20
83.33301038462886
 30
-1.5
 11
-376.1421132842268
 21
7.787421424802558
 31
-1.5
  0
ARC
  5
82
  8
MOSFET$TRACES
 10
-375.6425775808206
 20
7.787191477013167
 30
-1.500000000000001
 40
0.4995357563313244
 50
179.9736254349388
 51
232.7211735993114
  0
ARC
  5
83
  8
MOSFET$TRACES
 10
376.6421132842267
 20
6.474980949961832
 30
1.5
 40
1.150000000000019
 50
127.3052009657874
 51
52.69479903421668
210
0.0
220
0.0
230
-1.0
  0
ARC
  5
84
  8
MOSFET$TRACES
 10
-377.6421132842264
 20
7.787421424802446
 30
-1.5
 40
0.4999999999998226
 50
307.3052009657691
 51
0.0000000000260551
  0
LINE
  5
85
  8
MOSFET$TRACES
 10
-377.1421132842266
 20
7.787421424802673
 30
-1.5
 11
-377.1421132842265
 21
83.33301038462841
 31
-1.5
  0
ARC
  5
86
  8
MOSFET$TRACES
 10
-377.6421132842265
 20
83.3330103846284
 30
-1.499999999999999
 40
0.5
 50
0.0000000000016284
 51
48.24291565296922
  0
ARC
  5
87
  8
MOSFET$TRACES
 10
376.6421132842268
 20
84.45313690627093
 30
1.5
 40
1.001560329952304
 50
311.7570843470353
 51
228.2429156529398
210
0.0
220
0.0
230
-1.0
  0
ARC
  5
88
  8
MOSFET$TRACES
 10
-375.6421132842266
 20
83.33301038462879
 30
-1.500000000000001
 40
0.5
 50
131.7570843470492
 51
179.9999999999919
  0
CIRCLE
  5
89
  8
MOSFET$TRACES
 10
380.1456057912231
 20
84.45313690627366
 30
1.5
 40
0.415
210
0.0
220
0.0
230
-1.0
  0
CIRCLE
  5
8A
  8
MOSFET$TRACES
 10
376.6421132842266
 20
84.45313690627121
 30
1.5
 40
0.415
210
0.0
220
0.0
230
-1.0
  0
ARC
  5
8B
  8
MOSFET$TRACES
 10
366.9900939801881
 20
85.45313690627378
 30
1.5
 40
1.001560329952623
 50
110.2890876124549
 51
228.2429156529641
210
0.0
220
0.0
230
-1.0
  0
ARC
  5
8C
  8
MOSFET$TRACES
 10
-365.9900939801881
 20
84.33301038463102
 30
-1.5
 40
0.5
 50
131.7570843470308
 51
179.9999999999967
  0
LINE
  5
8D
  8
MOSFET$TRACES
 10
-366.4900939801881
 20
84.33301038463107
 30
-1.5
 11
-366.4900939801881
 21
79.7850192030654
 31
-1.5
  0
LINE
  5
8E
  8
MOSFET$TRACES
 10
-366.4900939801881
 20
79.7850192030654
 30
-1.5
 11
-372.5826618488101
 21
73.69245133444336
 31
-1.5
  0
ARC
  5
8F
  8
MOSFET$TRACES
 10
-372.2454738457148
 20
73.34567670930502
 30
-1.500000000000001
 40
0.4836821167577364
 50
134.1969780292113
 51
180.8030219707606
  0
LINE
  5
90
  8
MOSFET$TRACES
 10
-372.729108458217
 20
73.33889794384997
 30
-1.5
 11
-372.7291084582169
 21
71.87114549497299
 31
-1.5
  0
ARC
  5
91
  8
MOSFET$TRACES
 10
-372.2413660206954
 20
71.86566374638493
 30
-1.499999999999999
 40
0.4877732412987031
 50
179.3560785143162
 51
228.8336065899074
  0
ARC
  5
92
  8
MOSFET$TRACES
 10
373.229108458217
 20
70.75311150622301
 30
1.5
 40
1.000000000000078
 50
131.8103148957804
 51
318.1896851042271
210
0.0
220
0.0
230
-1.0
  0
ARC
  5
93
  8
MOSFET$TRACES
 10
373.229108458217
 20
70.75311150622294
 30
1.5
 40
0.9999999999999538
 50
318.1896851042286
 51
41.81031489578241
210
0.0
220
0.0
230
-1.0
  0
LINE
  5
94
  8
MOSFET$TRACES
 10
-373.9744644507168
 20
71.41977817288965
 30
-1.5
 11
-373.8957751248834
 21
71.49846749872312
 31
-1.5
  0
ARC
  5
95
  8
MOSFET$TRACES
 10
-374.229108458216
 20
71.87114549497267
 30
-1.499999999999998
 40
0.4999999999991854
 50
311.8103148957456
 51
0.0000000000504818
  0
LINE
  5
96
  8
MOSFET$TRACES
 10
-373.7291084582168
 20
71.8711454949731
 30
-1.5
 11
-373.729108458217
 21
73.96021828740972
 31
-1.5
  0
LINE
  5
97
  8
MOSFET$TRACES
 10
-373.729108458217
 20
73.96021828740972
 30
-1.5
 11
-367.6365405895949
 21
80.05278615603184
 31
-1.5
  0
ARC
  5
98
  8
MOSFET$TRACES
 10
-367.9588942474671
 20
80.39341619418973
 30
-1.499999999999994
 40
0.4689783615893951
 50
313.420935046116
 51
1.579064953858646
  0
LINE
  5
99
  8
MOSFET$TRACES
 10
-367.4900939801881
 20
80.40633954662502
 30
-1.5
 11
-367.490093980188
 21
84.33301038463101
 31
-1.5
  0
ARC
  5
9A
  8
MOSFET$TRACES
 10
-367.9900939801881
 20
84.33301038463101
 30
-1.5
 40
0.5
 50
359.9999999999984
 51
48.24291565296814
  0
ARC
  5
9B
  8
MOSFET$TRACES
 10
366.9900939801881
 20
85.4531369062738
 30
1.5
 40
1.001560329952658
 50
311.7570843470342
 51
19.9430279729166
210
0.0
220
0.0
230
-1.0
  0
ARC
  5
9C
  8
MOSFET$TRACES
 10
-368.4016091062362
 20
85.96529749966699
 30
-1.5
 40
0.5
 50
340.0569720270854
 51
44.99999999999424
  0
LINE
  5
9D
  8
MOSFET$TRACES
 10
-368.0480557156429
 20
86.31885089026025
 30
-1.5
 11
-371.7989126482844
 21
90.06970782290203
 31
-1.5
  0
ARC
  5
9E
  8
MOSFET$TRACES
 10
-372.1524660388778
 20
89.71615443230856
 30
-1.500000000000002
 40
0.5000000000002252
 50
45.00000000000691
 51
89.99999999998046
  0
LINE
  5
9F
  8
MOSFET$TRACES
 10
-372.1524660388777
 20
90.21615443230881
 30
-1.5
 11
-373.0596702693811
 21
90.21615443230881
 31
-1.5
  0
ARC
  5
A0
  8
MOSFET$TRACES
 10
-373.0596702693811
 20
89.7161544323088
 30
-1.499999999999998
 40
0.5000000000000142
 50
90.00000000000651
 51
142.6947990342057
  0
ARC
  5
A1
  8
MOSFET$TRACES
 10
374.3721107442217
 20
90.71615443230876
 30
1.5
 40
1.149999999999916
 50
217.3052009657806
 51
322.6947990342193
210
0.0
220
0.0
230
-1.0
  0
ARC
  5
A2
  8
MOSFET$TRACES
 10
-375.6845512190624
 20
89.71615443230858
 30
-1.5
 40
0.5000000000002005
 50
37.30520096580975
 51
89.99999999997394
  0
LINE
  5
A3
  8
MOSFET$TRACES
 10
-375.6845512190621
 20
90.21615443230881
 30
-1.5
 11
-376.9253509040848
 21
90.21615443230881
 31
-1.5
  0
LINE
  5
A4
  8
MOSFET$TRACES
 10
-376.9253509040848
 20
90.21615443230881
 30
-1.5
 11
-378.5391160782322
 21
91.8299196064563
 31
-1.5
  0
LINE
  5
A5
  8
MOSFET$TRACES
 10
-378.5391160782322
 20
91.8299196064563
 30
-1.5
 11
-378.5391160782322
 21
95.43926324549942
 31
-1.5
  0
LINE
  5
A6
  8
MOSFET$TRACES
 10
-378.5391160782322
 20
95.43926324549942
 30
-1.5
 11
-375.9762203194138
 21
98.00215900431793
 31
-1.5
  0
LINE
  5
A7
  8
MOSFET$TRACES
 10
-375.9762203194138
 20
98.00215900431793
 30
-1.5
 11
-371.5959575598499
 21
98.00215900431793
 31
-1.5
  0
LINE
  5
A8
  8
MOSFET$TRACES
 10
-371.5959575598499
 20
98.00215900431793
 30
-1.5
 11
-360.1860005060863
 21
86.5922019505541
 31
-1.5
  0
LINE
  5
A9
  8
MOSFET$TRACES
 10
-360.1860005060863
 20
86.5922019505541
 30
-1.5
 11
-360.1860005060861
 21
82.11926410655921
 31
-1.5
  0
ARC
  5
AA
  8
MOSFET$TRACES
 10
-359.7172002388078
 20
82.1063407541234
 30
-1.499999999999996
 40
0.4689783615887304
 50
178.4209350460748
 51
226.5790649539132
  0
LINE
  5
AB
  8
MOSFET$TRACES
 10
-360.0395538966794
 20
81.76571071596584
 30
-1.5
 11
-347.9903939303287
 21
69.71655074961517
 31
-1.5
  0
ARC
  5
AC
  8
MOSFET$TRACES
 10
-347.6497638921707
 20
70.0389044074874
 30
-1.499999999999999
 40
0.4689783615894897
 50
223.420935046098
 51
271.5790649538844
  0
LINE
  5
AD
  8
MOSFET$TRACES
 10
-347.6368405397351
 20
69.57010414020829
 30
-1.5
 11
-346.7880873288569
 21
69.57010414020827
 31
-1.5
  0
ARC
  5
AE
  8
MOSFET$TRACES
 10
-346.7800007600429
 20
70.05202202263575
 30
-1.499999999999999
 40
0.4819857238534887
 50
269.0386686152272
 51
319.151016488964
  0
ARC
  5
AF
  8
MOSFET$TRACES
 10
345.6700533401068
 20
69.07010414020816
 30
1.5
 40
1.000000000000093
 50
41.81031489577529
 51
318.1896851042327
210
0.0
220
0.0
230
-1.0
  0
ARC
  5
B0
  8
MOSFET$TRACES
 10
-346.7880873288567
 20
68.07010414020837
 30
-1.5
 40
0.4999999999999735
 50
41.81031489578059
 51
89.99999999999349
  0
LINE
  5
B1
  8
MOSFET$TRACES
 10
-346.7880873288566
 20
68.57010414020833
 30
-1.5
 11
-348.2581608832949
 21
68.57010414020827
 31
-1.5
  0
LINE
  5
B2
  8
MOSFET$TRACES
 10
-348.2581608832949
 20
68.57010414020827
 30
-1.5
 11
-361.1860005060862
 21
81.49794376299953
 31
-1.5
  0
LINE
  5
B3
  8
MOSFET$TRACES
 10
-361.1860005060862
 20
81.49794376299953
 30
-1.5
 11
-361.1860005060861
 21
85.97088160699444
 31
-1.5
  0
ARC
  5
B4
  8
MOSFET$TRACES
 10
-361.669635118588
 20
85.9776603724496
 30
-1.5
 40
0.4836821167573581
 50
359.1969780292252
 51
45.80302197079293
  0
LINE
  5
B5
  8
MOSFET$TRACES
 10
-361.3324471154929
 20
86.32443499758772
 30
-1.5
 11
-371.8637245128162
 21
96.85571239491127
 31
-1.5
  0
ARC
  5
B6
  8
MOSFET$TRACES
 10
-372.210499137954
 20
96.51852439181657
 30
-1.5
 40
0.4836821167569235
 50
44.19697802920158
 51
90.80302197080414
  0
LINE
  5
B7
  8
MOSFET$TRACES
 10
-372.2172779034094
 20
97.00215900431795
 30
-1.5
 11
-375.3548999758543
 21
97.00215900431805
 31
-1.5
  0
ARC
  5
B8
  8
MOSFET$TRACES
 10
-375.3616787413096
 20
96.5185243918167
 30
-1.5
 40
0.483682116756891
 50
89.1969780292093
 51
135.8030219708069
  0
LINE
  5
B9
  8
MOSFET$TRACES
 10
-375.7084533664474
 20
96.8557123949113
 30
-1.5
 11
-377.3926694688253
 21
95.17149629253309
 31
-1.5
  0
ARC
  5
BA
  8
MOSFET$TRACES
 10
-377.039116078232
 20
94.81794290193955
 30
-1.499999999999994
 40
0.5000000000002351
 50
134.9999999999827
 51
179.9999999999756
  0
LINE
  5
BB
  8
MOSFET$TRACES
 10
-377.5391160782322
 20
94.81794290193976
 30
-1.5
 11
-377.5391160782321
 21
92.45123995001585
 31
-1.5
  0
ARC
  5
BC
  8
MOSFET$TRACES
 10
-377.0391160782325
 20
92.45123995001566
 30
-1.5
 40
0.4999999999996021
 50
179.9999999999788
 51
225.0000000000092
  0
LINE
  5
BD
  8
MOSFET$TRACES
 10
-377.3926694688254
 20
92.09768655942263
 30
-1.5
 11
-376.6575839511184
 21
91.36260104171559
 31
-1.5
  0
ARC
  5
BE
  8
MOSFET$TRACES
 10
-376.3040305605252
 20
91.71615443230868
 30
-1.499999999999997
 40
0.4999999999997931
 50
224.9999999999943
 51
269.9999999999674
  0
LINE
  5
BF
  8
MOSFET$TRACES
 10
-376.3040305605255
 20
91.21615443230887
 30
-1.5
 11
-375.6845512190621
 21
91.21615443230893
 31
-1.5
  0
ARC
  5
C0
  8
MOSFET$TRACES
 10
-375.684551219062
 20
91.71615443230858
 30
-1.5
 40
0.4999999999996589
 50
269.9999999999804
 51
322.6947990342171
  0
ARC
  5
C1
  8
MOSFET$TRACES
 10
374.3721107442216
 20
90.71615443230887
 30
1.5
 40
1.14999999999995
 50
37.30520096578287
 51
142.694799034212
210
0.0
220
0.0
230
-1.0
  0
ARC
  5
C2
  8
MOSFET$TRACES
 10
-373.0596702693809
 20
91.71615443230931
 30
-1.5
 40
0.5000000000003857
 50
217.3052009658161
 51
269.999999999987
  0
LINE
  5
C3
  8
MOSFET$TRACES
 10
-373.059670269381
 20
91.21615443230893
 30
-1.5
 11
-371.5311456953181
 21
91.21615443230893
 31
-1.5
  0
LINE
  5
C4
  8
MOSFET$TRACES
 10
-371.5311456953181
 20
91.21615443230893
 30
-1.5
 11
-366.8229707888959
 21
86.50797952588623
 31
-1.5
  0
ARC
  5
C5
  8
MOSFET$TRACES
 10
-366.4694173983026
 20
86.86153291647955
 30
-1.5
 40
0.5
 50
225.0000000000069
 51
249.7109123875422
  0
CIRCLE
  5
C6
  8
MOSFET$TRACES
 10
366.9900939801881
 20
85.4531369062738
 30
1.5
 40
0.415
210
0.0
220
0.0
230
-1.0
  0
CIRCLE
  5
C7
  8
MOSFET$TRACES
 10
364.3390906781815
 20
85.4531369062738
 30
1.5
 40
0.415
210
0.0
220
0.0
230
-1.0
  0
CIRCLE
  5
C8
  8
MOSFET$TRACES
 10
345.6700533401068
 20
81.77012954025894
 30
1.5
 40
0.415
210
0.0
220
0.0
230
-1.0
  0
CIRCLE
  5
C9
  8
MOSFET$TRACES
 10
355.4490728981459
 20
70.75311150622302
 30
1.5
 40
0.415
210
0.0
220
0.0
230
-1.0
  0
CIRCLE
  5
CA
  8
MOSFET$TRACES
 10
355.449072898146
 20
65.67310134620264
 30
1.5
 40
0.415
210
0.0
220
0.0
230
-1.0
  0
CIRCLE
  5
CB
  8
MOSFET$TRACES
 10
355.449072898146
 20
68.21310642621278
 30
1.5
 40
0.415
210
0.0
220
0.0
230
-1.0
  0
CIRCLE
  5
CC
  8
MOSFET$TRACES
 10
358.3700787401575
 20
28.4300228600457
 30
1.5
 40
0.415
210
0.0
220
0.0
230
-1.0
  0
CIRCLE
  5
CD
  8
MOSFET$TRACES
 10
358.3700787401575
 20
25.89001778003545
 30
1.5
 40
0.415
210
0.0
220
0.0
230
-1.0
  0
CIRCLE
  5
CE
  8
MOSFET$TRACES
 10
358.3700787401575
 20
46.21005842011674
 30
1.5
 40
0.415
210
0.0
220
0.0
230
-1.0
  0
CIRCLE
  5
CF
  8
MOSFET$TRACES
 10
358.3700787401575
 20
10.64998729997454
 30
1.5
 40
0.415
210
0.0
220
0.0
230
-1.0
  0
CIRCLE
  5
D0
  8
MOSFET$TRACES
 10
358.3700787401575
 20
8.109982219964408
 30
1.5
 40
0.415
210
0.0
220
0.0
230
-1.0
  0
CIRCLE
  5
D1
  8
MOSFET$TRACES
 10
330.4700966660402
 20
76.69011938023867
 30
1.5
 40
0.415
210
0.0
220
0.0
230
-1.0
  0
CIRCLE
  5
D2
  8
MOSFET$TRACES
 10
330.4700966660402
 20
74.15011430022854
 30
1.5
 40
0.415
210
0.0
220
0.0
230
-1.0
  0
CIRCLE
  5
D3
  8
MOSFET$TRACES
 10
330.4700966660402
 20
69.07010414020827
 30
1.5
 40
0.415
210
0.0
220
0.0
230
-1.0
  0
CIRCLE
  5
D4
  8
MOSFET$TRACES
 10
330.4700966660402
 20
66.53009906019803
 30
1.5
 40
0.415
210
0.0
220
0.0
230
-1.0
  0
CIRCLE
  5
D5
  8
MOSFET$TRACES
 10
330.4700966660402
 20
63.99009398018789
 30
1.5
 40
0.415
210
0.0
220
0.0
230
-1.0
  0
CIRCLE
  5
D6
  8
MOSFET$TRACES
 10
330.4700966660402
 20
71.6101092202184
 30
1.5
 40
0.415
210
0.0
220
0.0
230
-1.0
  0
CIRCLE
  5
D7
  8
MOSFET$TRACES
 10
330.4700966660402
 20
79.2301244602488
 30
1.5
 40
0.415
210
0.0
220
0.0
230
-1.0
  0
CIRCLE
  5
D8
  8
MOSFET$TRACES
 10
373.2291084582169
 20
68.21310642621278
 30
1.5
 40
0.415
210
0.0
220
0.0
230
-1.0
  0
CIRCLE
  5
D9
  8
MOSFET$TRACES
 10
345.6700533401068
 20
79.2301244602488
 30
1.5
 40
0.415
210
0.0
220
0.0
230
-1.0
  0
CIRCLE
  5
DA
  8
MOSFET$TRACES
 10
345.6700533401068
 20
76.69011938023867
 30
1.5
 40
0.415
210
0.0
220
0.0
230
-1.0
  0
CIRCLE
  5
DB
  8
MOSFET$TRACES
 10
345.6700533401068
 20
74.15011430022854
 30
1.5
 40
0.415
210
0.0
220
0.0
230
-1.0
  0
CIRCLE
  5
DC
  8
MOSFET$TRACES
 10
345.6700533401068
 20
71.6101092202184
 30
1.5
 40
0.415
210
0.0
220
0.0
230
-1.0
  0
CIRCLE
  5
DD
  8
MOSFET$TRACES
 10
345.6700533401068
 20
69.07010414020827
 30
1.5
 40
0.415
210
0.0
220
0.0
230
-1.0
  0
CIRCLE
  5
DE
  8
MOSFET$TRACES
 10
345.6700533401068
 20
63.99009398018795
 30
1.5
 40
0.415
210
0.0
220
0.0
230
-1.0
  0
CIRCLE
  5
DF
  8
MOSFET$TRACES
 10
358.3700787401575
 20
51.29006858013723
 30
1.5
 40
0.415
210
0.0
220
0.0
230
-1.0
  0
CIRCLE
  5
E0
  8
MOSFET$TRACES
 10
358.3700787401575
 20
43.67005334010649
 30
1.5
 40
0.415
210
0.0
220
0.0
230
-1.0
  0
CIRCLE
  5
E1
  8
MOSFET$TRACES
 10
358.3700787401575
 20
41.13004826009625
 30
1.5
 40
0.415
210
0.0
220
0.0
230
-1.0
  0
CIRCLE
  5
E2
  8
MOSFET$TRACES
 10
358.3700787401575
 20
38.590043180086
 30
1.5
 40
0.415
210
0.0
220
0.0
230
-1.0
  0
CIRCLE
  5
E3
  8
MOSFET$TRACES
 10
358.3700787401575
 20
33.51003302006551
 30
1.5
 40
0.415
210
0.0
220
0.0
230
-1.0
  0
CIRCLE
  5
E4
  8
MOSFET$TRACES
 10
358.3700787401575
 20
30.97002794005526
 30
1.5
 40
0.415
210
0.0
220
0.0
230
-1.0
  0
CIRCLE
  5
E5
  8
MOSFET$TRACES
 10
358.3700787401575
 20
23.3500127000252
 30
1.5
 40
0.415
210
0.0
220
0.0
230
-1.0
  0
CIRCLE
  5
E6
  8
MOSFET$TRACES
 10
358.3700787401575
 20
20.81000762001496
 30
1.5
 40
0.415
210
0.0
220
0.0
230
-1.0
  0
CIRCLE
  5
E7
  8
MOSFET$TRACES
 10
358.3700787401575
 20
18.27000254000471
 30
1.5
 40
0.415
210
0.0
220
0.0
230
-1.0
  0
CIRCLE
  5
E8
  8
MOSFET$TRACES
 10
358.3700787401575
 20
15.72999745999446
 30
1.5
 40
0.415
210
0.0
220
0.0
230
-1.0
  0
CIRCLE
  5
E9
  8
MOSFET$TRACES
 10
358.3700787401575
 20
36.05003810007575
 30
1.5
 40
0.415
210
0.0
220
0.0
230
-1.0
  0
CIRCLE
  5
EA
  8
MOSFET$TRACES
 10
358.3700787401575
 20
36.05003810007575
 30
1.5
 40
0.415
210
0.0
220
0.0
230
-1.0
  0
CIRCLE
  5
EB
  8
MOSFET$TRACES
 10
358.3700787401575
 20
13.18999237998467
 30
1.5
 40
0.415
210
0.0
220
0.0
230
-1.0
  0
CIRCLE
  5
EC
  8
MOSFET$TRACES
 10
373.2291084582169
 20
65.67310134620264
 30
1.5
 40
0.415
210
0.0
220
0.0
230
-1.0
  0
CIRCLE
  5
ED
  8
MOSFET$TRACES
 10
366.54
 20
46.21005842011674
 30
1.5
 40
0.415
210
0.0
220
0.0
230
-1.0
  0
CIRCLE
  5
EE
  8
MOSFET$TRACES
 10
332.9700279400559
 20
25.89001778003545
 30
1.5
 40
0.415
210
0.0
220
0.0
230
-1.0
  0
CIRCLE
  5
EF
  8
MOSFET$TRACES
 10
332.9700279400559
 20
20.81000762001518
 30
1.5
 40
0.415
210
0.0
220
0.0
230
-1.0
  0
CIRCLE
  5
F0
  8
MOSFET$TRACES
 10
332.9700279400559
 20
15.72999745999481
 30
1.5
 40
0.415
210
0.0
220
0.0
230
-1.0
  0
CIRCLE
  5
F1
  8
MOSFET$TRACES
 10
332.9700279400559
 20
23.35001270002532
 30
1.5
 40
0.415
210
0.0
220
0.0
230
-1.0
  0
CIRCLE
  5
F2
  8
MOSFET$TRACES
 10
332.9700279400559
 20
28.4300228600457
 30
1.5
 40
0.415
210
0.0
220
0.0
230
-1.0
  0
CIRCLE
  5
F3
  8
MOSFET$TRACES
 10
332.9700279400559
 20
33.51003302006596
 30
1.5
 40
0.415
210
0.0
220
0.0
230
-1.0
  0
CIRCLE
  5
F4
  8
MOSFET$TRACES
 10
332.9700279400559
 20
30.97002794005583
 30
1.5
 40
0.415
210
0.0
220
0.0
230
-1.0
  0
CIRCLE
  5
F5
  8
MOSFET$TRACES
 10
332.9700279400559
 20
5.569977139954162
 30
1.5
 40
0.415
210
0.0
220
0.0
230
-1.0
  0
CIRCLE
  5
F6
  8
MOSFET$TRACES
 10
364.0000000000001
 20
43.67005334010649
 30
1.5
 40
0.415
210
0.0
220
0.0
230
-1.0
  0
CIRCLE
  5
F7
  8
MOSFET$TRACES
 10
364.0000000000001
 20
10.64998729997454
 30
1.5
 40
0.415
210
0.0
220
0.0
230
-1.0
  0
CIRCLE
  5
F8
  8
MOSFET$TRACES
 10
364.0000000000001
 20
8.109982219964408
 30
1.5
 40
0.415
210
0.0
220
0.0
230
-1.0
  0
CIRCLE
  5
F9
  8
MOSFET$TRACES
 10
366.54
 20
43.67005334010649
 30
1.5
 40
0.415
210
0.0
220
0.0
230
-1.0
  0
CIRCLE
  5
FA
  8
MOSFET$TRACES
 10
369.0800000000001
 20
43.67005334010649
 30
1.5
 40
0.415
210
0.0
220
0.0
230
-1.0
  0
CIRCLE
  5
FB
  8
MOSFET$TRACES
 10
364.0000000000001
 20
46.21005842011674
 30
1.5
 40
0.415
210
0.0
220
0.0
230
-1.0
  0
CIRCLE
  5
FC
  8
MOSFET$TRACES
 10
369.0800000000001
 20
46.21005842011674
 30
1.5
 40
0.415
210
0.0
220
0.0
230
-1.0
  0
CIRCLE
  5
FD
  8
MOSFET$TRACES
 10
364.0000000000001
 20
41.13004826009625
 30
1.5
 40
0.415
210
0.0
220
0.0
230
-1.0
  0
CIRCLE
  5
FE
  8
MOSFET$TRACES
 10
366.54
 20
41.13004826009625
 30
1.5
 40
0.415
210
0.0
220
0.0
230
-1.0
  0
CIRCLE
  5
FF
  8
MOSFET$TRACES
 10
369.0800000000001
 20
41.13004826009625
 30
1.5
 40
0.415
210
0.0
220
0.0
230
-1.0
  0
CIRCLE
  5
100
  8
MOSFET$TRACES
 10
364.0000000000001
 20
38.590043180086
 30
1.5
 40
0.415
210
0.0
220
0.0
230
-1.0
  0
CIRCLE
  5
101
  8
MOSFET$TRACES
 10
366.54
 20
38.590043180086
 30
1.5
 40
0.415
210
0.0
220
0.0
230
-1.0
  0
CIRCLE
  5
102
  8
MOSFET$TRACES
 10
369.0800000000001
 20
38.590043180086
 30
1.5
 40
0.415
210
0.0
220
0.0
230
-1.0
  0
CIRCLE
  5
103
  8
MOSFET$TRACES
 10
364.0000000000001
 20
33.51003302006551
 30
1.5
 40
0.415
210
0.0
220
0.0
230
-1.0
  0
CIRCLE
  5
104
  8
MOSFET$TRACES
 10
366.54
 20
33.51003302006551
 30
1.5
 40
0.415
210
0.0
220
0.0
230
-1.0
  0
CIRCLE
  5
105
  8
MOSFET$TRACES
 10
369.0800000000001
 20
33.51003302006551
 30
1.5
 40
0.415
210
0.0
220
0.0
230
-1.0
  0
CIRCLE
  5
106
  8
MOSFET$TRACES
 10
364.0000000000001
 20
30.97002794005526
 30
1.5
 40
0.415
210
0.0
220
0.0
230
-1.0
  0
CIRCLE
  5
107
  8
MOSFET$TRACES
 10
366.54
 20
30.97002794005526
 30
1.5
 40
0.415
210
0.0
220
0.0
230
-1.0
  0
CIRCLE
  5
108
  8
MOSFET$TRACES
 10
369.0800000000001
 20
30.97002794005526
 30
1.5
 40
0.415
210
0.0
220
0.0
230
-1.0
  0
CIRCLE
  5
109
  8
MOSFET$TRACES
 10
364.0000000000001
 20
28.4300228600457
 30
1.5
 40
0.415
210
0.0
220
0.0
230
-1.0
  0
CIRCLE
  5
10A
  8
MOSFET$TRACES
 10
366.5400000000001
 20
28.4300228600457
 30
1.5
 40
0.415
210
0.0
220
0.0
230
-1.0
  0
CIRCLE
  5
10B
  8
MOSFET$TRACES
 10
369.0800000000001
 20
28.4300228600457
 30
1.5
 40
0.415
210
0.0
220
0.0
230
-1.0
  0
CIRCLE
  5
10C
  8
MOSFET$TRACES
 10
364.0000000000001
 20
25.89001778003545
 30
1.5
 40
0.415
210
0.0
220
0.0
230
-1.0
  0
CIRCLE
  5
10D
  8
MOSFET$TRACES
 10
366.5400000000001
 20
25.89001778003545
 30
1.5
 40
0.415
210
0.0
220
0.0
230
-1.0
  0
CIRCLE
  5
10E
  8
MOSFET$TRACES
 10
369.0800000000001
 20
25.89001778003545
 30
1.5
 40
0.415
210
0.0
220
0.0
230
-1.0
  0
CIRCLE
  5
10F
  8
MOSFET$TRACES
 10
364.0000000000001
 20
23.3500127000252
 30
1.5
 40
0.415
210
0.0
220
0.0
230
-1.0
  0
CIRCLE
  5
110
  8
MOSFET$TRACES
 10
366.54
 20
23.3500127000252
 30
1.5
 40
0.415
210
0.0
220
0.0
230
-1.0
  0
CIRCLE
  5
111
  8
MOSFET$TRACES
 10
369.0800000000001
 20
23.3500127000252
 30
1.5
 40
0.415
210
0.0
220
0.0
230
-1.0
  0
CIRCLE
  5
112
  8
MOSFET$TRACES
 10
364.0000000000001
 20
20.81000762001496
 30
1.5
 40
0.415
210
0.0
220
0.0
230
-1.0
  0
CIRCLE
  5
113
  8
MOSFET$TRACES
 10
366.54
 20
20.81000762001496
 30
1.5
 40
0.415
210
0.0
220
0.0
230
-1.0
  0
CIRCLE
  5
114
  8
MOSFET$TRACES
 10
369.0800000000001
 20
20.81000762001496
 30
1.5
 40
0.415
210
0.0
220
0.0
230
-1.0
  0
CIRCLE
  5
115
  8
MOSFET$TRACES
 10
364.0000000000001
 20
18.27000254000471
 30
1.5
 40
0.415
210
0.0
220
0.0
230
-1.0
  0
CIRCLE
  5
116
  8
MOSFET$TRACES
 10
366.54
 20
18.27000254000471
 30
1.5
 40
0.415
210
0.0
220
0.0
230
-1.0
  0
CIRCLE
  5
117
  8
MOSFET$TRACES
 10
369.0800000000001
 20
18.27000254000471
 30
1.5
 40
0.415
210
0.0
220
0.0
230
-1.0
  0
CIRCLE
  5
118
  8
MOSFET$TRACES
 10
364.0000000000001
 20
15.72999745999446
 30
1.5
 40
0.415
210
0.0
220
0.0
230
-1.0
  0
CIRCLE
  5
119
  8
MOSFET$TRACES
 10
366.54
 20
15.72999745999446
 30
1.5
 40
0.415
210
0.0
220
0.0
230
-1.0
  0
CIRCLE
  5
11A
  8
MOSFET$TRACES
 10
369.0800000000001
 20
15.72999745999446
 30
1.5
 40
0.415
210
0.0
220
0.0
230
-1.0
  0
CIRCLE
  5
11B
  8
MOSFET$TRACES
 10
332.9700279400559
 20
51.29006858013769
 30
1.5
 40
0.415
210
0.0
220
0.0
230
-1.0
  0
CIRCLE
  5
11C
  8
MOSFET$TRACES
 10
332.9700279400559
 20
48.75006350012744
 30
1.5
 40
0.415
210
0.0
220
0.0
230
-1.0
  0
CIRCLE
  5
11D
  8
MOSFET$TRACES
 10
332.9700279400559
 20
46.21005842011719
 30
1.5
 40
0.415
210
0.0
220
0.0
230
-1.0
  0
CIRCLE
  5
11E
  8
MOSFET$TRACES
 10
332.9700279400559
 20
43.67005334010695
 30
1.5
 40
0.415
210
0.0
220
0.0
230
-1.0
  0
CIRCLE
  5
11F
  8
MOSFET$TRACES
 10
332.9700279400559
 20
41.1300482600967
 30
1.5
 40
0.415
210
0.0
220
0.0
230
-1.0
  0
CIRCLE
  5
120
  8
MOSFET$TRACES
 10
332.9700279400559
 20
38.59004318008645
 30
1.5
 40
0.415
210
0.0
220
0.0
230
-1.0
  0
CIRCLE
  5
121
  8
MOSFET$TRACES
 10
332.9700279400559
 20
36.05003810007621
 30
1.5
 40
0.415
210
0.0
220
0.0
230
-1.0
  0
CIRCLE
  5
122
  8
MOSFET$TRACES
 10
332.9700279400559
 20
13.18999237998456
 30
1.5
 40
0.415
210
0.0
220
0.0
230
-1.0
  0
CIRCLE
  5
123
  8
MOSFET$TRACES
 10
329.8000000000001
 20
51.29006858013769
 30
1.5
 40
0.415
210
0.0
220
0.0
230
-1.0
  0
CIRCLE
  5
124
  8
MOSFET$TRACES
 10
329.8000000000001
 20
48.75006350012744
 30
1.5
 40
0.415
210
0.0
220
0.0
230
-1.0
  0
CIRCLE
  5
125
  8
MOSFET$TRACES
 10
329.8000000000001
 20
46.21005842011719
 30
1.5
 40
0.415
210
0.0
220
0.0
230
-1.0
  0
CIRCLE
  5
126
  8
MOSFET$TRACES
 10
329.8000000000001
 20
43.67005334010695
 30
1.5
 40
0.415
210
0.0
220
0.0
230
-1.0
  0
CIRCLE
  5
127
  8
MOSFET$TRACES
 10
329.8000000000001
 20
41.1300482600967
 30
1.5
 40
0.415
210
0.0
220
0.0
230
-1.0
  0
CIRCLE
  5
128
  8
MOSFET$TRACES
 10
329.8000000000001
 20
38.59004318008645
 30
1.5
 40
0.415
210
0.0
220
0.0
230
-1.0
  0
CIRCLE
  5
129
  8
MOSFET$TRACES
 10
329.8000000000001
 20
36.05003810007621
 30
1.5
 40
0.415
210
0.0
220
0.0
230
-1.0
  0
CIRCLE
  5
12A
  8
MOSFET$TRACES
 10
329.8000000000001
 20
13.18999237998456
 30
1.5
 40
0.415
210
0.0
220
0.0
230
-1.0
  0
CIRCLE
  5
12B
  8
MOSFET$TRACES
 10
332.9700279400559
 20
10.64998729997431
 30
1.5
 40
0.415
210
0.0
220
0.0
230
-1.0
  0
CIRCLE
  5
12C
  8
MOSFET$TRACES
 10
329.8000000000001
 20
10.64998729997431
 30
1.5
 40
0.415
210
0.0
220
0.0
230
-1.0
  0
CIRCLE
  5
12D
  8
MOSFET$TRACES
 10
332.2640335280672
 20
92.43815087630172
 30
1.5
 40
0.5
210
0.0
220
0.0
230
-1.0
  0
CIRCLE
  5
12E
  8
MOSFET$TRACES
 10
348.7890525781052
 20
92.43815087630172
 30
1.5
 40
0.5
210
0.0
220
0.0
230
-1.0
  0
CIRCLE
  5
12F
  8
MOSFET$TRACES
 10
380.1421132842266
 20
6.474980949961818
 30
1.5
 40
0.5
210
0.0
220
0.0
230
-1.0
  0
CIRCLE
  5
130
  8
MOSFET$TRACES
 10
376.6421132842266
 20
6.474980949961818
 30
1.5
 40
0.5
210
0.0
220
0.0
230
-1.0
  0
CIRCLE
  5
131
  8
MOSFET$TRACES
 10
374.3721107442216
 20
90.71615443230881
 30
1.5
 40
0.5
210
0.0
220
0.0
230
-1.0
  0
CIRCLE
  5
132
  8
MOSFET$TRACES
 10
323.7310134620521
 20
4.609982219964294
 30
1.5
 40
0.5
210
0.0
220
0.0
230
-1.0
  0
CIRCLE
  5
133
  8
MOSFET$TRACES
 10
345.2890525781052
 20
92.43815087630172
 30
1.5
 40
0.5
210
0.0
220
0.0
230
-1.0
  0
CIRCLE
  5
134
  8
MOSFET$TRACES
 10
335.7640335280672
 20
92.43815087630172
 30
1.5
 40
0.5
210
0.0
220
0.0
230
-1.0
  0
CIRCLE
  5
135
  8
MOSFET$TRACES
 10
374.3721107442216
 20
94.21615443230881
 30
1.5
 40
0.5
210
0.0
220
0.0
230
-1.0
  0
CIRCLE
  5
136
  8
MOSFET$TRACES
 10
373.2291084582169
 20
70.75311150622302
 30
1.5
 40
0.5
210
0.0
220
0.0
230
-1.0
  0
CIRCLE
  5
137
  8
MOSFET$TRACES
 10
332.9700279400559
 20
18.27000254000505
 30
1.5
 40
0.5
210
0.0
220
0.0
230
-1.0
  0
CIRCLE
  5
138
  8
MOSFET$TRACES
 10
323.7310134620271
 20
8.109982219964294
 30
1.5
 40
0.5
210
0.0
220
0.0
230
-1.0
  0
CIRCLE
  5
139
  8
MOSFET$TRACES
 10
-358.3700787401575
 20
36.05003810007575
 30
-1.5
 40
0.7
  0
ARC
  5
13A
  8
MOSFET$TRACES
 10
-329.4958079760133
 20
4.669977139954149
 30
-1.499999999999997
 40
0.499999999999989
 50
44.99999999998906
 51
90.0
  0
LINE
  5
13B
  8
MOSFET$TRACES
 10
-329.4958079760133
 20
5.169977139954128
 30
-1.5
 11
-332.0319447880909
 21
5.169977139954169
 31
-1.5
  0
ARC
  5
13C
  8
MOSFET$TRACES
 10
-332.0389077391424
 20
4.686306707627817
 30
-1.499999999999997
 40
0.4837205492783061
 50
89.17522319997902
 51
137.0117153398699
  0
ARC
  5
13D
  8
MOSFET$TRACES
 10
332.9700279400557
 20
5.569977139954755
 30
1.500000000000001
 40
0.8000000000005767
 50
223.8130614605703
 51
316.1869385395868
210
0.0
220
0.0
230
-1.0
  0
ARC
  5
13E
  8
MOSFET$TRACES
 10
-333.9003397274553
 20
4.688202605370733
 30
-1.5
 40
0.4818372093148319
 50
42.88892009276858
 51
90.92414136756275
  0
LINE
  5
13F
  8
MOSFET$TRACES
 10
-333.9081110920201
 20
5.169977139954185
 30
-1.5
 11
-335.9297189530165
 21
5.16997713995424
 31
-1.5
  0
LINE
  5
140
  8
MOSFET$TRACES
 10
-335.9297189530164
 20
5.169977139954185
 30
-1.5
 11
-346.0528343548369
 21
15.29309254177473
 31
-1.5
  0
LINE
  5
141
  8
MOSFET$TRACES
 10
-346.0528343548369
 20
15.29309254177484
 30
-1.5
 11
-346.0528343548369
 21
42.26404011669659
 31
-1.5
  0
ARC
  5
142
  8
MOSFET$TRACES
 10
-346.5528343548368
 20
42.26404011669663
 30
-1.5
 40
0.4999999999999432
 50
359.9999999999951
 51
44.99999999991422
  0
LINE
  5
143
  8
MOSFET$TRACES
 10
-346.1992809642431
 20
42.61759350728936
 30
-1.5
 11
-351.2459645194538
 21
47.6642770625002
 31
-1.5
  0
ARC
  5
144
  8
MOSFET$TRACES
 10
-352.6330630200048
 20
46.31552505012206
 30
-1.500000000000001
 40
1.934728467027126
 50
44.19697802919152
 51
90.8030219708111
  0
LINE
  5
145
  8
MOSFET$TRACES
 10
-352.6601780818267
 20
48.25006350012698
 30
-1.5
 11
-364.4158600977744
 21
48.25006350012698
 31
-1.5
  0
ARC
  5
146
  8
MOSFET$TRACES
 10
-364.4158600977744
 20
47.75006350012687
 30
-1.5
 40
0.5000000000001137
 50
90.00000000000651
 51
134.9999999999868
  0
LINE
  5
147
  8
MOSFET$TRACES
 10
-364.7694134883677
 20
48.10361689072032
 30
-1.5
 11
-365.7298802042818
 21
47.14315017480634
 31
-1.5
  0
ARC
  5
148
  8
MOSFET$TRACES
 10
-365.3763268136885
 20
46.78959678421307
 30
-1.500000000000001
 40
0.4999999999999991
 50
135.0000000000006
 51
206.4744533531899
  0
ARC
  5
149
  8
MOSFET$TRACES
 10
366.54
 20
46.21005842011675
 30
1.500000000000001
 40
0.7999999999999535
 50
153.525546646806
 51
219.71513723243
210
0.0
220
0.0
230
-1.0
  0
ARC
  5
14A
  8
MOSFET$TRACES
 10
-365.5400000000091
 20
45.37939603381443
 30
-1.499999999999993
 40
0.4999999999998279
 50
140.2848627675506
 51
179.9999999976111
  0
LINE
  5
14B
  8
MOSFET$TRACES
 10
-366.0400000000089
 20
45.37939603383528
 30
-1.5
 11
-366.0400000000463
 21
44.50071572647595
 31
-1.5
  0
ARC
  5
14C
  8
MOSFET$TRACES
 10
-365.5400000000461
 20
44.50071572645467
 30
-1.499999999999996
 40
0.5000000000002274
 50
179.9999999975622
 51
219.7151372350631
  0
ARC
  5
14D
  8
MOSFET$TRACES
 10
366.5400000000005
 20
43.67005334010685
 30
1.5
 40
0.8000000000005479
 50
140.2848627650266
 51
219.7151372318307
210
0.0
220
0.0
230
-1.0
  0
ARC
  5
14E
  8
MOSFET$TRACES
 10
-365.5400000000006
 20
42.83939095381474
 30
-1.5
 40
0.4999999999995542
 50
140.284862768149
 51
180.0000000000717
  0
LINE
  5
14F
  8
MOSFET$TRACES
 10
-366.0400000000001
 20
42.83939095381412
 30
-1.5
 11
-366.0400000000001
 21
41.96071064638862
 31
-1.5
  0
ARC
  5
150
  8
MOSFET$TRACES
 10
-365.5399999999987
 20
41.96071064638917
 30
-1.500000000000004
 40
0.5000000000014211
 50
180.0000000000635
 51
219.7151372318136
  0
ARC
  5
151
  8
MOSFET$TRACES
 10
366.5400000000005
 20
41.13004826009649
 30
1.499999999999999
 40
0.8000000000005305
 50
140.2848627682011
 51
219.7151372324319
210
0.0
220
0.0
230
-1.0
  0
ARC
  5
152
  8
MOSFET$TRACES
 10
-365.5400000000079
 20
40.29938587379348
 30
-1.500000000000003
 40
0.5000000000009716
 50
140.2848627676171
 51
179.9999999972984
  0
LINE
  5
153
  8
MOSFET$TRACES
 10
-366.0400000000089
 20
40.29938587381706
 30
-1.5
 11
-366.0400000000463
 21
39.42070556645454
 31
-1.5
  0
ARC
  5
154
  8
MOSFET$TRACES
 10
-365.5400000000454
 20
39.42070556643358
 30
-1.5
 40
0.5000000000008527
 50
179.9999999975981
 51
219.7151372349975
  0
ARC
  5
155
  8
MOSFET$TRACES
 10
366.5400000000001
 20
38.59004318008591
 30
1.499999999999999
 40
0.7999999999999414
 50
140.2848627650025
 51
219.7151372320284
210
0.0
220
0.0
230
-1.0
  0
ARC
  5
156
  8
MOSFET$TRACES
 10
-365.5400000000025
 20
37.75938079379056
 30
-1.5
 40
0.5000000000004428
 50
140.2848627680061
 51
179.9999999984961
  0
LINE
  5
157
  8
MOSFET$TRACES
 10
-366.040000000003
 20
37.75938079380369
 30
-1.5
 11
-366.0400000000521
 21
34.34069540642598
 31
-1.5
  0
ARC
  5
158
  8
MOSFET$TRACES
 10
-365.5400000000516
 20
34.34069540641894
 30
-1.499999999999993
 40
0.5000000000004547
 50
179.9999999991931
 51
219.7151372353396
  0
ARC
  5
159
  8
MOSFET$TRACES
 10
366.5399999999991
 20
33.51003302006491
 30
1.5
 40
0.7999999999988978
 50
140.2848627645382
 51
219.7151372318426
210
0.0
220
0.0
230
-1.0
  0
ARC
  5
15A
  8
MOSFET$TRACES
 10
-365.5400000000013
 20
32.67937063377385
 30
-1.5
 40
0.4999999999989267
 50
140.2848627681031
 51
180.0000000001343
  0
LINE
  5
15B
  8
MOSFET$TRACES
 10
-366.0400000000002
 20
32.67937063377268
 30
-1.5
 11
-366.0400000000001
 21
31.80069032635093
 31
-1.5
  0
ARC
  5
15C
  8
MOSFET$TRACES
 10
-365.5399999999994
 20
31.80069032634791
 30
-1.500000000000003
 40
0.500000000000739
 50
179.999999999654
 51
219.7151372318403
  0
ARC
  5
15D
  8
MOSFET$TRACES
 10
366.5400000000002
 20
30.9700279400555
 30
1.5
 40
0.8000000000003119
 50
140.284862768188
 51
219.715137232419
210
0.0
220
0.0
230
-1.0
  0
ARC
  5
15E
  8
MOSFET$TRACES
 10
-365.5400000000096
 20
30.13936555375294
 30
-1.5
 40
0.499999999999385
 50
140.2848627674894
 51
179.999999997388
  0
LINE
  5
15F
  8
MOSFET$TRACES
 10
-366.040000000009
 20
30.13936555377573
 30
-1.5
 11
-366.0400000000463
 21
29.26068524641452
 31
-1.5
  0
ARC
  5
160
  8
MOSFET$TRACES
 10
-365.5400000000459
 20
29.26068524639346
 30
-1.5
 40
0.5000000000003411
 50
179.9999999975867
 51
219.7151372350389
  0
ARC
  5
161
  8
MOSFET$TRACES
 10
366.5400000000005
 20
28.4300228600458
 30
1.499999999999999
 40
0.800000000000406
 50
140.2848627650261
 51
219.7151372317631
210
0.0
220
0.0
230
-1.0
  0
ARC
  5
162
  8
MOSFET$TRACES
 10
-365.5399999999983
 20
27.59936047375352
 30
-1.500000000000003
 40
0.5000000000015891
 50
140.2848627681946
 51
180.000000000342
  0
LINE
  5
163
  8
MOSFET$TRACES
 10
-366.0399999999999
 20
27.59936047375054
 30
-1.5
 11
-366.04
 21
26.72068016632726
 31
-1.5
  0
ARC
  5
164
  8
MOSFET$TRACES
 10
-365.5400000000004
 20
26.72068016632645
 30
-1.5
 40
0.4999999999996021
 50
179.999999999908
 51
219.7151372317861
  0
ARC
  5
165
  8
MOSFET$TRACES
 10
366.5399999999998
 20
25.89001778003515
 30
1.5
 40
0.7999999999996379
 50
140.2848627681506
 51
219.7151372318227
210
0.0
220
0.0
230
-1.0
  0
ARC
  5
166
  8
MOSFET$TRACES
 10
-365.5400000000025
 20
25.05935539374408
 30
-1.499999999999993
 40
0.4999999999979069
 50
140.2848627680399
 51
180.0000000002581
  0
LINE
  5
167
  8
MOSFET$TRACES
 10
-366.0400000000004
 20
25.05935539374182
 30
-1.5
 11
-366.0400000000001
 21
24.18067508631894
 31
-1.5
  0
ARC
  5
168
  8
MOSFET$TRACES
 10
-365.5400000000009
 20
24.18067508631881
 30
-1.500000000000003
 40
0.499999999999261
 50
179.9999999999845
 51
219.7151372319995
  0
ARC
  5
169
  8
MOSFET$TRACES
 10
366.5400000000005
 20
23.35001270002616
 30
1.499999999999999
 40
0.8000000000009786
 50
140.2848627682198
 51
219.7151372324673
210
0.0
220
0.0
230
-1.0
  0
ARC
  5
16A
  8
MOSFET$TRACES
 10
-365.5400000000084
 20
22.51935031372221
 30
-1.5
 40
0.5000000000006767
 50
140.2848627675457
 51
179.99999999748
  0
LINE
  5
16B
  8
MOSFET$TRACES
 10
-366.0400000000091
 20
22.5193503137442
 30
-1.5
 11
-366.0400000000463
 21
21.64067000638532
 31
-1.5
  0
ARC
  5
16C
  8
MOSFET$TRACES
 10
-365.5400000000453
 20
21.64067000636449
 30
-1.500000000000003
 40
0.5000000000009663
 50
179.9999999976135
 51
219.7151372351345
  0
ARC
  5
16D
  8
MOSFET$TRACES
 10
366.5400000000011
 20
20.8100076200158
 30
1.499999999999999
 40
0.800000000001368
 50
140.2848627650833
 51
219.7151372324318
210
0.0
220
0.0
230
-1.0
  0
ARC
  5
16E
  8
MOSFET$TRACES
 10
-365.5400000000096
 20
19.97934523371256
 30
-1.500000000000003
 40
0.4999999999993725
 50
140.2848627675115
 51
179.9999999977576
  0
LINE
  5
16F
  8
MOSFET$TRACES
 10
-366.040000000009
 20
19.97934523373213
 30
-1.5
 11
-366.0400000000463
 21
19.10066492637121
 31
-1.5
  0
ARC
  5
170
  8
MOSFET$TRACES
 10
-365.5400000000449
 20
19.10066492635048
 30
-1.499999999999996
 40
0.5000000000014211
 50
179.9999999976249
 51
219.7151372349115
  0
ARC
  5
171
  8
MOSFET$TRACES
 10
366.5399999999994
 20
18.27000254000363
 30
1.5
 40
0.7999999999987731
 50
140.2848627649885
 51
219.7151372324621
210
0.0
220
0.0
230
-1.0
  0
ARC
  5
172
  8
MOSFET$TRACES
 10
-365.5400000000085
 20
17.43934015370168
 30
-1.5
 40
0.500000000000686
 50
140.2848627676259
 51
179.9999999976062
  0
LINE
  5
173
  8
MOSFET$TRACES
 10
-366.0400000000092
 20
17.43934015372257
 30
-1.5
 11
-366.0400000000463
 21
16.56065984636346
 31
-1.5
  0
ARC
  5
174
  8
MOSFET$TRACES
 10
-365.5400000000456
 20
16.56065984634265
 30
-1.5
 40
0.500000000000739
 50
179.9999999976143
 51
219.7151372348785
  0
ARC
  5
175
  8
MOSFET$TRACES
 10
366.5399999999998
 20
15.72999745999439
 30
1.5
 40
0.8000000000001772
 50
140.2848627648802
 51
39.71513723168388
210
0.0
220
0.0
230
-1.0
  0
ARC
  5
176
  8
MOSFET$TRACES
 10
-367.5400000000008
 20
16.56065984628643
 30
-1.500000000000003
 40
0.5000000000006273
 50
320.2848627679908
 51
359.9999999999756
  0
LINE
  5
177
  8
MOSFET$TRACES
 10
-367.0400000000001
 20
16.56065984628621
 30
-1.5
 11
-367.04
 21
17.43934015371188
 31
-1.5
  0
ARC
  5
178
  8
MOSFET$TRACES
 10
-367.5400000000004
 20
17.43934015371264
 30
-1.499999999999996
 40
0.5000000000003979
 50
359.9999999999137
 51
39.71513723183954
  0
ARC
  5
179
  8
MOSFET$TRACES
 10
366.5400000000006
 20
18.27000254000471
 30
1.499999999999999
 40
0.7999999999996362
 50
320.2848627681572
 51
39.71513723184111
210
0.0
220
0.0
230
-1.0
  0
ARC
  5
17A
  8
MOSFET$TRACES
 10
-367.5400000000001
 20
19.10066492629733
 30
-1.5
 40
0.5000000000005231
 50
320.2848627680867
 51
0.000000000363143
  0
LINE
  5
17B
  8
MOSFET$TRACES
 10
-367.0399999999996
 20
19.1006649263005
 30
-1.5
 11
-367.0399999999999
 21
19.97934523372486
 31
-1.5
  0
ARC
  5
17C
  8
MOSFET$TRACES
 10
-367.5399999999999
 20
19.97934523372463
 30
-1.499999999999996
 40
0.5
 50
0.0000000000260551
 51
39.71513723169279
  0
ARC
  5
17D
  8
MOSFET$TRACES
 10
366.5400000000006
 20
20.81000762001585
 30
1.5
 40
0.7999999999990506
 50
320.2848627680866
 51
39.7151372323554
210
0.0
220
0.0
230
-1.0
  0
ARC
  5
17E
  8
MOSFET$TRACES
 10
-367.5399999999915
 20
21.64067000631803
 30
-1.499999999999996
 40
0.5000000000005651
 50
320.2848627674387
 51
359.9999999976795
  0
LINE
  5
17F
  8
MOSFET$TRACES
 10
-367.0399999999909
 20
21.64067000629778
 30
-1.5
 11
-367.0399999999539
 21
22.51935031365313
 31
-1.5
  0
ARC
  5
180
  8
MOSFET$TRACES
 10
-367.5399999999531
 20
22.51935031367562
 30
-1.500000000000004
 40
0.499999999999261
 50
359.9999999974238
 51
39.7151372352867
  0
ARC
  5
181
  8
MOSFET$TRACES
 10
366.5399999999991
 20
23.35001270002405
 30
1.499999999999999
 40
0.8000000000015469
 50
320.2848627651125
 51
39.71513723237699
210
0.0
220
0.0
230
-1.0
  0
ARC
  5
182
  8
MOSFET$TRACES
 10
-367.5399999999889
 20
24.18067508632704
 30
-1.5
 40
0.4999999999977733
 50
320.2848627673243
 51
359.9999999974116
  0
LINE
  5
183
  8
MOSFET$TRACES
 10
-367.0399999999912
 20
24.18067508630445
 30
-1.5
 11
-367.0399999999539
 21
25.05935539366691
 31
-1.5
  0
ARC
  5
184
  8
MOSFET$TRACES
 10
-367.5399999999532
 20
25.05935539368841
 30
-1.5
 40
0.4999999999993179
 50
359.9999999975362
 51
39.71513723497885
  0
ARC
  5
185
  8
MOSFET$TRACES
 10
366.5400000000004
 20
25.89001778003555
 30
1.500000000000001
 40
0.7999999999997455
 50
320.2848627649365
 51
39.71513723183884
210
0.0
220
0.0
230
-1.0
  0
ARC
  5
186
  8
MOSFET$TRACES
 10
-367.5400000000004
 20
26.72068016632748
 30
-1.500000000000003
 40
0.5000000000003479
 50
320.2848627681822
 51
0.0000000000390827
  0
LINE
  5
187
  8
MOSFET$TRACES
 10
-367.04
 20
26.72068016632782
 30
-1.5
 11
-367.04
 21
27.59936047375048
 31
-1.5
  0
ARC
  5
188
  8
MOSFET$TRACES
 10
-367.5400000000014
 20
27.59936047375247
 30
-1.499999999999996
 40
0.5000000000013642
 50
359.999999999772
 51
39.71513723191666
  0
ARC
  5
189
  8
MOSFET$TRACES
 10
366.5400000000004
 20
28.43002286004537
 30
1.499999999999999
 40
0.8000000000000833
 50
320.2848627682142
 51
39.71513723240933
210
0.0
220
0.0
230
-1.0
  0
ARC
  5
18A
  8
MOSFET$TRACES
 10
-367.5399999999922
 20
29.26068524634847
 30
-1.5
 40
0.5000000000008072
 50
320.2848627675073
 51
359.9999999980467
  0
LINE
  5
18B
  8
MOSFET$TRACES
 10
-367.0399999999914
 20
29.26068524633142
 30
-1.5
 11
-367.0399999999539
 21
30.13936555368598
 31
-1.5
  0
ARC
  5
18C
  8
MOSFET$TRACES
 10
-367.539999999952
 20
30.13936555370786
 30
-1.5
 40
0.499999999998181
 50
359.9999999974922
 51
39.71513723518976
  0
ARC
  5
18D
  8
MOSFET$TRACES
 10
366.5399999999996
 20
30.97002794005495
 30
1.499999999999999
 40
0.8000000000005322
 50
320.2848627650535
 51
39.71513723186213
210
0.0
220
0.0
230
-1.0
  0
ARC
  5
18E
  8
MOSFET$TRACES
 10
-367.540000000001
 20
31.80069032634781
 30
-1.5
 40
0.5000000000012003
 50
320.284862768238
 51
0.0000000002149546
  0
LINE
  5
18F
  8
MOSFET$TRACES
 10
-367.0399999999998
 20
31.80069032634968
 30
-1.5
 11
-367.04
 21
32.6793706337745
 31
-1.5
  0
ARC
  5
190
  8
MOSFET$TRACES
 10
-367.5400000000004
 20
32.67937063377435
 30
-1.5
 40
0.5000000000003979
 50
0.0000000000162844
 51
39.71513723169099
  0
ARC
  5
191
  8
MOSFET$TRACES
 10
366.5400000000001
 20
33.5100330200659
 30
1.500000000000001
 40
0.7999999999997082
 50
320.2848627681191
 51
39.71513723180509
210
0.0
220
0.0
230
-1.0
  0
ARC
  5
192
  8
MOSFET$TRACES
 10
-367.539999999999
 20
34.34069540635664
 30
-1.5
 40
0.4999999999987582
 50
320.2848627681569
 51
0.0000000001815715
  0
LINE
  5
193
  8
MOSFET$TRACES
 10
-367.0400000000002
 20
34.34069540635822
 30
-1.5
 11
-367.04
 21
37.75938079379033
 31
-1.5
  0
ARC
  5
194
  8
MOSFET$TRACES
 10
-367.5399999999993
 20
37.75938079379335
 30
-1.499999999999996
 40
0.4999999999993179
 50
359.9999999996531
 51
39.71513723189867
  0
ARC
  5
195
  8
MOSFET$TRACES
 10
366.5399999999992
 20
38.59004318008547
 30
1.5
 40
0.8000000000010257
 50
320.2848627682093
 51
39.71513723240663
210
0.0
220
0.0
230
-1.0
  0
ARC
  5
196
  8
MOSFET$TRACES
 10
-367.5399999999904
 20
39.42070556638815
 30
-1.5
 40
0.4999999999991522
 50
320.2848627675011
 51
359.9999999980198
  0
LINE
  5
197
  8
MOSFET$TRACES
 10
-367.0399999999913
 20
39.42070556637087
 30
-1.5
 11
-367.0399999999539
 21
40.29938587372753
 31
-1.5
  0
ARC
  5
198
  8
MOSFET$TRACES
 10
-367.5399999999539
 20
40.299385873749
 30
-1.499999999999996
 40
0.5000000000000568
 50
359.9999999975394
 51
39.71513723498838
  0
ARC
  5
199
  8
MOSFET$TRACES
 10
366.5400000000003
 20
41.13004826009639
 30
1.500000000000001
 40
0.7999999999997733
 50
320.284862764966
 51
39.71513723183625
210
0.0
220
0.0
230
-1.0
  0
ARC
  5
19A
  8
MOSFET$TRACES
 10
-367.5400000000002
 20
41.96071064638826
 30
-1.499999999999993
 40
0.5000000000001714
 50
320.284862768176
 51
0.0000000001579591
  0
LINE
  5
19B
  8
MOSFET$TRACES
 10
-367.04
 20
41.96071064638964
 30
-1.5
 11
-367.04
 21
42.8393909538165
 31
-1.5
  0
ARC
  5
19C
  8
MOSFET$TRACES
 10
-367.540000000001
 20
42.83939095381436
 30
-1.499999999999993
 40
0.5000000000010232
 50
0.000000000245895
 51
39.71513723176825
  0
ARC
  5
19D
  8
MOSFET$TRACES
 10
366.54
 20
43.67005334010658
 30
1.500000000000001
 40
0.8000000000000257
 50
320.2848627681618
 51
39.71513723182441
210
0.0
220
0.0
230
-1.0
  0
ARC
  5
19E
  8
MOSFET$TRACES
 10
-367.5400000000014
 20
44.50071572639889
 30
-1.499999999999993
 40
0.5000000000013711
 50
320.2848627682246
 51
0.0000000000032569
  0
LINE
  5
19F
  8
MOSFET$TRACES
 10
-367.04
 20
44.50071572639892
 30
-1.5
 11
-367.04
 21
45.37939603382476
 31
-1.5
  0
ARC
  5
1A0
  8
MOSFET$TRACES
 10
-367.5399999999994
 20
45.37939603382505
 30
-1.5
 40
0.4999999999993747
 50
359.9999999999674
 51
39.71513723185781
  0
ARC
  5
1A1
  8
MOSFET$TRACES
 10
366.5400000000002
 20
46.21005842011678
 30
1.499999999999998
 40
0.799999999999911
 50
320.2848627681589
 51
39.69534430002949
210
0.0
220
0.0
230
-1.0
  0
ARC
  5
1A2
  8
MOSFET$TRACES
 10
-367.5402868941655
 20
47.04037530502232
 30
-1.499999999999996
 40
0.4999999999993266
 50
320.3046556999405
 51
359.9727262734917
  0
ARC
  5
1A3
  8
MOSFET$TRACES
 10
366.5393060787638
 20
47.03944323903897
 30
1.5
 40
0.5009813528230919
 50
0.0793773996402096
 51
44.99999999995232
210
0.0
220
0.0
230
-1.0
  0
LINE
  5
1A4
  8
MOSFET$TRACES
 10
-366.8935533905934
 20
47.3936905508679
 30
-1.5
 11
-365.0371804413341
 21
49.25006350012698
 31
-1.5
  0
LINE
  5
1A5
  8
MOSFET$TRACES
 10
-365.0371804413341
 20
49.25006350012698
 30
-1.5
 11
-357.6601780818267
 21
49.25006350012698
 31
-1.5
  0
ARC
  5
1A6
  8
MOSFET$TRACES
 10
-357.6601780818266
 20
51.250063500127
 30
-1.5
 40
2.000000000000014
 50
269.9999999999984
 51
45.00000000000029
  0
LINE
  5
1A7
  8
MOSFET$TRACES
 10
-356.2459645194536
 20
52.66427706250009
 30
-1.5
 11
-371.2483472737596
 21
67.66665981680619
 31
-1.5
  0
ARC
  5
1A8
  8
MOSFET$TRACES
 10
-371.5951218988977
 20
67.32947181371095
 30
-1.499999999999997
 40
0.4836821167575037
 50
44.19697802922397
 51
90.8030219707695
  0
LINE
  5
1A9
  8
MOSFET$TRACES
 10
-371.6019006643529
 20
67.81310642621291
 30
-1.5
 11
-372.2910253062523
 21
67.8131064262129
 31
-1.5
  0
ARC
  5
1AA
  8
MOSFET$TRACES
 10
-372.2979882573034
 20
67.32943599388557
 30
-1.500000000000002
 40
0.4837205492792766
 50
89.17522320004127
 51
137.0117153395816
  0
ARC
  5
1AB
  8
MOSFET$TRACES
 10
373.229108458217
 20
68.21310642621286
 30
1.5
 40
0.8000000000000649
 50
223.8130614604027
 51
136.1869385395915
210
0.0
220
0.0
230
-1.0
  0
ARC
  5
1AC
  8
MOSFET$TRACES
 10
-372.2987966708174
 20
69.09488096079713
 30
-1.500000000000001
 40
0.4818372093156758
 50
222.8889200927972
 51
270.9241413676355
  0
LINE
  5
1AD
  8
MOSFET$TRACES
 10
-372.2910253062519
 20
68.61310642621281
 30
-1.5
 11
-371.0634230332677
 21
68.61310642621278
 31
-1.5
  0
LINE
  5
1AE
  8
MOSFET$TRACES
 10
-371.0634230332677
 20
68.61310642621275
 30
-1.5
 11
-345.2510536290465
 21
42.80073702199137
 31
-1.5
  0
LINE
  5
1AF
  8
MOSFET$TRACES
 10
-345.2510536290464
 20
42.80073702199136
 30
-1.5
 11
-345.2510536290465
 21
15.82978944706956
 31
-1.5
  0
ARC
  5
1B0
  8
MOSFET$TRACES
 10
-344.7510536290474
 20
15.82978944706915
 30
-1.5
 40
0.4999999999990905
 50
179.9999999999528
 51
225.0000000000691
  0
LINE
  5
1B1
  8
MOSFET$TRACES
 10
-345.1046070196396
 20
15.47623605647611
 30
-1.5
 11
-335.7447947125247
 21
6.116423749360988
 31
-1.5
  0
ARC
  5
1B2
  8
MOSFET$TRACES
 10
-335.398020087387
 20
6.453611752455514
 30
-1.500000000000001
 40
0.483682116756765
 50
224.1969780291919
 51
270.8030219707371
  0
LINE
  5
1B3
  8
MOSFET$TRACES
 10
-335.3912413219321
 20
5.969977139954253
 30
-1.5
 11
-333.9081110920201
 21
5.969977139954207
 31
-1.5
  0
ARC
  5
1B4
  8
MOSFET$TRACES
 10
-333.9011481409694
 20
6.45364757228067
 30
-1.499999999999999
 40
0.4837205492784049
 50
269.1752232000802
 51
317.0117153398688
  0
ARC
  5
1B5
  8
MOSFET$TRACES
 10
332.9700279400561
 20
5.56997713995367
 30
1.500000000000001
 40
0.8000000000005852
 50
43.81306146057096
 51
136.1869385395065
210
0.0
220
0.0
230
-1.0
  0
ARC
  5
1B6
  8
MOSFET$TRACES
 10
-332.0397161526566
 20
6.451751674538068
 30
-1.500000000000001
 40
0.4818372093151623
 50
222.8889200926818
 51
270.9241413673458
  0
LINE
  5
1B7
  8
MOSFET$TRACES
 10
-332.0319447880937
 20
5.969977139954253
 30
-1.5
 11
-328.9573303450039
 21
5.969977139918073
 31
-1.5
  0
LINE
  5
1B8
  8
MOSFET$TRACES
 10
-328.9573303450039
 20
5.969977139918073
 30
-1.5
 11
-328.143782034446
 21
5.156428829360252
 31
-1.5
  0
ARC
  5
1B9
  8
MOSFET$TRACES
 10
-327.7902286438527
 20
5.509982219953585
 30
-1.5
 40
0.5
 50
225.0000000000001
 51
270.000000000026
  0
LINE
  5
1BA
  8
MOSFET$TRACES
 10
-327.7902286438526
 20
5.009982219953585
 30
-1.5
 11
-325.113945130653
 21
5.009982219953585
 31
-1.5
  0
ARC
  5
1BB
  8
MOSFET$TRACES
 10
-325.113945130653
 20
5.509982219953585
 30
-1.5
 40
0.5
 50
269.9999999999935
 51
326.9442688495945
  0
ARC
  5
1BC
  8
MOSFET$TRACES
 10
323.7310134620521
 20
4.609982219964294
 30
1.5
 40
1.149999999999987
 50
33.05573115041025
 51
326.9442688495906
210
0.0
220
0.0
230
-1.0
  0
ARC
  5
1BD
  8
MOSFET$TRACES
 10
-325.113945130653
 20
3.709982219975117
 30
-1.5
 40
0.5000000000000075
 50
33.05573115040729
 51
90.00000000001303
  0
LINE
  5
1BE
  8
MOSFET$TRACES
 10
-325.1139451306531
 20
4.209982219975117
 30
-1.5
 11
-328.3287062748478
 21
4.209982219975117
 31
-1.5
  0
LINE
  5
1BF
  8
MOSFET$TRACES
 10
-328.3287062748478
 20
4.209982219975117
 30
-1.5
 11
-329.1422545854199
 21
5.023530530547347
 31
-1.5
  0
LINE
  5
1C0
  8
MOSFET$TRACES
 10
-365.6492712480832
 20
50.64362197073034
 30
-1.5
 11
-368.4335533906063
 21
47.85933982820721
 31
-1.5
  0
ARC
  5
1C1
  8
MOSFET$TRACES
 10
-368.0800000000131
 20
47.50578643761399
 30
-1.5
 40
0.5
 50
135.0
 51
179.9999999964044
  0
LINE
  5
1C2
  8
MOSFET$TRACES
 10
-368.5800000000131
 20
47.50578643764537
 30
-1.5
 11
-368.5800000000422
 21
47.04072080649051
 31
-1.5
  0
ARC
  5
1C3
  8
MOSFET$TRACES
 10
-368.0800000000422
 20
47.04072080645925
 30
-1.5
 40
0.5
 50
179.9999999964158
 51
219.7151372347265
  0
ARC
  5
1C4
  8
MOSFET$TRACES
 10
369.0800000000001
 20
46.21005842011674
 30
1.5
 40
0.8000000000000013
 50
140.2848627652713
 51
219.7151372324327
210
0.0
220
0.0
230
-1.0
  0
ARC
  5
1C5
  8
MOSFET$TRACES
 10
-368.0800000000089
 20
45.37939603381436
 30
-1.5
 40
0.5
 50
140.2848627675666
 51
179.9999999975777
  0
LINE
  5
1C6
  8
MOSFET$TRACES
 10
-368.5800000000089
 20
45.3793960338355
 30
-1.5
 11
-368.5800000000463
 21
44.50071572647515
 31
-1.5
  0
ARC
  5
1C7
  8
MOSFET$TRACES
 10
-368.0800000000463
 20
44.50071572645389
 30
-1.5
 40
0.5
 50
179.9999999975695
 51
219.7151372350103
  0
ARC
  5
1C8
  8
MOSFET$TRACES
 10
369.0800000000001
 20
43.67005334010649
 30
1.5
 40
0.8000000000000252
 50
140.2848627649877
 51
219.7151372324374
210
0.0
220
0.0
230
-1.0
  0
ARC
  5
1C9
  8
MOSFET$TRACES
 10
-368.0800000000089
 20
42.83939095380411
 30
-1.5
 40
0.5
 50
140.284862767585
 51
179.9999999975451
  0
LINE
  5
1CA
  8
MOSFET$TRACES
 10
-368.5800000000089
 20
42.8393909538256
 30
-1.5
 11
-368.5800000000463
 21
41.96071064646502
 31
-1.5
  0
ARC
  5
1CB
  8
MOSFET$TRACES
 10
-368.0800000000463
 20
41.96071064644325
 30
-1.5
 40
0.5
 50
179.9999999975052
 51
219.7151372349821
  0
ARC
  5
1CC
  8
MOSFET$TRACES
 10
369.0799999999998
 20
41.13004826009607
 30
1.5
 40
0.799999999999673
 50
140.2848627649738
 51
219.715137232431
210
0.0
220
0.0
230
-1.0
  0
ARC
  5
1CD
  8
MOSFET$TRACES
 10
-368.0800000000089
 20
40.29938587379392
 30
-1.5
 40
0.5
 50
140.2848627675673
 51
179.9999999975451
  0
LINE
  5
1CE
  8
MOSFET$TRACES
 10
-368.5800000000089
 20
40.29938587381535
 30
-1.5
 11
-368.5800000000463
 21
39.42070556645432
 31
-1.5
  0
ARC
  5
1CF
  8
MOSFET$TRACES
 10
-368.0800000000463
 20
39.420705566433
 30
-1.5
 40
0.5
 50
179.9999999975606
 51
219.7151372349612
  0
ARC
  5
1D0
  8
MOSFET$TRACES
 10
369.0799999999999
 20
38.59004318008583
 30
1.5
 40
0.7999999999997582
 50
140.2848627649652
 51
219.7151372320251
210
0.0
220
0.0
230
-1.0
  0
ARC
  5
1D1
  8
MOSFET$TRACES
 10
-368.0800000000029
 20
37.75938079379067
 30
-1.5
 40
0.5
 50
140.2848627679736
 51
179.9999999991435
  0
LINE
  5
1D2
  8
MOSFET$TRACES
 10
-368.5800000000029
 20
37.75938079379817
 30
-1.5
 11
-368.5800000000519
 21
34.34069540642723
 31
-1.5
  0
ARC
  5
1D3
  8
MOSFET$TRACES
 10
-368.0800000000519
 20
34.34069540642001
 30
-1.5
 40
0.5
 50
179.9999999991719
 51
219.7151372353872
  0
ARC
  5
1D4
  8
MOSFET$TRACES
 10
369.0800000000001
 20
33.51003302006562
 30
1.5
 40
0.8000000000001019
 50
140.2848627645792
 51
219.7151372324249
210
0.0
220
0.0
230
-1.0
  0
ARC
  5
1D5
  8
MOSFET$TRACES
 10
-368.0800000000087
 20
32.67937063376324
 30
-1.5
 40
0.5
 50
140.2848627675679
 51
179.9999999976322
  0
LINE
  5
1D6
  8
MOSFET$TRACES
 10
-368.5800000000087
 20
32.67937063378393
 30
-1.5
 11
-368.5800000000461
 21
31.80069032642415
 31
-1.5
  0
ARC
  5
1D7
  8
MOSFET$TRACES
 10
-368.0800000000461
 20
31.80069032640283
 30
-1.5
 40
0.5
 50
179.9999999975614
 51
219.7151372350185
  0
ARC
  5
1D8
  8
MOSFET$TRACES
 10
369.0800000000001
 20
30.97002794005537
 30
1.5
 40
0.8000000000001517
 50
140.2848627649967
 51
219.7151372318176
210
0.0
220
0.0
230
-1.0
  0
ARC
  5
1D9
  8
MOSFET$TRACES
 10
-368.0799999999999
 20
30.13936555376362
 30
-1.5
 40
0.5
 50
140.2848627681815
 51
179.9999999998457
  0
LINE
  5
1DA
  8
MOSFET$TRACES
 10
-368.5799999999999
 20
30.13936555376493
 30
-1.5
 11
-368.58
 21
29.26068524633864
 31
-1.5
  0
ARC
  5
1DB
  8
MOSFET$TRACES
 10
-368.08
 20
29.26068524633784
 30
-1.5
 40
0.5
 50
179.99999999991
 51
219.7151372318447
  0
ARC
  5
1DC
  8
MOSFET$TRACES
 10
369.0800000000003
 20
28.43002286004592
 30
1.5
 40
0.8000000000003092
 50
140.2848627681996
 51
219.7151372318072
210
0.0
220
0.0
230
-1.0
  0
ARC
  5
1DD
  8
MOSFET$TRACES
 10
-368.08
 20
27.599360473754
 30
-1.5
 40
0.5
 50
140.2848627681603
 51
180.0000000000411
  0
LINE
  5
1DE
  8
MOSFET$TRACES
 10
-368.58
 20
27.59936047375366
 30
-1.5
 11
-368.58
 21
26.72068016632623
 31
-1.5
  0
ARC
  5
1DF
  8
MOSFET$TRACES
 10
-368.08
 20
26.72068016632652
 30
-1.5
 40
0.5
 50
180.0000000000281
 51
219.7151372317502
  0
ARC
  5
1E0
  8
MOSFET$TRACES
 10
369.0799999999999
 20
25.89001778003517
 30
1.5
 40
0.799999999999653
 50
140.2848627681502
 51
219.7151372324055
210
0.0
220
0.0
230
-1.0
  0
ARC
  5
1E1
  8
MOSFET$TRACES
 10
-368.0800000000086
 20
25.05935539373336
 30
-1.5
 40
0.5
 50
140.2848627675777
 51
179.9999999976681
  0
LINE
  5
1E2
  8
MOSFET$TRACES
 10
-368.5800000000086
 20
25.05935539375371
 30
-1.5
 11
-368.5800000000461
 21
24.1806750863942
 31
-1.5
  0
ARC
  5
1E3
  8
MOSFET$TRACES
 10
-368.0800000000461
 20
24.18067508637294
 30
-1.5
 40
0.5
 50
179.9999999975594
 51
219.7151372350176
  0
ARC
  5
1E4
  8
MOSFET$TRACES
 10
369.0800000000002
 20
23.35001270002543
 30
1.5
 40
0.8000000000003014
 50
140.2848627650024
 51
219.7151372318188
210
0.0
220
0.0
230
-1.0
  0
ARC
  5
1E5
  8
MOSFET$TRACES
 10
-368.0799999999999
 20
22.51935031373363
 30
-1.5
 40
0.5
 50
140.2848627681821
 51
180.0000000000391
  0
LINE
  5
1E6
  8
MOSFET$TRACES
 10
-368.5799999999999
 20
22.51935031373328
 30
-1.5
 11
-368.5799999999999
 21
21.64067000630745
 31
-1.5
  0
ARC
  5
1E7
  8
MOSFET$TRACES
 10
-368.0799999999999
 20
21.64067000630693
 30
-1.5
 40
0.5
 50
179.9999999999475
 51
219.7151372318122
  0
ARC
  5
1E8
  8
MOSFET$TRACES
 10
369.0800000000002
 20
20.81000762001513
 30
1.5
 40
0.8000000000002256
 50
140.2848627681779
 51
219.7151372324187
210
0.0
220
0.0
230
-1.0
  0
ARC
  5
1E9
  8
MOSFET$TRACES
 10
-368.0800000000086
 20
19.97934523371281
 30
-1.5
 40
0.5
 50
140.2848627675758
 51
179.9999999976156
  0
LINE
  5
1EA
  8
MOSFET$TRACES
 10
-368.5800000000086
 20
19.97934523373361
 30
-1.5
 11
-368.580000000046
 21
19.10066492637331
 31
-1.5
  0
ARC
  5
1EB
  8
MOSFET$TRACES
 10
-368.080000000046
 20
19.100664926352
 30
-1.5
 40
0.5
 50
179.999999997561
 51
219.7151372350207
  0
ARC
  5
1EC
  8
MOSFET$TRACES
 10
369.0800000000001
 20
18.27000254000477
 30
1.5
 40
0.8000000000000738
 50
140.2848627650107
 51
219.7151372324095
210
0.0
220
0.0
230
-1.0
  0
ARC
  5
1ED
  8
MOSFET$TRACES
 10
-368.0800000000085
 20
17.43934015370267
 30
-1.5
 40
0.5
 50
140.2848627675795
 51
179.9999999979498
  0
LINE
  5
1EE
  8
MOSFET$TRACES
 10
-368.5800000000085
 20
17.43934015372058
 30
-1.5
 11
-368.580000000046
 21
16.56065984636585
 31
-1.5
  0
ARC
  5
1EF
  8
MOSFET$TRACES
 10
-368.080000000046
 20
16.56065984634209
 30
-1.5
 40
0.5
 50
179.9999999972801
 51
219.7151372350621
  0
ARC
  5
1F0
  8
MOSFET$TRACES
 10
369.0799999999999
 20
15.72999745999429
 30
1.5
 40
0.800000000000254
 50
140.2848627649998
 51
39.71513723183291
210
0.0
220
0.0
230
-1.0
  0
ARC
  5
1F1
  8
MOSFET$TRACES
 10
-370.0799999999999
 20
16.5606598462865
 30
-1.5
 40
0.5
 50
320.284862768149
 51
359.999999999917
  0
LINE
  5
1F2
  8
MOSFET$TRACES
 10
-369.5799999999999
 20
16.56065984628582
 30
-1.5
 11
-369.5799999999999
 21
17.43934015371296
 31
-1.5
  0
ARC
  5
1F3
  8
MOSFET$TRACES
 10
-370.0799999999999
 20
17.43934015371336
 30
-1.5
 40
0.5
 50
359.9999999999573
 51
39.71513723179798
  0
ARC
  5
1F4
  8
MOSFET$TRACES
 10
369.0800000000004
 20
18.27000254000505
 30
1.5
 40
0.799999999999499
 50
320.2848627681325
 51
39.71513723242992
210
0.0
220
0.0
230
-1.0
  0
ARC
  5
1F5
  8
MOSFET$TRACES
 10
-370.0799999999911
 20
19.10066492630732
 30
-1.5
 40
0.5
 50
320.2848627675284
 51
359.9999999971246
  0
LINE
  5
1F6
  8
MOSFET$TRACES
 10
-369.5799999999911
 20
19.10066492628231
 30
-1.5
 11
-369.5799999999537
 21
19.97934523364539
 31
-1.5
  0
ARC
  5
1F7
  8
MOSFET$TRACES
 10
-370.0799999999537
 20
19.97934523366676
 30
-1.5
 40
0.5
 50
359.999999997559
 51
39.71513723507029
  0
ARC
  5
1F8
  8
MOSFET$TRACES
 10
369.0799999999996
 20
20.81000762001467
 30
1.5
 40
0.8000000000004855
 50
320.2848627650017
 51
39.71513723182681
210
0.0
220
0.0
230
-1.0
  0
ARC
  5
1F9
  8
MOSFET$TRACES
 10
-370.08
 20
21.64067000630699
 30
-1.5
 40
0.5
 50
320.2848627681505
 51
359.9999999999312
  0
LINE
  5
1FA
  8
MOSFET$TRACES
 10
-369.58
 20
21.64067000630631
 30
-1.5
 11
-369.5799999999999
 21
22.51935031373385
 31
-1.5
  0
ARC
  5
1FB
  8
MOSFET$TRACES
 10
-370.0799999999999
 20
22.51935031373385
 30
-1.5
 40
0.5
 50
0.0
 51
39.71513723176983
  0
ARC
  5
1FC
  8
MOSFET$TRACES
 10
369.0800000000003
 20
23.35001270002554
 30
1.5
 40
0.7999999999995934
 50
320.2848627681239
 51
39.71513723208363
210
0.0
220
0.0
230
-1.0
  0
ARC
  5
1FD
  8
MOSFET$TRACES
 10
-370.0799999999962
 20
24.18067508632167
 30
-1.5
 40
0.5
 50
320.2848627679022
 51
359.9999999989952
  0
LINE
  5
1FE
  8
MOSFET$TRACES
 10
-369.5799999999962
 20
24.18067508631292
 30
-1.5
 11
-369.5799999999805
 21
25.0593553937117
 31
-1.5
  0
ARC
  5
1FF
  8
MOSFET$TRACES
 10
-370.0799999999805
 20
25.05935539371409
 30
-1.5
 40
0.5
 50
359.9999999997317
 51
39.71513723139192
  0
ARC
  5
200
  8
MOSFET$TRACES
 10
369.0799999999966
 20
25.89001778003249
 30
1.5
 40
0.8000000000046866
 50
320.2848627657025
 51
39.71513723243122
210
0.0
220
0.0
230
-1.0
  0
ARC
  5
201
  8
MOSFET$TRACES
 10
-370.0799999999912
 20
26.720680166338
 30
-1.5
 40
0.5
 50
320.2848627675467
 51
359.9999999976905
  0
LINE
  5
202
  8
MOSFET$TRACES
 10
-369.5799999999912
 20
26.72068016631782
 30
-1.5
 11
-369.5799999999537
 21
27.59936047367636
 31
-1.5
  0
ARC
  5
203
  8
MOSFET$TRACES
 10
-370.0799999999537
 20
27.59936047369744
 30
-1.5
 40
0.5
 50
359.9999999975842
 51
39.71513723509491
  0
ARC
  5
204
  8
MOSFET$TRACES
 10
369.0799999999999
 20
28.43002286004536
 30
1.5
 40
0.8000000000004146
 50
320.2848627650135
 51
39.7151372318472
210
0.0
220
0.0
230
-1.0
  0
ARC
  5
205
  8
MOSFET$TRACES
 10
-370.0799999999999
 20
29.26068524633784
 30
-1.5
 40
0.5
 50
320.284862768149
 51
359.9999999999434
  0
LINE
  5
206
  8
MOSFET$TRACES
 10
-369.5799999999999
 20
29.26068524633739
 30
-1.5
 11
-369.58
 21
30.13936555376368
 31
-1.5
  0
ARC
  5
207
  8
MOSFET$TRACES
 10
-370.08
 20
30.13936555376368
 30
-1.5
 40
0.5
 50
359.9999999999996
 51
39.71513723179736
  0
ARC
  5
208
  8
MOSFET$TRACES
 10
369.0800000000002
 20
30.97002794005549
 30
1.5
 40
0.799999999999771
 50
320.2848627681436
 51
39.71513723182856
210
0.0
220
0.0
230
-1.0
  0
ARC
  5
209
  8
MOSFET$TRACES
 10
-370.08
 20
31.80069032634718
 30
-1.5
 40
0.5
 50
320.2848627681669
 51
0.0000000002092551
  0
LINE
  5
20A
  8
MOSFET$TRACES
 10
-369.58
 20
31.800690326349
 30
-1.5
 11
-369.58
 21
32.67937063377302
 31
-1.5
  0
ARC
  5
20B
  8
MOSFET$TRACES
 10
-370.08
 20
32.67937063377416
 30
-1.5
 40
0.5
 50
359.9999999998624
 51
39.7151372317787
  0
ARC
  5
20C
  8
MOSFET$TRACES
 10
369.0800000000004
 20
33.51003302006585
 30
1.5
 40
0.799999999999546
 50
320.2848627681332
 51
39.71513723183348
210
0.0
220
0.0
230
-1.0
  0
ARC
  5
20D
  8
MOSFET$TRACES
 10
-370.08
 20
34.34069540635743
 30
-1.5
 40
0.5
 50
320.2848627681765
 51
359.9999999999642
  0
LINE
  5
20E
  8
MOSFET$TRACES
 10
-369.58
 20
34.34069540635709
 30
-1.5
 11
-369.58
 21
37.75938079379442
 31
-1.5
  0
ARC
  5
20F
  8
MOSFET$TRACES
 10
-370.08
 20
37.75938079379442
 30
-1.5
 40
0.5
 50
0.0
 51
39.7151372318106
  0
ARC
  5
210
  8
MOSFET$TRACES
 10
369.0800000000002
 20
38.59004318008623
 30
1.5
 40
0.7999999999997472
 50
320.2848627681577
 51
39.71513723183428
210
0.0
220
0.0
230
-1.0
  0
ARC
  5
211
  8
MOSFET$TRACES
 10
-370.08
 20
39.42070556637792
 30
-1.5
 40
0.5
 50
320.2848627681691
 51
359.9999999999308
  0
LINE
  5
212
  8
MOSFET$TRACES
 10
-369.58
 20
39.42070556637735
 30
-1.5
 11
-369.58
 21
40.29938587380501
 31
-1.5
  0
ARC
  5
213
  8
MOSFET$TRACES
 10
-370.08
 20
40.29938587380495
 30
-1.5
 40
0.5
 50
0.0000000000016284
 51
39.71513723177994
  0
ARC
  5
214
  8
MOSFET$TRACES
 10
369.0800000000004
 20
41.13004826009659
 30
1.5
 40
0.7999999999995837
 50
320.2848627681415
 51
39.71513723183244
210
0.0
220
0.0
230
-1.0
  0
ARC
  5
215
  8
MOSFET$TRACES
 10
-370.08
 20
41.96071064638816
 30
-1.5
 40
0.5
 50
320.2848627681723
 51
0.0000000001286471
  0
LINE
  5
216
  8
MOSFET$TRACES
 10
-369.58
 20
41.9607106463893
 30
-1.5
 11
-369.58
 21
42.83939095381537
 31
-1.5
  0
ARC
  5
217
  8
MOSFET$TRACES
 10
-370.08
 20
42.8393909538148
 30
-1.5
 40
0.5
 50
0.0000000000700231
 51
39.71513723180998
  0
ARC
  5
218
  8
MOSFET$TRACES
 10
369.0800000000002
 20
43.67005334010661
 30
1.5
 40
0.7999999999998798
 50
320.2848627681571
 51
39.71513723183221
210
0.0
220
0.0
230
-1.0
  0
ARC
  5
219
  8
MOSFET$TRACES
 10
-370.0800000000001
 20
44.5007157263983
 30
-1.5
 40
0.5
 50
320.2848627681784
 51
359.9999999999894
  0
LINE
  5
21A
  8
MOSFET$TRACES
 10
-369.5800000000001
 20
44.50071572639824
 30
-1.5
 11
-369.5800000000001
 21
45.37939603382482
 31
-1.5
  0
ARC
  5
21B
  8
MOSFET$TRACES
 10
-370.0800000000001
 20
45.37939603382493
 30
-1.5
 40
0.5
 50
359.9999999999976
 51
39.71513723183082
  0
ARC
  5
21C
  8
MOSFET$TRACES
 10
369.08
 20
46.21005842011674
 30
1.5
 40
0.8000000000000487
 50
320.284862768174
 51
39.71513723182794
210
0.0
220
0.0
230
-1.0
  0
ARC
  5
21D
  8
MOSFET$TRACES
 10
-370.0800000000001
 20
47.0407208064086
 30
-1.5
 40
0.5
 50
320.2848627681771
 51
359.9999999999992
  0
LINE
  5
21E
  8
MOSFET$TRACES
 10
-369.5800000000001
 20
47.04072080640854
 30
-1.5
 11
-369.5800000000001
 21
48.12710678118655
 31
-1.5
  0
LINE
  5
21F
  8
MOSFET$TRACES
 10
-369.5800000000001
 20
48.12710678118655
 30
-1.5
 11
-365.9170382010493
 21
51.79006858013723
 31
-1.5
  0
LINE
  5
220
  8
MOSFET$TRACES
 10
-365.9170382010493
 20
51.79006858013723
 30
-1.5
 11
-359.2007411265175
 21
51.79006858008391
 31
-1.5
  0
ARC
  5
221
  8
MOSFET$TRACES
 10
-359.2007411265135
 20
52.29006858008391
 30
-1.5
 40
0.5
 50
269.9999999995441
 51
309.7151372355027
  0
ARC
  5
222
  8
MOSFET$TRACES
 10
358.3700787401575
 20
51.29006858013723
 30
1.5
 40
0.7999999999999832
 50
50.28486276449542
 51
309.7151372318278
210
0.0
220
0.0
230
-1.0
  0
ARC
  5
223
  8
MOSFET$TRACES
 10
-359.2007411264493
 20
50.29006858013729
 30
-1.5
 40
0.5
 50
50.28486276817492
 51
90.0
  0
LINE
  5
224
  8
MOSFET$TRACES
 10
-359.2007411264493
 20
50.79006858013729
 30
-1.5
 11
-365.2957178574897
 21
50.79006858013723
 31
-1.5
  0
ARC
  5
225
  8
MOSFET$TRACES
 10
-365.2957178574897
 20
50.29006858013723
 30
-1.5
 40
0.5
 50
90.0
 51
135.0000000000282
  0
ARC
  5
226
  8
MOSFET$TRACES
 10
358.3700787401547
 20
46.21005842012003
 30
1.5
 40
0.8000000000042734
 50
50.28486276454811
 51
309.7151372320056
210
0.0
220
0.0
230
-1.0
  0
ARC
  5
227
  8
MOSFET$TRACES
 10
-359.2007411264524
 20
45.21005842011935
 30
-1.5
 40
0.5
 50
50.28486276798976
 51
89.99999999928349
  0
LINE
  5
228
  8
MOSFET$TRACES
 10
-359.2007411264461
 20
45.71005842011935
 30
-1.5
 11
-363.1693376136389
 21
45.71005842016915
 31
-1.5
  0
ARC
  5
229
  8
MOSFET$TRACES
 10
-363.1693376136452
 20
45.21005842016915
 30
-1.5
 40
0.5
 50
89.99999999928349
 51
129.7151372354411
  0
ARC
  5
22A
  8
MOSFET$TRACES
 10
364.0000000000001
 20
46.21005842011674
 30
1.5
 40
0.8000000000000049
 50
230.2848627645597
 51
129.7151372318312
210
0.0
220
0.0
230
-1.0
  0
ARC
  5
22B
  8
MOSFET$TRACES
 10
-363.1693376137081
 20
47.21005842011674
 30
-1.5
 40
0.5
 50
230.2848627681673
 51
269.999999999974
  0
LINE
  5
22C
  8
MOSFET$TRACES
 10
-363.1693376137084
 20
46.71005842011674
 30
-1.5
 11
-359.2007411264735
 21
46.71005842009195
 31
-1.5
  0
ARC
  5
22D
  8
MOSFET$TRACES
 10
-359.2007411264871
 20
47.21005842009195
 30
-1.5
 40
0.5
 50
270.0000000015633
 51
309.7151372316617
  0
LINE
  5
22E
  8
MOSFET$TRACES
 10
-344.7890525781052
 20
89.687940164148
 30
-1.5
 11
-347.2703543892927
 21
87.68246283643258
 31
-1.5
  0
ARC
  5
22F
  8
MOSFET$TRACES
 10
-346.9722296186987
 20
87.30131840151302
 30
-1.499999999999999
 40
0.4838899245818026
 50
128.0319200668599
 51
180.9144693161134
  0
LINE
  5
230
  8
MOSFET$TRACES
 10
-347.4560579121158
 20
87.29359560403292
 30
-1.5
 11
-347.4560579121157
 21
75.64322565342421
 31
-1.5
  0
LINE
  5
231
  8
MOSFET$TRACES
 10
-347.4560579121158
 20
75.64322565342421
 30
-1.5
 11
-346.8567435657815
 21
75.04391130709
 31
-1.5
  0
ARC
  5
232
  8
MOSFET$TRACES
 10
-346.5050814851066
 20
75.37827913481001
 30
-1.500000000000001
 40
0.4852505159181287
 50
223.5559261075512
 51
305.1840360648408
  0
ARC
  5
233
  8
MOSFET$TRACES
 10
345.6700533401068
 20
74.15011430022845
 30
1.5
 40
1.000000000000092
 50
56.26003782761196
 51
318.1896851042287
210
0.0
220
0.0
230
-1.0
  0
ARC
  5
234
  8
MOSFET$TRACES
 10
-346.7789937717764
 20
73.16742453379698
 30
-1.499999999999995
 40
0.4817304681990648
 50
40.99676571646655
 51
83.57479308634129
  0
ARC
  5
235
  8
MOSFET$TRACES
 10
346.6620830363739
 20
74.14214399649566
 30
1.499999999999996
 40
0.4999999999999395
 50
277.238756092962
 51
314.9999999999908
210
0.0
220
0.0
230
-1.0
  0
LINE
  5
236
  8
MOSFET$TRACES
 10
-347.0156364269671
 20
73.7885906059024
 30
-1.5
 11
-348.4560579121156
 21
75.22901209105117
 31
-1.5
  0
LINE
  5
237
  8
MOSFET$TRACES
 10
-348.4560579121158
 20
75.2290120910511
 30
-1.5
 11
-348.4560579121158
 21
88.00992051142008
 31
-1.5
  0
LINE
  5
238
  8
MOSFET$TRACES
 10
-348.4560579121158
 20
88.00992051142008
 30
-1.5
 11
-345.9747561009283
 21
90.0153978391355
 31
-1.5
  0
ARC
  5
239
  8
MOSFET$TRACES
 10
-346.2728808715219
 20
90.39654227405472
 30
-1.500000000000001
 40
0.4838899245814527
 50
308.0319200668752
 51
0.9144693161544584
  0
LINE
  5
23A
  8
MOSFET$TRACES
 10
-345.7890525781052
 20
90.40426507153516
 30
-1.5
 11
-345.7890525781051
 21
91.12571040146125
 31
-1.5
  0
ARC
  5
23B
  8
MOSFET$TRACES
 10
-346.2890525781052
 20
91.12571040146109
 30
-1.5
 40
0.4999999999999929
 50
0.0
 51
52.69479903421221
  0
ARC
  5
23C
  8
MOSFET$TRACES
 10
345.2890525781051
 20
92.43815087630183
 30
1.5
 40
1.150000000000128
 50
307.3052009657831
 51
232.6947990342267
210
0.0
220
0.0
230
-1.0
  0
ARC
  5
23D
  8
MOSFET$TRACES
 10
-344.2890525781053
 20
91.12571040146098
 30
-1.5
 40
0.4999999999999787
 50
127.3052009657787
 51
180.0
  0
LINE
  5
23E
  8
MOSFET$TRACES
 10
-344.7890525781052
 20
91.12571040146098
 30
-1.5
 11
-344.7890525781052
 21
89.687940164148
 31
-1.5
  0
LINE
  5
23F
  8
MOSFET$TRACES
 10
-347.1958956578455
 20
72.1101092202184
 30
-1.5
 11
-346.7880873288568
 21
72.1101092202184
 31
-1.5
  0
ARC
  5
240
  8
MOSFET$TRACES
 10
-346.7880873288566
 20
72.6101092202184
 30
-1.5
 40
0.5
 50
270.0
 51
318.1896851042237
  0
ARC
  5
241
  8
MOSFET$TRACES
 10
345.6700533401068
 20
71.6101092202185
 30
1.5
 40
1.000000000000017
 50
41.81031489577044
 51
318.1896851042185
210
0.0
220
0.0
230
-1.0
  0
ARC
  5
242
  8
MOSFET$TRACES
 10
-346.7880873288568
 20
70.61010922021846
 30
-1.5
 40
0.5
 50
41.81031489578181
 51
90.00000000000651
  0
LINE
  5
243
  8
MOSFET$TRACES
 10
-346.788087328857
 20
71.11010922021848
 30
-1.5
 11
-347.8172160014051
 21
71.11010922021842
 31
-1.5
  0
LINE
  5
244
  8
MOSFET$TRACES
 10
-347.8172160014051
 20
71.11010922021842
 30
-1.5
 11
-351.4880619761243
 21
74.78095519493756
 31
-1.5
  0
LINE
  5
245
  8
MOSFET$TRACES
 10
-351.4880619761243
 20
74.78095519493756
 30
-1.5
 11
-351.4880619761243
 21
87.58748642396546
 31
-1.5
  0
LINE
  5
246
  8
MOSFET$TRACES
 10
-351.4880619761241
 20
87.5874864239655
 30
-1.5
 11
-351.4880619761241
 21
91.00569241017625
 31
-1.5
  0
LINE
  5
247
  8
MOSFET$TRACES
 10
-351.4880619761241
 20
91.00569241017625
 30
-1.5
 11
-350.1355410061449
 21
92.03881528665669
 31
-1.5
  0
ARC
  5
248
  8
MOSFET$TRACES
 10
-350.4390513749441
 20
92.43615828210476
 30
-1.5
 40
0.5000000000002872
 50
307.3743932478699
 51
0.0691922820197227
  0
ARC
  5
249
  8
MOSFET$TRACES
 10
348.7890525781052
 20
92.43815087630195
 30
1.5
 40
1.150000000000136
 50
359.930807717809
 51
285.3204057863334
210
0.0
220
0.0
230
-1.0
  0
ARC
  5
24A
  8
MOSFET$TRACES
 10
-349.2250098997474
 20
90.84678630031475
 30
-1.5
 40
0.4999999999999497
 50
74.67959421365526
 51
127.3743932478772
  0
LINE
  5
24B
  8
MOSFET$TRACES
 10
-349.5285202685464
 20
91.24412929576248
 30
-1.5
 11
-350.2915723449233
 21
90.66127211753785
 31
-1.5
  0
ARC
  5
24C
  8
MOSFET$TRACES
 10
-349.9880619761241
 20
90.26392912209006
 30
-1.5
 40
0.5
 50
127.3743932478804
 51
179.9999999999984
  0
LINE
  5
24D
  8
MOSFET$TRACES
 10
-350.4880619761241
 20
90.26392912209006
 30
-1.5
 11
-350.4880619761241
 21
87.5874864239655
 31
-1.5
  0
LINE
  5
24E
  8
MOSFET$TRACES
 10
-350.4880619761241
 20
87.58748642396556
 30
-1.5
 11
-350.4880619761241
 21
75.19516875731064
 31
-1.5
  0
LINE
  5
24F
  8
MOSFET$TRACES
 10
-350.4880619761241
 20
75.19516875731064
 30
-1.5
 11
-347.5494490484386
 21
72.25655582962514
 31
-1.5
  0
ARC
  5
250
  8
MOSFET$TRACES
 10
-347.1958956578454
 20
72.6101092202184
 30
-1.5
 40
0.4999999999999739
 50
224.9999999999988
 51
270.0
  0
ARC
  5
251
  8
MOSFET$TRACES
 10
-334.7640335280672
 20
91.12571040146109
 30
-1.5
 40
0.5
 50
127.3052009657796
 51
180.0000000000016
  0
LINE
  5
252
  8
MOSFET$TRACES
 10
-335.2640335280672
 20
91.12571040146103
 30
-1.5
 11
-335.2640335280672
 21
88.42103647509985
 31
-1.5
  0
LINE
  5
253
  8
MOSFET$TRACES
 10
-335.2640335280672
 20
88.42103647509985
 30
-1.5
 11
-344.7007284361751
 21
78.98434156699203
 31
-1.5
  0
ARC
  5
254
  8
MOSFET$TRACES
 10
345.6700533401067
 20
79.2301244602489
 30
1.5
 40
1.000000000000062
 50
194.2281049962365
 51
359.9999999999968
210
0.0
220
0.0
230
-1.0
  0
ARC
  5
255
  8
MOSFET$TRACES
 10
345.6768787609357
 20
79.23981994038039
 30
1.5
 40
0.9932219022185941
 50
359.4406900276482
 51
110.2697772279599
210
0.0
220
0.0
230
-1.0
  0
ARC
  5
256
  8
MOSFET$TRACES
 10
-345.1609938488475
 20
80.62815871092192
 30
-1.5
 40
0.4878721592757251
 50
249.382622699824
 51
315.9069100445624
  0
LINE
  5
257
  8
MOSFET$TRACES
 10
-344.8105990771574
 20
80.28868448838271
 30
-1.5
 11
-336.4104801374739
 21
88.6888034280662
 31
-1.5
  0
ARC
  5
258
  8
MOSFET$TRACES
 10
-336.7463099969785
 20
89.03501549170947
 30
-1.500000000000002
 40
0.48233234138612
 50
314.1278973925711
 51
0.8721026074190696
  0
LINE
  5
259
  8
MOSFET$TRACES
 10
-336.2640335280672
 20
89.04235681865951
 30
-1.5
 11
-336.2640335280672
 21
91.12571040146119
 31
-1.5
  0
ARC
  5
25A
  8
MOSFET$TRACES
 10
-336.7640335280672
 20
91.12571040146109
 30
-1.5
 40
0.5000000000000071
 50
0.0000000000016284
 51
52.69479903421517
  0
ARC
  5
25B
  8
MOSFET$TRACES
 10
335.7640335280672
 20
92.43815087630172
 30
1.5
 40
1.150000000000017
 50
307.305200965787
 51
232.6947990342161
210
0.0
220
0.0
230
-1.0
  0
ARC
  5
25C
  8
MOSFET$TRACES
 10
-333.2640335280672
 20
91.12571040146109
 30
-1.5
 40
0.5
 50
0.0000000000016284
 51
52.69479903421517
  0
ARC
  5
25D
  8
MOSFET$TRACES
 10
332.2640335280672
 20
92.43815087630172
 30
1.5
 40
1.149999999999984
 50
307.3052009657878
 51
232.6947990342149
210
0.0
220
0.0
230
-1.0
  0
ARC
  5
25E
  8
MOSFET$TRACES
 10
-331.2640335280672
 20
91.12571040146109
 30
-1.5
 40
0.5
 50
127.3052009657848
 51
179.9999999999984
  0
LINE
  5
25F
  8
MOSFET$TRACES
 10
-331.7640335280672
 20
91.12571040146109
 30
-1.5
 11
-331.7640335280672
 21
88.2380291090851
 31
-1.5
  0
LINE
  5
260
  8
MOSFET$TRACES
 10
-331.7640335280672
 20
88.2380291090851
 30
-1.5
 11
-334.3498027994395
 21
85.65225983771278
 31
-1.5
  0
LINE
  5
261
  8
MOSFET$TRACES
 10
-334.3498027994395
 20
85.65225983771272
 30
-1.5
 11
-343.8119432569137
 21
76.19011938023874
 31
-1.5
  0
LINE
  5
262
  8
MOSFET$TRACES
 10
-343.8119432569137
 20
76.19011938023874
 30
-1.5
 11
-344.5520193513566
 21
76.19011938023877
 31
-1.5
  0
ARC
  5
263
  8
MOSFET$TRACES
 10
-344.5592940680492
 20
75.70638614127999
 30
-1.5
 40
0.4837879369894476
 50
89.13841119020731
 51
139.051273914012
  0
ARC
  5
264
  8
MOSFET$TRACES
 10
345.6700533401067
 20
76.69011938023868
 30
1.5
 40
0.9999999999999374
 50
221.81031489578
 51
0.0000000000032569
210
0.0
220
0.0
230
-1.0
  0
ARC
  5
265
  8
MOSFET$TRACES
 10
345.6700533401067
 20
76.69011938023883
 30
1.5
 40
0.9999999999998863
 50
359.9999999999951
 51
138.1896851042329
210
0.0
220
0.0
230
-1.0
  0
ARC
  5
266
  8
MOSFET$TRACES
 10
-344.5601059201707
 20
77.67203726266631
 30
-1.499999999999999
 40
0.4819857238536152
 50
220.8489835110431
 51
270.9613313847657
  0
LINE
  5
267
  8
MOSFET$TRACES
 10
-344.5520193513567
 20
77.19011938023867
 30
-1.5
 11
-344.4332636004731
 21
77.19011938023867
 31
-1.5
  0
ARC
  5
268
  8
MOSFET$TRACES
 10
-344.4264848350178
 20
77.67375399273949
 30
-1.499999999999996
 40
0.4836821167563652
 50
269.1969780292084
 51
315.8030219708457
  0
LINE
  5
269
  8
MOSFET$TRACES
 10
-344.0797102098801
 20
77.33656598964545
 30
-1.5
 11
-335.0569095806259
 21
86.35936661889936
 31
-1.5
  0
LINE
  5
26A
  8
MOSFET$TRACES
 10
-335.0569095806262
 20
86.35936661889933
 30
-1.5
 11
-332.9104801374739
 21
88.50579606205149
 31
-1.5
  0
ARC
  5
26B
  8
MOSFET$TRACES
 10
-333.2640335280672
 20
88.85934945264476
 30
-1.5
 40
0.5
 50
315.0
 51
0.0000000000032569
  0
LINE
  5
26C
  8
MOSFET$TRACES
 10
-332.7640335280672
 20
88.85934945264488
 30
-1.5
 11
-332.7640335280672
 21
91.12571040146109
 31
-1.5
  0
ARC
  5
26D
  8
MOSFET$TRACES
 10
-363.3561341935272
 20
81.97128903543663
 30
-1.499999999999998
 40
0.4830080794368174
 50
179.162533985584
 51
225.837466014431
  0
LINE
  5
26E
  8
MOSFET$TRACES
 10
-363.6926440687748
 20
81.62479530005008
 30
-1.5
 11
-352.0560436821884
 21
69.98819491346394
 31
-1.5
  0
LINE
  5
26F
  8
MOSFET$TRACES
 10
-352.0560436821885
 20
69.98819491346397
 30
-1.5
 11
-352.0571704685124
 21
68.91467512917403
 31
-1.5
  0
ARC
  5
270
  8
MOSFET$TRACES
 10
-351.5742198085111
 20
68.90709884677085
 30
-1.500000000000001
 40
0.483010082762834
 50
179.101246901727
 51
225.8386144049211
  0
LINE
  5
271
  8
MOSFET$TRACES
 10
-351.9107241345303
 20
68.5605969295742
 30
-1.5
 11
-347.9897459192153
 21
64.63961871425924
 31
-1.5
  0
ARC
  5
272
  8
MOSFET$TRACES
 10
-347.6432643775209
 20
64.9761368653562
 30
-1.499999999999998
 40
0.4830050980607158
 50
224.1642459742029
 51
270.7460893423277
  0
LINE
  5
273
  8
MOSFET$TRACES
 10
-347.6369750002773
 20
64.4931727171148
 30
-1.5
 11
-346.7873034881414
 21
64.49184302773735
 31
-1.5
  0
ARC
  5
274
  8
MOSFET$TRACES
 10
-346.7789713163299
 20
64.9748896345773
 30
-1.499999999999999
 40
0.4831184631813232
 50
269.0117911334709
 51
318.9985646038146
  0
ARC
  5
275
  8
MOSFET$TRACES
 10
345.6700533401068
 20
63.99009398018778
 30
1.5
 40
1.000000000000055
 50
41.89997957925574
 51
318.2793497877144
210
0.0
220
0.0
230
-1.0
  0
ARC
  5
276
  8
MOSFET$TRACES
 10
-346.7815382308674
 20
63.00990944143873
 30
-1.5
 40
0.4819905535629034
 50
40.75958723090006
 51
90.87139829792805
  0
LINE
  5
277
  8
MOSFET$TRACES
 10
-346.7888684314522
 20
63.491844252262
 30
-1.5
 11
-348.2584848888516
 21
63.49414412152229
 31
-1.5
  0
LINE
  5
278
  8
MOSFET$TRACES
 10
-348.2584848888516
 20
63.49414412152235
 30
-1.5
 11
-353.0578230349382
 21
68.29348226760895
 31
-1.5
  0
LINE
  5
279
  8
MOSFET$TRACES
 10
-353.0578230349382
 20
68.29348226760895
 30
-1.5
 11
-353.0566962486143
 21
69.3670020518989
 31
-1.5
  0
ARC
  5
27A
  8
MOSFET$TRACES
 10
-353.5403483653128
 20
69.37428821262313
 30
-1.5
 40
0.4837069961505114
 50
359.1369112904945
 51
45.80295001614964
  0
LINE
  5
27B
  8
MOSFET$TRACES
 10
-353.2031425825964
 20
69.72108025149883
 30
-1.5
 11
-364.8390906781817
 21
81.3570283470836
 31
-1.5
  0
LINE
  5
27C
  8
MOSFET$TRACES
 10
-364.8390906781815
 20
81.35702834708364
 30
-1.5
 11
-364.8390906781815
 21
84.33510291752383
 31
-1.5
  0
ARC
  5
27D
  8
MOSFET$TRACES
 10
-365.3390906781815
 20
84.33510291752383
 30
-1.5
 40
0.5
 50
0.0000000000032569
 51
48.18968510421794
  0
ARC
  5
27E
  8
MOSFET$TRACES
 10
364.3390906781815
 20
85.4531369062738
 30
1.5
 40
0.9999999999999687
 50
311.8103148957686
 51
21.64377402894405
210
0.0
220
0.0
230
-1.0
  0
ARC
  5
27F
  8
MOSFET$TRACES
 10
-366.1678888592248
 20
86.19704688138906
 30
-1.500000000000002
 40
0.9743857866411886
 50
337.3602957814383
 51
45.99593018963969
  0
LINE
  5
280
  8
MOSFET$TRACES
 10
-365.4909738311156
 20
86.89791327802128
 30
-1.5
 11
-372.1627683759962
 21
93.5697078229021
 31
-1.5
  0
ARC
  5
281
  8
MOSFET$TRACES
 10
-372.5092621113831
 20
93.23319794765362
 30
-1.5
 40
0.4830080794377617
 50
44.1625339856159
 51
90.8374660143958
  0
LINE
  5
282
  8
MOSFET$TRACES
 10
-372.5163217665896
 20
93.71615443230881
 30
-1.5
 11
-373.0596702693809
 21
93.71615443230884
 31
-1.500000000000001
  0
ARC
  5
283
  8
MOSFET$TRACES
 10
-373.0596702693809
 20
93.21615443230881
 30
-1.5
 40
0.500000000000071
 50
89.99999999998697
 51
142.6947990342084
  0
ARC
  5
284
  8
MOSFET$TRACES
 10
374.3721107442216
 20
94.21615443230881
 30
1.5
 40
1.150000000000029
 50
217.3052009657777
 51
142.6947990342177
210
0.0
220
0.0
230
-1.0
  0
ARC
  5
285
  8
MOSFET$TRACES
 10
-373.0596702693809
 20
95.21615443230881
 30
-1.5
 40
0.5
 50
217.3052009657839
 51
270.0000000000065
  0
LINE
  5
286
  8
MOSFET$TRACES
 10
-373.0596702693809
 20
94.71615443230881
 30
-1.5
 11
-371.8950014230299
 21
94.71615443230887
 31
-1.5
  0
LINE
  5
287
  8
MOSFET$TRACES
 10
-371.8950014230299
 20
94.71615443230887
 30
-1.5
 11
-363.9775669838554
 21
86.79871999313421
 31
-1.5
  0
ARC
  5
288
  8
MOSFET$TRACES
 10
364.3147533632512
 20
86.4531915837313
 30
1.500000000000003
 40
0.4827882933072848
 50
134.2999429116676
 51
173.461300995341
210
0.0
220
0.0
230
-1.0
  0
ARC
  5
289
  8
MOSFET$TRACES
 10
-363.3390906781816
 20
86.57117089502383
 30
-1.5
 40
0.4999999999999117
 50
187.2387560929756
 51
228.1896851042498
  0
ARC
  5
28A
  8
MOSFET$TRACES
 10
364.3390906781812
 20
85.4531369062734
 30
1.499999999999997
 40
1.000000000000234
 50
131.810314895755
 51
179.9999999999772
210
0.0
220
0.0
230
-1.0
  0
ARC
  5
28B
  8
MOSFET$TRACES
 10
364.3406674109485
 20
85.4539574274792
 30
1.500000000000002
 40
1.001577068865078
 50
180.0469383822677
 51
228.1629761251089
210
0.0
220
0.0
230
-1.0
  0
ARC
  5
28C
  8
MOSFET$TRACES
 10
-363.3390906781815
 20
84.33521807353172
 30
-1.5
 40
0.5
 50
131.837597883903
 51
180.0000000000016
  0
LINE
  5
28D
  8
MOSFET$TRACES
 10
-363.8390906781815
 20
84.33521807353166
 30
-1.5
 11
-363.8390906781815
 21
81.97834869064319
 31
-1.5
  0
ARC
  5
28E
  8
MOSFET$TRACES
 10
-322.7310134620271
 20
9.422422694805036
 30
-1.5
 40
0.5000000000000142
 50
179.9999999999998
 51
232.6947990342156
  0
ARC
  5
28F
  8
MOSFET$TRACES
 10
323.7310134620271
 20
8.109982219964294
 30
1.5
 40
1.150000000000023
 50
127.3052009657834
 51
52.69479903421344
210
0.0
220
0.0
230
-1.0
  0
ARC
  5
290
  8
MOSFET$TRACES
 10
-324.7310134620271
 20
9.422422694805036
 30
-1.5
 40
0.5
 50
307.3052009657856
 51
0.0000000000010178
  0
LINE
  5
291
  8
MOSFET$TRACES
 10
-324.2310134620271
 20
9.422422694805036
 30
-1.5
 11
-324.2310134620271
 21
12.46949704430232
 31
-1.5
  0
ARC
  5
292
  8
MOSFET$TRACES
 10
-324.7144454034895
 20
12.47512181027227
 30
-1.499999999999994
 40
0.4834646626366139
 50
359.3333894976694
 51
38.17075286259064
  0
LINE
  5
293
  8
MOSFET$TRACES
 10
-324.3343587989819
 20
12.7739064368718
 30
-1.5
 11
-328.018467667777
 21
17.57441193257461
 31
-1.5
  0
ARC
  5
294
  8
MOSFET$TRACES
 10
-328.4071728284152
 20
17.28612400534539
 30
-1.499999999999995
 40
0.4839438303077134
 50
36.56293101616713
 51
90.94121134411043
  0
LINE
  5
295
  8
MOSFET$TRACES
 10
-328.4151223308222
 20
17.77000254000505
 30
-1.5
 11
-331.8519939513059
 21
17.77000254000512
 31
-1.5
  0
ARC
  5
296
  8
MOSFET$TRACES
 10
-331.8592686679988
 20
17.28626930104731
 30
-1.499999999999999
 40
0.4837879369884837
 50
89.13841119015845
 51
139.0512739140577
  0
ARC
  5
297
  8
MOSFET$TRACES
 10
332.9700279400559
 20
18.27000254000507
 30
1.5
 40
1.000000000000022
 50
221.8103148957756
 51
359.9999999999994
210
0.0
220
0.0
230
-1.0
  0
ARC
  5
298
  8
MOSFET$TRACES
 10
332.9700279400559
 20
18.27000254000502
 30
1.5
 40
1.0
 50
0.0000000000016284
 51
138.1896851042222
210
0.0
220
0.0
230
-1.0
  0
ARC
  5
299
  8
MOSFET$TRACES
 10
-331.8600805201197
 20
19.25192042243292
 30
-1.5
 40
0.4819857238538789
 50
220.8489835110483
 51
270.9613313847382
  0
LINE
  5
29A
  8
MOSFET$TRACES
 10
-331.8519939513059
 20
18.77000254000505
 30
-1.5
 11
-327.6754716006546
 21
18.77000254000508
 31
-1.5
  0
LINE
  5
29B
  8
MOSFET$TRACES
 10
-327.6754716006546
 20
18.77000254000505
 30
-1.5
 11
-327.0503873535866
 21
17.95549882412864
 31
-1.5
  0
ARC
  5
29C
  8
MOSFET$TRACES
 10
-325.463768701406
 20
19.17313639440647
 30
-1.499999999999999
 40
1.999999999999803
 50
217.5041423602652
 51
315.0000000000035
  0
LINE
  5
29D
  8
MOSFET$TRACES
 10
-324.049555139033
 20
17.75892283203358
 30
-1.5
 11
-319.0803403606805
 21
22.72813761038576
 31
-1.5
  0
LINE
  5
29E
  8
MOSFET$TRACES
 10
-319.0803403606805
 20
22.72813761038576
 30
-1.5
 11
-319.0803403606805
 21
87.27246545135277
 31
-1.5
  0
LINE
  5
29F
  8
MOSFET$TRACES
 10
-319.0803403606805
 20
87.27246545135277
 30
-1.5
 11
-328.4078749093281
 21
96.60000000000001
 31
-1.5
  0
LINE
  5
2A0
  8
MOSFET$TRACES
 10
-328.4078749093281
 20
96.60000000000001
 30
-1.5
 11
-335.5765040594296
 21
96.60000000000001
 31
-1.5
  0
LINE
  5
2A1
  8
MOSFET$TRACES
 10
-335.5765040594296
 20
96.60000000000001
 30
-1.5
 11
-337.9040386080773
 21
94.27246545135255
 31
-1.5
  0
LINE
  5
2A2
  8
MOSFET$TRACES
 10
-337.9040386080773
 20
94.27246545135255
 30
-1.5
 11
-337.9040386080773
 21
88.9704588473388
 31
-1.5
  0
LINE
  5
2A3
  8
MOSFET$TRACES
 10
-337.9040386080773
 20
88.9704588473388
 30
-1.5
 11
-344.5386824902084
 21
82.33581496520809
 31
-1.5
  0
ARC
  5
2A4
  8
MOSFET$TRACES
 10
-344.1851290996136
 20
81.98226157461431
 30
-1.499999999999996
 40
0.5000000000014411
 50
135.0000000000841
 51
188.1301023541852
  0
ARC
  5
2A5
  8
MOSFET$TRACES
 10
345.6700533401068
 20
81.770129540259
 30
1.5
 40
0.999999999999974
 50
171.8698976459084
 51
98.1301023541516
210
0.0
220
0.0
230
-1.0
  0
ARC
  5
2A6
  8
MOSFET$TRACES
 10
-345.4551451859663
 20
83.24672542139696
 30
-1.5
 40
0.4921636068527862
 50
261.4128400393673
 51
315.457057606472
  0
LINE
  5
2A7
  8
MOSFET$TRACES
 10
-345.1043679151575
 20
82.90150039015747
 30
-1.5
 11
-338.7040386080773
 21
89.30182969723738
 31
-1.5
  0
LINE
  5
2A8
  8
MOSFET$TRACES
 10
-338.7040386080773
 20
89.30182969723738
 30
-1.5
 11
-338.7040386080773
 21
94.60383630125101
 31
-1.5
  0
LINE
  5
2A9
  8
MOSFET$TRACES
 10
-338.7040386080773
 20
94.60383630125101
 30
-1.5
 11
-335.9078749093281
 21
97.39999999999996
 31
-1.5
  0
LINE
  5
2AA
  8
MOSFET$TRACES
 10
-335.9078749093281
 20
97.39999999999996
 30
-1.5
 11
-328.0765040594296
 21
97.39999999999996
 31
-1.5
  0
LINE
  5
2AB
  8
MOSFET$TRACES
 10
-328.0765040594296
 20
97.39999999999996
 30
-1.5
 11
-318.2803403606806
 21
87.60383630125135
 31
-1.5
  0
LINE
  5
2AC
  8
MOSFET$TRACES
 10
-318.2803403606806
 20
87.60383630125135
 30
-1.5
 11
-318.2803403606806
 21
22.39676676048724
 31
-1.5
  0
LINE
  5
2AD
  8
MOSFET$TRACES
 10
-318.2803403606806
 20
22.39676676048724
 30
-1.5
 11
-323.9304634706226
 21
16.74664365054552
 31
-1.5
  0
ARC
  5
2AE
  8
MOSFET$TRACES
 10
-322.5162499082495
 20
15.33243008817234
 30
-1.5
 40
2.000000000000026
 50
134.9999999999974
 51
217.5041423602709
  0
LINE
  5
2AF
  8
MOSFET$TRACES
 10
-324.1028685604301
 20
14.1147925178942
 30
-1.5
 11
-323.2310134620271
 21
12.97873890482374
 31
-1.5
  0
LINE
  5
2B0
  8
MOSFET$TRACES
 10
-323.2310134620271
 20
12.97873890482366
 30
-1.5
 11
-323.2310134620271
 21
9.422422694805036
 31
-1.5
  0
CIRCLE
  5
2B1
  8
MOSFET$TRACES
 10
355.449072898146
 20
65.67310134620264
 30
1.5
 40
0.8000000000000081
210
0.0
220
0.0
230
-1.0
  0
ARC
  5
2B2
  8
MOSFET$TRACES
 10
364.0000000000028
 20
43.67005334010319
 30
1.5
 40
0.8000000000042689
 50
230.2848627645478
 51
129.7151372320059
210
0.0
220
0.0
230
-1.0
  0
ARC
  5
2B3
  8
MOSFET$TRACES
 10
-363.1693376137052
 20
44.67005334010388
 30
-1.5
 40
0.5
 50
230.2848627679963
 51
269.9999999992835
  0
LINE
  5
2B4
  8
MOSFET$TRACES
 10
-363.1693376137114
 20
44.17005334010388
 30
-1.5
 11
-359.2007411265186
 21
44.17005334005408
 31
-1.5
  0
ARC
  5
2B5
  8
MOSFET$TRACES
 10
-359.2007411265124
 20
44.67005334005408
 30
-1.5
 40
0.5
 50
269.9999999992835
 51
309.7151372354411
  0
ARC
  5
2B6
  8
MOSFET$TRACES
 10
358.3700787401575
 20
43.67005334010649
 30
1.5
 40
0.8000000000000177
 50
50.28486276455966
 51
309.7151372318309
210
0.0
220
0.0
230
-1.0
  0
ARC
  5
2B7
  8
MOSFET$TRACES
 10
-359.2007411264494
 20
42.67005334010661
 30
-1.5
 40
0.5
 50
50.2848627681673
 51
89.99999999997394
  0
LINE
  5
2B8
  8
MOSFET$TRACES
 10
-359.200741126449
 20
43.17005334010661
 30
-1.5
 11
-363.169337613684
 21
43.17005334013139
 31
-1.5
  0
ARC
  5
2B9
  8
MOSFET$TRACES
 10
-363.1693376136704
 20
42.67005334013139
 30
-1.5
 40
0.5
 50
90.00000000156331
 51
129.7151372316623
  0
ARC
  5
2BA
  8
MOSFET$TRACES
 10
358.3700787401575
 20
41.13004826009625
 30
1.5
 40
0.8000000000000123
 50
50.28486276817351
 51
309.7151372319107
210
0.0
220
0.0
230
-1.0
  0
ARC
  5
2BB
  8
MOSFET$TRACES
 10
-359.2007411264507
 20
40.1300482600975
 30
-1.5
 40
0.5
 50
50.28486276808891
 51
89.99999999966128
  0
LINE
  5
2BC
  8
MOSFET$TRACES
 10
-359.2007411264478
 20
40.6300482600975
 30
-1.5
 11
-363.1693376136843
 21
40.63004826012126
 31
-1.5
  0
ARC
  5
2BD
  8
MOSFET$TRACES
 10
-363.1693376136703
 20
40.13004826012126
 30
-1.5
 40
0.5
 50
90.0000000016024
 51
129.7151372316649
  0
ARC
  5
2BE
  8
MOSFET$TRACES
 10
364.0000000000028
 20
41.13004826009295
 30
1.5
 40
0.8000000000042627
 50
230.2848627645379
 51
129.7151372318266
210
0.0
220
0.0
230
-1.0
  0
ARC
  5
2BF
  8
MOSFET$TRACES
 10
-363.1693376137083
 20
42.13004826009625
 30
-1.5
 40
0.5
 50
230.2848627681738
 51
270.0
  0
LINE
  5
2C0
  8
MOSFET$TRACES
 10
-363.1693376137083
 20
41.63004826009625
 30
-1.5
 11
-359.2007411264493
 21
41.63004826009625
 31
-1.5
  0
ARC
  5
2C1
  8
MOSFET$TRACES
 10
-359.2007411264493
 20
42.13004826009625
 30
-1.5
 40
0.5
 50
270.0
 51
309.7151372318256
  0
LINE
  5
2C2
  8
MOSFET$TRACES
 10
-363.1693376136867
 20
38.09004318011226
 30
-1.5
 11
-359.2007411264487
 21
38.09004318008736
 31
-1.5
  0
ARC
  5
2C3
  8
MOSFET$TRACES
 10
359.2007411264509
 20
37.59004318008736
 30
1.5
 40
0.5
 50
90.000000000241
 51
129.7151372319121
210
0.0
220
0.0
230
-1.0
  0
ARC
  5
2C4
  8
MOSFET$TRACES
 10
-358.3700787401575
 20
38.590043180086
 30
-1.5
 40
0.8000000000000049
 50
230.2848627680832
 51
129.7151372318265
  0
ARC
  5
2C5
  8
MOSFET$TRACES
 10
359.2007411264493
 20
39.590043180086
 30
1.5
 40
0.5
 50
230.2848627681744
 51
270.0
210
0.0
220
0.0
230
-1.0
  0
LINE
  5
2C6
  8
MOSFET$TRACES
 10
-359.2007411264493
 20
39.090043180086
 30
-1.5
 11
-363.1693376137083
 21
39.090043180086
 31
-1.5
  0
ARC
  5
2C7
  8
MOSFET$TRACES
 10
363.1693376137083
 20
39.590043180086
 30
1.5
 40
0.5
 50
270.0
 51
309.7151372318261
210
0.0
220
0.0
230
-1.0
  0
ARC
  5
2C8
  8
MOSFET$TRACES
 10
-364.0000000000028
 20
38.59004318008276
 30
-1.5
 40
0.8000000000042673
 50
50.28486276817342
 51
309.715137235546
  0
ARC
  5
2C9
  8
MOSFET$TRACES
 10
363.1693376136688
 20
37.59004318011226
 30
1.5
 40
0.5
 50
50.28486276825019
 51
89.9999999979612
210
0.0
220
0.0
230
-1.0
  0
LINE
  5
2CA
  8
MOSFET$TRACES
 10
-363.1693376136389
 20
33.01003302011792
 30
-1.5
 11
-359.2007411264462
 21
33.01003302006812
 31
-1.5
  0
ARC
  5
2CB
  8
MOSFET$TRACES
 10
359.2007411264526
 20
32.51003302006812
 30
1.5
 40
0.5
 50
90.00000000072302
 51
129.7151372320561
210
0.0
220
0.0
230
-1.0
  0
ARC
  5
2CC
  8
MOSFET$TRACES
 10
-358.3700787401534
 20
33.5100330200688
 30
-1.5
 40
0.8000000000052403
 50
230.2848627679445
 51
129.7151372356366
  0
ARC
  5
2CD
  8
MOSFET$TRACES
 10
359.2007411264888
 20
34.51003302003936
 30
1.5
 40
0.5
 50
230.2848627682604
 51
269.9999999979612
210
0.0
220
0.0
230
-1.0
  0
LINE
  5
2CE
  8
MOSFET$TRACES
 10
-359.200741126471
 20
34.01003302003936
 30
-1.5
 11
-363.1693376137088
 21
34.01003302006426
 31
-1.5
  0
ARC
  5
2CF
  8
MOSFET$TRACES
 10
363.1693376137067
 20
34.51003302006426
 30
1.5
 40
0.5
 50
270.000000000241
 51
309.7151372319126
210
0.0
220
0.0
230
-1.0
  0
ARC
  5
2D0
  8
MOSFET$TRACES
 10
-364.0000000000001
 20
33.51003302006551
 30
-1.5
 40
0.8000000000000131
 50
50.28486276808483
 51
309.7151372354401
  0
ARC
  5
2D1
  8
MOSFET$TRACES
 10
363.1693376136452
 20
32.51003302011792
 30
1.5
 40
0.5
 50
50.28486276455888
 51
90.00000000072302
210
0.0
220
0.0
230
-1.0
  0
LINE
  5
2D2
  8
MOSFET$TRACES
 10
-359.2007411265186
 20
31.47002794000291
 30
-1.5
 11
-363.1693376137114
 21
31.47002794005265
 31
-1.5
  0
ARC
  5
2D3
  8
MOSFET$TRACES
 10
363.1693376137051
 20
31.97002794005265
 30
1.5
 40
0.5
 50
270.000000000723
 51
309.7151372320039
210
0.0
220
0.0
230
-1.0
  0
ARC
  5
2D4
  8
MOSFET$TRACES
 10
-364.0000000000028
 20
30.97002794005196
 30
-1.5
 40
0.8000000000042842
 50
50.2848627679941
 51
309.7151372355463
  0
ARC
  5
2D5
  8
MOSFET$TRACES
 10
363.1693376136688
 20
29.97002794008152
 30
1.5
 40
0.5
 50
50.28486276824967
 51
89.9999999979612
210
0.0
220
0.0
230
-1.0
  0
LINE
  5
2D6
  8
MOSFET$TRACES
 10
-363.1693376136867
 20
30.47002794008152
 30
-1.5
 11
-359.2007411264477
 21
30.47002794005662
 31
-1.5
  0
ARC
  5
2D7
  8
MOSFET$TRACES
 10
359.2007411264507
 20
29.97002794005662
 30
1.5
 40
0.5
 50
90.00000000035826
 51
129.7151372319124
210
0.0
220
0.0
230
-1.0
  0
ARC
  5
2D8
  8
MOSFET$TRACES
 10
-358.3700787401575
 20
30.97002794005526
 30
-1.5
 40
0.8000000000000076
 50
230.2848627680837
 51
129.7151372354402
  0
ARC
  5
2D9
  8
MOSFET$TRACES
 10
359.2007411265122
 20
31.97002794000291
 30
1.5
 40
0.5
 50
230.2848627645584
 51
270.0000000007165
210
0.0
220
0.0
230
-1.0
  0
LINE
  5
2DA
  8
MOSFET$TRACES
 10
-363.1693376137098
 20
28.93002286004445
 30
-1.5
 11
-359.200741126471
 21
28.93002286001955
 31
-1.5
  0
ARC
  5
2DB
  8
MOSFET$TRACES
 10
-359.2007411264888
 20
29.43002286001955
 30
-1.5
 40
0.5
 50
270.0000000020453
 51
309.7151372317354
  0
ARC
  5
2DC
  8
MOSFET$TRACES
 10
358.3700787401534
 20
28.43002286004899
 30
1.5
 40
0.8000000000052373
 50
50.28486276436654
 51
309.7151372320555
210
0.0
220
0.0
230
-1.0
  0
ARC
  5
2DD
  8
MOSFET$TRACES
 10
-359.2007411264526
 20
27.43002286004831
 30
-1.5
 40
0.5
 50
50.28486276794441
 51
89.99999999928349
  0
LINE
  5
2DE
  8
MOSFET$TRACES
 10
-359.2007411264463
 20
27.93002286004831
 30
-1.5
 11
-363.1693376136389
 21
27.93002286009811
 31
-1.5
  0
ARC
  5
2DF
  8
MOSFET$TRACES
 10
-363.1693376136453
 20
27.43002286009811
 30
-1.5
 40
0.5
 50
89.99999999928349
 51
129.7151372354406
  0
ARC
  5
2E0
  8
MOSFET$TRACES
 10
364.0000000000001
 20
28.4300228600457
 30
1.5
 40
0.8000000000000114
 50
230.2848627645593
 51
129.7151372319158
210
0.0
220
0.0
230
-1.0
  0
ARC
  5
2E1
  8
MOSFET$TRACES
 10
-363.1693376137068
 20
29.43002286004445
 30
-1.5
 40
0.5
 50
230.2848627680829
 51
269.9999999996417
  0
LINE
  5
2E2
  8
MOSFET$TRACES
 10
-359.2007411265186
 20
26.39001777998304
 30
-1.5
 11
-363.1693376137114
 21
26.39001778003289
 31
-1.5
  0
ARC
  5
2E3
  8
MOSFET$TRACES
 10
363.1693376137052
 20
26.89001778003289
 30
1.5
 40
0.5
 50
270.0000000007165
 51
309.7151372320037
210
0.0
220
0.0
230
-1.0
  0
ARC
  5
2E4
  8
MOSFET$TRACES
 10
-364.0000000000028
 20
25.89001778003215
 30
-1.5
 40
0.8000000000042811
 50
50.2848627679941
 51
309.715137235543
  0
ARC
  5
2E5
  8
MOSFET$TRACES
 10
363.1693376136688
 20
24.89001778006165
 30
1.5
 40
0.5
 50
50.28486276824941
 51
89.99999999795467
210
0.0
220
0.0
230
-1.0
  0
LINE
  5
2E6
  8
MOSFET$TRACES
 10
-363.1693376136867
 20
25.39001778006165
 30
-1.5
 11
-359.2007411264477
 21
25.39001778003676
 31
-1.5
  0
ARC
  5
2E7
  8
MOSFET$TRACES
 10
359.2007411264509
 20
24.89001778003676
 30
1.5
 40
0.5
 50
90.00000000035826
 51
129.7151372319171
210
0.0
220
0.0
230
-1.0
  0
ARC
  5
2E8
  8
MOSFET$TRACES
 10
-358.3700787401575
 20
25.89001778003545
 30
-1.5
 40
0.8000000000000035
 50
230.2848627680842
 51
129.7151372354407
  0
ARC
  5
2E9
  8
MOSFET$TRACES
 10
359.2007411265124
 20
26.89001777998304
 30
1.5
 40
0.5
 50
230.2848627645586
 51
270.0000000007165
210
0.0
220
0.0
230
-1.0
  0
ARC
  5
2EA
  8
MOSFET$TRACES
 10
-358.3700787401575
 20
23.3500127000252
 30
-1.5
 40
0.8000000000000091
 50
230.2848627680837
 51
129.7151372354402
  0
ARC
  5
2EB
  8
MOSFET$TRACES
 10
359.2007411265124
 20
24.35001269997285
 30
1.5
 40
0.5
 50
230.2848627645591
 51
270.0000000007165
210
0.0
220
0.0
230
-1.0
  0
LINE
  5
2EC
  8
MOSFET$TRACES
 10
-359.2007411265186
 20
23.85001269997285
 30
-1.5
 11
-363.1693376137114
 21
23.85001270002265
 31
-1.5
  0
ARC
  5
2ED
  8
MOSFET$TRACES
 10
363.1693376137052
 20
24.35001270002265
 30
1.5
 40
0.5
 50
270.0000000007165
 51
309.7151372320037
210
0.0
220
0.0
230
-1.0
  0
ARC
  5
2EE
  8
MOSFET$TRACES
 10
-364.0000000000028
 20
23.35001270002191
 30
-1.5
 40
0.8000000000042642
 50
50.28486276799427
 51
309.7151372355437
  0
ARC
  5
2EF
  8
MOSFET$TRACES
 10
363.1693376136688
 20
22.35001270005141
 30
1.5
 40
0.5
 50
50.28486276825045
 51
89.9999999979612
210
0.0
220
0.0
230
-1.0
  0
LINE
  5
2F0
  8
MOSFET$TRACES
 10
-363.1693376136867
 20
22.85001270005141
 30
-1.5
 11
-359.2007411264477
 21
22.85001270002651
 31
-1.5
  0
ARC
  5
2F1
  8
MOSFET$TRACES
 10
359.2007411264509
 20
22.35001270002651
 30
1.5
 40
0.5
 50
90.00000000035826
 51
129.7151372319124
210
0.0
220
0.0
230
-1.0
  0
LINE
  5
2F2
  8
MOSFET$TRACES
 10
-363.1693376136867
 20
20.31000762004116
 30
-1.5
 11
-358.9945785399973
 21
20.31000762001496
 31
-1.5
  0
ARC
  5
2F3
  8
MOSFET$TRACES
 10
-358.3700787401575
 20
20.81000762001496
 30
-1.5
 40
0.8000000000000081
 50
218.6821874534889
 51
141.3178125515529
  0
LINE
  5
2F4
  8
MOSFET$TRACES
 10
-358.9945785400413
 20
21.31000761996005
 30
-1.5
 11
-363.1693376137114
 21
21.3100076200124
 31
-1.5
  0
ARC
  5
2F5
  8
MOSFET$TRACES
 10
363.1693376137051
 20
21.8100076200124
 30
1.5
 40
0.5
 50
270.0000000007165
 51
309.7151372320037
210
0.0
220
0.0
230
-1.0
  0
ARC
  5
2F6
  8
MOSFET$TRACES
 10
-364.0000000000028
 20
20.81000762001166
 30
-1.5
 40
0.8000000000042713
 50
50.2848627679941
 51
309.715137235543
  0
ARC
  5
2F7
  8
MOSFET$TRACES
 10
363.1693376136688
 20
19.81000762004116
 30
1.5
 40
0.5
 50
50.28486276824993
 51
89.9999999979612
210
0.0
220
0.0
230
-1.0
  0
LINE
  5
2F8
  8
MOSFET$TRACES
 10
-359.2007411265186
 20
16.22999745994211
 30
-1.5
 11
-363.1693376137114
 21
16.22999745999185
 31
-1.5
  0
ARC
  5
2F9
  8
MOSFET$TRACES
 10
363.1693376137051
 20
16.72999745999185
 30
1.5
 40
0.5
 50
270.000000000723
 51
309.7151372320105
210
0.0
220
0.0
230
-1.0
  0
ARC
  5
2FA
  8
MOSFET$TRACES
 10
-364.0000000000028
 20
15.72999745999117
 30
-1.5
 40
0.8000000000042874
 50
50.28486276799508
 51
309.7151372355461
  0
ARC
  5
2FB
  8
MOSFET$TRACES
 10
363.1693376136688
 20
14.72999746002067
 30
1.5
 40
0.5
 50
50.28486276824979
 51
89.9999999979612
210
0.0
220
0.0
230
-1.0
  0
LINE
  5
2FC
  8
MOSFET$TRACES
 10
-363.1693376136867
 20
15.22999746002067
 30
-1.5
 11
-359.2007411264477
 21
15.22999745999577
 31
-1.5
  0
ARC
  5
2FD
  8
MOSFET$TRACES
 10
359.2007411264509
 20
14.72999745999577
 30
1.5
 40
0.5
 50
90.00000000035826
 51
129.7151372319174
210
0.0
220
0.0
230
-1.0
  0
ARC
  5
2FE
  8
MOSFET$TRACES
 10
-358.3700787401575
 20
15.72999745999446
 30
-1.5
 40
0.8000000000000027
 50
230.2848627680839
 51
129.71513723544
  0
ARC
  5
2FF
  8
MOSFET$TRACES
 10
359.2007411265122
 20
16.72999745994211
 30
1.5
 40
0.5
 50
230.2848627645597
 51
270.0000000007165
210
0.0
220
0.0
230
-1.0
  0
LINE
  5
300
  8
MOSFET$TRACES
 10
-359.2007411265186
 20
18.77000253995236
 30
-1.5
 11
-363.1693376137114
 21
18.77000254000215
 31
-1.5
  0
ARC
  5
301
  8
MOSFET$TRACES
 10
363.1693376137051
 20
19.27000254000215
 30
1.5
 40
0.5
 50
270.0000000007165
 51
309.7151372320039
210
0.0
220
0.0
230
-1.0
  0
ARC
  5
302
  8
MOSFET$TRACES
 10
-364.0000000000028
 20
18.27000254000141
 30
-1.5
 40
0.8000000000042731
 50
50.28486276799394
 51
309.7151372355429
  0
ARC
  5
303
  8
MOSFET$TRACES
 10
363.1693376136688
 20
17.27000254003092
 30
1.5
 40
0.5
 50
50.28486276825045
 51
89.99999999795467
210
0.0
220
0.0
230
-1.0
  0
LINE
  5
304
  8
MOSFET$TRACES
 10
-363.1693376136867
 20
17.77000254003092
 30
-1.5
 11
-359.2007411264477
 21
17.77000254000608
 31
-1.5
  0
ARC
  5
305
  8
MOSFET$TRACES
 10
359.2007411264509
 20
17.27000254000608
 30
1.5
 40
0.5
 50
90.00000000035826
 51
129.7151372319179
210
0.0
220
0.0
230
-1.0
  0
ARC
  5
306
  8
MOSFET$TRACES
 10
-358.3700787401575
 20
18.27000254000471
 30
-1.5
 40
0.800000000000008
 50
230.2848627680837
 51
129.7151372354397
  0
ARC
  5
307
  8
MOSFET$TRACES
 10
359.2007411265122
 20
19.27000253995236
 30
1.5
 40
0.5
 50
230.2848627645597
 51
270.0000000007165
210
0.0
220
0.0
230
-1.0
  0
ARC
  5
308
  8
MOSFET$TRACES
 10
364.0000000000001
 20
10.64998729997454
 30
1.5
 40
0.8000000000000038
 50
230.2848627645593
 51
129.7151372319163
210
0.0
220
0.0
230
-1.0
  0
ARC
  5
309
  8
MOSFET$TRACES
 10
-363.1693376137067
 20
11.64998729997329
 30
-1.5
 40
0.5
 50
230.2848627680829
 51
269.9999999996417
  0
LINE
  5
30A
  8
MOSFET$TRACES
 10
-363.1693376137098
 20
11.14998729997329
 30
-1.5
 11
-359.200741126471
 21
11.14998729994839
 31
-1.5
  0
ARC
  5
30B
  8
MOSFET$TRACES
 10
-359.2007411264888
 20
11.64998729994839
 30
-1.5
 40
0.5
 50
270.0000000020453
 51
309.7151372317346
  0
ARC
  5
30C
  8
MOSFET$TRACES
 10
358.3700787401534
 20
10.64998729997784
 30
1.5
 40
0.800000000005241
 50
50.284862764363
 51
309.7151372320554
210
0.0
220
0.0
230
-1.0
  0
ARC
  5
30D
  8
MOSFET$TRACES
 10
-359.2007411264526
 20
9.649987299977155
 30
-1.5
 40
0.5
 50
50.28486276793902
 51
89.99999999928349
  0
LINE
  5
30E
  8
MOSFET$TRACES
 10
-359.2007411264463
 20
10.14998729997716
 30
-1.5
 11
-363.1693376136389
 21
10.14998730002695
 31
-1.5
  0
ARC
  5
30F
  8
MOSFET$TRACES
 10
-363.1693376136452
 20
9.64998730002695
 30
-1.5
 40
0.5
 50
89.99999999928349
 51
129.7151372354414
  0
ARC
  5
310
  8
MOSFET$TRACES
 10
364.0000000000028
 20
8.109982219961111
 30
1.5
 40
0.8000000000042718
 50
230.2848627645475
 51
129.7151372320058
210
0.0
220
0.0
230
-1.0
  0
ARC
  5
311
  8
MOSFET$TRACES
 10
-363.1693376137052
 20
9.10998221996185
 30
-1.5
 40
0.5
 50
230.2848627679963
 51
269.9999999992835
  0
LINE
  5
312
  8
MOSFET$TRACES
 10
-363.1693376137114
 20
8.60998221996185
 30
-1.5
 11
-359.2007411265186
 21
8.609982219911998
 31
-1.5
  0
ARC
  5
313
  8
MOSFET$TRACES
 10
-359.2007411265124
 20
9.109982219911998
 30
-1.5
 40
0.5
 50
269.9999999992835
 51
309.715137235441
  0
ARC
  5
314
  8
MOSFET$TRACES
 10
358.3700787401575
 20
8.109982219964408
 30
1.5
 40
0.8000000000000046
 50
50.28486276455982
 51
309.7151372318315
210
0.0
220
0.0
230
-1.0
  0
ARC
  5
315
  8
MOSFET$TRACES
 10
-359.2007411264494
 20
7.109982219964522
 30
-1.5
 40
0.5
 50
50.28486276816717
 51
89.99999999997394
  0
LINE
  5
316
  8
MOSFET$TRACES
 10
-359.2007411264491
 20
7.609982219964522
 30
-1.5
 11
-363.169337613684
 21
7.609982219989305
 31
-1.5
  0
ARC
  5
317
  8
MOSFET$TRACES
 10
-363.1693376136704
 20
7.109982219989305
 30
-1.5
 40
0.5
 50
90.00000000156331
 51
129.7151372316615
  0
LINE
  5
318
  8
MOSFET$TRACES
 10
-372.6826618488102
 20
17.06724491155468
 30
-1.5
 11
-369.3518559266473
 21
13.73643898939141
 31
-1.5
  0
ARC
  5
319
  8
MOSFET$TRACES
 10
-368.9983025360538
 20
14.08999237998471
 30
-1.5
 40
0.5
 50
224.9999999999974
 51
270.0
  0
LINE
  5
31A
  8
MOSFET$TRACES
 10
-368.9983025360539
 20
13.5899923799847
 30
-1.5
 11
-359.3081618921223
 21
13.58999237998463
 31
-1.5
  0
ARC
  5
31B
  8
MOSFET$TRACES
 10
-359.3081618921222
 20
14.08999237998465
 30
-1.5
 40
0.5
 50
269.9999999999935
 51
316.1869385395933
  0
ARC
  5
31C
  8
MOSFET$TRACES
 10
358.3700787401575
 20
13.1899923799846
 30
1.5
 40
0.8000000000000325
 50
43.8130614604062
 51
316.1869385396211
210
0.0
220
0.0
230
-1.0
  0
ARC
  5
31D
  8
MOSFET$TRACES
 10
-359.3081618921222
 20
12.28999237998475
 30
-1.5
 40
0.5
 50
43.81306146040996
 51
90.00000000000651
  0
LINE
  5
31E
  8
MOSFET$TRACES
 10
-359.3081618921223
 20
12.78999237998472
 30
-1.5
 11
-369.536780167139
 21
12.78999237998472
 31
-1.5
  0
LINE
  5
31F
  8
MOSFET$TRACES
 10
-369.536780167139
 20
12.78999237998472
 30
-1.5
 11
-373.6291084582169
 21
16.88232067106289
 31
-1.5
  0
LINE
  5
320
  8
MOSFET$TRACES
 10
-373.6291084582169
 20
16.88232067106289
 30
-1.5
 11
-373.6291084582169
 21
64.73501819423788
 31
-1.5
  0
ARC
  5
321
  8
MOSFET$TRACES
 10
-374.1291084582169
 20
64.7350181942379
 30
-1.5
 40
0.5
 50
0.0
 51
46.18693853959475
  0
ARC
  5
322
  8
MOSFET$TRACES
 10
373.2291084582168
 20
65.67310134620267
 30
1.5
 40
0.8000000000000554
 50
313.8130614604005
 51
226.1869385396095
210
0.0
220
0.0
230
-1.0
  0
ARC
  5
323
  8
MOSFET$TRACES
 10
-372.3291084582169
 20
64.7350181942379
 30
-1.5
 40
0.5
 50
133.8130614604053
 51
180.0000000000016
  0
LINE
  5
324
  8
MOSFET$TRACES
 10
-372.8291084582169
 20
64.73501819423787
 30
-1.5
 11
-372.8291084582169
 21
17.42079830214795
 31
-1.5
  0
ARC
  5
325
  8
MOSFET$TRACES
 10
-372.3291084582169
 20
17.42079830214799
 30
-1.5
 40
0.5
 50
180.0
 51
225.0000000000003
  0
LINE
  5
326
  8
MOSFET$TRACES
 10
-338.0115925066717
 20
60.92284906863318
 30
-1.5
 11
-332.9507891245134
 21
65.9836524507913
 31
-1.5
  0
ARC
  5
327
  8
MOSFET$TRACES
 10
332.5972357339202
 20
65.63009906019805
 30
1.5
 40
0.5
 50
45.00000000000115
 51
90.0
210
0.0
220
0.0
230
-1.0
  0
LINE
  5
328
  8
MOSFET$TRACES
 10
-332.5972357339201
 20
66.13009906019799
 30
-1.5
 11
-331.408179818005
 21
66.13009906019805
 31
-1.5
  0
ARC
  5
329
  8
MOSFET$TRACES
 10
331.408179818005
 20
65.63009906019805
 30
1.5
 40
0.5
 50
90.0
 51
136.1869385395971
210
0.0
220
0.0
230
-1.0
  0
ARC
  5
32A
  8
MOSFET$TRACES
 10
-330.4700966660401
 20
66.53009906019803
 30
-1.5
 40
0.8000000000000862
 50
223.8130614603984
 51
136.1869385396058
  0
ARC
  5
32B
  8
MOSFET$TRACES
 10
331.408179818005
 20
67.430099060198
 30
1.5
 40
0.5
 50
223.8130614604042
 51
270.0000000000065
210
0.0
220
0.0
230
-1.0
  0
LINE
  5
32C
  8
MOSFET$TRACES
 10
-331.4081798180051
 20
66.930099060198
 30
-1.5
 11
-333.1357133650052
 21
66.930099060198
 31
-1.5
  0
LINE
  5
32D
  8
MOSFET$TRACES
 10
-333.1357133650052
 20
66.930099060198
 30
-1.5
 11
-338.9580391160784
 21
61.10777330912501
 31
-1.5
  0
LINE
  5
32E
  8
MOSFET$TRACES
 10
-338.9580391160784
 20
61.10777330912501
 30
-1.5
 11
-338.9580391160784
 21
28.77233845109859
 31
-1.5
  0
LINE
  5
32F
  8
MOSFET$TRACES
 10
-338.9580391160784
 20
28.77233845109859
 30
-1.5
 11
-333.9161956106016
 21
23.73049494562181
 31
-1.5
  0
ARC
  5
330
  8
MOSFET$TRACES
 10
334.2697490011948
 20
23.37694155502855
 30
1.5
 40
0.5
 50
135.0
 51
181.1869385395962
210
0.0
220
0.0
230
-1.0
  0
ARC
  5
331
  8
MOSFET$TRACES
 10
-332.9700279410089
 20
23.35001270004127
 30
-1.500000000002065
 40
0.7999999990469745
 50
178.8130614601297
 51
180.0000000011424
  0
ARC
  5
332
  8
MOSFET$TRACES
 10
-332.9700279400561
 20
23.35001270002529
 30
-1.5
 40
0.7999999999998977
 50
179.9999999999995
 51
91.1869385395972
  0
ARC
  5
333
  8
MOSFET$TRACES
 10
332.9969567950591
 20
24.64973376116431
 30
1.5
 40
0.5
 50
268.8130614604046
 51
314.9999999999939
210
0.0
220
0.0
230
-1.0
  0
LINE
  5
334
  8
MOSFET$TRACES
 10
-333.3505101856524
 20
24.29618037057098
 30
-1.5
 11
-338.1580391160784
 21
29.10370930099692
 31
-1.5
  0
LINE
  5
335
  8
MOSFET$TRACES
 10
-338.1580391160784
 20
29.10370930099692
 30
-1.5
 11
-338.1580391160784
 21
60.56929567803993
 31
-1.5
  0
ARC
  5
336
  8
MOSFET$TRACES
 10
337.6580391160784
 20
60.56929567804001
 30
1.5
 40
0.5
 50
0.0
 51
45.00000000000058
210
0.0
220
0.0
230
-1.0
  0
LINE
  5
337
  8
MOSFET$TRACES
 10
-330.4893354815826
 20
31.51647454946259
 30
-1.5
 11
-326.0635333694271
 21
35.94227666161811
 31
-1.5
  0
ARC
  5
338
  8
MOSFET$TRACES
 10
-326.4170867600204
 20
36.29583005221149
 30
-1.5
 40
0.5
 50
314.9999999999926
 51
359.9999999999935
  0
LINE
  5
339
  8
MOSFET$TRACES
 10
-325.9170867600204
 20
36.29583005221136
 30
-1.5
 11
-325.9170867600204
 21
73.90432234809323
 31
-1.5
  0
ARC
  5
33A
  8
MOSFET$TRACES
 10
-326.4170867600204
 20
73.90432234809332
 30
-1.5
 40
0.5
 50
359.9999999999968
 51
45.0
  0
LINE
  5
33B
  8
MOSFET$TRACES
 10
-326.0635333694271
 20
74.25787573868655
 30
-1.5
 11
-330.0896625925698
 21
78.28400496182915
 31
-1.5
  0
ARC
  5
33C
  8
MOSFET$TRACES
 10
-330.4432159831632
 20
77.93045157123605
 30
-1.5
 40
0.5
 50
44.9999999999977
 51
91.18847305285372
  0
ARC
  5
33D
  8
MOSFET$TRACES
 10
330.4701786646918
 20
79.23008991553532
 30
1.499999999999999
 40
0.7999180020942389
 50
268.8114755260458
 51
0.0024743364758926
210
0.0
220
0.0
230
-1.0
  0
ARC
  5
33E
  8
MOSFET$TRACES
 10
330.4700966660401
 20
79.23012446024876
 30
1.5
 40
0.8000000000001251
 50
0.0000000000030533
 51
181.1869385395928
210
0.0
220
0.0
230
-1.0
  0
ARC
  5
33F
  8
MOSFET$TRACES
 10
-329.1703756049013
 20
79.20319560524568
 30
-1.5
 40
0.5
 50
178.8130614604046
 51
225.0
  0
LINE
  5
340
  8
MOSFET$TRACES
 10
-329.5239289954945
 20
78.84964221465242
 30
-1.5
 11
-325.1170867600205
 21
74.44279997917833
 31
-1.5
  0
LINE
  5
341
  8
MOSFET$TRACES
 10
-325.1170867600205
 20
74.44279997917833
 30
-1.5
 11
-325.1170867600205
 21
35.75735242112646
 31
-1.5
  0
LINE
  5
342
  8
MOSFET$TRACES
 10
-325.1170867600205
 20
35.75735242112646
 30
-1.5
 11
-330.304411241091
 21
30.57002794005591
 31
-1.5
  0
LINE
  5
343
  8
MOSFET$TRACES
 10
-330.304411241091
 20
30.57002794005591
 30
-1.5
 11
-332.0319447880913
 21
30.57002794005591
 31
-1.5
  0
ARC
  5
344
  8
MOSFET$TRACES
 10
-332.0319447880912
 20
30.07002794005585
 30
-1.5
 40
0.5
 50
90.0
 51
136.1869385395958
  0
ARC
  5
345
  8
MOSFET$TRACES
 10
332.970027940056
 20
30.97002794005602
 30
1.5
 40
0.8000000000001337
 50
223.8130614604079
 51
136.1869385396162
210
0.0
220
0.0
230
-1.0
  0
ARC
  5
346
  8
MOSFET$TRACES
 10
-332.0319447880912
 20
31.87002794005581
 30
-1.5
 40
0.5
 50
223.8130614604029
 51
270.0
  0
LINE
  5
347
  8
MOSFET$TRACES
 10
-332.0319447880911
 20
31.37002794005578
 30
-1.5
 11
-330.8428888721758
 21
31.37002794005577
 31
-1.5
  0
ARC
  5
348
  8
MOSFET$TRACES
 10
-330.842888872176
 20
31.87002794005581
 30
-1.5
 40
0.5
 50
270.0000000000065
 51
315.0000000000089
  0
LINE
  5
349
  8
MOSFET$TRACES
 10
-330.4893354815826
 20
34.0564796294727
 30
-1.5
 11
-328.095537433435
 21
36.45027767762018
 31
-1.5
  0
ARC
  5
34A
  8
MOSFET$TRACES
 10
-328.4490908240285
 20
36.80383106821351
 30
-1.5
 40
0.5
 50
315.0
 51
0.0000000000016284
  0
LINE
  5
34B
  8
MOSFET$TRACES
 10
-327.9490908240283
 20
36.80383106821351
 30
-1.5
 11
-327.9490908240283
 21
68.31631117207098
 31
-1.5
  0
ARC
  5
34C
  8
MOSFET$TRACES
 10
-328.4490908240285
 20
68.31631117207097
 30
-1.5
 40
0.5
 50
359.9999999999984
 51
45.0
  0
LINE
  5
34D
  8
MOSFET$TRACES
 10
-328.095537433435
 20
68.66986456266424
 30
-1.5
 11
-330.0896144204436
 21
70.66394154967273
 31
-1.5
  0
ARC
  5
34E
  8
MOSFET$TRACES
 10
-330.4431678110371
 20
70.31038815907947
 30
-1.5
 40
0.5
 50
45.00000000000115
 51
91.18693853959542
  0
ARC
  5
34F
  8
MOSFET$TRACES
 10
330.4700966660403
 20
71.61010922021838
 30
1.5
 40
0.8000000000000419
 50
268.8130614603867
 51
181.186938539595
210
0.0
220
0.0
230
-1.0
  0
ARC
  5
350
  8
MOSFET$TRACES
 10
-329.1703756049013
 20
71.58318036521528
 30
-1.5
 40
0.5
 50
178.813061460403
 51
225.0000000000023
  0
LINE
  5
351
  8
MOSFET$TRACES
 10
-329.5239289954944
 20
71.22962697462195
 30
-1.5
 11
-327.1490908240283
 21
68.85478880315596
 31
-1.5
  0
LINE
  5
352
  8
MOSFET$TRACES
 10
-327.1490908240283
 20
68.85478880315596
 30
-1.5
 11
-327.1490908240283
 21
36.26535343712845
 31
-1.5
  0
LINE
  5
353
  8
MOSFET$TRACES
 10
-327.1490908240283
 20
36.26535343712845
 30
-1.5
 11
-330.304411241091
 21
33.11003302006593
 31
-1.5
  0
LINE
  5
354
  8
MOSFET$TRACES
 10
-330.304411241091
 20
33.11003302006593
 30
-1.5
 11
-332.031944788091
 21
33.11003302006601
 31
-1.5
  0
ARC
  5
355
  8
MOSFET$TRACES
 10
-332.0319447880912
 20
32.61003302006598
 30
-1.5
 40
0.5
 50
90.0
 51
136.1869385395965
  0
ARC
  5
356
  8
MOSFET$TRACES
 10
332.9700279400558
 20
33.51003302006595
 30
1.5
 40
0.7999999999999812
 50
223.8130614603965
 51
0.0000000000005089
210
0.0
220
0.0
230
-1.0
  0
ARC
  5
357
  8
MOSFET$TRACES
 10
332.9700279400558
 20
33.51003302006602
 30
1.5
 40
0.8000000000000114
 50
359.9999999999959
 51
136.1869385396035
210
0.0
220
0.0
230
-1.0
  0
ARC
  5
358
  8
MOSFET$TRACES
 10
-332.0319447880912
 20
34.41003302006594
 30
-1.5
 40
0.5
 50
223.8130614604035
 51
270.0000000000065
  0
LINE
  5
359
  8
MOSFET$TRACES
 10
-332.0319447880909
 20
33.91003302006598
 30
-1.5
 11
-330.8428888721758
 21
33.91003302006598
 31
-1.5
  0
ARC
  5
35A
  8
MOSFET$TRACES
 10
-330.842888872176
 20
34.410033020066
 30
-1.5
 40
0.5
 50
270.0
 51
315.0000000000017
  0
LINE
  5
35B
  8
MOSFET$TRACES
 10
-335.9795884426633
 20
32.00526878760245
 30
-1.5
 11
-333.3505101856524
 21
29.37619053059141
 31
-1.5
  0
ARC
  5
35C
  8
MOSFET$TRACES
 10
-332.9969567950591
 20
29.72974392118469
 30
-1.5
 40
0.5
 50
224.9999999999997
 51
271.1869385395954
  0
ARC
  5
35D
  8
MOSFET$TRACES
 10
332.9700279400558
 20
28.43002286004577
 30
1.5
 40
0.7999999999999888
 50
88.81306146038666
 51
359.9999999999939
210
0.0
220
0.0
230
-1.0
  0
ARC
  5
35E
  8
MOSFET$TRACES
 10
332.970027941004
 20
28.43002286005615
 30
1.499999999991722
 40
0.7999999990518631
 50
359.9999999992511
 51
1.186938540259818
210
0.0
220
0.0
230
-1.0
  0
ARC
  5
35F
  8
MOSFET$TRACES
 10
-334.2697490011948
 20
28.45695171504893
 30
-1.5
 40
0.5
 50
358.8130614604054
 51
44.99999999999942
  0
LINE
  5
360
  8
MOSFET$TRACES
 10
-333.9161956106016
 20
28.81050510564213
 30
-1.5
 11
-336.9260350520701
 21
31.82034454711065
 31
-1.5
  0
LINE
  5
361
  8
MOSFET$TRACES
 10
-336.9260350520701
 20
31.82034454711065
 30
-1.5
 11
-336.9260350520701
 21
60.59977229312293
 31
-1.5
  0
LINE
  5
362
  8
MOSFET$TRACES
 10
-336.9260350520701
 20
60.59977229312293
 30
-1.5
 11
-333.1357133650051
 21
64.39009398018787
 31
-1.5
  0
LINE
  5
363
  8
MOSFET$TRACES
 10
-333.1357133650051
 20
64.39009398018787
 30
-1.5
 11
-331.4081798180049
 21
64.39009398018787
 31
-1.5
  0
ARC
  5
364
  8
MOSFET$TRACES
 10
-331.408179818005
 20
64.89009398018787
 30
-1.5
 40
0.5
 50
270.0
 51
316.1869385395982
  0
ARC
  5
365
  8
MOSFET$TRACES
 10
330.4700966660404
 20
63.99009398018789
 30
1.5
 40
0.7999999999999993
 50
43.81306146040372
 51
316.1869385396013
210
0.0
220
0.0
230
-1.0
  0
ARC
  5
366
  8
MOSFET$TRACES
 10
-331.408179818005
 20
63.09009398018792
 30
-1.5
 40
0.5
 50
43.81306146040922
 51
90.00000000000651
  0
LINE
  5
367
  8
MOSFET$TRACES
 10
-331.408179818005
 20
63.59009398018794
 30
-1.5
 11
-332.5972357339201
 21
63.59009398018794
 31
-1.5
  0
ARC
  5
368
  8
MOSFET$TRACES
 10
-332.5972357339201
 20
63.09009398018792
 30
-1.5
 40
0.5
 50
90.00000000000651
 51
134.9999999999949
  0
LINE
  5
369
  8
MOSFET$TRACES
 10
-332.9507891245134
 20
63.44364737078119
 30
-1.5
 11
-335.9795884426635
 21
60.41484805263122
 31
-1.5
  0
ARC
  5
36A
  8
MOSFET$TRACES
 10
-335.6260350520701
 20
60.06129466203798
 30
-1.5
 40
0.5
 50
135.0000000000006
 51
179.999999999991
  0
LINE
  5
36B
  8
MOSFET$TRACES
 10
-336.1260350520701
 20
60.06129466203803
 30
-1.5
 11
-336.1260350520701
 21
32.3588221781957
 31
-1.5
  0
ARC
  5
36C
  8
MOSFET$TRACES
 10
-335.6260350520701
 20
32.35882217819572
 30
-1.5
 40
0.5
 50
180.0
 51
225.0
  0
LINE
  5
36D
  8
MOSFET$TRACES
 10
-329.7273339575799
 20
26.43646438944206
 30
-1.5
 11
-324.0315293054191
 21
32.13226904160282
 31
-1.5
  0
ARC
  5
36E
  8
MOSFET$TRACES
 10
-324.3850826960124
 20
32.48582243219606
 30
-1.5
 40
0.5
 50
315.000000000011
 51
0.0000000000358258
  0
LINE
  5
36F
  8
MOSFET$TRACES
 10
-323.8850826960123
 20
32.48582243219632
 30
-1.5
 11
-323.8850826960123
 21
75.80932615810082
 31
-1.5
  0
ARC
  5
370
  8
MOSFET$TRACES
 10
-324.3850826960123
 20
75.80932615810103
 30
-1.5
 40
0.5
 50
359.9999999999886
 51
44.99999999999655
  0
LINE
  5
371
  8
MOSFET$TRACES
 10
-324.0315293054189
 20
76.16287954869412
 30
-1.5
 11
-328.9178343385806
 21
81.04918458185553
 31
-1.5
  0
ARC
  5
372
  8
MOSFET$TRACES
 10
-329.2713877291739
 20
80.69563119126234
 30
-1.5
 40
0.5
 50
45.00000000000115
 51
90.0
  0
LINE
  5
373
  8
MOSFET$TRACES
 10
-329.2713877291739
 20
81.19563119126228
 30
-1.5
 11
-330.5258033169022
 21
81.19563119126228
 31
-1.5
  0
ARC
  5
374
  8
MOSFET$TRACES
 10
-330.5258033169022
 20
80.69563119126234
 30
-1.5
 40
0.5
 50
90.0
 51
135.0
  0
LINE
  5
375
  8
MOSFET$TRACES
 10
-330.8793567074955
 20
81.04918458185553
 30
-1.5
 11
-331.5746533586402
 21
80.35388793071091
 31
-1.5
  0
ARC
  5
376
  8
MOSFET$TRACES
 10
-331.221099968047
 20
80.00033454011763
 30
-1.5
 40
0.5
 50
134.9999999999908
 51
179.999999999987
  0
LINE
  5
377
  8
MOSFET$TRACES
 10
-331.721099968047
 20
80.00033454011772
 30
-1.5
 11
-331.721099968047
 21
78.71391488838108
 31
-1.5
  0
ARC
  5
378
  8
MOSFET$TRACES
 10
-331.221099968047
 20
78.71391488838115
 30
-1.5
 40
0.5
 50
180.0000000000016
 51
225.0
  0
LINE
  5
379
  8
MOSFET$TRACES
 10
-331.5746533586402
 20
78.36036149778784
 30
-1.5
 11
-330.8505789116368
 21
77.63628705078438
 31
-1.5
  0
ARC
  5
37A
  8
MOSFET$TRACES
 10
-330.4970255210434
 20
77.98984044137767
 30
-1.5
 40
0.5
 50
224.9999999999977
 51
271.1869385395954
  0
ARC
  5
37B
  8
MOSFET$TRACES
 10
330.4700966660403
 20
76.69011938023873
 30
1.5
 40
0.7999999999999249
 50
88.81306146039877
 51
0.0000000000010178
210
0.0
220
0.0
230
-1.0
  0
ARC
  5
37C
  8
MOSFET$TRACES
 10
330.4700966648624
 20
76.69011938022707
 30
1.499999999997935
 40
0.8000000011779207
 50
0.0000000008305064
 51
1.186938538682886
210
0.0
220
0.0
230
-1.0
  0
ARC
  5
37D
  8
MOSFET$TRACES
 10
-331.7698177271791
 20
76.71704823524179
 30
-1.5
 40
0.5
 50
358.8130614604062
 51
45.00000000000576
  0
LINE
  5
37E
  8
MOSFET$TRACES
 10
-331.4162643365859
 20
77.0706016258351
 30
-1.5
 11
-332.5210999680469
 21
78.17543725729602
 31
-1.5
  0
LINE
  5
37F
  8
MOSFET$TRACES
 10
-332.5210999680469
 20
78.17543725729602
 30
-1.5
 11
-332.5210999680469
 21
80.53881217120265
 31
-1.5
  0
LINE
  5
380
  8
MOSFET$TRACES
 10
-332.5210999680469
 20
80.53881217120265
 30
-1.5
 11
-331.0642809479872
 21
81.99563119126229
 31
-1.5
  0
LINE
  5
381
  8
MOSFET$TRACES
 10
-331.0642809479872
 20
81.99563119126229
 30
-1.5
 11
-328.7329100980889
 21
81.99563119126229
 31
-1.5
  0
LINE
  5
382
  8
MOSFET$TRACES
 10
-328.7329100980889
 20
81.99563119126229
 30
-1.5
 11
-323.0850826960124
 21
76.34780378918587
 31
-1.5
  0
LINE
  5
383
  8
MOSFET$TRACES
 10
-323.0850826960124
 20
76.34780378918587
 30
-1.5
 11
-323.0850826960124
 21
31.94734480111108
 31
-1.5
  0
LINE
  5
384
  8
MOSFET$TRACES
 10
-323.0850826960124
 20
31.94734480111108
 30
-1.5
 11
-329.542409717088
 21
25.49001778003543
 31
-1.5
  0
LINE
  5
385
  8
MOSFET$TRACES
 10
-329.542409717088
 20
25.49001778003543
 30
-1.5
 11
-332.0319447880912
 21
25.49001778003543
 31
-1.5
  0
ARC
  5
386
  8
MOSFET$TRACES
 10
-332.0319447880912
 20
24.99001778003547
 30
-1.5
 40
0.5
 50
90.0
 51
136.1869385395977
  0
ARC
  5
387
  8
MOSFET$TRACES
 10
332.9700279400559
 20
25.89001778003557
 30
1.5
 40
0.8000000000001182
 50
223.8130614604008
 51
136.186938539609
210
0.0
220
0.0
230
-1.0
  0
ARC
  5
388
  8
MOSFET$TRACES
 10
-332.0319447880912
 20
26.79001778003543
 30
-1.5
 40
0.5
 50
223.8130614604027
 51
270.0
  0
LINE
  5
389
  8
MOSFET$TRACES
 10
-332.0319447880912
 20
26.29001778003538
 30
-1.5
 11
-330.080887348173
 21
26.29001778003544
 31
-1.5
  0
ARC
  5
38A
  8
MOSFET$TRACES
 10
-330.080887348173
 20
26.79001778003548
 30
-1.5
 40
0.5
 50
270.0
 51
314.9999999999812
  0
LINE
  5
38B
  8
MOSFET$TRACES
 10
-321.7260783780037
 20
27.53281252617625
 30
-1.5
 11
-321.7260783780037
 21
79.23833301611471
 31
-1.5
  0
ARC
  5
38C
  8
MOSFET$TRACES
 10
-322.2260783780037
 20
79.23833301611471
 30
-1.5
 40
0.5
 50
359.9999999999984
 51
44.99999999998042
  0
LINE
  5
38D
  8
MOSFET$TRACES
 10
-321.8725249874104
 20
79.59188640670784
 30
-1.5
 11
-325.7903260835639
 21
83.5096875028613
 31
-1.5
  0
ARC
  5
38E
  8
MOSFET$TRACES
 10
-326.1438794741572
 20
83.15613411226813
 30
-1.5
 40
0.5
 50
44.99999999998158
 51
89.99999999998697
  0
LINE
  5
38F
  8
MOSFET$TRACES
 10
-326.1438794741572
 20
83.65613411226813
 30
-1.5
 11
-330.6053054759063
 21
83.6561341122682
 31
-1.5
  0
ARC
  5
390
  8
MOSFET$TRACES
 10
-330.6053054759065
 20
83.15613411226819
 30
-1.5
 40
0.5
 50
89.99999999997394
 51
135.0000000000011
  0
LINE
  5
391
  8
MOSFET$TRACES
 10
-330.9588588664998
 20
83.50968750286142
 30
-1.5
 11
-333.7336576766488
 21
80.7348886927125
 31
-1.5
  0
ARC
  5
392
  8
MOSFET$TRACES
 10
-333.3801042860555
 20
80.38133530211927
 30
-1.5
 40
0.5
 50
135.0
 51
180.0
  0
LINE
  5
393
  8
MOSFET$TRACES
 10
-333.8801042860555
 20
80.38133530211924
 30
-1.5
 11
-333.8801042860555
 21
78.33291412637955
 31
-1.5
  0
ARC
  5
394
  8
MOSFET$TRACES
 10
-333.3801042860555
 20
78.33291412637958
 30
-1.5
 40
0.5
 50
180.0000000000016
 51
225.0000000000012
  0
LINE
  5
395
  8
MOSFET$TRACES
 10
-333.7336576766488
 20
77.97936073578629
 30
-1.5
 11
-330.8505789116367
 21
75.09628197077423
 31
-1.5
  0
ARC
  5
396
  8
MOSFET$TRACES
 10
-330.4970255210434
 20
75.44983536136753
 30
-1.5
 40
0.5
 50
225.0
 51
271.1869385395954
  0
ARC
  5
397
  8
MOSFET$TRACES
 10
330.4700966660403
 20
74.15011430022852
 30
1.5
 40
0.8000000000000219
 50
88.81306146040706
 51
1.186938539602101
210
0.0
220
0.0
230
-1.0
  0
ARC
  5
398
  8
MOSFET$TRACES
 10
-331.7698177271791
 20
74.17704315523177
 30
-1.5
 40
0.5
 50
358.8130614604046
 51
45.0
  0
LINE
  5
399
  8
MOSFET$TRACES
 10
-331.4162643365862
 20
74.53059654582509
 30
-1.5
 11
-334.6801042860557
 21
77.79443649529458
 31
-1.5
  0
LINE
  5
39A
  8
MOSFET$TRACES
 10
-334.6801042860557
 20
77.79443649529458
 30
-1.5
 11
-334.6801042860557
 21
80.91981293320428
 31
-1.5
  0
LINE
  5
39B
  8
MOSFET$TRACES
 10
-334.6801042860557
 20
80.91981293320428
 30
-1.5
 11
-331.1437831069917
 21
84.45613411226822
 31
-1.5
  0
LINE
  5
39C
  8
MOSFET$TRACES
 10
-331.1437831069917
 20
84.45613411226822
 30
-1.5
 11
-325.6054018430725
 21
84.45613411226822
 31
-1.5
  0
LINE
  5
39D
  8
MOSFET$TRACES
 10
-325.6054018430725
 20
84.45613411226822
 30
-1.5
 11
-320.926078378004
 21
79.77681064719972
 31
-1.5
  0
LINE
  5
39E
  8
MOSFET$TRACES
 10
-320.926078378004
 20
79.77681064719972
 30
-1.5
 11
-320.926078378004
 21
26.99433489509133
 31
-1.5
  0
LINE
  5
39F
  8
MOSFET$TRACES
 10
-320.926078378004
 20
26.99433489509133
 30
-1.5
 11
-327.5104056530802
 21
20.41000762001526
 31
-1.5
  0
LINE
  5
3A0
  8
MOSFET$TRACES
 10
-327.5104056530802
 20
20.41000762001526
 30
-1.5
 11
-332.0319447880913
 21
20.41000762001526
 31
-1.5
  0
ARC
  5
3A1
  8
MOSFET$TRACES
 10
-332.0319447880912
 20
19.91000762001521
 30
-1.5
 40
0.5
 50
90.0
 51
136.1869385395962
  0
ARC
  5
3A2
  8
MOSFET$TRACES
 10
332.9700279400559
 20
20.81000762001543
 30
1.5
 40
0.8000000000000943
 50
223.8130614604049
 51
359.9999999999883
210
0.0
220
0.0
230
-1.0
  0
ARC
  5
3A3
  8
MOSFET$TRACES
 10
332.970027940056
 20
20.81000762001534
 30
1.5
 40
0.7999999999998977
 50
359.9999999999886
 51
136.1869385396096
210
0.0
220
0.0
230
-1.0
  0
ARC
  5
3A4
  8
MOSFET$TRACES
 10
-332.0319447880912
 20
21.71000762001516
 30
-1.5
 40
0.5
 50
223.8130614604023
 51
269.9999999999935
  0
LINE
  5
3A5
  8
MOSFET$TRACES
 10
-332.0319447880912
 20
21.2100076200152
 30
-1.5
 11
-328.0488832841648
 21
21.2100076200152
 31
-1.5
  0
ARC
  5
3A6
  8
MOSFET$TRACES
 10
-328.0488832841649
 20
21.71000762001522
 30
-1.5
 40
0.5
 50
270.0
 51
314.9999999999807
  0
LINE
  5
3A7
  8
MOSFET$TRACES
 10
-327.6953298935717
 20
21.35645422942179
 30
-1.5
 11
-321.8725249874104
 21
27.17925913558312
 31
-1.5
  0
ARC
  5
3A8
  8
MOSFET$TRACES
 10
-322.2260783780037
 20
27.53281252617641
 30
-1.5
 40
0.5
 50
315.0
 51
359.999999999978
  0
LINE
  5
3A9
  8
MOSFET$TRACES
 10
-335.8992423379336
 20
16.12999745999491
 30
-1.5
 11
-333.9081110920207
 21
16.12999745999491
 31
-1.5
  0
ARC
  5
3AA
  8
MOSFET$TRACES
 10
-333.9081110920206
 20
16.62999745999478
 30
-1.5
 40
0.5
 50
270.0
 51
316.1869385395964
  0
ARC
  5
3AB
  8
MOSFET$TRACES
 10
332.970027940056
 20
15.72999745999478
 30
1.5
 40
0.8000000000000611
 50
43.81306146040245
 51
316.1869385396103
210
0.0
220
0.0
230
-1.0
  0
ARC
  5
3AC
  8
MOSFET$TRACES
 10
-333.9081110920206
 20
14.82999745999483
 30
-1.5
 40
0.5
 50
43.81306146040325
 51
89.99999999999349
  0
LINE
  5
3AD
  8
MOSFET$TRACES
 10
-333.9081110920207
 20
15.3299974599948
 30
-1.5
 11
-336.4377199690185
 21
15.3299974599948
 31
-1.5
  0
LINE
  5
3AE
  8
MOSFET$TRACES
 10
-336.4377199690185
 20
15.3299974599948
 30
-1.5
 11
-341.1170434340871
 21
20.00932092506339
 31
-1.5
  0
LINE
  5
3AF
  8
MOSFET$TRACES
 10
-341.1170434340871
 20
20.00932092506339
 30
-1.5
 11
-341.1170434340871
 21
61.48877407112641
 31
-1.5
  0
LINE
  5
3B0
  8
MOSFET$TRACES
 10
-341.1170434340871
 20
61.48877407112641
 30
-1.5
 11
-333.1357133650052
 21
69.47010414020822
 31
-1.5
  0
LINE
  5
3B1
  8
MOSFET$TRACES
 10
-333.1357133650052
 20
69.47010414020822
 30
-1.5
 11
-331.4081798180051
 21
69.47010414020822
 31
-1.5
  0
ARC
  5
3B2
  8
MOSFET$TRACES
 10
-331.408179818005
 20
69.97010414020825
 30
-1.5
 40
0.5
 50
269.9999999999935
 51
316.1869385395822
  0
ARC
  5
3B3
  8
MOSFET$TRACES
 10
330.4700966660403
 20
69.07010414020829
 30
1.5
 40
0.7999999999999353
 50
43.81306146039893
 51
316.1869385396061
210
0.0
220
0.0
230
-1.0
  0
ARC
  5
3B4
  8
MOSFET$TRACES
 10
-331.408179818005
 20
68.1701041402083
 30
-1.5
 40
0.5
 50
43.81306146040178
 51
90.00000000000651
  0
LINE
  5
3B5
  8
MOSFET$TRACES
 10
-331.408179818005
 20
68.67010414020837
 30
-1.5
 11
-332.5972357339203
 21
68.67010414020837
 31
-1.5
  0
ARC
  5
3B6
  8
MOSFET$TRACES
 10
-332.5972357339201
 20
68.1701041402083
 30
-1.5
 40
0.5
 50
90.00000000001303
 51
135.0000000000092
  0
LINE
  5
3B7
  8
MOSFET$TRACES
 10
-332.9507891245135
 20
68.52365753080164
 30
-1.5
 11
-340.1705968246803
 21
61.30384983063467
 31
-1.5
  0
ARC
  5
3B8
  8
MOSFET$TRACES
 10
-339.817043434087
 20
60.95029644004147
 30
-1.5
 40
0.5
 50
135.0000000000029
 51
180.0000000000016
  0
LINE
  5
3B9
  8
MOSFET$TRACES
 10
-340.3170434340871
 20
60.95029644004147
 30
-1.5
 11
-340.3170434340871
 21
20.3406917749619
 31
-1.5
  0
LINE
  5
3BA
  8
MOSFET$TRACES
 10
-340.3170434340871
 20
20.3406917749619
 30
-1.5
 11
-336.2527957285268
 21
16.27644406940162
 31
-1.5
  0
ARC
  5
3BB
  8
MOSFET$TRACES
 10
-335.8992423379335
 20
16.62999745999484
 30
-1.5
 40
0.5
 50
224.9999999999986
 51
270.0
  0
ARC
  5
3BC
  8
MOSFET$TRACES
 10
-332.1393655537011
 20
50.29006858019009
 30
-1.5
 40
0.5
 50
89.99999999928349
 51
129.7151372354411
  0
ARC
  5
3BD
  8
MOSFET$TRACES
 10
332.9700279400559
 20
51.29006858013769
 30
1.5
 40
0.8000000000000049
 50
230.2848627645597
 51
129.7151372318312
210
0.0
220
0.0
230
-1.0
  0
ARC
  5
3BE
  8
MOSFET$TRACES
 10
-332.1393655537641
 20
52.29006858013769
 30
-1.5
 40
0.5
 50
230.2848627681673
 51
269.999999999974
  0
LINE
  5
3BF
  8
MOSFET$TRACES
 10
-332.1393655537643
 20
51.79006858013769
 30
-1.5
 11
-330.6306623863231
 21
51.79006858012825
 31
-1.5
  0
ARC
  5
3C0
  8
MOSFET$TRACES
 10
-330.6306623863367
 20
52.29006858012825
 30
-1.5
 40
0.5
 50
270.0000000015633
 51
309.7151372316617
  0
ARC
  5
3C1
  8
MOSFET$TRACES
 10
329.8000000000043
 20
51.29006858015633
 30
1.5
 40
0.8000000000042734
 50
50.28486276454811
 51
309.7151372320056
210
0.0
220
0.0
230
-1.0
  0
ARC
  5
3C2
  8
MOSFET$TRACES
 10
-330.630662386302
 20
50.29006858015565
 30
-1.5
 40
0.5
 50
50.28486276798976
 51
89.99999999928349
  0
LINE
  5
3C3
  8
MOSFET$TRACES
 10
-330.6306623862958
 20
50.79006858015565
 30
-1.5
 11
-332.1393655536947
 21
50.79006858019009
 31
-1.5
  0
ARC
  5
3C4
  8
MOSFET$TRACES
 10
-332.1393655537011
 20
47.75006350017985
 30
-1.5
 40
0.5
 50
89.99999999928349
 51
129.7151372354411
  0
ARC
  5
3C5
  8
MOSFET$TRACES
 10
332.9700279400559
 20
48.75006350012744
 30
1.5
 40
0.8000000000000049
 50
230.2848627645597
 51
129.7151372318312
210
0.0
220
0.0
230
-1.0
  0
ARC
  5
3C6
  8
MOSFET$TRACES
 10
-332.1393655537641
 20
49.75006350012744
 30
-1.5
 40
0.5
 50
230.2848627681673
 51
269.999999999974
  0
LINE
  5
3C7
  8
MOSFET$TRACES
 10
-332.1393655537643
 20
49.25006350012744
 30
-1.5
 11
-330.6306623863231
 21
49.250063500118
 31
-1.5
  0
ARC
  5
3C8
  8
MOSFET$TRACES
 10
-330.6306623863367
 20
49.750063500118
 30
-1.5
 40
0.5
 50
270.0000000015633
 51
309.7151372316617
  0
ARC
  5
3C9
  8
MOSFET$TRACES
 10
329.8000000000043
 20
48.75006350014608
 30
1.5
 40
0.8000000000042734
 50
50.28486276454811
 51
309.7151372320056
210
0.0
220
0.0
230
-1.0
  0
ARC
  5
3CA
  8
MOSFET$TRACES
 10
-330.630662386302
 20
47.7500635001454
 30
-1.5
 40
0.5
 50
50.28486276798976
 51
89.99999999928349
  0
LINE
  5
3CB
  8
MOSFET$TRACES
 10
-330.6306623862958
 20
48.2500635001454
 30
-1.5
 11
-332.1393655536947
 21
48.25006350017985
 31
-1.5
  0
ARC
  5
3CC
  8
MOSFET$TRACES
 10
-332.139365553701
 20
45.2100584201696
 30
-1.5
 40
0.5
 50
89.99999999928349
 51
129.7151372354411
  0
ARC
  5
3CD
  8
MOSFET$TRACES
 10
332.9700279400559
 20
46.21005842011719
 30
1.5
 40
0.8000000000000049
 50
230.2848627645597
 51
129.7151372318312
210
0.0
220
0.0
230
-1.0
  0
ARC
  5
3CE
  8
MOSFET$TRACES
 10
-332.1393655537641
 20
47.21005842011719
 30
-1.5
 40
0.5
 50
230.2848627681673
 51
269.999999999974
  0
LINE
  5
3CF
  8
MOSFET$TRACES
 10
-332.1393655537643
 20
46.71005842011719
 30
-1.5
 11
-330.6306623863231
 21
46.71005842010776
 31
-1.5
  0
ARC
  5
3D0
  8
MOSFET$TRACES
 10
-330.6306623863367
 20
47.21005842010776
 30
-1.5
 40
0.5
 50
270.0000000015633
 51
309.7151372316617
  0
ARC
  5
3D1
  8
MOSFET$TRACES
 10
329.8000000000043
 20
46.21005842013584
 30
1.5
 40
0.8000000000042734
 50
50.28486276454811
 51
309.7151372320056
210
0.0
220
0.0
230
-1.0
  0
ARC
  5
3D2
  8
MOSFET$TRACES
 10
-330.630662386302
 20
45.21005842013516
 30
-1.5
 40
0.5
 50
50.28486276798976
 51
89.99999999928349
  0
LINE
  5
3D3
  8
MOSFET$TRACES
 10
-330.6306623862958
 20
45.71005842013516
 30
-1.5
 11
-332.1393655536947
 21
45.7100584201696
 31
-1.5
  0
ARC
  5
3D4
  8
MOSFET$TRACES
 10
-332.139365553701
 20
40.13004826014911
 30
-1.5
 40
0.5
 50
89.99999999928349
 51
129.7151372354411
  0
ARC
  5
3D5
  8
MOSFET$TRACES
 10
332.9700279400559
 20
41.1300482600967
 30
1.5
 40
0.8000000000000049
 50
230.2848627645597
 51
129.7151372318312
210
0.0
220
0.0
230
-1.0
  0
ARC
  5
3D6
  8
MOSFET$TRACES
 10
-332.139365553764
 20
42.1300482600967
 30
-1.5
 40
0.5
 50
230.2848627681673
 51
269.999999999974
  0
LINE
  5
3D7
  8
MOSFET$TRACES
 10
-332.1393655537643
 20
41.6300482600967
 30
-1.5
 11
-330.6306623863231
 21
41.63004826008726
 31
-1.5
  0
ARC
  5
3D8
  8
MOSFET$TRACES
 10
-330.6306623863367
 20
42.13004826008726
 30
-1.5
 40
0.5
 50
270.0000000015633
 51
309.7151372316617
  0
ARC
  5
3D9
  8
MOSFET$TRACES
 10
329.8000000000043
 20
41.13004826011534
 30
1.5
 40
0.8000000000042734
 50
50.28486276454811
 51
309.7151372320056
210
0.0
220
0.0
230
-1.0
  0
ARC
  5
3DA
  8
MOSFET$TRACES
 10
-330.630662386302
 20
40.13004826011466
 30
-1.5
 40
0.5
 50
50.28486276798976
 51
89.99999999928349
  0
LINE
  5
3DB
  8
MOSFET$TRACES
 10
-330.6306623862958
 20
40.63004826011466
 30
-1.5
 11
-332.1393655536947
 21
40.63004826014911
 31
-1.5
  0
ARC
  5
3DC
  8
MOSFET$TRACES
 10
-332.139365553701
 20
12.18999238003697
 30
-1.5
 40
0.5
 50
89.99999999928349
 51
129.7151372354413
  0
ARC
  5
3DD
  8
MOSFET$TRACES
 10
332.9700279400559
 20
13.18999237998456
 30
1.5
 40
0.8000000000000049
 50
230.2848627645596
 51
129.7151372318312
210
0.0
220
0.0
230
-1.0
  0
ARC
  5
3DE
  8
MOSFET$TRACES
 10
-332.139365553764
 20
14.18999237998456
 30
-1.5
 40
0.5
 50
230.2848627681672
 51
269.999999999974
  0
LINE
  5
3DF
  8
MOSFET$TRACES
 10
-332.1393655537643
 20
13.68999237998456
 30
-1.5
 11
-330.6306623863231
 21
13.68999237995978
 31
-1.5
  0
ARC
  5
3E0
  8
MOSFET$TRACES
 10
-330.6306623863366
 20
14.18999237995978
 30
-1.5
 40
0.5
 50
270.0000000015633
 51
309.7151372316617
  0
ARC
  5
3E1
  8
MOSFET$TRACES
 10
329.8000000000043
 20
13.18999237998786
 30
1.5
 40
0.8000000000042734
 50
50.28486276454811
 51
309.7151372320058
210
0.0
220
0.0
230
-1.0
  0
ARC
  5
3E2
  8
MOSFET$TRACES
 10
-330.6306623863019
 20
12.18999237998717
 30
-1.5
 40
0.5
 50
50.28486276798989
 51
89.99999999928349
  0
LINE
  5
3E3
  8
MOSFET$TRACES
 10
-330.6306623862957
 20
12.68999237998717
 30
-1.5
 11
-332.1393655536947
 21
12.68999238003697
 31
-1.5
  0
ARC
  5
3E4
  8
MOSFET$TRACES
 10
-332.139365553701
 20
9.649987300026723
 30
-1.5
 40
0.5
 50
89.99999999928349
 51
129.7151372354413
  0
ARC
  5
3E5
  8
MOSFET$TRACES
 10
332.9700279400559
 20
10.64998729997431
 30
1.5
 40
0.8000000000000049
 50
230.2848627645596
 51
129.7151372318312
210
0.0
220
0.0
230
-1.0
  0
ARC
  5
3E6
  8
MOSFET$TRACES
 10
-332.139365553764
 20
11.64998729997431
 30
-1.5
 40
0.5
 50
230.2848627681672
 51
269.999999999974
  0
LINE
  5
3E7
  8
MOSFET$TRACES
 10
-332.1393655537643
 20
11.14998729997431
 30
-1.5
 11
-330.6306623863231
 21
11.14998729994953
 31
-1.5
  0
ARC
  5
3E8
  8
MOSFET$TRACES
 10
-330.6306623863366
 20
11.64998729994953
 30
-1.5
 40
0.5
 50
270.0000000015633
 51
309.7151372316617
  0
ARC
  5
3E9
  8
MOSFET$TRACES
 10
329.8000000000043
 20
10.64998729997761
 30
1.5
 40
0.8000000000042734
 50
50.28486276454811
 51
309.7151372320058
210
0.0
220
0.0
230
-1.0
  0
ARC
  5
3EA
  8
MOSFET$TRACES
 10
-330.6306623863019
 20
9.649987299976928
 30
-1.5
 40
0.5
 50
50.28486276798989
 51
89.99999999928349
  0
LINE
  5
3EB
  8
MOSFET$TRACES
 10
-330.6306623862957
 20
10.14998729997693
 30
-1.5
 11
-332.1393655536947
 21
10.14998730002672
 31
-1.5
  0
ARC
  5
3EC
  8
MOSFET$TRACES
 10
-332.139365553701
 20
37.59004318013886
 30
-1.5
 40
0.5
 50
89.99999999928349
 51
129.7151372354411
  0
ARC
  5
3ED
  8
MOSFET$TRACES
 10
332.9700279400559
 20
38.59004318008645
 30
1.5
 40
0.8000000000000049
 50
230.2848627645597
 51
129.7151372318312
210
0.0
220
0.0
230
-1.0
  0
ARC
  5
3EE
  8
MOSFET$TRACES
 10
-332.139365553764
 20
39.59004318008645
 30
-1.5
 40
0.5
 50
230.2848627681673
 51
269.999999999974
  0
LINE
  5
3EF
  8
MOSFET$TRACES
 10
-332.1393655537643
 20
39.09004318008645
 30
-1.5
 11
-330.6306623863231
 21
39.09004318007702
 31
-1.5
  0
ARC
  5
3F0
  8
MOSFET$TRACES
 10
-330.6306623863367
 20
39.59004318007702
 30
-1.5
 40
0.5
 50
270.0000000015633
 51
309.7151372316617
  0
ARC
  5
3F1
  8
MOSFET$TRACES
 10
329.8000000000043
 20
38.5900431801051
 30
1.5
 40
0.8000000000042734
 50
50.28486276454811
 51
309.7151372320056
210
0.0
220
0.0
230
-1.0
  0
ARC
  5
3F2
  8
MOSFET$TRACES
 10
-330.630662386302
 20
37.59004318010442
 30
-1.5
 40
0.5
 50
50.28486276798976
 51
89.99999999928349
  0
LINE
  5
3F3
  8
MOSFET$TRACES
 10
-330.6306623862958
 20
38.09004318010442
 30
-1.5
 11
-332.1393655536947
 21
38.09004318013886
 31
-1.5
  0
ARC
  5
3F4
  8
MOSFET$TRACES
 10
-332.139365553701
 20
42.67005334015936
 30
-1.5
 40
0.5
 50
89.99999999928349
 51
129.7151372354411
  0
ARC
  5
3F5
  8
MOSFET$TRACES
 10
332.9700279400559
 20
43.67005334010695
 30
1.5
 40
0.8000000000000049
 50
230.2848627645597
 51
129.7151372318312
210
0.0
220
0.0
230
-1.0
  0
ARC
  5
3F6
  8
MOSFET$TRACES
 10
-332.1393655537641
 20
44.67005334010695
 30
-1.5
 40
0.5
 50
230.2848627681673
 51
269.999999999974
  0
LINE
  5
3F7
  8
MOSFET$TRACES
 10
-332.1393655537643
 20
44.17005334010695
 30
-1.5
 11
-330.6306623863231
 21
44.17005334009751
 31
-1.5
  0
ARC
  5
3F8
  8
MOSFET$TRACES
 10
-330.6306623863367
 20
44.67005334009751
 30
-1.5
 40
0.5
 50
270.0000000015633
 51
309.7151372316617
  0
ARC
  5
3F9
  8
MOSFET$TRACES
 10
329.8000000000043
 20
43.67005334012559
 30
1.5
 40
0.8000000000042734
 50
50.28486276454811
 51
309.7151372320056
210
0.0
220
0.0
230
-1.0
  0
ARC
  5
3FA
  8
MOSFET$TRACES
 10
-330.630662386302
 20
42.67005334012491
 30
-1.5
 40
0.5
 50
50.28486276798976
 51
89.99999999928349
  0
LINE
  5
3FB
  8
MOSFET$TRACES
 10
-330.6306623862958
 20
43.17005334012491
 30
-1.5
 11
-332.1393655536947
 21
43.17005334015936
 31
-1.5
  0
ARC
  5
3FC
  8
MOSFET$TRACES
 10
-329.6707106781147
 20
36.32074877819899
 30
-1.5
 40
0.5
 50
315.0
 51
64.47122063313742
  0
ARC
  5
3FD
  8
MOSFET$TRACES
 10
-329.8000000000043
 20
36.0500381000795
 30
-1.5
 40
0.8000000000042734
 50
64.47122063313313
 51
129.7151372354519
  0
ARC
  5
3FE
  8
MOSFET$TRACES
 10
330.6306623863366
 20
37.05003810005142
 30
1.5
 40
0.5
 50
230.2848627683383
 51
269.9999999984367
210
0.0
220
0.0
230
-1.0
  0
LINE
  5
3FF
  8
MOSFET$TRACES
 10
-330.6306623863231
 20
36.55003810005142
 30
-1.5
 11
-332.1393655537643
 21
36.55003810007621
 31
-1.5
  0
ARC
  5
400
  8
MOSFET$TRACES
 10
332.139365553764
 20
37.05003810007621
 30
1.5
 40
0.5
 50
270.000000000026
 51
309.7151372318327
210
0.0
220
0.0
230
-1.0
  0
ARC
  5
401
  8
MOSFET$TRACES
 10
-332.9700279400559
 20
36.05003810007621
 30
-1.5
 40
0.8000000000000049
 50
50.28486276816875
 51
309.7151372354403
  0
ARC
  5
402
  8
MOSFET$TRACES
 10
332.139365553701
 20
35.05003810012862
 30
1.5
 40
0.5
 50
50.28486276455888
 51
90.00000000071651
210
0.0
220
0.0
230
-1.0
  0
LINE
  5
403
  8
MOSFET$TRACES
 10
-332.1393655536947
 20
35.55003810012862
 30
-1.5
 11
-330.6306623862957
 21
35.55003810007882
 31
-1.5
  0
ARC
  5
404
  8
MOSFET$TRACES
 10
330.6306623863019
 20
35.05003810007882
 30
1.5
 40
0.5
 50
90.00000000071651
 51
122.3062508093218
210
0.0
220
0.0
230
-1.0
  0
ARC
  5
405
  8
MOSFET$TRACES
 10
-330.0962178243901
 20
35.89524163192355
 30
-1.5
 40
0.5
 50
237.6937491906837
 51
315.0
  0
LINE
  5
406
  8
MOSFET$TRACES
 10
-329.7426644337968
 20
35.54168824133033
 30
-1.5
 11
-329.3171572875214
 21
35.96719538760566
 31
-1.5
  0
CIRCLE
  5
407
  8
MOSFET$TRACES
 10
355.449072898146
 20
68.21310642621278
 30
1.5
 40
0.8000000000000081
210
0.0
220
0.0
230
-1.0
  0
ARC
  5
408
  8
MOSFET$TRACES
 10
-355.4490728981459
 20
70.75311150622302
 30
-1.5
 40
0.8000000000000081
 50
154.4712410789856
 51
295.5287589210231
  0
ARC
  5
409
  8
MOSFET$TRACES
 10
-355.3197836728605
 20
70.4824007819709
 30
-1.5
 40
0.5
 50
295.528758921023
 51
45.00000000000115
  0
LINE
  5
40A
  8
MOSFET$TRACES
 10
-354.9662302822672
 20
70.83595417256412
 30
-1.5
 11
-355.3662302318048
 21
71.23595412210163
 31
-1.5
  0
ARC
  5
40B
  8
MOSFET$TRACES
 10
-355.719783622398
 20
70.88240073150835
 30
-1.5
 40
0.5
 50
45.00000000000115
 51
154.4712410789872
  0
ENDSEC
  0
EOF
