  0
SECTION
  2
HEADER
  9
$ACADVER
  1
AC1009
  9
$DWGCODEPAGE
  3
ansi_1252
  9
$INSBASE
 10
0.0
 20
0.0
 30
0.0
  9
$EXTMIN
 10
-89.95724893578199
 20
-0.0000000000001041
 30
0.0
  9
$EXTMAX
 10
-0.309369590777564
 20
95.00000000000003
 30
0.169538958595407
  9
$LIMMIN
 10
0.0
 20
0.0
  9
$LIMMAX
 10
12.0
 20
9.0
  9
$ORTHOMODE
 70
     0
  9
$REGENMODE
 70
     1
  9
$FILLMODE
 70
     1
  9
$QTEXTMODE
 70
     0
  9
$MIRRTEXT
 70
     1
  9
$DRAGMODE
 70
     2
  9
$LTSCALE
 40
1.0
  9
$OSMODE
 70
    37
  9
$ATTMODE
 70
     1
  9
$TEXTSIZE
 40
0.2
  9
$TRACEWID
 40
0.05
  9
$TEXTSTYLE
  7
STANDARD
  9
$CLAYER
  8
DEFAULT
  9
$CELTYPE
  6
BYLAYER
  9
$CECOLOR
 62
   256
  9
$DIMSCALE
 40
1.0
  9
$DIMASZ
 40
0.18
  9
$DIMEXO
 40
0.0625
  9
$DIMDLI
 40
0.38
  9
$DIMRND
 40
0.0
  9
$DIMDLE
 40
0.0
  9
$DIMEXE
 40
0.18
  9
$DIMTP
 40
0.0
  9
$DIMTM
 40
0.0
  9
$DIMTXT
 40
0.18
  9
$DIMCEN
 40
0.09
  9
$DIMTSZ
 40
0.0
  9
$DIMTOL
 70
     0
  9
$DIMLIM
 70
     0
  9
$DIMTIH
 70
     1
  9
$DIMTOH
 70
     1
  9
$DIMSE1
 70
     0
  9
$DIMSE2
 70
     0
  9
$DIMTAD
 70
     0
  9
$DIMZIN
 70
     0
  9
$DIMBLK
  1

  9
$DIMASO
 70
     1
  9
$DIMSHO
 70
     1
  9
$DIMPOST
  1

  9
$DIMAPOST
  1

  9
$DIMALT
 70
     0
  9
$DIMALTD
 70
     2
  9
$DIMALTF
 40
25.4
  9
$DIMLFAC
 40
1.0
  9
$DIMTOFL
 70
     0
  9
$DIMTVP
 40
0.0
  9
$DIMTIX
 70
     0
  9
$DIMSOXD
 70
     0
  9
$DIMSAH
 70
     0
  9
$DIMBLK1
  1

  9
$DIMBLK2
  1

  9
$DIMSTYLE
  2
STANDARD_ACAD
  9
$DIMCLRD
 70
     0
  9
$DIMCLRE
 70
     0
  9
$DIMCLRT
 70
     0
  9
$DIMTFAC
 40
1.0
  9
$DIMGAP
 40
0.09
  9
$LUNITS
 70
     2
  9
$LUPREC
 70
     3
  9
$SKETCHINC
 40
0.1
  9
$FILLETRAD
 40
0.0
  9
$AUNITS
 70
     0
  9
$AUPREC
 70
     0
  9
$MENU
  1
.
  9
$ELEVATION
 40
0.0
  9
$PELEVATION
 40
0.0
  9
$THICKNESS
 40
0.0
  9
$LIMCHECK
 70
     0
  9
$CHAMFERA
 40
0.0
  9
$CHAMFERB
 40
0.0
  9
$SKPOLY
 70
     0
  9
$TDCREATE
 40
2460559.785874016
  9
$TDUPDATE
 40
2460559.785886157
  9
$TDINDWG
 40
0.0000000116
  9
$TDUSRTIMER
 40
0.0000000116
  9
$USRTIMER
 70
     1
  9
$ANGBASE
 50
0.0
  9
$ANGDIR
 70
     0
  9
$PDMODE
 70
     0
  9
$PDSIZE
 40
0.0
  9
$PLINEWID
 40
0.0
  9
$COORDS
 70
     1
  9
$SPLFRAME
 70
     0
  9
$SPLINETYPE
 70
     6
  9
$SPLINESEGS
 70
     8
  9
$ATTDIA
 70
     0
  9
$ATTREQ
 70
     1
  9
$HANDLING
 70
     1
  9
$HANDSEED
  5
BA
  9
$SURFTAB1
 70
     6
  9
$SURFTAB2
 70
     6
  9
$SURFTYPE
 70
     6
  9
$SURFU
 70
     6
  9
$SURFV
 70
     6
  9
$UCSNAME
  2

  9
$UCSORG
 10
0.0
 20
0.0
 30
0.0
  9
$UCSXDIR
 10
1.0
 20
0.0
 30
0.0
  9
$UCSYDIR
 10
0.0
 20
1.0
 30
0.0
  9
$PUCSNAME
  2

  9
$PUCSORG
 10
0.0
 20
0.0
 30
0.0
  9
$PUCSXDIR
 10
1.0
 20
0.0
 30
0.0
  9
$PUCSYDIR
 10
0.0
 20
1.0
 30
0.0
  9
$USERI1
 70
     0
  9
$USERI2
 70
     0
  9
$USERI3
 70
     0
  9
$USERI4
 70
     0
  9
$USERI5
 70
     0
  9
$USERR1
 40
0.0
  9
$USERR2
 40
0.0
  9
$USERR3
 40
0.0
  9
$USERR4
 40
0.0
  9
$USERR5
 40
0.0
  9
$WORLDVIEW
 70
     1
  9
$SHADEDGE
 70
     3
  9
$SHADEDIF
 70
    70
  9
$TILEMODE
 70
     1
  9
$MAXACTVP
 70
    64
  9
$PLIMCHECK
 70
     0
  9
$PEXTMIN
 10
1.000000000000000E+20
 20
1.000000000000000E+20
 30
1.000000000000000E+20
  9
$PEXTMAX
 10
-1.000000000000000E+20
 20
-1.000000000000000E+20
 30
-1.000000000000000E+20
  9
$PLIMMIN
 10
0.0
 20
0.0
  9
$PLIMMAX
 10
12.0
 20
9.0
  9
$UNITMODE
 70
     0
  9
$VISRETAIN
 70
     1
  9
$PLINEGEN
 70
     0
  9
$PSLTSCALE
 70
     1
  0
ENDSEC
  0
SECTION
  2
TABLES
  0
TABLE
  2
VPORT
 70
     1
  0
VPORT
  2
*ACTIVE
 70
     0
 10
0.0
 20
0.0
 11
1.0
 21
1.0
 12
10.42990654205607
 22
4.5
 13
0.0
 23
0.0
 14
0.5
 24
0.5
 15
0.5
 25
0.5
 16
0.0
 26
0.0
 36
1.0
 17
0.0
 27
0.0
 37
0.0
 40
9.0
 41
1.972972972850329
 42
50.0
 43
0.0
 44
0.0
 50
0.0
 51
0.0
 71
     0
 72
   100
 73
     1
 74
     3
 75
     0
 76
     0
 77
     0
 78
     0
  0
ENDTAB
  0
TABLE
  2
LTYPE
 70
     1
  0
LTYPE
  2
CONTINUOUS
 70
     0
  3
Solid line
 72
    65
 73
     0
 40
0.0
  0
ENDTAB
  0
TABLE
  2
LAYER
 70
     4
  0
LAYER
  2
0
 70
     0
 62
     7
  6
CONTINUOUS
  0
LAYER
  2
MOSFET$MASK
 70
     0
 62
     7
  6
CONTINUOUS
  0
LAYER
  2
DEFAULT
 70
     0
 62
     7
  6
CONTINUOUS
  0
LAYER
  2
MOSFET
 70
     0
 62
     7
  6
CONTINUOUS
  0
ENDTAB
  0
TABLE
  2
STYLE
 70
     2
  0
STYLE
  2
STANDARD
 70
     0
 40
0.0
 41
1.0
 50
0.0
 71
     0
 42
0.2
  3
txt
  4

  0
STYLE
  2
DEFAULT
 70
     0
 40
0.0
 41
1.0
 50
0.0
 71
     0
 42
0.2
  3

  4

  0
ENDTAB
  0
TABLE
  2
VIEW
 70
     0
  0
ENDTAB
  0
TABLE
  2
UCS
 70
     0
  0
ENDTAB
  0
TABLE
  2
APPID
 70
     3
  0
APPID
  2
ACAD
 70
     0
  0
APPID
  2
RHINO
 70
     0
  0
APPID
  2
ACADANNOTATIVE
 70
     0
  0
ENDTAB
  0
TABLE
  2
DIMSTYLE
 70
     1
  0
DIMSTYLE
  2
STANDARD_ACAD
 70
     0
  3

  4

  5

  6

  7

 40
1.0
 41
0.18
 42
0.0625
 43
0.38
 44
0.18
 45
0.0
 46
0.0
 47
0.0
 48
0.0
140
0.18
141
0.09
142
0.0
143
25.4
144
1.0
145
0.0
146
1.0
147
0.09
 71
     0
 72
     0
 73
     1
 74
     1
 75
     0
 76
     0
 77
     0
 78
     0
170
     0
171
     2
172
     0
173
     0
174
     0
175
     0
176
     0
177
     0
178
     0
  0
ENDTAB
  0
ENDSEC
  0
SECTION
  2
BLOCKS
  0
BLOCK
  8
0
  2
$MODEL_SPACE
 70
     0
 10
0.0
 20
0.0
 30
0.0
  3
$MODEL_SPACE
  1

  0
ENDBLK
  5
21
  8
0
  0
BLOCK
 67
     1
  8
0
  2
$PAPER_SPACE
 70
     0
 10
0.0
 20
0.0
 30
0.0
  3
$PAPER_SPACE
  1

  0
ENDBLK
  5
1D
 67
     1
  8
0
  0
ENDSEC
  0
SECTION
  2
ENTITIES
  0
ARC
  5
60
  8
MOSFET$MASK
 10
-12.95724893578191
 20
3.000000000000011
 30
0.0
 40
2.999999999999994
 50
269.9999999999998
 51
359.9999999999916
  0
LINE
  5
61
  8
MOSFET$MASK
 10
-9.957248935781912
 20
2.999999999999574
 30
0.0
 11
-9.957248935781912
 21
92.00000000000009
 31
0.0
  0
ARC
  5
62
  8
MOSFET$MASK
 10
-12.95724893578192
 20
92.0
 30
0.0
 40
3.000000000000007
 50
0.0000000000016284
 51
90.0000000000004
  0
LINE
  5
63
  8
MOSFET$MASK
 10
-12.95724893578194
 20
95.0
 30
0.0
 11
-86.9572489357819
 21
95.00000000000003
 31
0.0
  0
ARC
  5
64
  8
MOSFET$MASK
 10
-86.9572489357819
 20
92.00000000000003
 30
0.0
 40
3.0
 50
90.0
 51
180.0000000000002
  0
LINE
  5
65
  8
MOSFET$MASK
 10
-89.9572489357819
 20
92.0
 30
0.0
 11
-89.9572489357819
 21
2.999999999999884
 31
0.0
  0
ARC
  5
66
  8
MOSFET$MASK
 10
-86.9572489357819
 20
2.999999999999896
 30
0.0
 40
3.0
 50
180.0000000000002
 51
270.0
  0
LINE
  5
67
  8
MOSFET$MASK
 10
-86.9572489357819
 20
-0.0000000000001041
 30
0.0
 11
-12.95724893578191
 21
0.0000000000000167
 31
0.0
  0
LINE
  5
69
  8
DEFAULT
 10
-89.9572489357819
 20
-0.0000000000001041
 30
0.0
 11
-9.957248935781912
 21
-0.0000000000001041
 31
0.0
  0
LINE
  5
6A
  8
DEFAULT
 10
-9.957248935781912
 20
-0.0000000000001041
 30
0.0
 11
-9.957248935781912
 21
95.00000000000003
 31
0.0
  0
LINE
  5
6B
  8
DEFAULT
 10
-9.957248935781912
 20
95.00000000000003
 30
0.0
 11
-89.9572489357819
 21
95.00000000000003
 31
0.0
  0
LINE
  5
6C
  8
DEFAULT
 10
-89.9572489357819
 20
95.00000000000003
 30
0.0
 11
-89.9572489357819
 21
-0.0000000000001041
 31
0.0
  0
CIRCLE
  5
6E
  8
MOSFET
 10
-86.9572489357819
 20
3.000000000000023
 30
0.0
 40
3.00000000000009
  0
CIRCLE
  5
6F
  8
MOSFET
 10
-86.9572489357819
 20
92.0
 30
0.0
 40
3.000000000000007
  0
TEXT
  5
71
  8
MOSFET$MASK
 10
-67.63307559181048
 20
84.43003510228989
 30
0.0
 40
2.5
  1
M2
  7
DEFAULT
1001
ACADANNOTATIVE
1000
AnnotativeData
1002
{
1070
     1
1070
     0
1002
}
  0
TEXT
  5
72
  8
MOSFET$MASK
 10
-54.457959271345
 20
84.44499519913985
 30
0.0
 40
2.5
  1
M1
  7
DEFAULT
1001
ACADANNOTATIVE
1000
AnnotativeData
1002
{
1070
     1
1070
     0
1002
}
  0
TEXT
  5
73
  8
MOSFET$MASK
 10
-23.23180260088876
 20
2.232485702152594
 30
0.0
 40
2.5
  1
M3
  7
DEFAULT
1001
ACADANNOTATIVE
1000
AnnotativeData
1002
{
1070
     1
1070
     0
1002
}
  0
LINE
  5
74
  8
MOSFET$MASK
 10
-55.95420092968597
 20
2.402340701673398
 30
0.0
 11
-50.85577573283549
 21
2.402340701673398
 31
0.0
  0
LINE
  5
75
  8
MOSFET$MASK
 10
-50.85577573283549
 20
2.402340701673398
 30
0.0
 11
-50.85577573283549
 21
7.355350607693213
 31
0.0
  0
LINE
  5
76
  8
MOSFET$MASK
 10
-50.85577573283549
 20
7.355350607693213
 30
0.0
 11
-55.95420092968597
 21
7.355350607693213
 31
0.0
  0
LINE
  5
77
  8
MOSFET$MASK
 10
-55.95420092968597
 20
7.355350607693213
 30
0.0
 11
-55.95420092968597
 21
2.402340701673398
 31
0.0
  0
TEXT
  5
78
  8
MOSFET$MASK
 10
-31.1541586887123
 20
54.26889701825945
 30
0.0
 40
2.5
  1
GND
 50
270.0000000000001
  7
DEFAULT
1001
ACADANNOTATIVE
1000
AnnotativeData
1002
{
1070
     1
1070
     0
1002
}
  0
LINE
  5
79
  8
MOSFET$MASK
 10
-63.38081802878744
 20
66.89556972357778
 30
0.0
 11
-58.35573428199884
 21
66.89556972357778
 31
0.0
  0
LINE
  5
7A
  8
MOSFET$MASK
 10
-58.35573428199884
 20
66.89556972357778
 30
0.0
 11
-58.35573428199884
 21
73.48926851343506
 31
0.0
  0
LINE
  5
7B
  8
MOSFET$MASK
 10
-58.35573428199884
 20
73.48926851343506
 30
0.0
 11
-63.38081802878744
 21
73.48926851343506
 31
0.0
  0
LINE
  5
7C
  8
MOSFET$MASK
 10
-63.38081802878744
 20
73.48926851343506
 30
0.0
 11
-63.38081802878744
 21
66.89556972357778
 31
0.0
  0
LINE
  5
7D
  8
MOSFET$MASK
 10
-62.34222735810115
 20
63.0044903459283
 30
0.0
 11
-59.39432495268525
 21
63.0044903459283
 31
0.0
  0
LINE
  5
7E
  8
MOSFET$MASK
 10
-59.39432495268525
 20
63.0044903459283
 30
0.0
 11
-59.39432495268525
 21
65.29730332791846
 31
0.0
  0
LINE
  5
7F
  8
MOSFET$MASK
 10
-59.39432495268525
 20
65.29730332791846
 30
0.0
 11
-62.34222735810115
 21
65.29730332791846
 31
0.0
  0
LINE
  5
80
  8
MOSFET$MASK
 10
-62.34222735810115
 20
65.29730332791846
 30
0.0
 11
-62.34222735810115
 21
63.0044903459283
 31
0.0
  0
TEXT
  5
81
  8
MOSFET$MASK
 10
-66.98338485104527
 20
75.15521760113508
 30
0.0
 40
2.5
  1
TB6612
  7
DEFAULT
1001
ACADANNOTATIVE
1000
AnnotativeData
1002
{
1070
     1
1070
     0
1002
}
  0
LINE
  5
82
  8
MOSFET$MASK
 10
-39.24555026576186
 20
71.03398916172634
 30
0.0
 11
-29.99076624943918
 21
71.03398916172634
 31
0.0
  0
LINE
  5
83
  8
MOSFET$MASK
 10
-29.99076624943918
 20
71.03398916172634
 30
0.0
 11
-29.99076624943918
 21
75.54881172857986
 31
0.0
  0
LINE
  5
84
  8
MOSFET$MASK
 10
-29.99076624943918
 20
75.54881172857986
 30
0.0
 11
-39.24555026576186
 21
75.54881172857986
 31
0.0
  0
LINE
  5
85
  8
MOSFET$MASK
 10
-39.24555026576186
 20
75.54881172857986
 30
0.0
 11
-39.24555026576186
 21
71.03398916172634
 31
0.0
  0
TEXT
  5
86
  8
MOSFET$MASK
 10
-33.64754663121961
 20
50.96110528300576
 30
0.0
 40
2.5
  1
5V
 50
270.0
  7
DEFAULT
1001
ACADANNOTATIVE
1000
AnnotativeData
1002
{
1070
     1
1070
     0
1002
}
  0
TEXT
  5
87
  8
MOSFET$MASK
 10
-76.58056311917552
 20
48.20121428527308
 30
0.0
 40
2.287369576517802
  1
3V3
  7
DEFAULT
1001
ACADANNOTATIVE
1000
AnnotativeData
1002
{
1070
     1
1070
     0
1002
}
  0
TEXT
  5
88
  8
MOSFET$MASK
 10
-75.3662702386229
 20
45.52181806625379
 30
0.0
 40
2.287369576517802
  1
EN
  7
DEFAULT
1001
ACADANNOTATIVE
1000
AnnotativeData
1002
{
1070
     1
1070
     0
1002
}
  0
TEXT
  5
89
  8
MOSFET$MASK
 10
-75.06390527197489
 20
42.92387733027749
 30
0.0
 40
2.287369576517802
  1
VP
  7
DEFAULT
1001
ACADANNOTATIVE
1000
AnnotativeData
1002
{
1070
     1
1070
     0
1002
}
  0
TEXT
  5
8A
  8
MOSFET$MASK
 10
-75.12231482448631
 20
40.45175140443894
 30
0.0
 40
2.287369576517802
  1
VN
  7
DEFAULT
1001
ACADANNOTATIVE
1000
AnnotativeData
1002
{
1070
     1
1070
     0
1002
}
  0
TEXT
  5
8B
  8
MOSFET$MASK
 10
-74.4633666720065
 20
37.95571863886825
 30
0.0
 40
2.287369576517802
  1
34
  7
DEFAULT
1001
ACADANNOTATIVE
1000
AnnotativeData
1002
{
1070
     1
1070
     0
1002
}
  0
TEXT
  5
8C
  8
MOSFET$MASK
 10
-74.49451644952343
 20
35.32618721605844
 30
0.0
 40
2.287369576517802
  1
35
  7
DEFAULT
1001
ACADANNOTATIVE
1000
AnnotativeData
1002
{
1070
     1
1070
     0
1002
}
  0
TEXT
  5
8D
  8
MOSFET$MASK
 10
-74.44940256433655
 20
32.83195670270989
 30
0.0
 40
2.287369576517802
  1
32
  7
DEFAULT
1001
ACADANNOTATIVE
1000
AnnotativeData
1002
{
1070
     1
1070
     0
1002
}
  0
TEXT
  5
8E
  8
MOSFET$MASK
 10
-27.48108905989411
 20
43.10159722899517
 30
0.0
 40
2.287369576517802
  1
22
  7
DEFAULT
1001
ACADANNOTATIVE
1000
AnnotativeData
1002
{
1070
     1
1070
     0
1002
}
  0
TEXT
  5
8F
  8
MOSFET$MASK
 10
-27.45569545978985
 20
40.57124386230805
 30
0.0
 40
2.287369576517802
  1
TX
  7
DEFAULT
1001
ACADANNOTATIVE
1000
AnnotativeData
1002
{
1070
     1
1070
     0
1002
}
  0
TEXT
  5
90
  8
MOSFET$MASK
 10
-27.45787078788083
 20
38.06710286767571
 30
0.0
 40
2.287369576517802
  1
TR
  7
DEFAULT
1001
ACADANNOTATIVE
1000
AnnotativeData
1002
{
1070
     1
1070
     0
1002
}
  0
TEXT
  5
91
  8
MOSFET$MASK
 10
-27.50607907126484
 20
35.52145009508673
 30
0.0
 40
2.287369576517802
  1
21
  7
DEFAULT
1001
ACADANNOTATIVE
1000
AnnotativeData
1002
{
1070
     1
1070
     0
1002
}
  0
TEXT
  5
92
  8
MOSFET$MASK
 10
-27.58448857741563
 20
15.22975767100413
 30
0.0
 40
2.287369576517802
  1
0
  7
DEFAULT
1001
ACADANNOTATIVE
1000
AnnotativeData
1002
{
1070
     1
1070
     0
1002
}
  0
TEXT
  5
93
  8
MOSFET$MASK
 10
-28.0091690668018
 20
20.30329652653565
 30
0.0
 40
2.287369576517802
  1
16
  7
DEFAULT
1001
ACADANNOTATIVE
1000
AnnotativeData
1002
{
1070
     1
1070
     0
1002
}
  0
TEXT
  5
94
  8
MOSFET$MASK
 10
-27.38603801232604
 20
17.71721429216996
 30
0.0
 40
2.287369576517802
  1
4
  7
DEFAULT
1001
ACADANNOTATIVE
1000
AnnotativeData
1002
{
1070
     1
1070
     0
1002
}
  0
TEXT
  5
95
  8
MOSFET$MASK
 10
-27.49388194055804
 20
12.64516582283638
 30
0.0
 40
2.287369576517802
  1
2
  7
DEFAULT
1001
ACADANNOTATIVE
1000
AnnotativeData
1002
{
1070
     1
1070
     0
1002
}
  0
TEXT
  5
96
  8
MOSFET$MASK
 10
-28.00886685931067
 20
22.83922903104646
 30
0.0
 40
2.287369576517802
  1
17
  7
DEFAULT
1001
ACADANNOTATIVE
1000
AnnotativeData
1002
{
1070
     1
1070
     0
1002
}
  0
TEXT
  5
97
  8
MOSFET$MASK
 10
-27.5842944398505
 20
25.42994357262655
 30
0.0
 40
2.287369576517802
  1
5
  7
DEFAULT
1001
ACADANNOTATIVE
1000
AnnotativeData
1002
{
1070
     1
1070
     0
1002
}
  0
TEXT
  5
98
  8
MOSFET$MASK
 10
-28.01062219751299
 20
27.9075568868512
 30
0.0
 40
2.287369576517802
  1
18
  7
DEFAULT
1001
ACADANNOTATIVE
1000
AnnotativeData
1002
{
1070
     1
1070
     0
1002
}
  0
TEXT
  5
99
  8
MOSFET$MASK
 10
-28.03043356545317
 20
30.4673980208046
 30
0.0
 40
2.287369576517802
  1
19
  7
DEFAULT
1001
ACADANNOTATIVE
1000
AnnotativeData
1002
{
1070
     1
1070
     0
1002
}
  0
TEXT
  5
9A
  8
MOSFET$MASK
 10
-33.34128044290354
 20
7.552967451843205
 30
0.0
 40
2.287369576517802
  1
D1
  7
DEFAULT
1001
ACADANNOTATIVE
1000
AnnotativeData
1002
{
1070
     1
1070
     0
1002
}
  0
TEXT
  5
9B
  8
MOSFET$MASK
 10
-33.33970543599058
 20
4.98416361766029
 30
0.0
 40
2.287369576517802
  1
D0
  7
DEFAULT
1001
ACADANNOTATIVE
1000
AnnotativeData
1002
{
1070
     1
1070
     0
1002
}
  0
TEXT
  5
9C
  8
MOSFET$MASK
 10
-75.10423141229226
 20
7.546060592141107
 30
0.0
 40
2.287369576517802
  1
D3
  7
DEFAULT
1001
ACADANNOTATIVE
1000
AnnotativeData
1002
{
1070
     1
1070
     0
1002
}
  0
TEXT
  5
9D
  8
MOSFET$MASK
 10
-75.10435933512518
 20
10.06877661695349
 30
0.0
 40
2.287369576517802
  1
D2
  7
DEFAULT
1001
ACADANNOTATIVE
1000
AnnotativeData
1002
{
1070
     1
1070
     0
1002
}
  0
TEXT
  5
9E
  8
MOSFET$MASK
 10
-42.05208028477384
 20
65.05364100521082
 30
0.169538958595407
 40
2.5
  1
MOSFET
  7
DEFAULT
1001
ACADANNOTATIVE
1000
AnnotativeData
1002
{
1070
     1
1070
     0
1002
}
  0
TEXT
  5
9F
  8
MOSFET$MASK
 10
-36.53428865599078
 20
82.70106874348377
 30
0.169538958595407
 40
3.0
  1
P+
 50
269.9999999999998
  7
DEFAULT
1001
ACADANNOTATIVE
1000
AnnotativeData
1002
{
1070
     1
1070
     0
1002
}
  0
TEXT
  5
A0
  8
MOSFET$MASK
 10
-33.43964683622103
 20
81.7537506979047
 30
0.169538958595407
 40
3.0
  1
P-
 50
270.0000000000002
  7
DEFAULT
1001
ACADANNOTATIVE
1000
AnnotativeData
1002
{
1070
     1
1070
     0
1002
}
  0
TEXT
  5
A1
  8
MOSFET$MASK
 10
-20.85960022755673
 20
76.10003200645411
 30
0.169538958595407
 40
3.0
  1
L+
 50
89.99999999999949
  7
DEFAULT
1001
ACADANNOTATIVE
1000
AnnotativeData
1002
{
1070
     1
1070
     0
1002
}
  0
TEXT
  5
A2
  8
MOSFET$MASK
 10
-17.70902537311908
 20
76.094883329906
 30
0.169538958595407
 40
3.0
  1
L-
 50
89.99999999999982
  7
DEFAULT
1001
ACADANNOTATIVE
1000
AnnotativeData
1002
{
1070
     1
1070
     0
1002
}
  0
TEXT
  5
A3
  8
MOSFET$MASK
 10
-87.62902736727548
 20
4.817789674345624
 30
0.0
 40
2.5
  1
GND
  7
DEFAULT
1001
ACADANNOTATIVE
1000
AnnotativeData
1002
{
1070
     1
1070
     0
1002
}
  0
TEXT
  5
A4
  8
MOSFET$MASK
 10
-84.37156910405626
 20
1.370522996733501
 30
0.0
 40
2.5
  1
5V
  7
DEFAULT
1001
ACADANNOTATIVE
1000
AnnotativeData
1002
{
1070
     1
1070
     0
1002
}
  0
TEXT
  5
A5
  8
MOSFET$MASK
 10
-20.60306524295148
 20
87.48107987124676
 30
0.0
 40
2.5
  1
GND
  7
DEFAULT
1001
ACADANNOTATIVE
1000
AnnotativeData
1002
{
1070
     1
1070
     0
1002
}
  0
TEXT
  5
A6
  8
MOSFET$MASK
 10
-21.00389877998887
 20
90.92228965697093
 30
0.0
 40
2.5
  1
12V
  7
DEFAULT
1001
ACADANNOTATIVE
1000
AnnotativeData
1002
{
1070
     1
1070
     0
1002
}
  0
LINE
  5
A7
  8
MOSFET
 10
-9.957248935781912
 20
91.99999999999997
 30
0.0
 11
-9.957248935781912
 21
2.999999999998328
 31
0.0
  0
CIRCLE
  5
A8
  8
MOSFET
 10
-12.95724893578191
 20
3.00000000000001
 30
0.0
 40
2.999999999999999
  0
CIRCLE
  5
A9
  8
MOSFET
 10
-12.95724893578191
 20
91.99999999999997
 30
0.0
 40
3.000000000000028
  0
ARC
  5
AA
  8
MOSFET
 10
-12.95724893578191
 20
3.000000000000011
 30
0.0
 40
2.999999999999994
 50
269.9999999999998
 51
359.9999999999916
  0
LINE
  5
AB
  8
MOSFET
 10
-9.957248935781912
 20
2.999999999999574
 30
0.0
 11
-9.957248935781912
 21
92.00000000000009
 31
0.0
  0
ARC
  5
AC
  8
MOSFET
 10
-12.95724893578192
 20
92.0
 30
0.0
 40
3.000000000000007
 50
0.0000000000016284
 51
90.0000000000004
  0
LINE
  5
AD
  8
MOSFET
 10
-12.95724893578194
 20
95.0
 30
0.0
 11
-86.9572489357819
 21
95.00000000000003
 31
0.0
  0
ARC
  5
AE
  8
MOSFET
 10
-86.9572489357819
 20
92.00000000000003
 30
0.0
 40
3.0
 50
90.0
 51
180.0000000000002
  0
LINE
  5
AF
  8
MOSFET
 10
-89.9572489357819
 20
92.0
 30
0.0
 11
-89.9572489357819
 21
2.999999999999884
 31
0.0
  0
ARC
  5
B0
  8
MOSFET
 10
-86.9572489357819
 20
2.999999999999896
 30
0.0
 40
3.0
 50
180.0000000000002
 51
270.0
  0
LINE
  5
B1
  8
MOSFET
 10
-86.9572489357819
 20
-0.0000000000001041
 30
0.0
 11
-12.95724893578191
 21
0.0000000000000167
 31
0.0
  0
ENDSEC
  0
EOF
