  0
SECTION
  2
HEADER
  9
$ACADVER
  1
AC1009
  9
$DWGCODEPAGE
  3
ansi_1252
  9
$INSBASE
 10
0.0
 20
0.0
 30
0.0
  9
$EXTMIN
 10
-3.000000000000028
 20
123.0104483371405
 30
0.0
  9
$EXTMAX
 10
83.02235603157555
 20
252.2437188656721
 30
0.0
  9
$LIMMIN
 10
0.0
 20
0.0
  9
$LIMMAX
 10
12.0
 20
9.0
  9
$ORTHOMODE
 70
     0
  9
$REGENMODE
 70
     1
  9
$FILLMODE
 70
     1
  9
$QTEXTMODE
 70
     0
  9
$MIRRTEXT
 70
     1
  9
$DRAGMODE
 70
     2
  9
$LTSCALE
 40
1.0
  9
$OSMODE
 70
    37
  9
$ATTMODE
 70
     1
  9
$TEXTSIZE
 40
0.2
  9
$TRACEWID
 40
0.05
  9
$TEXTSTYLE
  7
STANDARD
  9
$CLAYER
  8
DEFAULT
  9
$CELTYPE
  6
BYLAYER
  9
$CECOLOR
 62
   256
  9
$DIMSCALE
 40
1.0
  9
$DIMASZ
 40
0.18
  9
$DIMEXO
 40
0.0625
  9
$DIMDLI
 40
0.38
  9
$DIMRND
 40
0.0
  9
$DIMDLE
 40
0.0
  9
$DIMEXE
 40
0.18
  9
$DIMTP
 40
0.0
  9
$DIMTM
 40
0.0
  9
$DIMTXT
 40
0.18
  9
$DIMCEN
 40
0.09
  9
$DIMTSZ
 40
0.0
  9
$DIMTOL
 70
     0
  9
$DIMLIM
 70
     0
  9
$DIMTIH
 70
     1
  9
$DIMTOH
 70
     1
  9
$DIMSE1
 70
     0
  9
$DIMSE2
 70
     0
  9
$DIMTAD
 70
     0
  9
$DIMZIN
 70
     0
  9
$DIMBLK
  1

  9
$DIMASO
 70
     1
  9
$DIMSHO
 70
     1
  9
$DIMPOST
  1

  9
$DIMAPOST
  1

  9
$DIMALT
 70
     0
  9
$DIMALTD
 70
     2
  9
$DIMALTF
 40
25.4
  9
$DIMLFAC
 40
1.0
  9
$DIMTOFL
 70
     0
  9
$DIMTVP
 40
0.0
  9
$DIMTIX
 70
     0
  9
$DIMSOXD
 70
     0
  9
$DIMSAH
 70
     0
  9
$DIMBLK1
  1

  9
$DIMBLK2
  1

  9
$DIMSTYLE
  2
STANDARD_ACAD
  9
$DIMCLRD
 70
     0
  9
$DIMCLRE
 70
     0
  9
$DIMCLRT
 70
     0
  9
$DIMTFAC
 40
1.0
  9
$DIMGAP
 40
0.09
  9
$LUNITS
 70
     2
  9
$LUPREC
 70
     3
  9
$SKETCHINC
 40
0.1
  9
$FILLETRAD
 40
0.0
  9
$AUNITS
 70
     0
  9
$AUPREC
 70
     0
  9
$MENU
  1
.
  9
$ELEVATION
 40
0.0
  9
$PELEVATION
 40
0.0
  9
$THICKNESS
 40
0.0
  9
$LIMCHECK
 70
     0
  9
$CHAMFERA
 40
0.0
  9
$CHAMFERB
 40
0.0
  9
$SKPOLY
 70
     0
  9
$TDCREATE
 40
2460535.772924236
  9
$TDUPDATE
 40
2460535.772965267
  9
$TDINDWG
 40
0.0000000116
  9
$TDUSRTIMER
 40
0.0000000116
  9
$USRTIMER
 70
     1
  9
$ANGBASE
 50
0.0
  9
$ANGDIR
 70
     0
  9
$PDMODE
 70
     0
  9
$PDSIZE
 40
0.0
  9
$PLINEWID
 40
0.0
  9
$COORDS
 70
     1
  9
$SPLFRAME
 70
     0
  9
$SPLINETYPE
 70
     6
  9
$SPLINESEGS
 70
     8
  9
$ATTDIA
 70
     0
  9
$ATTREQ
 70
     1
  9
$HANDLING
 70
     1
  9
$HANDSEED
  5
AC
  9
$SURFTAB1
 70
     6
  9
$SURFTAB2
 70
     6
  9
$SURFTYPE
 70
     6
  9
$SURFU
 70
     6
  9
$SURFV
 70
     6
  9
$UCSNAME
  2

  9
$UCSORG
 10
0.0
 20
0.0
 30
0.0
  9
$UCSXDIR
 10
1.0
 20
0.0
 30
0.0
  9
$UCSYDIR
 10
0.0
 20
1.0
 30
0.0
  9
$PUCSNAME
  2

  9
$PUCSORG
 10
0.0
 20
0.0
 30
0.0
  9
$PUCSXDIR
 10
1.0
 20
0.0
 30
0.0
  9
$PUCSYDIR
 10
0.0
 20
1.0
 30
0.0
  9
$USERI1
 70
     0
  9
$USERI2
 70
     0
  9
$USERI3
 70
     0
  9
$USERI4
 70
     0
  9
$USERI5
 70
     0
  9
$USERR1
 40
0.0
  9
$USERR2
 40
0.0
  9
$USERR3
 40
0.0
  9
$USERR4
 40
0.0
  9
$USERR5
 40
0.0
  9
$WORLDVIEW
 70
     1
  9
$SHADEDGE
 70
     3
  9
$SHADEDIF
 70
    70
  9
$TILEMODE
 70
     1
  9
$MAXACTVP
 70
    64
  9
$PLIMCHECK
 70
     0
  9
$PEXTMIN
 10
1.000000000000000E+20
 20
1.000000000000000E+20
 30
1.000000000000000E+20
  9
$PEXTMAX
 10
-1.000000000000000E+20
 20
-1.000000000000000E+20
 30
-1.000000000000000E+20
  9
$PLIMMIN
 10
0.0
 20
0.0
  9
$PLIMMAX
 10
12.0
 20
9.0
  9
$UNITMODE
 70
     0
  9
$VISRETAIN
 70
     1
  9
$PLINEGEN
 70
     0
  9
$PSLTSCALE
 70
     1
  0
ENDSEC
  0
SECTION
  2
TABLES
  0
TABLE
  2
VPORT
 70
     1
  0
VPORT
  2
*ACTIVE
 70
     0
 10
0.0
 20
0.0
 11
1.0
 21
1.0
 12
10.42990654205607
 22
4.5
 13
0.0
 23
0.0
 14
0.5
 24
0.5
 15
0.5
 25
0.5
 16
0.0
 26
0.0
 36
1.0
 17
0.0
 27
0.0
 37
0.0
 40
9.0
 41
1.972972972850329
 42
50.0
 43
0.0
 44
0.0
 50
0.0
 51
0.0
 71
     0
 72
   100
 73
     1
 74
     3
 75
     0
 76
     0
 77
     0
 78
     0
  0
ENDTAB
  0
TABLE
  2
LTYPE
 70
     1
  0
LTYPE
  2
CONTINUOUS
 70
     0
  3
Solid line
 72
    65
 73
     0
 40
0.0
  0
ENDTAB
  0
TABLE
  2
LAYER
 70
     4
  0
LAYER
  2
0
 70
     0
 62
     7
  6
CONTINUOUS
  0
LAYER
  2
SILKMASK
 70
     0
 62
     7
  6
CONTINUOUS
  0
LAYER
  2
DEFAULT
 70
     0
 62
     7
  6
CONTINUOUS
  0
LAYER
  2
LARGE_HOLES
 70
     0
 62
     7
  6
CONTINUOUS
  0
ENDTAB
  0
TABLE
  2
STYLE
 70
     2
  0
STYLE
  2
STANDARD
 70
     0
 40
0.0
 41
1.0
 50
0.0
 71
     0
 42
0.2
  3
txt
  4

  0
STYLE
  2
DEFAULT
 70
     0
 40
0.0
 41
1.0
 50
0.0
 71
     0
 42
0.2
  3
arial.ttf
  4

  0
ENDTAB
  0
TABLE
  2
VIEW
 70
     0
  0
ENDTAB
  0
TABLE
  2
UCS
 70
     0
  0
ENDTAB
  0
TABLE
  2
APPID
 70
     2
  0
APPID
  2
ACAD
 70
     0
  0
APPID
  2
RHINO
 70
     0
  0
ENDTAB
  0
TABLE
  2
DIMSTYLE
 70
     1
  0
DIMSTYLE
  2
STANDARD_ACAD
 70
     0
  3

  4

  5

  6

  7

 40
1.0
 41
0.18
 42
0.0625
 43
0.38
 44
0.18
 45
0.0
 46
0.0
 47
0.0
 48
0.0
140
0.18
141
0.09
142
0.0
143
25.4
144
1.0
145
0.0
146
1.0
147
0.09
 71
     0
 72
     0
 73
     1
 74
     1
 75
     0
 76
     0
 77
     0
 78
     0
170
     0
171
     2
172
     0
173
     0
174
     0
175
     0
176
     0
177
     0
178
     0
  0
ENDTAB
  0
ENDSEC
  0
SECTION
  2
BLOCKS
  0
BLOCK
  8
0
  2
$MODEL_SPACE
 70
     0
 10
0.0
 20
0.0
 30
0.0
  3
$MODEL_SPACE
  1

  0
ENDBLK
  5
21
  8
0
  0
BLOCK
 67
     1
  8
0
  2
$PAPER_SPACE
 70
     0
 10
0.0
 20
0.0
 30
0.0
  3
$PAPER_SPACE
  1

  0
ENDBLK
  5
1D
 67
     1
  8
0
  0
ENDSEC
  0
SECTION
  2
ENTITIES
  0
TEXT
  5
61
  8
SILKMASK
 10
27.69728051991763
 20
190.5361925907953
 30
0.0
 40
6.351034161263749
  1
ESP32
 50
269.9999999999999
  7
DEFAULT
  0
TEXT
  5
62
  8
SILKMASK
 10
62.72778043397191
 20
233.4809468562399
 30
0.0
 40
2.5
  1
GND
  7
DEFAULT
  0
TEXT
  5
63
  8
SILKMASK
 10
62.32754034850345
 20
236.9220577333693
 30
0.0
 40
2.5
  1
12V
  7
DEFAULT
  0
TEXT
  5
64
  8
SILKMASK
 10
8.853401372294607
 20
156.0685644189573
 30
0.0
 40
2.287369576517802
  1
D2
  7
DEFAULT
  0
TEXT
  5
65
  8
SILKMASK
 10
8.853529295127478
 20
153.5458483941449
 30
0.0
 40
2.287369576517802
  1
D3
  7
DEFAULT
  0
TEXT
  5
66
  8
SILKMASK
 10
50.61805527142915
 20
150.9839514196641
 30
0.0
 40
2.287369576517802
  1
D0
  7
DEFAULT
  0
TEXT
  5
67
  8
SILKMASK
 10
50.61648026451625
 20
153.552755253847
 30
0.0
 40
2.287369576517802
  1
D1
  7
DEFAULT
  0
TEXT
  5
68
  8
SILKMASK
 10
55.92655324339222
 20
176.4671858228084
 30
0.0
 40
2.287369576517802
  1
19
  7
DEFAULT
  0
TEXT
  5
69
  8
SILKMASK
 10
55.94636461133243
 20
173.907344688855
 30
0.0
 40
2.287369576517802
  1
18
  7
DEFAULT
  0
TEXT
  5
6A
  8
SILKMASK
 10
56.37299818375416
 20
171.4299435726265
 30
0.0
 40
2.287369576517802
  1
5
  7
DEFAULT
  0
TEXT
  5
6B
  8
SILKMASK
 10
55.94811994953474
 20
168.8390168330503
 30
0.0
 40
2.287369576517802
  1
17
  7
DEFAULT
  0
TEXT
  5
6C
  8
SILKMASK
 10
56.46353238483856
 20
158.6449536248402
 30
0.0
 40
2.287369576517802
  1
2
  7
DEFAULT
  0
TEXT
  5
6D
  8
SILKMASK
 10
56.57181631185672
 20
163.71721429217
 30
0.0
 40
2.287369576517802
  1
4
  7
DEFAULT
  0
TEXT
  5
6E
  8
SILKMASK
 10
55.9478177420436
 20
166.3030843285394
 30
0.0
 40
2.287369576517802
  1
16
  7
DEFAULT
  0
TEXT
  5
6F
  8
SILKMASK
 10
56.372804046189
 20
161.229545473008
 30
0.0
 40
2.287369576517802
  1
0
  7
DEFAULT
  0
TEXT
  5
70
  8
SILKMASK
 10
56.4513352541317
 20
181.5212378970905
 30
0.0
 40
2.287369576517802
  1
21
  7
DEFAULT
  0
TEXT
  5
71
  8
SILKMASK
 10
56.49996793350806
 20
184.0671028676757
 30
0.0
 40
2.287369576517802
  1
TR
  7
DEFAULT
  0
TEXT
  5
72
  8
SILKMASK
 10
56.50214326159904
 20
186.571243862308
 30
0.0
 40
2.287369576517802
  1
TX
  7
DEFAULT
  0
TEXT
  5
73
  8
SILKMASK
 10
56.47632526550247
 20
189.101385030999
 30
0.0
 40
2.287369576517802
  1
22
  7
DEFAULT
  0
TEXT
  5
74
  8
SILKMASK
 10
9.508617149460846
 20
178.8317445047137
 30
0.0
 40
2.287369576517802
  1
32
  7
DEFAULT
  0
TEXT
  5
75
  8
SILKMASK
 10
9.463503264274038
 20
181.3259750180622
 30
0.0
 40
2.287369576517802
  1
35
  7
DEFAULT
  0
TEXT
  5
76
  8
SILKMASK
 10
9.494653041790961
 20
183.9555064408721
 30
0.0
 40
2.287369576517802
  1
34
  7
DEFAULT
  0
TEXT
  5
77
  8
SILKMASK
 10
8.834615814301253
 20
186.4517514044389
 30
0.0
 40
2.287369576517802
  1
VN
  7
DEFAULT
  0
TEXT
  5
78
  8
SILKMASK
 10
8.893025366812756
 20
188.9238773302775
 30
0.0
 40
2.287369576517802
  1
VP
  7
DEFAULT
  0
TEXT
  5
79
  8
SILKMASK
 10
8.589824090415082
 20
191.5218180662538
 30
0.0
 40
2.287369576517802
  1
EN
  7
DEFAULT
  0
TEXT
  5
7A
  8
SILKMASK
 10
7.377456594621954
 20
194.2010020872769
 30
0.0
 40
2.287369576517802
  1
3V3
  7
DEFAULT
  0
TEXT
  5
7B
  8
SILKMASK
 10
-0.931297412859615
 20
150.8176566593388
 30
0.0
 40
2.5
  1
GND
  7
DEFAULT
  0
TEXT
  5
7C
  8
SILKMASK
 10
50.30970230456231
 20
196.961057534029
 30
0.0
 40
2.5
  1
5V
 50
270.0
  7
DEFAULT
  0
TEXT
  5
7D
  8
SILKMASK
 10
16.32496461272999
 20
240.4298031786882
 30
0.0
 40
2.5
  1
M2
  7
DEFAULT
  0
TEXT
  5
7E
  8
SILKMASK
 10
29.50008093319539
 20
240.4447632755382
 30
0.0
 40
2.5
  1
M1
  7
DEFAULT
  0
TEXT
  5
7F
  8
SILKMASK
 10
60.72623760365163
 20
145.232253778551
 30
0.0
 40
2.5
  1
M3
  7
DEFAULT
  0
TEXT
  5
80
  8
SILKMASK
 10
2.327088544766062
 20
147.3705229967335
 30
0.0
 40
2.5
  1
5V
  7
DEFAULT
  0
LINE
  5
81
  8
SILKMASK
 10
44.71169867002004
 20
217.0339891617263
 30
0.0
 11
53.96648268634272
 21
217.0339891617263
 31
0.0
  0
LINE
  5
82
  8
SILKMASK
 10
53.96648268634272
 20
217.0339891617263
 30
0.0
 11
53.96648268634272
 21
221.5488117285798
 31
0.0
  0
LINE
  5
83
  8
SILKMASK
 10
53.96648268634272
 20
221.5488117285798
 30
0.0
 11
44.71169867002004
 21
221.5488117285798
 31
0.0
  0
LINE
  5
84
  8
SILKMASK
 10
44.71169867002004
 20
221.5488117285798
 30
0.0
 11
44.71169867002004
 21
217.0339891617263
 31
0.0
  0
TEXT
  5
85
  8
SILKMASK
 10
16.97450869592348
 20
221.1549856775334
 30
0.0
 40
2.5
  1
TB6612
  7
DEFAULT
  0
LINE
  5
86
  8
SILKMASK
 10
21.61502157768078
 20
209.0044903459283
 30
0.0
 11
24.5629239830967
 21
209.0044903459283
 31
0.0
  0
LINE
  5
87
  8
SILKMASK
 10
24.5629239830967
 20
209.0044903459283
 30
0.0
 11
24.5629239830967
 21
211.2973033279184
 31
0.0
  0
LINE
  5
88
  8
SILKMASK
 10
24.5629239830967
 20
211.2973033279184
 30
0.0
 11
21.61502157768078
 21
211.2973033279184
 31
0.0
  0
LINE
  5
89
  8
SILKMASK
 10
21.61502157768078
 20
211.2973033279184
 30
0.0
 11
21.61502157768078
 21
209.0044903459283
 31
0.0
  0
LINE
  5
8A
  8
SILKMASK
 10
20.57643090699446
 20
212.8955697235778
 30
0.0
 11
25.60151465378301
 21
212.8955697235778
 31
0.0
  0
LINE
  5
8B
  8
SILKMASK
 10
25.60151465378301
 20
212.8955697235778
 30
0.0
 11
25.60151465378301
 21
219.489268513435
 31
0.0
  0
LINE
  5
8C
  8
SILKMASK
 10
25.60151465378301
 20
219.489268513435
 30
0.0
 11
20.57643090699446
 21
219.489268513435
 31
0.0
  0
LINE
  5
8D
  8
SILKMASK
 10
20.57643090699446
 20
219.489268513435
 30
0.0
 11
20.57643090699446
 21
212.8955697235778
 31
0.0
  0
TEXT
  5
8E
  8
SILKMASK
 10
43.67498235079196
 20
211.2388847027917
 30
0.0
 40
2.5
  1
RELAY
  7
DEFAULT
  0
TEXT
  5
8F
  8
SILKMASK
 10
50.62663553552773
 20
231.3632544253138
 30
0.0
 40
2.5
  1
COM
 50
90.00000000000038
  7
DEFAULT
  0
TEXT
  5
90
  8
SILKMASK
 10
57.43664315554287
 20
231.1840157160343
 30
0.0
 40
2.5
  1
NO
 50
90.00000000000162
  7
DEFAULT
  0
TEXT
  5
91
  8
SILKMASK
 10
52.80295723206271
 20
200.2697769636892
 30
0.0
 40
2.5
  1
GND
 50
270.0000000000001
  7
DEFAULT
  0
LINE
  5
92
  8
SILKMASK
 10
28.00304800609592
 20
148.4023407016734
 30
0.0
 11
33.10147320294641
 21
148.4023407016734
 31
0.0
  0
LINE
  5
93
  8
SILKMASK
 10
33.10147320294641
 20
148.4023407016734
 30
0.0
 11
33.10147320294641
 21
153.3553506076932
 31
0.0
  0
LINE
  5
94
  8
SILKMASK
 10
33.10147320294641
 20
153.3553506076932
 30
0.0
 11
28.00304800609592
 21
153.3553506076932
 31
0.0
  0
LINE
  5
95
  8
SILKMASK
 10
28.00304800609592
 20
153.3553506076932
 30
0.0
 11
28.00304800609592
 21
148.4023407016734
 31
0.0
  0
LINE
  5
97
  8
DEFAULT
 10
69.0
 20
144.0
 30
0.0
 11
-0.0000000000000284
 21
144.0
 31
0.0
  0
ARC
  5
98
  8
DEFAULT
 10
0.0000000000000284
 20
147.0
 30
0.0
 40
2.999999999999998
 50
270.0
 51
0.0
210
0.0
220
0.0
230
-1.0
  0
LINE
  5
99
  8
DEFAULT
 10
-3.000000000000028
 20
147.0
 30
0.0
 11
-3.000000000000028
 21
241.0
 31
0.0
  0
ARC
  5
9A
  8
DEFAULT
 10
0.0000000000000284
 20
241.0
 30
0.0
 40
3.0
 50
0.0
 51
90.0
210
0.0
220
0.0
230
-1.0
  0
LINE
  5
9B
  8
DEFAULT
 10
-0.0000000000000284
 20
244.0
 30
0.0
 11
69.0
 21
244.0
 31
0.0
  0
ARC
  5
9C
  8
DEFAULT
 10
-69.0
 20
241.0
 30
0.0
 40
3.0
 50
90.0
 51
180.0
210
0.0
220
0.0
230
-1.0
  0
LINE
  5
9D
  8
DEFAULT
 10
72.0
 20
241.0
 30
0.0
 11
72.0
 21
147.0
 31
0.0
  0
ARC
  5
9E
  8
DEFAULT
 10
-69.0
 20
147.0
 30
0.0
 40
2.999999999999996
 50
180.0
 51
270.0
210
0.0
220
0.0
230
-1.0
  0
CIRCLE
  5
A0
  8
LARGE_HOLES
 10
0.0
 20
241.0
 30
0.0
 40
1.5
210
0.0
220
0.0
230
-1.0
  0
CIRCLE
  5
A1
  8
LARGE_HOLES
 10
0.0
 20
147.0
 30
0.0
 40
1.5
  0
CIRCLE
  5
A2
  8
LARGE_HOLES
 10
69.0
 20
241.0
 30
0.0
 40
1.5
  0
CIRCLE
  5
A3
  8
LARGE_HOLES
 10
-69.0
 20
147.0
 30
0.0
 40
1.5
210
0.0
220
0.0
230
-1.0
  0
ENDSEC
  0
EOF
