  0
SECTION
  2
HEADER
  9
$ACADVER
  1
AC1009
  9
$DWGCODEPAGE
  3
ansi_1252
  9
$INSBASE
 10
0.0
 20
0.0
 30
0.0
  9
$EXTMIN
 10
77.73915038827624
 20
776.4889456564576
 30
0.0
  9
$EXTMAX
 10
98.03889493421711
 20
785.5110543435425
 30
0.0
  9
$LIMMIN
 10
0.0
 20
0.0
  9
$LIMMAX
 10
12.0
 20
9.0
  9
$ORTHOMODE
 70
     0
  9
$REGENMODE
 70
     1
  9
$FILLMODE
 70
     1
  9
$QTEXTMODE
 70
     0
  9
$MIRRTEXT
 70
     1
  9
$DRAGMODE
 70
     2
  9
$LTSCALE
 40
1.0
  9
$OSMODE
 70
    37
  9
$ATTMODE
 70
     1
  9
$TEXTSIZE
 40
0.2
  9
$TRACEWID
 40
0.05
  9
$TEXTSTYLE
  7
STANDARD
  9
$CLAYER
  8
V2_X8M8_BEARINGS
  9
$CELTYPE
  6
BYLAYER
  9
$CECOLOR
 62
   256
  9
$DIMSCALE
 40
1.0
  9
$DIMASZ
 40
0.18
  9
$DIMEXO
 40
0.0625
  9
$DIMDLI
 40
0.38
  9
$DIMRND
 40
0.0
  9
$DIMDLE
 40
0.0
  9
$DIMEXE
 40
0.18
  9
$DIMTP
 40
0.0
  9
$DIMTM
 40
0.0
  9
$DIMTXT
 40
0.18
  9
$DIMCEN
 40
0.09
  9
$DIMTSZ
 40
0.0
  9
$DIMTOL
 70
     0
  9
$DIMLIM
 70
     0
  9
$DIMTIH
 70
     1
  9
$DIMTOH
 70
     1
  9
$DIMSE1
 70
     0
  9
$DIMSE2
 70
     0
  9
$DIMTAD
 70
     0
  9
$DIMZIN
 70
     0
  9
$DIMBLK
  1

  9
$DIMASO
 70
     1
  9
$DIMSHO
 70
     1
  9
$DIMPOST
  1

  9
$DIMAPOST
  1

  9
$DIMALT
 70
     0
  9
$DIMALTD
 70
     2
  9
$DIMALTF
 40
25.4
  9
$DIMLFAC
 40
1.0
  9
$DIMTOFL
 70
     0
  9
$DIMTVP
 40
0.0
  9
$DIMTIX
 70
     0
  9
$DIMSOXD
 70
     0
  9
$DIMSAH
 70
     0
  9
$DIMBLK1
  1

  9
$DIMBLK2
  1

  9
$DIMSTYLE
  2
STANDARD_ACAD
  9
$DIMCLRD
 70
     0
  9
$DIMCLRE
 70
     0
  9
$DIMCLRT
 70
     0
  9
$DIMTFAC
 40
1.0
  9
$DIMGAP
 40
0.09
  9
$LUNITS
 70
     2
  9
$LUPREC
 70
     3
  9
$SKETCHINC
 40
0.1
  9
$FILLETRAD
 40
0.0
  9
$AUNITS
 70
     0
  9
$AUPREC
 70
     0
  9
$MENU
  1
.
  9
$ELEVATION
 40
0.0
  9
$PELEVATION
 40
0.0
  9
$THICKNESS
 40
0.0
  9
$LIMCHECK
 70
     0
  9
$CHAMFERA
 40
0.0
  9
$CHAMFERB
 40
0.0
  9
$SKPOLY
 70
     0
  9
$TDCREATE
 40
2460424.804568692
  9
$TDUPDATE
 40
2460424.804577604
  9
$TDINDWG
 40
0.0000000116
  9
$TDUSRTIMER
 40
0.0000000116
  9
$USRTIMER
 70
     1
  9
$ANGBASE
 50
0.0
  9
$ANGDIR
 70
     0
  9
$PDMODE
 70
     0
  9
$PDSIZE
 40
0.0
  9
$PLINEWID
 40
0.0
  9
$COORDS
 70
     1
  9
$SPLFRAME
 70
     0
  9
$SPLINETYPE
 70
     6
  9
$SPLINESEGS
 70
     8
  9
$ATTDIA
 70
     0
  9
$ATTREQ
 70
     1
  9
$HANDLING
 70
     1
  9
$HANDSEED
  5
B5
  9
$SURFTAB1
 70
     6
  9
$SURFTAB2
 70
     6
  9
$SURFTYPE
 70
     6
  9
$SURFU
 70
     6
  9
$SURFV
 70
     6
  9
$UCSNAME
  2

  9
$UCSORG
 10
0.0
 20
0.0
 30
0.0
  9
$UCSXDIR
 10
1.0
 20
0.0
 30
0.0
  9
$UCSYDIR
 10
0.0
 20
1.0
 30
0.0
  9
$PUCSNAME
  2

  9
$PUCSORG
 10
0.0
 20
0.0
 30
0.0
  9
$PUCSXDIR
 10
1.0
 20
0.0
 30
0.0
  9
$PUCSYDIR
 10
0.0
 20
1.0
 30
0.0
  9
$USERI1
 70
     0
  9
$USERI2
 70
     0
  9
$USERI3
 70
     0
  9
$USERI4
 70
     0
  9
$USERI5
 70
     0
  9
$USERR1
 40
0.0
  9
$USERR2
 40
0.0
  9
$USERR3
 40
0.0
  9
$USERR4
 40
0.0
  9
$USERR5
 40
0.0
  9
$WORLDVIEW
 70
     1
  9
$SHADEDGE
 70
     3
  9
$SHADEDIF
 70
    70
  9
$TILEMODE
 70
     1
  9
$MAXACTVP
 70
    64
  9
$PLIMCHECK
 70
     0
  9
$PEXTMIN
 10
1.000000000000000E+20
 20
1.000000000000000E+20
 30
1.000000000000000E+20
  9
$PEXTMAX
 10
-1.000000000000000E+20
 20
-1.000000000000000E+20
 30
-1.000000000000000E+20
  9
$PLIMMIN
 10
0.0
 20
0.0
  9
$PLIMMAX
 10
12.0
 20
9.0
  9
$UNITMODE
 70
     0
  9
$VISRETAIN
 70
     1
  9
$PLINEGEN
 70
     0
  9
$PSLTSCALE
 70
     1
  0
ENDSEC
  0
SECTION
  2
TABLES
  0
TABLE
  2
VPORT
 70
     1
  0
VPORT
  2
*ACTIVE
 70
     0
 10
0.0
 20
0.0
 11
1.0
 21
1.0
 12
10.42990654205607
 22
4.5
 13
0.0
 23
0.0
 14
0.5
 24
0.5
 15
0.5
 25
0.5
 16
0.0
 26
0.0
 36
1.0
 17
0.0
 27
0.0
 37
0.0
 40
9.0
 41
1.972972972850329
 42
50.0
 43
0.0
 44
0.0
 50
0.0
 51
0.0
 71
     0
 72
   100
 73
     1
 74
     3
 75
     0
 76
     0
 77
     0
 78
     0
  0
ENDTAB
  0
TABLE
  2
LTYPE
 70
     1
  0
LTYPE
  2
CONTINUOUS
 70
     0
  3
Solid line
 72
    65
 73
     0
 40
0.0
  0
ENDTAB
  0
TABLE
  2
LAYER
 70
     2
  0
LAYER
  2
0
 70
     0
 62
     7
  6
CONTINUOUS
  0
LAYER
  2
V2_X8M8_BEARINGS
 70
     0
 62
     7
  6
CONTINUOUS
  0
ENDTAB
  0
TABLE
  2
STYLE
 70
     1
  0
STYLE
  2
STANDARD
 70
     0
 40
0.0
 41
1.0
 50
0.0
 71
     0
 42
0.2
  3
txt
  4

  0
ENDTAB
  0
TABLE
  2
VIEW
 70
     0
  0
ENDTAB
  0
TABLE
  2
UCS
 70
     0
  0
ENDTAB
  0
TABLE
  2
APPID
 70
     2
  0
APPID
  2
ACAD
 70
     0
  0
APPID
  2
RHINO
 70
     0
  0
ENDTAB
  0
TABLE
  2
DIMSTYLE
 70
     1
  0
DIMSTYLE
  2
STANDARD_ACAD
 70
     0
  3

  4

  5

  6

  7

 40
1.0
 41
0.18
 42
0.0625
 43
0.38
 44
0.18
 45
0.0
 46
0.0
 47
0.0
 48
0.0
140
0.18
141
0.09
142
0.0
143
25.4
144
1.0
145
0.0
146
1.0
147
0.09
 71
     0
 72
     0
 73
     1
 74
     1
 75
     0
 76
     0
 77
     0
 78
     0
170
     0
171
     2
172
     0
173
     0
174
     0
175
     0
176
     0
177
     0
178
     0
  0
ENDTAB
  0
ENDSEC
  0
SECTION
  2
BLOCKS
  0
BLOCK
  8
0
  2
$MODEL_SPACE
 70
     0
 10
0.0
 20
0.0
 30
0.0
  3
$MODEL_SPACE
  1

  0
ENDBLK
  5
21
  8
0
  0
BLOCK
 67
     1
  8
0
  2
$PAPER_SPACE
 70
     0
 10
0.0
 20
0.0
 30
0.0
  3
$PAPER_SPACE
  1

  0
ENDBLK
  5
1D
 67
     1
  8
0
  0
ENDSEC
  0
SECTION
  2
ENTITIES
  0
LINE
  5
60
  8
V2_X8M8_BEARINGS
 10
95.24598110849456
 20
782.6719954725672
 30
0.0
 11
94.29101692492222
 21
782.1206466441154
 31
0.0
  0
LINE
  5
61
  8
V2_X8M8_BEARINGS
 10
94.29101692492222
 20
782.1206466441154
 30
0.0
 11
94.12064664410045
 21
782.2910169249308
 31
0.0
  0
LINE
  5
62
  8
V2_X8M8_BEARINGS
 10
94.12064664410045
 20
782.2910169249308
 30
0.0
 11
94.67199547255338
 21
783.2459811085049
 31
0.0
  0
ARC
  5
63
  8
V2_X8M8_BEARINGS
 10
92.99999999987676
 20
780.9999999998363
 30
0.0
 40
2.800000000204892
 50
53.33457274393658
 51
55.90657380462226
  0
ARC
  5
64
  8
V2_X8M8_BEARINGS
 10
94.39999999999256
 20
783.4248711306006
 30
0.0
 40
0.1999999999998751
 50
327.9532869025819
 51
152.0467130978168
  0
ARC
  5
65
  8
V2_X8M8_BEARINGS
 10
92.99999999995725
 20
780.9999999999018
 30
0.0
 40
2.800000000107133
 50
64.09342619561056
 51
66.6654272563887
  0
LINE
  5
66
  8
V2_X8M8_BEARINGS
 10
94.10907896009259
 20
783.5709811085031
 30
0.0
 11
93.5577301316406
 21
782.6160169249307
 31
0.0
  0
LINE
  5
67
  8
V2_X8M8_BEARINGS
 10
93.5577301316406
 20
782.6160169249307
 30
0.0
 11
93.32499999999135
 21
782.678376775756
 31
0.0
  0
LINE
  5
68
  8
V2_X8M8_BEARINGS
 10
93.32499999999135
 20
782.678376775756
 30
0.0
 11
93.32499999999146
 21
783.7810744326619
 31
0.0
  0
ARC
  5
69
  8
V2_X8M8_BEARINGS
 10
92.99999999998408
 20
780.9999999998618
 30
0.0
 40
2.800000000139139
 50
83.33457274396127
 51
85.90657380470974
  0
ARC
  5
6A
  8
V2_X8M8_BEARINGS
 10
92.99999999999139
 20
783.8
 30
0.0
 40
0.1999999999999246
 50
357.953286902552
 51
182.0467130978064
  0
ARC
  5
6B
  8
V2_X8M8_BEARINGS
 10
93.00000000001796
 20
780.9999999998472
 30
0.0
 40
2.800000000153789
 50
94.09342619566328
 51
96.66542725639952
  0
LINE
  5
6C
  8
V2_X8M8_BEARINGS
 10
92.67499999999137
 20
783.7810744326598
 30
0.0
 11
92.6749999999914
 21
782.6783767757559
 31
0.0
  0
LINE
  5
6D
  8
V2_X8M8_BEARINGS
 10
92.6749999999914
 20
782.6783767757559
 30
0.0
 11
92.44226986834445
 21
782.6160169249222
 31
0.0
  0
LINE
  5
6E
  8
V2_X8M8_BEARINGS
 10
92.44226986834445
 20
782.6160169249222
 30
0.0
 11
91.89092103989245
 21
783.5709811084967
 31
0.0
  0
ARC
  5
6F
  8
V2_X8M8_BEARINGS
 10
93.00000000004479
 20
780.9999999998981
 30
0.0
 40
2.800000000111262
 50
113.334572743954
 51
115.9065738047465
  0
ARC
  5
70
  8
V2_X8M8_BEARINGS
 10
91.59999999999253
 20
783.424871130592
 30
0.0
 40
0.199999999999829
 50
27.95328690255299
 51
212.0467130977746
  0
ARC
  5
71
  8
V2_X8M8_BEARINGS
 10
93.00000000003251
 20
780.9999999999563
 30
0.0
 40
2.800000000054487
 50
124.0934261955679
 51
126.6654272563977
  0
LINE
  5
72
  8
V2_X8M8_BEARINGS
 10
91.32800452743261
 20
783.2459811084946
 30
0.0
 11
91.87935335588466
 21
782.2910169249221
 31
0.0
  0
LINE
  5
73
  8
V2_X8M8_BEARINGS
 10
91.87935335588466
 20
782.2910169249221
 30
0.0
 11
91.70898307506917
 21
782.1206466441004
 31
0.0
  0
LINE
  5
74
  8
V2_X8M8_BEARINGS
 10
91.70898307506917
 20
782.1206466441004
 30
0.0
 11
90.75401889149505
 21
782.6719954725534
 31
0.0
  0
ARC
  5
75
  8
V2_X8M8_BEARINGS
 10
93.0000000000889
 20
780.9999999999345
 30
0.0
 40
2.800000000110427
 50
143.3345727439712
 51
145.9065738047441
  0
ARC
  5
76
  8
V2_X8M8_BEARINGS
 10
90.57512886939928
 20
782.3999999999925
 30
0.0
 40
0.1999999999998526
 50
57.95328690255377
 51
242.0467130978077
  0
ARC
  5
77
  8
V2_X8M8_BEARINGS
 10
93.00000000007503
 20
780.9999999999673
 30
0.0
 40
2.800000000081871
 50
154.0934261955871
 51
156.665427256394
  0
LINE
  5
78
  8
V2_X8M8_BEARINGS
 10
90.42901889149677
 20
782.1090789600923
 30
0.0
 11
91.38398307506918
 21
781.5577301316405
 31
0.0
  0
LINE
  5
79
  8
V2_X8M8_BEARINGS
 10
91.38398307506918
 20
781.5577301316405
 30
0.0
 11
91.32162322424398
 21
781.3249999999913
 31
0.0
  0
LINE
  5
7A
  8
V2_X8M8_BEARINGS
 10
91.32162322424398
 20
781.3249999999913
 30
0.0
 11
90.2189255673381
 21
781.3249999999913
 31
0.0
  0
ARC
  5
7B
  8
V2_X8M8_BEARINGS
 10
93.00000000015916
 20
780.9999999999818
 30
0.0
 40
2.800000000160201
 50
173.3345727439683
 51
175.9065738046954
  0
ARC
  5
7C
  8
V2_X8M8_BEARINGS
 10
90.19999999999993
 20
780.9999999999914
 30
0.0
 40
0.1999999999997725
 50
87.95328690251785
 51
272.0467130978361
  0
ARC
  5
7D
  8
V2_X8M8_BEARINGS
 10
93.00000000013642
 20
781.0000000000146
 30
0.0
 40
2.800000000137195
 50
184.0934261956205
 51
186.6654272563725
  0
LINE
  5
7E
  8
V2_X8M8_BEARINGS
 10
90.21892556734015
 20
780.6749999999912
 30
0.0
 11
91.32162322424404
 21
780.6749999999913
 31
0.0
  0
LINE
  5
7F
  8
V2_X8M8_BEARINGS
 10
91.32162322424404
 20
780.6749999999913
 30
0.0
 11
91.38398307507788
 21
780.4422698683444
 31
0.0
  0
LINE
  5
80
  8
V2_X8M8_BEARINGS
 10
91.38398307507788
 20
780.4422698683444
 30
0.0
 11
90.42901889150379
 21
779.8909210398914
 31
0.0
  0
ARC
  5
81
  8
V2_X8M8_BEARINGS
 10
93.00000000008004
 20
781.0000000000364
 30
0.0
 40
2.800000000087898
 50
203.3345727439961
 51
205.9065738047827
  0
ARC
  5
82
  8
V2_X8M8_BEARINGS
 10
90.57512886940769
 20
779.5999999999925
 30
0.0
 40
0.1999999999999817
 50
117.9532869024791
 51
302.0467130978604
  0
ARC
  5
83
  8
V2_X8M8_BEARINGS
 10
93.00000000007981
 20
781.0000000000618
 30
0.0
 40
2.800000000100952
 50
214.0934261956505
 51
216.6654272564457
  0
LINE
  5
84
  8
V2_X8M8_BEARINGS
 10
90.75401889150572
 20
779.3280045274323
 30
0.0
 11
91.70898307507787
 21
779.8793533558846
 31
0.0
  0
LINE
  5
85
  8
V2_X8M8_BEARINGS
 10
91.70898307507787
 20
779.8793533558846
 30
0.0
 11
91.87935335589955
 21
779.7089830750692
 31
0.0
  0
LINE
  5
86
  8
V2_X8M8_BEARINGS
 10
91.87935335589955
 20
779.7089830750692
 30
0.0
 11
91.32800452744654
 21
778.7540188914952
 31
0.0
  0
ARC
  5
87
  8
V2_X8M8_BEARINGS
 10
93.00000000008276
 20
781.0000000001091
 30
0.0
 40
2.800000000136912
 50
233.3345727439313
 51
235.9065738046811
  0
ARC
  5
88
  8
V2_X8M8_BEARINGS
 10
91.60000000000744
 20
778.5751288693992
 30
0.0
 40
0.1999999999999115
 50
147.9532869025115
 51
332.0467130978282
  0
ARC
  5
89
  8
V2_X8M8_BEARINGS
 10
93.00000000001705
 20
781.00000000004
 30
0.0
 40
2.800000000043564
 50
244.0934261955628
 51
246.665427256403
  0
LINE
  5
8A
  8
V2_X8M8_BEARINGS
 10
91.89092103990754
 20
778.4290188914968
 30
0.0
 11
92.4422698683594
 21
779.3839830750692
 31
0.0
  0
LINE
  5
8B
  8
V2_X8M8_BEARINGS
 10
92.4422698683594
 20
779.3839830750692
 30
0.0
 11
92.67500000000865
 21
779.3216232242439
 31
0.0
  0
LINE
  5
8C
  8
V2_X8M8_BEARINGS
 10
92.67500000000865
 20
779.3216232242439
 30
0.0
 11
92.67500000000862
 21
778.2189255673381
 31
0.0
  0
ARC
  5
8D
  8
V2_X8M8_BEARINGS
 10
93.00000000001705
 20
781.0000000001455
 30
0.0
 40
2.800000000146487
 50
263.3345727439572
 51
265.9065738046974
  0
ARC
  5
8E
  8
V2_X8M8_BEARINGS
 10
93.00000000000864
 20
778.2
 30
0.0
 40
0.1999999999999246
 50
177.953286902552
 51
2.046713097806482
  0
ARC
  5
8F
  8
V2_X8M8_BEARINGS
 10
92.99999999999386
 20
781.0000000000509
 30
0.0
 40
2.80000000005135
 50
274.0934261955713
 51
276.6654272564001
  0
LINE
  5
90
  8
V2_X8M8_BEARINGS
 10
93.32500000000859
 20
778.2189255673401
 30
0.0
 11
93.3250000000086
 21
779.3216232242439
 31
0.0
  0
LINE
  5
91
  8
V2_X8M8_BEARINGS
 10
93.3250000000086
 20
779.3216232242439
 30
0.0
 11
93.55773013165557
 21
779.3839830750776
 31
0.0
  0
LINE
  5
92
  8
V2_X8M8_BEARINGS
 10
93.55773013165557
 20
779.3839830750776
 30
0.0
 11
94.10907896010828
 21
778.4290188915036
 31
0.0
  0
ARC
  5
93
  8
V2_X8M8_BEARINGS
 10
92.99999999995703
 20
781.0000000000982
 30
0.0
 40
2.800000000107279
 50
293.3345727439647
 51
295.9065738047484
  0
ARC
  5
94
  8
V2_X8M8_BEARINGS
 10
94.40000000000761
 20
778.5751288694076
 30
0.0
 40
0.1999999999998103
 50
207.9532869024821
 51
32.04671309788769
  0
ARC
  5
95
  8
V2_X8M8_BEARINGS
 10
92.99999999992906
 20
781.0000000000982
 30
0.0
 40
2.800000000121206
 50
304.0934261955952
 51
306.6654272563616
  0
LINE
  5
96
  8
V2_X8M8_BEARINGS
 10
94.67199547256739
 20
778.7540188915054
 30
0.0
 11
94.12064664411537
 21
779.7089830750776
 31
0.0
  0
LINE
  5
97
  8
V2_X8M8_BEARINGS
 10
94.12064664411537
 20
779.7089830750776
 30
0.0
 11
94.29101692493083
 21
779.8793533558995
 31
0.0
  0
LINE
  5
98
  8
V2_X8M8_BEARINGS
 10
94.29101692493083
 20
779.8793533558995
 30
0.0
 11
95.24598110850471
 21
779.3280045274463
 31
0.0
  0
ARC
  5
99
  8
V2_X8M8_BEARINGS
 10
92.99999999997522
 20
781.0000000000182
 30
0.0
 40
2.800000000030763
 50
323.3345727439554
 51
325.9065738048101
  0
ARC
  5
9A
  8
V2_X8M8_BEARINGS
 10
95.42487113060074
 20
779.6000000000075
 30
0.0
 40
0.1999999999999129
 50
237.9532869025262
 51
62.04671309781934
  0
ARC
  5
9B
  8
V2_X8M8_BEARINGS
 10
92.9999999999086
 20
781.0000000000364
 30
0.0
 40
2.800000000098337
 50
334.0934261956701
 51
336.6654272564558
  0
LINE
  5
9C
  8
V2_X8M8_BEARINGS
 10
95.57098110850318
 20
779.8909210399075
 30
0.0
 11
94.61601692493076
 21
780.4422698683593
 31
0.0
  0
LINE
  5
9D
  8
V2_X8M8_BEARINGS
 10
94.61601692493076
 20
780.4422698683593
 30
0.0
 11
94.67837677575602
 21
780.6750000000086
 31
0.0
  0
LINE
  5
9E
  8
V2_X8M8_BEARINGS
 10
94.67837677575602
 20
780.6750000000086
 30
0.0
 11
95.78107443266197
 21
780.6750000000085
 31
0.0
  0
ARC
  5
9F
  8
V2_X8M8_BEARINGS
 10
93.0
 20
781.0
 30
0.0
 40
2.8
 50
353.3345727387439
 51
355.906573803143
  0
ARC
  5
A0
  8
V2_X8M8_BEARINGS
 10
95.80000000000004
 20
781.0000000000075
 30
0.0
 40
0.1999999999987449
 50
267.9532869025481
 51
92.04671309779081
  0
ARC
  5
A1
  8
V2_X8M8_BEARINGS
 10
92.99999999993292
 20
780.9999999999927
 30
0.0
 40
2.800000000067469
 50
4.093426195522054
 51
6.665427256391629
  0
LINE
  5
A2
  8
V2_X8M8_BEARINGS
 10
95.78107443265984
 20
781.3250000000089
 30
0.0
 11
94.67837677575602
 21
781.3250000000085
 31
0.0
  0
LINE
  5
A3
  8
V2_X8M8_BEARINGS
 10
94.67837677575602
 20
781.3250000000085
 30
0.0
 11
94.61601692492223
 21
781.5577301316555
 31
0.0
  0
LINE
  5
A4
  8
V2_X8M8_BEARINGS
 10
94.61601692492223
 20
781.5577301316555
 30
0.0
 11
95.57098110849627
 21
782.1090789601085
 31
0.0
  0
ARC
  5
A5
  8
V2_X8M8_BEARINGS
 10
92.99999999989018
 20
780.9999999999527
 30
0.0
 40
2.800000000119579
 50
23.33457274395717
 51
25.90657380472362
  0
ARC
  5
A6
  8
V2_X8M8_BEARINGS
 10
95.42487113059217
 20
782.4000000000074
 30
0.0
 40
0.1999999999999612
 50
297.9532869025375
 51
122.0467130978087
  0
ARC
  5
A7
  8
V2_X8M8_BEARINGS
 10
92.9999999998804
 20
780.999999999909
 30
0.0
 40
2.800000000150205
 50
34.09342619569226
 51
36.66542725642631
  0
CIRCLE
  5
A8
  8
V2_X8M8_BEARINGS
 10
80.73915038827624
 20
781.0
 30
0.0
 40
0.670662446391219
  0
CIRCLE
  5
A9
  8
V2_X8M8_BEARINGS
 10
86.73915038827624
 20
781.0
 30
0.0
 40
0.670662446391219
  0
LINE
  5
AA
  8
V2_X8M8_BEARINGS
 10
77.73915038827624
 20
776.4889456564576
 30
0.0
 11
98.03889493421711
 21
776.4889456564576
 31
0.0
  0
LINE
  5
AB
  8
V2_X8M8_BEARINGS
 10
98.03889493421711
 20
776.4889456564576
 30
0.0
 11
98.03889493421711
 21
785.5110543435425
 31
0.0
  0
LINE
  5
AC
  8
V2_X8M8_BEARINGS
 10
98.03889493421711
 20
785.5110543435425
 30
0.0
 11
77.73915038827624
 21
785.5110543435425
 31
0.0
  0
LINE
  5
AD
  8
V2_X8M8_BEARINGS
 10
77.73915038827624
 20
785.5110543435425
 30
0.0
 11
77.73915038827624
 21
776.4889456564576
 31
0.0
  0
ENDSEC
  0
EOF
