  0
SECTION
  2
HEADER
  9
$ACADVER
  1
AC1009
  9
$DWGCODEPAGE
  3
ansi_1252
  9
$INSBASE
 10
0.0
 20
0.0
 30
0.0
  9
$EXTMIN
 10
-225.9591515068389
 20
-81.00000000000001
 30
0.0
  9
$EXTMAX
 10
-98.95915150683888
 20
70.0
 30
0.0
  9
$LIMMIN
 10
0.0
 20
0.0
  9
$LIMMAX
 10
12.0
 20
9.0
  9
$ORTHOMODE
 70
     0
  9
$REGENMODE
 70
     1
  9
$FILLMODE
 70
     1
  9
$QTEXTMODE
 70
     0
  9
$MIRRTEXT
 70
     1
  9
$DRAGMODE
 70
     2
  9
$LTSCALE
 40
1.0
  9
$OSMODE
 70
    37
  9
$ATTMODE
 70
     1
  9
$TEXTSIZE
 40
0.2
  9
$TRACEWID
 40
0.05
  9
$TEXTSTYLE
  7
STANDARD
  9
$CLAYER
  8
DEFAULT
  9
$CELTYPE
  6
BYLAYER
  9
$CECOLOR
 62
   256
  9
$DIMSCALE
 40
1.0
  9
$DIMASZ
 40
0.18
  9
$DIMEXO
 40
0.0625
  9
$DIMDLI
 40
0.38
  9
$DIMRND
 40
0.0
  9
$DIMDLE
 40
0.0
  9
$DIMEXE
 40
0.18
  9
$DIMTP
 40
0.0
  9
$DIMTM
 40
0.0
  9
$DIMTXT
 40
0.18
  9
$DIMCEN
 40
0.09
  9
$DIMTSZ
 40
0.0
  9
$DIMTOL
 70
     0
  9
$DIMLIM
 70
     0
  9
$DIMTIH
 70
     1
  9
$DIMTOH
 70
     1
  9
$DIMSE1
 70
     0
  9
$DIMSE2
 70
     0
  9
$DIMTAD
 70
     0
  9
$DIMZIN
 70
     0
  9
$DIMBLK
  1

  9
$DIMASO
 70
     1
  9
$DIMSHO
 70
     1
  9
$DIMPOST
  1

  9
$DIMAPOST
  1

  9
$DIMALT
 70
     0
  9
$DIMALTD
 70
     2
  9
$DIMALTF
 40
25.4
  9
$DIMLFAC
 40
1.0
  9
$DIMTOFL
 70
     0
  9
$DIMTVP
 40
0.0
  9
$DIMTIX
 70
     0
  9
$DIMSOXD
 70
     0
  9
$DIMSAH
 70
     0
  9
$DIMBLK1
  1

  9
$DIMBLK2
  1

  9
$DIMSTYLE
  2
STANDARD_ACAD
  9
$DIMCLRD
 70
     0
  9
$DIMCLRE
 70
     0
  9
$DIMCLRT
 70
     0
  9
$DIMTFAC
 40
1.0
  9
$DIMGAP
 40
0.09
  9
$LUNITS
 70
     2
  9
$LUPREC
 70
     3
  9
$SKETCHINC
 40
0.1
  9
$FILLETRAD
 40
0.0
  9
$AUNITS
 70
     0
  9
$AUPREC
 70
     0
  9
$MENU
  1
.
  9
$ELEVATION
 40
0.0
  9
$PELEVATION
 40
0.0
  9
$THICKNESS
 40
0.0
  9
$LIMCHECK
 70
     0
  9
$CHAMFERA
 40
0.0
  9
$CHAMFERB
 40
0.0
  9
$SKPOLY
 70
     0
  9
$TDCREATE
 40
2460538.761906829
  9
$TDUPDATE
 40
2460538.761920625
  9
$TDINDWG
 40
0.0000000116
  9
$TDUSRTIMER
 40
0.0000000116
  9
$USRTIMER
 70
     1
  9
$ANGBASE
 50
0.0
  9
$ANGDIR
 70
     0
  9
$PDMODE
 70
     0
  9
$PDSIZE
 40
0.0
  9
$PLINEWID
 40
0.0
  9
$COORDS
 70
     1
  9
$SPLFRAME
 70
     0
  9
$SPLINETYPE
 70
     6
  9
$SPLINESEGS
 70
     8
  9
$ATTDIA
 70
     0
  9
$ATTREQ
 70
     1
  9
$HANDLING
 70
     1
  9
$HANDSEED
  5
AF
  9
$SURFTAB1
 70
     6
  9
$SURFTAB2
 70
     6
  9
$SURFTYPE
 70
     6
  9
$SURFU
 70
     6
  9
$SURFV
 70
     6
  9
$UCSNAME
  2

  9
$UCSORG
 10
0.0
 20
0.0
 30
0.0
  9
$UCSXDIR
 10
1.0
 20
0.0
 30
0.0
  9
$UCSYDIR
 10
0.0
 20
1.0
 30
0.0
  9
$PUCSNAME
  2

  9
$PUCSORG
 10
0.0
 20
0.0
 30
0.0
  9
$PUCSXDIR
 10
1.0
 20
0.0
 30
0.0
  9
$PUCSYDIR
 10
0.0
 20
1.0
 30
0.0
  9
$USERI1
 70
     0
  9
$USERI2
 70
     0
  9
$USERI3
 70
     0
  9
$USERI4
 70
     0
  9
$USERI5
 70
     0
  9
$USERR1
 40
0.0
  9
$USERR2
 40
0.0
  9
$USERR3
 40
0.0
  9
$USERR4
 40
0.0
  9
$USERR5
 40
0.0
  9
$WORLDVIEW
 70
     1
  9
$SHADEDGE
 70
     3
  9
$SHADEDIF
 70
    70
  9
$TILEMODE
 70
     1
  9
$MAXACTVP
 70
    64
  9
$PLIMCHECK
 70
     0
  9
$PEXTMIN
 10
1.000000000000000E+20
 20
1.000000000000000E+20
 30
1.000000000000000E+20
  9
$PEXTMAX
 10
-1.000000000000000E+20
 20
-1.000000000000000E+20
 30
-1.000000000000000E+20
  9
$PLIMMIN
 10
0.0
 20
0.0
  9
$PLIMMAX
 10
12.0
 20
9.0
  9
$UNITMODE
 70
     0
  9
$VISRETAIN
 70
     1
  9
$PLINEGEN
 70
     0
  9
$PSLTSCALE
 70
     1
  0
ENDSEC
  0
SECTION
  2
TABLES
  0
TABLE
  2
VPORT
 70
     1
  0
VPORT
  2
*ACTIVE
 70
     0
 10
0.0
 20
0.0
 11
1.0
 21
1.0
 12
10.42990654205607
 22
4.5
 13
0.0
 23
0.0
 14
0.5
 24
0.5
 15
0.5
 25
0.5
 16
0.0
 26
0.0
 36
1.0
 17
0.0
 27
0.0
 37
0.0
 40
9.0
 41
1.972972972850329
 42
50.0
 43
0.0
 44
0.0
 50
0.0
 51
0.0
 71
     0
 72
   100
 73
     1
 74
     3
 75
     0
 76
     0
 77
     0
 78
     0
  0
ENDTAB
  0
TABLE
  2
LTYPE
 70
     1
  0
LTYPE
  2
CONTINUOUS
 70
     0
  3
Solid line
 72
    65
 73
     0
 40
0.0
  0
ENDTAB
  0
TABLE
  2
LAYER
 70
     2
  0
LAYER
  2
0
 70
     0
 62
     7
  6
CONTINUOUS
  0
LAYER
  2
DEFAULT
 70
     0
 62
     7
  6
CONTINUOUS
  0
ENDTAB
  0
TABLE
  2
STYLE
 70
     1
  0
STYLE
  2
STANDARD
 70
     0
 40
0.0
 41
1.0
 50
0.0
 71
     0
 42
0.2
  3
txt
  4

  0
ENDTAB
  0
TABLE
  2
VIEW
 70
     0
  0
ENDTAB
  0
TABLE
  2
UCS
 70
     0
  0
ENDTAB
  0
TABLE
  2
APPID
 70
     2
  0
APPID
  2
ACAD
 70
     0
  0
APPID
  2
RHINO
 70
     0
  0
ENDTAB
  0
TABLE
  2
DIMSTYLE
 70
     1
  0
DIMSTYLE
  2
STANDARD_ACAD
 70
     0
  3

  4

  5

  6

  7

 40
1.0
 41
0.18
 42
0.0625
 43
0.38
 44
0.18
 45
0.0
 46
0.0
 47
0.0
 48
0.0
140
0.18
141
0.09
142
0.0
143
25.4
144
1.0
145
0.0
146
1.0
147
0.09
 71
     0
 72
     0
 73
     1
 74
     1
 75
     0
 76
     0
 77
     0
 78
     0
170
     0
171
     2
172
     0
173
     0
174
     0
175
     0
176
     0
177
     0
178
     0
  0
ENDTAB
  0
ENDSEC
  0
SECTION
  2
BLOCKS
  0
BLOCK
  8
0
  2
$MODEL_SPACE
 70
     0
 10
0.0
 20
0.0
 30
0.0
  3
$MODEL_SPACE
  1

  0
ENDBLK
  5
21
  8
0
  0
BLOCK
 67
     1
  8
0
  2
$PAPER_SPACE
 70
     0
 10
0.0
 20
0.0
 30
0.0
  3
$PAPER_SPACE
  1

  0
ENDBLK
  5
1D
 67
     1
  8
0
  0
ENDSEC
  0
SECTION
  2
ENTITIES
  0
CIRCLE
  5
60
  8
DEFAULT
 10
127.9591515068389
 20
52.0
 30
0.0
 40
5.0
210
0.0
220
0.0
230
-1.0
  0
CIRCLE
  5
61
  8
DEFAULT
 10
-127.9591515068389
 20
52.00000000000006
 30
0.0
 40
1.5
  0
CIRCLE
  5
62
  8
DEFAULT
 10
-115.9591515068389
 20
52.00000000000006
 30
0.0
 40
1.5
  0
CIRCLE
  5
63
  8
DEFAULT
 10
115.9591515068389
 20
52.0
 30
0.0
 40
5.0
210
0.0
220
0.0
230
-1.0
  0
CIRCLE
  5
64
  8
DEFAULT
 10
199.9591515068389
 20
52.0
 30
0.0
 40
5.0
210
0.0
220
0.0
230
-1.0
  0
CIRCLE
  5
65
  8
DEFAULT
 10
-199.9591515068389
 20
52.00000000000006
 30
0.0
 40
1.5
  0
CIRCLE
  5
66
  8
DEFAULT
 10
-211.9591515068389
 20
52.00000000000006
 30
0.0
 40
1.5
  0
CIRCLE
  5
67
  8
DEFAULT
 10
211.9591515068389
 20
52.0
 30
0.0
 40
5.0
210
0.0
220
0.0
230
-1.0
  0
CIRCLE
  5
68
  8
DEFAULT
 10
-120.7661111207581
 20
52.52362204724424
 30
0.0
 40
16.52362204724424
  0
CIRCLE
  5
69
  8
DEFAULT
 10
-204.7661111207581
 20
52.52362204724424
 30
0.0
 40
16.52362204724424
  0
ARC
  5
6A
  8
DEFAULT
 10
101.9591515068389
 20
-13.99999999999997
 30
0.0
 40
2.999999999999968
 50
89.99999999999919
 51
180.0000000000006
210
0.0
220
0.0
230
-1.0
  0
LINE
  5
6B
  8
DEFAULT
 10
-98.9591515068389
 20
-14.0
 30
0.0
 11
-98.9591515068389
 21
-78.0
 31
0.0
  0
ARC
  5
6C
  8
DEFAULT
 10
101.9591515068389
 20
-77.99999999999999
 30
0.0
 40
3.000000000000028
 50
180.0000000000002
 51
269.9999999999994
210
0.0
220
0.0
230
-1.0
  0
LINE
  5
6D
  8
DEFAULT
 10
-101.9591515068389
 20
-81.0
 30
0.0
 11
-222.9591515068389
 21
-81.0
 31
0.0
  0
ARC
  5
6E
  8
DEFAULT
 10
222.959151506839
 20
-78.0000000000001
 30
0.0
 40
2.999999999999901
 50
269.9999999999984
 51
0.0000000000018999
210
0.0
220
0.0
230
-1.0
  0
LINE
  5
6F
  8
DEFAULT
 10
-225.9591515068389
 20
-78.0
 30
0.0
 11
-225.9591515068389
 21
-14.0
 31
0.0
  0
ARC
  5
70
  8
DEFAULT
 10
222.959151506839
 20
-13.9999999999999
 30
0.0
 40
2.999999999999915
 50
359.9999999999981
 51
90.00000000000162
210
0.0
220
0.0
230
-1.0
  0
LINE
  5
71
  8
DEFAULT
 10
-222.9591515068389
 20
-11.0
 30
0.0
 11
-101.9591515068389
 21
-11.0
 31
0.0
  0
CIRCLE
  5
72
  8
DEFAULT
 10
-103.9660704002826
 20
-75.91969856585042
 30
0.0
 40
1.5
  0
CIRCLE
  5
73
  8
DEFAULT
 10
103.9660704002826
 20
-16.08030143414969
 30
0.0
 40
1.5
210
0.0
220
0.0
230
-1.0
  0
CIRCLE
  5
74
  8
DEFAULT
 10
220.9522326133952
 20
-75.91969856585037
 30
0.0
 40
1.5
210
0.0
220
0.0
230
-1.0
  0
CIRCLE
  5
75
  8
DEFAULT
 10
-220.9591515068389
 20
-15.99999999999994
 30
0.0
 40
1.5
  0
LINE
  5
76
  8
DEFAULT
 10
-168.4591515068389
 20
67.99999999999994
 30
0.0
 11
-168.4591515068389
 21
62.0
 31
0.0
  0
ARC
  5
77
  8
DEFAULT
 10
-166.4591515068389
 20
62.0
 30
0.0
 40
2.0
 50
180.0
 51
269.9999999999992
  0
LINE
  5
78
  8
DEFAULT
 10
-166.4591515068389
 20
60.0
 30
0.0
 11
-158.4591515068389
 21
60.0
 31
0.0
  0
ARC
  5
79
  8
DEFAULT
 10
-158.4591515068389
 20
62.0
 30
0.0
 40
2.0
 50
270.0
 51
0.0
  0
LINE
  5
7A
  8
DEFAULT
 10
-156.4591515068389
 20
62.0
 30
0.0
 11
-156.4591515068389
 21
68.0
 31
0.0
  0
ARC
  5
7B
  8
DEFAULT
 10
154.4591515068389
 20
68.0
 30
0.0
 40
2.0
 50
0.0
 51
90.0
210
0.0
220
0.0
230
-1.0
  0
LINE
  5
7C
  8
DEFAULT
 10
-154.4591515068389
 20
70.0
 30
0.0
 11
-101.9591515068389
 21
70.0
 31
0.0
  0
ARC
  5
7D
  8
DEFAULT
 10
101.9591515068389
 20
67.0
 30
0.0
 40
3.0
 50
90.0
 51
180.0
210
0.0
220
0.0
230
-1.0
  0
LINE
  5
7E
  8
DEFAULT
 10
-98.9591515068389
 20
67.0
 30
0.0
 11
-98.9591515068389
 21
3.000000000000001
 31
0.0
  0
ARC
  5
7F
  8
DEFAULT
 10
101.9591515068389
 20
3.0
 30
0.0
 40
3.0
 50
180.0
 51
270.0
210
0.0
220
0.0
230
-1.0
  0
LINE
  5
80
  8
DEFAULT
 10
-101.9591515068389
 20
0.0
 30
0.0
 11
-222.9591515068389
 21
0.0
 31
0.0
  0
ARC
  5
81
  8
DEFAULT
 10
222.9591515068389
 20
3.0
 30
0.0
 40
3.0
 50
270.0
 51
0.0000000000000085
210
0.0
220
0.0
230
-1.0
  0
LINE
  5
82
  8
DEFAULT
 10
-225.9591515068389
 20
3.0
 30
0.0
 11
-225.9591515068389
 21
67.0
 31
0.0
  0
ARC
  5
83
  8
DEFAULT
 10
222.9591515068389
 20
67.0
 30
0.0
 40
3.0
 50
0.0
 51
90.0
210
0.0
220
0.0
230
-1.0
  0
LINE
  5
84
  8
DEFAULT
 10
-222.9591515068389
 20
70.0
 30
0.0
 11
-170.4591515068389
 21
70.0
 31
0.0
  0
ARC
  5
85
  8
DEFAULT
 10
170.4591515068389
 20
68.0
 30
0.0
 40
2.0
 50
90.0
 51
180.0000000000016
210
0.0
220
0.0
230
-1.0
  0
CIRCLE
  5
86
  8
DEFAULT
 10
-220.9591515068389
 20
65.00000000000006
 30
0.0
 40
1.5
  0
CIRCLE
  5
87
  8
DEFAULT
 10
220.9522326133952
 20
5.080301434149632
 30
0.0
 40
1.5
210
0.0
220
0.0
230
-1.0
  0
CIRCLE
  5
88
  8
DEFAULT
 10
103.9660704002826
 20
64.91969856585031
 30
0.0
 40
1.5
210
0.0
220
0.0
230
-1.0
  0
CIRCLE
  5
89
  8
DEFAULT
 10
-103.9660704002826
 20
5.08030143414958
 30
0.0
 40
1.5
  0
CIRCLE
  5
8A
  8
DEFAULT
 10
-122.3429462744284
 20
11.32004064008128
 30
0.0
 40
3.0
  0
CIRCLE
  5
8B
  8
DEFAULT
 10
-152.6020267925895
 20
35.22707645415292
 30
0.0
 40
1.0
  0
CIRCLE
  5
8C
  8
DEFAULT
 10
-157.6020267925895
 20
35.22707645415292
 30
0.0
 40
1.0
  0
CIRCLE
  5
8D
  8
DEFAULT
 10
-162.6020267925895
 20
35.22707645415292
 30
0.0
 40
1.0
  0
CIRCLE
  5
8E
  8
DEFAULT
 10
-167.6020267925895
 20
35.22707645415292
 30
0.0
 40
1.0
  0
CIRCLE
  5
8F
  8
DEFAULT
 10
-172.6020267925895
 20
35.22707645415292
 30
0.0
 40
1.0
  0
CIRCLE
  5
90
  8
DEFAULT
 10
-152.6020267925895
 20
39.22707645415292
 30
0.0
 40
1.0
  0
CIRCLE
  5
91
  8
DEFAULT
 10
-157.6020267925895
 20
39.22707645415292
 30
0.0
 40
1.0
  0
CIRCLE
  5
92
  8
DEFAULT
 10
-162.6020267925895
 20
39.22707645415292
 30
0.0
 40
1.0
  0
CIRCLE
  5
93
  8
DEFAULT
 10
-167.6020267925895
 20
39.22707645415292
 30
0.0
 40
1.0
  0
CIRCLE
  5
94
  8
DEFAULT
 10
-172.6020267925895
 20
39.22707645415292
 30
0.0
 40
1.0
  0
CIRCLE
  5
95
  8
DEFAULT
 10
-152.6020267925895
 20
43.22707645415292
 30
0.0
 40
1.0
  0
CIRCLE
  5
96
  8
DEFAULT
 10
-157.6020267925895
 20
43.22707645415292
 30
0.0
 40
1.0
  0
CIRCLE
  5
97
  8
DEFAULT
 10
-162.6020267925895
 20
43.22707645415292
 30
0.0
 40
1.0
  0
CIRCLE
  5
98
  8
DEFAULT
 10
-167.6020267925895
 20
43.22707645415292
 30
0.0
 40
1.0
  0
CIRCLE
  5
99
  8
DEFAULT
 10
-172.6020267925895
 20
43.22707645415292
 30
0.0
 40
1.0
  0
CIRCLE
  5
9A
  8
DEFAULT
 10
-152.6020267925895
 20
47.22707645415292
 30
0.0
 40
1.0
  0
CIRCLE
  5
9B
  8
DEFAULT
 10
-157.6020267925895
 20
47.22707645415292
 30
0.0
 40
1.0
  0
CIRCLE
  5
9C
  8
DEFAULT
 10
-162.6020267925895
 20
47.22707645415292
 30
0.0
 40
1.0
  0
CIRCLE
  5
9D
  8
DEFAULT
 10
-167.6020267925895
 20
47.22707645415292
 30
0.0
 40
1.0
  0
CIRCLE
  5
9E
  8
DEFAULT
 10
-172.6020267925895
 20
47.22707645415292
 30
0.0
 40
1.0
  0
CIRCLE
  5
9F
  8
DEFAULT
 10
-152.6020267925895
 20
51.22707645415292
 30
0.0
 40
1.0
  0
CIRCLE
  5
A0
  8
DEFAULT
 10
-157.6020267925895
 20
51.22707645415292
 30
0.0
 40
1.0
  0
CIRCLE
  5
A1
  8
DEFAULT
 10
-162.6020267925895
 20
51.22707645415292
 30
0.0
 40
1.0
  0
CIRCLE
  5
A2
  8
DEFAULT
 10
-167.6020267925895
 20
51.22707645415292
 30
0.0
 40
1.0
  0
CIRCLE
  5
A3
  8
DEFAULT
 10
-172.6020267925895
 20
51.22707645415292
 30
0.0
 40
1.0
  0
LINE
  5
A4
  8
DEFAULT
 10
-211.1471118827596
 20
9.21755143510287
 30
0.0
 11
-199.1471118827596
 21
9.21755143510287
 31
0.0
  0
LINE
  5
A5
  8
DEFAULT
 10
-199.1471118827596
 20
9.21755143510287
 30
0.0
 11
-199.1471118827596
 21
24.21755143510287
 31
0.0
  0
LINE
  5
A6
  8
DEFAULT
 10
-199.1471118827596
 20
24.21755143510287
 30
0.0
 11
-211.1471118827596
 21
24.21755143510287
 31
0.0
  0
LINE
  5
A7
  8
DEFAULT
 10
-211.1471118827596
 20
24.21755143510287
 30
0.0
 11
-211.1471118827596
 21
9.21755143510287
 31
0.0
  0
ENDSEC
  0
EOF
