  0
SECTION
  2
HEADER
  9
$ACADVER
  1
AC1009
  9
$DWGCODEPAGE
  3
ansi_1252
  9
$INSBASE
 10
0.0
 20
0.0
 30
0.0
  9
$EXTMIN
 10
-57.44242381738778
 20
-253.3037525587323
 30
0.003964652856058
  9
$EXTMAX
 10
188.5575761826122
 20
-107.1361245719987
 30
0.003964652856058
  9
$LIMMIN
 10
0.0
 20
0.0
  9
$LIMMAX
 10
12.0
 20
9.0
  9
$ORTHOMODE
 70
     0
  9
$REGENMODE
 70
     1
  9
$FILLMODE
 70
     1
  9
$QTEXTMODE
 70
     0
  9
$MIRRTEXT
 70
     1
  9
$DRAGMODE
 70
     2
  9
$LTSCALE
 40
1.0
  9
$OSMODE
 70
    37
  9
$ATTMODE
 70
     1
  9
$TEXTSIZE
 40
0.2
  9
$TRACEWID
 40
0.05
  9
$TEXTSTYLE
  7
STANDARD
  9
$CLAYER
  8
0
  9
$CELTYPE
  6
BYLAYER
  9
$CECOLOR
 62
   256
  9
$DIMSCALE
 40
1.0
  9
$DIMASZ
 40
0.18
  9
$DIMEXO
 40
0.0625
  9
$DIMDLI
 40
0.38
  9
$DIMRND
 40
0.0
  9
$DIMDLE
 40
0.0
  9
$DIMEXE
 40
0.18
  9
$DIMTP
 40
0.0
  9
$DIMTM
 40
0.0
  9
$DIMTXT
 40
0.18
  9
$DIMCEN
 40
0.09
  9
$DIMTSZ
 40
0.0
  9
$DIMTOL
 70
     0
  9
$DIMLIM
 70
     0
  9
$DIMTIH
 70
     1
  9
$DIMTOH
 70
     1
  9
$DIMSE1
 70
     0
  9
$DIMSE2
 70
     0
  9
$DIMTAD
 70
     0
  9
$DIMZIN
 70
     0
  9
$DIMBLK
  1

  9
$DIMASO
 70
     1
  9
$DIMSHO
 70
     1
  9
$DIMPOST
  1

  9
$DIMAPOST
  1

  9
$DIMALT
 70
     0
  9
$DIMALTD
 70
     2
  9
$DIMALTF
 40
25.4
  9
$DIMLFAC
 40
1.0
  9
$DIMTOFL
 70
     0
  9
$DIMTVP
 40
0.0
  9
$DIMTIX
 70
     0
  9
$DIMSOXD
 70
     0
  9
$DIMSAH
 70
     0
  9
$DIMBLK1
  1

  9
$DIMBLK2
  1

  9
$DIMSTYLE
  2
STANDARD_ACAD
  9
$DIMCLRD
 70
     0
  9
$DIMCLRE
 70
     0
  9
$DIMCLRT
 70
     0
  9
$DIMTFAC
 40
1.0
  9
$DIMGAP
 40
0.09
  9
$LUNITS
 70
     2
  9
$LUPREC
 70
     3
  9
$SKETCHINC
 40
0.1
  9
$FILLETRAD
 40
0.0
  9
$AUNITS
 70
     0
  9
$AUPREC
 70
     0
  9
$MENU
  1
.
  9
$ELEVATION
 40
0.0
  9
$PELEVATION
 40
0.0
  9
$THICKNESS
 40
0.0
  9
$LIMCHECK
 70
     0
  9
$CHAMFERA
 40
0.0
  9
$CHAMFERB
 40
0.0
  9
$SKPOLY
 70
     0
  9
$TDCREATE
 40
2461097.582015197
  9
$TDUPDATE
 40
2461097.582024479
  9
$TDINDWG
 40
0.0000000116
  9
$TDUSRTIMER
 40
0.0000000116
  9
$USRTIMER
 70
     1
  9
$ANGBASE
 50
0.0
  9
$ANGDIR
 70
     0
  9
$PDMODE
 70
     0
  9
$PDSIZE
 40
0.0
  9
$PLINEWID
 40
0.0
  9
$COORDS
 70
     1
  9
$SPLFRAME
 70
     0
  9
$SPLINETYPE
 70
     6
  9
$SPLINESEGS
 70
     8
  9
$ATTDIA
 70
     0
  9
$ATTREQ
 70
     1
  9
$HANDLING
 70
     1
  9
$HANDSEED
  5
1E8
  9
$SURFTAB1
 70
     6
  9
$SURFTAB2
 70
     6
  9
$SURFTYPE
 70
     6
  9
$SURFU
 70
     6
  9
$SURFV
 70
     6
  9
$UCSNAME
  2

  9
$UCSORG
 10
0.0
 20
0.0
 30
0.0
  9
$UCSXDIR
 10
1.0
 20
0.0
 30
0.0
  9
$UCSYDIR
 10
0.0
 20
1.0
 30
0.0
  9
$PUCSNAME
  2

  9
$PUCSORG
 10
0.0
 20
0.0
 30
0.0
  9
$PUCSXDIR
 10
1.0
 20
0.0
 30
0.0
  9
$PUCSYDIR
 10
0.0
 20
1.0
 30
0.0
  9
$USERI1
 70
     0
  9
$USERI2
 70
     0
  9
$USERI3
 70
     0
  9
$USERI4
 70
     0
  9
$USERI5
 70
     0
  9
$USERR1
 40
0.0
  9
$USERR2
 40
0.0
  9
$USERR3
 40
0.0
  9
$USERR4
 40
0.0
  9
$USERR5
 40
0.0
  9
$WORLDVIEW
 70
     1
  9
$SHADEDGE
 70
     3
  9
$SHADEDIF
 70
    70
  9
$TILEMODE
 70
     1
  9
$MAXACTVP
 70
    64
  9
$PLIMCHECK
 70
     0
  9
$PEXTMIN
 10
1.000000000000000E+20
 20
1.000000000000000E+20
 30
1.000000000000000E+20
  9
$PEXTMAX
 10
-1.000000000000000E+20
 20
-1.000000000000000E+20
 30
-1.000000000000000E+20
  9
$PLIMMIN
 10
0.0
 20
0.0
  9
$PLIMMAX
 10
12.0
 20
9.0
  9
$UNITMODE
 70
     0
  9
$VISRETAIN
 70
     1
  9
$PLINEGEN
 70
     0
  9
$PSLTSCALE
 70
     1
  0
ENDSEC
  0
SECTION
  2
TABLES
  0
TABLE
  2
VPORT
 70
     1
  0
VPORT
  2
*ACTIVE
 70
     0
 10
0.0
 20
0.0
 11
1.0
 21
1.0
 12
10.42990654205607
 22
4.5
 13
0.0
 23
0.0
 14
0.5
 24
0.5
 15
0.5
 25
0.5
 16
0.0
 26
0.0
 36
1.0
 17
0.0
 27
0.0
 37
0.0
 40
9.0
 41
1.972972972850329
 42
50.0
 43
0.0
 44
0.0
 50
0.0
 51
0.0
 71
     0
 72
   100
 73
     1
 74
     3
 75
     0
 76
     0
 77
     0
 78
     0
  0
ENDTAB
  0
TABLE
  2
LTYPE
 70
     1
  0
LTYPE
  2
CONTINUOUS
 70
     0
  3
Solid line
 72
    65
 73
     0
 40
0.0
  0
ENDTAB
  0
TABLE
  2
LAYER
 70
     2
  0
LAYER
  2
0
 70
     0
 62
     7
  6
CONTINUOUS
  0
LAYER
  2
JOYSTICK_HULL
 70
     0
 62
   190
  6
CONTINUOUS
  0
ENDTAB
  0
TABLE
  2
STYLE
 70
     1
  0
STYLE
  2
STANDARD
 70
     0
 40
0.0
 41
1.0
 50
0.0
 71
     0
 42
0.2
  3
txt
  4

  0
ENDTAB
  0
TABLE
  2
VIEW
 70
     0
  0
ENDTAB
  0
TABLE
  2
UCS
 70
     0
  0
ENDTAB
  0
TABLE
  2
APPID
 70
     2
  0
APPID
  2
ACAD
 70
     0
  0
APPID
  2
RHINO
 70
     0
  0
ENDTAB
  0
TABLE
  2
DIMSTYLE
 70
     1
  0
DIMSTYLE
  2
STANDARD_ACAD
 70
     0
  3

  4

  5

  6

  7

 40
1.0
 41
0.18
 42
0.0625
 43
0.38
 44
0.18
 45
0.0
 46
0.0
 47
0.0
 48
0.0
140
0.18
141
0.09
142
0.0
143
25.4
144
1.0
145
0.0
146
1.0
147
0.09
 71
     0
 72
     0
 73
     1
 74
     1
 75
     0
 76
     0
 77
     0
 78
     0
170
     0
171
     2
172
     0
173
     0
174
     0
175
     0
176
     0
177
     0
178
     0
  0
ENDTAB
  0
ENDSEC
  0
SECTION
  2
BLOCKS
  0
BLOCK
  8
0
  2
$MODEL_SPACE
 70
     0
 10
0.0
 20
0.0
 30
0.0
  3
$MODEL_SPACE
  1

  0
ENDBLK
  5
21
  8
0
  0
BLOCK
 67
     1
  8
0
  2
$PAPER_SPACE
 70
     0
 10
0.0
 20
0.0
 30
0.0
  3
$PAPER_SPACE
  1

  0
ENDBLK
  5
1D
 67
     1
  8
0
  0
ENDSEC
  0
SECTION
  2
ENTITIES
  0
CIRCLE
  5
60
  8
JOYSTICK_HULL
 10
63.54751694502156
 20
-162.3037525587322
 30
0.003964652856058
 40
1.500000000000007
  0
POLYLINE
  5
61
  8
JOYSTICK_HULL
 66
     1
 10
0.0
 20
0.0
 30
0.003964652856058
 70
     1
  0
VERTEX
  5
62
  8
JOYSTICK_HULL
 10
46.37423394129705
 20
-162.3037525587322
 30
0.003964652856058
 42
0.3062635879208974
  0
VERTEX
  5
63
  8
JOYSTICK_HULL
 10
47.42944549578149
 20
-163.8648840602625
 30
0.003964652856058
 42
-0.3062635879208574
  0
VERTEX
  5
64
  8
JOYSTICK_HULL
 10
48.05664680661235
 20
-164.7927963068428
 30
0.003964652856058
  0
VERTEX
  5
65
  8
JOYSTICK_HULL
 10
48.0566468066123
 20
-171.3122910005942
 30
0.003964652856058
 42
0.4142135623729377
  0
VERTEX
  5
66
  8
JOYSTICK_HULL
 10
49.05664680661182
 20
-172.3122910005941
 30
0.003964652856058
  0
VERTEX
  5
67
  8
JOYSTICK_HULL
 10
58.74805111377973
 20
-172.3122910005985
 30
0.003964652856058
 42
-0.4142135623729619
  0
VERTEX
  5
68
  8
JOYSTICK_HULL
 10
59.7480511137793
 20
-173.3122910005985
 30
0.003964652856058
  0
VERTEX
  5
69
  8
JOYSTICK_HULL
 10
59.74805111377933
 20
-177.5883843497903
 30
0.003964652856058
 42
0.4142135623730324
  0
VERTEX
  5
6A
  8
JOYSTICK_HULL
 10
60.74805111377925
 20
-178.5883843497903
 30
0.003964652856058
  0
VERTEX
  5
6B
  8
JOYSTICK_HULL
 10
61.10102842040342
 20
-178.5883843497903
 30
0.003964652856058
 42
0.2134217652836089
  0
VERTEX
  5
6C
  8
JOYSTICK_HULL
 10
61.32463521815341
 20
-178.4883843497904
 30
0.003964652856058
 42
-1.057279696267404
  0
VERTEX
  5
6D
  8
JOYSTICK_HULL
 10
61.53643861702842
 20
-178.7001877486653
 30
0.003964652856058
 42
0.2134217652834559
  0
VERTEX
  5
6E
  8
JOYSTICK_HULL
 10
61.4364386170284
 20
-178.9237945464153
 30
0.003964652856058
  0
VERTEX
  5
6F
  8
JOYSTICK_HULL
 10
61.43643861702841
 20
-185.6837233498079
 30
0.003964652856058
 42
0.2134217652834245
  0
VERTEX
  5
70
  8
JOYSTICK_HULL
 10
61.53643861702844
 20
-185.9073301475578
 30
0.003964652856058
 42
-1.057279696267608
  0
VERTEX
  5
71
  8
JOYSTICK_HULL
 10
61.3246352181534
 20
-186.1191335464329
 30
0.003964652856058
 42
0.2134217652834579
  0
VERTEX
  5
72
  8
JOYSTICK_HULL
 10
61.10102842040344
 20
-186.0191335464328
 30
0.003964652856058
  0
VERTEX
  5
73
  8
JOYSTICK_HULL
 10
60.74805111377935
 20
-186.0191335464329
 30
0.003964652856058
 42
0.4142135623731605
  0
VERTEX
  5
74
  8
JOYSTICK_HULL
 10
59.74805111377935
 20
-187.0191335464329
 30
0.003964652856058
  0
VERTEX
  5
75
  8
JOYSTICK_HULL
 10
59.74805111377933
 20
-191.2952268956242
 30
0.003964652856058
 42
-0.4142135623731122
  0
VERTEX
  5
76
  8
JOYSTICK_HULL
 10
58.74805111377935
 20
-192.2952268956242
 30
0.003964652856058
  0
VERTEX
  5
77
  8
JOYSTICK_HULL
 10
39.55757618261219
 20
-192.2952268956242
 30
0.003964652856058
 42
0.5990205698350033
  0
VERTEX
  5
78
  8
JOYSTICK_HULL
 10
38.72552430682725
 20
-193.8499247196714
 30
0.003964652856058
  0
VERTEX
  5
79
  8
JOYSTICK_HULL
 10
40.65918541481357
 20
-196.7504342985503
 30
0.003964652856058
 42
0.2734238109569402
  0
VERTEX
  5
7A
  8
JOYSTICK_HULL
 10
43.28732390881972
 20
-198.3037525587322
 30
0.003964652856058
  0
VERTEX
  5
7B
  8
JOYSTICK_HULL
 10
62.95664680661228
 20
-198.3037525587323
 30
0.003964652856058
 42
0.4142135623730954
  0
VERTEX
  5
7C
  8
JOYSTICK_HULL
 10
67.95664680661231
 20
-193.3037525587323
 30
0.003964652856058
  0
VERTEX
  5
7D
  8
JOYSTICK_HULL
 10
67.95664680661233
 20
-131.3037525587322
 30
0.003964652856058
 42
0.4142135623730959
  0
VERTEX
  5
7E
  8
JOYSTICK_HULL
 10
62.95664680661234
 20
-126.3037525587322
 30
0.003964652856058
  0
VERTEX
  5
7F
  8
JOYSTICK_HULL
 10
43.28732390881977
 20
-126.3037525587322
 30
0.003964652856058
 42
0.2734238109569406
  0
VERTEX
  5
80
  8
JOYSTICK_HULL
 10
40.65918541481361
 20
-127.8570708189142
 30
0.003964652856058
  0
VERTEX
  5
81
  8
JOYSTICK_HULL
 10
38.72552430682729
 20
-130.757580397793
 30
0.003964652856058
 42
0.5990205698350232
  0
VERTEX
  5
82
  8
JOYSTICK_HULL
 10
39.55757618261223
 20
-132.3122782218402
 30
0.003964652856058
  0
VERTEX
  5
83
  8
JOYSTICK_HULL
 10
58.74805111377939
 20
-132.3122782218402
 30
0.003964652856058
 42
-0.4142135623730571
  0
VERTEX
  5
84
  8
JOYSTICK_HULL
 10
59.74805111377935
 20
-133.3122782218402
 30
0.003964652856058
  0
VERTEX
  5
85
  8
JOYSTICK_HULL
 10
59.74805111377935
 20
-137.5883715710316
 30
0.003964652856058
 42
0.4142135623731069
  0
VERTEX
  5
86
  8
JOYSTICK_HULL
 10
60.74805111377938
 20
-138.5883715710316
 30
0.003964652856058
  0
VERTEX
  5
87
  8
JOYSTICK_HULL
 10
61.10102842040347
 20
-138.5883715710316
 30
0.003964652856058
 42
0.213421765283427
  0
VERTEX
  5
88
  8
JOYSTICK_HULL
 10
61.32463521815345
 20
-138.4883715710316
 30
0.003964652856058
 42
-1.057279696267301
  0
VERTEX
  5
89
  8
JOYSTICK_HULL
 10
61.53643861702845
 20
-138.7001749699066
 30
0.003964652856058
 42
0.2134217652831882
  0
VERTEX
  5
8A
  8
JOYSTICK_HULL
 10
61.43643861702844
 20
-138.9237817676565
 30
0.003964652856058
  0
VERTEX
  5
8B
  8
JOYSTICK_HULL
 10
61.43643861702841
 20
-145.6837105710491
 30
0.003964652856058
 42
0.2134217652833318
  0
VERTEX
  5
8C
  8
JOYSTICK_HULL
 10
61.53643861702842
 20
-145.9073173687991
 30
0.003964652856058
 42
-1.057279696267411
  0
VERTEX
  5
8D
  8
JOYSTICK_HULL
 10
61.32463521815347
 20
-146.1191207676741
 30
0.003964652856058
 42
0.2134217652834424
  0
VERTEX
  5
8E
  8
JOYSTICK_HULL
 10
61.10102842040345
 20
-146.0191207676741
 30
0.003964652856058
  0
VERTEX
  5
8F
  8
JOYSTICK_HULL
 10
60.74805111377928
 20
-146.0191207676742
 30
0.003964652856058
 42
0.4142135623730559
  0
VERTEX
  5
90
  8
JOYSTICK_HULL
 10
59.74805111377934
 20
-147.0191207676741
 30
0.003964652856058
  0
VERTEX
  5
91
  8
JOYSTICK_HULL
 10
59.74805111377932
 20
-151.295214116866
 30
0.003964652856058
 42
-0.4142135623729533
  0
VERTEX
  5
92
  8
JOYSTICK_HULL
 10
58.74805111377974
 20
-152.295214116866
 30
0.003964652856058
  0
VERTEX
  5
93
  8
JOYSTICK_HULL
 10
49.05664680661183
 20
-152.2952141168703
 30
0.003964652856058
 42
0.4142135623729165
  0
VERTEX
  5
94
  8
JOYSTICK_HULL
 10
48.05664680661231
 20
-153.2952141168703
 30
0.003964652856058
  0
VERTEX
  5
95
  8
JOYSTICK_HULL
 10
48.05664680661233
 20
-159.8147088106217
 30
0.003964652856058
 42
-0.3062635879208027
  0
VERTEX
  5
96
  8
JOYSTICK_HULL
 10
47.42944549578147
 20
-160.7426210572019
 30
0.003964652856058
 42
0.3062635879209147
  0
SEQEND
  5
97
  8
JOYSTICK_HULL
  0
CIRCLE
  5
98
  8
JOYSTICK_HULL
 10
31.96670604420298
 20
-144.3037525587322
 30
0.003964652856058
 40
1.500000000000007
  0
POLYLINE
  5
99
  8
JOYSTICK_HULL
 66
     1
 10
0.0
 20
0.0
 30
0.003964652856058
 70
     1
  0
VERTEX
  5
9A
  8
JOYSTICK_HULL
 10
49.13998904792749
 20
-144.3037525587322
 30
0.003964652856058
 42
0.3062635879208746
  0
VERTEX
  5
9B
  8
JOYSTICK_HULL
 10
48.08477749344306
 20
-142.7426210572019
 30
0.003964652856058
 42
-0.3062635879208438
  0
VERTEX
  5
9C
  8
JOYSTICK_HULL
 10
47.4575761826122
 20
-141.8147088106217
 30
0.003964652856058
  0
VERTEX
  5
9D
  8
JOYSTICK_HULL
 10
47.45757618261223
 20
-135.2952141168703
 30
0.003964652856058
 42
0.4142135623729371
  0
VERTEX
  5
9E
  8
JOYSTICK_HULL
 10
46.45757618261271
 20
-134.2952141168703
 30
0.003964652856058
  0
VERTEX
  5
9F
  8
JOYSTICK_HULL
 10
36.7661718754448
 20
-134.295214116866
 30
0.003964652856058
 42
-0.414213562372982
  0
VERTEX
  5
A0
  8
JOYSTICK_HULL
 10
35.76617187544525
 20
-133.295214116866
 30
0.003964652856058
  0
VERTEX
  5
A1
  8
JOYSTICK_HULL
 10
35.7661718754452
 20
-129.0191207676741
 30
0.003964652856058
 42
0.414213562373043
  0
VERTEX
  5
A2
  8
JOYSTICK_HULL
 10
34.76617187544527
 20
-128.0191207676742
 30
0.003964652856058
  0
VERTEX
  5
A3
  8
JOYSTICK_HULL
 10
34.4131945688211
 20
-128.0191207676742
 30
0.003964652856058
 42
0.2134217652831077
  0
VERTEX
  5
A4
  8
JOYSTICK_HULL
 10
34.1895877710711
 20
-128.1191207676741
 30
0.003964652856058
 42
-1.057279696267454
  0
VERTEX
  5
A5
  8
JOYSTICK_HULL
 10
33.97778437219615
 20
-127.9073173687992
 30
0.003964652856058
 42
0.2134217652832855
  0
VERTEX
  5
A6
  8
JOYSTICK_HULL
 10
34.07778437219613
 20
-127.6837105710492
 30
0.003964652856058
  0
VERTEX
  5
A7
  8
JOYSTICK_HULL
 10
34.07778437219611
 20
-120.9237817676566
 30
0.003964652856058
 42
0.2134217652832667
  0
VERTEX
  5
A8
  8
JOYSTICK_HULL
 10
33.97778437219609
 20
-120.7001749699066
 30
0.003964652856058
 42
-1.057279696267195
  0
VERTEX
  5
A9
  8
JOYSTICK_HULL
 10
34.18958777107109
 20
-120.4883715710316
 30
0.003964652856058
 42
0.2134217652833083
  0
VERTEX
  5
AA
  8
JOYSTICK_HULL
 10
34.41319456882108
 20
-120.5883715710316
 30
0.003964652856058
  0
VERTEX
  5
AB
  8
JOYSTICK_HULL
 10
34.76617187544517
 20
-120.5883715710316
 30
0.003964652856058
 42
0.4142135623730815
  0
VERTEX
  5
AC
  8
JOYSTICK_HULL
 10
35.7661718754452
 20
-119.5883715710316
 30
0.003964652856058
  0
VERTEX
  5
AD
  8
JOYSTICK_HULL
 10
35.7661718754452
 20
-115.3122782218402
 30
0.003964652856058
 42
-0.4142135623730868
  0
VERTEX
  5
AE
  8
JOYSTICK_HULL
 10
36.76617187544517
 20
-114.3122782218403
 30
0.003964652856058
  0
VERTEX
  5
AF
  8
JOYSTICK_HULL
 10
55.95664680661233
 20
-114.3122782218403
 30
0.003964652856058
 42
0.5990205698349753
  0
VERTEX
  5
B0
  8
JOYSTICK_HULL
 10
56.78869868239727
 20
-112.757580397793
 30
0.003964652856058
  0
VERTEX
  5
B1
  8
JOYSTICK_HULL
 10
54.85503757441094
 20
-109.8570708189142
 30
0.003964652856058
 42
0.2734238109569495
  0
VERTEX
  5
B2
  8
JOYSTICK_HULL
 10
52.22689908040479
 20
-108.3037525587322
 30
0.003964652856058
  0
VERTEX
  5
B3
  8
JOYSTICK_HULL
 10
32.55757618261222
 20
-108.3037525587322
 30
0.003964652856058
 42
0.414213562373095
  0
VERTEX
  5
B4
  8
JOYSTICK_HULL
 10
27.55757618261222
 20
-113.3037525587322
 30
0.003964652856058
  0
VERTEX
  5
B5
  8
JOYSTICK_HULL
 10
27.55757618261222
 20
-175.3037525587323
 30
0.003964652856058
 42
0.4142135623730939
  0
VERTEX
  5
B6
  8
JOYSTICK_HULL
 10
32.55757618261222
 20
-180.3037525587322
 30
0.003964652856058
  0
VERTEX
  5
B7
  8
JOYSTICK_HULL
 10
52.22689908040479
 20
-180.3037525587323
 30
0.003964652856058
 42
0.2734238109569547
  0
VERTEX
  5
B8
  8
JOYSTICK_HULL
 10
54.85503757441094
 20
-178.7504342985503
 30
0.003964652856058
  0
VERTEX
  5
B9
  8
JOYSTICK_HULL
 10
56.78869868239727
 20
-175.8499247196714
 30
0.003964652856058
 42
0.5990205698349909
  0
VERTEX
  5
BA
  8
JOYSTICK_HULL
 10
55.95664680661233
 20
-174.2952268956242
 30
0.003964652856058
  0
VERTEX
  5
BB
  8
JOYSTICK_HULL
 10
36.76617187544517
 20
-174.2952268956242
 30
0.003964652856058
 42
-0.4142135623731176
  0
VERTEX
  5
BC
  8
JOYSTICK_HULL
 10
35.7661718754452
 20
-173.2952268956242
 30
0.003964652856058
  0
VERTEX
  5
BD
  8
JOYSTICK_HULL
 10
35.7661718754452
 20
-169.0191335464329
 30
0.003964652856058
 42
0.414213562373126
  0
VERTEX
  5
BE
  8
JOYSTICK_HULL
 10
34.76617187544517
 20
-168.0191335464328
 30
0.003964652856058
  0
VERTEX
  5
BF
  8
JOYSTICK_HULL
 10
34.41319456882108
 20
-168.0191335464328
 30
0.003964652856058
 42
0.2134217652834399
  0
VERTEX
  5
C0
  8
JOYSTICK_HULL
 10
34.18958777107114
 20
-168.1191335464329
 30
0.003964652856058
 42
-1.057279696267695
  0
VERTEX
  5
C1
  8
JOYSTICK_HULL
 10
33.97778437219613
 20
-167.9073301475579
 30
0.003964652856058
 42
0.2134217652833836
  0
VERTEX
  5
C2
  8
JOYSTICK_HULL
 10
34.07778437219613
 20
-167.6837233498079
 30
0.003964652856058
  0
VERTEX
  5
C3
  8
JOYSTICK_HULL
 10
34.07778437219613
 20
-160.9237945464153
 30
0.003964652856058
 42
0.2134217652833588
  0
VERTEX
  5
C4
  8
JOYSTICK_HULL
 10
33.97778437219613
 20
-160.7001877486653
 30
0.003964652856058
 42
-1.057279696267476
  0
VERTEX
  5
C5
  8
JOYSTICK_HULL
 10
34.18958777107115
 20
-160.4883843497903
 30
0.003964652856058
 42
0.2134217652837412
  0
VERTEX
  5
C6
  8
JOYSTICK_HULL
 10
34.4131945688211
 20
-160.5883843497903
 30
0.003964652856058
  0
VERTEX
  5
C7
  8
JOYSTICK_HULL
 10
34.76617187544527
 20
-160.5883843497903
 30
0.003964652856058
 42
0.4142135623730856
  0
VERTEX
  5
C8
  8
JOYSTICK_HULL
 10
35.76617187544518
 20
-159.5883843497904
 30
0.003964652856058
  0
VERTEX
  5
C9
  8
JOYSTICK_HULL
 10
35.76617187544522
 20
-155.3122910005985
 30
0.003964652856058
 42
-0.4142135623729935
  0
VERTEX
  5
CA
  8
JOYSTICK_HULL
 10
36.7661718754448
 20
-154.3122910005985
 30
0.003964652856058
  0
VERTEX
  5
CB
  8
JOYSTICK_HULL
 10
46.45757618261271
 20
-154.3122910005942
 30
0.003964652856058
 42
0.4142135623729686
  0
VERTEX
  5
CC
  8
JOYSTICK_HULL
 10
47.45757618261222
 20
-153.3122910005942
 30
0.003964652856058
  0
VERTEX
  5
CD
  8
JOYSTICK_HULL
 10
47.4575761826122
 20
-146.7927963068428
 30
0.003964652856058
 42
-0.3062635879208592
  0
VERTEX
  5
CE
  8
JOYSTICK_HULL
 10
48.08477749344306
 20
-145.8648840602626
 30
0.003964652856058
 42
0.3062635879208931
  0
SEQEND
  5
CF
  8
JOYSTICK_HULL
  0
CIRCLE
  5
D0
  8
JOYSTICK_HULL
 10
-130.7704586029352
 20
-248.6075051174644
 30
-0.003964652856058
 40
1.5
210
0.0
220
0.0
230
-1.0
  0
CIRCLE
  5
D1
  8
JOYSTICK_HULL
 10
130.7704586029352
 20
-186.0
 30
0.003964652856058
 40
1.5
  0
CIRCLE
  5
D2
  8
JOYSTICK_HULL
 10
-183.5742111616673
 20
-217.3037525587322
 30
-0.003964652856058
 40
1.5
210
0.0
220
0.0
230
-1.0
  0
CIRCLE
  5
D3
  8
JOYSTICK_HULL
 10
77.966706044203
 20
-217.3037525587322
 30
0.003964652856058
 40
1.5
  0
POLYLINE
  5
D4
  8
JOYSTICK_HULL
 66
     1
 10
0.0
 20
0.0
 30
0.003964652856058
 70
     1
  0
VERTEX
  5
D5
  8
JOYSTICK_HULL
 10
93.45757618261226
 20
-192.7716433933122
 30
0.003964652856058
 42
0.1298411442900151
  0
VERTEX
  5
D6
  8
JOYSTICK_HULL
 10
93.32714140000351
 20
-192.2778252762861
 30
0.003964652856058
 42
-0.7616834061215623
  0
VERTEX
  5
D7
  8
JOYSTICK_HULL
 10
93.53164890016613
 20
-192.0733177761234
 30
0.003964652856058
 42
0.1298411442906509
  0
VERTEX
  5
D8
  8
JOYSTICK_HULL
 10
94.02546701719396
 20
-192.2037525587321
 30
0.003964652856058
  0
VERTEX
  5
D9
  8
JOYSTICK_HULL
 10
167.5154501886763
 20
-192.2037525587321
 30
0.003964652856058
 42
0.1298411442907072
  0
VERTEX
  5
DA
  8
JOYSTICK_HULL
 10
168.0092683057042
 20
-192.0733177761234
 30
0.003964652856058
 42
-0.7616834061213736
  0
VERTEX
  5
DB
  8
JOYSTICK_HULL
 10
168.2137758058668
 20
-192.2778252762861
 30
0.003964652856058
 42
0.1298411442902564
  0
VERTEX
  5
DC
  8
JOYSTICK_HULL
 10
168.083341023258
 20
-192.7716433933122
 30
0.003964652856058
  0
VERTEX
  5
DD
  8
JOYSTICK_HULL
 10
168.083341023258
 20
-241.8358617241522
 30
0.003964652856058
 42
0.1298411442901167
  0
VERTEX
  5
DE
  8
JOYSTICK_HULL
 10
168.2137758058667
 20
-242.3296798411783
 30
0.003964652856058
 42
-0.7616834061216075
  0
VERTEX
  5
DF
  8
JOYSTICK_HULL
 10
168.0092683057042
 20
-242.534187341341
 30
0.003964652856058
 42
0.1298411442904434
  0
VERTEX
  5
E0
  8
JOYSTICK_HULL
 10
167.5154501886763
 20
-242.4037525587323
 30
0.003964652856058
  0
VERTEX
  5
E1
  8
JOYSTICK_HULL
 10
94.02546701719396
 20
-242.4037525587323
 30
0.003964652856058
 42
0.1298411442904634
  0
VERTEX
  5
E2
  8
JOYSTICK_HULL
 10
93.53164890016615
 20
-242.534187341341
 30
0.003964652856058
 42
-0.7616834061212543
  0
VERTEX
  5
E3
  8
JOYSTICK_HULL
 10
93.32714140000358
 20
-242.3296798411784
 30
0.003964652856058
 42
0.1298411442900917
  0
VERTEX
  5
E4
  8
JOYSTICK_HULL
 10
93.45757618261226
 20
-241.8358617241522
 30
0.003964652856058
  0
SEQEND
  5
E5
  8
JOYSTICK_HULL
  0
POLYLINE
  5
E6
  8
JOYSTICK_HULL
 66
     1
 10
0.0
 20
0.0
 30
0.003964652856058
 70
     1
  0
VERTEX
  5
E7
  8
JOYSTICK_HULL
 10
187.983341023258
 20
-186.3037525587321
 30
0.003964652856058
 42
0.4142135623730877
  0
VERTEX
  5
E8
  8
JOYSTICK_HULL
 10
182.983341023258
 20
-181.3037525587321
 30
0.003964652856058
  0
VERTEX
  5
E9
  8
JOYSTICK_HULL
 10
78.55757618261224
 20
-181.3037525587321
 30
0.003964652856058
 42
0.4142135623731008
  0
VERTEX
  5
EA
  8
JOYSTICK_HULL
 10
73.55757618261224
 20
-186.3037525587321
 30
0.003964652856058
  0
VERTEX
  5
EB
  8
JOYSTICK_HULL
 10
73.55757618261224
 20
-248.3037525587323
 30
0.003964652856058
 42
0.4142135623730922
  0
VERTEX
  5
EC
  8
JOYSTICK_HULL
 10
78.55757618261224
 20
-253.3037525587322
 30
0.003964652856058
  0
VERTEX
  5
ED
  8
JOYSTICK_HULL
 10
182.983341023258
 20
-253.3037525587323
 30
0.003964652856058
 42
0.414213562373088
  0
VERTEX
  5
EE
  8
JOYSTICK_HULL
 10
187.9833410232581
 20
-248.3037525587323
 30
0.003964652856058
  0
SEQEND
  5
EF
  8
JOYSTICK_HULL
  0
POLYLINE
  5
F0
  8
JOYSTICK_HULL
 66
     1
 10
0.0
 20
0.0
 30
0.003964652856058
 70
     1
  0
VERTEX
  5
F1
  8
JOYSTICK_HULL
 10
78.55757618261218
 20
-179.1361245719988
 30
0.003964652856058
  0
VERTEX
  5
F2
  8
JOYSTICK_HULL
 10
183.5575761826121
 20
-179.1361245719988
 30
0.003964652856058
 42
0.4142135623730993
  0
VERTEX
  5
F3
  8
JOYSTICK_HULL
 10
188.5575761826122
 20
-174.1361245719988
 30
0.003964652856058
  0
VERTEX
  5
F4
  8
JOYSTICK_HULL
 10
188.5575761826121
 20
-112.1361245719987
 30
0.003964652856058
 42
0.4142135623730959
  0
VERTEX
  5
F5
  8
JOYSTICK_HULL
 10
183.5575761826121
 20
-107.1361245719987
 30
0.003964652856058
  0
VERTEX
  5
F6
  8
JOYSTICK_HULL
 10
78.55757618261218
 20
-107.1361245719987
 30
0.003964652856058
 42
0.4142135623730893
  0
VERTEX
  5
F7
  8
JOYSTICK_HULL
 10
73.55757618261215
 20
-112.1361245719987
 30
0.003964652856058
  0
VERTEX
  5
F8
  8
JOYSTICK_HULL
 10
73.55757618261218
 20
-174.1361245719988
 30
0.003964652856058
 42
0.4142135623730995
  0
SEQEND
  5
F9
  8
JOYSTICK_HULL
  0
CIRCLE
  5
FA
  8
JOYSTICK_HULL
 10
129.9999999999999
 20
-161.8323720132665
 30
0.003964652856058
 40
1.5
  0
CIRCLE
  5
FB
  8
JOYSTICK_HULL
 10
145.9999999999999
 20
-137.8323720132666
 30
0.003964652856058
 40
1.5
  0
CIRCLE
  5
FC
  8
JOYSTICK_HULL
 10
99.99999999999993
 20
-138.8323720132666
 30
0.003964652856058
 40
1.500000000000014
  0
CIRCLE
  5
FD
  8
JOYSTICK_HULL
 10
78.25382362388001
 20
-143.1361245719987
 30
0.003964652856058
 40
1.5
  0
CIRCLE
  5
FE
  8
JOYSTICK_HULL
 10
-183.8613287413443
 20
-143.1361245719987
 30
-0.003964652856058
 40
1.5
210
0.0
220
0.0
230
-1.0
  0
CIRCLE
  5
FF
  8
JOYSTICK_HULL
 10
131.0575761826122
 20
-111.8323720132665
 30
0.003964652856058
 40
1.5
  0
CIRCLE
  5
100
  8
JOYSTICK_HULL
 10
-131.0575761826122
 20
-174.439877130731
 30
-0.003964652856058
 40
1.5
210
0.0
220
0.0
230
-1.0
  0
POLYLINE
  5
101
  8
JOYSTICK_HULL
 66
     1
 10
0.0
 20
0.0
 30
0.003964652856058
 70
     1
  0
VERTEX
  5
102
  8
JOYSTICK_HULL
 10
6.139989047927486
 20
-144.3037525587322
 30
0.003964652856058
 42
0.3062635879208787
  0
VERTEX
  5
103
  8
JOYSTICK_HULL
 10
5.084777493443061
 20
-142.7426210572019
 30
0.003964652856058
 42
-0.306263587920842
  0
VERTEX
  5
104
  8
JOYSTICK_HULL
 10
4.457576182612182
 20
-141.8147088106217
 30
0.003964652856058
  0
VERTEX
  5
105
  8
JOYSTICK_HULL
 10
4.457576182612229
 20
-135.2952141168703
 30
0.003964652856058
 42
0.4142135623729341
  0
VERTEX
  5
106
  8
JOYSTICK_HULL
 10
3.457576182612712
 20
-134.2952141168702
 30
0.003964652856058
  0
VERTEX
  5
107
  8
JOYSTICK_HULL
 10
-6.233828124555203
 20
-134.295214116866
 30
0.003964652856058
 42
-0.4142135623729661
  0
VERTEX
  5
108
  8
JOYSTICK_HULL
 10
-7.233828124554758
 20
-133.295214116866
 30
0.003964652856058
  0
VERTEX
  5
109
  8
JOYSTICK_HULL
 10
-7.233828124554805
 20
-129.0191207676741
 30
0.003964652856058
 42
0.4142135623730491
  0
VERTEX
  5
10A
  8
JOYSTICK_HULL
 10
-8.233828124554734
 20
-128.0191207676742
 30
0.003964652856058
  0
VERTEX
  5
10B
  8
JOYSTICK_HULL
 10
-8.586805431178902
 20
-128.0191207676742
 30
0.003964652856058
 42
0.2134217652831473
  0
VERTEX
  5
10C
  8
JOYSTICK_HULL
 10
-8.810412228928868
 20
-128.1191207676741
 30
0.003964652856058
 42
-1.057279696267421
  0
VERTEX
  5
10D
  8
JOYSTICK_HULL
 10
-9.02221562780388
 20
-127.9073173687991
 30
0.003964652856058
 42
0.2134217652833405
  0
VERTEX
  5
10E
  8
JOYSTICK_HULL
 10
-8.922215627803855
 20
-127.6837105710492
 30
0.003964652856058
  0
VERTEX
  5
10F
  8
JOYSTICK_HULL
 10
-8.922215627803894
 20
-120.9237817676566
 30
0.003964652856058
 42
0.2134217652833037
  0
VERTEX
  5
110
  8
JOYSTICK_HULL
 10
-9.022215627803902
 20
-120.7001749699066
 30
0.003964652856058
 42
-1.057279696267269
  0
VERTEX
  5
111
  8
JOYSTICK_HULL
 10
-8.810412228928918
 20
-120.4883715710316
 30
0.003964652856058
 42
0.2134217652832879
  0
VERTEX
  5
112
  8
JOYSTICK_HULL
 10
-8.586805431178917
 20
-120.5883715710316
 30
0.003964652856058
  0
VERTEX
  5
113
  8
JOYSTICK_HULL
 10
-8.233828124554833
 20
-120.5883715710316
 30
0.003964652856058
 42
0.4142135623730882
  0
VERTEX
  5
114
  8
JOYSTICK_HULL
 10
-7.233828124554798
 20
-119.5883715710316
 30
0.003964652856058
  0
VERTEX
  5
115
  8
JOYSTICK_HULL
 10
-7.233828124554805
 20
-115.3122782218402
 30
0.003964652856058
 42
-0.4142135623730924
  0
VERTEX
  5
116
  8
JOYSTICK_HULL
 10
-6.233828124554833
 20
-114.3122782218403
 30
0.003964652856058
  0
VERTEX
  5
117
  8
JOYSTICK_HULL
 10
12.95664680661233
 20
-114.3122782218403
 30
0.003964652856058
 42
0.5990205698349749
  0
VERTEX
  5
118
  8
JOYSTICK_HULL
 10
13.78869868239727
 20
-112.757580397793
 30
0.003964652856058
  0
VERTEX
  5
119
  8
JOYSTICK_HULL
 10
11.85503757441094
 20
-109.8570708189142
 30
0.003964652856058
 42
0.2734238109569479
  0
VERTEX
  5
11A
  8
JOYSTICK_HULL
 10
9.226899080404792
 20
-108.3037525587322
 30
0.003964652856058
  0
VERTEX
  5
11B
  8
JOYSTICK_HULL
 10
-10.44242381738778
 20
-108.3037525587322
 30
0.003964652856058
 42
0.4142135623730954
  0
VERTEX
  5
11C
  8
JOYSTICK_HULL
 10
-15.44242381738777
 20
-113.3037525587322
 30
0.003964652856058
  0
VERTEX
  5
11D
  8
JOYSTICK_HULL
 10
-15.44242381738778
 20
-175.3037525587323
 30
0.003964652856058
 42
0.4142135623730972
  0
VERTEX
  5
11E
  8
JOYSTICK_HULL
 10
-10.44242381738778
 20
-180.3037525587323
 30
0.003964652856058
  0
VERTEX
  5
11F
  8
JOYSTICK_HULL
 10
9.226899080404792
 20
-180.3037525587323
 30
0.003964652856058
 42
0.2734238109569549
  0
VERTEX
  5
120
  8
JOYSTICK_HULL
 10
11.85503757441094
 20
-178.7504342985503
 30
0.003964652856058
  0
VERTEX
  5
121
  8
JOYSTICK_HULL
 10
13.78869868239727
 20
-175.8499247196714
 30
0.003964652856058
 42
0.5990205698349821
  0
VERTEX
  5
122
  8
JOYSTICK_HULL
 10
12.95664680661233
 20
-174.2952268956242
 30
0.003964652856058
  0
VERTEX
  5
123
  8
JOYSTICK_HULL
 10
-6.233828124554833
 20
-174.2952268956242
 30
0.003964652856058
 42
-0.4142135623731262
  0
VERTEX
  5
124
  8
JOYSTICK_HULL
 10
-7.233828124554776
 20
-173.2952268956242
 30
0.003964652856058
  0
VERTEX
  5
125
  8
JOYSTICK_HULL
 10
-7.233828124554805
 20
-169.0191335464329
 30
0.003964652856058
 42
0.4142135623731382
  0
VERTEX
  5
126
  8
JOYSTICK_HULL
 10
-8.233828124554833
 20
-168.0191335464328
 30
0.003964652856058
  0
VERTEX
  5
127
  8
JOYSTICK_HULL
 10
-8.586805431178917
 20
-168.0191335464328
 30
0.003964652856058
 42
0.2134217652834383
  0
VERTEX
  5
128
  8
JOYSTICK_HULL
 10
-8.810412228928868
 20
-168.1191335464329
 30
0.003964652856058
 42
-1.057279696267746
  0
VERTEX
  5
129
  8
JOYSTICK_HULL
 10
-9.02221562780387
 20
-167.9073301475579
 30
0.003964652856058
 42
0.2134217652833644
  0
VERTEX
  5
12A
  8
JOYSTICK_HULL
 10
-8.922215627803899
 20
-167.6837233498079
 30
0.003964652856058
  0
VERTEX
  5
12B
  8
JOYSTICK_HULL
 10
-8.922215627803865
 20
-160.9237945464153
 30
0.003964652856058
 42
0.2134217652833443
  0
VERTEX
  5
12C
  8
JOYSTICK_HULL
 10
-9.022215627803913
 20
-160.7001877486653
 30
0.003964652856058
 42
-1.057279696267348
  0
VERTEX
  5
12D
  8
JOYSTICK_HULL
 10
-8.810412228928891
 20
-160.4883843497903
 30
0.003964652856058
 42
0.2134217652836504
  0
VERTEX
  5
12E
  8
JOYSTICK_HULL
 10
-8.586805431178902
 20
-160.5883843497903
 30
0.003964652856058
  0
VERTEX
  5
12F
  8
JOYSTICK_HULL
 10
-8.233828124554734
 20
-160.5883843497903
 30
0.003964652856058
 42
0.4142135623730716
  0
VERTEX
  5
130
  8
JOYSTICK_HULL
 10
-7.233828124554805
 20
-159.5883843497904
 30
0.003964652856058
  0
VERTEX
  5
131
  8
JOYSTICK_HULL
 10
-7.233828124554776
 20
-155.3122910005985
 30
0.003964652856058
 42
-0.4142135623729917
  0
VERTEX
  5
132
  8
JOYSTICK_HULL
 10
-6.233828124555203
 20
-154.3122910005985
 30
0.003964652856058
  0
VERTEX
  5
133
  8
JOYSTICK_HULL
 10
3.457576182612712
 20
-154.3122910005942
 30
0.003964652856058
 42
0.4142135623729775
  0
VERTEX
  5
134
  8
JOYSTICK_HULL
 10
4.457576182612197
 20
-153.3122910005942
 30
0.003964652856058
  0
VERTEX
  5
135
  8
JOYSTICK_HULL
 10
4.4575761826122
 20
-146.7927963068428
 30
0.003964652856058
 42
-0.3062635879208661
  0
VERTEX
  5
136
  8
JOYSTICK_HULL
 10
5.084777493443057
 20
-145.8648840602626
 30
0.003964652856058
 42
0.3062635879208785
  0
SEQEND
  5
137
  8
JOYSTICK_HULL
  0
CIRCLE
  5
138
  8
JOYSTICK_HULL
 10
-11.03329395579701
 20
-144.3037525587322
 30
0.003964652856058
 40
1.499999999999996
  0
POLYLINE
  5
139
  8
JOYSTICK_HULL
 66
     1
 10
0.0
 20
0.0
 30
0.003964652856058
 70
     1
  0
VERTEX
  5
13A
  8
JOYSTICK_HULL
 10
3.374233941297049
 20
-162.3037525587322
 30
0.003964652856058
 42
0.3062635879208933
  0
VERTEX
  5
13B
  8
JOYSTICK_HULL
 10
4.429445495781479
 20
-163.8648840602626
 30
0.003964652856058
 42
-0.3062635879208799
  0
VERTEX
  5
13C
  8
JOYSTICK_HULL
 10
5.056646806612328
 20
-164.7927963068428
 30
0.003964652856058
  0
VERTEX
  5
13D
  8
JOYSTICK_HULL
 10
5.056646806612299
 20
-171.3122910005942
 30
0.003964652856058
 42
0.414213562372982
  0
VERTEX
  5
13E
  8
JOYSTICK_HULL
 10
6.056646806611816
 20
-172.3122910005942
 30
0.003964652856058
  0
VERTEX
  5
13F
  8
JOYSTICK_HULL
 10
15.74805111377973
 20
-172.3122910005985
 30
0.003964652856058
 42
-0.4142135623729663
  0
VERTEX
  5
140
  8
JOYSTICK_HULL
 10
16.7480511137793
 20
-173.3122910005985
 30
0.003964652856058
  0
VERTEX
  5
141
  8
JOYSTICK_HULL
 10
16.74805111377933
 20
-177.5883843497903
 30
0.003964652856058
 42
0.4142135623730252
  0
VERTEX
  5
142
  8
JOYSTICK_HULL
 10
17.74805111377926
 20
-178.5883843497903
 30
0.003964652856058
  0
VERTEX
  5
143
  8
JOYSTICK_HULL
 10
18.10102842040343
 20
-178.5883843497903
 30
0.003964652856058
 42
0.2134217652835439
  0
VERTEX
  5
144
  8
JOYSTICK_HULL
 10
18.32463521815339
 20
-178.4883843497903
 30
0.003964652856058
 42
-1.057279696267559
  0
VERTEX
  5
145
  8
JOYSTICK_HULL
 10
18.5364386170284
 20
-178.7001877486653
 30
0.003964652856058
 42
0.2134217652833791
  0
VERTEX
  5
146
  8
JOYSTICK_HULL
 10
18.4364386170284
 20
-178.9237945464153
 30
0.003964652856058
  0
VERTEX
  5
147
  8
JOYSTICK_HULL
 10
18.43643861702841
 20
-185.6837233498079
 30
0.003964652856058
 42
0.2134217652835222
  0
VERTEX
  5
148
  8
JOYSTICK_HULL
 10
18.53643861702842
 20
-185.9073301475579
 30
0.003964652856058
 42
-1.057279696267402
  0
VERTEX
  5
149
  8
JOYSTICK_HULL
 10
18.3246352181534
 20
-186.1191335464329
 30
0.003964652856058
 42
0.2134217652835208
  0
VERTEX
  5
14A
  8
JOYSTICK_HULL
 10
18.10102842040344
 20
-186.0191335464328
 30
0.003964652856058
  0
VERTEX
  5
14B
  8
JOYSTICK_HULL
 10
17.74805111377935
 20
-186.0191335464329
 30
0.003964652856058
 42
0.4142135623731386
  0
VERTEX
  5
14C
  8
JOYSTICK_HULL
 10
16.74805111377935
 20
-187.0191335464329
 30
0.003964652856058
  0
VERTEX
  5
14D
  8
JOYSTICK_HULL
 10
16.74805111377932
 20
-191.2952268956242
 30
0.003964652856058
 42
-0.4142135623731035
  0
VERTEX
  5
14E
  8
JOYSTICK_HULL
 10
15.74805111377935
 20
-192.2952268956242
 30
0.003964652856058
  0
VERTEX
  5
14F
  8
JOYSTICK_HULL
 10
-3.442423817387812
 20
-192.2952268956242
 30
0.003964652856058
 42
0.5990205698350083
  0
VERTEX
  5
150
  8
JOYSTICK_HULL
 10
-4.274475693172752
 20
-193.8499247196714
 30
0.003964652856058
  0
VERTEX
  5
151
  8
JOYSTICK_HULL
 10
-2.340814585186429
 20
-196.7504342985503
 30
0.003964652856058
 42
0.2734238109569398
  0
VERTEX
  5
152
  8
JOYSTICK_HULL
 10
0.2873239088197161
 20
-198.3037525587322
 30
0.003964652856058
  0
VERTEX
  5
153
  8
JOYSTICK_HULL
 10
19.95664680661229
 20
-198.3037525587323
 30
0.003964652856058
 42
0.4142135623730971
  0
VERTEX
  5
154
  8
JOYSTICK_HULL
 10
24.9566468066123
 20
-193.3037525587323
 30
0.003964652856058
  0
VERTEX
  5
155
  8
JOYSTICK_HULL
 10
24.95664680661233
 20
-131.3037525587322
 30
0.003964652856058
 42
0.414213562373094
  0
VERTEX
  5
156
  8
JOYSTICK_HULL
 10
19.95664680661234
 20
-126.3037525587322
 30
0.003964652856058
  0
VERTEX
  5
157
  8
JOYSTICK_HULL
 10
0.2873239088197721
 20
-126.3037525587322
 30
0.003964652856058
 42
0.2734238109569456
  0
VERTEX
  5
158
  8
JOYSTICK_HULL
 10
-2.340814585186383
 20
-127.8570708189142
 30
0.003964652856058
  0
VERTEX
  5
159
  8
JOYSTICK_HULL
 10
-4.274475693172711
 20
-130.757580397793
 30
0.003964652856058
 42
0.5990205698350108
  0
VERTEX
  5
15A
  8
JOYSTICK_HULL
 10
-3.44242381738777
 20
-132.3122782218402
 30
0.003964652856058
  0
VERTEX
  5
15B
  8
JOYSTICK_HULL
 10
15.74805111377939
 20
-132.3122782218402
 30
0.003964652856058
 42
-0.4142135623730571
  0
VERTEX
  5
15C
  8
JOYSTICK_HULL
 10
16.74805111377935
 20
-133.3122782218402
 30
0.003964652856058
  0
VERTEX
  5
15D
  8
JOYSTICK_HULL
 10
16.74805111377936
 20
-137.5883715710316
 30
0.003964652856058
 42
0.4142135623731215
  0
VERTEX
  5
15E
  8
JOYSTICK_HULL
 10
17.74805111377939
 20
-138.5883715710316
 30
0.003964652856058
  0
VERTEX
  5
15F
  8
JOYSTICK_HULL
 10
18.10102842040347
 20
-138.5883715710316
 30
0.003964652856058
 42
0.2134217652834478
  0
VERTEX
  5
160
  8
JOYSTICK_HULL
 10
18.32463521815345
 20
-138.4883715710316
 30
0.003964652856058
 42
-1.057279696267249
  0
VERTEX
  5
161
  8
JOYSTICK_HULL
 10
18.53643861702847
 20
-138.7001749699066
 30
0.003964652856058
 42
0.2134217652832028
  0
VERTEX
  5
162
  8
JOYSTICK_HULL
 10
18.43643861702844
 20
-138.9237817676565
 30
0.003964652856058
  0
VERTEX
  5
163
  8
JOYSTICK_HULL
 10
18.43643861702841
 20
-145.6837105710491
 30
0.003964652856058
 42
0.2134217652833323
  0
VERTEX
  5
164
  8
JOYSTICK_HULL
 10
18.53643861702839
 20
-145.9073173687992
 30
0.003964652856058
 42
-1.057279696267588
  0
VERTEX
  5
165
  8
JOYSTICK_HULL
 10
18.32463521815343
 20
-146.1191207676741
 30
0.003964652856058
 42
0.2134217652834288
  0
VERTEX
  5
166
  8
JOYSTICK_HULL
 10
18.10102842040345
 20
-146.0191207676741
 30
0.003964652856058
  0
VERTEX
  5
167
  8
JOYSTICK_HULL
 10
17.74805111377928
 20
-146.0191207676742
 30
0.003964652856058
 42
0.4142135623730541
  0
VERTEX
  5
168
  8
JOYSTICK_HULL
 10
16.74805111377934
 20
-147.0191207676741
 30
0.003964652856058
  0
VERTEX
  5
169
  8
JOYSTICK_HULL
 10
16.74805111377932
 20
-151.295214116866
 30
0.003964652856058
 42
-0.414213562372969
  0
VERTEX
  5
16A
  8
JOYSTICK_HULL
 10
15.74805111377974
 20
-152.295214116866
 30
0.003964652856058
  0
VERTEX
  5
16B
  8
JOYSTICK_HULL
 10
6.05664680661183
 20
-152.2952141168703
 30
0.003964652856058
 42
0.414213562372922
  0
VERTEX
  5
16C
  8
JOYSTICK_HULL
 10
5.056646806612302
 20
-153.2952141168703
 30
0.003964652856058
  0
VERTEX
  5
16D
  8
JOYSTICK_HULL
 10
5.056646806612335
 20
-159.8147088106217
 30
0.003964652856058
 42
-0.3062635879207985
  0
VERTEX
  5
16E
  8
JOYSTICK_HULL
 10
4.42944549578147
 20
-160.7426210572019
 30
0.003964652856058
 42
0.3062635879208933
  0
SEQEND
  5
16F
  8
JOYSTICK_HULL
  0
CIRCLE
  5
170
  8
JOYSTICK_HULL
 10
20.54751694502155
 20
-162.3037525587322
 30
0.003964652856058
 40
1.499999999999996
  0
CIRCLE
  5
171
  8
JOYSTICK_HULL
 10
-21.45248305497845
 20
-162.3037525587322
 30
0.003964652856058
 40
1.499999999999996
  0
POLYLINE
  5
172
  8
JOYSTICK_HULL
 66
     1
 10
0.0
 20
0.0
 30
0.003964652856058
 70
     1
  0
VERTEX
  5
173
  8
JOYSTICK_HULL
 10
-38.62576605870295
 20
-162.3037525587322
 30
0.003964652856058
 42
0.3062635879208987
  0
VERTEX
  5
174
  8
JOYSTICK_HULL
 10
-37.57055450421851
 20
-163.8648840602625
 30
0.003964652856058
 42
-0.3062635879208689
  0
VERTEX
  5
175
  8
JOYSTICK_HULL
 10
-36.94335319338768
 20
-164.7927963068428
 30
0.003964652856058
  0
VERTEX
  5
176
  8
JOYSTICK_HULL
 10
-36.9433531933877
 20
-171.3122910005942
 30
0.003964652856058
 42
0.4142135623729871
  0
VERTEX
  5
177
  8
JOYSTICK_HULL
 10
-35.94335319338818
 20
-172.3122910005942
 30
0.003964652856058
  0
VERTEX
  5
178
  8
JOYSTICK_HULL
 10
-26.25194888622027
 20
-172.3122910005985
 30
0.003964652856058
 42
-0.4142135623729998
  0
VERTEX
  5
179
  8
JOYSTICK_HULL
 10
-25.25194888622071
 20
-173.3122910005985
 30
0.003964652856058
  0
VERTEX
  5
17A
  8
JOYSTICK_HULL
 10
-25.25194888622067
 20
-177.5883843497903
 30
0.003964652856058
 42
0.4142135623730193
  0
VERTEX
  5
17B
  8
JOYSTICK_HULL
 10
-24.25194888622074
 20
-178.5883843497903
 30
0.003964652856058
  0
VERTEX
  5
17C
  8
JOYSTICK_HULL
 10
-23.89897157959657
 20
-178.5883843497903
 30
0.003964652856058
 42
0.2134217652835439
  0
VERTEX
  5
17D
  8
JOYSTICK_HULL
 10
-23.67536478184659
 20
-178.4883843497903
 30
0.003964652856058
 42
-1.057279696267814
  0
VERTEX
  5
17E
  8
JOYSTICK_HULL
 10
-23.46356138297161
 20
-178.7001877486653
 30
0.003964652856058
 42
0.2134217652832998
  0
VERTEX
  5
17F
  8
JOYSTICK_HULL
 10
-23.56356138297162
 20
-178.9237945464153
 30
0.003964652856058
  0
VERTEX
  5
180
  8
JOYSTICK_HULL
 10
-23.56356138297159
 20
-185.6837233498079
 30
0.003964652856058
 42
0.2134217652835675
  0
VERTEX
  5
181
  8
JOYSTICK_HULL
 10
-23.4635613829716
 20
-185.9073301475579
 30
0.003964652856058
 42
-1.057279696267491
  0
VERTEX
  5
182
  8
JOYSTICK_HULL
 10
-23.67536478184657
 20
-186.1191335464328
 30
0.003964652856058
 42
0.213421765283422
  0
VERTEX
  5
183
  8
JOYSTICK_HULL
 10
-23.89897157959656
 20
-186.0191335464328
 30
0.003964652856058
  0
VERTEX
  5
184
  8
JOYSTICK_HULL
 10
-24.25194888622065
 20
-186.0191335464329
 30
0.003964652856058
 42
0.4142135623731445
  0
VERTEX
  5
185
  8
JOYSTICK_HULL
 10
-25.25194888622063
 20
-187.0191335464328
 30
0.003964652856058
  0
VERTEX
  5
186
  8
JOYSTICK_HULL
 10
-25.25194888622068
 20
-191.2952268956242
 30
0.003964652856058
 42
-0.4142135623731035
  0
VERTEX
  5
187
  8
JOYSTICK_HULL
 10
-26.25194888622065
 20
-192.2952268956242
 30
0.003964652856058
  0
VERTEX
  5
188
  8
JOYSTICK_HULL
 10
-45.44242381738781
 20
-192.2952268956242
 30
0.003964652856058
 42
0.5990205698350066
  0
VERTEX
  5
189
  8
JOYSTICK_HULL
 10
-46.27447569317275
 20
-193.8499247196714
 30
0.003964652856058
  0
VERTEX
  5
18A
  8
JOYSTICK_HULL
 10
-44.34081458518643
 20
-196.7504342985503
 30
0.003964652856058
 42
0.2734238109569359
  0
VERTEX
  5
18B
  8
JOYSTICK_HULL
 10
-41.71267609118028
 20
-198.3037525587322
 30
0.003964652856058
  0
VERTEX
  5
18C
  8
JOYSTICK_HULL
 10
-22.04335319338771
 20
-198.3037525587323
 30
0.003964652856058
 42
0.4142135623730943
  0
VERTEX
  5
18D
  8
JOYSTICK_HULL
 10
-17.04335319338769
 20
-193.3037525587323
 30
0.003964652856058
  0
VERTEX
  5
18E
  8
JOYSTICK_HULL
 10
-17.04335319338767
 20
-131.3037525587322
 30
0.003964652856058
 42
0.4142135623730976
  0
VERTEX
  5
18F
  8
JOYSTICK_HULL
 10
-22.04335319338766
 20
-126.3037525587322
 30
0.003964652856058
  0
VERTEX
  5
190
  8
JOYSTICK_HULL
 10
-41.71267609118023
 20
-126.3037525587322
 30
0.003964652856058
 42
0.27342381095695
  0
VERTEX
  5
191
  8
JOYSTICK_HULL
 10
-44.34081458518639
 20
-127.8570708189142
 30
0.003964652856058
  0
VERTEX
  5
192
  8
JOYSTICK_HULL
 10
-46.27447569317271
 20
-130.757580397793
 30
0.003964652856058
 42
0.5990205698349967
  0
VERTEX
  5
193
  8
JOYSTICK_HULL
 10
-45.44242381738777
 20
-132.3122782218402
 30
0.003964652856058
  0
VERTEX
  5
194
  8
JOYSTICK_HULL
 10
-26.25194888622061
 20
-132.3122782218402
 30
0.003964652856058
 42
-0.4142135623730458
  0
VERTEX
  5
195
  8
JOYSTICK_HULL
 10
-25.25194888622065
 20
-133.3122782218402
 30
0.003964652856058
  0
VERTEX
  5
196
  8
JOYSTICK_HULL
 10
-25.25194888622064
 20
-137.5883715710316
 30
0.003964652856058
 42
0.4142135623731046
  0
VERTEX
  5
197
  8
JOYSTICK_HULL
 10
-24.25194888622061
 20
-138.5883715710316
 30
0.003964652856058
  0
VERTEX
  5
198
  8
JOYSTICK_HULL
 10
-23.89897157959653
 20
-138.5883715710316
 30
0.003964652856058
 42
0.2134217652834111
  0
VERTEX
  5
199
  8
JOYSTICK_HULL
 10
-23.67536478184654
 20
-138.4883715710316
 30
0.003964652856058
 42
-1.057279696267301
  0
VERTEX
  5
19A
  8
JOYSTICK_HULL
 10
-23.46356138297154
 20
-138.7001749699066
 30
0.003964652856058
 42
0.2134217652831965
  0
VERTEX
  5
19B
  8
JOYSTICK_HULL
 10
-23.56356138297157
 20
-138.9237817676565
 30
0.003964652856058
  0
VERTEX
  5
19C
  8
JOYSTICK_HULL
 10
-23.56356138297159
 20
-145.6837105710491
 30
0.003964652856058
 42
0.2134217652833159
  0
VERTEX
  5
19D
  8
JOYSTICK_HULL
 10
-23.46356138297162
 20
-145.9073173687992
 30
0.003964652856058
 42
-1.057279696267552
  0
VERTEX
  5
19E
  8
JOYSTICK_HULL
 10
-23.67536478184656
 20
-146.1191207676741
 30
0.003964652856058
 42
0.2134217652833973
  0
VERTEX
  5
19F
  8
JOYSTICK_HULL
 10
-23.89897157959655
 20
-146.0191207676741
 30
0.003964652856058
  0
VERTEX
  5
1A0
  8
JOYSTICK_HULL
 10
-24.25194888622072
 20
-146.0191207676742
 30
0.003964652856058
 42
0.4142135623730511
  0
VERTEX
  5
1A1
  8
JOYSTICK_HULL
 10
-25.25194888622065
 20
-147.0191207676741
 30
0.003964652856058
  0
VERTEX
  5
1A2
  8
JOYSTICK_HULL
 10
-25.25194888622068
 20
-151.295214116866
 30
0.003964652856058
 42
-0.4142135623729726
  0
VERTEX
  5
1A3
  8
JOYSTICK_HULL
 10
-26.25194888622026
 20
-152.295214116866
 30
0.003964652856058
  0
VERTEX
  5
1A4
  8
JOYSTICK_HULL
 10
-35.94335319338817
 20
-152.2952141168703
 30
0.003964652856058
 42
0.4142135623729498
  0
VERTEX
  5
1A5
  8
JOYSTICK_HULL
 10
-36.94335319338768
 20
-153.2952141168703
 30
0.003964652856058
  0
VERTEX
  5
1A6
  8
JOYSTICK_HULL
 10
-36.94335319338767
 20
-159.8147088106217
 30
0.003964652856058
 42
-0.3062635879207788
  0
VERTEX
  5
1A7
  8
JOYSTICK_HULL
 10
-37.57055450421852
 20
-160.7426210572019
 30
0.003964652856058
 42
0.3062635879209071
  0
SEQEND
  5
1A8
  8
JOYSTICK_HULL
  0
CIRCLE
  5
1A9
  8
JOYSTICK_HULL
 10
-53.03329395579701
 20
-144.3037525587322
 30
0.003964652856058
 40
1.5
  0
POLYLINE
  5
1AA
  8
JOYSTICK_HULL
 66
     1
 10
0.0
 20
0.0
 30
0.003964652856058
 70
     1
  0
VERTEX
  5
1AB
  8
JOYSTICK_HULL
 10
-35.86001095207251
 20
-144.3037525587322
 30
0.003964652856058
 42
0.3062635879208759
  0
VERTEX
  5
1AC
  8
JOYSTICK_HULL
 10
-36.91522250655694
 20
-142.7426210572019
 30
0.003964652856058
 42
-0.3062635879208425
  0
VERTEX
  5
1AD
  8
JOYSTICK_HULL
 10
-37.54242381738779
 20
-141.8147088106217
 30
0.003964652856058
  0
VERTEX
  5
1AE
  8
JOYSTICK_HULL
 10
-37.54242381738777
 20
-135.2952141168703
 30
0.003964652856058
 42
0.4142135623729312
  0
VERTEX
  5
1AF
  8
JOYSTICK_HULL
 10
-38.54242381738729
 20
-134.2952141168703
 30
0.003964652856058
  0
VERTEX
  5
1B0
  8
JOYSTICK_HULL
 10
-48.2338281245552
 20
-134.295214116866
 30
0.003964652856058
 42
-0.4142135623729643
  0
VERTEX
  5
1B1
  8
JOYSTICK_HULL
 10
-49.23382812455475
 20
-133.295214116866
 30
0.003964652856058
  0
VERTEX
  5
1B2
  8
JOYSTICK_HULL
 10
-49.2338281245548
 20
-129.0191207676741
 30
0.003964652856058
 42
0.4142135623730587
  0
VERTEX
  5
1B3
  8
JOYSTICK_HULL
 10
-50.23382812455473
 20
-128.0191207676742
 30
0.003964652856058
  0
VERTEX
  5
1B4
  8
JOYSTICK_HULL
 10
-50.5868054311789
 20
-128.0191207676742
 30
0.003964652856058
 42
0.213421765283194
  0
VERTEX
  5
1B5
  8
JOYSTICK_HULL
 10
-50.8104122289289
 20
-128.1191207676741
 30
0.003964652856058
 42
-1.057279696267419
  0
VERTEX
  5
1B6
  8
JOYSTICK_HULL
 10
-51.02221562780385
 20
-127.9073173687992
 30
0.003964652856058
 42
0.2134217652832739
  0
VERTEX
  5
1B7
  8
JOYSTICK_HULL
 10
-50.92221562780387
 20
-127.6837105710492
 30
0.003964652856058
  0
VERTEX
  5
1B8
  8
JOYSTICK_HULL
 10
-50.92221562780389
 20
-120.9237817676566
 30
0.003964652856058
 42
0.2134217652832671
  0
VERTEX
  5
1B9
  8
JOYSTICK_HULL
 10
-51.0222156278039
 20
-120.7001749699066
 30
0.003964652856058
 42
-1.057279696267269
  0
VERTEX
  5
1BA
  8
JOYSTICK_HULL
 10
-50.81041222892891
 20
-120.4883715710316
 30
0.003964652856058
 42
0.2134217652832543
  0
VERTEX
  5
1BB
  8
JOYSTICK_HULL
 10
-50.58680543117892
 20
-120.5883715710316
 30
0.003964652856058
  0
VERTEX
  5
1BC
  8
JOYSTICK_HULL
 10
-50.23382812455483
 20
-120.5883715710316
 30
0.003964652856058
 42
0.4142135623731154
  0
VERTEX
  5
1BD
  8
JOYSTICK_HULL
 10
-49.23382812455483
 20
-119.5883715710316
 30
0.003964652856058
  0
VERTEX
  5
1BE
  8
JOYSTICK_HULL
 10
-49.2338281245548
 20
-115.3122782218402
 30
0.003964652856058
 42
-0.414213562373095
  0
VERTEX
  5
1BF
  8
JOYSTICK_HULL
 10
-48.23382812455483
 20
-114.3122782218403
 30
0.003964652856058
  0
VERTEX
  5
1C0
  8
JOYSTICK_HULL
 10
-29.04335319338767
 20
-114.3122782218403
 30
0.003964652856058
 42
0.5990205698349703
  0
VERTEX
  5
1C1
  8
JOYSTICK_HULL
 10
-28.21130131760274
 20
-112.757580397793
 30
0.003964652856058
  0
VERTEX
  5
1C2
  8
JOYSTICK_HULL
 10
-30.14496242558906
 20
-109.8570708189142
 30
0.003964652856058
 42
0.2734238109569511
  0
VERTEX
  5
1C3
  8
JOYSTICK_HULL
 10
-32.77310091959521
 20
-108.3037525587322
 30
0.003964652856058
  0
VERTEX
  5
1C4
  8
JOYSTICK_HULL
 10
-52.44242381738778
 20
-108.3037525587322
 30
0.003964652856058
 42
0.4142135623730926
  0
VERTEX
  5
1C5
  8
JOYSTICK_HULL
 10
-57.44242381738778
 20
-113.3037525587322
 30
0.003964652856058
  0
VERTEX
  5
1C6
  8
JOYSTICK_HULL
 10
-57.44242381738778
 20
-175.3037525587323
 30
0.003964652856058
 42
0.4142135623730929
  0
VERTEX
  5
1C7
  8
JOYSTICK_HULL
 10
-52.44242381738778
 20
-180.3037525587322
 30
0.003964652856058
  0
VERTEX
  5
1C8
  8
JOYSTICK_HULL
 10
-32.77310091959521
 20
-180.3037525587323
 30
0.003964652856058
 42
0.273423810956948
  0
VERTEX
  5
1C9
  8
JOYSTICK_HULL
 10
-30.14496242558906
 20
-178.7504342985503
 30
0.003964652856058
  0
VERTEX
  5
1CA
  8
JOYSTICK_HULL
 10
-28.21130131760273
 20
-175.8499247196714
 30
0.003964652856058
 42
0.5990205698349749
  0
VERTEX
  5
1CB
  8
JOYSTICK_HULL
 10
-29.04335319338767
 20
-174.2952268956243
 30
0.003964652856058
  0
VERTEX
  5
1CC
  8
JOYSTICK_HULL
 10
-48.23382812455483
 20
-174.2952268956242
 30
0.003964652856058
 42
-0.4142135623731047
  0
VERTEX
  5
1CD
  8
JOYSTICK_HULL
 10
-49.23382812455482
 20
-173.2952268956242
 30
0.003964652856058
  0
VERTEX
  5
1CE
  8
JOYSTICK_HULL
 10
-49.2338281245548
 20
-169.0191335464329
 30
0.003964652856058
 42
0.414213562373147
  0
VERTEX
  5
1CF
  8
JOYSTICK_HULL
 10
-50.23382812455483
 20
-168.0191335464328
 30
0.003964652856058
  0
VERTEX
  5
1D0
  8
JOYSTICK_HULL
 10
-50.58680543117892
 20
-168.0191335464328
 30
0.003964652856058
 42
0.2134217652834472
  0
VERTEX
  5
1D1
  8
JOYSTICK_HULL
 10
-50.8104122289289
 20
-168.1191335464328
 30
0.003964652856058
 42
-1.057279696267556
  0
VERTEX
  5
1D2
  8
JOYSTICK_HULL
 10
-51.02221562780387
 20
-167.9073301475579
 30
0.003964652856058
 42
0.213421765283425
  0
VERTEX
  5
1D3
  8
JOYSTICK_HULL
 10
-50.92221562780387
 20
-167.6837233498079
 30
0.003964652856058
  0
VERTEX
  5
1D4
  8
JOYSTICK_HULL
 10
-50.92221562780387
 20
-160.9237945464153
 30
0.003964652856058
 42
0.2134217652832963
  0
VERTEX
  5
1D5
  8
JOYSTICK_HULL
 10
-51.02221562780387
 20
-160.7001877486653
 30
0.003964652856058
 42
-1.05727969626761
  0
VERTEX
  5
1D6
  8
JOYSTICK_HULL
 10
-50.81041222892884
 20
-160.4883843497903
 30
0.003964652856058
 42
0.2134217652838186
  0
VERTEX
  5
1D7
  8
JOYSTICK_HULL
 10
-50.5868054311789
 20
-160.5883843497903
 30
0.003964652856058
  0
VERTEX
  5
1D8
  8
JOYSTICK_HULL
 10
-50.23382812455473
 20
-160.5883843497903
 30
0.003964652856058
 42
0.4142135623730785
  0
VERTEX
  5
1D9
  8
JOYSTICK_HULL
 10
-49.23382812455483
 20
-159.5883843497904
 30
0.003964652856058
  0
VERTEX
  5
1DA
  8
JOYSTICK_HULL
 10
-49.23382812455478
 20
-155.3122910005985
 30
0.003964652856058
 42
-0.4142135623730185
  0
VERTEX
  5
1DB
  8
JOYSTICK_HULL
 10
-48.2338281245552
 20
-154.3122910005985
 30
0.003964652856058
  0
VERTEX
  5
1DC
  8
JOYSTICK_HULL
 10
-38.54242381738729
 20
-154.3122910005942
 30
0.003964652856058
 42
0.4142135623729402
  0
VERTEX
  5
1DD
  8
JOYSTICK_HULL
 10
-37.54242381738775
 20
-153.3122910005942
 30
0.003964652856058
  0
VERTEX
  5
1DE
  8
JOYSTICK_HULL
 10
-37.5424238173878
 20
-146.7927963068428
 30
0.003964652856058
 42
-0.3062635879208537
  0
VERTEX
  5
1DF
  8
JOYSTICK_HULL
 10
-36.91522250655694
 20
-145.8648840602626
 30
0.003964652856058
 42
0.3062635879208694
  0
SEQEND
  5
1E0
  8
JOYSTICK_HULL
  0
ENDSEC
  0
EOF
