  0
SECTION
  2
HEADER
  9
$ACADVER
  1
AC1009
  9
$DWGCODEPAGE
  3
ansi_1252
  9
$INSBASE
 10
0.0
 20
0.0
 30
0.0
  9
$EXTMIN
 10
99.4938545211341
 20
49.33992242542898
 30
0.0039646528560579
  9
$EXTMAX
 10
174.4938545211341
 20
99.339922425429
 30
0.0039646528560581
  9
$LIMMIN
 10
0.0
 20
0.0
  9
$LIMMAX
 10
12.0
 20
9.0
  9
$ORTHOMODE
 70
     0
  9
$REGENMODE
 70
     1
  9
$FILLMODE
 70
     1
  9
$QTEXTMODE
 70
     0
  9
$MIRRTEXT
 70
     1
  9
$DRAGMODE
 70
     2
  9
$LTSCALE
 40
1.0
  9
$OSMODE
 70
    37
  9
$ATTMODE
 70
     1
  9
$TEXTSIZE
 40
0.2
  9
$TRACEWID
 40
0.05
  9
$TEXTSTYLE
  7
STANDARD
  9
$CLAYER
  8
TRACES
  9
$CELTYPE
  6
BYLAYER
  9
$CECOLOR
 62
   256
  9
$DIMSCALE
 40
1.0
  9
$DIMASZ
 40
0.18
  9
$DIMEXO
 40
0.0625
  9
$DIMDLI
 40
0.38
  9
$DIMRND
 40
0.0
  9
$DIMDLE
 40
0.0
  9
$DIMEXE
 40
0.18
  9
$DIMTP
 40
0.0
  9
$DIMTM
 40
0.0
  9
$DIMTXT
 40
0.18
  9
$DIMCEN
 40
0.09
  9
$DIMTSZ
 40
0.0
  9
$DIMTOL
 70
     0
  9
$DIMLIM
 70
     0
  9
$DIMTIH
 70
     1
  9
$DIMTOH
 70
     1
  9
$DIMSE1
 70
     0
  9
$DIMSE2
 70
     0
  9
$DIMTAD
 70
     0
  9
$DIMZIN
 70
     0
  9
$DIMBLK
  1

  9
$DIMASO
 70
     1
  9
$DIMSHO
 70
     1
  9
$DIMPOST
  1

  9
$DIMAPOST
  1

  9
$DIMALT
 70
     0
  9
$DIMALTD
 70
     2
  9
$DIMALTF
 40
25.4
  9
$DIMLFAC
 40
1.0
  9
$DIMTOFL
 70
     0
  9
$DIMTVP
 40
0.0
  9
$DIMTIX
 70
     0
  9
$DIMSOXD
 70
     0
  9
$DIMSAH
 70
     0
  9
$DIMBLK1
  1

  9
$DIMBLK2
  1

  9
$DIMSTYLE
  2
STANDARD_ACAD
  9
$DIMCLRD
 70
     0
  9
$DIMCLRE
 70
     0
  9
$DIMCLRT
 70
     0
  9
$DIMTFAC
 40
1.0
  9
$DIMGAP
 40
0.09
  9
$LUNITS
 70
     2
  9
$LUPREC
 70
     3
  9
$SKETCHINC
 40
0.1
  9
$FILLETRAD
 40
0.0
  9
$AUNITS
 70
     0
  9
$AUPREC
 70
     0
  9
$MENU
  1
.
  9
$ELEVATION
 40
0.0
  9
$PELEVATION
 40
0.0
  9
$THICKNESS
 40
0.0
  9
$LIMCHECK
 70
     0
  9
$CHAMFERA
 40
0.0
  9
$CHAMFERB
 40
0.0
  9
$SKPOLY
 70
     0
  9
$TDCREATE
 40
2461110.771252037
  9
$TDUPDATE
 40
2461110.771259456
  9
$TDINDWG
 40
0.0000000116
  9
$TDUSRTIMER
 40
0.0000000116
  9
$USRTIMER
 70
     1
  9
$ANGBASE
 50
0.0
  9
$ANGDIR
 70
     0
  9
$PDMODE
 70
     0
  9
$PDSIZE
 40
0.0
  9
$PLINEWID
 40
0.0
  9
$COORDS
 70
     1
  9
$SPLFRAME
 70
     0
  9
$SPLINETYPE
 70
     6
  9
$SPLINESEGS
 70
     8
  9
$ATTDIA
 70
     0
  9
$ATTREQ
 70
     1
  9
$HANDLING
 70
     1
  9
$HANDSEED
  5
275
  9
$SURFTAB1
 70
     6
  9
$SURFTAB2
 70
     6
  9
$SURFTYPE
 70
     6
  9
$SURFU
 70
     6
  9
$SURFV
 70
     6
  9
$UCSNAME
  2

  9
$UCSORG
 10
0.0
 20
0.0
 30
0.0
  9
$UCSXDIR
 10
1.0
 20
0.0
 30
0.0
  9
$UCSYDIR
 10
0.0
 20
1.0
 30
0.0
  9
$PUCSNAME
  2

  9
$PUCSORG
 10
0.0
 20
0.0
 30
0.0
  9
$PUCSXDIR
 10
1.0
 20
0.0
 30
0.0
  9
$PUCSYDIR
 10
0.0
 20
1.0
 30
0.0
  9
$USERI1
 70
     0
  9
$USERI2
 70
     0
  9
$USERI3
 70
     0
  9
$USERI4
 70
     0
  9
$USERI5
 70
     0
  9
$USERR1
 40
0.0
  9
$USERR2
 40
0.0
  9
$USERR3
 40
0.0
  9
$USERR4
 40
0.0
  9
$USERR5
 40
0.0
  9
$WORLDVIEW
 70
     1
  9
$SHADEDGE
 70
     3
  9
$SHADEDIF
 70
    70
  9
$TILEMODE
 70
     1
  9
$MAXACTVP
 70
    64
  9
$PLIMCHECK
 70
     0
  9
$PEXTMIN
 10
1.000000000000000E+20
 20
1.000000000000000E+20
 30
1.000000000000000E+20
  9
$PEXTMAX
 10
-1.000000000000000E+20
 20
-1.000000000000000E+20
 30
-1.000000000000000E+20
  9
$PLIMMIN
 10
0.0
 20
0.0
  9
$PLIMMAX
 10
12.0
 20
9.0
  9
$UNITMODE
 70
     0
  9
$VISRETAIN
 70
     1
  9
$PLINEGEN
 70
     0
  9
$PSLTSCALE
 70
     1
  0
ENDSEC
  0
SECTION
  2
TABLES
  0
TABLE
  2
VPORT
 70
     1
  0
VPORT
  2
*ACTIVE
 70
     0
 10
0.0
 20
0.0
 11
1.0
 21
1.0
 12
10.42990654205607
 22
4.5
 13
0.0
 23
0.0
 14
0.5
 24
0.5
 15
0.5
 25
0.5
 16
0.0
 26
0.0
 36
1.0
 17
0.0
 27
0.0
 37
0.0
 40
9.0
 41
1.972972972850329
 42
50.0
 43
0.0
 44
0.0
 50
0.0
 51
0.0
 71
     0
 72
   100
 73
     1
 74
     3
 75
     0
 76
     0
 77
     0
 78
     0
  0
ENDTAB
  0
TABLE
  2
LTYPE
 70
     1
  0
LTYPE
  2
CONTINUOUS
 70
     0
  3
Solid line
 72
    65
 73
     0
 40
0.0
  0
ENDTAB
  0
TABLE
  2
LAYER
 70
     2
  0
LAYER
  2
0
 70
     0
 62
     7
  6
CONTINUOUS
  0
LAYER
  2
TRACES
 70
     0
 62
     7
  6
CONTINUOUS
  0
ENDTAB
  0
TABLE
  2
STYLE
 70
     1
  0
STYLE
  2
STANDARD
 70
     0
 40
0.0
 41
1.0
 50
0.0
 71
     0
 42
0.2
  3
txt
  4

  0
ENDTAB
  0
TABLE
  2
VIEW
 70
     0
  0
ENDTAB
  0
TABLE
  2
UCS
 70
     0
  0
ENDTAB
  0
TABLE
  2
APPID
 70
     2
  0
APPID
  2
ACAD
 70
     0
  0
APPID
  2
RHINO
 70
     0
  0
ENDTAB
  0
TABLE
  2
DIMSTYLE
 70
     1
  0
DIMSTYLE
  2
STANDARD_ACAD
 70
     0
  3

  4

  5

  6

  7

 40
1.0
 41
0.18
 42
0.0625
 43
0.38
 44
0.18
 45
0.0
 46
0.0
 47
0.0
 48
0.0
140
0.18
141
0.09
142
0.0
143
25.4
144
1.0
145
0.0
146
1.0
147
0.09
 71
     0
 72
     0
 73
     1
 74
     1
 75
     0
 76
     0
 77
     0
 78
     0
170
     0
171
     2
172
     0
173
     0
174
     0
175
     0
176
     0
177
     0
178
     0
  0
ENDTAB
  0
ENDSEC
  0
SECTION
  2
BLOCKS
  0
BLOCK
  8
0
  2
$MODEL_SPACE
 70
     0
 10
0.0
 20
0.0
 30
0.0
  3
$MODEL_SPACE
  1

  0
ENDBLK
  5
21
  8
0
  0
BLOCK
 67
     1
  8
0
  2
$PAPER_SPACE
 70
     0
 10
0.0
 20
0.0
 30
0.0
  3
$PAPER_SPACE
  1

  0
ENDBLK
  5
1D
 67
     1
  8
0
  0
ENDSEC
  0
SECTION
  2
ENTITIES
  0
LINE
  5
60
  8
TRACES
 10
99.4938545211341
 20
49.33992242542898
 30
0.003964652856058
 11
174.4938545211341
 21
49.33992242542898
 31
0.003964652856058
  0
LINE
  5
61
  8
TRACES
 10
174.4938545211341
 20
49.33992242542898
 30
0.003964652856058
 11
174.4938545211341
 21
99.339922425429
 31
0.003964652856058
  0
LINE
  5
62
  8
TRACES
 10
174.4938545211341
 20
99.339922425429
 30
0.003964652856058
 11
99.4938545211341
 21
99.339922425429
 31
0.003964652856058
  0
LINE
  5
63
  8
TRACES
 10
99.4938545211341
 20
99.339922425429
 30
0.003964652856058
 11
99.4938545211341
 21
49.33992242542898
 31
0.003964652856058
  0
ARC
  5
64
  8
TRACES
 10
-103.4935969527079
 20
58.04484465839539
 30
-0.003964652856058
 40
0.7999999999999657
 50
270.0620224945165
 51
314.9999999999949
210
0.0
220
0.0
230
-1.0
  0
LINE
  5
65
  8
TRACES
 10
102.9279115277588
 20
57.47915923344612
 30
0.003964652856058
 11
102.3345583572687
 21
58.07251240393601
 31
0.003964652856058
  0
ARC
  5
66
  8
TRACES
 10
-102.9002437822178
 20
58.63819782888524
 30
-0.003964652856058
 40
0.7999999999998526
 50
314.9999999999903
 51
0.00000000000458
210
0.0
220
0.0
230
-1.0
  0
LINE
  5
67
  8
TRACES
 10
102.1002437822179
 20
58.6381978288853
 30
0.003964652856058
 11
102.1002437822179
 21
59.2943650813896
 31
0.003964652856058
  0
ARC
  5
68
  8
TRACES
 10
-102.9002437822181
 20
59.29436508138953
 30
-0.003964652856058
 40
0.8000000000001961
 50
0.0000000000050889
 51
44.99999999999244
210
0.0
220
0.0
230
-1.0
  0
LINE
  5
69
  8
TRACES
 10
102.3345583572687
 20
59.86005050633883
 30
0.003964652856058
 11
114.0393193930286
 21
71.56481154209877
 31
0.003964652856058
  0
ARC
  5
6A
  8
TRACES
 10
-115.4535329554017
 20
70.15059797972587
 30
-0.003964652856058
 40
1.999999999999825
 50
44.99999999999683
 51
90.00000000000203
210
0.0
220
0.0
230
-1.0
  0
LINE
  5
6B
  8
TRACES
 10
115.4535329554018
 20
72.1505979797257
 30
0.003964652856058
 11
171.2580100892013
 21
72.15059797972572
 31
0.003964652856058
  0
ARC
  5
6C
  8
TRACES
 10
-171.2580100892013
 20
70.15059797972575
 30
-0.003964652856058
 40
1.999999999999972
 50
89.99999999999919
 51
180.0000000000013
210
0.0
220
0.0
230
-1.0
  0
LINE
  5
6D
  8
TRACES
 10
173.2580100892013
 20
70.1505979797257
 30
0.003964652856058
 11
173.2580100892013
 21
52.86618130283515
 31
0.003964652856058
  0
LINE
  5
6E
  8
TRACES
 10
173.2580100892013
 20
52.86618130283515
 30
0.003964652856058
 11
171.850355869132
 21
51.45852708276584
 31
0.003964652856058
  0
LINE
  5
6F
  8
TRACES
 10
171.850355869132
 20
51.45852708276584
 30
0.003964652856058
 11
170.733236145295
 21
51.45852708276583
 31
0.003964652856058
  0
ARC
  5
70
  8
TRACES
 10
-170.7305770432377
 20
51.75551194444213
 30
-0.003964652856058
 40
0.2969967657881857
 50
269.487006667036
 51
353.3322375515708
210
0.0
220
0.0
230
-1.0
  0
ARC
  5
71
  8
TRACES
 10
169.939510751976
 20
51.65852708276588
 30
0.003964652856058
 40
0.4999999999999472
 50
7.18075578145412
 51
90.00000000000651
  0
LINE
  5
72
  8
TRACES
 10
169.9395107519759
 20
52.15852708276583
 30
0.003964652856058
 11
167.3277446218674
 21
52.15852708276584
 31
0.003964652856058
  0
ARC
  5
73
  8
TRACES
 10
167.3277446218946
 20
51.15852708276584
 30
0.003964652856058
 40
1.000000000000007
 50
90.00000000156005
 51
138.189902049517
  0
ARC
  5
74
  8
TRACES
 10
-165.9860992917127
 20
52.35852200275554
 30
-0.003964652856058
 40
0.7999999999999536
 50
221.8100979504836
 51
270.0
210
0.0
220
0.0
230
-1.0
  0
LINE
  5
75
  8
TRACES
 10
165.9860992917127
 20
51.55852200275558
 30
0.003964652856058
 11
145.5943128838291
 21
51.55852200275557
 31
0.003964652856058
  0
ARC
  5
76
  8
TRACES
 10
-145.5943128838291
 20
52.35852200275553
 30
-0.003964652856058
 40
0.7999999999999545
 50
269.9999999999959
 51
314.9821873913341
210
0.0
220
0.0
230
-1.0
  0
LINE
  5
77
  8
TRACES
 10
145.0288033514035
 20
51.79266073995723
 30
0.003964652856058
 11
143.2070388797099
 21
53.61329283179239
 31
0.003964652856058
  0
ARC
  5
78
  8
TRACES
 10
-143.772548412135
 20
54.17915409459053
 30
-0.003964652856058
 40
0.7999999999994709
 50
314.9821873913154
 51
0.0000000000152667
210
0.0
220
0.0
230
-1.0
  0
LINE
  5
79
  8
TRACES
 10
142.9725484121355
 20
54.17915409459075
 30
0.003964652856058
 11
142.9725484121355
 21
56.35951767755256
 31
0.003964652856058
  0
ARC
  5
7A
  8
TRACES
 10
142.1725484121355
 20
56.35951767755255
 30
0.003964652856058
 40
0.8000000000000114
 50
0.0000000000005089
 51
90.0
  0
LINE
  5
7B
  8
TRACES
 10
142.1725484121355
 20
57.15951767755256
 30
0.003964652856058
 11
141.8318851504814
 21
57.15951767755256
 31
0.003964652856058
  0
ARC
  5
7C
  8
TRACES
 10
141.8318851504814
 20
56.35951767755258
 30
0.003964652856058
 40
0.7999999999999758
 50
89.99999999999797
 51
180.000000000001
  0
LINE
  5
7D
  8
TRACES
 10
141.0318851504814
 20
56.35951767755257
 30
0.003964652856058
 11
141.0318851504814
 21
53.69116420000204
 31
0.003964652856058
  0
ARC
  5
7E
  8
TRACES
 10
141.8318851504814
 20
53.69116420000199
 30
0.003964652856058
 40
0.7999999999999545
 50
179.9999999999969
 51
270.000000000002
  0
LINE
  5
7F
  8
TRACES
 10
141.8318851504814
 20
52.89116420000204
 30
0.003964652856058
 11
142.1725484121355
 21
52.89116420000204
 31
0.003964652856058
  0
ARC
  5
80
  8
TRACES
 10
142.1725484121356
 20
53.69116420000119
 30
0.0039646528560581
 40
0.7999999999991516
 50
269.9999999999919
 51
279.7177421048495
  0
ARC
  5
81
  8
TRACES
 10
-142.4426197762805
 20
52.1141222036466
 30
-0.003964652856058
 40
0.7999999999999563
 50
80.28225789515002
 51
135.0108508276566
210
0.0
220
0.0
230
-1.0
  0
LINE
  5
82
  8
TRACES
 10
143.0084123221004
 20
52.67970048743637
 30
0.003964652856058
 11
144.9288632687368
 21
50.75852200275558
 31
0.003964652856058
  0
LINE
  5
83
  8
TRACES
 10
144.9288632687368
 20
50.75852200275558
 30
0.003964652856058
 11
165.9861083791079
 21
50.75852200275558
 31
0.003964652856058
  0
ARC
  5
84
  8
TRACES
 10
-165.986108379108
 20
49.95852200275569
 30
-0.003964652856058
 40
0.7999999999998906
 50
89.99999999999594
 51
138.1894681584116
210
0.0
220
0.0
230
-1.0
  0
ARC
  5
85
  8
TRACES
 10
167.3277446218822
 20
51.15852708274571
 30
0.003964652856058
 40
0.9999999999798969
 50
221.8105318414619
 51
269.99999999993
  0
LINE
  5
86
  8
TRACES
 10
167.327744621881
 20
50.15852708276584
 30
0.003964652856058
 11
169.9395107519759
 21
50.15852708276582
 31
0.003964652856058
  0
ARC
  5
87
  8
TRACES
 10
169.9349872709851
 20
50.66365622809234
 30
0.003964652856058
 40
0.5051493990282236
 50
270.5130756047254
 51
352.3061686138224
  0
ARC
  5
88
  8
TRACES
 10
-170.7332361452954
 20
50.55852708276578
 30
-0.003964652856058
 40
0.3000000000000681
 50
7.180755781466491
 51
89.99999999998914
210
0.0
220
0.0
230
-1.0
  0
LINE
  5
89
  8
TRACES
 10
170.7332361452953
 20
50.85852708276583
 30
0.003964652856058
 11
172.0988840065557
 21
50.85852708276583
 31
0.003964652856058
  0
LINE
  5
8A
  8
TRACES
 10
172.0988840065557
 20
50.85852708276583
 30
0.003964652856058
 11
173.8580100892013
 21
52.61765316541141
 31
0.003964652856058
  0
LINE
  5
8B
  8
TRACES
 10
173.8580100892013
 20
52.61765316541141
 30
0.003964652856058
 11
173.8580100892013
 21
92.86649776172852
 31
0.003964652856058
  0
LINE
  5
8C
  8
TRACES
 10
173.8580100892013
 20
92.86649776172852
 30
0.003964652856058
 11
172.7259858481742
 21
93.99852200275558
 31
0.003964652856058
  0
LINE
  5
8D
  8
TRACES
 10
172.7259858481742
 20
93.99852200275558
 30
0.003964652856058
 11
170.3693644706039
 21
93.99852200275562
 31
0.003964652856058
  0
ARC
  5
8E
  8
TRACES
 10
-170.3641073842069
 20
94.29072448351864
 30
-0.003964652856058
 40
0.2922497677012786
 50
268.9692887969643
 51
339.0063983659995
210
0.0
220
0.0
230
-1.0
  0
ARC
  5
8F
  8
TRACES
 10
169.6277446218945
 20
93.9985220027557
 30
0.003964652856058
 40
0.4999999999999277
 50
22.0243128370297
 51
90.0
  0
LINE
  5
90
  8
TRACES
 10
169.6277446218945
 20
94.49852200275564
 30
0.003964652856058
 11
167.6384286699952
 21
94.4985220027556
 31
0.003964652856058
  0
ARC
  5
91
  8
TRACES
 10
167.6384284841316
 20
93.69852200275564
 30
0.003964652856058
 40
0.7999999999999903
 50
89.99998668850438
 51
269.9999999999959
  0
LINE
  5
92
  8
TRACES
 10
167.6384284841316
 20
92.89852200275564
 30
0.003964652856058
 11
169.6277446218945
 21
92.89852200275561
 31
0.003964652856058
  0
ARC
  5
93
  8
TRACES
 10
169.618493354889
 20
93.41224384922948
 30
0.003964652856058
 40
0.5138051396061839
 50
271.0316891720588
 51
336.9439979909168
  0
ARC
  5
94
  8
TRACES
 10
-170.3693644706039
 20
93.0985220027557
 30
-0.003964652856058
 40
0.2999999999998844
 50
22.02431283705637
 51
90.00000000001629
210
0.0
220
0.0
230
-1.0
  0
LINE
  5
95
  8
TRACES
 10
170.369364470604
 20
93.39852200275561
 30
0.003964652856058
 11
172.4774577107504
 21
93.39852200275558
 31
0.003964652856058
  0
LINE
  5
96
  8
TRACES
 10
172.4774577107504
 20
93.39852200275558
 30
0.003964652856058
 11
173.2580100892013
 21
92.61796962430468
 31
0.003964652856058
  0
LINE
  5
97
  8
TRACES
 10
173.2580100892013
 20
92.61796962430468
 30
0.003964652856058
 11
173.2580100891964
 21
74.75059797972571
 31
0.003964652856058
  0
ARC
  5
98
  8
TRACES
 10
-171.2580100891965
 20
74.75059797972565
 30
-0.003964652856058
 40
1.999999999999943
 50
179.9999999999984
 51
270.0000000000016
210
0.0
220
0.0
230
-1.0
  0
LINE
  5
99
  8
TRACES
 10
171.2580100891964
 20
72.7505979797257
 30
0.003964652856058
 11
116.8008417619214
 21
72.75059797972567
 31
0.003964652856058
  0
ARC
  5
9A
  8
TRACES
 10
-116.8008417619429
 20
74.75059797972565
 30
-0.003964652856058
 40
1.999999999999986
 50
270.0000000006144
 51
359.9999999999812
210
0.0
220
0.0
230
-1.0
  0
LINE
  5
9B
  8
TRACES
 10
114.8008417619429
 20
74.750597979725
 30
0.003964652856058
 11
114.8008417619392
 21
84.72113491245128
 31
0.003964652856058
  0
ARC
  5
9C
  8
TRACES
 10
-115.0908564502135
 20
84.72655020806152
 30
-0.003964652856058
 40
0.2900652423876548
 50
358.9302695925842
 51
58.01399925625071
210
0.0
220
0.0
230
-1.0
  0
ARC
  5
9D
  8
TRACES
 10
114.5008417619337
 20
85.64308935817522
 30
0.003964652856058
 40
0.799999999998473
 50
303.0557311512762
 51
0.0000000001139911
  0
LINE
  5
9E
  8
TRACES
 10
115.3008417619321
 20
85.64308935817681
 30
0.003964652856058
 11
115.3008417619178
 21
89.81311712459032
 31
0.003964652856058
  0
ARC
  5
9F
  8
TRACES
 10
114.5008417619139
 20
89.81311731866468
 30
0.003964652856058
 40
0.8000000000039286
 50
359.9999861004478
 51
56.94426884746635
  0
ARC
  5
A0
  8
TRACES
 10
-115.1008417619437
 20
90.73507176437934
 30
-0.003964652856058
 40
0.3000000000000994
 50
303.0557311526794
 51
359.9999999999919
210
0.0
220
0.0
230
-1.0
  0
LINE
  5
A1
  8
TRACES
 10
114.8008417619436
 20
90.7350717643793
 30
0.003964652856058
 11
114.8008417619436
 21
91.92366608898625
 31
0.003964652856058
  0
LINE
  5
A2
  8
TRACES
 10
114.8008417619436
 20
91.92366608898625
 30
0.003964652856058
 11
112.7259858481744
 21
93.99852200275542
 31
0.003964652856058
  0
LINE
  5
A3
  8
TRACES
 10
112.7259858481744
 20
93.99852200275542
 30
0.003964652856058
 11
107.7889139994209
 21
93.99852200275544
 31
0.003964652856058
  0
ARC
  5
A4
  8
TRACES
 10
-107.7836569130239
 20
94.29072448351837
 30
-0.003964652856058
 40
0.2922497677011935
 50
268.9692887969613
 51
339.0063983660199
210
0.0
220
0.0
230
-1.0
  0
ARC
  5
A5
  8
TRACES
 10
107.0472941507116
 20
93.99852200275548
 30
0.003964652856058
 40
0.4999999999998676
 50
22.02431283704303
 51
90.0000000000114
  0
LINE
  5
A6
  8
TRACES
 10
107.0472941507115
 20
94.49852200275535
 30
0.003964652856058
 11
105.0579780129486
 21
94.49852200275535
 31
0.003964652856058
  0
ARC
  5
A7
  8
TRACES
 10
105.0579780129486
 20
93.69852200275538
 30
0.003964652856058
 40
0.7999999999999687
 50
90.0
 51
270.0000133114987
  0
LINE
  5
A8
  8
TRACES
 10
105.0579781988122
 20
92.89852200275539
 30
0.003964652856058
 11
107.0472941507115
 21
92.89852200275533
 31
0.003964652856058
  0
ARC
  5
A9
  8
TRACES
 10
107.038042883706
 20
93.41224384922948
 30
0.003964652856058
 40
0.5138051396064688
 50
271.0316891720631
 51
336.9439979908857
  0
ARC
  5
AA
  8
TRACES
 10
-107.7889139994212
 20
93.09852200275536
 30
-0.003964652856058
 40
0.300000000000008
 50
22.02431283703511
 51
89.99999999999459
210
0.0
220
0.0
230
-1.0
  0
LINE
  5
AB
  8
TRACES
 10
107.7889139994211
 20
93.39852200275539
 30
0.003964652856058
 11
112.4774577107506
 21
93.39852200275543
 31
0.003964652856058
  0
LINE
  5
AC
  8
TRACES
 10
112.4774577107506
 20
93.39852200275543
 30
0.003964652856058
 11
114.2008417619436
 21
91.6751379515624
 31
0.003964652856058
  0
LINE
  5
AD
  8
TRACES
 10
114.2008417619436
 20
91.6751379515624
 30
0.003964652856058
 11
114.2008417619436
 21
90.73507176441873
 31
0.003964652856058
  0
ARC
  5
AE
  8
TRACES
 10
-113.9029532787887
 20
90.73392663362887
 30
-0.003964652856058
 40
0.2978906841794049
 50
179.7797469799209
 51
237.1645218712685
210
0.0
220
0.0
230
-1.0
  0
ARC
  5
AF
  8
TRACES
 10
114.5008417619135
 20
89.81311731866467
 30
0.003964652856058
 40
0.8000000000042787
 50
123.055731148855
 51
180.0000000000041
  0
LINE
  5
B0
  8
TRACES
 10
113.7008417619092
 20
89.81311731866461
 30
0.003964652856058
 11
113.7008417619093
 21
85.64308935817681
 31
0.003964652856058
  0
ARC
  5
B1
  8
TRACES
 10
114.5294109350912
 20
85.65858316772216
 30
0.003964652856058
 40
0.828714023582134
 50
181.0712762132619
 51
235.8729926380417
  0
ARC
  5
B2
  8
TRACES
 10
-113.9008417619437
 20
84.72113491242523
 30
-0.003964652856058
 40
0.2999999999998806
 50
123.0557311487689
 51
180.0000000000082
210
0.0
220
0.0
230
-1.0
  0
LINE
  5
B3
  8
TRACES
 10
114.2008417619436
 20
84.72113491242519
 30
0.003964652856058
 11
114.2008417619436
 21
81.1532891731838
 31
0.003964652856058
  0
ARC
  5
B4
  8
TRACES
 10
-112.2008417619436
 20
81.15328917318381
 30
-0.003964652856058
 40
2.000000000000057
 50
180.0000000000004
 51
224.999999999996
210
0.0
220
0.0
230
-1.0
  0
LINE
  5
B5
  8
TRACES
 10
113.6150553243168
 20
79.73907561081077
 30
0.003964652856058
 11
106.9031260476266
 21
73.02714633412062
 31
0.003964652856058
  0
LINE
  5
B6
  8
TRACES
 10
106.9031260476266
 20
73.02714633412062
 30
0.003964652856058
 11
105.766087752695
 21
73.02714633412056
 31
0.003964652856058
  0
ARC
  5
B7
  8
TRACES
 10
-105.7606724570847
 20
73.31716102239477
 30
-0.003964652856058
 40
0.2900652423875293
 50
268.9302695925585
 51
328.0139992569089
210
0.0
220
0.0
230
-1.0
  0
ARC
  5
B8
  8
TRACES
 10
104.8441333069629
 20
72.72714633412515
 30
0.003964652856058
 40
0.7999999999998445
 50
33.05573115058934
 51
90.00000000000611
  0
LINE
  5
B9
  8
TRACES
 10
104.8441333069629
 20
73.527146334125
 30
0.003964652856058
 11
102.4371513153685
 21
73.52714633412484
 31
0.003964652856058
  0
ARC
  5
BA
  8
TRACES
 10
102.4371513153686
 20
72.72714633412475
 30
0.003964652856058
 40
0.8000000000000824
 50
90.00000000000408
 51
179.999999999999
  0
ARC
  5
BB
  8
TRACES
 10
102.4371513153685
 20
72.72714633411621
 30
0.003964652856058
 40
0.7999999999999972
 50
179.9999999993873
 51
270.0000000000051
  0
LINE
  5
BC
  8
TRACES
 10
102.4371513153686
 20
71.92714633411623
 30
0.003964652856058
 11
104.8441333069629
 21
71.9271463341164
 31
0.003964652856058
  0
ARC
  5
BD
  8
TRACES
 10
104.8286394974185
 20
72.75571550729445
 30
0.003964652856058
 40
0.8287140235781947
 50
271.0712762132011
 51
325.872992636377
  0
ARC
  5
BE
  8
TRACES
 10
-105.7660877526932
 20
72.12714633412057
 30
-0.003964652856058
 40
0.3000000000000592
 50
33.05573115072207
 51
90.00000000101778
210
0.0
220
0.0
230
-1.0
  0
LINE
  5
BF
  8
TRACES
 10
105.7660877526986
 20
72.42714633412061
 30
0.003964652856058
 11
107.1516541850505
 21
72.42714633412062
 31
0.003964652856058
  0
LINE
  5
C0
  8
TRACES
 10
107.1516541850505
 20
72.42714633412062
 30
0.003964652856058
 11
110.786628199572
 21
76.06212034864218
 31
0.003964652856058
  0
ARC
  5
C1
  8
TRACES
 10
-112.2008417619452
 20
74.64790678626919
 30
-0.003964652856058
 40
1.999999999999986
 50
44.99999999999626
 51
179.9999999999788
210
0.0
220
0.0
230
-1.0
  0
LINE
  5
C2
  8
TRACES
 10
114.2008417619452
 20
74.64790678626993
 30
0.003964652856058
 11
114.2008417619456
 21
73.40328917318391
 31
0.003964652856058
  0
ARC
  5
C3
  8
TRACES
 10
-112.2008417619455
 20
73.40328917318587
 30
-0.003964652856058
 40
2.000000000000071
 50
180.0000000000562
 51
224.999999999772
210
0.0
220
0.0
230
-1.0
  0
LINE
  5
C4
  8
TRACES
 10
113.6150553243243
 20
71.98907561081835
 30
0.003964652856058
 11
101.5002437822179
 21
59.87426406871193
 31
0.003964652856058
  0
LINE
  5
C5
  8
TRACES
 10
101.5002437822179
 20
59.87426406871193
 30
0.003964652856058
 11
101.5002437822179
 21
57.77545612908835
 31
0.003964652856058
  0
LINE
  5
C6
  8
TRACES
 10
101.5002437822179
 20
57.77545612908835
 30
0.003964652856058
 11
103.3306801262982
 21
55.94501978500801
 31
0.003964652856058
  0
LINE
  5
C7
  8
TRACES
 10
103.3306801262982
 20
55.94501978500801
 30
0.003964652856058
 11
103.8729974902529
 21
55.94443272800038
 31
0.003964652856058
  0
ARC
  5
C8
  8
TRACES
 10
-103.8726727412944
 20
55.64443290377024
 30
-0.003964652856058
 40
0.3000000000000032
 50
90.06202249451685
 51
172.8812667130643
210
0.0
220
0.0
230
-1.0
  0
ARC
  5
C9
  8
TRACES
 10
104.6665059192232
 20
55.74357364019761
 30
0.003964652856058
 40
0.4999999999999676
 50
187.1187332869389
 51
269.9379775054853
  0
LINE
  5
CA
  8
TRACES
 10
104.6659646709591
 20
55.2435739331474
 30
0.003964652856058
 11
107.2777291385188
 21
55.24074670552224
 31
0.003964652856058
  0
ARC
  5
CB
  8
TRACES
 10
107.2788117674252
 20
56.2407461194794
 30
0.003964652856058
 40
1.000000000000009
 50
269.937969920766
 51
89.93797750902556
  0
LINE
  5
CC
  8
TRACES
 10
107.2798942638916
 20
57.24074553357993
 30
0.003964652856058
 11
103.4927309554854
 21
57.24484512711506
 31
0.003964652856058
  0
CIRCLE
  5
CD
  8
TRACES
 10
-150.2139353445053
 20
59.38158370914542
 30
-0.003964652856058
 40
0.4150000000000063
210
0.0
220
0.0
230
-1.0
  0
CIRCLE
  5
CE
  8
TRACES
 10
-150.0609128820867
 20
61.24303855807523
 30
-0.003964652856058
 40
0.4149999999999991
210
0.0
220
0.0
230
-1.0
  0
ARC
  5
CF
  8
TRACES
 10
-129.5408722420098
 20
59.2359882209476
 30
-0.0039646528560579
 40
0.9999999999998282
 50
206.0285709480266
 51
218.9424412691976
210
0.0
220
0.0
230
-1.0
  0
ARC
  5
D0
  8
TRACES
 10
130.9408722420054
 20
58.10461737104395
 30
0.003964652856058
 40
0.7999999999999945
 50
141.0575587308024
 51
180.0000000000026
  0
LINE
  5
D1
  8
TRACES
 10
130.1408722420054
 20
58.10461737104391
 30
0.003964652856058
 11
130.1408722420054
 21
56.77653652457837
 31
0.003964652856058
  0
LINE
  5
D2
  8
TRACES
 10
130.1408722420054
 20
56.77653652457837
 30
0.003964652856058
 11
124.1228526401722
 21
50.75851692274522
 31
0.003964652856058
  0
LINE
  5
D3
  8
TRACES
 10
124.1228526401722
 20
50.75851692274522
 30
0.003964652856058
 11
108.2398627385998
 21
50.75851692274522
 31
0.003964652856058
  0
LINE
  5
D4
  8
TRACES
 10
108.2398627385998
 20
50.75851692274522
 30
0.003964652856058
 11
108.1658225138551
 21
50.59601692274515
 31
0.003964652856058
  0
ARC
  5
D5
  8
TRACES
 10
-107.665220662039
 20
50.66364606807255
 30
-0.003964652856058
 40
0.5051493990290487
 50
187.6938313862676
 51
269.4869243952642
210
0.0
220
0.0
230
-1.0
  0
LINE
  5
D6
  8
TRACES
 10
107.6697441430299
 20
50.1585169227452
 30
0.003964652856058
 11
105.0579780129214
 21
50.1585169227452
 31
0.003964652856058
  0
ARC
  5
D7
  8
TRACES
 10
-105.0579780129486
 20
51.15851692274519
 30
-0.003964652856058
 40
0.9999999999999858
 50
270.0000000015617
 51
89.99999999921998
210
0.0
220
0.0
230
-1.0
  0
LINE
  5
D8
  8
TRACES
 10
105.057978012935
 20
52.1585169227452
 30
0.003964652856058
 11
107.6697441430299
 21
52.1585169227452
 31
0.003964652856058
  0
ARC
  5
D9
  8
TRACES
 10
-107.66974414303
 20
51.65851692274526
 30
-0.003964652856058
 40
0.4999999999999361
 50
89.99999999999675
 51
172.8192442185475
210
0.0
220
0.0
230
-1.0
  0
LINE
  5
DA
  8
TRACES
 10
108.1658225138545
 20
51.72101692274521
 30
0.003964652856058
 11
108.2385798016639
 21
51.55851692274526
 31
0.003964652856058
  0
LINE
  5
DB
  8
TRACES
 10
108.2385798016639
 20
51.55851692274526
 30
0.003964652856058
 11
123.4601109403753
 21
51.55851692274523
 31
0.003964652856058
  0
ARC
  5
DC
  8
TRACES
 10
123.4601109403753
 20
52.35851692274523
 30
0.003964652856058
 40
0.8
 50
270.0
 51
314.9999999999978
  0
LINE
  5
DD
  8
TRACES
 10
124.0257963653245
 20
51.79283149779597
 30
0.003964652856058
 11
129.1065576669547
 21
56.87359279942611
 31
0.003964652856058
  0
ARC
  5
DE
  8
TRACES
 10
128.5408722420054
 20
57.43927822437532
 30
0.003964652856058
 40
0.8
 50
315.0000000000025
 51
359.9999999999964
  0
LINE
  5
DF
  8
TRACES
 10
129.3408722420054
 20
57.43927822437527
 30
0.003964652856058
 11
129.3408722420054
 21
58.10461737104395
 31
0.003964652856058
  0
ARC
  5
E0
  8
TRACES
 10
128.5408722420054
 20
58.10461737104395
 30
0.003964652856058
 40
0.8
 50
0.0
 51
41.4096221094445
  0
ARC
  5
E1
  8
TRACES
 10
-129.7408722420053
 20
59.16291789547618
 30
-0.003964652856058
 40
0.8000000000041293
 50
318.5903778905532
 51
0.0000000000061067
210
0.0
220
0.0
230
-1.0
  0
LINE
  5
E2
  8
TRACES
 10
128.9408722420011
 20
59.16291789547627
 30
0.003964652856058
 11
128.9408722420011
 21
63.32315922067425
 31
0.003964652856058
  0
ARC
  5
E3
  8
TRACES
 10
-129.7408722420053
 20
63.32315922067431
 30
-0.003964652856058
 40
0.8000000000042178
 50
359.9999999999954
 51
41.40962210944141
210
0.0
220
0.0
230
-1.0
  0
ARC
  5
E4
  8
TRACES
 10
128.5408722420054
 20
64.38145974510658
 30
0.003964652856058
 40
0.8
 50
318.5903778905509
 51
359.999999999998
  0
LINE
  5
E5
  8
TRACES
 10
129.3408722420054
 20
64.38145974510655
 30
0.003964652856058
 11
129.3408722420054
 21
66.2524554130551
 31
0.003964652856058
  0
LINE
  5
E6
  8
TRACES
 10
129.3408722420054
 20
66.2524554130551
 30
0.003964652856058
 11
131.3884168289505
 21
68.3
 31
0.003964652856058
  0
LINE
  5
E7
  8
TRACES
 10
131.3884168289505
 20
68.3
 30
0.003964652856058
 11
161.4245078509298
 21
68.3
 31
0.003964652856058
  0
LINE
  5
E8
  8
TRACES
 10
161.4245078509298
 20
68.3
 30
0.003964652856058
 11
169.6277446218945
 21
60.09676322903533
 31
0.003964652856058
  0
LINE
  5
E9
  8
TRACES
 10
169.6277446218945
 20
60.09676322903533
 30
0.003964652856058
 11
169.6277446218945
 21
57.53225247608505
 31
0.003964652856058
  0
ARC
  5
EA
  8
TRACES
 10
169.9277446218945
 20
57.53225247608503
 30
0.003964652856058
 40
0.2999999999999829
 50
179.9999999999959
 51
262.819244218548
  0
ARC
  5
EB
  8
TRACES
 10
-169.822615476568
 20
56.73400360177491
 30
-0.003964652856058
 40
0.5051493990282159
 50
97.6938313861763
 51
179.4869243952795
210
0.0
220
0.0
230
-1.0
  0
LINE
  5
EC
  8
TRACES
 10
170.3277446218945
 20
56.73852708276566
 30
0.003964652856058
 11
170.3277446218945
 21
55.73852708276566
 31
0.003964652856058
  0
ARC
  5
ED
  8
TRACES
 10
-169.8277446218945
 20
55.73852708276564
 30
-0.003964652856058
 40
0.4999999999999716
 50
179.9999999999976
 51
270.0000000000032
210
0.0
220
0.0
230
-1.0
  0
LINE
  5
EE
  8
TRACES
 10
169.8277446218945
 20
55.23852708276566
 30
0.003964652856058
 11
167.2159786241024
 21
55.23852708276563
 31
0.003964652856058
  0
ARC
  5
EF
  8
TRACES
 10
-167.2159784917241
 20
56.23852708276561
 30
-0.003964652856058
 40
0.9999999999999944
 50
269.9999924152843
 51
90.00000000354022
210
0.0
220
0.0
230
-1.0
  0
LINE
  5
F0
  8
TRACES
 10
167.2159784917859
 20
57.23852708276563
 30
0.003964652856058
 11
168.7277446218945
 21
57.23852708276566
 31
0.003964652856058
  0
ARC
  5
F1
  8
TRACES
 10
168.7277446218945
 20
57.53852708276565
 30
0.003964652856058
 40
0.2999999999999972
 50
270.0
 51
0.0000000000054281
  0
LINE
  5
F2
  8
TRACES
 10
169.0277446218945
 20
57.53852708276568
 30
0.003964652856058
 11
169.0277446218945
 21
59.84823509161147
 31
0.003964652856058
  0
LINE
  5
F3
  8
TRACES
 10
169.0277446218945
 20
59.84823509161147
 30
0.003964652856058
 11
161.175979713506
 21
67.7
 31
0.003964652856058
  0
LINE
  5
F4
  8
TRACES
 10
161.175979713506
 20
67.7
 30
0.003964652856058
 11
132.2511585287473
 21
67.7
 31
0.003964652856058
  0
ARC
  5
F5
  8
TRACES
 10
132.2511585287473
 20
66.9
 30
0.003964652856058
 40
0.8
 50
90.0
 51
134.9999999999978
  0
LINE
  5
F6
  8
TRACES
 10
131.685473103798
 20
67.46568542494926
 30
0.003964652856058
 11
130.3751868170561
 21
66.15539913820737
 31
0.003964652856058
  0
ARC
  5
F7
  8
TRACES
 10
130.9408722420054
 20
65.58971371325812
 30
0.003964652856058
 40
0.8
 50
134.9999999999993
 51
179.999999999999
  0
LINE
  5
F8
  8
TRACES
 10
130.1408722420054
 20
65.58971371325813
 30
0.003964652856058
 11
130.1408722420054
 21
64.38145974510655
 31
0.003964652856058
  0
ARC
  5
F9
  8
TRACES
 10
130.9408722420054
 20
64.38145974510655
 30
0.003964652856058
 40
0.8
 50
180.0
 51
221.4096221094445
  0
ARC
  5
FA
  8
TRACES
 10
-129.7408722420058
 20
63.32315922067438
 30
-0.003964652856058
 40
0.8000000000038479
 50
138.5903778905422
 51
180.0000000000097
210
0.0
220
0.0
230
-1.0
  0
LINE
  5
FB
  8
TRACES
 10
130.5408722420097
 20
63.32315922067425
 30
0.003964652856058
 11
130.5408722420097
 21
61.17831349744294
 31
0.003964652856058
  0
ARC
  5
FC
  8
TRACES
 10
131.5408722420097
 20
61.17831349744295
 30
0.003964652856058
 40
1.0
 50
180.0000000000008
 51
225.0000000000714
  0
LINE
  5
FD
  8
TRACES
 10
130.833765460824
 20
60.47120671625552
 30
0.003964652856058
 11
133.0002437822179
 21
58.30472839486162
 31
0.003964652856058
  0
LINE
  5
FE
  8
TRACES
 10
133.0002437822179
 20
58.30472839486162
 30
0.003964652856058
 11
133.0002437822179
 21
57.43408778147573
 31
0.003964652856058
  0
ARC
  5
FF
  8
TRACES
 10
133.5002437822179
 20
57.43408778147573
 30
0.003964652856058
 40
0.5
 50
180.0
 51
235.7502686113311
  0
ARC
  5
100
  8
TRACES
 10
-132.7686024139544
 20
56.35951767755256
 30
-0.003964652856058
 40
0.7999999999999842
 50
124.2497313886713
 51
179.9999999999995
210
0.0
220
0.0
230
-1.0
  0
LINE
  5
101
  8
TRACES
 10
133.5686024139544
 20
56.35951767755257
 30
0.003964652856058
 11
133.5686024139544
 21
53.69116420000204
 31
0.003964652856058
  0
ARC
  5
102
  8
TRACES
 10
-132.7686024139545
 20
53.69116420000197
 30
-0.003964652856058
 40
0.7999999999998977
 50
179.9999999999954
 51
270.0000000000061
210
0.0
220
0.0
230
-1.0
  0
LINE
  5
103
  8
TRACES
 10
132.7686024139544
 20
52.89116420000204
 30
0.003964652856058
 11
132.4279391523003
 21
52.89116420000204
 31
0.003964652856058
  0
ARC
  5
104
  8
TRACES
 10
-132.4279391523003
 20
53.69116420000199
 30
-0.003964652856058
 40
0.7999999999999545
 50
269.9999999999959
 51
0.0000000000025444
210
0.0
220
0.0
230
-1.0
  0
LINE
  5
105
  8
TRACES
 10
131.6279391523003
 20
53.69116420000203
 30
0.003964652856058
 11
131.6279391523003
 21
56.35951767755256
 31
0.003964652856058
  0
ARC
  5
106
  8
TRACES
 10
-132.4279391523003
 20
56.35951767755255
 30
-0.003964652856058
 40
0.8000000000000114
 50
0.0000000000010178
 51
55.96040623724461
210
0.0
220
0.0
230
-1.0
  0
ARC
  5
107
  8
TRACES
 10
131.7002437822179
 20
57.43676391141029
 30
0.003964652856058
 40
0.5
 50
304.0395937627556
 51
0.0000000000008142
  0
LINE
  5
108
  8
TRACES
 10
132.2002437822179
 20
57.4367639114103
 30
0.003964652856058
 11
132.2002437822179
 21
57.76625076377659
 31
0.003964652856058
  0
ARC
  5
109
  8
TRACES
 10
131.7002437822179
 20
57.76625076377659
 30
0.003964652856058
 40
0.5
 50
0.0
 51
44.99999999999942
  0
LINE
  5
10A
  8
TRACES
 10
132.0537971728112
 20
58.11980415436986
 30
0.003964652856058
 11
131.2422886391093
 21
58.93131268807172
 31
0.003964652856058
  0
ARC
  5
10B
  8
TRACES
 10
130.8887352485161
 20
58.57775929747845
 30
0.003964652856058
 40
0.5
 50
44.99999999999942
 51
153.9714290519701
  0
LINE
  5
10C
  8
TRACES
 10
149.4036137692661
 20
59.29637699553583
 30
0.003964652856058
 11
149.4036137692662
 21
63.07009928981995
 31
0.003964652856058
  0
ARC
  5
10D
  8
TRACES
 10
-150.1536137692661
 20
63.07009928981998
 30
-0.003964652856058
 40
0.7499999999999716
 50
359.9999999999978
 51
90.00000000000217
210
0.0
220
0.0
230
-1.0
  0
LINE
  5
10E
  8
TRACES
 10
150.1536137692662
 20
63.82009928981995
 30
0.003964652856058
 11
150.2536137692662
 21
63.82009928981995
 31
0.003964652856058
  0
ARC
  5
10F
  8
TRACES
 10
-150.2536137692663
 20
63.07009928981999
 30
-0.003964652856058
 40
0.7499999999999645
 50
89.99999999999349
 51
180.0000000000027
210
0.0
220
0.0
230
-1.0
  0
LINE
  5
110
  8
TRACES
 10
151.0036137692662
 20
63.07009928981995
 30
0.003964652856058
 11
151.0036137692662
 21
59.29637699553583
 31
0.003964652856058
  0
ARC
  5
111
  8
TRACES
 10
-150.2536137692661
 20
59.29637699553595
 30
-0.003964652856058
 40
0.7500000000001137
 50
180.0000000000092
 51
269.9999999999913
210
0.0
220
0.0
230
-1.0
  0
LINE
  5
112
  8
TRACES
 10
150.2536137692662
 20
58.54637699553583
 30
0.003964652856058
 11
150.1536137692661
 21
58.54637699553583
 31
0.003964652856058
  0
ARC
  5
113
  8
TRACES
 10
-150.1536137692661
 20
59.29637699553584
 30
-0.003964652856058
 40
0.7500000000000142
 50
270.0
 51
359.9999999999989
210
0.0
220
0.0
230
-1.0
  0
LINE
  5
114
  8
TRACES
 10
151.6862335518134
 20
53.99852200275554
 30
0.003964652856058
 11
166.9548972815933
 21
53.99852200275538
 31
0.003964652856058
  0
ARC
  5
115
  8
TRACES
 10
166.9601543679897
 20
54.29072448351847
 30
0.003964652856058
 40
0.2922497677013389
 50
268.9692887970816
 51
339.0063983660224
  0
ARC
  5
116
  8
TRACES
 10
-167.6965171303023
 20
53.99852200275566
 30
-0.003964652856058
 40
0.4999999999999381
 50
22.02431283702395
 51
90.00000000000325
210
0.0
220
0.0
230
-1.0
  0
LINE
  5
117
  8
TRACES
 10
167.6965171303023
 20
54.4985220027556
 30
0.003964652856058
 11
169.6858330822016
 21
54.49852200275555
 31
0.003964652856058
  0
ARC
  5
118
  8
TRACES
 10
-169.6858332680652
 20
53.69852200275557
 30
-0.003964652856058
 40
0.8000000000000045
 50
89.99998668849828
 51
270.000000000002
210
0.0
220
0.0
230
-1.0
  0
LINE
  5
119
  8
TRACES
 10
169.6858332680652
 20
52.8985220027556
 30
0.003964652856058
 11
167.6965171303023
 21
52.89852200275558
 31
0.003964652856058
  0
ARC
  5
11A
  8
TRACES
 10
-167.7057683973071
 20
53.4122438492231
 30
-0.003964652856058
 40
0.5138051395998213
 50
271.0316891720018
 51
336.9439979915148
210
0.0
220
0.0
230
-1.0
  0
ARC
  5
11B
  8
TRACES
 10
166.9548972815964
 20
53.09852200275564
 30
0.003964652856058
 40
0.2999999999999495
 50
22.0243128372753
 51
90.00000000000543
  0
LINE
  5
11C
  8
TRACES
 10
166.9548972815963
 20
53.39852200275558
 30
0.003964652856058
 11
150.4774577107499
 21
53.39852200275611
 31
0.003964652856058
  0
LINE
  5
11D
  8
TRACES
 10
150.4774577107499
 20
53.39852200275611
 30
0.003964652856058
 11
147.2209078020765
 21
56.65507191142952
 31
0.003964652856058
  0
LINE
  5
11E
  8
TRACES
 10
147.2209078020765
 20
56.65507191142952
 30
0.003964652856058
 11
147.2209078020765
 21
59.69116285249281
 31
0.003964652856058
  0
ARC
  5
11F
  8
TRACES
 10
146.9209078020765
 20
59.69116285249281
 30
0.003964652856058
 40
0.2999999999999829
 50
0.0
 51
56.94426884948284
  0
ARC
  5
120
  8
TRACES
 10
-147.549476975253
 20
60.62861110777036
 30
-0.003964652856058
 40
0.8287140235820588
 50
304.1270073637373
 51
358.9287237867769
210
0.0
220
0.0
230
-1.0
  0
LINE
  5
121
  8
TRACES
 10
146.7209078020711
 20
60.61311729822557
 30
0.003964652856058
 11
146.7209078020709
 21
63.02009928981992
 31
0.003964652856058
  0
ARC
  5
122
  8
TRACES
 10
-147.520907802071
 20
63.02009928981995
 30
-0.003964652856058
 40
0.8000000000000682
 50
359.9999999999985
 51
90.00000000060251
210
0.0
220
0.0
230
-1.0
  0
ARC
  5
123
  8
TRACES
 10
-147.5209078020793
 20
63.02009928981987
 30
-0.003964652856058
 40
0.800000000000118
 50
90.00000000000408
 51
179.9999999999919
210
0.0
220
0.0
230
-1.0
  0
LINE
  5
124
  8
TRACES
 10
148.3209078020795
 20
63.02009928981999
 30
0.003964652856058
 11
148.3209078020797
 21
60.61311729822563
 31
0.003964652856058
  0
ARC
  5
125
  8
TRACES
 10
-147.5209078020797
 20
60.61311729822559
 30
-0.003964652856058
 40
0.799999999999983
 50
179.9999999999969
 51
236.9442688493492
210
0.0
220
0.0
230
-1.0
  0
ARC
  5
126
  8
TRACES
 10
148.1109224903505
 20
59.69657814810464
 30
0.003964652856058
 40
0.2900652423873572
 50
121.9860007431945
 51
181.0697304074603
  0
LINE
  5
127
  8
TRACES
 10
147.8209078020764
 20
59.69116285249417
 30
0.003964652856058
 11
147.8209078020764
 21
57.23497089875185
 31
0.003964652856058
  0
ARC
  5
128
  8
TRACES
 10
148.6209078020769
 20
57.23497089875203
 30
0.003964652856058
 40
0.8000000000004661
 50
180.0000000000132
 51
224.9999999999817
  0
LINE
  5
129
  8
TRACES
 10
148.0552223771272
 20
56.66928547380265
 30
0.003964652856058
 11
148.1528100510565
 21
56.57169779987327
 31
0.003964652856058
  0
ARC
  5
12A
  8
TRACES
 10
148.7184954760058
 20
57.13738322482249
 30
0.003964652856058
 40
0.8
 50
224.9999999999975
 51
328.2283794007413
  0
ARC
  5
12B
  8
TRACES
 10
-150.0362335518136
 20
56.32125433575743
 30
-0.003964652856058
 40
0.7500000000000784
 50
31.77162059926356
 51
90.00000000000217
210
0.0
220
0.0
230
-1.0
  0
LINE
  5
12C
  8
TRACES
 10
150.0362335518136
 20
57.07125433575749
 30
0.003964652856058
 11
150.1362335518136
 21
57.07125433575749
 31
0.003964652856058
  0
ARC
  5
12D
  8
TRACES
 10
-150.1362335518136
 20
56.32125433575748
 30
-0.003964652856058
 40
0.7500000000000142
 50
90.00000000000217
 51
179.9999999999989
210
0.0
220
0.0
230
-1.0
  0
LINE
  5
12E
  8
TRACES
 10
150.8862335518136
 20
56.32125433575749
 30
0.003964652856058
 11
150.8862335518136
 21
54.79852200275545
 31
0.003964652856058
  0
ARC
  5
12F
  8
TRACES
 10
151.6862335518136
 20
54.79852200275553
 30
0.003964652856058
 40
0.8
 50
180.0000000000061
 51
269.9999999999878
  0
CIRCLE
  5
130
  8
TRACES
 10
-150.0609128820867
 20
56.00364896638093
 30
-0.003964652856058
 40
0.4149999999999991
210
0.0
220
0.0
230
-1.0
  0
LINE
  5
131
  8
TRACES
 10
156.8905267863714
 20
59.29637699553583
 30
0.003964652856058
 11
156.8905267863714
 21
63.07009928981995
 31
0.003964652856058
  0
ARC
  5
132
  8
TRACES
 10
-157.6405267863713
 20
63.07009928982002
 30
-0.003964652856058
 40
0.7499999999999147
 50
359.9999999999945
 51
90.00000000000651
210
0.0
220
0.0
230
-1.0
  0
LINE
  5
133
  8
TRACES
 10
157.6405267863714
 20
63.82009928981995
 30
0.003964652856058
 11
157.7405267863714
 21
63.82009928981995
 31
0.003964652856058
  0
ARC
  5
134
  8
TRACES
 10
-157.7405267863714
 20
63.07009928981997
 30
-0.003964652856058
 40
0.7499999999999787
 50
90.0
 51
180.0000000000016
210
0.0
220
0.0
230
-1.0
  0
LINE
  5
135
  8
TRACES
 10
158.4905267863714
 20
63.07009928981995
 30
0.003964652856058
 11
158.4905267863714
 21
59.29637699553583
 31
0.003964652856058
  0
ARC
  5
136
  8
TRACES
 10
-157.7405267863713
 20
59.29637699553599
 30
-0.003964652856058
 40
0.7500000000001421
 50
180.0000000000125
 51
269.9999999999891
210
0.0
220
0.0
230
-1.0
  0
LINE
  5
137
  8
TRACES
 10
157.7405267863714
 20
58.54637699553583
 30
0.003964652856058
 11
157.6405267863714
 21
58.54637699553583
 31
0.003964652856058
  0
ARC
  5
138
  8
TRACES
 10
-157.6405267863714
 20
59.29637699553584
 30
-0.003964652856058
 40
0.7500000000000142
 50
270.0000000000021
 51
359.9999999999989
210
0.0
220
0.0
230
-1.0
  0
ARC
  5
139
  8
TRACES
 10
-142.0039861923153
 20
54.25396317172947
 30
-0.003964652856058
 40
0.5000000000000497
 50
270.0000000000032
 51
359.9999999999951
210
0.0
220
0.0
230
-1.0
  0
LINE
  5
13A
  8
TRACES
 10
141.5039861923153
 20
54.25396317172942
 30
0.003964652856058
 11
141.5039861923153
 21
55.77429667417256
 31
0.003964652856058
  0
ARC
  5
13B
  8
TRACES
 10
-142.0039861923153
 20
55.77429667417255
 30
-0.003964652856058
 40
0.4999999999999716
 50
0.0000000000008142
 51
180.0
210
0.0
220
0.0
230
-1.0
  0
LINE
  5
13C
  8
TRACES
 10
142.5039861923153
 20
55.77429667417255
 30
0.003964652856058
 11
142.5039861923153
 21
54.25396317172942
 31
0.003964652856058
  0
ARC
  5
13D
  8
TRACES
 10
-142.0039861923153
 20
54.25396317172939
 30
-0.003964652856058
 40
0.4999999999999716
 50
179.9999999999967
 51
270.0000000000032
210
0.0
220
0.0
230
-1.0
  0
ARC
  5
13E
  8
TRACES
 10
-137.3002437822179
 20
54.25396317172944
 30
-0.003964652856058
 40
0.5000000000000213
 50
270.0000000000032
 51
359.9999999999984
210
0.0
220
0.0
230
-1.0
  0
LINE
  5
13F
  8
TRACES
 10
136.8002437822179
 20
54.25396317172942
 30
0.003964652856058
 11
136.8002437822179
 21
55.77429667417256
 31
0.003964652856058
  0
ARC
  5
140
  8
TRACES
 10
-137.3002437822179
 20
55.77429667417254
 30
-0.003964652856058
 40
0.4999999999999716
 50
0.0000000000024427
 51
179.9999999999984
210
0.0
220
0.0
230
-1.0
  0
LINE
  5
141
  8
TRACES
 10
137.8002437822179
 20
55.77429667417255
 30
0.003964652856058
 11
137.8002437822179
 21
54.25396317172942
 31
0.003964652856058
  0
ARC
  5
142
  8
TRACES
 10
-137.3002437822179
 20
54.25396317172939
 30
-0.003964652856058
 40
0.4999999999999716
 50
179.9999999999967
 51
270.0000000000032
210
0.0
220
0.0
230
-1.0
  0
CIRCLE
  5
143
  8
TRACES
 10
-147.5209078020763
 20
86.64308935817672
 30
-0.003964652856058
 40
0.4149999999999733
210
0.0
220
0.0
230
-1.0
  0
CIRCLE
  5
144
  8
TRACES
 10
-129.7408722420051
 20
86.64308935817681
 30
-0.003964652856058
 40
0.4150000000000063
210
0.0
220
0.0
230
-1.0
  0
CIRCLE
  5
145
  8
TRACES
 10
-124.6608620819845
 20
86.64308935817684
 30
-0.003964652856058
 40
0.4149999999999778
210
0.0
220
0.0
230
-1.0
  0
CIRCLE
  5
146
  8
TRACES
 10
-114.5008417619436
 20
86.64308935817687
 30
-0.003964652856058
 40
0.414999999999992
210
0.0
220
0.0
230
-1.0
  0
CIRCLE
  5
147
  8
TRACES
 10
-160.2209332021272
 20
86.6430893581767
 30
-0.003964652856058
 40
0.4149999999999778
210
0.0
220
0.0
230
-1.0
  0
CIRCLE
  5
148
  8
TRACES
 10
-119.5808519219644
 20
61.24303855807531
 30
-0.003964652856058
 40
0.4150000000000063
210
0.0
220
0.0
230
-1.0
  0
CIRCLE
  5
149
  8
TRACES
 10
-157.6809281221173
 20
86.6430893581768
 30
-0.003964652856058
 40
0.414999999999992
210
0.0
220
0.0
230
-1.0
  0
CIRCLE
  5
14A
  8
TRACES
 10
-160.2209332021268
 20
61.24303855807503
 30
-0.003964652856058
 40
0.4150000000000418
210
0.0
220
0.0
230
-1.0
  0
LINE
  5
14B
  8
TRACES
 10
158.4809281221174
 20
88.55095140148927
 30
0.003964652856058
 11
158.4809281221173
 21
85.52532314867193
 31
0.003964652856058
  0
ARC
  5
14C
  8
TRACES
 10
-157.7309281221172
 20
85.52532314867197
 30
-0.003964652856058
 40
0.7500000000000284
 50
180.0000000000032
 51
270.0
210
0.0
220
0.0
230
-1.0
  0
LINE
  5
14D
  8
TRACES
 10
157.7309281221173
 20
84.77532314867193
 30
0.003964652856058
 11
157.6309281221172
 21
84.77532314867193
 31
0.003964652856058
  0
ARC
  5
14E
  8
TRACES
 10
-157.6309281221172
 20
85.52532314867183
 30
-0.003964652856058
 40
0.7499999999999005
 50
269.9999999999935
 51
0.0000000000075994
210
0.0
220
0.0
230
-1.0
  0
LINE
  5
14F
  8
TRACES
 10
156.8809281221172
 20
85.52532314867193
 30
0.003964652856058
 11
156.8809281221174
 21
88.55095140148933
 31
0.003964652856058
  0
ARC
  5
150
  8
TRACES
 10
-157.6309281221173
 20
88.55095140148933
 30
-0.003964652856058
 40
0.7499999999999432
 50
359.9999999999989
 51
90.00000000000217
210
0.0
220
0.0
230
-1.0
  0
LINE
  5
151
  8
TRACES
 10
157.6309281221174
 20
89.30095140148927
 30
0.003964652856058
 11
157.7309281221174
 21
89.30095140148927
 31
0.003964652856058
  0
ARC
  5
152
  8
TRACES
 10
-157.7309281221174
 20
88.55095140148924
 30
-0.003964652856058
 40
0.7500000000000284
 50
90.0
 51
180.0000000000011
210
0.0
220
0.0
230
-1.0
  0
LINE
  5
153
  8
TRACES
 10
161.0209332021273
 20
88.55095140148917
 30
0.003964652856058
 11
161.0209332021272
 21
85.52532314867183
 31
0.003964652856058
  0
ARC
  5
154
  8
TRACES
 10
-160.2709332021271
 20
85.52532314867186
 30
-0.003964652856058
 40
0.7500000000000284
 50
180.0000000000022
 51
269.9999999999978
210
0.0
220
0.0
230
-1.0
  0
LINE
  5
155
  8
TRACES
 10
160.2709332021272
 20
84.77532314867183
 30
0.003964652856058
 11
160.1709332021271
 21
84.77532314867183
 31
0.003964652856058
  0
ARC
  5
156
  8
TRACES
 10
-160.1709332021271
 20
85.52532314867179
 30
-0.003964652856058
 40
0.7499999999999574
 50
269.9999999999956
 51
0.0000000000032569
210
0.0
220
0.0
230
-1.0
  0
LINE
  5
157
  8
TRACES
 10
159.4209332021271
 20
85.52532314867183
 30
0.003964652856058
 11
159.4209332021273
 21
88.55095140148923
 31
0.003964652856058
  0
ARC
  5
158
  8
TRACES
 10
-160.1709332021273
 20
88.55095140148916
 30
-0.003964652856058
 40
0.7500000000000284
 50
0.0000000000043425
 51
89.99999999999567
210
0.0
220
0.0
230
-1.0
  0
LINE
  5
159
  8
TRACES
 10
160.1709332021273
 20
89.30095140148917
 30
0.003964652856058
 11
160.2709332021273
 21
89.30095140148917
 31
0.003964652856058
  0
ARC
  5
15A
  8
TRACES
 10
-160.2709332021273
 20
88.55095140148919
 30
-0.003964652856058
 40
0.7499999999999858
 50
90.0
 51
180.0000000000043
210
0.0
220
0.0
230
-1.0
  0
CIRCLE
  5
15B
  8
TRACES
 10
-169.3277446218945
 20
93.6985220027556
 30
-0.003964652856058
 40
0.4150000000000205
210
0.0
220
0.0
230
-1.0
  0
CIRCLE
  5
15C
  8
TRACES
 10
-169.3277446218945
 20
96.23852708276566
 30
-0.003964652856058
 40
0.4150000000000205
210
0.0
220
0.0
230
-1.0
  0
CIRCLE
  5
15D
  8
TRACES
 10
-169.3277446218943
 20
91.15851692274532
 30
-0.003964652856058
 40
0.4149999999999636
210
0.0
220
0.0
230
-1.0
  0
CIRCLE
  5
15E
  8
TRACES
 10
-169.3277446218945
 20
53.69852200275558
 30
-0.003964652856058
 40
0.4150000000000205
210
0.0
220
0.0
230
-1.0
  0
CIRCLE
  5
15F
  8
TRACES
 10
-169.3277446218945
 20
56.23852708276566
 30
-0.003964652856058
 40
0.414999999999992
210
0.0
220
0.0
230
-1.0
  0
CIRCLE
  5
160
  8
TRACES
 10
-169.3277446218943
 20
51.15851692274532
 30
-0.003964652856058
 40
0.4149999999999636
210
0.0
220
0.0
230
-1.0
  0
CIRCLE
  5
161
  8
TRACES
 10
-105.1077801819656
 20
91.15851692274522
 30
-0.003964652856058
 40
0.4150000000000063
210
0.0
220
0.0
230
-1.0
  0
CIRCLE
  5
162
  8
TRACES
 10
-105.1077801819655
 20
93.69852200275544
 30
-0.003964652856058
 40
0.414999999999992
210
0.0
220
0.0
230
-1.0
  0
CIRCLE
  5
163
  8
TRACES
 10
-105.1077801819655
 20
96.2385270827656
 30
-0.003964652856058
 40
0.414999999999992
210
0.0
220
0.0
230
-1.0
  0
CIRCLE
  5
164
  8
TRACES
 10
-105.1077801819655
 20
56.2385270827656
 30
-0.003964652856058
 40
0.4150000000000063
210
0.0
220
0.0
230
-1.0
  0
CIRCLE
  5
165
  8
TRACES
 10
-105.1077801819656
 20
51.15851692274522
 30
-0.003964652856058
 40
0.4149999999999778
210
0.0
220
0.0
230
-1.0
  0
CIRCLE
  5
166
  8
TRACES
 10
-105.1077801819655
 20
53.6985220027554
 30
-0.003964652856058
 40
0.414999999999992
210
0.0
220
0.0
230
-1.0
  0
CIRCLE
  5
167
  8
TRACES
 10
-104.2142120471203
 20
75.95191636415969
 30
-0.003964652856058
 40
0.5
210
0.0
220
0.0
230
-1.0
  0
CIRCLE
  5
168
  8
TRACES
 10
-104.2142120471203
 20
72.72714633412063
 30
-0.003964652856058
 40
0.5
210
0.0
220
0.0
230
-1.0
  0
ARC
  5
169
  8
TRACES
 10
-114.5008417619484
 20
60.61311729823269
 30
-0.003964652856058
 40
0.7999999999999403
 50
179.9999999999985
 51
270.0000000000081
210
0.0
220
0.0
230
-1.0
  0
ARC
  5
16A
  8
TRACES
 10
-114.5008417619396
 20
60.61311729823267
 30
-0.003964652856058
 40
0.799999999999919
 50
269.9999999993822
 51
0.0000000000025444
210
0.0
220
0.0
230
-1.0
  0
LINE
  5
16B
  8
TRACES
 10
113.7008417619397
 20
60.61311729823271
 30
0.003964652856058
 11
113.7008417619395
 21
63.020099289827
 31
0.003964652856058
  0
ARC
  5
16C
  8
TRACES
 10
-114.5008417619396
 20
63.02009928982705
 30
-0.003964652856058
 40
0.8000000000000114
 50
359.9999999999964
 51
90.00000000060965
210
0.0
220
0.0
230
-1.0
  0
ARC
  5
16D
  8
TRACES
 10
-114.5008417619481
 20
63.02009928982701
 30
-0.003964652856058
 40
0.8000000000000611
 50
90.0
 51
179.9999999999964
210
0.0
220
0.0
230
-1.0
  0
LINE
  5
16E
  8
TRACES
 10
115.3008417619481
 20
63.02009928982706
 30
0.003964652856058
 11
115.3008417619483
 21
60.61311729823271
 31
0.003964652856058
  0
CIRCLE
  5
16F
  8
TRACES
 10
-138.3002437822179
 20
86.0
 30
-0.003964652856058
 40
1.5
210
0.0
220
0.0
230
-1.0
  0
LINE
  5
170
  8
TRACES
 10
159.4209332021269
 20
59.29637699553583
 30
0.003964652856058
 11
159.4209332021269
 21
63.07009928981995
 31
0.003964652856058
  0
ARC
  5
171
  8
TRACES
 10
-160.1709332021269
 20
63.07009928981996
 30
-0.003964652856058
 40
0.75
 50
359.9999999999989
 51
90.00000000000217
210
0.0
220
0.0
230
-1.0
  0
LINE
  5
172
  8
TRACES
 10
160.1709332021269
 20
63.82009928981995
 30
0.003964652856058
 11
160.2709332021269
 21
63.82009928981995
 31
0.003964652856058
  0
ARC
  5
173
  8
TRACES
 10
-160.270933202127
 20
63.07009928981999
 30
-0.003964652856058
 40
0.7499999999999645
 50
89.99999999999349
 51
180.0000000000027
210
0.0
220
0.0
230
-1.0
  0
LINE
  5
174
  8
TRACES
 10
161.0209332021269
 20
63.07009928981995
 30
0.003964652856058
 11
161.020933202127
 21
59.29637699553583
 31
0.003964652856058
  0
ARC
  5
175
  8
TRACES
 10
-160.2709332021269
 20
59.29637699553594
 30
-0.003964652856058
 40
0.7500000000000853
 50
180.0000000000082
 51
269.9999999999935
210
0.0
220
0.0
230
-1.0
  0
LINE
  5
176
  8
TRACES
 10
160.270933202127
 20
58.54637699553583
 30
0.003964652856058
 11
160.1709332021269
 21
58.54637699553583
 31
0.003964652856058
  0
ARC
  5
177
  8
TRACES
 10
-160.1709332021269
 20
59.2963769955358
 30
-0.003964652856058
 40
0.7499999999999716
 50
269.9999999999978
 51
0.0000000000021713
210
0.0
220
0.0
230
-1.0
  0
LINE
  5
178
  8
TRACES
 10
108.4634695364379
 20
96.53852708276561
 30
0.003964652856058
 11
117.1859807681642
 21
96.53852708276561
 31
0.003964652856058
  0
LINE
  5
179
  8
TRACES
 10
117.1859807681642
 20
96.53852708276561
 30
0.003964652856058
 11
120.1859807681642
 21
93.53852708276561
 31
0.003964652856058
  0
LINE
  5
17A
  8
TRACES
 10
120.1859807681642
 20
93.53852708276561
 30
0.003964652856058
 11
122.1859807681642
 21
93.5385270827656
 31
0.003964652856058
  0
LINE
  5
17B
  8
TRACES
 10
122.1859807681642
 20
93.5385270827656
 30
0.003964652856058
 11
124.8822420324848
 21
90.84226581844501
 31
0.003964652856058
  0
ARC
  5
17C
  8
TRACES
 10
-124.6701099981289
 20
90.63013378408897
 30
-0.003964652856058
 40
0.3000000000000446
 50
134.9999999999866
 51
169.9273590883696
210
0.0
220
0.0
230
-1.0
  0
ARC
  5
17D
  8
TRACES
 10
125.260862081985
 20
90.7350717439525
 30
0.003964652856058
 40
0.3000000000005186
 50
190.0726409116995
 51
236.9442688473957
  0
ARC
  5
17E
  8
TRACES
 10
-124.6608620819543
 20
89.81311729823722
 30
-0.003964652856058
 40
0.800000000004459
 50
123.0557311525843
 51
180.000013899539
210
0.0
220
0.0
230
-1.0
  0
LINE
  5
17F
  8
TRACES
 10
125.4608620819588
 20
89.81311710416304
 30
0.003964652856058
 11
125.4608620819731
 21
85.64308933774952
 31
0.003964652856058
  0
ARC
  5
180
  8
TRACES
 10
-124.6608620819731
 20
85.64308933774947
 30
-0.003964652856058
 40
0.7999999999999972
 50
179.9999999999969
 51
269.999999999999
210
0.0
220
0.0
230
-1.0
  0
ARC
  5
181
  8
TRACES
 10
-124.6608620819503
 20
85.64308933774953
 30
-0.003964652856058
 40
0.8000000000000114
 50
269.9999999983604
 51
359.999999999999
210
0.0
220
0.0
230
-1.0
  0
LINE
  5
182
  8
TRACES
 10
123.8608620819502
 20
85.64308933774952
 30
0.003964652856058
 11
123.8608620819502
 21
89.81311729823732
 31
0.003964652856058
  0
ARC
  5
183
  8
TRACES
 10
-124.6608620819545
 20
89.81311729823732
 30
-0.003964652856058
 40
0.8000000000043315
 50
0.0
 51
44.17997364971114
210
0.0
220
0.0
230
-1.0
  0
ARC
  5
184
  8
TRACES
 10
123.8722370214324
 20
90.57972497839218
 30
0.003964652856058
 40
0.2998258498642558
 50
315.787210465684
 51
45.03281588461158
  0
LINE
  5
185
  8
TRACES
 10
124.0841244511976
 20
90.79185526230832
 30
0.003964652856058
 11
121.9374526307404
 21
92.9385270827656
 31
0.003964652856058
  0
LINE
  5
186
  8
TRACES
 10
121.9374526307404
 20
92.9385270827656
 30
0.003964652856058
 11
119.9374526307404
 21
92.93852708276562
 31
0.003964652856058
  0
LINE
  5
187
  8
TRACES
 10
119.9374526307404
 20
92.93852708276562
 30
0.003964652856058
 11
116.9374526307404
 21
95.93852708276562
 31
0.003964652856058
  0
LINE
  5
188
  8
TRACES
 10
116.9374526307404
 20
95.93852708276562
 30
0.003964652856058
 11
108.4634695364383
 21
95.93852708276562
 31
0.003964652856058
  0
ARC
  5
189
  8
TRACES
 10
108.4634695364384
 20
95.63852708276556
 30
0.003964652856058
 40
0.300000000000054
 50
90.00000000000543
 51
172.8192442185274
  0
ARC
  5
18A
  8
TRACES
 10
-107.6652206621281
 20
95.74365622809222
 30
-0.003964652856058
 40
0.5051493990282765
 50
187.6938313861851
 51
269.4869243952714
210
0.0
220
0.0
230
-1.0
  0
LINE
  5
18B
  8
TRACES
 10
107.669744143119
 20
95.23852708276564
 30
0.003964652856058
 11
105.0579780130104
 21
95.23852708276564
 31
0.003964652856058
  0
LINE
  5
18C
  8
TRACES
 10
105.0579780130104
 20
95.23852708276564
 30
0.003964652856058
 11
105.0233350257072
 21
95.23912733119724
 31
0.003964652856058
  0
LINE
  5
18D
  8
TRACES
 10
105.0233350257072
 20
95.23912733119724
 30
0.003964652856058
 11
104.9887336272016
 21
95.24092735589994
 31
0.003964652856058
  0
LINE
  5
18E
  8
TRACES
 10
104.9887336272016
 20
95.24092735589994
 30
0.003964652856058
 11
104.9542153563642
 21
95.24392499594974
 31
0.003964652856058
  0
LINE
  5
18F
  8
TRACES
 10
104.9542153563642
 20
95.24392499594974
 30
0.003964652856058
 11
104.919821652271
 21
95.24811665268913
 31
0.003964652856058
  0
LINE
  5
190
  8
TRACES
 10
104.919821652271
 20
95.24811665268913
 30
0.003964652856058
 11
104.8855938044561
 21
95.25349729404735
 31
0.003964652856058
  0
LINE
  5
191
  8
TRACES
 10
104.8855938044561
 20
95.25349729404735
 30
0.003964652856058
 11
104.8515729033434
 21
95.2600604605813
 31
0.003964652856058
  0
LINE
  5
192
  8
TRACES
 10
104.8515729033434
 20
95.2600604605813
 30
0.003964652856058
 11
104.8177997909182
 21
95.26779827323008
 31
0.003964652856058
  0
LINE
  5
193
  8
TRACES
 10
104.8177997909182
 20
95.26779827323008
 30
0.003964652856058
 11
104.7843150116962
 21
95.2767014427739
 31
0.003964652856058
  0
LINE
  5
194
  8
TRACES
 10
104.7843150116962
 20
95.2767014427739
 30
0.003964652856058
 11
104.7511587640499
 21
95.28675928098558
 31
0.003964652856058
  0
LINE
  5
195
  8
TRACES
 10
104.7511587640499
 20
95.28675928098558
 30
0.003964652856058
 11
104.7183708519509
 21
95.29795971346184
 31
0.003964652856058
  0
LINE
  5
196
  8
TRACES
 10
104.7183708519509
 20
95.29795971346184
 30
0.003964652856058
 11
104.6859906371848
 21
95.3102892941186
 31
0.003964652856058
  0
LINE
  5
197
  8
TRACES
 10
104.6859906371848
 20
95.3102892941186
 30
0.003964652856058
 11
104.654056992098
 21
95.32373322133292
 31
0.003964652856058
  0
LINE
  5
198
  8
TRACES
 10
104.654056992098
 20
95.32373322133292
 30
0.003964652856058
 11
104.6226082529314
 21
95.33827535571226
 31
0.003964652856058
  0
LINE
  5
199
  8
TRACES
 10
104.6226082529314
 20
95.33827535571226
 30
0.003964652856058
 11
104.591682173798
 21
95.35389823946984
 31
0.003964652856058
  0
LINE
  5
19A
  8
TRACES
 10
104.591682173798
 20
95.35389823946984
 30
0.003964652856058
 11
104.5613158813588
 21
95.37058311738271
 31
0.003964652856058
  0
LINE
  5
19B
  8
TRACES
 10
104.5613158813588
 20
95.37058311738271
 30
0.003964652856058
 11
104.5315458302527
 21
95.38830995930714
 31
0.003964652856058
  0
LINE
  5
19C
  8
TRACES
 10
104.5315458302527
 20
95.38830995930714
 30
0.003964652856058
 11
104.5024077593329
 21
95.40705748422496
 31
0.003964652856058
  0
LINE
  5
19D
  8
TRACES
 10
104.5024077593329
 20
95.40705748422496
 30
0.003964652856058
 11
104.4739366487622
 21
95.42680318579123
 31
0.003964652856058
  0
LINE
  5
19E
  8
TRACES
 10
104.4739366487622
 20
95.42680318579123
 30
0.003964652856058
 11
104.4461666780197
 21
95.44752335935306
 31
0.003964652856058
  0
LINE
  5
19F
  8
TRACES
 10
104.4461666780197
 20
95.44752335935306
 30
0.003964652856058
 11
104.4191311848683
 21
95.46919313040699
 31
0.003964652856058
  0
LINE
  5
1A0
  8
TRACES
 10
104.4191311848683
 20
95.46919313040699
 30
0.003964652856058
 11
104.3928626253328
 21
95.4917864844608
 31
0.003964652856058
  0
LINE
  5
1A1
  8
TRACES
 10
104.3928626253328
 20
95.4917864844608
 30
0.003964652856058
 11
104.3673925347366
 21
95.51527629826367
 31
0.003964652856058
  0
LINE
  5
1A2
  8
TRACES
 10
104.3673925347366
 20
95.51527629826367
 30
0.003964652856058
 11
104.3427514898437
 21
95.53963437236773
 31
0.003964652856058
  0
LINE
  5
1A3
  8
TRACES
 10
104.3427514898437
 20
95.53963437236773
 30
0.003964652856058
 11
104.3189690721514
 21
95.56483146498134
 31
0.003964652856058
  0
LINE
  5
1A4
  8
TRACES
 10
104.3189690721514
 20
95.56483146498134
 30
0.003964652856058
 11
104.2960738323775
 21
95.59083732707371
 31
0.003964652856058
  0
LINE
  5
1A5
  8
TRACES
 10
104.2960738323775
 20
95.59083732707371
 30
0.003964652856058
 11
104.2740932561857
 21
95.61762073868888
 31
0.003964652856058
  0
LINE
  5
1A6
  8
TRACES
 10
104.2740932561857
 20
95.61762073868888
 30
0.003964652856058
 11
104.2530537311888
 21
95.64514954642512
 31
0.003964652856058
  0
LINE
  5
1A7
  8
TRACES
 10
104.2530537311888
 20
95.64514954642512
 30
0.003964652856058
 11
104.2329805152708
 21
95.67339070203495
 31
0.003964652856058
  0
LINE
  5
1A8
  8
TRACES
 10
104.2329805152708
 20
95.67339070203495
 30
0.003964652856058
 11
104.2138977062644
 21
95.70231030209956
 31
0.003964652856058
  0
LINE
  5
1A9
  8
TRACES
 10
104.2138977062644
 20
95.70231030209956
 30
0.003964652856058
 11
104.195828213022
 21
95.73187362872964
 31
0.003964652856058
  0
LINE
  5
1AA
  8
TRACES
 10
104.195828213022
 20
95.73187362872964
 30
0.003964652856058
 11
104.1787937279138
 21
95.76204519124418
 31
0.003964652856058
  0
LINE
  5
1AB
  8
TRACES
 10
104.1787937279138
 20
95.76204519124418
 30
0.003964652856058
 11
104.1628147007857
 21
95.79278876877689
 31
0.003964652856058
  0
LINE
  5
1AC
  8
TRACES
 10
104.1628147007857
 20
95.79278876877689
 30
0.003964652856058
 11
104.1479103144097
 21
95.82406745375927
 31
0.003964652856058
  0
LINE
  5
1AD
  8
TRACES
 10
104.1479103144097
 20
95.82406745375927
 30
0.003964652856058
 11
104.134098461455
 21
95.85584369622795
 31
0.003964652856058
  0
LINE
  5
1AE
  8
TRACES
 10
104.134098461455
 20
95.85584369622795
 30
0.003964652856058
 11
104.1213957230077
 21
95.88807934890342
 31
0.003964652856058
  0
LINE
  5
1AF
  8
TRACES
 10
104.1213957230077
 20
95.88807934890342
 30
0.003964652856058
 11
104.1098173486657
 21
95.9207357129856
 31
0.003964652856058
  0
LINE
  5
1B0
  8
TRACES
 10
104.1098173486657
 20
95.9207357129856
 30
0.003964652856058
 11
104.099377238231
 21
95.9537735846117
 31
0.003964652856058
  0
LINE
  5
1B1
  8
TRACES
 10
104.099377238231
 20
95.9537735846117
 30
0.003964652856058
 11
104.0900879250235
 21
95.98715330192034
 31
0.003964652856058
  0
LINE
  5
1B2
  8
TRACES
 10
104.0900879250235
 20
95.98715330192034
 30
0.003964652856058
 11
104.0819605608347
 21
96.02083479266544
 31
0.003964652856058
  0
LINE
  5
1B3
  8
TRACES
 10
104.0819605608347
 20
96.02083479266544
 30
0.003964652856058
 11
104.0750049025396
 21
96.0547776223229
 31
0.003964652856058
  0
LINE
  5
1B4
  8
TRACES
 10
104.0750049025396
 20
96.0547776223229
 30
0.003964652856058
 11
104.0692293003845
 21
96.088941042632
 31
0.003964652856058
  0
LINE
  5
1B5
  8
TRACES
 10
104.0692293003845
 20
96.088941042632
 30
0.003964652856058
 11
104.0646406879615
 21
96.12328404051371
 31
0.003964652856058
  0
LINE
  5
1B6
  8
TRACES
 10
104.0646406879615
 20
96.12328404051371
 30
0.003964652856058
 11
104.0612445738854
 21
96.15776538730664
 31
0.003964652856058
  0
LINE
  5
1B7
  8
TRACES
 10
104.0612445738854
 20
96.15776538730664
 30
0.003964652856058
 11
104.0590450351807
 21
96.19234368826199
 31
0.003964652856058
  0
LINE
  5
1B8
  8
TRACES
 10
104.0590450351807
 20
96.19234368826199
 30
0.003964652856058
 11
104.0580447123866
 21
96.22697743223775
 31
0.003964652856058
  0
LINE
  5
1B9
  8
TRACES
 10
104.0580447123866
 20
96.22697743223775
 30
0.003964652856058
 11
104.0582448063875
 21
96.2616250415328
 31
0.003964652856058
  0
LINE
  5
1BA
  8
TRACES
 10
104.0582448063875
 20
96.2616250415328
 30
0.003964652856058
 11
104.0596450769712
 21
96.2962449218007
 31
0.003964652856058
  0
LINE
  5
1BB
  8
TRACES
 10
104.0596450769712
 20
96.2962449218007
 30
0.003964652856058
 11
104.0622438431173
 21
96.33079551198365
 31
0.003964652856058
  0
LINE
  5
1BC
  8
TRACES
 10
104.0622438431173
 20
96.33079551198365
 30
0.003964652856058
 11
104.066037985015
 21
96.36523533420636
 31
0.003964652856058
  0
LINE
  5
1BD
  8
TRACES
 10
104.066037985015
 20
96.36523533420636
 30
0.003964652856058
 11
104.071022947809
 21
96.39952304357013
 31
0.003964652856058
  0
LINE
  5
1BE
  8
TRACES
 10
104.071022947809
 20
96.39952304357013
 30
0.003964652856058
 11
104.077192747067
 21
96.43361747778727
 31
0.003964652856058
  0
LINE
  5
1BF
  8
TRACES
 10
104.077192747067
 20
96.43361747778727
 30
0.003964652856058
 11
104.0845399759644
 21
96.46747770659631
 31
0.003964652856058
  0
LINE
  5
1C0
  8
TRACES
 10
104.0845399759644
 20
96.46747770659631
 30
0.003964652856058
 11
104.0930558141759
 21
96.50106308089865
 31
0.003964652856058
  0
LINE
  5
1C1
  8
TRACES
 10
104.0930558141759
 20
96.50106308089865
 30
0.003964652856058
 11
104.1027300384643
 21
96.53433328155762
 31
0.003964652856058
  0
LINE
  5
1C2
  8
TRACES
 10
104.1027300384643
 20
96.53433328155762
 30
0.003964652856058
 11
104.1135510349538
 21
96.56724836780157
 31
0.003964652856058
  0
LINE
  5
1C3
  8
TRACES
 10
104.1135510349538
 20
96.56724836780157
 30
0.003964652856058
 11
104.1255058130719
 21
96.59976882517256
 31
0.003964652856058
  0
LINE
  5
1C4
  8
TRACES
 10
104.1255058130719
 20
96.59976882517256
 30
0.003964652856058
 11
104.138580021145
 21
96.63185561296339
 31
0.003964652856058
  0
LINE
  5
1C5
  8
TRACES
 10
104.138580021145
 20
96.63185561296339
 30
0.003964652856058
 11
104.1527579636271
 21
96.66347021108582
 31
0.003964652856058
  0
LINE
  5
1C6
  8
TRACES
 10
104.1527579636271
 20
96.66347021108582
 30
0.003964652856058
 11
104.1680226199429
 21
96.69457466631387
 31
0.003964652856058
  0
LINE
  5
1C7
  8
TRACES
 10
104.1680226199429
 20
96.69457466631387
 30
0.003964652856058
 11
104.1843556649202
 21
96.72513163784645
 31
0.003964652856058
  0
LINE
  5
1C8
  8
TRACES
 10
104.1843556649202
 20
96.72513163784645
 30
0.003964652856058
 11
104.2017374907896
 21
96.75510444213494
 31
0.003964652856058
  0
LINE
  5
1C9
  8
TRACES
 10
104.2017374907896
 20
96.75510444213494
 30
0.003964652856058
 11
104.2201472307237
 21
96.78445709692171
 31
0.003964652856058
  0
LINE
  5
1CA
  8
TRACES
 10
104.2201472307237
 20
96.78445709692171
 30
0.003964652856058
 11
104.2395627838873
 21
96.81315436443663
 31
0.003964652856058
  0
LINE
  5
1CB
  8
TRACES
 10
104.2395627838873
 20
96.81315436443663
 30
0.003964652856058
 11
104.2599608419697
 21
96.84116179369994
 31
0.003964652856058
  0
LINE
  5
1CC
  8
TRACES
 10
104.2599608419697
 20
96.84116179369994
 30
0.003964652856058
 11
104.281316917166
 21
96.86844576188054
 31
0.003964652856058
  0
LINE
  5
1CD
  8
TRACES
 10
104.281316917166
 20
96.86844576188054
 30
0.003964652856058
 11
104.3036053715749
 21
96.89497351466011
 31
0.003964652856058
  0
LINE
  5
1CE
  8
TRACES
 10
104.3036053715749
 20
96.89497351466011
 30
0.003964652856058
 11
104.3267994479767
 21
96.92071320555452
 31
0.003964652856058
  0
LINE
  5
1CF
  8
TRACES
 10
104.3267994479767
 20
96.92071320555452
 30
0.003964652856058
 11
104.3508713019553
 21
96.94563393414548
 31
0.003964652856058
  0
LINE
  5
1D0
  8
TRACES
 10
104.3508713019553
 20
96.94563393414548
 30
0.003964652856058
 11
104.3913805805676
 21
96.96772587596017
 31
0.003964652856058
  0
LINE
  5
1D1
  8
TRACES
 10
104.3913805805676
 20
96.96772587596017
 30
0.003964652856058
 11
104.4326054391172
 21
96.98845186410054
 31
0.003964652856058
  0
LINE
  5
1D2
  8
TRACES
 10
104.4326054391172
 20
96.98845186410054
 30
0.003964652856058
 11
104.4744998346837
 21
97.0077887502756
 31
0.003964652856058
  0
LINE
  5
1D3
  8
TRACES
 10
104.4744998346837
 20
97.0077887502756
 30
0.003964652856058
 11
104.5170169765591
 21
97.02571493764441
 31
0.003964652856058
  0
LINE
  5
1D4
  8
TRACES
 10
104.5170169765591
 20
97.02571493764441
 30
0.003964652856058
 11
104.5601093785069
 21
97.04221040493711
 31
0.003964652856058
  0
LINE
  5
1D5
  8
TRACES
 10
104.5601093785069
 20
97.04221040493711
 30
0.003964652856058
 11
104.6037289117983
 21
97.05725672881606
 31
0.003964652856058
  0
LINE
  5
1D6
  8
TRACES
 10
104.6037289117983
 20
97.05725672881606
 30
0.003964652856058
 11
104.647826858966
 21
97.07083710445241
 31
0.003964652856058
  0
LINE
  5
1D7
  8
TRACES
 10
104.647826858966
 20
97.07083710445241
 30
0.003964652856058
 11
104.6923539682153
 21
97.0829363642949
 31
0.003964652856058
  0
LINE
  5
1D8
  8
TRACES
 10
104.6923539682153
 20
97.0829363642949
 30
0.003964652856058
 11
104.7372605084319
 21
97.09354099501009
 31
0.003964652856058
  0
LINE
  5
1D9
  8
TRACES
 10
104.7372605084319
 20
97.09354099501009
 30
0.003964652856058
 11
104.7824963247256
 21
97.10263915257514
 31
0.003964652856058
  0
LINE
  5
1DA
  8
TRACES
 10
104.7824963247256
 20
97.10263915257514
 30
0.003964652856058
 11
104.8280108944465
 21
97.1102206755059
 31
0.003964652856058
  0
LINE
  5
1DB
  8
TRACES
 10
104.8280108944465
 20
97.1102206755059
 30
0.003964652856058
 11
104.8737533836129
 21
97.11627709620618
 31
0.003964652856058
  0
LINE
  5
1DC
  8
TRACES
 10
104.8737533836129
 20
97.11627709620618
 30
0.003964652856058
 11
104.9196727036857
 21
97.12080165042482
 31
0.003964652856058
  0
LINE
  5
1DD
  8
TRACES
 10
104.9196727036857
 20
97.12080165042482
 30
0.003964652856058
 11
104.9657175686286
 21
97.12378928481057
 31
0.003964652856058
  0
LINE
  5
1DE
  8
TRACES
 10
104.9657175686286
 20
97.12378928481057
 30
0.003964652856058
 11
105.0118365521874
 21
97.12523666255606
 31
0.003964652856058
  0
LINE
  5
1DF
  8
TRACES
 10
105.0118365521874
 20
97.12523666255606
 30
0.003964652856058
 11
105.0579781453269
 21
97.12514216712458
 31
0.003964652856058
  0
LINE
  5
1E0
  8
TRACES
 10
105.0579781453269
 20
97.12514216712457
 30
0.003964652856058
 11
107.669744143119
 21
97.12514216712457
 31
0.003964652856058
  0
ARC
  5
1E1
  8
TRACES
 10
-107.7157093696899
 20
96.6537978156428
 30
-0.003964652856058
 40
0.4735802991336065
 50
84.43016086310375
 51
161.8873946496745
210
0.0
220
0.0
230
-1.0
  0
ARC
  5
1E2
  8
TRACES
 10
108.4608104343807
 20
96.8355119444419
 30
0.003964652856058
 40
0.2969967657881706
 50
186.6677624484254
 51
270.5129933329476
  0
LINE
  5
1E3
  8
TRACES
 10
103.9142120471203
 20
77.05191636416399
 30
0.003964652856058
 11
103.9142120471203
 21
82.96176766638571
 31
0.003964652856058
  0
LINE
  5
1E4
  8
TRACES
 10
103.9142120471203
 20
82.96176766638571
 30
0.003964652856058
 11
102.01376763831
 21
84.86221207519598
 31
0.003964652856058
  0
LINE
  5
1E5
  8
TRACES
 10
102.01376763831
 20
84.86221207519598
 30
0.003964652856058
 11
102.01376763831
 21
90.90998878532136
 31
0.003964652856058
  0
ARC
  5
1E6
  8
TRACES
 10
101.7137676383098
 20
90.90998878532127
 30
0.003964652856058
 40
0.3000000000001819
 50
0.0000000000162844
 51
45.00000000003646
  0
LINE
  5
1E7
  8
TRACES
 10
101.9258996726658
 20
91.1221208196775
 30
0.003964652856058
 11
100.1722845610552
 21
92.87573593128808
 31
0.003964652856058
  0
LINE
  5
1E8
  8
TRACES
 10
100.1722845610552
 20
92.87573593128808
 30
0.003964652856058
 11
100.1722845610552
 21
95.77126258022865
 31
0.003964652856058
  0
LINE
  5
1E9
  8
TRACES
 10
100.1722845610552
 20
95.77126258022865
 30
0.003964652856058
 11
102.6803758500569
 21
98.52132792811275
 31
0.003964652856058
  0
LINE
  5
1EA
  8
TRACES
 10
102.6803758500569
 20
98.52132792811275
 30
0.003964652856058
 11
133.2653211645016
 21
98.52132792811278
 31
0.003964652856058
  0
LINE
  5
1EB
  8
TRACES
 10
133.2653211645016
 20
98.52132792811278
 30
0.003964652856058
 11
144.5137177099126
 21
87.03095732381935
 31
0.003964652856058
  0
ARC
  5
1EC
  8
TRACES
 10
144.7258497442659
 20
87.24308935817766
 30
0.003964652856058
 40
0.2999999999997633
 50
225.0000000006775
 51
270.0000000002497
  0
LINE
  5
1ED
  8
TRACES
 10
144.7258497442672
 20
86.94308935817789
 30
0.003964652856058
 11
146.4209078020538
 21
86.94308935817675
 31
0.003964652856058
  0
ARC
  5
1EE
  8
TRACES
 10
146.4209078020538
 20
87.24308935817677
 30
0.003964652856058
 40
0.3000000000000256
 50
270.0
 51
359.9999999999945
  0
LINE
  5
1EF
  8
TRACES
 10
146.7209078020538
 20
87.24308935817675
 30
0.003964652856058
 11
146.7209078020538
 21
89.81311729822835
 31
0.003964652856058
  0
ARC
  5
1F0
  8
TRACES
 10
-147.5209078020581
 20
89.81311729822835
 30
-0.003964652856058
 40
0.800000000004303
 50
0.0
 51
179.9999991267184
210
0.0
220
0.0
230
-1.0
  0
LINE
  5
1F1
  8
TRACES
 10
148.3209078020624
 20
89.81311731042166
 30
0.003964652856058
 11
148.3209078020712
 21
87.24308935817572
 31
0.003964652856058
  0
ARC
  5
1F2
  8
TRACES
 10
148.6209078020712
 20
87.24308935817672
 30
0.003964652856058
 40
0.2999999999999545
 50
180.00000000019
 51
270.0000000000054
  0
LINE
  5
1F3
  8
TRACES
 10
148.6209078020712
 20
86.94308935817676
 30
0.003964652856058
 11
150.6948050029709
 21
86.94308935817675
 31
0.003964652856058
  0
ARC
  5
1F4
  8
TRACES
 10
150.6948050029707
 20
87.24308935817704
 30
0.003964652856058
 40
0.3000000000002956
 50
270.0000000000271
 51
314.9999999999769
  0
LINE
  5
1F5
  8
TRACES
 10
150.9069370373268
 20
87.03095732382079
 30
0.003964652856058
 11
160.4145067962716
 21
96.53852708276565
 31
0.003964652856058
  0
LINE
  5
1F6
  8
TRACES
 10
160.4145067962716
 20
96.53852708276565
 30
0.003964652856058
 11
168.0340192285683
 21
96.53852708276565
 31
0.003964652856058
  0
ARC
  5
1F7
  8
TRACES
 10
168.0340192285725
 20
96.83852708276567
 30
0.003964652856058
 40
0.3000000000000114
 50
269.9999999991912
 51
352.8192442186143
  0
ARC
  5
1F8
  8
TRACES
 10
-168.8322681028858
 20
96.73339793743561
 30
-0.003964652856058
 40
0.5051493990317796
 50
7.693831386573863
 51
89.48692439522344
210
0.0
220
0.0
230
-1.0
  0
LINE
  5
1F9
  8
TRACES
 10
168.8277446218945
 20
97.23852708276567
 30
0.003964652856058
 11
171.4395106196866
 21
97.23852708276567
 31
0.003964652856058
  0
ARC
  5
1FA
  8
TRACES
 10
-171.4395107520648
 20
96.23852708276567
 30
-0.003964652856058
 40
1.000000000000009
 50
89.99999241528596
 51
270.0000000035403
210
0.0
220
0.0
230
-1.0
  0
LINE
  5
1FB
  8
TRACES
 10
171.4395107520031
 20
95.23852708276567
 30
0.003964652856058
 11
168.8277446218945
 21
95.23852708276567
 31
0.003964652856058
  0
ARC
  5
1FC
  8
TRACES
 10
-168.8277446218944
 20
95.73852708276561
 30
-0.003964652856058
 40
0.4999999999999432
 50
269.9999999999902
 51
352.8192442185491
210
0.0
220
0.0
230
-1.0
  0
ARC
  5
1FD
  8
TRACES
 10
168.0366783306327
 20
95.64154222108928
 30
0.003964652856058
 40
0.296996765788256
 50
6.667762448448329
 51
90.51299333301876
  0
LINE
  5
1FE
  8
TRACES
 10
168.0340192285751
 20
95.93852708276567
 30
0.003964652856058
 11
160.6630349336955
 21
95.93852708276566
 31
0.003964652856058
  0
LINE
  5
1FF
  8
TRACES
 10
160.6630349336955
 20
95.93852708276566
 30
0.003964652856058
 11
151.0675972091066
 21
86.34308935817675
 31
0.003964652856058
  0
LINE
  5
200
  8
TRACES
 10
151.0675972091066
 20
86.34308935817675
 30
0.003964652856058
 11
148.6209078020754
 21
86.34308935817677
 31
0.003964652856058
  0
ARC
  5
201
  8
TRACES
 10
148.6209078020753
 20
86.04308935817681
 30
0.003964652856058
 40
0.2999999999999545
 50
89.99999999999459
 51
180.0000000002036
  0
LINE
  5
202
  8
TRACES
 10
148.3209078020754
 20
86.04308935817575
 30
0.003964652856058
 11
148.3209078020767
 21
85.64308933774049
 31
0.003964652856058
  0
ARC
  5
203
  8
TRACES
 10
-147.5209078020768
 20
85.64308933774049
 30
-0.003964652856058
 40
0.7999999999999261
 50
180.0
 51
270.0000000000041
210
0.0
220
0.0
230
-1.0
  0
ARC
  5
204
  8
TRACES
 10
-147.5209078020538
 20
85.64308933774049
 30
-0.003964652856058
 40
0.799999999999983
 50
269.9999999983553
 51
0.0
210
0.0
220
0.0
230
-1.0
  0
LINE
  5
205
  8
TRACES
 10
146.7209078020538
 20
85.64308933774049
 30
0.003964652856058
 11
146.7209078020538
 21
86.04308935817676
 31
0.003964652856058
  0
ARC
  5
206
  8
TRACES
 10
146.4209078020538
 20
86.0430893581767
 30
0.003964652856058
 40
0.3000000000000398
 50
0.0000000000108563
 51
89.99999999999459
  0
LINE
  5
207
  8
TRACES
 10
146.4209078020538
 20
86.34308935817673
 30
0.003964652856058
 11
144.3530575381314
 21
86.34308935817675
 31
0.003964652856058
  0
LINE
  5
208
  8
TRACES
 10
144.3530575381314
 20
86.34308935817675
 30
0.003964652856058
 11
133.0167930270778
 21
97.92132792811279
 31
0.003964652856058
  0
LINE
  5
209
  8
TRACES
 10
133.0167930270778
 20
97.92132792811279
 30
0.003964652856058
 11
102.9289039874807
 21
97.92132792811276
 31
0.003964652856058
  0
LINE
  5
20A
  8
TRACES
 10
102.9289039874807
 20
97.92132792811276
 30
0.003964652856058
 11
100.7722845610552
 21
95.52273444280479
 31
0.003964652856058
  0
LINE
  5
20B
  8
TRACES
 10
100.7722845610552
 20
95.52273444280479
 30
0.003964652856058
 11
100.7722845610552
 21
93.12426406871192
 31
0.003964652856058
  0
LINE
  5
20C
  8
TRACES
 10
100.7722845610552
 20
93.12426406871192
 30
0.003964652856058
 11
102.3501637413779
 21
91.54638488838926
 31
0.003964652856058
  0
ARC
  5
20D
  8
TRACES
 10
102.5622957757337
 20
91.75851692274496
 30
0.003964652856058
 40
0.299999999999723
 50
224.9999999999827
 51
270.000000000019
  0
LINE
  5
20E
  8
TRACES
 10
102.5622957757338
 20
91.45851692274523
 30
0.003964652856058
 11
103.7642526196292
 21
91.45851692274523
 31
0.003964652856058
  0
ARC
  5
20F
  8
TRACES
 10
103.7642526196292
 20
91.75851692274522
 30
0.003964652856058
 40
0.2999999999999829
 50
269.9999999999972
 51
352.8192442185426
  0
ARC
  5
210
  8
TRACES
 10
-104.5625014939394
 20
91.6533877774186
 30
-0.003964652856058
 40
0.5051493990283104
 50
7.693831386189498
 51
89.48692439527149
210
0.0
220
0.0
230
-1.0
  0
LINE
  5
211
  8
TRACES
 10
104.5579780129486
 20
92.1585169227452
 30
0.003964652856058
 11
107.1697441430572
 21
92.15851692274522
 31
0.003964652856058
  0
ARC
  5
212
  8
TRACES
 10
-107.1697441430299
 20
91.1585169227452
 30
-0.003964652856058
 40
1.000000000000014
 50
90.00000000156248
 51
269.9999999992176
210
0.0
220
0.0
230
-1.0
  0
LINE
  5
213
  8
TRACES
 10
107.1697441430435
 20
90.15851692274522
 30
0.003964652856058
 11
104.5579780129486
 21
90.1585169227452
 31
0.003964652856058
  0
ARC
  5
214
  8
TRACES
 10
-104.5579780129486
 20
90.65851692274518
 30
-0.003964652856058
 40
0.4999999999999716
 50
269.9999999999968
 51
352.8192442185495
210
0.0
220
0.0
230
-1.0
  0
ARC
  5
215
  8
TRACES
 10
103.7669117216868
 20
90.5615320610689
 30
0.003964652856058
 40
0.2969967657882635
 50
6.667762448437118
 51
90.51299333299136
  0
LINE
  5
216
  8
TRACES
 10
103.7642526196293
 20
90.85851692274528
 30
0.003964652856058
 11
102.9137676383099
 21
90.85851692274522
 31
0.003964652856058
  0
ARC
  5
217
  8
TRACES
 10
102.9137676383099
 20
90.55851692274524
 30
0.003964652856058
 40
0.2999999999999829
 50
90.00000000001357
 51
180.0000000000054
  0
LINE
  5
218
  8
TRACES
 10
102.61376763831
 20
90.55851692274521
 30
0.003964652856058
 11
102.61376763831
 21
85.11074021261983
 31
0.003964652856058
  0
LINE
  5
219
  8
TRACES
 10
102.61376763831
 20
85.11074021261983
 30
0.003964652856058
 11
104.5142120471203
 21
83.21029580380956
 31
0.003964652856058
  0
LINE
  5
21A
  8
TRACES
 10
104.5142120471203
 20
83.21029580380956
 30
0.003964652856058
 11
104.5142120471203
 21
77.05191636417258
 31
0.003964652856058
  0
ARC
  5
21B
  8
TRACES
 10
104.8142120471202
 20
77.05191636416593
 30
0.003964652856058
 40
0.2999999999999829
 50
179.9999999987298
 51
270.0000000000135
  0
LINE
  5
21C
  8
TRACES
 10
104.8142120471203
 20
76.75191636416595
 30
0.003964652856058
 11
104.8441333069629
 21
76.75191636416409
 31
0.003964652856058
  0
ARC
  5
21D
  8
TRACES
 10
-104.8441333069629
 20
75.95191636416415
 30
-0.003964652856058
 40
0.7999999999999403
 50
89.99999999999898
 51
180.0000000000092
210
0.0
220
0.0
230
-1.0
  0
ARC
  5
21E
  8
TRACES
 10
-104.8441333069629
 20
75.95191636415535
 30
-0.003964652856058
 40
0.7999999999998835
 50
179.9999999993792
 51
270.0000000000051
210
0.0
220
0.0
230
-1.0
  0
LINE
  5
21F
  8
TRACES
 10
104.8441333069629
 20
75.15191636415548
 30
0.003964652856058
 11
102.4371513153686
 21
75.15191636415531
 31
0.003964652856058
  0
ARC
  5
220
  8
TRACES
 10
-102.4371513153685
 20
75.9519163641553
 30
-0.003964652856058
 40
0.799999999999983
 50
269.9999999999939
 51
0.0000000006127021
210
0.0
220
0.0
230
-1.0
  0
ARC
  5
221
  8
TRACES
 10
-102.4371513153686
 20
75.95191636416385
 30
-0.003964652856058
 40
0.8000000000000682
 50
0.0
 51
89.99999999999594
210
0.0
220
0.0
230
-1.0
  0
LINE
  5
222
  8
TRACES
 10
102.4371513153685
 20
76.75191636416392
 30
0.003964652856058
 11
103.6142120471203
 21
76.751916364164
 31
0.003964652856058
  0
ARC
  5
223
  8
TRACES
 10
103.6142120471202
 20
77.05191636416404
 30
0.003964652856058
 40
0.3000000000000398
 50
270.0000000000109
 51
359.9999999999891
  0
CIRCLE
  5
224
  8
TRACES
 10
-168.3002437822179
 20
77.99999999999997
 30
-0.003964652856058
 40
1.5
210
0.0
220
0.0
230
-1.0
  0
CIRCLE
  5
225
  8
TRACES
 10
-122.3002437822179
 20
78.99999999999997
 30
-0.003964652856058
 40
1.5
210
0.0
220
0.0
230
-1.0
  0
ARC
  5
226
  8
TRACES
 10
-129.7408722419817
 20
85.64308933774048
 30
-0.003964652856058
 40
0.7999999999995879
 50
316.2382573062479
 51
0.0000000000040711
210
0.0
220
0.0
230
-1.0
  0
LINE
  5
227
  8
TRACES
 10
128.9408722419821
 20
85.64308933774053
 30
0.003964652856058
 11
128.9408722419821
 21
89.81311729822839
 31
0.003964652856058
  0
ARC
  5
228
  8
TRACES
 10
-129.7408722419864
 20
89.81311729822839
 30
-0.003964652856058
 40
0.800000000004303
 50
0.0
 51
179.9999991267174
210
0.0
220
0.0
230
-1.0
  0
LINE
  5
229
  8
TRACES
 10
130.5408722419907
 20
89.8131173104217
 30
0.003964652856058
 11
130.5408722420051
 21
85.64308933774053
 31
0.003964652856058
  0
ARC
  5
22A
  8
TRACES
 10
-129.7408722420053
 20
85.64308933774045
 30
-0.003964652856058
 40
0.7999999999997556
 50
179.9999999999939
 51
223.7617426926906
210
0.0
220
0.0
230
-1.0
  0
ARC
  5
22B
  8
TRACES
 10
131.0408722420047
 20
84.39809937794176
 30
0.003964652856058
 40
0.9999999999996801
 50
136.2382573073116
 51
180.0000000000065
  0
LINE
  5
22C
  8
TRACES
 10
130.040872242005
 20
84.39809937794165
 30
0.003964652856058
 11
130.040872242005
 21
81.83820601866397
 31
0.003964652856058
  0
LINE
  5
22D
  8
TRACES
 10
130.040872242005
 20
81.83820601866397
 30
0.003964652856058
 11
133.579078260669
 21
78.30000000000001
 31
0.003964652856058
  0
LINE
  5
22E
  8
TRACES
 10
133.579078260669
 20
78.30000000000001
 30
0.003964652856058
 11
159.6242220918098
 21
78.3
 31
0.003964652856058
  0
LINE
  5
22F
  8
TRACES
 10
159.6242220918098
 20
78.3
 30
0.003964652856058
 11
169.0277446218944
 21
87.70352253008458
 31
0.003964652856058
  0
LINE
  5
230
  8
TRACES
 10
169.0277446218944
 20
87.70352253008458
 30
0.003964652856058
 11
169.0277446218944
 21
89.85851692274531
 31
0.003964652856058
  0
ARC
  5
231
  8
TRACES
 10
168.7277446218943
 20
89.85851692274527
 30
0.003964652856058
 40
0.3000000000000398
 50
0.0000000000081422
 51
89.99999999999459
  0
LINE
  5
232
  8
TRACES
 10
168.7277446218944
 20
90.1585169227453
 30
0.003964652856058
 11
166.8277446218944
 21
90.15851692274533
 31
0.003964652856058
  0
ARC
  5
233
  8
TRACES
 10
-166.8277446218944
 20
90.65851692274538
 30
-0.003964652856058
 40
0.5000000000000284
 50
270.0
 51
359.9999999999968
210
0.0
220
0.0
230
-1.0
  0
LINE
  5
234
  8
TRACES
 10
166.3277446218944
 20
90.65851692274535
 30
0.003964652856058
 11
166.3277446218944
 21
91.65851692274535
 31
0.003964652856058
  0
ARC
  5
235
  8
TRACES
 10
-166.8277446218944
 20
91.65851692274535
 30
-0.003964652856058
 40
0.5
 50
359.9999999999984
 51
90.0
210
0.0
220
0.0
230
-1.0
  0
LINE
  5
236
  8
TRACES
 10
166.8277446218944
 20
92.15851692274535
 30
0.003964652856058
 11
169.4395107520029
 21
92.15851692274532
 31
0.003964652856058
  0
ARC
  5
237
  8
TRACES
 10
-169.4395107519757
 20
91.1585169227453
 30
-0.003964652856058
 40
1.000000000000014
 50
90.00000000000162
 51
247.9407923772026
210
0.0
220
0.0
230
-1.0
  0
ARC
  5
238
  8
TRACES
 10
169.9277446218944
 20
89.95368179366568
 30
0.003964652856058
 40
0.300000000000033
 50
112.0592076227848
 51
179.9999999999973
  0
LINE
  5
239
  8
TRACES
 10
169.6277446218944
 20
89.9536817936657
 30
0.003964652856058
 11
169.6277446218944
 21
87.45499439266074
 31
0.003964652856058
  0
LINE
  5
23A
  8
TRACES
 10
169.6277446218944
 20
87.45499439266074
 30
0.003964652856058
 11
159.8727502292336
 21
77.7
 31
0.003964652856058
  0
LINE
  5
23B
  8
TRACES
 10
159.8727502292336
 20
77.7
 30
0.003964652856058
 11
133.3305501232451
 21
77.7
 31
0.003964652856058
  0
LINE
  5
23C
  8
TRACES
 10
133.3305501232451
 20
77.7
 30
0.003964652856058
 11
129.440872242005
 21
81.5896778812401
 31
0.003964652856058
  0
LINE
  5
23D
  8
TRACES
 10
129.440872242005
 20
81.5896778812401
 30
0.003964652856058
 11
129.440872242005
 21
84.39809937791784
 31
0.003964652856058
  0
ARC
  5
23E
  8
TRACES
 10
128.4408722420051
 20
84.39809937791784
 30
0.003964652856058
 40
0.9999999999999716
 50
0.0
 51
43.76174269373053
  0
CIRCLE
  5
23F
  8
TRACES
 10
-129.7408722420054
 20
61.24303855807526
 30
-0.003964652856058
 40
0.4150000000000063
210
0.0
220
0.0
230
-1.0
  0
CIRCLE
  5
240
  8
TRACES
 10
-147.5209078020765
 20
61.24303855807517
 30
-0.003964652856058
 40
0.4149999999999849
210
0.0
220
0.0
230
-1.0
  0
CIRCLE
  5
241
  8
TRACES
 10
-144.9809027220662
 20
61.24303855807516
 30
-0.003964652856058
 40
0.4149999999999991
210
0.0
220
0.0
230
-1.0
  0
CIRCLE
  5
242
  8
TRACES
 10
-142.440897642056
 20
61.24303855807522
 30
-0.003964652856058
 40
0.4149999999999991
210
0.0
220
0.0
230
-1.0
  0
CIRCLE
  5
243
  8
TRACES
 10
-134.8208824020259
 20
61.24303855807528
 30
-0.003964652856058
 40
0.4149999999999778
210
0.0
220
0.0
230
-1.0
  0
CIRCLE
  5
244
  8
TRACES
 10
-132.2808773220157
 20
61.24303855807527
 30
-0.003964652856058
 40
0.414999999999992
210
0.0
220
0.0
230
-1.0
  0
CIRCLE
  5
245
  8
TRACES
 10
-127.2008671619952
 20
61.24303855807527
 30
-0.003964652856058
 40
0.4149999999999849
210
0.0
220
0.0
230
-1.0
  0
CIRCLE
  5
246
  8
TRACES
 10
-124.6608620819849
 20
61.24303855807527
 30
-0.003964652856058
 40
0.4149999999999849
210
0.0
220
0.0
230
-1.0
  0
CIRCLE
  5
247
  8
TRACES
 10
-122.1208570019747
 20
61.24303855807533
 30
-0.003964652856058
 40
0.414999999999992
210
0.0
220
0.0
230
-1.0
  0
CIRCLE
  5
248
  8
TRACES
 10
-114.5008417619439
 20
61.24303855807533
 30
-0.003964652856058
 40
0.4149999999999778
210
0.0
220
0.0
230
-1.0
  0
CIRCLE
  5
249
  8
TRACES
 10
-157.6809281221167
 20
61.24303855807511
 30
-0.003964652856058
 40
0.4150000000000134
210
0.0
220
0.0
230
-1.0
  0
CIRCLE
  5
24A
  8
TRACES
 10
-139.9008925620457
 20
61.24303855807528
 30
-0.003964652856058
 40
0.4149999999999849
210
0.0
220
0.0
230
-1.0
  0
CIRCLE
  5
24B
  8
TRACES
 10
-137.3608874820355
 20
61.24303855807527
 30
-0.003964652856058
 40
0.414999999999992
210
0.0
220
0.0
230
-1.0
  0
ARC
  5
24C
  8
TRACES
 10
132.6002437822179
 20
54.25396317172947
 30
0.003964652856058
 40
0.4999999999999858
 50
269.9999999999968
 51
0.0000000000008142
  0
LINE
  5
24D
  8
TRACES
 10
133.1002437822179
 20
54.25396317172947
 30
0.003964652856058
 11
133.1002437822179
 21
55.77429667417261
 31
0.003964652856058
  0
ARC
  5
24E
  8
TRACES
 10
132.6002437822179
 20
55.7742966741726
 30
0.003964652856058
 40
0.5
 50
0.0000000000008142
 51
179.9999999999976
  0
LINE
  5
24F
  8
TRACES
 10
132.1002437822179
 20
55.77429667417262
 30
0.003964652856058
 11
132.1002437822179
 21
54.25396317172949
 31
0.003964652856058
  0
ARC
  5
250
  8
TRACES
 10
132.6002437822179
 20
54.25396317172946
 30
0.003964652856058
 40
0.4999999999999716
 50
179.9999999999967
 51
270.0000000000032
  0
ARC
  5
251
  8
TRACES
 10
107.5842680030449
 20
53.04961949770497
 30
0.003964652856058
 40
0.3000000000000043
 50
89.99999999990501
 51
157.9756871629322
  0
ARC
  5
252
  8
TRACES
 10
-106.8333968873301
 20
53.36334134417859
 30
-0.003964652856058
 40
0.5138051396058798
 50
203.0560020090635
 51
268.9683108279485
210
0.0
220
0.0
230
-1.0
  0
LINE
  5
253
  8
TRACES
 10
106.8426481543355
 20
52.84961949770503
 30
0.003964652856058
 11
104.8533322024362
 21
52.8496194977051
 31
0.003964652856058
  0
ARC
  5
254
  8
TRACES
 10
-104.8533320165726
 20
53.64961949770507
 30
-0.003964652856058
 40
0.7999999999999903
 50
269.9999866885024
 51
90.0
210
0.0
220
0.0
230
-1.0
  0
LINE
  5
255
  8
TRACES
 10
104.8533320165726
 20
54.44961949770506
 30
0.003964652856058
 11
106.8426481543356
 21
54.44961949770505
 31
0.003964652856058
  0
ARC
  5
256
  8
TRACES
 10
-106.8426481543355
 20
53.94961949770507
 30
-0.003964652856058
 40
0.4999999999999787
 50
90.00000000000325
 51
157.9756871629786
210
0.0
220
0.0
230
-1.0
  0
ARC
  5
257
  8
TRACES
 10
107.579010916648
 20
54.24182197846804
 30
0.003964652856058
 40
0.2922497677013176
 50
200.9936016340148
 51
271.0307112030522
  0
LINE
  5
258
  8
TRACES
 10
107.5842680030452
 20
53.94961949770497
 30
0.003964652856058
 11
117.4145067962716
 21
53.94852708276559
 31
0.003964652856058
  0
LINE
  5
259
  8
TRACES
 10
117.4145067962716
 20
53.94852708276559
 30
0.003964652856058
 11
119.2808519219644
 21
55.81487220845845
 31
0.003964652856058
  0
LINE
  5
25A
  8
TRACES
 10
119.2808519219644
 20
55.81487220845845
 30
0.003964652856058
 11
119.2808519219644
 21
59.69116285249849
 31
0.003964652856058
  0
ARC
  5
25B
  8
TRACES
 10
118.9908372336905
 20
59.69657814810902
 30
0.003964652856058
 40
0.2900652423872765
 50
358.9302695925267
 51
58.01399925709027
  0
ARC
  5
25C
  8
TRACES
 10
-119.5808519219569
 20
60.61311729823272
 30
-0.003964652856058
 40
0.8000000000000531
 50
303.0557311503865
 51
359.999999999999
210
0.0
220
0.0
230
-1.0
  0
LINE
  5
25D
  8
TRACES
 10
118.7808519219569
 20
60.61311729823271
 30
0.003964652856058
 11
118.7808519219567
 21
63.020099289827
 31
0.003964652856058
  0
ARC
  5
25E
  8
TRACES
 10
-119.5808519219567
 20
63.02009928982707
 30
-0.003964652856058
 40
0.799999999999983
 50
359.9999999999949
 51
90.00000000061272
210
0.0
220
0.0
230
-1.0
  0
ARC
  5
25F
  8
TRACES
 10
-119.5808519219653
 20
63.02009928982707
 30
-0.003964652856058
 40
0.8000000000000043
 50
89.99999999999594
 51
180.0000000000005
210
0.0
220
0.0
230
-1.0
  0
LINE
  5
260
  8
TRACES
 10
120.3808519219653
 20
63.02009928982706
 30
0.003964652856058
 11
120.3808519219655
 21
60.61311729823271
 31
0.003964652856058
  0
ARC
  5
261
  8
TRACES
 10
-119.5522827487842
 20
60.62861110777701
 30
-0.003964652856058
 40
0.8287140235814182
 50
181.0712762131905
 51
235.8729926359787
210
0.0
220
0.0
230
-1.0
  0
ARC
  5
262
  8
TRACES
 10
120.1808519219651
 20
59.6911628525032
 30
0.003964652856058
 40
0.299999999999976
 50
123.0557311508296
 51
179.9999999999797
  0
LINE
  5
263
  8
TRACES
 10
119.8808519219651
 20
59.69116285250331
 30
0.003964652856058
 11
119.8808519219644
 21
55.56634407103459
 31
0.003964652856058
  0
LINE
  5
264
  8
TRACES
 10
119.8808519219644
 20
55.56634407103459
 30
0.003964652856058
 11
117.6630349336954
 21
53.3485270827656
 31
0.003964652856058
  0
LINE
  5
265
  8
TRACES
 10
117.6630349336954
 20
53.3485270827656
 30
0.003964652856058
 11
107.5842680030454
 21
53.34961949770497
 31
0.003964652856058
  0
LINE
  5
266
  8
TRACES
 10
136.3299121513909
 20
53.69116420000203
 30
0.003964652856058
 11
136.3299121513909
 21
62.16118322542862
 31
0.003964652856058
  0
ARC
  5
267
  8
TRACES
 10
-137.1299121513909
 20
62.16118322542857
 30
-0.003964652856058
 40
0.8000000000000398
 50
0.0000000000030533
 51
89.99999999999594
210
0.0
220
0.0
230
-1.0
  0
LINE
  5
268
  8
TRACES
 10
137.1299121513909
 20
62.96118322542861
 30
0.003964652856058
 11
137.4705754130449
 21
62.96118322542861
 31
0.003964652856058
  0
ARC
  5
269
  8
TRACES
 10
-137.4705754130449
 20
62.16118322542857
 30
-0.003964652856058
 40
0.8000000000000398
 50
90.00000000000203
 51
179.9999999999964
210
0.0
220
0.0
230
-1.0
  0
LINE
  5
26A
  8
TRACES
 10
138.270575413045
 20
62.16118322542862
 30
0.003964652856058
 11
138.270575413045
 21
53.69116420000204
 31
0.003964652856058
  0
ARC
  5
26B
  8
TRACES
 10
-137.4705754130449
 20
53.69116420000205
 30
-0.003964652856058
 40
0.8000000000000114
 50
180.000000000001
 51
269.999999999998
210
0.0
220
0.0
230
-1.0
  0
LINE
  5
26C
  8
TRACES
 10
137.4705754130449
 20
52.89116420000204
 30
0.003964652856058
 11
137.1299121513909
 21
52.89116420000204
 31
0.003964652856058
  0
ARC
  5
26D
  8
TRACES
 10
-137.1299121513908
 20
53.69116420000199
 30
-0.003964652856058
 40
0.7999999999999545
 50
269.9999999999939
 51
0.0000000000025444
210
0.0
220
0.0
230
-1.0
  0
ENDSEC
  0
EOF
