  0
SECTION
  2
HEADER
  9
$ACADVER
  1
AC1009
  9
$DWGCODEPAGE
  3
ansi_1252
  9
$INSBASE
 10
0.0
 20
0.0
 30
0.0
  9
$EXTMIN
 10
99.4938545211341
 20
49.33992242542898
 30
0.003964652856058
  9
$EXTMAX
 10
174.4938545211341
 20
99.339922425429
 30
0.003964652856058
  9
$LIMMIN
 10
0.0
 20
0.0
  9
$LIMMAX
 10
12.0
 20
9.0
  9
$ORTHOMODE
 70
     0
  9
$REGENMODE
 70
     1
  9
$FILLMODE
 70
     1
  9
$QTEXTMODE
 70
     0
  9
$MIRRTEXT
 70
     1
  9
$DRAGMODE
 70
     2
  9
$LTSCALE
 40
1.0
  9
$OSMODE
 70
    37
  9
$ATTMODE
 70
     1
  9
$TEXTSIZE
 40
0.2
  9
$TRACEWID
 40
0.05
  9
$TEXTSTYLE
  7
STANDARD
  9
$CLAYER
  8
TRACES
  9
$CELTYPE
  6
BYLAYER
  9
$CECOLOR
 62
   256
  9
$DIMSCALE
 40
1.0
  9
$DIMASZ
 40
0.18
  9
$DIMEXO
 40
0.0625
  9
$DIMDLI
 40
0.38
  9
$DIMRND
 40
0.0
  9
$DIMDLE
 40
0.0
  9
$DIMEXE
 40
0.18
  9
$DIMTP
 40
0.0
  9
$DIMTM
 40
0.0
  9
$DIMTXT
 40
0.18
  9
$DIMCEN
 40
0.09
  9
$DIMTSZ
 40
0.0
  9
$DIMTOL
 70
     0
  9
$DIMLIM
 70
     0
  9
$DIMTIH
 70
     1
  9
$DIMTOH
 70
     1
  9
$DIMSE1
 70
     0
  9
$DIMSE2
 70
     0
  9
$DIMTAD
 70
     0
  9
$DIMZIN
 70
     0
  9
$DIMBLK
  1

  9
$DIMASO
 70
     1
  9
$DIMSHO
 70
     1
  9
$DIMPOST
  1

  9
$DIMAPOST
  1

  9
$DIMALT
 70
     0
  9
$DIMALTD
 70
     2
  9
$DIMALTF
 40
25.4
  9
$DIMLFAC
 40
1.0
  9
$DIMTOFL
 70
     0
  9
$DIMTVP
 40
0.0
  9
$DIMTIX
 70
     0
  9
$DIMSOXD
 70
     0
  9
$DIMSAH
 70
     0
  9
$DIMBLK1
  1

  9
$DIMBLK2
  1

  9
$DIMSTYLE
  2
STANDARD_ACAD
  9
$DIMCLRD
 70
     0
  9
$DIMCLRE
 70
     0
  9
$DIMCLRT
 70
     0
  9
$DIMTFAC
 40
1.0
  9
$DIMGAP
 40
0.09
  9
$LUNITS
 70
     2
  9
$LUPREC
 70
     3
  9
$SKETCHINC
 40
0.1
  9
$FILLETRAD
 40
0.0
  9
$AUNITS
 70
     0
  9
$AUPREC
 70
     0
  9
$MENU
  1
.
  9
$ELEVATION
 40
0.0
  9
$PELEVATION
 40
0.0
  9
$THICKNESS
 40
0.0
  9
$LIMCHECK
 70
     0
  9
$CHAMFERA
 40
0.0
  9
$CHAMFERB
 40
0.0
  9
$SKPOLY
 70
     0
  9
$TDCREATE
 40
2461110.771324965
  9
$TDUPDATE
 40
2461110.771349178
  9
$TDINDWG
 40
0.0000000116
  9
$TDUSRTIMER
 40
0.0000000116
  9
$USRTIMER
 70
     1
  9
$ANGBASE
 50
0.0
  9
$ANGDIR
 70
     0
  9
$PDMODE
 70
     0
  9
$PDSIZE
 40
0.0
  9
$PLINEWID
 40
0.0
  9
$COORDS
 70
     1
  9
$SPLFRAME
 70
     0
  9
$SPLINETYPE
 70
     6
  9
$SPLINESEGS
 70
     8
  9
$ATTDIA
 70
     0
  9
$ATTREQ
 70
     1
  9
$HANDLING
 70
     1
  9
$HANDSEED
  5
23E
  9
$SURFTAB1
 70
     6
  9
$SURFTAB2
 70
     6
  9
$SURFTYPE
 70
     6
  9
$SURFU
 70
     6
  9
$SURFV
 70
     6
  9
$UCSNAME
  2

  9
$UCSORG
 10
0.0
 20
0.0
 30
0.0
  9
$UCSXDIR
 10
1.0
 20
0.0
 30
0.0
  9
$UCSYDIR
 10
0.0
 20
1.0
 30
0.0
  9
$PUCSNAME
  2

  9
$PUCSORG
 10
0.0
 20
0.0
 30
0.0
  9
$PUCSXDIR
 10
1.0
 20
0.0
 30
0.0
  9
$PUCSYDIR
 10
0.0
 20
1.0
 30
0.0
  9
$USERI1
 70
     0
  9
$USERI2
 70
     0
  9
$USERI3
 70
     0
  9
$USERI4
 70
     0
  9
$USERI5
 70
     0
  9
$USERR1
 40
0.0
  9
$USERR2
 40
0.0
  9
$USERR3
 40
0.0
  9
$USERR4
 40
0.0
  9
$USERR5
 40
0.0
  9
$WORLDVIEW
 70
     1
  9
$SHADEDGE
 70
     3
  9
$SHADEDIF
 70
    70
  9
$TILEMODE
 70
     1
  9
$MAXACTVP
 70
    64
  9
$PLIMCHECK
 70
     0
  9
$PEXTMIN
 10
1.000000000000000E+20
 20
1.000000000000000E+20
 30
1.000000000000000E+20
  9
$PEXTMAX
 10
-1.000000000000000E+20
 20
-1.000000000000000E+20
 30
-1.000000000000000E+20
  9
$PLIMMIN
 10
0.0
 20
0.0
  9
$PLIMMAX
 10
12.0
 20
9.0
  9
$UNITMODE
 70
     0
  9
$VISRETAIN
 70
     1
  9
$PLINEGEN
 70
     0
  9
$PSLTSCALE
 70
     1
  0
ENDSEC
  0
SECTION
  2
TABLES
  0
TABLE
  2
VPORT
 70
     1
  0
VPORT
  2
*ACTIVE
 70
     0
 10
0.0
 20
0.0
 11
1.0
 21
1.0
 12
10.42990654205607
 22
4.5
 13
0.0
 23
0.0
 14
0.5
 24
0.5
 15
0.5
 25
0.5
 16
0.0
 26
0.0
 36
1.0
 17
0.0
 27
0.0
 37
0.0
 40
9.0
 41
1.972972972850329
 42
50.0
 43
0.0
 44
0.0
 50
0.0
 51
0.0
 71
     0
 72
   100
 73
     1
 74
     3
 75
     0
 76
     0
 77
     0
 78
     0
  0
ENDTAB
  0
TABLE
  2
LTYPE
 70
     1
  0
LTYPE
  2
CONTINUOUS
 70
     0
  3
Solid line
 72
    65
 73
     0
 40
0.0
  0
ENDTAB
  0
TABLE
  2
LAYER
 70
     2
  0
LAYER
  2
0
 70
     0
 62
     7
  6
CONTINUOUS
  0
LAYER
  2
TRACES
 70
     0
 62
     7
  6
CONTINUOUS
  0
ENDTAB
  0
TABLE
  2
STYLE
 70
     1
  0
STYLE
  2
STANDARD
 70
     0
 40
0.0
 41
1.0
 50
0.0
 71
     0
 42
0.2
  3
txt
  4

  0
ENDTAB
  0
TABLE
  2
VIEW
 70
     0
  0
ENDTAB
  0
TABLE
  2
UCS
 70
     0
  0
ENDTAB
  0
TABLE
  2
APPID
 70
     2
  0
APPID
  2
ACAD
 70
     0
  0
APPID
  2
RHINO
 70
     0
  0
ENDTAB
  0
TABLE
  2
DIMSTYLE
 70
     1
  0
DIMSTYLE
  2
STANDARD_ACAD
 70
     0
  3

  4

  5

  6

  7

 40
1.0
 41
0.18
 42
0.0625
 43
0.38
 44
0.18
 45
0.0
 46
0.0
 47
0.0
 48
0.0
140
0.18
141
0.09
142
0.0
143
25.4
144
1.0
145
0.0
146
1.0
147
0.09
 71
     0
 72
     0
 73
     1
 74
     1
 75
     0
 76
     0
 77
     0
 78
     0
170
     0
171
     2
172
     0
173
     0
174
     0
175
     0
176
     0
177
     0
178
     0
  0
ENDTAB
  0
ENDSEC
  0
SECTION
  2
BLOCKS
  0
BLOCK
  8
0
  2
$MODEL_SPACE
 70
     0
 10
0.0
 20
0.0
 30
0.0
  3
$MODEL_SPACE
  1

  0
ENDBLK
  5
21
  8
0
  0
BLOCK
 67
     1
  8
0
  2
$PAPER_SPACE
 70
     0
 10
0.0
 20
0.0
 30
0.0
  3
$PAPER_SPACE
  1

  0
ENDBLK
  5
1D
 67
     1
  8
0
  0
ENDSEC
  0
SECTION
  2
ENTITIES
  0
POLYLINE
  5
60
  8
TRACES
 66
     1
 10
0.0
 20
0.0
 30
0.003964652856058
 70
     1
  0
VERTEX
  5
61
  8
TRACES
 10
99.4938545211341
 20
49.33992242542898
 30
0.003964652856058
  0
VERTEX
  5
62
  8
TRACES
 10
174.4938545211341
 20
49.33992242542898
 30
0.003964652856058
  0
VERTEX
  5
63
  8
TRACES
 10
174.4938545211341
 20
99.339922425429
 30
0.003964652856058
  0
VERTEX
  5
64
  8
TRACES
 10
99.4938545211341
 20
99.339922425429
 30
0.003964652856058
  0
SEQEND
  5
65
  8
TRACES
  0
POLYLINE
  5
66
  8
TRACES
 66
     1
 10
0.0
 20
0.0
 30
0.003964652856058
 70
     1
  0
VERTEX
  5
67
  8
TRACES
 10
103.4927309554854
 20
57.24484512711506
 30
0.003964652856058
 42
-0.1986310507796259
  0
VERTEX
  5
68
  8
TRACES
 10
102.9279115277588
 20
57.47915923344613
 30
0.003964652856058
  0
VERTEX
  5
69
  8
TRACES
 10
102.3345583572687
 20
58.07251240393601
 30
0.003964652856058
 42
-0.1989123673797208
  0
VERTEX
  5
6A
  8
TRACES
 10
102.1002437822179
 20
58.6381978288853
 30
0.003964652856058
  0
VERTEX
  5
6B
  8
TRACES
 10
102.1002437822179
 20
59.2943650813896
 30
0.003964652856058
 42
-0.1989123673796027
  0
VERTEX
  5
6C
  8
TRACES
 10
102.3345583572687
 20
59.86005050633883
 30
0.003964652856058
  0
VERTEX
  5
6D
  8
TRACES
 10
114.0393193930286
 20
71.56481154209877
 30
0.003964652856058
 42
-0.1989123673796829
  0
VERTEX
  5
6E
  8
TRACES
 10
115.4535329554018
 20
72.1505979797257
 30
0.003964652856058
  0
VERTEX
  5
6F
  8
TRACES
 10
171.2580100892013
 20
72.15059797972572
 30
0.003964652856058
 42
-0.4142135623731049
  0
VERTEX
  5
70
  8
TRACES
 10
173.2580100892013
 20
70.1505979797257
 30
0.003964652856058
  0
VERTEX
  5
71
  8
TRACES
 10
173.2580100892013
 20
52.86618130283515
 30
0.003964652856058
  0
VERTEX
  5
72
  8
TRACES
 10
171.850355869132
 20
51.45852708276584
 30
0.003964652856058
  0
VERTEX
  5
73
  8
TRACES
 10
170.733236145295
 20
51.45852708276583
 30
0.003964652856058
 42
-0.3830894203942022
  0
VERTEX
  5
74
  8
TRACES
 10
170.4355891228006
 20
51.72102708276584
 30
0.003964652856058
 42
0.377964473009276
  0
VERTEX
  5
75
  8
TRACES
 10
169.9395107519759
 20
52.15852708276583
 30
0.003964652856058
  0
VERTEX
  5
76
  8
TRACES
 10
167.3277446218674
 20
52.15852708276584
 30
0.003964652856058
 42
0.213422754995555
  0
VERTEX
  5
77
  8
TRACES
 10
166.5823861051269
 20
51.82519092720459
 30
0.003964652856058
 42
-0.2134227550026661
  0
VERTEX
  5
78
  8
TRACES
 10
165.9860992917127
 20
51.55852200275559
 30
0.003964652856058
  0
VERTEX
  5
79
  8
TRACES
 10
145.5943128838291
 20
51.55852200275557
 30
0.003964652856058
 42
-0.1988315712958443
  0
VERTEX
  5
7A
  8
TRACES
 10
145.0288033514034
 20
51.79266073995722
 30
0.003964652856058
  0
VERTEX
  5
7B
  8
TRACES
 10
143.2070388797099
 20
53.61329283179239
 30
0.003964652856058
 42
-0.198993165961883
  0
VERTEX
  5
7C
  8
TRACES
 10
142.9725484121355
 20
54.17915409459074
 30
0.003964652856058
  0
VERTEX
  5
7D
  8
TRACES
 10
142.9725484121355
 20
56.35951767755256
 30
0.003964652856058
 42
0.4142135623731053
  0
VERTEX
  5
7E
  8
TRACES
 10
142.1725484121355
 20
57.15951767755256
 30
0.003964652856058
  0
VERTEX
  5
7F
  8
TRACES
 10
141.8318851504814
 20
57.15951767755256
 30
0.003964652856058
 42
0.4142135623731036
  0
VERTEX
  5
80
  8
TRACES
 10
141.0318851504814
 20
56.35951767755257
 30
0.003964652856058
  0
VERTEX
  5
81
  8
TRACES
 10
141.0318851504814
 20
53.69116420000204
 30
0.003964652856058
 42
0.4142135623731234
  0
VERTEX
  5
82
  8
TRACES
 10
141.8318851504814
 20
52.89116420000204
 30
0.003964652856058
  0
VERTEX
  5
83
  8
TRACES
 10
142.1725484121355
 20
52.89116420000204
 30
0.003964652856058
  0
VERTEX
  5
84
  8
TRACES
 10
142.307584094208
 20
52.90264320182429
 30
0.003964652856058
 42
-0.2434436605876862
  0
VERTEX
  5
85
  8
TRACES
 10
143.0084123221004
 20
52.67970048743638
 30
0.003964652856058
  0
VERTEX
  5
86
  8
TRACES
 10
144.9288632687368
 20
50.75852200275558
 30
0.003964652856058
  0
VERTEX
  5
87
  8
TRACES
 10
165.9861083791079
 20
50.75852200275558
 30
0.003964652856058
 42
-0.2134207755621859
  0
VERTEX
  5
88
  8
TRACES
 10
166.5823911536803
 20
50.49185759386902
 30
0.003964652856058
 42
0.2134207755624168
  0
VERTEX
  5
89
  8
TRACES
 10
167.327744621881
 20
50.15852708276581
 30
0.003964652856058
  0
VERTEX
  5
8A
  8
TRACES
 10
169.9395107519759
 20
50.15852708276582
 30
0.003964652856058
 42
0.3728560218858811
  0
VERTEX
  5
8B
  8
TRACES
 10
170.4355891228005
 20
50.59602708276584
 30
0.003964652856058
 42
-0.3779644730091329
  0
VERTEX
  5
8C
  8
TRACES
 10
170.7332361452953
 20
50.85852708276585
 30
0.003964652856058
  0
VERTEX
  5
8D
  8
TRACES
 10
172.0988840065557
 20
50.85852708276583
 30
0.003964652856058
  0
VERTEX
  5
8E
  8
TRACES
 10
173.8580100892013
 20
52.61765316541141
 30
0.003964652856058
  0
VERTEX
  5
8F
  8
TRACES
 10
173.8580100892013
 20
92.86649776172852
 30
0.003964652856058
  0
VERTEX
  5
90
  8
TRACES
 10
172.7259858481742
 20
93.99852200275558
 30
0.003964652856058
  0
VERTEX
  5
91
  8
TRACES
 10
170.3693644706039
 20
93.99852200275562
 30
0.003964652856058
 42
-0.3154768161196282
  0
VERTEX
  5
92
  8
TRACES
 10
170.0912570273379
 20
94.18602200275558
 30
0.003964652856058
 42
0.3056146845807721
  0
VERTEX
  5
93
  8
TRACES
 10
169.6277446218945
 20
94.49852200275564
 30
0.003964652856058
  0
VERTEX
  5
94
  8
TRACES
 10
167.6384286699952
 20
94.4985220027556
 30
0.003964652856058
 42
1.000000116164711
  0
VERTEX
  5
95
  8
TRACES
 10
167.6384284841316
 20
92.89852200275566
 30
0.003964652856058
  0
VERTEX
  5
96
  8
TRACES
 10
169.6277446218945
 20
92.89852200275561
 30
0.003964652856058
 42
0.2957973447032776
  0
VERTEX
  5
97
  8
TRACES
 10
170.0912570273379
 20
93.21102200275573
 30
0.003964652856058
 42
-0.3056146845806874
  0
VERTEX
  5
98
  8
TRACES
 10
170.369364470604
 20
93.39852200275558
 30
0.003964652856058
  0
VERTEX
  5
99
  8
TRACES
 10
172.4774577107504
 20
93.39852200275558
 30
0.003964652856058
  0
VERTEX
  5
9A
  8
TRACES
 10
173.2580100892013
 20
92.61796962430468
 30
0.003964652856058
  0
VERTEX
  5
9B
  8
TRACES
 10
173.2580100891964
 20
74.75059797972571
 30
0.003964652856058
 42
-0.4142135623731118
  0
VERTEX
  5
9C
  8
TRACES
 10
171.2580100891964
 20
72.75059797972571
 30
0.003964652856058
  0
VERTEX
  5
9D
  8
TRACES
 10
116.8008417619214
 20
72.75059797972567
 30
0.003964652856058
 42
-0.4142135623698597
  0
VERTEX
  5
9E
  8
TRACES
 10
114.8008417619429
 20
74.750597979725
 30
0.003964652856058
  0
VERTEX
  5
9F
  8
TRACES
 10
114.8008417619392
 20
84.72113491245128
 30
0.003964652856058
 42
-0.2636687292425614
  0
VERTEX
  5
A0
  8
TRACES
 10
114.9372053983014
 20
84.97257703401296
 30
0.003964652856058
 42
0.2537088048802745
  0
VERTEX
  5
A1
  8
TRACES
 10
115.3008417619321
 20
85.64308935817681
 30
0.003964652856058
  0
VERTEX
  5
A2
  8
TRACES
 10
115.3008417619178
 20
89.81311712459032
 30
0.003964652856058
 42
0.2537088694259808
  0
VERTEX
  5
A3
  8
TRACES
 10
114.9372053982993
 20
90.48362964282194
 30
0.003964652856058
 42
-0.2537088048732218
  0
VERTEX
  5
A4
  8
TRACES
 10
114.8008417619436
 20
90.7350717643793
 30
0.003964652856058
  0
VERTEX
  5
A5
  8
TRACES
 10
114.8008417619436
 20
91.92366608898625
 30
0.003964652856058
  0
VERTEX
  5
A6
  8
TRACES
 10
112.7259858481744
 20
93.99852200275542
 30
0.003964652856058
  0
VERTEX
  5
A7
  8
TRACES
 10
107.7889139994209
 20
93.99852200275544
 30
0.003964652856058
 42
-0.315476816119748
  0
VERTEX
  5
A8
  8
TRACES
 10
107.510806556155
 20
94.18602200275544
 30
0.003964652856058
 42
0.3056146845807565
  0
VERTEX
  5
A9
  8
TRACES
 10
107.0472941507115
 20
94.49852200275535
 30
0.003964652856058
  0
VERTEX
  5
AA
  8
TRACES
 10
105.0579780129486
 20
94.49852200275535
 30
0.003964652856058
 42
1.000000116164747
  0
VERTEX
  5
AB
  8
TRACES
 10
105.0579781988122
 20
92.89852200275544
 30
0.003964652856058
  0
VERTEX
  5
AC
  8
TRACES
 10
107.0472941507115
 20
92.89852200275533
 30
0.003964652856058
 42
0.2957973447031128
  0
VERTEX
  5
AD
  8
TRACES
 10
107.510806556155
 20
93.21102200275534
 30
0.003964652856058
 42
-0.3056146845806682
  0
VERTEX
  5
AE
  8
TRACES
 10
107.7889139994211
 20
93.39852200275537
 30
0.003964652856058
  0
VERTEX
  5
AF
  8
TRACES
 10
112.4774577107506
 20
93.39852200275543
 30
0.003964652856058
  0
VERTEX
  5
B0
  8
TRACES
 10
114.2008417619436
 20
91.6751379515624
 30
0.003964652856058
  0
VERTEX
  5
B1
  8
TRACES
 10
114.2008417619436
 20
90.73507176441873
 30
0.003964652856058
 42
-0.2557555958326584
  0
VERTEX
  5
B2
  8
TRACES
 10
114.0644781255709
 20
90.48362964285023
 30
0.003964652856058
 42
0.2537088048910296
  0
VERTEX
  5
B3
  8
TRACES
 10
113.7008417619092
 20
89.81311731866461
 30
0.003964652856058
  0
VERTEX
  5
B4
  8
TRACES
 10
113.7008417619093
 20
85.64308935817681
 30
0.003964652856058
 42
0.2437816573943406
  0
VERTEX
  5
B5
  8
TRACES
 10
114.0644781255709
 20
84.97257703399359
 30
0.003964652856058
 42
-0.2537088048914685
  0
VERTEX
  5
B6
  8
TRACES
 10
114.2008417619436
 20
84.72113491242519
 30
0.003964652856058
  0
VERTEX
  5
B7
  8
TRACES
 10
114.2008417619436
 20
81.1532891731838
 30
0.003964652856058
 42
-0.1989123673796371
  0
VERTEX
  5
B8
  8
TRACES
 10
113.6150553243168
 20
79.73907561081077
 30
0.003964652856058
  0
VERTEX
  5
B9
  8
TRACES
 10
106.9031260476266
 20
73.02714633412062
 30
0.003964652856058
  0
VERTEX
  5
BA
  8
TRACES
 10
105.766087752695
 20
73.02714633412056
 30
0.003964652856058
 42
-0.2636687292457457
  0
VERTEX
  5
BB
  8
TRACES
 10
105.5146456311316
 20
73.1635099704856
 30
0.003964652856058
 42
0.2537088048829994
  0
VERTEX
  5
BC
  8
TRACES
 10
104.8441333069629
 20
73.527146334125
 30
0.003964652856058
  0
VERTEX
  5
BD
  8
TRACES
 10
102.4371513153685
 20
73.52714633412484
 30
0.003964652856058
 42
0.9999999999999644
  0
VERTEX
  5
BE
  8
TRACES
 10
102.4371513153686
 20
71.92714633411623
 30
0.003964652856058
  0
VERTEX
  5
BF
  8
TRACES
 10
104.8441333069629
 20
71.9271463341164
 30
0.003964652856058
 42
0.2437816573869287
  0
VERTEX
  5
C0
  8
TRACES
 10
105.5146456311303
 20
72.29078269775638
 30
0.003964652856058
 42
-0.2537088048870731
  0
VERTEX
  5
C1
  8
TRACES
 10
105.7660877526986
 20
72.42714633412064
 30
0.003964652856058
  0
VERTEX
  5
C2
  8
TRACES
 10
107.1516541850505
 20
72.42714633412062
 30
0.003964652856058
  0
VERTEX
  5
C3
  8
TRACES
 10
110.786628199572
 20
76.06212034864218
 30
0.003964652856058
 42
-0.6681786379191887
  0
VERTEX
  5
C4
  8
TRACES
 10
114.2008417619452
 20
74.64790678626993
 30
0.003964652856058
  0
VERTEX
  5
C5
  8
TRACES
 10
114.2008417619456
 20
73.40328917318391
 30
0.003964652856058
 42
-0.1989123673783699
  0
VERTEX
  5
C6
  8
TRACES
 10
113.6150553243243
 20
71.98907561081835
 30
0.003964652856058
  0
VERTEX
  5
C7
  8
TRACES
 10
101.5002437822179
 20
59.87426406871193
 30
0.003964652856058
  0
VERTEX
  5
C8
  8
TRACES
 10
101.5002437822179
 20
57.77545612908835
 30
0.003964652856058
  0
VERTEX
  5
C9
  8
TRACES
 10
103.3306801262982
 20
55.94501978500801
 30
0.003964652856058
  0
VERTEX
  5
CA
  8
TRACES
 10
103.8729974902529
 20
55.94443272800038
 30
0.003964652856058
 42
-0.3779644730092659
  0
VERTEX
  5
CB
  8
TRACES
 10
104.1703601830177
 20
55.68161067993049
 30
0.003964652856058
 42
0.3779644730092481
  0
VERTEX
  5
CC
  8
TRACES
 10
104.6659646709591
 20
55.24357393314741
 30
0.003964652856058
  0
VERTEX
  5
CD
  8
TRACES
 10
107.2777291385188
 20
55.24074670552224
 30
0.003964652856058
 42
1.000000066220052
  0
VERTEX
  5
CE
  8
TRACES
 10
107.2798942638916
 20
57.24074553357994
 30
0.003964652856058
  0
SEQEND
  5
CF
  8
TRACES
  0
CIRCLE
  5
D0
  8
TRACES
 10
-150.2139353445053
 20
59.38158370914542
 30
-0.003964652856058
 40
0.4150000000000063
210
0.0
220
0.0
230
-1.0
  0
CIRCLE
  5
D1
  8
TRACES
 10
-150.0609128820867
 20
61.24303855807523
 30
-0.003964652856058
 40
0.4149999999999991
210
0.0
220
0.0
230
-1.0
  0
POLYLINE
  5
D2
  8
TRACES
 66
     1
 10
0.0
 20
0.0
 30
0.003964652856058
 70
     1
  0
VERTEX
  5
D3
  8
TRACES
 10
130.4394475796806
 20
58.79716893863488
 30
0.003964652856058
 42
-0.056407099755194
  0
VERTEX
  5
D4
  8
TRACES
 10
130.3186500197851
 20
58.60744885989007
 30
0.003964652856058
 42
0.1715728752547884
  0
VERTEX
  5
D5
  8
TRACES
 10
130.1408722420054
 20
58.10461737104391
 30
0.003964652856058
  0
VERTEX
  5
D6
  8
TRACES
 10
130.1408722420054
 20
56.77653652457837
 30
0.003964652856058
  0
VERTEX
  5
D7
  8
TRACES
 10
124.1228526401722
 20
50.75851692274522
 30
0.003964652856058
  0
VERTEX
  5
D8
  8
TRACES
 10
108.2398627385998
 20
50.75851692274522
 30
0.003964652856058
  0
VERTEX
  5
D9
  8
TRACES
 10
108.1658225138551
 20
50.59601692274515
 30
0.003964652856058
 42
-0.3728560218853703
  0
VERTEX
  5
DA
  8
TRACES
 10
107.6697441430299
 20
50.15851692274521
 30
0.003964652856058
  0
VERTEX
  5
DB
  8
TRACES
 10
105.0579780129214
 20
50.1585169227452
 30
0.003964652856058
 42
-0.9999999999795716
  0
VERTEX
  5
DC
  8
TRACES
 10
105.057978012935
 20
52.15851692274517
 30
0.003964652856058
  0
VERTEX
  5
DD
  8
TRACES
 10
107.6697441430299
 20
52.1585169227452
 30
0.003964652856058
 42
-0.3779644730092787
  0
VERTEX
  5
DE
  8
TRACES
 10
108.1658225138545
 20
51.72101692274521
 30
0.003964652856058
  0
VERTEX
  5
DF
  8
TRACES
 10
108.2385798016639
 20
51.55851692274526
 30
0.003964652856058
  0
VERTEX
  5
E0
  8
TRACES
 10
123.4601109403753
 20
51.55851692274523
 30
0.003964652856058
 42
0.1989123673796538
  0
VERTEX
  5
E1
  8
TRACES
 10
124.0257963653245
 20
51.79283149779597
 30
0.003964652856058
  0
VERTEX
  5
E2
  8
TRACES
 10
129.1065576669547
 20
56.87359279942611
 30
0.003964652856058
 42
0.1989123673796361
  0
VERTEX
  5
E3
  8
TRACES
 10
129.3408722420054
 20
57.43927822437527
 30
0.003964652856058
  0
VERTEX
  5
E4
  8
TRACES
 10
129.3408722420054
 20
58.10461737104395
 30
0.003964652856058
 42
0.1826758136823783
  0
VERTEX
  5
E5
  8
TRACES
 10
129.1408722420038
 20
58.63376763325869
 30
0.003964652856058
 42
-0.1826758136824166
  0
VERTEX
  5
E6
  8
TRACES
 10
128.9408722420011
 20
59.16291789547627
 30
0.003964652856058
  0
VERTEX
  5
E7
  8
TRACES
 10
128.9408722420011
 20
63.32315922067425
 30
0.003964652856058
 42
-0.1826758136823878
  0
VERTEX
  5
E8
  8
TRACES
 10
129.1408722420038
 20
63.8523094828918
 30
0.003964652856058
 42
0.1826758136823653
  0
VERTEX
  5
E9
  8
TRACES
 10
129.3408722420054
 20
64.38145974510655
 30
0.003964652856058
  0
VERTEX
  5
EA
  8
TRACES
 10
129.3408722420054
 20
66.2524554130551
 30
0.003964652856058
  0
VERTEX
  5
EB
  8
TRACES
 10
131.3884168289505
 20
68.3
 30
0.003964652856058
  0
VERTEX
  5
EC
  8
TRACES
 10
161.4245078509298
 20
68.3
 30
0.003964652856058
  0
VERTEX
  5
ED
  8
TRACES
 10
169.6277446218945
 20
60.09676322903533
 30
0.003964652856058
  0
VERTEX
  5
EE
  8
TRACES
 10
169.6277446218945
 20
57.53225247608505
 30
0.003964652856058
 42
0.3779644730092699
  0
VERTEX
  5
EF
  8
TRACES
 10
169.8902446218945
 20
57.23460545359026
 30
0.003964652856058
 42
-0.3728560218859164
  0
VERTEX
  5
F0
  8
TRACES
 10
170.3277446218945
 20
56.73852708276566
 30
0.003964652856058
  0
VERTEX
  5
F1
  8
TRACES
 10
170.3277446218945
 20
55.73852708276566
 30
0.003964652856058
 42
-0.4142135623731258
  0
VERTEX
  5
F2
  8
TRACES
 10
169.8277446218945
 20
55.23852708276567
 30
0.003964652856058
  0
VERTEX
  5
F3
  8
TRACES
 10
167.2159786241024
 20
55.23852708276563
 30
0.003964652856058
 42
-1.000000066220027
  0
VERTEX
  5
F4
  8
TRACES
 10
167.2159784917859
 20
57.23852708276561
 30
0.003964652856058
  0
VERTEX
  5
F5
  8
TRACES
 10
168.7277446218945
 20
57.23852708276566
 30
0.003964652856058
 42
0.4142135623731179
  0
VERTEX
  5
F6
  8
TRACES
 10
169.0277446218945
 20
57.53852708276568
 30
0.003964652856058
  0
VERTEX
  5
F7
  8
TRACES
 10
169.0277446218945
 20
59.84823509161147
 30
0.003964652856058
  0
VERTEX
  5
F8
  8
TRACES
 10
161.175979713506
 20
67.7
 30
0.003964652856058
  0
VERTEX
  5
F9
  8
TRACES
 10
132.2511585287473
 20
67.7
 30
0.003964652856058
 42
0.1989123673796467
  0
VERTEX
  5
FA
  8
TRACES
 10
131.685473103798
 20
67.46568542494926
 30
0.003964652856058
  0
VERTEX
  5
FB
  8
TRACES
 10
130.3751868170561
 20
66.15539913820737
 30
0.003964652856058
 42
0.1989123673796545
  0
VERTEX
  5
FC
  8
TRACES
 10
130.1408722420054
 20
65.58971371325813
 30
0.003964652856058
  0
VERTEX
  5
FD
  8
TRACES
 10
130.1408722420054
 20
64.38145974510655
 30
0.003964652856058
 42
0.182675813682414
  0
VERTEX
  5
FE
  8
TRACES
 10
130.340872242007
 20
63.85230948289181
 30
0.003964652856058
 42
-0.1826758136824916
  0
VERTEX
  5
FF
  8
TRACES
 10
130.5408722420097
 20
63.32315922067425
 30
0.003964652856058
  0
VERTEX
  5
100
  8
TRACES
 10
130.5408722420097
 20
61.17831349744294
 30
0.003964652856058
 42
0.1989123673799809
  0
VERTEX
  5
101
  8
TRACES
 10
130.833765460824
 20
60.47120671625552
 30
0.003964652856058
  0
VERTEX
  5
102
  8
TRACES
 10
133.0002437822179
 20
58.30472839486162
 30
0.003964652856058
  0
VERTEX
  5
103
  8
TRACES
 10
133.0002437822179
 20
57.43408778147573
 30
0.003964652856058
 42
0.2481709199600385
  0
VERTEX
  5
104
  8
TRACES
 10
133.2188432559627
 20
57.02079158765911
 30
0.003964652856058
 42
-0.2481709199600313
  0
VERTEX
  5
105
  8
TRACES
 10
133.5686024139544
 20
56.35951767755257
 30
0.003964652856058
  0
VERTEX
  5
106
  8
TRACES
 10
133.5686024139544
 20
53.69116420000204
 30
0.003964652856058
 42
-0.4142135623731528
  0
VERTEX
  5
107
  8
TRACES
 10
132.7686024139544
 20
52.89116420000207
 30
0.003964652856058
  0
VERTEX
  5
108
  8
TRACES
 10
132.4279391523003
 20
52.89116420000204
 30
0.003964652856058
 42
-0.4142135623731348
  0
VERTEX
  5
109
  8
TRACES
 10
131.6279391523003
 20
53.69116420000203
 30
0.003964652856058
  0
VERTEX
  5
10A
  8
TRACES
 10
131.6279391523003
 20
56.35951767755256
 30
0.003964652856058
 42
-0.2491445108096693
  0
VERTEX
  5
10B
  8
TRACES
 10
131.980126616865
 20
57.0224384368496
 30
0.003964652856058
 42
0.2491445108096932
  0
VERTEX
  5
10C
  8
TRACES
 10
132.2002437822179
 20
57.4367639114103
 30
0.003964652856058
  0
VERTEX
  5
10D
  8
TRACES
 10
132.2002437822179
 20
57.76625076377659
 30
0.003964652856058
 42
0.1989123673796453
  0
VERTEX
  5
10E
  8
TRACES
 10
132.0537971728112
 20
58.11980415436986
 30
0.003964652856058
  0
VERTEX
  5
10F
  8
TRACES
 10
131.2422886391093
 20
58.93131268807172
 30
0.003964652856058
 42
0.5148761206938144
  0
SEQEND
  5
110
  8
TRACES
  0
POLYLINE
  5
111
  8
TRACES
 66
     1
 10
0.0
 20
0.0
 30
0.003964652856058
 70
     1
  0
VERTEX
  5
112
  8
TRACES
 10
149.4036137692661
 20
59.29637699553583
 30
0.003964652856058
  0
VERTEX
  5
113
  8
TRACES
 10
149.4036137692662
 20
63.07009928981995
 30
0.003964652856058
 42
-0.4142135623731141
  0
VERTEX
  5
114
  8
TRACES
 10
150.1536137692662
 20
63.82009928981995
 30
0.003964652856058
  0
VERTEX
  5
115
  8
TRACES
 10
150.2536137692662
 20
63.82009928981995
 30
0.003964652856058
 42
-0.4142135623731362
  0
VERTEX
  5
116
  8
TRACES
 10
151.0036137692663
 20
63.07009928981995
 30
0.003964652856058
  0
VERTEX
  5
117
  8
TRACES
 10
151.0036137692662
 20
59.29637699553583
 30
0.003964652856058
 42
-0.4142135623729968
  0
VERTEX
  5
118
  8
TRACES
 10
150.2536137692662
 20
58.54637699553584
 30
0.003964652856058
  0
VERTEX
  5
119
  8
TRACES
 10
150.1536137692661
 20
58.54637699553583
 30
0.003964652856058
 42
-0.4142135623730838
  0
SEQEND
  5
11A
  8
TRACES
  0
POLYLINE
  5
11B
  8
TRACES
 66
     1
 10
0.0
 20
0.0
 30
0.003964652856058
 70
     1
  0
VERTEX
  5
11C
  8
TRACES
 10
151.6862335518134
 20
53.99852200275554
 30
0.003964652856058
  0
VERTEX
  5
11D
  8
TRACES
 10
166.9548972815933
 20
53.99852200275538
 30
0.003964652856058
 42
0.3154768161192027
  0
VERTEX
  5
11E
  8
TRACES
 10
167.2330047248587
 20
54.18602200275551
 30
0.003964652856058
 42
-0.3056146845807806
  0
VERTEX
  5
11F
  8
TRACES
 10
167.6965171303023
 20
54.4985220027556
 30
0.003964652856058
  0
VERTEX
  5
120
  8
TRACES
 10
169.6858330822016
 20
54.49852200275555
 30
0.003964652856058
 42
-1.000000116164809
  0
VERTEX
  5
121
  8
TRACES
 10
169.6858332680652
 20
52.89852200275556
 30
0.003964652856058
  0
VERTEX
  5
122
  8
TRACES
 10
167.6965171303023
 20
52.89852200275558
 30
0.003964652856058
 42
-0.2957973447063862
  0
VERTEX
  5
123
  8
TRACES
 10
167.233004724862
 20
53.21102200275675
 30
0.003964652856058
 42
0.3056146845796441
  0
VERTEX
  5
124
  8
TRACES
 10
166.9548972815963
 20
53.39852200275558
 30
0.003964652856058
  0
VERTEX
  5
125
  8
TRACES
 10
150.4774577107499
 20
53.39852200275611
 30
0.003964652856058
  0
VERTEX
  5
126
  8
TRACES
 10
147.2209078020765
 20
56.65507191142952
 30
0.003964652856058
  0
VERTEX
  5
127
  8
TRACES
 10
147.2209078020765
 20
59.69116285249281
 30
0.003964652856058
 42
0.2537088048832735
  0
VERTEX
  5
128
  8
TRACES
 10
147.0845441657113
 20
59.94260497405631
 30
0.003964652856058
 42
-0.243781657386286
  0
VERTEX
  5
129
  8
TRACES
 10
146.7209078020711
 20
60.61311729822557
 30
0.003964652856058
  0
VERTEX
  5
12A
  8
TRACES
 10
146.7209078020709
 20
63.02009928981992
 30
0.003964652856058
 42
-0.999999999999969
  0
VERTEX
  5
12B
  8
TRACES
 10
148.3209078020795
 20
63.02009928981999
 30
0.003964652856058
  0
VERTEX
  5
12C
  8
TRACES
 10
148.3209078020797
 20
60.61311729822563
 30
0.003964652856058
 42
-0.2537088048826851
  0
VERTEX
  5
12D
  8
TRACES
 10
147.957271438441
 20
59.9426049740573
 30
0.003964652856058
 42
0.2636687292453572
  0
VERTEX
  5
12E
  8
TRACES
 10
147.8209078020764
 20
59.69116285249417
 30
0.003964652856058
  0
VERTEX
  5
12F
  8
TRACES
 10
147.8209078020764
 20
57.23497089875185
 30
0.003964652856058
 42
0.1989123673795143
  0
VERTEX
  5
130
  8
TRACES
 10
148.0552223771272
 20
56.66928547380265
 30
0.003964652856058
  0
VERTEX
  5
131
  8
TRACES
 10
148.1528100510565
 20
56.57169779987327
 30
0.003964652856058
 42
0.4835716636578252
  0
VERTEX
  5
132
  8
TRACES
 10
149.3986183538421
 20
56.71615541111152
 30
0.003964652856058
 42
-0.2596810003873702
  0
VERTEX
  5
133
  8
TRACES
 10
150.0362335518136
 20
57.07125433575751
 30
0.003964652856058
  0
VERTEX
  5
134
  8
TRACES
 10
150.1362335518136
 20
57.07125433575749
 30
0.003964652856058
 42
-0.4142135623730727
  0
VERTEX
  5
135
  8
TRACES
 10
150.8862335518136
 20
56.32125433575749
 30
0.003964652856058
  0
VERTEX
  5
136
  8
TRACES
 10
150.8862335518136
 20
54.79852200275545
 30
0.003964652856058
 42
0.4142135623730076
  0
SEQEND
  5
137
  8
TRACES
  0
CIRCLE
  5
138
  8
TRACES
 10
-150.0609128820867
 20
56.00364896638093
 30
-0.003964652856058
 40
0.4149999999999991
210
0.0
220
0.0
230
-1.0
  0
POLYLINE
  5
139
  8
TRACES
 66
     1
 10
0.0
 20
0.0
 30
0.003964652856058
 70
     1
  0
VERTEX
  5
13A
  8
TRACES
 10
156.8905267863714
 20
59.29637699553583
 30
0.003964652856058
  0
VERTEX
  5
13B
  8
TRACES
 10
156.8905267863714
 20
63.07009928981995
 30
0.003964652856058
 42
-0.4142135623731505
  0
VERTEX
  5
13C
  8
TRACES
 10
157.6405267863714
 20
63.82009928981994
 30
0.003964652856058
  0
VERTEX
  5
13D
  8
TRACES
 10
157.7405267863714
 20
63.82009928981995
 30
0.003964652856058
 42
-0.414213562373112
  0
VERTEX
  5
13E
  8
TRACES
 10
158.4905267863714
 20
63.07009928981995
 30
0.003964652856058
  0
VERTEX
  5
13F
  8
TRACES
 10
158.4905267863714
 20
59.29637699553583
 30
0.003964652856058
 42
-0.4142135623729714
  0
VERTEX
  5
140
  8
TRACES
 10
157.7405267863714
 20
58.54637699553585
 30
0.003964652856058
  0
VERTEX
  5
141
  8
TRACES
 10
157.6405267863714
 20
58.54637699553583
 30
0.003964652856058
 42
-0.4142135623730727
  0
SEQEND
  5
142
  8
TRACES
  0
POLYLINE
  5
143
  8
TRACES
 66
     1
 10
0.0
 20
0.0
 30
0.003964652856058
 70
     1
  0
VERTEX
  5
144
  8
TRACES
 10
142.0039861923153
 20
53.75396317172942
 30
0.003964652856058
 42
-0.4142135623730559
  0
VERTEX
  5
145
  8
TRACES
 10
141.5039861923153
 20
54.25396317172942
 30
0.003964652856058
  0
VERTEX
  5
146
  8
TRACES
 10
141.5039861923153
 20
55.77429667417256
 30
0.003964652856058
 42
-1.000000000000007
  0
VERTEX
  5
147
  8
TRACES
 10
142.5039861923153
 20
55.77429667417255
 30
0.003964652856058
  0
VERTEX
  5
148
  8
TRACES
 10
142.5039861923153
 20
54.25396317172942
 30
0.003964652856058
 42
-0.414213562373133
  0
SEQEND
  5
149
  8
TRACES
  0
POLYLINE
  5
14A
  8
TRACES
 66
     1
 10
0.0
 20
0.0
 30
0.003964652856058
 70
     1
  0
VERTEX
  5
14B
  8
TRACES
 10
137.3002437822179
 20
53.75396317172942
 30
0.003964652856058
 42
-0.4142135623730794
  0
VERTEX
  5
14C
  8
TRACES
 10
136.8002437822179
 20
54.25396317172942
 30
0.003964652856058
  0
VERTEX
  5
14D
  8
TRACES
 10
136.8002437822179
 20
55.77429667417256
 30
0.003964652856058
 42
-0.9999999999999359
  0
VERTEX
  5
14E
  8
TRACES
 10
137.8002437822178
 20
55.77429667417255
 30
0.003964652856058
  0
VERTEX
  5
14F
  8
TRACES
 10
137.8002437822179
 20
54.25396317172942
 30
0.003964652856058
 42
-0.414213562373133
  0
SEQEND
  5
150
  8
TRACES
  0
CIRCLE
  5
151
  8
TRACES
 10
-147.5209078020763
 20
86.64308935817672
 30
-0.003964652856058
 40
0.4149999999999733
210
0.0
220
0.0
230
-1.0
  0
CIRCLE
  5
152
  8
TRACES
 10
-129.7408722420051
 20
86.64308935817681
 30
-0.003964652856058
 40
0.4150000000000063
210
0.0
220
0.0
230
-1.0
  0
CIRCLE
  5
153
  8
TRACES
 10
-124.6608620819845
 20
86.64308935817684
 30
-0.003964652856058
 40
0.4149999999999778
210
0.0
220
0.0
230
-1.0
  0
CIRCLE
  5
154
  8
TRACES
 10
-114.5008417619436
 20
86.64308935817687
 30
-0.003964652856058
 40
0.414999999999992
210
0.0
220
0.0
230
-1.0
  0
CIRCLE
  5
155
  8
TRACES
 10
-160.2209332021272
 20
86.6430893581767
 30
-0.003964652856058
 40
0.4149999999999778
210
0.0
220
0.0
230
-1.0
  0
CIRCLE
  5
156
  8
TRACES
 10
-119.5808519219644
 20
61.24303855807531
 30
-0.003964652856058
 40
0.4150000000000063
210
0.0
220
0.0
230
-1.0
  0
CIRCLE
  5
157
  8
TRACES
 10
-157.6809281221173
 20
86.6430893581768
 30
-0.003964652856058
 40
0.414999999999992
210
0.0
220
0.0
230
-1.0
  0
CIRCLE
  5
158
  8
TRACES
 10
-160.2209332021268
 20
61.24303855807503
 30
-0.003964652856058
 40
0.4150000000000418
210
0.0
220
0.0
230
-1.0
  0
POLYLINE
  5
159
  8
TRACES
 66
     1
 10
0.0
 20
0.0
 30
0.003964652856058
 70
     1
  0
VERTEX
  5
15A
  8
TRACES
 10
158.4809281221174
 20
88.55095140148927
 30
0.003964652856058
  0
VERTEX
  5
15B
  8
TRACES
 10
158.4809281221173
 20
85.52532314867193
 30
0.003964652856058
 42
-0.4142135623730791
  0
VERTEX
  5
15C
  8
TRACES
 10
157.7309281221172
 20
84.77532314867194
 30
0.003964652856058
  0
VERTEX
  5
15D
  8
TRACES
 10
157.6309281221172
 20
84.77532314867193
 30
0.003964652856058
 42
-0.4142135623731735
  0
VERTEX
  5
15E
  8
TRACES
 10
156.8809281221173
 20
85.52532314867193
 30
0.003964652856058
  0
VERTEX
  5
15F
  8
TRACES
 10
156.8809281221173
 20
88.55095140148933
 30
0.003964652856058
 42
-0.4142135623731043
  0
VERTEX
  5
160
  8
TRACES
 10
157.6309281221173
 20
89.30095140148927
 30
0.003964652856058
  0
VERTEX
  5
161
  8
TRACES
 10
157.7309281221174
 20
89.30095140148927
 30
0.003964652856058
 42
-0.4142135623731067
  0
SEQEND
  5
162
  8
TRACES
  0
POLYLINE
  5
163
  8
TRACES
 66
     1
 10
0.0
 20
0.0
 30
0.003964652856058
 70
     1
  0
VERTEX
  5
164
  8
TRACES
 10
161.0209332021273
 20
88.55095140148917
 30
0.003964652856058
  0
VERTEX
  5
165
  8
TRACES
 10
161.0209332021272
 20
85.52532314867183
 30
0.003964652856058
 42
-0.4142135623730556
  0
VERTEX
  5
166
  8
TRACES
 10
160.2709332021272
 20
84.77532314867183
 30
0.003964652856058
  0
VERTEX
  5
167
  8
TRACES
 10
160.1709332021271
 20
84.77532314867183
 30
0.003964652856058
 42
-0.4142135623731434
  0
VERTEX
  5
168
  8
TRACES
 10
159.4209332021271
 20
85.52532314867183
 30
0.003964652856058
  0
VERTEX
  5
169
  8
TRACES
 10
159.4209332021272
 20
88.55095140148923
 30
0.003964652856058
 42
-0.4142135623730346
  0
VERTEX
  5
16A
  8
TRACES
 10
160.1709332021272
 20
89.30095140148919
 30
0.003964652856058
  0
VERTEX
  5
16B
  8
TRACES
 10
160.2709332021273
 20
89.30095140148917
 30
0.003964652856058
 42
-0.4142135623731035
  0
SEQEND
  5
16C
  8
TRACES
  0
CIRCLE
  5
16D
  8
TRACES
 10
-169.3277446218945
 20
93.6985220027556
 30
-0.003964652856058
 40
0.4150000000000205
210
0.0
220
0.0
230
-1.0
  0
CIRCLE
  5
16E
  8
TRACES
 10
-169.3277446218945
 20
96.23852708276566
 30
-0.003964652856058
 40
0.4150000000000205
210
0.0
220
0.0
230
-1.0
  0
CIRCLE
  5
16F
  8
TRACES
 10
-169.3277446218943
 20
91.15851692274532
 30
-0.003964652856058
 40
0.4149999999999636
210
0.0
220
0.0
230
-1.0
  0
CIRCLE
  5
170
  8
TRACES
 10
-169.3277446218945
 20
53.69852200275558
 30
-0.003964652856058
 40
0.4150000000000205
210
0.0
220
0.0
230
-1.0
  0
CIRCLE
  5
171
  8
TRACES
 10
-169.3277446218945
 20
56.23852708276566
 30
-0.003964652856058
 40
0.414999999999992
210
0.0
220
0.0
230
-1.0
  0
CIRCLE
  5
172
  8
TRACES
 10
-169.3277446218943
 20
51.15851692274532
 30
-0.003964652856058
 40
0.4149999999999636
210
0.0
220
0.0
230
-1.0
  0
CIRCLE
  5
173
  8
TRACES
 10
-105.1077801819656
 20
91.15851692274522
 30
-0.003964652856058
 40
0.4150000000000063
210
0.0
220
0.0
230
-1.0
  0
CIRCLE
  5
174
  8
TRACES
 10
-105.1077801819655
 20
93.69852200275544
 30
-0.003964652856058
 40
0.414999999999992
210
0.0
220
0.0
230
-1.0
  0
CIRCLE
  5
175
  8
TRACES
 10
-105.1077801819655
 20
96.2385270827656
 30
-0.003964652856058
 40
0.414999999999992
210
0.0
220
0.0
230
-1.0
  0
CIRCLE
  5
176
  8
TRACES
 10
-105.1077801819655
 20
56.2385270827656
 30
-0.003964652856058
 40
0.4150000000000063
210
0.0
220
0.0
230
-1.0
  0
CIRCLE
  5
177
  8
TRACES
 10
-105.1077801819656
 20
51.15851692274522
 30
-0.003964652856058
 40
0.4149999999999778
210
0.0
220
0.0
230
-1.0
  0
CIRCLE
  5
178
  8
TRACES
 10
-105.1077801819655
 20
53.6985220027554
 30
-0.003964652856058
 40
0.414999999999992
210
0.0
220
0.0
230
-1.0
  0
CIRCLE
  5
179
  8
TRACES
 10
-104.2142120471203
 20
75.95191636415969
 30
-0.003964652856058
 40
0.5
210
0.0
220
0.0
230
-1.0
  0
CIRCLE
  5
17A
  8
TRACES
 10
-104.2142120471203
 20
72.72714633412063
 30
-0.003964652856058
 40
0.5
210
0.0
220
0.0
230
-1.0
  0
POLYLINE
  5
17B
  8
TRACES
 66
     1
 10
0.0
 20
0.0
 30
0.003964652856058
 70
     1
  0
VERTEX
  5
17C
  8
TRACES
 10
115.3008417619483
 20
60.61311729823271
 30
0.003964652856058
 42
-1.000000000000022
  0
VERTEX
  5
17D
  8
TRACES
 10
113.7008417619397
 20
60.61311729823271
 30
0.003964652856058
  0
VERTEX
  5
17E
  8
TRACES
 10
113.7008417619395
 20
63.020099289827
 30
0.003964652856058
 42
-1.000000000000022
  0
VERTEX
  5
17F
  8
TRACES
 10
115.3008417619481
 20
63.02009928982706
 30
0.003964652856058
  0
SEQEND
  5
180
  8
TRACES
  0
CIRCLE
  5
181
  8
TRACES
 10
-138.3002437822179
 20
86.0
 30
-0.003964652856058
 40
1.5
210
0.0
220
0.0
230
-1.0
  0
POLYLINE
  5
182
  8
TRACES
 66
     1
 10
0.0
 20
0.0
 30
0.003964652856058
 70
     1
  0
VERTEX
  5
183
  8
TRACES
 10
159.4209332021269
 20
59.29637699553583
 30
0.003964652856058
  0
VERTEX
  5
184
  8
TRACES
 10
159.4209332021269
 20
63.07009928981995
 30
0.003964652856058
 42
-0.4142135623730983
  0
VERTEX
  5
185
  8
TRACES
 10
160.1709332021269
 20
63.82009928981996
 30
0.003964652856058
  0
VERTEX
  5
186
  8
TRACES
 10
160.2709332021269
 20
63.82009928981995
 30
0.003964652856058
 42
-0.4142135623731362
  0
VERTEX
  5
187
  8
TRACES
 10
161.020933202127
 20
63.07009928981995
 30
0.003964652856058
  0
VERTEX
  5
188
  8
TRACES
 10
161.020933202127
 20
59.29637699553583
 30
0.003964652856058
 42
-0.4142135623730157
  0
VERTEX
  5
189
  8
TRACES
 10
160.270933202127
 20
58.54637699553585
 30
0.003964652856058
  0
VERTEX
  5
18A
  8
TRACES
 10
160.1709332021269
 20
58.54637699553583
 30
0.003964652856058
 42
-0.4142135623731147
  0
SEQEND
  5
18B
  8
TRACES
  0
POLYLINE
  5
18C
  8
TRACES
 66
     1
 10
0.0
 20
0.0
 30
0.003964652856058
 70
     1
  0
VERTEX
  5
18D
  8
TRACES
 10
108.4634695364379
 20
96.53852708276561
 30
0.003964652856058
  0
VERTEX
  5
18E
  8
TRACES
 10
117.1859807681642
 20
96.53852708276561
 30
0.003964652856058
  0
VERTEX
  5
18F
  8
TRACES
 10
120.1859807681642
 20
93.53852708276561
 30
0.003964652856058
  0
VERTEX
  5
190
  8
TRACES
 10
122.1859807681642
 20
93.5385270827656
 30
0.003964652856058
  0
VERTEX
  5
191
  8
TRACES
 10
124.8822420324848
 20
90.84226581844501
 30
0.003964652856058
  0
VERTEX
  5
192
  8
TRACES
 10
124.9654860400567
 20
90.68260276402052
 30
0.003964652856058
 42
0.2074160048653726
  0
VERTEX
  5
193
  8
TRACES
 10
125.0972257183406
 20
90.48362962239452
 30
0.003964652856058
 42
-0.2537088694256849
  0
VERTEX
  5
194
  8
TRACES
 10
125.4608620819588
 20
89.81311710416304
 30
0.003964652856058
  0
VERTEX
  5
195
  8
TRACES
 10
125.4608620819731
 20
85.64308933774952
 30
0.003964652856058
 42
-1.000000000000062
  0
VERTEX
  5
196
  8
TRACES
 10
123.8608620819502
 20
85.64308933774952
 30
0.003964652856058
  0
VERTEX
  5
197
  8
TRACES
 10
123.8608620819502
 20
89.81311729823732
 30
0.003964652856058
 42
-0.1951953878183789
  0
VERTEX
  5
198
  8
TRACES
 10
124.0871386891443
 20
90.3706488834854
 30
0.003964652856058
 42
0.4103623712308501
  0
VERTEX
  5
199
  8
TRACES
 10
124.0841244511976
 20
90.7918552623083
 30
0.003964652856058
  0
VERTEX
  5
19A
  8
TRACES
 10
121.9374526307404
 20
92.9385270827656
 30
0.003964652856058
  0
VERTEX
  5
19B
  8
TRACES
 10
119.9374526307404
 20
92.93852708276562
 30
0.003964652856058
  0
VERTEX
  5
19C
  8
TRACES
 10
116.9374526307404
 20
95.93852708276562
 30
0.003964652856058
  0
VERTEX
  5
19D
  8
TRACES
 10
108.4634695364383
 20
95.93852708276562
 30
0.003964652856058
 42
0.3779644730091463
  0
VERTEX
  5
19E
  8
TRACES
 10
108.1658225139436
 20
95.67602708276564
 30
0.003964652856058
 42
-0.3728560218858057
  0
VERTEX
  5
19F
  8
TRACES
 10
107.669744143119
 20
95.23852708276566
 30
0.003964652856058
  0
VERTEX
  5
1A0
  8
TRACES
 10
105.0579780130104
 20
95.23852708276564
 30
0.003964652856058
 42
-0.6681786738386123
  0
VERTEX
  5
1A1
  8
TRACES
 10
104.3508713019553
 20
96.94563393414549
 30
0.003964652856058
 42
-0.1344869282643006
  0
VERTEX
  5
1A2
  8
TRACES
 10
105.0579781453269
 20
97.12514216712458
 30
0.003964652856058
  0
VERTEX
  5
1A3
  8
TRACES
 10
107.669744143119
 20
97.12514216712457
 30
0.003964652856058
 42
-0.3514555562420589
  0
VERTEX
  5
1A4
  8
TRACES
 10
108.1658225139436
 20
96.80102708276563
 30
0.003964652856058
 42
0.3830894203941669
  0
SEQEND
  5
1A5
  8
TRACES
  0
POLYLINE
  5
1A6
  8
TRACES
 66
     1
 10
0.0
 20
0.0
 30
0.003964652856058
 70
     1
  0
VERTEX
  5
1A7
  8
TRACES
 10
103.9142120471203
 20
77.05191636416399
 30
0.003964652856058
  0
VERTEX
  5
1A8
  8
TRACES
 10
103.9142120471203
 20
82.96176766638571
 30
0.003964652856058
  0
VERTEX
  5
1A9
  8
TRACES
 10
102.01376763831
 20
84.86221207519598
 30
0.003964652856058
  0
VERTEX
  5
1AA
  8
TRACES
 10
102.01376763831
 20
90.90998878532136
 30
0.003964652856058
  0
VERTEX
  5
1AB
  8
TRACES
 10
101.9258996726658
 20
91.1221208196775
 30
0.003964652856058
  0
VERTEX
  5
1AC
  8
TRACES
 10
100.1722845610552
 20
92.87573593128808
 30
0.003964652856058
  0
VERTEX
  5
1AD
  8
TRACES
 10
100.1722845610552
 20
95.77126258022865
 30
0.003964652856058
  0
VERTEX
  5
1AE
  8
TRACES
 10
102.6803758500569
 20
98.52132792811275
 30
0.003964652856058
  0
VERTEX
  5
1AF
  8
TRACES
 10
133.2653211645016
 20
98.52132792811278
 30
0.003964652856058
  0
VERTEX
  5
1B0
  8
TRACES
 10
144.5137177099126
 20
87.03095732381935
 30
0.003964652856058
  0
VERTEX
  5
1B1
  8
TRACES
 10
144.7258497442672
 20
86.94308935817789
 30
0.003964652856058
  0
VERTEX
  5
1B2
  8
TRACES
 10
146.4209078020538
 20
86.94308935817675
 30
0.003964652856058
 42
0.4142135623730736
  0
VERTEX
  5
1B3
  8
TRACES
 10
146.7209078020538
 20
87.24308935817675
 30
0.003964652856058
  0
VERTEX
  5
1B4
  8
TRACES
 10
146.7209078020538
 20
89.81311729822835
 30
0.003964652856058
 42
-0.9999999923791805
  0
VERTEX
  5
1B5
  8
TRACES
 10
148.3209078020624
 20
89.81311731042166
 30
0.003964652856058
  0
VERTEX
  5
1B6
  8
TRACES
 10
148.3209078020712
 20
87.24308935817572
 30
0.003964652856058
 42
0.4142135623721296
  0
VERTEX
  5
1B7
  8
TRACES
 10
148.6209078020712
 20
86.94308935817676
 30
0.003964652856058
  0
VERTEX
  5
1B8
  8
TRACES
 10
150.6948050029709
 20
86.94308935817675
 30
0.003964652856058
  0
VERTEX
  5
1B9
  8
TRACES
 10
150.9069370373268
 20
87.03095732382079
 30
0.003964652856058
  0
VERTEX
  5
1BA
  8
TRACES
 10
160.4145067962716
 20
96.53852708276565
 30
0.003964652856058
  0
VERTEX
  5
1BB
  8
TRACES
 10
168.0340192285683
 20
96.53852708276565
 30
0.003964652856058
 42
0.3779644730136149
  0
VERTEX
  5
1BC
  8
TRACES
 10
168.3316662510674
 20
96.80102708276604
 30
0.003964652856058
 42
-0.3728560218836676
  0
VERTEX
  5
1BD
  8
TRACES
 10
168.8277446218945
 20
97.23852708276569
 30
0.003964652856058
  0
VERTEX
  5
1BE
  8
TRACES
 10
171.4395106196866
 20
97.23852708276567
 30
0.003964652856058
 42
-1.000000066219992
  0
VERTEX
  5
1BF
  8
TRACES
 10
171.4395107520031
 20
95.23852708276567
 30
0.003964652856058
  0
VERTEX
  5
1C0
  8
TRACES
 10
168.8277446218945
 20
95.23852708276567
 30
0.003964652856058
 42
-0.3779644730093267
  0
VERTEX
  5
1C1
  8
TRACES
 10
168.3316662510699
 20
95.67602708276569
 30
0.003964652856058
 42
0.3830894203944494
  0
VERTEX
  5
1C2
  8
TRACES
 10
168.0340192285751
 20
95.93852708276566
 30
0.003964652856058
  0
VERTEX
  5
1C3
  8
TRACES
 10
160.6630349336955
 20
95.93852708276566
 30
0.003964652856058
  0
VERTEX
  5
1C4
  8
TRACES
 10
151.0675972091066
 20
86.34308935817675
 30
0.003964652856058
  0
VERTEX
  5
1C5
  8
TRACES
 10
148.6209078020754
 20
86.34308935817677
 30
0.003964652856058
 42
0.4142135623741708
  0
VERTEX
  5
1C6
  8
TRACES
 10
148.3209078020754
 20
86.04308935817575
 30
0.003964652856058
  0
VERTEX
  5
1C7
  8
TRACES
 10
148.3209078020767
 20
85.64308933774049
 30
0.003964652856058
 42
-1.000000000000018
  0
VERTEX
  5
1C8
  8
TRACES
 10
146.7209078020538
 20
85.64308933774049
 30
0.003964652856058
  0
VERTEX
  5
1C9
  8
TRACES
 10
146.7209078020538
 20
86.04308935817676
 30
0.003964652856058
 42
0.4142135623729882
  0
VERTEX
  5
1CA
  8
TRACES
 10
146.4209078020538
 20
86.34308935817674
 30
0.003964652856058
  0
VERTEX
  5
1CB
  8
TRACES
 10
144.3530575381314
 20
86.34308935817675
 30
0.003964652856058
  0
VERTEX
  5
1CC
  8
TRACES
 10
133.0167930270778
 20
97.92132792811279
 30
0.003964652856058
  0
VERTEX
  5
1CD
  8
TRACES
 10
102.9289039874807
 20
97.92132792811276
 30
0.003964652856058
  0
VERTEX
  5
1CE
  8
TRACES
 10
100.7722845610552
 20
95.52273444280479
 30
0.003964652856058
  0
VERTEX
  5
1CF
  8
TRACES
 10
100.7722845610552
 20
93.12426406871192
 30
0.003964652856058
  0
VERTEX
  5
1D0
  8
TRACES
 10
102.3501637413779
 20
91.54638488838926
 30
0.003964652856058
  0
VERTEX
  5
1D1
  8
TRACES
 10
102.5622957757338
 20
91.45851692274523
 30
0.003964652856058
  0
VERTEX
  5
1D2
  8
TRACES
 10
103.7642526196292
 20
91.45851692274523
 30
0.003964652856058
 42
0.3779644730092462
  0
VERTEX
  5
1D3
  8
TRACES
 10
104.061899642124
 20
91.72101692274522
 30
0.003964652856058
 42
-0.3728560218857961
  0
VERTEX
  5
1D4
  8
TRACES
 10
104.5579780129486
 20
92.1585169227452
 30
0.003964652856058
  0
VERTEX
  5
1D5
  8
TRACES
 10
107.1697441430572
 20
92.15851692274522
 30
0.003964652856058
 42
-0.9999999999795363
  0
VERTEX
  5
1D6
  8
TRACES
 10
107.1697441430435
 20
90.15851692274519
 30
0.003964652856058
  0
VERTEX
  5
1D7
  8
TRACES
 10
104.5579780129486
 20
90.1585169227452
 30
0.003964652856058
 42
-0.3779644730092843
  0
VERTEX
  5
1D8
  8
TRACES
 10
104.061899642124
 20
90.59601692274525
 30
0.003964652856058
 42
0.3830894203943024
  0
VERTEX
  5
1D9
  8
TRACES
 10
103.7642526196293
 20
90.85851692274528
 30
0.003964652856058
  0
VERTEX
  5
1DA
  8
TRACES
 10
102.9137676383099
 20
90.85851692274522
 30
0.003964652856058
 42
0.4142135623730602
  0
VERTEX
  5
1DB
  8
TRACES
 10
102.61376763831
 20
90.55851692274521
 30
0.003964652856058
  0
VERTEX
  5
1DC
  8
TRACES
 10
102.61376763831
 20
85.11074021261983
 30
0.003964652856058
  0
VERTEX
  5
1DD
  8
TRACES
 10
104.5142120471203
 20
83.21029580380956
 30
0.003964652856058
  0
VERTEX
  5
1DE
  8
TRACES
 10
104.5142120471203
 20
77.05191636417258
 30
0.003964652856058
 42
0.4142135623796553
  0
VERTEX
  5
1DF
  8
TRACES
 10
104.8142120471203
 20
76.75191636416595
 30
0.003964652856058
  0
VERTEX
  5
1E0
  8
TRACES
 10
104.8441333069629
 20
76.75191636416409
 30
0.003964652856058
 42
-0.9999999999999999
  0
VERTEX
  5
1E1
  8
TRACES
 10
104.8441333069629
 20
75.15191636415548
 30
0.003964652856058
  0
VERTEX
  5
1E2
  8
TRACES
 10
102.4371513153686
 20
75.15191636415531
 30
0.003964652856058
 42
-1.000000000000071
  0
VERTEX
  5
1E3
  8
TRACES
 10
102.4371513153685
 20
76.75191636416392
 30
0.003964652856058
  0
VERTEX
  5
1E4
  8
TRACES
 10
103.6142120471203
 20
76.751916364164
 30
0.003964652856058
 42
0.4142135623729841
  0
SEQEND
  5
1E5
  8
TRACES
  0
CIRCLE
  5
1E6
  8
TRACES
 10
-168.3002437822179
 20
77.99999999999997
 30
-0.003964652856058
 40
1.5
210
0.0
220
0.0
230
-1.0
  0
CIRCLE
  5
1E7
  8
TRACES
 10
-122.3002437822179
 20
78.99999999999997
 30
-0.003964652856058
 40
1.5
210
0.0
220
0.0
230
-1.0
  0
POLYLINE
  5
1E8
  8
TRACES
 66
     1
 10
0.0
 20
0.0
 30
0.003964652856058
 70
     1
  0
VERTEX
  5
1E9
  8
TRACES
 10
129.1630944642146
 20
85.08976046670823
 30
0.003964652856058
 42
-0.1933016534068688
  0
VERTEX
  5
1EA
  8
TRACES
 10
128.9408722419822
 20
85.64308933774053
 30
0.003964652856058
  0
VERTEX
  5
1EB
  8
TRACES
 10
128.9408722419821
 20
89.81311729822839
 30
0.003964652856058
 42
-0.9999999923791805
  0
VERTEX
  5
1EC
  8
TRACES
 10
130.5408722419907
 20
89.81311731042172
 30
0.003964652856058
  0
VERTEX
  5
1ED
  8
TRACES
 10
130.5408722420051
 20
85.64308933774053
 30
0.003964652856058
 42
-0.1933016534020736
  0
VERTEX
  5
1EE
  8
TRACES
 10
130.3186500197828
 20
85.0897604667188
 30
0.003964652856058
 42
0.1933016534020405
  0
VERTEX
  5
1EF
  8
TRACES
 10
130.0408722420051
 20
84.39809937794165
 30
0.003964652856058
  0
VERTEX
  5
1F0
  8
TRACES
 10
130.040872242005
 20
81.83820601866397
 30
0.003964652856058
  0
VERTEX
  5
1F1
  8
TRACES
 10
133.579078260669
 20
78.30000000000001
 30
0.003964652856058
  0
VERTEX
  5
1F2
  8
TRACES
 10
159.6242220918098
 20
78.3
 30
0.003964652856058
  0
VERTEX
  5
1F3
  8
TRACES
 10
169.0277446218944
 20
87.70352253008458
 30
0.003964652856058
  0
VERTEX
  5
1F4
  8
TRACES
 10
169.0277446218944
 20
89.85851692274531
 30
0.003964652856058
 42
0.4142135623730118
  0
VERTEX
  5
1F5
  8
TRACES
 10
168.7277446218944
 20
90.1585169227453
 30
0.003964652856058
  0
VERTEX
  5
1F6
  8
TRACES
 10
166.8277446218944
 20
90.15851692274538
 30
0.003964652856058
 42
-0.414213562373099
  0
VERTEX
  5
1F7
  8
TRACES
 10
166.3277446218943
 20
90.65851692274535
 30
0.003964652856058
  0
VERTEX
  5
1F8
  8
TRACES
 10
166.3277446218944
 20
91.65851692274535
 30
0.003964652856058
 42
-0.414213562373095
  0
VERTEX
  5
1F9
  8
TRACES
 10
166.8277446218944
 20
92.15851692274535
 30
0.003964652856058
  0
VERTEX
  5
1FA
  8
TRACES
 10
169.4395107520029
 20
92.15851692274532
 30
0.003964652856058
 42
-0.8239025849332291
  0
VERTEX
  5
1FB
  8
TRACES
 10
169.8150752672978
 20
90.23172066960716
 30
0.003964652856058
 42
0.3054482142239196
  0
VERTEX
  5
1FC
  8
TRACES
 10
169.6277446218944
 20
89.9536817936657
 30
0.003964652856058
  0
VERTEX
  5
1FD
  8
TRACES
 10
169.6277446218944
 20
87.45499439266074
 30
0.003964652856058
  0
VERTEX
  5
1FE
  8
TRACES
 10
159.8727502292336
 20
77.7
 30
0.003964652856058
  0
VERTEX
  5
1FF
  8
TRACES
 10
133.3305501232451
 20
77.7
 30
0.003964652856058
  0
VERTEX
  5
200
  8
TRACES
 10
129.440872242005
 20
81.5896778812401
 30
0.003964652856058
  0
VERTEX
  5
201
  8
TRACES
 10
129.440872242005
 20
84.39809937791784
 30
0.003964652856058
 42
0.1933016534067568
  0
SEQEND
  5
202
  8
TRACES
  0
CIRCLE
  5
203
  8
TRACES
 10
-129.7408722420054
 20
61.24303855807526
 30
-0.003964652856058
 40
0.4150000000000063
210
0.0
220
0.0
230
-1.0
  0
CIRCLE
  5
204
  8
TRACES
 10
-147.5209078020765
 20
61.24303855807517
 30
-0.003964652856058
 40
0.4149999999999849
210
0.0
220
0.0
230
-1.0
  0
CIRCLE
  5
205
  8
TRACES
 10
-144.9809027220662
 20
61.24303855807516
 30
-0.003964652856058
 40
0.4149999999999991
210
0.0
220
0.0
230
-1.0
  0
CIRCLE
  5
206
  8
TRACES
 10
-142.440897642056
 20
61.24303855807522
 30
-0.003964652856058
 40
0.4149999999999991
210
0.0
220
0.0
230
-1.0
  0
CIRCLE
  5
207
  8
TRACES
 10
-134.8208824020259
 20
61.24303855807528
 30
-0.003964652856058
 40
0.4149999999999778
210
0.0
220
0.0
230
-1.0
  0
CIRCLE
  5
208
  8
TRACES
 10
-132.2808773220157
 20
61.24303855807527
 30
-0.003964652856058
 40
0.414999999999992
210
0.0
220
0.0
230
-1.0
  0
CIRCLE
  5
209
  8
TRACES
 10
-127.2008671619952
 20
61.24303855807527
 30
-0.003964652856058
 40
0.4149999999999849
210
0.0
220
0.0
230
-1.0
  0
CIRCLE
  5
20A
  8
TRACES
 10
-124.6608620819849
 20
61.24303855807527
 30
-0.003964652856058
 40
0.4149999999999849
210
0.0
220
0.0
230
-1.0
  0
CIRCLE
  5
20B
  8
TRACES
 10
-122.1208570019747
 20
61.24303855807533
 30
-0.003964652856058
 40
0.414999999999992
210
0.0
220
0.0
230
-1.0
  0
CIRCLE
  5
20C
  8
TRACES
 10
-114.5008417619439
 20
61.24303855807533
 30
-0.003964652856058
 40
0.4149999999999778
210
0.0
220
0.0
230
-1.0
  0
CIRCLE
  5
20D
  8
TRACES
 10
-157.6809281221167
 20
61.24303855807511
 30
-0.003964652856058
 40
0.4150000000000134
210
0.0
220
0.0
230
-1.0
  0
CIRCLE
  5
20E
  8
TRACES
 10
-139.9008925620457
 20
61.24303855807528
 30
-0.003964652856058
 40
0.4149999999999849
210
0.0
220
0.0
230
-1.0
  0
CIRCLE
  5
20F
  8
TRACES
 10
-137.3608874820355
 20
61.24303855807527
 30
-0.003964652856058
 40
0.414999999999992
210
0.0
220
0.0
230
-1.0
  0
POLYLINE
  5
210
  8
TRACES
 66
     1
 10
0.0
 20
0.0
 30
0.003964652856058
 70
     1
  0
VERTEX
  5
211
  8
TRACES
 10
132.6002437822179
 20
53.75396317172948
 30
0.003964652856058
 42
0.4142135623731136
  0
VERTEX
  5
212
  8
TRACES
 10
133.1002437822179
 20
54.25396317172947
 30
0.003964652856058
  0
VERTEX
  5
213
  8
TRACES
 10
133.1002437822179
 20
55.77429667417261
 30
0.003964652856058
 42
0.9999999999999928
  0
VERTEX
  5
214
  8
TRACES
 10
132.1002437822179
 20
55.77429667417262
 30
0.003964652856058
  0
VERTEX
  5
215
  8
TRACES
 10
132.1002437822179
 20
54.25396317172949
 30
0.003964652856058
 42
0.414213562373133
  0
SEQEND
  5
216
  8
TRACES
  0
POLYLINE
  5
217
  8
TRACES
 66
     1
 10
0.0
 20
0.0
 30
0.003964652856058
 70
     1
  0
VERTEX
  5
218
  8
TRACES
 10
107.5842680030454
 20
53.34961949770497
 30
0.003964652856058
 42
0.305614684581035
  0
VERTEX
  5
219
  8
TRACES
 10
107.3061605597788
 20
53.16211949770509
 30
0.003964652856058
 42
-0.2957973447034087
  0
VERTEX
  5
21A
  8
TRACES
 10
106.8426481543355
 20
52.84961949770502
 30
0.003964652856058
  0
VERTEX
  5
21B
  8
TRACES
 10
104.8533322024362
 20
52.8496194977051
 30
0.003964652856058
 42
-1.000000116164738
  0
VERTEX
  5
21C
  8
TRACES
 10
104.8533320165726
 20
54.44961949770506
 30
0.003964652856058
  0
VERTEX
  5
21D
  8
TRACES
 10
106.8426481543356
 20
54.44961949770505
 30
0.003964652856058
 42
-0.3056146845807843
  0
VERTEX
  5
21E
  8
TRACES
 10
107.3061605597791
 20
54.13711949770489
 30
0.003964652856058
 42
0.3154768161196564
  0
VERTEX
  5
21F
  8
TRACES
 10
107.5842680030452
 20
53.94961949770497
 30
0.003964652856058
  0
VERTEX
  5
220
  8
TRACES
 10
117.4145067962716
 20
53.94852708276559
 30
0.003964652856058
  0
VERTEX
  5
221
  8
TRACES
 10
119.2808519219644
 20
55.81487220845845
 30
0.003964652856058
  0
VERTEX
  5
222
  8
TRACES
 10
119.2808519219644
 20
59.69116285249849
 30
0.003964652856058
 42
0.2636687292467485
  0
VERTEX
  5
223
  8
TRACES
 10
119.1444882855987
 20
59.94260497406237
 30
0.003964652856058
 42
-0.253708804883902
  0
VERTEX
  5
224
  8
TRACES
 10
118.7808519219569
 20
60.61311729823271
 30
0.003964652856058
  0
VERTEX
  5
225
  8
TRACES
 10
118.7808519219567
 20
63.020099289827
 30
0.003964652856058
 42
-1.000000000000053
  0
VERTEX
  5
226
  8
TRACES
 10
120.3808519219653
 20
63.02009928982706
 30
0.003964652856058
  0
VERTEX
  5
227
  8
TRACES
 10
120.3808519219655
 20
60.61311729823271
 30
0.003964652856058
 42
-0.2437816573851346
  0
VERTEX
  5
228
  8
TRACES
 10
120.0172155583288
 20
59.94260497406579
 30
0.003964652856058
 42
0.2537088048817477
  0
VERTEX
  5
229
  8
TRACES
 10
119.8808519219651
 20
59.69116285250331
 30
0.003964652856058
  0
VERTEX
  5
22A
  8
TRACES
 10
119.8808519219644
 20
55.56634407103459
 30
0.003964652856058
  0
VERTEX
  5
22B
  8
TRACES
 10
117.6630349336954
 20
53.3485270827656
 30
0.003964652856058
  0
SEQEND
  5
22C
  8
TRACES
  0
POLYLINE
  5
22D
  8
TRACES
 66
     1
 10
0.0
 20
0.0
 30
0.003964652856058
 70
     1
  0
VERTEX
  5
22E
  8
TRACES
 10
136.3299121513909
 20
53.69116420000203
 30
0.003964652856058
  0
VERTEX
  5
22F
  8
TRACES
 10
136.3299121513909
 20
62.16118322542862
 30
0.003964652856058
 42
-0.4142135623730535
  0
VERTEX
  5
230
  8
TRACES
 10
137.1299121513908
 20
62.96118322542861
 30
0.003964652856058
  0
VERTEX
  5
231
  8
TRACES
 10
137.4705754130449
 20
62.96118322542861
 30
0.003964652856058
 42
-0.4142135623730754
  0
VERTEX
  5
232
  8
TRACES
 10
138.270575413045
 20
62.16118322542862
 30
0.003964652856058
  0
VERTEX
  5
233
  8
TRACES
 10
138.270575413045
 20
53.69116420000204
 30
0.003964652856058
 42
-0.4142135623730802
  0
VERTEX
  5
234
  8
TRACES
 10
137.470575413045
 20
52.89116420000204
 30
0.003964652856058
  0
VERTEX
  5
235
  8
TRACES
 10
137.1299121513909
 20
52.89116420000204
 30
0.003964652856058
 42
-0.4142135623731353
  0
SEQEND
  5
236
  8
TRACES
  0
ENDSEC
  0
EOF
