  0
SECTION
  2
HEADER
  9
$ACADVER
  1
AC1009
  9
$DWGCODEPAGE
  3
ansi_1252
  9
$INSBASE
 10
0.0
 20
0.0
 30
0.0
  9
$EXTMIN
 10
-126.3860976553222
 20
-280.914727401673
 30
0.0
  9
$EXTMAX
 10
375.5597606749645
 20
-104.075186528155
 30
12.06085246893752
  9
$LIMMIN
 10
0.0
 20
0.0
  9
$LIMMAX
 10
12.0
 20
9.0
  9
$ORTHOMODE
 70
     0
  9
$REGENMODE
 70
     1
  9
$FILLMODE
 70
     1
  9
$QTEXTMODE
 70
     0
  9
$MIRRTEXT
 70
     1
  9
$DRAGMODE
 70
     2
  9
$LTSCALE
 40
1.0
  9
$OSMODE
 70
    37
  9
$ATTMODE
 70
     1
  9
$TEXTSIZE
 40
0.2
  9
$TRACEWID
 40
0.05
  9
$TEXTSTYLE
  7
STANDARD
  9
$CLAYER
  8
DEFAULT
  9
$CELTYPE
  6
BYLAYER
  9
$CECOLOR
 62
   256
  9
$DIMSCALE
 40
1.0
  9
$DIMASZ
 40
0.18
  9
$DIMEXO
 40
0.0625
  9
$DIMDLI
 40
0.38
  9
$DIMRND
 40
0.0
  9
$DIMDLE
 40
0.0
  9
$DIMEXE
 40
0.18
  9
$DIMTP
 40
0.0
  9
$DIMTM
 40
0.0
  9
$DIMTXT
 40
0.18
  9
$DIMCEN
 40
0.09
  9
$DIMTSZ
 40
0.0
  9
$DIMTOL
 70
     0
  9
$DIMLIM
 70
     0
  9
$DIMTIH
 70
     1
  9
$DIMTOH
 70
     1
  9
$DIMSE1
 70
     0
  9
$DIMSE2
 70
     0
  9
$DIMTAD
 70
     0
  9
$DIMZIN
 70
     0
  9
$DIMBLK
  1

  9
$DIMASO
 70
     1
  9
$DIMSHO
 70
     1
  9
$DIMPOST
  1

  9
$DIMAPOST
  1

  9
$DIMALT
 70
     0
  9
$DIMALTD
 70
     2
  9
$DIMALTF
 40
25.4
  9
$DIMLFAC
 40
1.0
  9
$DIMTOFL
 70
     0
  9
$DIMTVP
 40
0.0
  9
$DIMTIX
 70
     0
  9
$DIMSOXD
 70
     0
  9
$DIMSAH
 70
     0
  9
$DIMBLK1
  1

  9
$DIMBLK2
  1

  9
$DIMSTYLE
  2
STANDARD_ACAD
  9
$DIMCLRD
 70
     0
  9
$DIMCLRE
 70
     0
  9
$DIMCLRT
 70
     0
  9
$DIMTFAC
 40
1.0
  9
$DIMGAP
 40
0.09
  9
$LUNITS
 70
     2
  9
$LUPREC
 70
     3
  9
$SKETCHINC
 40
0.1
  9
$FILLETRAD
 40
0.0
  9
$AUNITS
 70
     0
  9
$AUPREC
 70
     0
  9
$MENU
  1
.
  9
$ELEVATION
 40
0.0
  9
$PELEVATION
 40
0.0
  9
$THICKNESS
 40
0.0
  9
$LIMCHECK
 70
     0
  9
$CHAMFERA
 40
0.0
  9
$CHAMFERB
 40
0.0
  9
$SKPOLY
 70
     0
  9
$TDCREATE
 40
2461098.568111574
  9
$TDUPDATE
 40
2461098.568121806
  9
$TDINDWG
 40
0.0000000116
  9
$TDUSRTIMER
 40
0.0000000116
  9
$USRTIMER
 70
     1
  9
$ANGBASE
 50
0.0
  9
$ANGDIR
 70
     0
  9
$PDMODE
 70
     0
  9
$PDSIZE
 40
0.0
  9
$PLINEWID
 40
0.0
  9
$COORDS
 70
     1
  9
$SPLFRAME
 70
     0
  9
$SPLINETYPE
 70
     6
  9
$SPLINESEGS
 70
     8
  9
$ATTDIA
 70
     0
  9
$ATTREQ
 70
     1
  9
$HANDLING
 70
     1
  9
$HANDSEED
  5
1D9
  9
$SURFTAB1
 70
     6
  9
$SURFTAB2
 70
     6
  9
$SURFTYPE
 70
     6
  9
$SURFU
 70
     6
  9
$SURFV
 70
     6
  9
$UCSNAME
  2

  9
$UCSORG
 10
0.0
 20
0.0
 30
0.0
  9
$UCSXDIR
 10
1.0
 20
0.0
 30
0.0
  9
$UCSYDIR
 10
0.0
 20
1.0
 30
0.0
  9
$PUCSNAME
  2

  9
$PUCSORG
 10
0.0
 20
0.0
 30
0.0
  9
$PUCSXDIR
 10
1.0
 20
0.0
 30
0.0
  9
$PUCSYDIR
 10
0.0
 20
1.0
 30
0.0
  9
$USERI1
 70
     0
  9
$USERI2
 70
     0
  9
$USERI3
 70
     0
  9
$USERI4
 70
     0
  9
$USERI5
 70
     0
  9
$USERR1
 40
0.0
  9
$USERR2
 40
0.0
  9
$USERR3
 40
0.0
  9
$USERR4
 40
0.0
  9
$USERR5
 40
0.0
  9
$WORLDVIEW
 70
     1
  9
$SHADEDGE
 70
     3
  9
$SHADEDIF
 70
    70
  9
$TILEMODE
 70
     1
  9
$MAXACTVP
 70
    64
  9
$PLIMCHECK
 70
     0
  9
$PEXTMIN
 10
1.000000000000000E+20
 20
1.000000000000000E+20
 30
1.000000000000000E+20
  9
$PEXTMAX
 10
-1.000000000000000E+20
 20
-1.000000000000000E+20
 30
-1.000000000000000E+20
  9
$PLIMMIN
 10
0.0
 20
0.0
  9
$PLIMMAX
 10
12.0
 20
9.0
  9
$UNITMODE
 70
     0
  9
$VISRETAIN
 70
     1
  9
$PLINEGEN
 70
     0
  9
$PSLTSCALE
 70
     1
  0
ENDSEC
  0
SECTION
  2
TABLES
  0
TABLE
  2
VPORT
 70
     1
  0
VPORT
  2
*ACTIVE
 70
     0
 10
0.0
 20
0.0
 11
1.0
 21
1.0
 12
10.42990654205607
 22
4.5
 13
0.0
 23
0.0
 14
0.5
 24
0.5
 15
0.5
 25
0.5
 16
0.0
 26
0.0
 36
1.0
 17
0.0
 27
0.0
 37
0.0
 40
9.0
 41
1.972972972850329
 42
50.0
 43
0.0
 44
0.0
 50
0.0
 51
0.0
 71
     0
 72
   100
 73
     1
 74
     3
 75
     0
 76
     0
 77
     0
 78
     0
  0
ENDTAB
  0
TABLE
  2
LTYPE
 70
     1
  0
LTYPE
  2
CONTINUOUS
 70
     0
  3
Solid line
 72
    65
 73
     0
 40
0.0
  0
ENDTAB
  0
TABLE
  2
LAYER
 70
     3
  0
LAYER
  2
0
 70
     0
 62
     7
  6
CONTINUOUS
  0
LAYER
  2
DEFAULT
 70
     0
 62
     7
  6
CONTINUOUS
  0
LAYER
  2
JOYSTICK_HULL
 70
     0
 62
   190
  6
CONTINUOUS
  0
ENDTAB
  0
TABLE
  2
STYLE
 70
     1
  0
STYLE
  2
STANDARD
 70
     0
 40
0.0
 41
1.0
 50
0.0
 71
     0
 42
0.2
  3
txt
  4

  0
ENDTAB
  0
TABLE
  2
VIEW
 70
     0
  0
ENDTAB
  0
TABLE
  2
UCS
 70
     0
  0
ENDTAB
  0
TABLE
  2
APPID
 70
     2
  0
APPID
  2
ACAD
 70
     0
  0
APPID
  2
RHINO
 70
     0
  0
ENDTAB
  0
TABLE
  2
DIMSTYLE
 70
     1
  0
DIMSTYLE
  2
STANDARD_ACAD
 70
     0
  3

  4

  5

  6

  7

 40
1.0
 41
0.18
 42
0.0625
 43
0.38
 44
0.18
 45
0.0
 46
0.0
 47
0.0
 48
0.0
140
0.18
141
0.09
142
0.0
143
25.4
144
1.0
145
0.0
146
1.0
147
0.09
 71
     0
 72
     0
 73
     1
 74
     1
 75
     0
 76
     0
 77
     0
 78
     0
170
     0
171
     2
172
     0
173
     0
174
     0
175
     0
176
     0
177
     0
178
     0
  0
ENDTAB
  0
ENDSEC
  0
SECTION
  2
BLOCKS
  0
BLOCK
  8
0
  2
$MODEL_SPACE
 70
     0
 10
0.0
 20
0.0
 30
0.0
  3
$MODEL_SPACE
  1

  0
ENDBLK
  5
21
  8
0
  0
BLOCK
 67
     1
  8
0
  2
$PAPER_SPACE
 70
     0
 10
0.0
 20
0.0
 30
0.0
  3
$PAPER_SPACE
  1

  0
ENDBLK
  5
1D
 67
     1
  8
0
  0
ENDSEC
  0
SECTION
  2
ENTITIES
  0
POLYLINE
  5
60
  8
DEFAULT
 66
     1
 10
0.0
 20
0.0
 30
0.0
 70
     1
  0
VERTEX
  5
61
  8
DEFAULT
 10
354.6368973014912
 20
-150.0958746405755
 30
0.0
  0
VERTEX
  5
62
  8
DEFAULT
 10
354.6368973014912
 20
-134.0544856369741
 30
0.0
 42
-0.4142135623727538
  0
VERTEX
  5
63
  8
DEFAULT
 10
355.6368973014916
 20
-133.0544856369757
 30
0.0
  0
VERTEX
  5
64
  8
DEFAULT
 10
366.7459641370348
 20
-133.0544856369751
 30
0.0
 42
0.414213562373095
  0
VERTEX
  5
65
  8
DEFAULT
 10
367.7459641370348
 20
-132.0544856369751
 30
0.0
  0
VERTEX
  5
66
  8
DEFAULT
 10
367.7459641370348
 20
-111.9339777259257
 30
0.0
 42
0.4142135623729762
  0
VERTEX
  5
67
  8
DEFAULT
 10
366.7459641370349
 20
-110.9339777259257
 30
0.0
  0
VERTEX
  5
68
  8
DEFAULT
 10
345.5629590651864
 20
-110.9339777259257
 30
0.0
 42
0.4142135623732368
  0
VERTEX
  5
69
  8
DEFAULT
 10
344.5629590651859
 20
-111.9339777259257
 30
0.0
  0
VERTEX
  5
6A
  8
DEFAULT
 10
344.5629590651858
 20
-122.1322136124537
 30
0.0
 42
-0.4142135623730676
  0
VERTEX
  5
6B
  8
DEFAULT
 10
341.5629590651861
 20
-125.1322136124537
 30
0.0
  0
VERTEX
  5
6C
  8
DEFAULT
 10
289.5565622847431
 20
-125.1322136124537
 30
0.0
 42
-0.414213562373099
  0
VERTEX
  5
6D
  8
DEFAULT
 10
286.5565622847431
 20
-122.1322136124537
 30
0.0
  0
VERTEX
  5
6E
  8
DEFAULT
 10
286.5565622847431
 20
-111.9339777259257
 30
0.0
 42
0.4142135623731422
  0
VERTEX
  5
6F
  8
DEFAULT
 10
285.556562284743
 20
-110.9339777259257
 30
0.0
  0
VERTEX
  5
70
  8
DEFAULT
 10
264.3735654392285
 20
-110.9339777259257
 30
0.0
 42
0.4142135623730833
  0
VERTEX
  5
71
  8
DEFAULT
 10
263.3735654392285
 20
-111.9339777259257
 30
0.0
  0
VERTEX
  5
72
  8
DEFAULT
 10
263.3735654392285
 20
-127.0723794466381
 30
0.0
 42
-0.4142135623731258
  0
VERTEX
  5
73
  8
DEFAULT
 10
262.3735654392285
 20
-128.0723794466381
 30
0.0
  0
VERTEX
  5
74
  8
DEFAULT
 10
256.5597606749645
 20
-128.0723794466381
 30
0.0
 42
-0.4142135623731162
  0
VERTEX
  5
75
  8
DEFAULT
 10
255.5597606749645
 20
-127.0723794466381
 30
0.0
  0
VERTEX
  5
76
  8
DEFAULT
 10
255.5597606749644
 20
-107.687222058575
 30
0.0
 42
-0.4142135623731372
  0
VERTEX
  5
77
  8
DEFAULT
 10
259.1717962053845
 20
-104.075186528155
 30
0.0
  0
VERTEX
  5
78
  8
DEFAULT
 10
371.9477251445444
 20
-104.075186528155
 30
0.0
 42
-0.4142135623731116
  0
VERTEX
  5
79
  8
DEFAULT
 10
375.5597606749645
 20
-107.687222058575
 30
0.0
  0
VERTEX
  5
7A
  8
DEFAULT
 10
375.5597606749645
 20
-176.463150997735
 30
0.0
 42
-0.414213562373091
  0
VERTEX
  5
7B
  8
DEFAULT
 10
371.9477251445444
 20
-180.0751865281551
 30
0.0
  0
VERTEX
  5
7C
  8
DEFAULT
 10
259.1717962053845
 20
-180.075186528155
 30
0.0
 42
-0.4142135623730796
  0
VERTEX
  5
7D
  8
DEFAULT
 10
255.5597606749645
 20
-176.463150997735
 30
0.0
  0
VERTEX
  5
7E
  8
DEFAULT
 10
255.5597606749645
 20
-157.0779808309131
 30
0.0
 42
-0.4142135623731118
  0
VERTEX
  5
7F
  8
DEFAULT
 10
256.5597606749644
 20
-156.0779808309131
 30
0.0
  0
VERTEX
  5
80
  8
DEFAULT
 10
262.3735654392285
 20
-156.0779808309131
 30
0.0
 42
-0.414213562373095
  0
VERTEX
  5
81
  8
DEFAULT
 10
263.3735654392285
 20
-157.0779808309131
 30
0.0
  0
VERTEX
  5
82
  8
DEFAULT
 10
263.3735654392285
 20
-172.2163825516257
 30
0.0
 42
0.4142135623731498
  0
VERTEX
  5
83
  8
DEFAULT
 10
264.3735654392284
 20
-173.2163825516257
 30
0.0
  0
VERTEX
  5
84
  8
DEFAULT
 10
285.556562284743
 20
-173.2163825516255
 30
0.0
 42
0.4142135623731126
  0
VERTEX
  5
85
  8
DEFAULT
 10
286.556562284743
 20
-172.2163825516255
 30
0.0
  0
VERTEX
  5
86
  8
DEFAULT
 10
286.5565622847431
 20
-162.0181466650973
 30
0.0
 42
-0.4142135623730672
  0
VERTEX
  5
87
  8
DEFAULT
 10
289.556562284743
 20
-159.0181466650976
 30
0.0
  0
VERTEX
  5
88
  8
DEFAULT
 10
341.5629590651857
 20
-159.0181466650976
 30
0.0
 42
-0.414213562373117
  0
VERTEX
  5
89
  8
DEFAULT
 10
344.5629590651857
 20
-162.0181466650978
 30
0.0
  0
VERTEX
  5
8A
  8
DEFAULT
 10
344.5629590651859
 20
-172.2163825516256
 30
0.0
 42
0.4142135623731445
  0
VERTEX
  5
8B
  8
DEFAULT
 10
345.562959065186
 20
-173.2163825516256
 30
0.0
  0
VERTEX
  5
8C
  8
DEFAULT
 10
366.7459641370348
 20
-173.2163825516256
 30
0.0
 42
0.4142135623731283
  0
VERTEX
  5
8D
  8
DEFAULT
 10
367.7459641370348
 20
-172.2163825516256
 30
0.0
  0
VERTEX
  5
8E
  8
DEFAULT
 10
367.7459641370348
 20
-152.0958746405761
 30
0.0
 42
0.4142135623731333
  0
VERTEX
  5
8F
  8
DEFAULT
 10
366.7459641370348
 20
-151.095874640576
 30
0.0
  0
VERTEX
  5
90
  8
DEFAULT
 10
355.6368973014912
 20
-151.0958746405761
 30
0.0
 42
-0.4142135623732373
  0
SEQEND
  5
91
  8
DEFAULT
  0
CIRCLE
  5
92
  8
DEFAULT
 10
372.0597606749645
 20
-107.575186528155
 30
0.0
 40
1.5
  0
CIRCLE
  5
93
  8
DEFAULT
 10
-372.0597606749645
 20
-176.5751865281551
 30
0.0
 40
1.5
210
0.0
220
0.0
230
-1.0
  0
CIRCLE
  5
94
  8
DEFAULT
 10
259.0597606749644
 20
-176.575186528155
 30
0.0
 40
1.5
  0
CIRCLE
  5
95
  8
DEFAULT
 10
-259.0597606749644
 20
-107.575186528155
 30
0.0
 40
1.5
210
0.0
220
0.0
230
-1.0
  0
CIRCLE
  5
96
  8
DEFAULT
 10
-133.6196202081695
 20
-108.6361245719988
 30
-0.003964652856058
 40
1.5
210
0.0
220
0.0
230
-1.0
  0
POLYLINE
  5
97
  8
DEFAULT
 66
     1
 10
0.0
 20
0.0
 30
0.003964652856058
 70
     1
  0
VERTEX
  5
98
  8
DEFAULT
 10
133.7316557385896
 20
-181.1361245719988
 30
0.003964652856058
  0
VERTEX
  5
99
  8
DEFAULT
 10
246.5075846777495
 20
-181.1361245719988
 30
0.003964652856058
 42
0.4142135623730951
  0
VERTEX
  5
9A
  8
DEFAULT
 10
250.1196202081695
 20
-177.5240890415787
 30
0.003964652856058
  0
VERTEX
  5
9B
  8
DEFAULT
 10
250.1196202081695
 20
-108.7481601024188
 30
0.003964652856058
 42
0.4142135623730951
  0
VERTEX
  5
9C
  8
DEFAULT
 10
246.5075846777495
 20
-105.1361245719988
 30
0.003964652856058
  0
VERTEX
  5
9D
  8
DEFAULT
 10
133.7316557385896
 20
-105.1361245719988
 30
0.003964652856058
 42
0.4142135623730951
  0
VERTEX
  5
9E
  8
DEFAULT
 10
130.1196202081695
 20
-108.7481601024188
 30
0.003964652856058
  0
VERTEX
  5
9F
  8
DEFAULT
 10
130.1196202081695
 20
-177.5240890415787
 30
0.003964652856058
 42
0.4142135623730951
  0
SEQEND
  5
A0
  8
DEFAULT
  0
CIRCLE
  5
A1
  8
DEFAULT
 10
133.6196202081695
 20
-177.6361245719988
 30
0.003964652856058
 40
1.5
  0
POLYLINE
  5
A3
  8
JOYSTICK_HULL
 66
     1
 10
0.0
 20
0.0
 30
0.003964652856058
 70
     1
  0
VERTEX
  5
A4
  8
JOYSTICK_HULL
 10
151.8968393405543
 20
-118.2826169731572
 30
0.003964652856058
 42
0.1310959317187051
  0
VERTEX
  5
A5
  8
JOYSTICK_HULL
 10
151.7632238225408
 20
-117.7823292791315
 30
0.003964652856058
 42
-0.7616709904734518
  0
VERTEX
  5
A6
  8
JOYSTICK_HULL
 10
151.9727183685918
 20
-117.575142498939
 30
0.003964652856058
 42
0.1285946468398853
  0
VERTEX
  5
A7
  8
JOYSTICK_HULL
 10
152.4785785555102
 20
-117.7072861250276
 30
0.003964652856058
  0
VERTEX
  5
A8
  8
JOYSTICK_HULL
 10
227.7606618608287
 20
-117.7072861250276
 30
0.003964652856058
 42
0.1285946468398514
  0
VERTEX
  5
A9
  8
JOYSTICK_HULL
 10
228.2665220477473
 20
-117.575142498939
 30
0.003964652856058
 42
-0.7616709904732846
  0
VERTEX
  5
AA
  8
JOYSTICK_HULL
 10
228.4760165937982
 20
-117.7823292791315
 30
0.003964652856058
 42
0.1310959317188036
  0
VERTEX
  5
AB
  8
JOYSTICK_HULL
 10
228.3424010757847
 20
-118.2826169731572
 30
0.003964652856058
  0
VERTEX
  5
AC
  8
JOYSTICK_HULL
 10
228.3424010757847
 20
-167.9896321708404
 30
0.003964652856058
 42
0.1310959317187775
  0
VERTEX
  5
AD
  8
JOYSTICK_HULL
 10
228.4760165937982
 20
-168.4899198648661
 30
0.003964652856058
 42
-0.7616709904739187
  0
VERTEX
  5
AE
  8
JOYSTICK_HULL
 10
228.2665220477473
 20
-168.6971066450585
 30
0.003964652856058
 42
0.1285946468398624
  0
VERTEX
  5
AF
  8
JOYSTICK_HULL
 10
227.7606618608287
 20
-168.56496301897
 30
0.003964652856058
  0
VERTEX
  5
B0
  8
JOYSTICK_HULL
 10
152.4785785555102
 20
-168.56496301897
 30
0.003964652856058
 42
0.128594646839862
  0
VERTEX
  5
B1
  8
JOYSTICK_HULL
 10
151.9727183685918
 20
-168.6971066450585
 30
0.003964652856058
 42
-0.7616709904737441
  0
VERTEX
  5
B2
  8
JOYSTICK_HULL
 10
151.7632238225408
 20
-168.489919864866
 30
0.003964652856058
 42
0.1310959317187518
  0
VERTEX
  5
B3
  8
JOYSTICK_HULL
 10
151.8968393405543
 20
-167.9896321708404
 30
0.003964652856058
  0
SEQEND
  5
B4
  8
JOYSTICK_HULL
  0
CIRCLE
  5
B5
  8
DEFAULT
 10
-246.6196202081695
 20
-177.6361245719988
 30
-0.003964652856058
 40
1.5
210
0.0
220
0.0
230
-1.0
  0
CIRCLE
  5
B6
  8
DEFAULT
 10
246.6196202081695
 20
-108.6361245719988
 30
0.003964652856058
 40
1.5
  0
CIRCLE
  5
B7
  8
JOYSTICK_HULL
 10
-190.1196202081695
 20
-174.4398771307309
 30
-0.003964652856058
 40
1.500000000000028
210
0.0
220
0.0
230
-1.0
  0
CIRCLE
  5
B8
  8
JOYSTICK_HULL
 10
190.1196202081695
 20
-111.8323720132665
 30
0.003964652856058
 40
1.5
  0
CIRCLE
  5
B9
  8
DEFAULT
 10
-77.46431098793963
 20
-139.5688544076757
 30
-12.06085246893752
 40
1.5
210
0.0
220
0.0
230
-1.0
  0
CIRCLE
  5
BA
  8
DEFAULT
 10
-94.71431098793967
 20
-139.5688544076758
 30
-12.06085246893752
 40
1.5
210
0.0
220
0.0
230
-1.0
  0
POLYLINE
  5
BB
  8
DEFAULT
 66
     1
 10
0.0
 20
0.0
 30
12.06085246893752
 70
     1
  0
VERTEX
  5
BC
  8
DEFAULT
 10
105.3703124177928
 20
-142.0688544076759
 30
12.06085246893752
  0
VERTEX
  5
BD
  8
DEFAULT
 10
105.3703124177931
 20
-136.6264305902882
 30
12.06085246893752
 42
0.4142135623730931
  0
VERTEX
  5
BE
  8
DEFAULT
 10
104.3703124177932
 20
-135.6264305902881
 30
12.06085246893752
  0
VERTEX
  5
BF
  8
DEFAULT
 10
81.38951697916023
 20
-135.626430590288
 30
12.06085246893752
 42
-0.4142135623730884
  0
VERTEX
  5
C0
  8
DEFAULT
 10
80.38951697916016
 20
-134.6264305902881
 30
12.06085246893752
  0
VERTEX
  5
C1
  8
DEFAULT
 10
80.38951697916026
 20
-113.8874264539605
 30
12.06085246893752
 42
0.6441823787276988
  0
VERTEX
  5
C2
  8
DEFAULT
 10
78.73140968787278
 20
-113.1345022923384
 30
12.06085246893752
  0
VERTEX
  5
C3
  8
DEFAULT
 10
74.30620369665226
 20
-117.0024354477804
 30
12.06085246893752
 42
0.2164100685397749
  0
VERTEX
  5
C4
  8
DEFAULT
 10
73.96431098793973
 20
-117.7553596094025
 30
12.06085246893752
  0
VERTEX
  5
C5
  8
DEFAULT
 10
73.96431098793963
 20
-139.4568188772557
 30
12.06085246893752
 42
0.4142135623730996
  0
VERTEX
  5
C6
  8
DEFAULT
 10
77.57634651835967
 20
-143.0688544076757
 30
12.06085246893752
  0
VERTEX
  5
C7
  8
DEFAULT
 10
104.3703124177928
 20
-143.0688544076758
 30
12.06085246893752
 42
0.4142135623730904
  0
SEQEND
  5
C8
  8
DEFAULT
  0
CIRCLE
  5
C9
  8
DEFAULT
 10
77.92897944532062
 20
-179.6084998918067
 30
12.06085246893752
 40
1.499999999999972
  0
CIRCLE
  5
CA
  8
DEFAULT
 10
77.92897944532065
 20
-162.3584998918067
 30
12.06085246893752
 40
1.5
  0
POLYLINE
  5
CB
  8
DEFAULT
 66
     1
 10
0.0
 20
0.0
 30
12.06085246893752
 70
     1
  0
VERTEX
  5
CC
  8
DEFAULT
 10
80.8714032627083
 20
-151.7024984619537
 30
12.06085246893752
  0
VERTEX
  5
CD
  8
DEFAULT
 10
75.42897944532065
 20
-151.7024984619536
 30
12.06085246893752
 42
0.4142135623731126
  0
VERTEX
  5
CE
  8
DEFAULT
 10
74.42897944532065
 20
-152.7024984619537
 30
12.06085246893752
  0
VERTEX
  5
CF
  8
DEFAULT
 10
74.42897944532065
 20
-179.4964643613867
 30
12.06085246893752
 42
0.4142135623731044
  0
VERTEX
  5
D0
  8
DEFAULT
 10
78.04101497574068
 20
-183.1084998918068
 30
12.06085246893752
  0
VERTEX
  5
D1
  8
DEFAULT
 10
99.74247424359389
 20
-183.1084998918068
 30
12.06085246893752
 42
0.2164100685398109
  0
VERTEX
  5
D2
  8
DEFAULT
 10
100.495398405216
 20
-182.7666071830942
 30
12.06085246893752
  0
VERTEX
  5
D3
  8
DEFAULT
 10
104.3633315606579
 20
-178.3414011918738
 30
12.06085246893752
 42
0.6441823787277337
  0
VERTEX
  5
D4
  8
DEFAULT
 10
103.6104073990357
 20
-176.6832939005863
 30
12.06085246893752
  0
VERTEX
  5
D5
  8
DEFAULT
 10
82.8714032627084
 20
-176.6832939005862
 30
12.06085246893752
 42
-0.4142135623732121
  0
VERTEX
  5
D6
  8
DEFAULT
 10
81.87140326270816
 20
-175.6832939005861
 30
12.06085246893752
  0
VERTEX
  5
D7
  8
DEFAULT
 10
81.87140326270828
 20
-152.7024984619538
 30
12.06085246893752
 42
0.4142135623731215
  0
SEQEND
  5
D8
  8
DEFAULT
  0
CIRCLE
  5
D9
  8
DEFAULT
 10
-133.6196202081695
 20
-208.414727401673
 30
-0.003964652856058
 40
1.5
210
0.0
220
0.0
230
-1.0
  0
POLYLINE
  5
DA
  8
DEFAULT
 66
     1
 10
0.0
 20
0.0
 30
0.003964652856058
 70
     1
  0
VERTEX
  5
DB
  8
DEFAULT
 10
133.7316557385896
 20
-280.914727401673
 30
0.003964652856058
  0
VERTEX
  5
DC
  8
DEFAULT
 10
246.5075846777495
 20
-280.914727401673
 30
0.003964652856058
 42
0.4142135623730951
  0
VERTEX
  5
DD
  8
DEFAULT
 10
250.1196202081695
 20
-277.302691871253
 30
0.003964652856058
  0
VERTEX
  5
DE
  8
DEFAULT
 10
250.1196202081695
 20
-208.526762932093
 30
0.003964652856058
 42
0.4142135623730951
  0
VERTEX
  5
DF
  8
DEFAULT
 10
246.5075846777495
 20
-204.914727401673
 30
0.003964652856058
  0
VERTEX
  5
E0
  8
DEFAULT
 10
133.7316557385896
 20
-204.914727401673
 30
0.003964652856058
 42
0.4142135623730951
  0
VERTEX
  5
E1
  8
DEFAULT
 10
130.1196202081695
 20
-208.5267629320931
 30
0.003964652856058
  0
VERTEX
  5
E2
  8
DEFAULT
 10
130.1196202081695
 20
-277.302691871253
 30
0.003964652856058
 42
0.4142135623730951
  0
SEQEND
  5
E3
  8
DEFAULT
  0
CIRCLE
  5
E4
  8
DEFAULT
 10
133.6196202081695
 20
-277.414727401673
 30
0.003964652856058
 40
1.5
  0
CIRCLE
  5
E5
  8
DEFAULT
 10
-246.6196202081695
 20
-277.414727401673
 30
-0.003964652856058
 40
1.5
210
0.0
220
0.0
230
-1.0
  0
CIRCLE
  5
E6
  8
DEFAULT
 10
246.6196202081695
 20
-208.414727401673
 30
0.003964652856058
 40
1.5
  0
CIRCLE
  5
E7
  8
DEFAULT
 10
85.75455542341498
 20
-155.1361245719988
 30
-0.003964652856058
 40
1.5
210
0.0
220
0.0
230
-1.0
  0
POLYLINE
  5
E8
  8
DEFAULT
 66
     1
 10
0.0
 20
0.0
 30
0.003964652856058
 70
     1
  0
VERTEX
  5
E9
  8
DEFAULT
 10
-107.5680502216881
 20
-193.1361245719989
 30
0.003964652856058
  0
VERTEX
  5
EA
  8
DEFAULT
 10
-85.86659095383487
 20
-193.1361245719988
 30
0.003964652856058
 42
0.4142135623731069
  0
VERTEX
  5
EB
  8
DEFAULT
 10
-82.25455542341486
 20
-189.5240890415787
 30
0.003964652856058
  0
VERTEX
  5
EC
  8
DEFAULT
 10
-82.2545554234151
 20
-120.7481601024188
 30
0.003964652856058
 42
0.4142135623731052
  0
VERTEX
  5
ED
  8
DEFAULT
 10
-85.86659095383514
 20
-117.1361245719988
 30
0.003964652856058
  0
VERTEX
  5
EE
  8
DEFAULT
 10
-107.5680502216884
 20
-117.1361245719989
 30
0.003964652856058
 42
0.2164100685397562
  0
VERTEX
  5
EF
  8
DEFAULT
 10
-108.3209743833104
 20
-117.4780172807114
 30
0.003964652856058
  0
VERTEX
  5
F0
  8
DEFAULT
 10
-113.5728373866978
 20
-123.4865429438194
 30
0.003964652856058
 42
0.6441823787277251
  0
VERTEX
  5
F1
  8
DEFAULT
 10
-112.8199132250758
 20
-125.144650235107
 30
0.003964652856058
  0
VERTEX
  5
F2
  8
DEFAULT
 10
-93.96315111624804
 20
-125.1446502351069
 30
0.003964652856058
 42
-0.4142135623730784
  0
VERTEX
  5
F3
  8
DEFAULT
 10
-92.96315111624807
 20
-126.1446502351069
 30
0.003964652856058
  0
VERTEX
  5
F4
  8
DEFAULT
 10
-92.96315111624803
 20
-144.1275861301326
 30
0.003964652856058
 42
-0.4142135623729548
  0
VERTEX
  5
F5
  8
DEFAULT
 10
-93.96315111624759
 20
-145.1275861301326
 30
0.003964652856058
  0
VERTEX
  5
F6
  8
DEFAULT
 10
-103.0254142183905
 20
-145.1275861301369
 30
0.003964652856058
 42
0.414213562372907
  0
VERTEX
  5
F7
  8
DEFAULT
 10
-104.0254142183901
 20
-146.1275861301369
 30
0.003964652856058
  0
VERTEX
  5
F8
  8
DEFAULT
 10
-104.02541421839
 20
-152.6470808238883
 30
0.003964652856058
 42
-0.3062635879208739
  0
VERTEX
  5
F9
  8
DEFAULT
 10
-104.6526155292208
 20
-153.5749930704685
 30
0.003964652856058
 42
0.6759273984606776
  0
VERTEX
  5
FA
  8
DEFAULT
 10
-104.6526155292209
 20
-156.6972560735292
 30
0.003964652856058
 42
-0.3062635879208983
  0
VERTEX
  5
FB
  8
DEFAULT
 10
-104.02541421839
 20
-157.6251683201095
 30
0.003964652856058
  0
VERTEX
  5
FC
  8
DEFAULT
 10
-104.02541421839
 20
-164.1446630138608
 30
0.003964652856058
 42
0.4142135623730042
  0
VERTEX
  5
FD
  8
DEFAULT
 10
-103.0254142183905
 20
-165.1446630138608
 30
0.003964652856058
  0
VERTEX
  5
FE
  8
DEFAULT
 10
-93.96315111624753
 20
-165.1446630138651
 30
0.003964652856058
 42
-0.4142135623729855
  0
VERTEX
  5
FF
  8
DEFAULT
 10
-92.96315111624796
 20
-166.1446630138651
 30
0.003964652856058
  0
VERTEX
  5
100
  8
DEFAULT
 10
-92.96315111624786
 20
-184.1275989088908
 30
0.003964652856058
 42
-0.4142135623731166
  0
VERTEX
  5
101
  8
DEFAULT
 10
-93.96315111624781
 20
-185.1275989088908
 30
0.003964652856058
  0
VERTEX
  5
102
  8
DEFAULT
 10
-112.8199132250756
 20
-185.1275989088909
 30
0.003964652856058
 42
0.6441823787276649
  0
VERTEX
  5
103
  8
DEFAULT
 10
-113.5728373866977
 20
-186.7857062001784
 30
0.003964652856058
  0
VERTEX
  5
104
  8
DEFAULT
 10
-108.3209743833102
 20
-192.7942318632864
 30
0.003964652856058
 42
0.2164100685397448
  0
SEQEND
  5
105
  8
DEFAULT
  0
CIRCLE
  5
106
  8
DEFAULT
 10
-85.7545554234151
 20
-120.6361245719988
 30
0.003964652856058
 40
1.5
  0
CIRCLE
  5
107
  8
DEFAULT
 10
85.75455542341487
 20
-189.6361245719988
 30
-0.003964652856058
 40
1.5
210
0.0
220
0.0
230
-1.0
  0
CIRCLE
  5
108
  8
DEFAULT
 10
122.8860976553222
 20
-143.1361245719988
 30
-0.003964652856058
 40
1.5
210
0.0
220
0.0
230
-1.0
  0
POLYLINE
  5
109
  8
DEFAULT
 66
     1
 10
0.0
 20
0.0
 30
0.003964652856058
 70
     1
  0
VERTEX
  5
10A
  8
DEFAULT
 10
-101.0726028570489
 20
-105.1361245719988
 30
0.003964652856058
  0
VERTEX
  5
10B
  8
DEFAULT
 10
-122.7740621249021
 20
-105.1361245719988
 30
0.003964652856058
 42
0.4142135623731054
  0
VERTEX
  5
10C
  8
DEFAULT
 10
-126.3860976553222
 20
-108.7481601024188
 30
0.003964652856058
  0
VERTEX
  5
10D
  8
DEFAULT
 10
-126.3860976553222
 20
-177.5240890415787
 30
0.003964652856058
 42
0.4142135623731075
  0
VERTEX
  5
10E
  8
DEFAULT
 10
-122.7740621249021
 20
-181.1361245719988
 30
0.003964652856058
  0
VERTEX
  5
10F
  8
DEFAULT
 10
-101.0726028570489
 20
-181.1361245719988
 30
0.003964652856058
 42
0.2164100685397531
  0
VERTEX
  5
110
  8
DEFAULT
 10
-100.3196786954269
 20
-180.7942318632863
 30
0.003964652856058
  0
VERTEX
  5
111
  8
DEFAULT
 10
-95.06781569203943
 20
-174.7857062001783
 30
0.003964652856058
 42
0.6441823787277337
  0
VERTEX
  5
112
  8
DEFAULT
 10
-95.82073985366151
 20
-173.1275989088907
 30
0.003964652856058
  0
VERTEX
  5
113
  8
DEFAULT
 10
-114.6775019624892
 20
-173.1275989088907
 30
0.003964652856058
 42
-0.4142135623731154
  0
VERTEX
  5
114
  8
DEFAULT
 10
-115.6775019624892
 20
-172.1275989088908
 30
0.003964652856058
  0
VERTEX
  5
115
  8
DEFAULT
 10
-115.6775019624892
 20
-154.144663013865
 30
0.003964652856058
 42
-0.4142135623729715
  0
VERTEX
  5
116
  8
DEFAULT
 10
-114.6775019624896
 20
-153.1446630138651
 30
0.003964652856058
  0
VERTEX
  5
117
  8
DEFAULT
 10
-105.6152388603467
 20
-153.1446630138608
 30
0.003964652856058
 42
0.4142135623729674
  0
VERTEX
  5
118
  8
DEFAULT
 10
-104.6152388603472
 20
-152.1446630138607
 30
0.003964652856058
  0
VERTEX
  5
119
  8
DEFAULT
 10
-104.6152388603472
 20
-145.6251683201093
 30
0.003964652856058
 42
-0.3062635879208668
  0
VERTEX
  5
11A
  8
DEFAULT
 10
-103.9880375495163
 20
-144.6972560735291
 30
0.003964652856058
 42
0.6759273984606634
  0
VERTEX
  5
11B
  8
DEFAULT
 10
-103.9880375495163
 20
-141.5749930704684
 30
0.003964652856058
 42
-0.3062635879208438
  0
VERTEX
  5
11C
  8
DEFAULT
 10
-104.6152388603472
 20
-140.6470808238882
 30
0.003964652856058
  0
VERTEX
  5
11D
  8
DEFAULT
 10
-104.6152388603471
 20
-134.1275861301368
 30
0.003964652856058
 42
0.4142135623729057
  0
VERTEX
  5
11E
  8
DEFAULT
 10
-105.6152388603467
 20
-133.1275861301368
 30
0.003964652856058
  0
VERTEX
  5
11F
  8
DEFAULT
 10
-114.6775019624896
 20
-133.1275861301325
 30
0.003964652856058
 42
-0.4142135623729502
  0
VERTEX
  5
120
  8
DEFAULT
 10
-115.6775019624892
 20
-132.1275861301325
 30
0.003964652856058
  0
VERTEX
  5
121
  8
DEFAULT
 10
-115.6775019624892
 20
-114.1446502351068
 30
0.003964652856058
 42
-0.4142135623730925
  0
VERTEX
  5
122
  8
DEFAULT
 10
-114.6775019624892
 20
-113.1446502351068
 30
0.003964652856058
  0
VERTEX
  5
123
  8
DEFAULT
 10
-95.82073985366145
 20
-113.1446502351068
 30
0.003964652856058
 42
0.6441823787276879
  0
VERTEX
  5
124
  8
DEFAULT
 10
-95.06781569203939
 20
-111.4865429438193
 30
0.003964652856058
  0
VERTEX
  5
125
  8
DEFAULT
 10
-100.3196786954269
 20
-105.4780172807113
 30
0.003964652856058
 42
0.2164100685397473
  0
SEQEND
  5
126
  8
DEFAULT
  0
CIRCLE
  5
127
  8
DEFAULT
 10
-122.8860976553222
 20
-177.6361245719988
 30
0.003964652856058
 40
1.5
  0
CIRCLE
  5
128
  8
DEFAULT
 10
122.8860976553222
 20
-108.6361245719988
 30
-0.003964652856058
 40
1.5
210
0.0
220
0.0
230
-1.0
  0
CIRCLE
  5
129
  8
DEFAULT
 10
77.05407431963293
 20
-108.6361245719988
 30
-0.003964652856058
 40
1.5
210
0.0
220
0.0
230
-1.0
  0
CIRCLE
  5
12A
  8
DEFAULT
 10
-77.05407431963293
 20
-177.6361245719988
 30
0.003964652856058
 40
1.5
  0
POLYLINE
  5
12B
  8
DEFAULT
 66
     1
 10
0.0
 20
0.0
 30
0.003964652856058
 70
     1
  0
VERTEX
  5
12C
  8
DEFAULT
 10
-55.24057952135966
 20
-105.1361245719988
 30
0.003964652856058
  0
VERTEX
  5
12D
  8
DEFAULT
 10
-76.9420387892129
 20
-105.1361245719988
 30
0.003964652856058
 42
0.414213562373105
  0
VERTEX
  5
12E
  8
DEFAULT
 10
-80.55407431963295
 20
-108.7481601024188
 30
0.003964652856058
  0
VERTEX
  5
12F
  8
DEFAULT
 10
-80.55407431963293
 20
-177.5240890415787
 30
0.003964652856058
 42
0.4142135623730996
  0
VERTEX
  5
130
  8
DEFAULT
 10
-76.9420387892129
 20
-181.1361245719988
 30
0.003964652856058
  0
VERTEX
  5
131
  8
DEFAULT
 10
-55.24057952135969
 20
-181.1361245719988
 30
0.003964652856058
 42
0.2164100685397495
  0
VERTEX
  5
132
  8
DEFAULT
 10
-54.48765535973764
 20
-180.7942318632863
 30
0.003964652856058
  0
VERTEX
  5
133
  8
DEFAULT
 10
-49.23579235635019
 20
-174.7857062001783
 30
0.003964652856058
 42
0.6441823787277143
  0
VERTEX
  5
134
  8
DEFAULT
 10
-49.98871651797225
 20
-173.1275989088907
 30
0.003964652856058
  0
VERTEX
  5
135
  8
DEFAULT
 10
-68.84547862679999
 20
-173.1275989088907
 30
0.003964652856058
 42
-0.4142135623731035
  0
VERTEX
  5
136
  8
DEFAULT
 10
-69.84547862679997
 20
-172.1275989088908
 30
0.003964652856058
  0
VERTEX
  5
137
  8
DEFAULT
 10
-69.84547862679993
 20
-154.144663013865
 30
0.003964652856058
 42
-0.4142135623729695
  0
VERTEX
  5
138
  8
DEFAULT
 10
-68.84547862680036
 20
-153.1446630138651
 30
0.003964652856058
  0
VERTEX
  5
139
  8
DEFAULT
 10
-59.78321552465742
 20
-153.1446630138608
 30
0.003964652856058
 42
0.4142135623729628
  0
VERTEX
  5
13A
  8
DEFAULT
 10
-58.7832155246579
 20
-152.1446630138607
 30
0.003964652856058
  0
VERTEX
  5
13B
  8
DEFAULT
 10
-58.78321552465793
 20
-145.6251683201093
 30
0.003964652856058
 42
-0.3062635879208576
  0
VERTEX
  5
13C
  8
DEFAULT
 10
-58.15601421382707
 20
-144.6972560735291
 30
0.003964652856058
 42
0.6759273984606704
  0
VERTEX
  5
13D
  8
DEFAULT
 10
-58.15601421382708
 20
-141.5749930704684
 30
0.003964652856058
 42
-0.3062635879208487
  0
VERTEX
  5
13E
  8
DEFAULT
 10
-58.78321552465792
 20
-140.6470808238882
 30
0.003964652856058
  0
VERTEX
  5
13F
  8
DEFAULT
 10
-58.7832155246579
 20
-134.1275861301368
 30
0.003964652856058
 42
0.4142135623729125
  0
VERTEX
  5
140
  8
DEFAULT
 10
-59.78321552465742
 20
-133.1275861301368
 30
0.003964652856058
  0
VERTEX
  5
141
  8
DEFAULT
 10
-68.84547862680036
 20
-133.1275861301325
 30
0.003964652856058
 42
-0.4142135623729525
  0
VERTEX
  5
142
  8
DEFAULT
 10
-69.84547862679993
 20
-132.1275861301325
 30
0.003964652856058
  0
VERTEX
  5
143
  8
DEFAULT
 10
-69.84547862679996
 20
-114.1446502351068
 30
0.003964652856058
 42
-0.4142135623730784
  0
VERTEX
  5
144
  8
DEFAULT
 10
-68.84547862679999
 20
-113.1446502351068
 30
0.003964652856058
  0
VERTEX
  5
145
  8
DEFAULT
 10
-49.98871651797221
 20
-113.1446502351068
 30
0.003964652856058
 42
0.6441823787276879
  0
VERTEX
  5
146
  8
DEFAULT
 10
-49.23579235635015
 20
-111.4865429438193
 30
0.003964652856058
  0
VERTEX
  5
147
  8
DEFAULT
 10
-54.48765535973762
 20
-105.4780172807113
 30
0.003964652856058
 42
0.2164100685397473
  0
SEQEND
  5
148
  8
DEFAULT
  0
CIRCLE
  5
149
  8
DEFAULT
 10
77.05407431963293
 20
-143.1361245719988
 30
-0.003964652856058
 40
1.5
210
0.0
220
0.0
230
-1.0
  0
CIRCLE
  5
14A
  8
DEFAULT
 10
39.92253208772561
 20
-189.6361245719988
 30
-0.003964652856058
 40
1.5
210
0.0
220
0.0
230
-1.0
  0
CIRCLE
  5
14B
  8
DEFAULT
 10
-39.92253208772586
 20
-120.6361245719988
 30
0.003964652856058
 40
1.5
  0
POLYLINE
  5
14C
  8
DEFAULT
 66
     1
 10
0.0
 20
0.0
 30
0.003964652856058
 70
     1
  0
VERTEX
  5
14D
  8
DEFAULT
 10
-61.73602688599887
 20
-193.1361245719989
 30
0.003964652856058
  0
VERTEX
  5
14E
  8
DEFAULT
 10
-40.03456761814563
 20
-193.1361245719988
 30
0.003964652856058
 42
0.4142135623731013
  0
VERTEX
  5
14F
  8
DEFAULT
 10
-36.4225320877256
 20
-189.5240890415788
 30
0.003964652856058
  0
VERTEX
  5
150
  8
DEFAULT
 10
-36.42253208772586
 20
-120.7481601024188
 30
0.003964652856058
 42
0.414213562373103
  0
VERTEX
  5
151
  8
DEFAULT
 10
-40.03456761814589
 20
-117.1361245719988
 30
0.003964652856058
  0
VERTEX
  5
152
  8
DEFAULT
 10
-61.73602688599911
 20
-117.1361245719989
 30
0.003964652856058
 42
0.2164100685397558
  0
VERTEX
  5
153
  8
DEFAULT
 10
-62.48895104762116
 20
-117.4780172807114
 30
0.003964652856058
  0
VERTEX
  5
154
  8
DEFAULT
 10
-67.74081405100858
 20
-123.4865429438194
 30
0.003964652856058
 42
0.6441823787277251
  0
VERTEX
  5
155
  8
DEFAULT
 10
-66.98788988938651
 20
-125.144650235107
 30
0.003964652856058
  0
VERTEX
  5
156
  8
DEFAULT
 10
-48.13112778055878
 20
-125.1446502351069
 30
0.003964652856058
 42
-0.4142135623730797
  0
VERTEX
  5
157
  8
DEFAULT
 10
-47.13112778055881
 20
-126.1446502351069
 30
0.003964652856058
  0
VERTEX
  5
158
  8
DEFAULT
 10
-47.13112778055878
 20
-144.1275861301326
 30
0.003964652856058
 42
-0.4142135623729621
  0
VERTEX
  5
159
  8
DEFAULT
 10
-48.13112778055834
 20
-145.1275861301326
 30
0.003964652856058
  0
VERTEX
  5
15A
  8
DEFAULT
 10
-57.19339088270128
 20
-145.1275861301369
 30
0.003964652856058
 42
0.4142135623729283
  0
VERTEX
  5
15B
  8
DEFAULT
 10
-58.19339088270081
 20
-146.1275861301369
 30
0.003964652856058
  0
VERTEX
  5
15C
  8
DEFAULT
 10
-58.19339088270074
 20
-152.6470808238883
 30
0.003964652856058
 42
-0.306263587920862
  0
VERTEX
  5
15D
  8
DEFAULT
 10
-58.82059219353162
 20
-153.5749930704685
 30
0.003964652856058
 42
0.6759273984606496
  0
VERTEX
  5
15E
  8
DEFAULT
 10
-58.82059219353159
 20
-156.6972560735293
 30
0.003964652856058
 42
-0.3062635879208717
  0
VERTEX
  5
15F
  8
DEFAULT
 10
-58.19339088270069
 20
-157.6251683201095
 30
0.003964652856058
  0
VERTEX
  5
160
  8
DEFAULT
 10
-58.19339088270073
 20
-164.1446630138608
 30
0.003964652856058
 42
0.4142135623730062
  0
VERTEX
  5
161
  8
DEFAULT
 10
-57.19339088270121
 20
-165.1446630138609
 30
0.003964652856058
  0
VERTEX
  5
162
  8
DEFAULT
 10
-48.13112778055827
 20
-165.1446630138651
 30
0.003964652856058
 42
-0.4142135623729655
  0
VERTEX
  5
163
  8
DEFAULT
 10
-47.1311277805587
 20
-166.1446630138651
 30
0.003964652856058
  0
VERTEX
  5
164
  8
DEFAULT
 10
-47.13112778055861
 20
-184.1275989088908
 30
0.003964652856058
 42
-0.4142135623731362
  0
VERTEX
  5
165
  8
DEFAULT
 10
-48.13112778055857
 20
-185.1275989088908
 30
0.003964652856058
  0
VERTEX
  5
166
  8
DEFAULT
 10
-66.98788988938635
 20
-185.1275989088909
 30
0.003964652856058
 42
0.6441823787276649
  0
VERTEX
  5
167
  8
DEFAULT
 10
-67.74081405100841
 20
-186.7857062001784
 30
0.003964652856058
  0
VERTEX
  5
168
  8
DEFAULT
 10
-62.48895104762093
 20
-192.7942318632864
 30
0.003964652856058
 42
0.2164100685397427
  0
SEQEND
  5
169
  8
DEFAULT
  0
CIRCLE
  5
16A
  8
DEFAULT
 10
39.92253208772573
 20
-155.1361245719988
 30
-0.003964652856058
 40
1.5
210
0.0
220
0.0
230
-1.0
  0
CIRCLE
  5
16B
  8
DEFAULT
 10
-5.751162440076603
 20
-155.1361245719988
 30
-0.003964652856058
 40
1.5
210
0.0
220
0.0
230
-1.0
  0
POLYLINE
  5
16C
  8
DEFAULT
 66
     1
 10
0.0
 20
0.0
 30
0.003964652856058
 70
     1
  0
VERTEX
  5
16D
  8
DEFAULT
 10
-16.06233235819653
 20
-193.1361245719989
 30
0.003964652856058
  0
VERTEX
  5
16E
  8
DEFAULT
 10
5.639126909656707
 20
-193.1361245719988
 30
0.003964652856058
 42
0.4142135623731039
  0
VERTEX
  5
16F
  8
DEFAULT
 10
9.251162440076712
 20
-189.5240890415788
 30
0.003964652856058
  0
VERTEX
  5
170
  8
DEFAULT
 10
9.251162440076481
 20
-120.7481601024188
 30
0.003964652856058
 42
0.4142135623731013
  0
VERTEX
  5
171
  8
DEFAULT
 10
5.639126909656444
 20
-117.1361245719988
 30
0.003964652856058
  0
VERTEX
  5
172
  8
DEFAULT
 10
-16.06233235819677
 20
-117.1361245719989
 30
0.003964652856058
 42
0.2164100685397558
  0
VERTEX
  5
173
  8
DEFAULT
 10
-16.81525651981882
 20
-117.4780172807114
 30
0.003964652856058
  0
VERTEX
  5
174
  8
DEFAULT
 10
-22.06711952320625
 20
-123.4865429438194
 30
0.003964652856058
 42
0.6441823787277228
  0
VERTEX
  5
175
  8
DEFAULT
 10
-21.31419536158418
 20
-125.144650235107
 30
0.003964652856058
  0
VERTEX
  5
176
  8
DEFAULT
 10
-2.457433252756444
 20
-125.1446502351069
 30
0.003964652856058
 42
-0.4142135623730819
  0
VERTEX
  5
177
  8
DEFAULT
 10
-1.457433252756459
 20
-126.1446502351069
 30
0.003964652856058
  0
VERTEX
  5
178
  8
DEFAULT
 10
-1.457433252756435
 20
-144.1275861301326
 30
0.003964652856058
 42
-0.414213562372948
  0
VERTEX
  5
179
  8
DEFAULT
 10
-2.457433252756005
 20
-145.1275861301326
 30
0.003964652856058
  0
VERTEX
  5
17A
  8
DEFAULT
 10
-11.51969635489894
 20
-145.1275861301369
 30
0.003964652856058
 42
0.4142135623729242
  0
VERTEX
  5
17B
  8
DEFAULT
 10
-12.51969635489846
 20
-146.1275861301369
 30
0.003964652856058
  0
VERTEX
  5
17C
  8
DEFAULT
 10
-12.5196963548984
 20
-152.6470808238883
 30
0.003964652856058
 42
-0.306263587920828
  0
VERTEX
  5
17D
  8
DEFAULT
 10
-13.14689766572925
 20
-153.5749930704685
 30
0.003964652856058
 42
0.675927398460656
  0
VERTEX
  5
17E
  8
DEFAULT
 10
-13.14689766572924
 20
-156.6972560735292
 30
0.003964652856058
 42
-0.3062635879208464
  0
VERTEX
  5
17F
  8
DEFAULT
 10
-12.51969635489838
 20
-157.6251683201095
 30
0.003964652856058
  0
VERTEX
  5
180
  8
DEFAULT
 10
-12.51969635489839
 20
-164.1446630138608
 30
0.003964652856058
 42
0.414213562372995
  0
VERTEX
  5
181
  8
DEFAULT
 10
-11.51969635489887
 20
-165.1446630138609
 30
0.003964652856058
  0
VERTEX
  5
182
  8
DEFAULT
 10
-2.457433252755934
 20
-165.1446630138651
 30
0.003964652856058
 42
-0.4142135623729657
  0
VERTEX
  5
183
  8
DEFAULT
 10
-1.457433252756361
 20
-166.1446630138651
 30
0.003964652856058
  0
VERTEX
  5
184
  8
DEFAULT
 10
-1.457433252756265
 20
-184.1275989088908
 30
0.003964652856058
 42
-0.4142135623731276
  0
VERTEX
  5
185
  8
DEFAULT
 10
-2.457433252756235
 20
-185.1275989088908
 30
0.003964652856058
  0
VERTEX
  5
186
  8
DEFAULT
 10
-21.31419536158402
 20
-185.1275989088909
 30
0.003964652856058
 42
0.6441823787276914
  0
VERTEX
  5
187
  8
DEFAULT
 10
-22.06711952320606
 20
-186.7857062001784
 30
0.003964652856058
  0
VERTEX
  5
188
  8
DEFAULT
 10
-16.81525651981858
 20
-192.7942318632864
 30
0.003964652856058
 42
0.2164100685397418
  0
SEQEND
  5
189
  8
DEFAULT
  0
CIRCLE
  5
18A
  8
DEFAULT
 10
5.751162440076482
 20
-120.6361245719988
 30
0.003964652856058
 40
1.5
  0
CIRCLE
  5
18B
  8
DEFAULT
 10
-5.751162440076723
 20
-189.6361245719988
 30
-0.003964652856058
 40
1.5
210
0.0
220
0.0
230
-1.0
  0
CIRCLE
  5
18C
  8
DEFAULT
 10
31.38037979183059
 20
-143.1361245719988
 30
-0.003964652856058
 40
1.5
210
0.0
220
0.0
230
-1.0
  0
POLYLINE
  5
18D
  8
DEFAULT
 66
     1
 10
0.0
 20
0.0
 30
0.003964652856058
 70
     1
  0
VERTEX
  5
18E
  8
DEFAULT
 10
-9.566884993557323
 20
-105.1361245719988
 30
0.003964652856058
  0
VERTEX
  5
18F
  8
DEFAULT
 10
-31.26834426141056
 20
-105.1361245719988
 30
0.003964652856058
 42
0.4142135623731073
  0
VERTEX
  5
190
  8
DEFAULT
 10
-34.88037979183061
 20
-108.7481601024188
 30
0.003964652856058
  0
VERTEX
  5
191
  8
DEFAULT
 10
-34.88037979183059
 20
-177.5240890415787
 30
0.003964652856058
 42
0.414213562373098
  0
VERTEX
  5
192
  8
DEFAULT
 10
-31.26834426141056
 20
-181.1361245719988
 30
0.003964652856058
  0
VERTEX
  5
193
  8
DEFAULT
 10
-9.566884993557352
 20
-181.1361245719988
 30
0.003964652856058
 42
0.2164100685397536
  0
VERTEX
  5
194
  8
DEFAULT
 10
-8.813960831935297
 20
-180.7942318632863
 30
0.003964652856058
  0
VERTEX
  5
195
  8
DEFAULT
 10
-3.562097828547813
 20
-174.7857062001783
 30
0.003964652856058
 42
0.6441823787277098
  0
VERTEX
  5
196
  8
DEFAULT
 10
-4.315021990169912
 20
-173.1275989088907
 30
0.003964652856058
  0
VERTEX
  5
197
  8
DEFAULT
 10
-23.17178409899765
 20
-173.1275989088907
 30
0.003964652856058
 42
-0.4142135623730993
  0
VERTEX
  5
198
  8
DEFAULT
 10
-24.17178409899763
 20
-172.1275989088908
 30
0.003964652856058
  0
VERTEX
  5
199
  8
DEFAULT
 10
-24.17178409899759
 20
-154.144663013865
 30
0.003964652856058
 42
-0.4142135623729692
  0
VERTEX
  5
19A
  8
DEFAULT
 10
-23.17178409899802
 20
-153.144663013865
 30
0.003964652856058
  0
VERTEX
  5
19B
  8
DEFAULT
 10
-14.10952099685508
 20
-153.1446630138608
 30
0.003964652856058
 42
0.4142135623729677
  0
VERTEX
  5
19C
  8
DEFAULT
 10
-13.1095209968556
 20
-152.1446630138607
 30
0.003964652856058
  0
VERTEX
  5
19D
  8
DEFAULT
 10
-13.10952099685559
 20
-145.6251683201093
 30
0.003964652856058
 42
-0.3062635879208701
  0
VERTEX
  5
19E
  8
DEFAULT
 10
-12.48231968602473
 20
-144.6972560735291
 30
0.003964652856058
 42
0.6759273984606864
  0
VERTEX
  5
19F
  8
DEFAULT
 10
-12.48231968602473
 20
-141.5749930704684
 30
0.003964652856058
 42
-0.3062635879208247
  0
VERTEX
  5
1A0
  8
DEFAULT
 10
-13.10952099685562
 20
-140.6470808238882
 30
0.003964652856058
  0
VERTEX
  5
1A1
  8
DEFAULT
 10
-13.10952099685557
 20
-134.1275861301368
 30
0.003964652856058
 42
0.414213562372936
  0
VERTEX
  5
1A2
  8
DEFAULT
 10
-14.10952099685508
 20
-133.1275861301368
 30
0.003964652856058
  0
VERTEX
  5
1A3
  8
DEFAULT
 10
-23.17178409899802
 20
-133.1275861301325
 30
0.003964652856058
 42
-0.4142135623729542
  0
VERTEX
  5
1A4
  8
DEFAULT
 10
-24.17178409899759
 20
-132.1275861301325
 30
0.003964652856058
  0
VERTEX
  5
1A5
  8
DEFAULT
 10
-24.17178409899762
 20
-114.1446502351068
 30
0.003964652856058
 42
-0.4142135623730917
  0
VERTEX
  5
1A6
  8
DEFAULT
 10
-23.17178409899765
 20
-113.1446502351068
 30
0.003964652856058
  0
VERTEX
  5
1A7
  8
DEFAULT
 10
-4.315021990169868
 20
-113.1446502351068
 30
0.003964652856058
 42
0.6441823787276852
  0
VERTEX
  5
1A8
  8
DEFAULT
 10
-3.56209782854781
 20
-111.4865429438193
 30
0.003964652856058
  0
VERTEX
  5
1A9
  8
DEFAULT
 10
-8.813960831935278
 20
-105.4780172807113
 30
0.003964652856058
 42
0.216410068539751
  0
SEQEND
  5
1AA
  8
DEFAULT
  0
CIRCLE
  5
1AB
  8
DEFAULT
 10
-31.38037979183059
 20
-177.6361245719988
 30
0.003964652856058
 40
1.5
  0
CIRCLE
  5
1AC
  8
DEFAULT
 10
31.38037979183059
 20
-108.6361245719988
 30
-0.003964652856058
 40
1.5
210
0.0
220
0.0
230
-1.0
  0
POLYLINE
  5
1AD
  8
DEFAULT
 66
     1
 10
0.0
 20
0.0
 30
12.06085246893752
 70
     1
  0
VERTEX
  5
1AE
  8
DEFAULT
 10
91.9506560623207
 20
-145.4674749153653
 30
12.06085246893752
  0
VERTEX
  5
1AF
  8
DEFAULT
 10
91.95065606232112
 20
-150.4784375566197
 30
12.06085246893752
 42
-0.3062635879208304
  0
VERTEX
  5
1B0
  8
DEFAULT
 10
91.32345475149026
 20
-151.4063498031999
 30
12.06085246893752
 42
0.6759273984606977
  0
VERTEX
  5
1B1
  8
DEFAULT
 10
91.32345475149027
 20
-154.5286128062606
 30
12.06085246893752
 42
-0.3062635879207913
  0
VERTEX
  5
1B2
  8
DEFAULT
 10
91.95065606232114
 20
-155.4565250528408
 30
12.06085246893752
  0
VERTEX
  5
1B3
  8
DEFAULT
 10
91.95065606232109
 20
-160.4674876941586
 30
12.06085246893752
 42
0.4142135623563457
  0
VERTEX
  5
1B4
  8
DEFAULT
 10
92.95065606232099
 20
-161.4674876941015
 30
12.06085246893752
  0
VERTEX
  5
1B5
  8
DEFAULT
 10
105.2790910399088
 20
-161.4674876941097
 30
12.06085246893752
 42
-0.4142135623729667
  0
VERTEX
  5
1B6
  8
DEFAULT
 10
106.2790910399084
 20
-162.4674876941097
 30
12.06085246893752
  0
VERTEX
  5
1B7
  8
DEFAULT
 10
106.2790910399083
 20
-183.5422753135097
 30
12.06085246893752
 42
-0.4142135623731024
  0
VERTEX
  5
1B8
  8
DEFAULT
 10
105.2790910399084
 20
-184.5422753135097
 30
12.06085246893752
  0
VERTEX
  5
1B9
  8
DEFAULT
 10
84.54008690358081
 20
-184.5422753135097
 30
12.06085246893752
 42
0.6441823787276996
  0
VERTEX
  5
1BA
  8
DEFAULT
 10
83.78716274195878
 20
-186.2003826047972
 30
12.06085246893752
  0
VERTEX
  5
1BB
  8
DEFAULT
 10
87.65509589740077
 20
-190.6255885960177
 30
12.06085246893752
 42
0.2164100685397549
  0
VERTEX
  5
1BC
  8
DEFAULT
 10
88.4080200590228
 20
-190.9674813047302
 30
12.06085246893752
  0
VERTEX
  5
1BD
  8
DEFAULT
 10
110.1094793268761
 20
-190.9674813047303
 30
12.06085246893752
 42
0.4142135623731033
  0
VERTEX
  5
1BE
  8
DEFAULT
 10
113.7215148572961
 20
-187.3554457743103
 30
12.06085246893752
  0
VERTEX
  5
1BF
  8
DEFAULT
 10
113.7215148572961
 20
-118.5795168351503
 30
12.06085246893752
 42
0.414213562373105
  0
VERTEX
  5
1C0
  8
DEFAULT
 10
110.1094793268761
 20
-114.9674813047303
 30
12.06085246893752
  0
VERTEX
  5
1C1
  8
DEFAULT
 10
88.40802005902292
 20
-114.9674813047303
 30
12.06085246893752
 42
0.2164100685396542
  0
VERTEX
  5
1C2
  8
DEFAULT
 10
87.65509589740086
 20
-115.3093740134428
 30
12.06085246893752
  0
VERTEX
  5
1C3
  8
DEFAULT
 10
83.78716274195892
 20
-119.7345800046632
 30
12.06085246893752
 42
0.6441823787277147
  0
VERTEX
  5
1C4
  8
DEFAULT
 10
84.54008690358111
 20
-121.3926872959507
 30
12.06085246893752
  0
VERTEX
  5
1C5
  8
DEFAULT
 10
105.2790910399084
 20
-121.3926872959508
 30
12.06085246893752
 42
-0.4142135623732111
  0
VERTEX
  5
1C6
  8
DEFAULT
 10
106.2790910399086
 20
-122.392687295951
 30
12.06085246893752
  0
VERTEX
  5
1C7
  8
DEFAULT
 10
106.2790910399084
 20
-143.4674749153514
 30
12.06085246893752
 42
-0.4142135623729887
  0
VERTEX
  5
1C8
  8
DEFAULT
 10
105.2790910399087
 20
-144.4674749153514
 30
12.06085246893752
  0
VERTEX
  5
1C9
  8
DEFAULT
 10
92.95065606232019
 20
-144.4674749153579
 30
12.06085246893752
 42
0.4142135623751251
  0
SEQEND
  5
1CA
  8
DEFAULT
  0
CIRCLE
  5
1CB
  8
DEFAULT
 10
-110.2215148572961
 20
-187.4674813047303
 30
-12.06085246893752
 40
1.499999999999986
210
0.0
220
0.0
230
-1.0
  0
CIRCLE
  5
1CC
  8
DEFAULT
 10
110.2215148572961
 20
-118.4674813047303
 30
12.06085246893752
 40
1.5
  0
CIRCLE
  5
1CD
  8
DEFAULT
 10
-110.2215148572961
 20
-152.9674813047303
 30
-12.06085246893752
 40
1.499999999999986
210
0.0
220
0.0
230
-1.0
  0
CIRCLE
  5
1CE
  8
JOYSTICK_HULL
 10
-189.8325026284924
 20
-274.2184799604053
 30
-0.003964652856058
 40
1.500000000000028
210
0.0
220
0.0
230
-1.0
  0
CIRCLE
  5
1CF
  8
JOYSTICK_HULL
 10
189.8325026284924
 20
-211.6109748429408
 30
0.003964652856058
 40
1.500000000000028
  0
CIRCLE
  5
1D0
  8
JOYSTICK_HULL
 10
-242.6362551872246
 20
-242.914727401673
 30
-0.003964652856058
 40
1.499999999999972
210
0.0
220
0.0
230
-1.0
  0
CIRCLE
  5
1D1
  8
JOYSTICK_HULL
 10
137.0287500697603
 20
-242.914727401673
 30
0.003964652856058
 40
1.500000000000028
  0
ENDSEC
  0
EOF
