M48
METRIC,LZ,000.000
;FILE_FORMAT=3:3
;TYPE=PLATED
;Layer: PTH_Through
;EasyEDA v6.5.42, 2024-03-11 14:09:06
;b8cecfdee2c84d74be12d37f40f4119a,807727dff0ce494184415f470db24245,10
;Gerber Generator version 0.2
;Holesize 1 = 0.762 mm
T01C0.762
;Holesize 2 = 0.813 mm
T02C0.813
;Holesize 3 = 1.200 mm
T03C1.200
%
G05
G90
T01
X040894Y017399
X040894Y019939
X040894Y022479
X040894Y014859
X040894Y012319
X040894Y009779
X040894Y007239
X040894Y004699
X028194Y004699
X028194Y007239
X028194Y009779
X028194Y012319
X028194Y014859
X028194Y017399
X028194Y019939
X028194Y022479
T02
X013459Y072898G85X013465Y072898
X013459Y070358G85X013465Y070358
X013459Y067818G85X013465Y067818
X013459Y065278G85X013465Y065278
X013459Y062738G85X013465Y062738
X013459Y060198G85X013465Y060198
X013459Y057658G85X013465Y057658
X013459Y055118G85X013465Y055118
X013459Y052578G85X013465Y052578
X013459Y050038G85X013465Y050038
X013459Y047498G85X013465Y047498
X013459Y044958G85X013465Y044958
X013459Y042418G85X013465Y042418
X013459Y039878G85X013465Y039878
X013459Y037338G85X013465Y037338
X038859Y037338G85X038865Y037338
X038859Y039878G85X038865Y039878
X038859Y042418G85X038865Y042418
X038859Y044958G85X038865Y044958
X038859Y047498G85X038865Y047498
X038859Y050038G85X038865Y050038
X038859Y052578G85X038865Y052578
X038859Y055118G85X038865Y055118
X038859Y057658G85X038865Y057658
X038859Y060198G85X038865Y060198
X038859Y062738G85X038865Y062738
X038859Y065278G85X038865Y065278
X038859Y067818G85X038865Y067818
X038859Y070358G85X038865Y070358
X038859Y072898G85X038865Y072898
T03
X013716Y023114
X013716Y020574
X013335Y015494
X013335Y012954
X012446Y004699
X014986Y004699
M30
