G04 Layer: BottomSolderMaskLayer*
G04 EasyEDA v6.5.42, 2024-03-11 14:09:06*
G04 b8cecfdee2c84d74be12d37f40f4119a,807727dff0ce494184415f470db24245,10*
G04 Gerber Generator version 0.2*
G04 Scale: 100 percent, Rotated: No, Reflected: No *
G04 Dimensions in millimeters *
G04 leading zeros omitted , absolute positions ,4 integer and 5 decimal *
%FSLAX45Y45*%
%MOMM*%

%AMMACRO1*1,1,$1,$2,$3*1,1,$1,$4,$5*1,1,$1,0-$2,0-$3*1,1,$1,0-$4,0-$5*20,1,$1,$2,$3,$4,$5,0*20,1,$1,$4,$5,0-$2,0-$3,0*20,1,$1,0-$2,0-$3,0-$4,0-$5,0*20,1,$1,0-$4,0-$5,$2,$3,0*4,1,4,$2,$3,$4,$5,0-$2,0-$3,0-$4,0-$5,$2,$3,0*%
%ADD10C,1.7780*%
%ADD11MACRO1,0.1016X-0.8382X0.8382X0.8382X0.8382*%
%ADD12C,1.9016*%
%ADD13C,1.6256*%

%LPD*%
D10*
G01*
X1346200Y7289800D03*
G01*
X1346200Y7035800D03*
G01*
X1346200Y6781800D03*
G01*
X1346200Y6527800D03*
G01*
X1346200Y6273800D03*
G01*
X1346200Y6019800D03*
G01*
X1346200Y5765800D03*
G01*
X1346200Y5511800D03*
G01*
X1346200Y5257800D03*
G01*
X1346200Y5003800D03*
G01*
X1346200Y4749800D03*
G01*
X1346200Y4495800D03*
G01*
X1346200Y4241800D03*
G01*
X1346200Y3987800D03*
G01*
X1346200Y3733800D03*
G01*
X3886200Y3733800D03*
G01*
X3886200Y3987800D03*
G01*
X3886200Y4241800D03*
G01*
X3886200Y4495800D03*
G01*
X3886200Y4749800D03*
G01*
X3886200Y5003800D03*
G01*
X3886200Y5257800D03*
G01*
X3886200Y5511800D03*
G01*
X3886200Y5765800D03*
G01*
X3886200Y6019800D03*
G01*
X3886200Y6273800D03*
G01*
X3886200Y6527800D03*
G01*
X3886200Y6781800D03*
G01*
X3886200Y7035800D03*
D11*
G01*
X3886200Y7289800D03*
D12*
G01*
X1371600Y2311400D03*
G01*
X1371600Y2057400D03*
G01*
X1333500Y1549400D03*
G01*
X1333500Y1295400D03*
G01*
X1244600Y469900D03*
G01*
X1498600Y469900D03*
D13*
G01*
X4089400Y1739900D03*
G01*
X4089400Y1993900D03*
G01*
X4089400Y2247900D03*
G01*
X4089400Y1485900D03*
G01*
X4089400Y1231900D03*
G01*
X4089400Y977900D03*
G01*
X4089400Y723900D03*
G01*
X4089400Y469900D03*
G01*
X2819400Y469900D03*
G01*
X2819400Y723900D03*
G01*
X2819400Y977900D03*
G01*
X2819400Y1231900D03*
G01*
X2819400Y1485900D03*
G01*
X2819400Y1739900D03*
G01*
X2819400Y1993900D03*
G01*
X2819400Y2247900D03*
M02*
