G04 Layer: BoardOutlineLayer*
G04 EasyEDA v6.5.42, 2024-03-11 14:09:06*
G04 b8cecfdee2c84d74be12d37f40f4119a,807727dff0ce494184415f470db24245,10*
G04 Gerber Generator version 0.2*
G04 Scale: 100 percent, Rotated: No, Reflected: No *
G04 Dimensions in millimeters *
G04 leading zeros omitted , absolute positions ,4 integer and 5 decimal *
%FSLAX45Y45*%
%MOMM*%

%ADD10C,0.2540*%
%ADD11C,0.1270*%
D10*
X166626Y8741661D02*
G01*
X5105400Y8741661D01*
X5105400Y41653D01*
X166626Y41653D01*
X166626Y8741661D01*
D11*
X2768600Y1231900D02*
G01*
X2870200Y1231900D01*
X2819400Y1181100D02*
G01*
X2819400Y1282700D01*
X2768600Y723900D02*
G01*
X2870200Y723900D01*
X2819400Y673100D02*
G01*
X2819400Y774700D01*
X4038600Y723900D02*
G01*
X4140200Y723900D01*
X4089400Y673100D02*
G01*
X4089400Y774700D01*
X4038600Y469900D02*
G01*
X4140200Y469900D01*
X4089400Y419100D02*
G01*
X4089400Y520700D01*
X4038600Y977900D02*
G01*
X4140200Y977900D01*
X4089400Y927100D02*
G01*
X4089400Y1028700D01*
X4038600Y1231900D02*
G01*
X4140200Y1231900D01*
X4089400Y1181100D02*
G01*
X4089400Y1282700D01*
X4038600Y1485900D02*
G01*
X4140200Y1485900D01*
X4089400Y1435100D02*
G01*
X4089400Y1536700D01*
X2768600Y1485900D02*
G01*
X2870200Y1485900D01*
X2819400Y1435100D02*
G01*
X2819400Y1536700D01*
X2768600Y977900D02*
G01*
X2870200Y977900D01*
X2819400Y927100D02*
G01*
X2819400Y1028700D01*
X2768600Y469900D02*
G01*
X2870200Y469900D01*
X2819400Y419100D02*
G01*
X2819400Y520700D01*
X2768600Y1739900D02*
G01*
X2870200Y1739900D01*
X2819400Y1689100D02*
G01*
X2819400Y1790700D01*
X2768600Y1993900D02*
G01*
X2870200Y1993900D01*
X2819400Y1943100D02*
G01*
X2819400Y2044700D01*
X2768600Y2247900D02*
G01*
X2870200Y2247900D01*
X2819400Y2197100D02*
G01*
X2819400Y2298700D01*

%LPD*%
M02*
