  0
SECTION
  2
HEADER
  9
$ACADVER
  1
AC1009
  9
$DWGCODEPAGE
  3
ansi_1252
  9
$INSBASE
 10
0.0
 20
0.0
 30
0.0
  9
$EXTMIN
 10
593.9999999999999
 20
1435.0
 30
0.0
  9
$EXTMAX
 10
884.1458019834496
 20
1719.70958041319
 30
0.0
  9
$LIMMIN
 10
0.0
 20
0.0
  9
$LIMMAX
 10
12.0
 20
9.0
  9
$ORTHOMODE
 70
     0
  9
$REGENMODE
 70
     1
  9
$FILLMODE
 70
     1
  9
$QTEXTMODE
 70
     0
  9
$MIRRTEXT
 70
     1
  9
$DRAGMODE
 70
     2
  9
$LTSCALE
 40
1.0
  9
$OSMODE
 70
    37
  9
$ATTMODE
 70
     1
  9
$TEXTSIZE
 40
0.2
  9
$TRACEWID
 40
0.05
  9
$TEXTSTYLE
  7
STANDARD
  9
$CLAYER
  8
DEFAULT
  9
$CELTYPE
  6
BYLAYER
  9
$CECOLOR
 62
   256
  9
$DIMSCALE
 40
1.0
  9
$DIMASZ
 40
0.18
  9
$DIMEXO
 40
0.0625
  9
$DIMDLI
 40
0.38
  9
$DIMRND
 40
0.0
  9
$DIMDLE
 40
0.0
  9
$DIMEXE
 40
0.18
  9
$DIMTP
 40
0.0
  9
$DIMTM
 40
0.0
  9
$DIMTXT
 40
0.18
  9
$DIMCEN
 40
0.09
  9
$DIMTSZ
 40
0.0
  9
$DIMTOL
 70
     0
  9
$DIMLIM
 70
     0
  9
$DIMTIH
 70
     1
  9
$DIMTOH
 70
     1
  9
$DIMSE1
 70
     0
  9
$DIMSE2
 70
     0
  9
$DIMTAD
 70
     0
  9
$DIMZIN
 70
     0
  9
$DIMBLK
  1

  9
$DIMASO
 70
     1
  9
$DIMSHO
 70
     1
  9
$DIMPOST
  1

  9
$DIMAPOST
  1

  9
$DIMALT
 70
     0
  9
$DIMALTD
 70
     2
  9
$DIMALTF
 40
25.4
  9
$DIMLFAC
 40
1.0
  9
$DIMTOFL
 70
     0
  9
$DIMTVP
 40
0.0
  9
$DIMTIX
 70
     0
  9
$DIMSOXD
 70
     0
  9
$DIMSAH
 70
     0
  9
$DIMBLK1
  1

  9
$DIMBLK2
  1

  9
$DIMSTYLE
  2
STANDARD_ACAD
  9
$DIMCLRD
 70
     0
  9
$DIMCLRE
 70
     0
  9
$DIMCLRT
 70
     0
  9
$DIMTFAC
 40
1.0
  9
$DIMGAP
 40
0.09
  9
$LUNITS
 70
     2
  9
$LUPREC
 70
     3
  9
$SKETCHINC
 40
0.1
  9
$FILLETRAD
 40
0.0
  9
$AUNITS
 70
     0
  9
$AUPREC
 70
     0
  9
$MENU
  1
.
  9
$ELEVATION
 40
0.0
  9
$PELEVATION
 40
0.0
  9
$THICKNESS
 40
0.0
  9
$LIMCHECK
 70
     0
  9
$CHAMFERA
 40
0.0
  9
$CHAMFERB
 40
0.0
  9
$SKPOLY
 70
     0
  9
$TDCREATE
 40
2460665.612946586
  9
$TDUPDATE
 40
2460665.612973796
  9
$TDINDWG
 40
0.0000000116
  9
$TDUSRTIMER
 40
0.0000000116
  9
$USRTIMER
 70
     1
  9
$ANGBASE
 50
0.0
  9
$ANGDIR
 70
     0
  9
$PDMODE
 70
     0
  9
$PDSIZE
 40
0.0
  9
$PLINEWID
 40
0.0
  9
$COORDS
 70
     1
  9
$SPLFRAME
 70
     0
  9
$SPLINETYPE
 70
     6
  9
$SPLINESEGS
 70
     8
  9
$ATTDIA
 70
     0
  9
$ATTREQ
 70
     1
  9
$HANDLING
 70
     1
  9
$HANDSEED
  5
109
  9
$SURFTAB1
 70
     6
  9
$SURFTAB2
 70
     6
  9
$SURFTYPE
 70
     6
  9
$SURFU
 70
     6
  9
$SURFV
 70
     6
  9
$UCSNAME
  2

  9
$UCSORG
 10
0.0
 20
0.0
 30
0.0
  9
$UCSXDIR
 10
1.0
 20
0.0
 30
0.0
  9
$UCSYDIR
 10
0.0
 20
1.0
 30
0.0
  9
$PUCSNAME
  2

  9
$PUCSORG
 10
0.0
 20
0.0
 30
0.0
  9
$PUCSXDIR
 10
1.0
 20
0.0
 30
0.0
  9
$PUCSYDIR
 10
0.0
 20
1.0
 30
0.0
  9
$USERI1
 70
     0
  9
$USERI2
 70
     0
  9
$USERI3
 70
     0
  9
$USERI4
 70
     0
  9
$USERI5
 70
     0
  9
$USERR1
 40
0.0
  9
$USERR2
 40
0.0
  9
$USERR3
 40
0.0
  9
$USERR4
 40
0.0
  9
$USERR5
 40
0.0
  9
$WORLDVIEW
 70
     1
  9
$SHADEDGE
 70
     3
  9
$SHADEDIF
 70
    70
  9
$TILEMODE
 70
     1
  9
$MAXACTVP
 70
    64
  9
$PLIMCHECK
 70
     0
  9
$PEXTMIN
 10
1.000000000000000E+20
 20
1.000000000000000E+20
 30
1.000000000000000E+20
  9
$PEXTMAX
 10
-1.000000000000000E+20
 20
-1.000000000000000E+20
 30
-1.000000000000000E+20
  9
$PLIMMIN
 10
0.0
 20
0.0
  9
$PLIMMAX
 10
12.0
 20
9.0
  9
$UNITMODE
 70
     0
  9
$VISRETAIN
 70
     1
  9
$PLINEGEN
 70
     0
  9
$PSLTSCALE
 70
     1
  0
ENDSEC
  0
SECTION
  2
TABLES
  0
TABLE
  2
VPORT
 70
     1
  0
VPORT
  2
*ACTIVE
 70
     0
 10
0.0
 20
0.0
 11
1.0
 21
1.0
 12
10.42990654205607
 22
4.5
 13
0.0
 23
0.0
 14
0.5
 24
0.5
 15
0.5
 25
0.5
 16
0.0
 26
0.0
 36
1.0
 17
0.0
 27
0.0
 37
0.0
 40
9.0
 41
1.972972972850329
 42
50.0
 43
0.0
 44
0.0
 50
0.0
 51
0.0
 71
     0
 72
   100
 73
     1
 74
     3
 75
     0
 76
     0
 77
     0
 78
     0
  0
ENDTAB
  0
TABLE
  2
LTYPE
 70
     1
  0
LTYPE
  2
CONTINUOUS
 70
     0
  3
Solid line
 72
    65
 73
     0
 40
0.0
  0
ENDTAB
  0
TABLE
  2
LAYER
 70
     3
  0
LAYER
  2
0
 70
     0
 62
     7
  6
CONTINUOUS
  0
LAYER
  2
DEFAULT
 70
     0
 62
     7
  6
CONTINUOUS
  0
LAYER
  2
LAYER_01
 70
     0
 62
   160
  6
CONTINUOUS
  0
ENDTAB
  0
TABLE
  2
STYLE
 70
     1
  0
STYLE
  2
STANDARD
 70
     0
 40
0.0
 41
1.0
 50
0.0
 71
     0
 42
0.2
  3
txt
  4

  0
ENDTAB
  0
TABLE
  2
VIEW
 70
     0
  0
ENDTAB
  0
TABLE
  2
UCS
 70
     0
  0
ENDTAB
  0
TABLE
  2
APPID
 70
     2
  0
APPID
  2
ACAD
 70
     0
  0
APPID
  2
RHINO
 70
     0
  0
ENDTAB
  0
TABLE
  2
DIMSTYLE
 70
     1
  0
DIMSTYLE
  2
STANDARD_ACAD
 70
     0
  3

  4

  5

  6

  7

 40
1.0
 41
0.18
 42
0.0625
 43
0.38
 44
0.18
 45
0.0
 46
0.0
 47
0.0
 48
0.0
140
0.18
141
0.09
142
0.0
143
25.4
144
1.0
145
0.0
146
1.0
147
0.09
 71
     0
 72
     0
 73
     1
 74
     1
 75
     0
 76
     0
 77
     0
 78
     0
170
     0
171
     2
172
     0
173
     0
174
     0
175
     0
176
     0
177
     0
178
     0
  0
ENDTAB
  0
ENDSEC
  0
SECTION
  2
BLOCKS
  0
BLOCK
  8
0
  2
$MODEL_SPACE
 70
     0
 10
0.0
 20
0.0
 30
0.0
  3
$MODEL_SPACE
  1

  0
ENDBLK
  5
21
  8
0
  0
BLOCK
 67
     1
  8
0
  2
$PAPER_SPACE
 70
     0
 10
0.0
 20
0.0
 30
0.0
  3
$PAPER_SPACE
  1

  0
ENDBLK
  5
1D
 67
     1
  8
0
  0
ENDSEC
  0
SECTION
  2
ENTITIES
  0
LINE
  5
60
  8
DEFAULT
 62
     5
 10
686.9142135623731
 20
1599.0
 30
0.0
 11
791.2315884210763
 21
1599.0
 31
0.0
  0
POLYLINE
  5
61
  8
DEFAULT
 62
     1
 66
     1
 10
0.0
 20
0.0
 30
0.0
 70
     1
  0
VERTEX
  5
62
  8
DEFAULT
 62
     1
 10
798.1458019834495
 20
1503.875
 30
0.0
 42
-0.9999999999999999
  0
VERTEX
  5
63
  8
DEFAULT
 62
     1
 10
793.1458019834495
 20
1503.875
 30
0.0
  0
VERTEX
  5
64
  8
DEFAULT
 62
     1
 10
793.1458019834496
 20
1528.375
 30
0.0
 42
-0.9999999999999772
  0
VERTEX
  5
65
  8
DEFAULT
 62
     1
 10
798.1458019834494
 20
1528.375
 30
0.0
  0
SEQEND
  5
66
  8
DEFAULT
 62
     1
  0
POLYLINE
  5
67
  8
DEFAULT
 62
     1
 66
     1
 10
0.0
 20
0.0
 30
0.0
 70
     1
  0
VERTEX
  5
68
  8
DEFAULT
 62
     1
 10
680.0
 20
1503.875
 30
0.0
 42
0.9999999999999999
  0
VERTEX
  5
69
  8
DEFAULT
 62
     1
 10
685.0
 20
1503.875
 30
0.0
  0
VERTEX
  5
6A
  8
DEFAULT
 62
     1
 10
684.9999999999999
 20
1528.375
 30
0.0
 42
1.000000000000023
  0
VERTEX
  5
6B
  8
DEFAULT
 62
     1
 10
679.9999999999997
 20
1528.375
 30
0.0
  0
SEQEND
  5
6C
  8
DEFAULT
 62
     1
  0
POLYLINE
  5
6D
  8
DEFAULT
 62
     1
 66
     1
 10
0.0
 20
0.0
 30
0.0
  0
VERTEX
  5
6E
  8
DEFAULT
 62
     1
 10
648.9132119041406
 20
1475.0
 30
0.0
 42
0.4142135623730431
  0
VERTEX
  5
6F
  8
DEFAULT
 62
     1
 10
646.9132119041407
 20
1473.0
 30
0.0
  0
VERTEX
  5
70
  8
DEFAULT
 62
     1
 10
646.9132119041406
 20
1437.0
 30
0.0
 42
0.4142135623730853
  0
VERTEX
  5
71
  8
DEFAULT
 62
     1
 10
648.9132119041406
 20
1435.0
 30
0.0
  0
VERTEX
  5
72
  8
DEFAULT
 62
     1
 10
739.0729009917247
 20
1435.0
 30
0.0
  0
SEQEND
  5
73
  8
DEFAULT
 62
     1
  0
POLYLINE
  5
74
  8
DEFAULT
 62
     1
 66
     1
 10
0.0
 20
0.0
 30
0.0
  0
VERTEX
  5
75
  8
DEFAULT
 62
     1
 10
796.1458019834495
 20
1558.0
 30
0.0
  0
VERTEX
  5
76
  8
DEFAULT
 62
     1
 10
829.1458019834494
 20
1558.0
 30
0.0
 42
0.4142135623728099
  0
VERTEX
  5
77
  8
DEFAULT
 62
     1
 10
831.1458019834497
 20
1560.0
 30
0.0
  0
VERTEX
  5
78
  8
DEFAULT
 62
     1
 10
831.1458019834495
 20
1594.0
 30
0.0
 42
0.4142135623731125
  0
VERTEX
  5
79
  8
DEFAULT
 62
     1
 10
829.1458019834497
 20
1596.0
 30
0.0
  0
VERTEX
  5
7A
  8
DEFAULT
 62
     1
 10
796.1458019834495
 20
1598.0
 30
0.0
  0
VERTEX
  5
7B
  8
DEFAULT
 62
     1
 10
792.6458019834495
 20
1598.0
 30
0.0
 42
-0.4142135623729423
  0
VERTEX
  5
7C
  8
DEFAULT
 62
     1
 10
791.1458019834496
 20
1599.5
 30
0.0
  0
VERTEX
  5
7D
  8
DEFAULT
 62
     1
 10
791.1458019834495
 20
1599.8
 30
0.0
 42
-0.3507810593582441
  0
VERTEX
  5
7E
  8
DEFAULT
 62
     1
 10
792.3165336907665
 20
1601.263414634146
 30
0.0
  0
VERTEX
  5
7F
  8
DEFAULT
 62
     1
 10
819.4384849102792
 20
1607.365853658536
 30
0.0
 42
0.350781059358235
  0
VERTEX
  5
80
  8
DEFAULT
 62
     1
 10
831.1458019834492
 20
1622.0
 30
0.0
  0
VERTEX
  5
81
  8
DEFAULT
 62
     1
 10
831.1458019834495
 20
1629.753572157732
 30
0.0
  0
SEQEND
  5
82
  8
DEFAULT
 62
     1
  0
POLYLINE
  5
83
  8
DEFAULT
 62
     1
 66
     1
 10
0.0
 20
0.0
 30
0.0
  0
VERTEX
  5
84
  8
DEFAULT
 62
     1
 10
682.0
 20
1558.0
 30
0.0
  0
VERTEX
  5
85
  8
DEFAULT
 62
     1
 10
649.0000000000001
 20
1558.0
 30
0.0
 42
-0.4142135623729196
  0
VERTEX
  5
86
  8
DEFAULT
 62
     1
 10
647.0
 20
1560.0
 30
0.0
  0
VERTEX
  5
87
  8
DEFAULT
 62
     1
 10
647.0
 20
1593.0
 30
0.0
 42
-0.4142135623731125
  0
VERTEX
  5
88
  8
DEFAULT
 62
     1
 10
648.9999999999998
 20
1595.0
 30
0.0
  0
VERTEX
  5
89
  8
DEFAULT
 62
     1
 10
682.0
 20
1598.0
 30
0.0
  0
VERTEX
  5
8A
  8
DEFAULT
 62
     1
 10
685.5
 20
1598.0
 30
0.0
 42
0.4142135623728611
  0
VERTEX
  5
8B
  8
DEFAULT
 62
     1
 10
687.0
 20
1599.5
 30
0.0
  0
VERTEX
  5
8C
  8
DEFAULT
 62
     1
 10
687.0
 20
1599.8
 30
0.0
 42
0.3507810593579582
  0
VERTEX
  5
8D
  8
DEFAULT
 62
     1
 10
685.829268292683
 20
1601.263414634146
 30
0.0
  0
VERTEX
  5
8E
  8
DEFAULT
 62
     1
 10
658.7073170731703
 20
1607.365853658536
 30
0.0
 42
-0.3507810593582334
  0
VERTEX
  5
8F
  8
DEFAULT
 62
     1
 10
647.0000000000003
 20
1622.0
 30
0.0
  0
VERTEX
  5
90
  8
DEFAULT
 62
     1
 10
647.0
 20
1629.753572157732
 30
0.0
  0
SEQEND
  5
91
  8
DEFAULT
 62
     1
  0
POLYLINE
  5
92
  8
DEFAULT
 62
     1
 66
     1
 10
0.0
 20
0.0
 30
0.0
  0
VERTEX
  5
93
  8
DEFAULT
 62
     1
 10
831.1458019834495
 20
1629.753572157732
 30
0.0
  0
VERTEX
  5
94
  8
DEFAULT
 62
     1
 10
831.1458019834495
 20
1649.507144315464
 30
0.0
 42
0.2634471391022771
  0
VERTEX
  5
95
  8
DEFAULT
 62
     1
 10
823.8632383148625
 20
1662.369538201152
 30
0.0
  0
VERTEX
  5
96
  8
DEFAULT
 62
     1
 10
791.8740583503081
 20
1681.563046179885
 30
0.0
 42
-0.2634471391022871
  0
VERTEX
  5
97
  8
DEFAULT
 62
     1
 10
791.1458019834495
 20
1682.849285568453
 30
0.0
  0
VERTEX
  5
98
  8
DEFAULT
 62
     1
 10
791.1458019834495
 20
1683.5
 30
0.0
 42
-0.4142135623732098
  0
VERTEX
  5
99
  8
DEFAULT
 62
     1
 10
792.6458019834495
 20
1685.0
 30
0.0
  0
VERTEX
  5
9A
  8
DEFAULT
 62
     1
 10
821.1458019834496
 20
1685.0
 30
0.0
 42
0.4142135623731264
  0
VERTEX
  5
9B
  8
DEFAULT
 62
     1
 10
831.1458019834494
 20
1695.0
 30
0.0
  0
VERTEX
  5
9C
  8
DEFAULT
 62
     1
 10
831.1458019834495
 20
1698.115618833385
 30
0.0
 42
0.3000210814303576
  0
VERTEX
  5
9D
  8
DEFAULT
 62
     1
 10
825.084994969241
 20
1707.307069133566
 30
0.0
  0
VERTEX
  5
9E
  8
DEFAULT
 62
     1
 10
798.0324179496937
 20
1718.901030713371
 30
0.0
 42
0.1015700823221081
  0
VERTEX
  5
9F
  8
DEFAULT
 62
     1
 10
794.0932249639031
 20
1719.70958041319
 30
0.0
  0
VERTEX
  5
A0
  8
DEFAULT
 62
     1
 10
739.0729009917247
 20
1719.70958041319
 30
0.0
  0
SEQEND
  5
A1
  8
DEFAULT
 62
     1
  0
LINE
  5
A3
  8
LAYER_01
 10
791.1458019834495
 20
1682.0
 30
0.0
 11
791.1458019834495
 21
1629.753572157732
 31
0.0
  0
LINE
  5
A4
  8
LAYER_01
 10
687.0
 20
1682.0
 30
0.0
 11
687.0
 21
1629.753572157732
 31
0.0
  0
POLYLINE
  5
A5
  8
DEFAULT
 62
     1
 66
     1
 10
0.0
 20
0.0
 30
0.0
  0
VERTEX
  5
A6
  8
DEFAULT
 62
     1
 10
647.0
 20
1629.753572157732
 30
0.0
  0
VERTEX
  5
A7
  8
DEFAULT
 62
     1
 10
647.0
 20
1649.507144315464
 30
0.0
 42
-0.2634471391023007
  0
VERTEX
  5
A8
  8
DEFAULT
 62
     1
 10
654.2825636685869
 20
1662.369538201152
 30
0.0
  0
VERTEX
  5
A9
  8
DEFAULT
 62
     1
 10
686.2717436331413
 20
1681.563046179885
 30
0.0
 42
0.2634471391023455
  0
VERTEX
  5
AA
  8
DEFAULT
 62
     1
 10
686.9999999999999
 20
1682.849285568453
 30
0.0
  0
VERTEX
  5
AB
  8
DEFAULT
 62
     1
 10
687.0
 20
1683.5
 30
0.0
 42
0.4142135623731135
  0
VERTEX
  5
AC
  8
DEFAULT
 62
     1
 10
685.5
 20
1685.0
 30
0.0
  0
VERTEX
  5
AD
  8
DEFAULT
 62
     1
 10
656.9999999999999
 20
1685.0
 30
0.0
 42
-0.414213562373074
  0
VERTEX
  5
AE
  8
DEFAULT
 62
     1
 10
646.9999999999998
 20
1695.0
 30
0.0
  0
VERTEX
  5
AF
  8
DEFAULT
 62
     1
 10
647.0
 20
1698.115618833385
 30
0.0
 42
-0.3000210814303766
  0
VERTEX
  5
B0
  8
DEFAULT
 62
     1
 10
653.0608070142085
 20
1707.307069133566
 30
0.0
  0
VERTEX
  5
B1
  8
DEFAULT
 62
     1
 10
680.1133840337558
 20
1718.901030713371
 30
0.0
 42
-0.1015700823221228
  0
VERTEX
  5
B2
  8
DEFAULT
 62
     1
 10
684.0525770195463
 20
1719.70958041319
 30
0.0
  0
VERTEX
  5
B3
  8
DEFAULT
 62
     1
 10
739.0729009917247
 20
1719.70958041319
 30
0.0
  0
SEQEND
  5
B4
  8
DEFAULT
 62
     1
  0
LINE
  5
B5
  8
LAYER_01
 10
682.0
 20
1719.497079667467
 30
0.0
 11
682.0
 21
1685.0
 31
0.0
  0
LINE
  5
B6
  8
LAYER_01
 10
796.1458019834495
 20
1719.497079667467
 30
0.0
 11
796.1458019834495
 21
1685.0
 31
0.0
  0
LINE
  5
B7
  8
LAYER_01
 10
791.1458019834495
 20
1629.753572157732
 30
0.0
 11
791.1458019834495
 21
1600.0
 31
0.0
  0
LINE
  5
B8
  8
LAYER_01
 10
687.0
 20
1629.753572157732
 30
0.0
 11
687.0
 21
1600.0
 31
0.0
  0
POLYLINE
  5
B9
  8
DEFAULT
 62
     1
 66
     1
 10
0.0
 20
0.0
 30
0.0
  0
VERTEX
  5
BA
  8
DEFAULT
 62
     1
 10
841.1458019834492
 20
1556.0
 30
0.0
  0
VERTEX
  5
BB
  8
DEFAULT
 62
     1
 10
879.1458019834496
 20
1556.0
 30
0.0
 42
-0.4142135623732802
  0
VERTEX
  5
BC
  8
DEFAULT
 62
     1
 10
881.1458019834494
 20
1554.0
 30
0.0
  0
VERTEX
  5
BD
  8
DEFAULT
 62
     1
 10
881.1458019834496
 20
1530.5
 30
0.0
  0
VERTEX
  5
BE
  8
DEFAULT
 62
     1
 10
884.1458019834496
 20
1530.0
 30
0.0
  0
VERTEX
  5
BF
  8
DEFAULT
 62
     1
 10
884.1458019834496
 20
1512.5
 30
0.0
  0
SEQEND
  5
C0
  8
DEFAULT
 62
     1
  0
LINE
  5
C1
  8
LAYER_01
 10
841.1458019834497
 20
1555.999999999999
 30
0.0
 11
841.1458019834492
 21
1512.5
 31
0.0
  0
LINE
  5
C2
  8
LAYER_01
 10
836.1458019834496
 20
1558.0
 30
0.0
 11
836.1458019834495
 21
1512.5
 31
0.0
  0
LINE
  5
C3
  8
LAYER_01
 10
798.1458019834495
 20
1558.0
 30
0.0
 11
798.1458019834495
 21
1512.5
 31
0.0
  0
LINE
  5
C4
  8
LAYER_01
 10
680.0
 20
1558.0
 30
0.0
 11
680.0
 21
1512.5
 31
0.0
  0
LINE
  5
C5
  8
LAYER_01
 10
641.9999999999999
 20
1558.0
 30
0.0
 11
642.0
 21
1512.5
 31
0.0
  0
LINE
  5
C6
  8
LAYER_01
 10
636.9999999999998
 20
1555.999999999999
 30
0.0
 11
637.0000000000002
 21
1512.5
 31
0.0
  0
LINE
  5
C7
  8
LAYER_01
 10
596.9999999999999
 20
1512.5
 30
0.0
 11
596.9999999999999
 21
1530.5
 31
0.0
  0
POLYLINE
  5
C8
  8
DEFAULT
 62
     1
 66
     1
 10
0.0
 20
0.0
 30
0.0
  0
VERTEX
  5
C9
  8
DEFAULT
 62
     1
 10
637.0000000000002
 20
1556.0
 30
0.0
  0
VERTEX
  5
CA
  8
DEFAULT
 62
     1
 10
598.9999999999999
 20
1556.0
 30
0.0
 42
0.4142135623731
  0
VERTEX
  5
CB
  8
DEFAULT
 62
     1
 10
596.9999999999999
 20
1554.0
 30
0.0
  0
VERTEX
  5
CC
  8
DEFAULT
 62
     1
 10
596.9999999999999
 20
1530.5
 30
0.0
  0
VERTEX
  5
CD
  8
DEFAULT
 62
     1
 10
593.9999999999999
 20
1530.0
 30
0.0
  0
VERTEX
  5
CE
  8
DEFAULT
 62
     1
 10
593.9999999999999
 20
1512.5
 30
0.0
  0
SEQEND
  5
CF
  8
DEFAULT
 62
     1
  0
LINE
  5
D0
  8
LAYER_01
 10
881.1458019834496
 20
1502.5
 30
0.0
 11
881.1458019834496
 21
1530.5
 31
0.0
  0
LINE
  5
D1
  8
DEFAULT
 62
     1
 10
637.0000000000006
 20
1477.0
 30
0.0
 11
642.0000000000006
 21
1475.0
 31
0.0
  0
LINE
  5
D2
  8
DEFAULT
 62
     1
 10
642.0000000000001
 20
1475.0
 30
0.0
 11
679.9814297134672
 21
1475.0
 31
0.0
  0
LINE
  5
D3
  8
DEFAULT
 62
     1
 10
841.1458019834489
 20
1477.0
 30
0.0
 11
836.1458019834489
 21
1475.0
 31
0.0
  0
LINE
  5
D4
  8
DEFAULT
 62
     1
 10
836.1458019834494
 20
1475.0
 30
0.0
 11
798.1643722699823
 21
1475.0
 31
0.0
  0
POLYLINE
  5
D5
  8
DEFAULT
 62
     1
 66
     1
 10
0.0
 20
0.0
 30
0.0
  0
VERTEX
  5
D6
  8
DEFAULT
 62
     1
 10
829.2325900793089
 20
1475.0
 30
0.0
 42
-0.4142135623730431
  0
VERTEX
  5
D7
  8
DEFAULT
 62
     1
 10
831.2325900793088
 20
1473.0
 30
0.0
  0
VERTEX
  5
D8
  8
DEFAULT
 62
     1
 10
831.2325900793089
 20
1437.0
 30
0.0
 42
-0.4142135623730853
  0
VERTEX
  5
D9
  8
DEFAULT
 62
     1
 10
829.2325900793089
 20
1435.0
 30
0.0
  0
VERTEX
  5
DA
  8
DEFAULT
 62
     1
 10
739.0729009917247
 20
1435.0
 30
0.0
  0
SEQEND
  5
DB
  8
DEFAULT
 62
     1
  0
POLYLINE
  5
DC
  8
LAYER_01
 66
     1
 10
0.0
 20
0.0
 30
0.0
  0
VERTEX
  5
DD
  8
LAYER_01
 10
679.9814297134672
 20
1475.0
 30
0.0
  0
VERTEX
  5
DE
  8
LAYER_01
 10
684.1458019834496
 20
1478.0
 30
0.0
  0
VERTEX
  5
DF
  8
LAYER_01
 10
793.9999999999999
 20
1478.0
 30
0.0
  0
VERTEX
  5
E0
  8
LAYER_01
 10
798.1643722699823
 20
1475.0
 30
0.0
  0
SEQEND
  5
E1
  8
LAYER_01
  0
LINE
  5
E2
  8
LAYER_01
 10
684.0
 20
1435.0
 30
0.0
 11
684.0
 21
1477.8949647337
 31
0.0
  0
LINE
  5
E3
  8
LAYER_01
 10
793.9999999999999
 20
1435.1050352663
 30
0.0
 11
793.9999999999999
 21
1478.0
 31
0.0
  0
LINE
  5
E4
  8
LAYER_01
 10
596.9999999999999
 20
1502.5
 30
0.0
 11
596.9999999999999
 21
1512.5
 31
0.0
  0
POLYLINE
  5
E5
  8
DEFAULT
 62
     1
 66
     1
 10
0.0
 20
0.0
 30
0.0
  0
VERTEX
  5
E6
  8
DEFAULT
 62
     1
 10
593.9999999999999
 20
1512.5
 30
0.0
  0
VERTEX
  5
E7
  8
DEFAULT
 62
     1
 10
593.9999999999999
 20
1503.0
 30
0.0
  0
VERTEX
  5
E8
  8
DEFAULT
 62
     1
 10
596.9999999999999
 20
1502.5
 30
0.0
  0
VERTEX
  5
E9
  8
DEFAULT
 62
     1
 10
596.9999999999999
 20
1479.0
 30
0.0
 42
0.4142135623730402
  0
VERTEX
  5
EA
  8
DEFAULT
 62
     1
 10
599.0
 20
1477.0
 30
0.0
  0
VERTEX
  5
EB
  8
DEFAULT
 62
     1
 10
637.0000000000002
 20
1477.0
 30
0.0
  0
SEQEND
  5
EC
  8
DEFAULT
 62
     1
  0
LINE
  5
ED
  8
LAYER_01
 10
637.0000000000002
 20
1512.5
 30
0.0
 11
637.0000000000006
 21
1477.0
 31
0.0
  0
LINE
  5
EE
  8
LAYER_01
 10
642.0
 20
1512.5
 30
0.0
 11
642.0000000000001
 21
1475.0
 31
0.0
  0
LINE
  5
EF
  8
LAYER_01
 10
841.1458019834492
 20
1512.5
 30
0.0
 11
841.1458019834489
 21
1477.0
 31
0.0
  0
LINE
  5
F0
  8
LAYER_01
 10
836.1458019834495
 20
1512.5
 30
0.0
 11
836.1458019834494
 21
1475.0
 31
0.0
  0
POLYLINE
  5
F1
  8
DEFAULT
 62
     1
 66
     1
 10
0.0
 20
0.0
 30
0.0
  0
VERTEX
  5
F2
  8
DEFAULT
 62
     1
 10
884.1458019834496
 20
1512.5
 30
0.0
  0
VERTEX
  5
F3
  8
DEFAULT
 62
     1
 10
884.1458019834496
 20
1503.0
 30
0.0
  0
VERTEX
  5
F4
  8
DEFAULT
 62
     1
 10
881.1458019834496
 20
1502.5
 30
0.0
  0
VERTEX
  5
F5
  8
DEFAULT
 62
     1
 10
881.1458019834496
 20
1479.0
 30
0.0
 42
-0.4142135623730402
  0
VERTEX
  5
F6
  8
DEFAULT
 62
     1
 10
879.1458019834495
 20
1477.0
 30
0.0
  0
VERTEX
  5
F7
  8
DEFAULT
 62
     1
 10
841.1458019834492
 20
1477.0
 30
0.0
  0
SEQEND
  5
F8
  8
DEFAULT
 62
     1
  0
LINE
  5
F9
  8
LAYER_01
 10
680.0
 20
1512.5
 30
0.0
 11
680.0
 21
1475.0
 31
0.0
  0
LINE
  5
FA
  8
LAYER_01
 10
798.1458019834495
 20
1512.5
 30
0.0
 11
798.1458019834495
 21
1475.0
 31
0.0
  0
LINE
  5
FB
  8
LAYER_01
 10
796.1458019834495
 20
1558.0
 30
0.0
 11
682.0
 21
1558.0
 31
0.0
  0
LINE
  5
FC
  8
DEFAULT
 62
     1
 10
836.1458019834496
 20
1558.0
 30
0.0
 11
829.1458019834494
 21
1558.0
 31
0.0
  0
LINE
  5
FD
  8
DEFAULT
 62
     1
 10
836.1458019834497
 20
1558.0
 30
0.0
 11
841.1458019834497
 21
1555.999999999999
 31
0.0
  0
LINE
  5
FE
  8
LAYER_01
 10
796.1458019834495
 20
1558.0
 30
0.0
 11
796.1458019834495
 21
1598.0
 31
0.0
  0
LINE
  5
FF
  8
DEFAULT
 62
     1
 10
641.9999999999999
 20
1558.0
 30
0.0
 11
649.0000000000001
 21
1558.0
 31
0.0
  0
LINE
  5
100
  8
DEFAULT
 62
     1
 10
641.9999999999998
 20
1558.0
 30
0.0
 11
636.9999999999998
 21
1555.999999999999
 31
0.0
  0
LINE
  5
101
  8
LAYER_01
 10
682.0
 20
1558.0
 30
0.0
 11
682.0
 21
1598.0
 31
0.0
  0
ENDSEC
  0
EOF
