  0
SECTION
  2
HEADER
  9
$ACADVER
  1
AC1009
  9
$DWGCODEPAGE
  3
ansi_1252
  9
$INSBASE
 10
0.0
 20
0.0
 30
0.0
  9
$EXTMIN
 10
-61.71093036258215
 20
-47.50000000000026
 30
0.0
  9
$EXTMAX
 10
23.14197052538008
 20
50.21473189106964
 30
0.0
  9
$LIMMIN
 10
0.0
 20
0.0
  9
$LIMMAX
 10
12.0
 20
9.0
  9
$ORTHOMODE
 70
     0
  9
$REGENMODE
 70
     1
  9
$FILLMODE
 70
     1
  9
$QTEXTMODE
 70
     0
  9
$MIRRTEXT
 70
     1
  9
$DRAGMODE
 70
     2
  9
$LTSCALE
 40
1.0
  9
$OSMODE
 70
    37
  9
$ATTMODE
 70
     1
  9
$TEXTSIZE
 40
0.2
  9
$TRACEWID
 40
0.05
  9
$TEXTSTYLE
  7
STANDARD
  9
$CLAYER
  8
DEFAULT
  9
$CELTYPE
  6
BYLAYER
  9
$CECOLOR
 62
   256
  9
$DIMSCALE
 40
1.0
  9
$DIMASZ
 40
0.18
  9
$DIMEXO
 40
0.0625
  9
$DIMDLI
 40
0.38
  9
$DIMRND
 40
0.0
  9
$DIMDLE
 40
0.0
  9
$DIMEXE
 40
0.18
  9
$DIMTP
 40
0.0
  9
$DIMTM
 40
0.0
  9
$DIMTXT
 40
0.18
  9
$DIMCEN
 40
0.09
  9
$DIMTSZ
 40
0.0
  9
$DIMTOL
 70
     0
  9
$DIMLIM
 70
     0
  9
$DIMTIH
 70
     1
  9
$DIMTOH
 70
     1
  9
$DIMSE1
 70
     0
  9
$DIMSE2
 70
     0
  9
$DIMTAD
 70
     0
  9
$DIMZIN
 70
     0
  9
$DIMBLK
  1

  9
$DIMASO
 70
     1
  9
$DIMSHO
 70
     1
  9
$DIMPOST
  1

  9
$DIMAPOST
  1

  9
$DIMALT
 70
     0
  9
$DIMALTD
 70
     2
  9
$DIMALTF
 40
25.4
  9
$DIMLFAC
 40
1.0
  9
$DIMTOFL
 70
     0
  9
$DIMTVP
 40
0.0
  9
$DIMTIX
 70
     0
  9
$DIMSOXD
 70
     0
  9
$DIMSAH
 70
     0
  9
$DIMBLK1
  1

  9
$DIMBLK2
  1

  9
$DIMSTYLE
  2
STANDARD_ACAD
  9
$DIMCLRD
 70
     0
  9
$DIMCLRE
 70
     0
  9
$DIMCLRT
 70
     0
  9
$DIMTFAC
 40
1.0
  9
$DIMGAP
 40
0.09
  9
$LUNITS
 70
     2
  9
$LUPREC
 70
     3
  9
$SKETCHINC
 40
0.1
  9
$FILLETRAD
 40
0.0
  9
$AUNITS
 70
     0
  9
$AUPREC
 70
     0
  9
$MENU
  1
.
  9
$ELEVATION
 40
0.0
  9
$PELEVATION
 40
0.0
  9
$THICKNESS
 40
0.0
  9
$LIMCHECK
 70
     0
  9
$CHAMFERA
 40
0.0
  9
$CHAMFERB
 40
0.0
  9
$SKPOLY
 70
     0
  9
$TDCREATE
 40
2460916.638968426
  9
$TDUPDATE
 40
2460916.638994398
  9
$TDINDWG
 40
0.0000000116
  9
$TDUSRTIMER
 40
0.0000000116
  9
$USRTIMER
 70
     1
  9
$ANGBASE
 50
0.0
  9
$ANGDIR
 70
     0
  9
$PDMODE
 70
     0
  9
$PDSIZE
 40
0.0
  9
$PLINEWID
 40
0.0
  9
$COORDS
 70
     1
  9
$SPLFRAME
 70
     0
  9
$SPLINETYPE
 70
     6
  9
$SPLINESEGS
 70
     8
  9
$ATTDIA
 70
     0
  9
$ATTREQ
 70
     1
  9
$HANDLING
 70
     1
  9
$HANDSEED
  5
101
  9
$SURFTAB1
 70
     6
  9
$SURFTAB2
 70
     6
  9
$SURFTYPE
 70
     6
  9
$SURFU
 70
     6
  9
$SURFV
 70
     6
  9
$UCSNAME
  2

  9
$UCSORG
 10
0.0
 20
0.0
 30
0.0
  9
$UCSXDIR
 10
1.0
 20
0.0
 30
0.0
  9
$UCSYDIR
 10
0.0
 20
1.0
 30
0.0
  9
$PUCSNAME
  2

  9
$PUCSORG
 10
0.0
 20
0.0
 30
0.0
  9
$PUCSXDIR
 10
1.0
 20
0.0
 30
0.0
  9
$PUCSYDIR
 10
0.0
 20
1.0
 30
0.0
  9
$USERI1
 70
     0
  9
$USERI2
 70
     0
  9
$USERI3
 70
     0
  9
$USERI4
 70
     0
  9
$USERI5
 70
     0
  9
$USERR1
 40
0.0
  9
$USERR2
 40
0.0
  9
$USERR3
 40
0.0
  9
$USERR4
 40
0.0
  9
$USERR5
 40
0.0
  9
$WORLDVIEW
 70
     1
  9
$SHADEDGE
 70
     3
  9
$SHADEDIF
 70
    70
  9
$TILEMODE
 70
     1
  9
$MAXACTVP
 70
    64
  9
$PLIMCHECK
 70
     0
  9
$PEXTMIN
 10
1.000000000000000E+20
 20
1.000000000000000E+20
 30
1.000000000000000E+20
  9
$PEXTMAX
 10
-1.000000000000000E+20
 20
-1.000000000000000E+20
 30
-1.000000000000000E+20
  9
$PLIMMIN
 10
0.0
 20
0.0
  9
$PLIMMAX
 10
12.0
 20
9.0
  9
$UNITMODE
 70
     0
  9
$VISRETAIN
 70
     1
  9
$PLINEGEN
 70
     0
  9
$PSLTSCALE
 70
     1
  0
ENDSEC
  0
SECTION
  2
TABLES
  0
TABLE
  2
VPORT
 70
     1
  0
VPORT
  2
*ACTIVE
 70
     0
 10
0.0
 20
0.0
 11
1.0
 21
1.0
 12
10.42990654205607
 22
4.5
 13
0.0
 23
0.0
 14
0.5
 24
0.5
 15
0.5
 25
0.5
 16
0.0
 26
0.0
 36
1.0
 17
0.0
 27
0.0
 37
0.0
 40
9.0
 41
1.972972972850329
 42
50.0
 43
0.0
 44
0.0
 50
0.0
 51
0.0
 71
     0
 72
   100
 73
     1
 74
     3
 75
     0
 76
     0
 77
     0
 78
     0
  0
ENDTAB
  0
TABLE
  2
LTYPE
 70
     1
  0
LTYPE
  2
CONTINUOUS
 70
     0
  3
Solid line
 72
    65
 73
     0
 40
0.0
  0
ENDTAB
  0
TABLE
  2
LAYER
 70
     4
  0
LAYER
  2
0
 70
     0
 62
     7
  6
CONTINUOUS
  0
LAYER
  2
MOSFET$MASK
 70
     0
 62
     7
  6
CONTINUOUS
  0
LAYER
  2
MOSFET
 70
     0
 62
     7
  6
CONTINUOUS
  0
LAYER
  2
DEFAULT
 70
     0
 62
     7
  6
CONTINUOUS
  0
ENDTAB
  0
TABLE
  2
STYLE
 70
     4
  0
STYLE
  2
STANDARD
 70
     0
 40
0.0
 41
1.0
 50
0.0
 71
     0
 42
0.2
  3
txt
  4

  0
STYLE
  2
DEFAULT
 70
     0
 40
0.0
 41
1.0
 50
0.0
 71
     0
 42
0.2
  3
arial.ttf
  4

  0
STYLE
  2
MTXPL_CONSOLAS
 70
     0
 40
0.2
 41
1.0
 50
0.0
 71
     0
 42
0.2
  3
txt.shx
  4

  0
STYLE
  2
MTXPL_INTER
 70
     0
 40
0.2
 41
1.0
 50
0.0
 71
     0
 42
0.2
  3
txt.shx
  4

  0
ENDTAB
  0
TABLE
  2
VIEW
 70
     0
  0
ENDTAB
  0
TABLE
  2
UCS
 70
     0
  0
ENDTAB
  0
TABLE
  2
APPID
 70
     3
  0
APPID
  2
ACAD
 70
     0
  0
APPID
  2
RHINO
 70
     0
  0
APPID
  2
ACADANNOTATIVE
 70
     0
  0
ENDTAB
  0
TABLE
  2
DIMSTYLE
 70
     1
  0
DIMSTYLE
  2
STANDARD_ACAD
 70
     0
  3

  4

  5

  6

  7

 40
1.0
 41
0.18
 42
0.0625
 43
0.38
 44
0.18
 45
0.0
 46
0.0
 47
0.0
 48
0.0
140
0.18
141
0.09
142
0.0
143
25.4
144
1.0
145
0.0
146
1.0
147
0.09
 71
     0
 72
     0
 73
     1
 74
     1
 75
     0
 76
     0
 77
     0
 78
     0
170
     0
171
     2
172
     0
173
     0
174
     0
175
     0
176
     0
177
     0
178
     0
  0
ENDTAB
  0
ENDSEC
  0
SECTION
  2
BLOCKS
  0
BLOCK
  8
0
  2
$MODEL_SPACE
 70
     0
 10
0.0
 20
0.0
 30
0.0
  3
$MODEL_SPACE
  1

  0
ENDBLK
  5
21
  8
0
  0
BLOCK
 67
     1
  8
0
  2
$PAPER_SPACE
 70
     0
 10
0.0
 20
0.0
 30
0.0
  3
$PAPER_SPACE
  1

  0
ENDBLK
  5
1D
 67
     1
  8
0
  0
ENDSEC
  0
SECTION
  2
ENTITIES
  0
TEXT
  5
61
  8
MOSFET$MASK
 10
3.804595541763102
 20
-29.19662342829405
 30
0.0
 40
2.3
  1
12V
  7
MTXPL_CONSOLAS
1001
ACADANNOTATIVE
1000
AnnotativeData
1002
{
1070
     1
1070
     0
1002
}
  0
TEXT
  5
62
  8
MOSFET$MASK
 10
4.284305456558569
 20
-22.2809688894185
 30
0.0
 40
2.3
  1
OFF
  7
MTXPL_CONSOLAS
1001
ACADANNOTATIVE
1000
AnnotativeData
1002
{
1070
     1
1070
     0
1002
}
  0
TEXT
  5
63
  8
MOSFET$MASK
 10
6.148481523433455
 20
-8.87130247686472
 30
0.0
 40
2.3
  1
ON
  7
MTXPL_CONSOLAS
1001
ACADANNOTATIVE
1000
AnnotativeData
1002
{
1070
     1
1070
     0
1002
}
  0
TEXT
  5
64
  8
MOSFET$MASK
 10
-53.41409806089857
 20
-14.34339573009546
 30
0.0
 40
1.85
  1
32
  7
MTXPL_CONSOLAS
1001
ACADANNOTATIVE
1000
AnnotativeData
1002
{
1070
     1
1070
     0
1002
}
  0
TEXT
  5
65
  8
MOSFET$MASK
 10
-53.35692496517647
 20
-11.80339065008521
 30
0.0
 40
1.85
  1
35
  7
MTXPL_CONSOLAS
1001
ACADANNOTATIVE
1000
AnnotativeData
1002
{
1070
     1
1070
     0
1002
}
  0
TEXT
  5
66
  8
MOSFET$MASK
 10
-53.50261057118401
 20
-9.263385570074938
 30
0.0
 40
1.85
  1
34
  7
MTXPL_CONSOLAS
1001
ACADANNOTATIVE
1000
AnnotativeData
1002
{
1070
     1
1070
     0
1002
}
  0
TEXT
  5
67
  8
MOSFET$MASK
 10
-53.19416264685877
 20
-6.754946659893081
 30
0.0
 40
1.85
  1
VN
  7
DEFAULT
1001
ACADANNOTATIVE
1000
AnnotativeData
1002
{
1070
     1
1070
     0
1002
}
  0
TEXT
  5
68
  8
MOSFET$MASK
 10
-53.1972869489952
 20
-4.214941579882836
 30
0.0
 40
1.85
  1
VP
  7
MTXPL_CONSOLAS
1001
ACADANNOTATIVE
1000
AnnotativeData
1002
{
1070
     1
1070
     0
1002
}
  0
TEXT
  5
69
  8
MOSFET$MASK
 10
-53.46679697896752
 20
-1.674936499872591
 30
0.0
 40
1.85
  1
EN
  7
MTXPL_CONSOLAS
1001
ACADANNOTATIVE
1000
AnnotativeData
1002
{
1070
     1
1070
     0
1002
}
  0
TEXT
  5
6A
  8
MOSFET$MASK
 10
-54.97519490518647
 20
0.8966347499660061
 30
0.0
 40
1.85
  1
3V3
  7
MTXPL_CONSOLAS
1001
ACADANNOTATIVE
1000
AnnotativeData
1002
{
1070
     1
1070
     0
1002
}
  0
TEXT
  5
6B
  8
MOSFET$MASK
 10
-53.30508472087195
 20
-39.74344653019735
 30
0.0
 40
1.85
  1
D3
  7
MTXPL_CONSOLAS
1001
ACADANNOTATIVE
1000
AnnotativeData
1002
{
1070
     1
1070
     0
1002
}
  0
TEXT
  5
6C
  8
MOSFET$MASK
 10
-53.32200545257928
 20
-37.24628810782035
 30
0.0
 40
1.85
  1
D2
  7
MTXPL_CONSOLAS
1001
ACADANNOTATIVE
1000
AnnotativeData
1002
{
1070
     1
1070
     0
1002
}
  0
TEXT
  5
6D
  8
MOSFET$MASK
 10
-17.2692917547737
 20
-42.28345161020712
 30
0.0
 40
1.85
  1
D0
  7
MTXPL_CONSOLAS
1001
ACADANNOTATIVE
1000
AnnotativeData
1002
{
1070
     1
1070
     0
1002
}
  0
TEXT
  5
6E
  8
MOSFET$MASK
 10
-17.21810847875742
 20
-39.78065294392778
 30
0.0
 40
1.85
  1
D1
  7
MTXPL_CONSOLAS
1001
ACADANNOTATIVE
1000
AnnotativeData
1002
{
1070
     1
1070
     0
1002
}
  0
TEXT
  5
6F
  8
MOSFET$MASK
 10
-15.68568711920925
 20
-34.70628302781033
 30
0.0
 40
1.85
  1
2
  7
MTXPL_CONSOLAS
1001
ACADANNOTATIVE
1000
AnnotativeData
1002
{
1070
     1
1070
     0
1002
}
  0
TEXT
  5
70
  8
MOSFET$MASK
 10
-15.64315765428484
 20
-32.12343129016681
 30
0.0
 40
1.85
  1
0
  7
MTXPL_CONSOLAS
1001
ACADANNOTATIVE
1000
AnnotativeData
1002
{
1070
     1
1070
     0
1002
}
  0
TEXT
  5
71
  8
MOSFET$MASK
 10
-15.62461657481465
 20
-29.61499237998494
 30
0.0
 40
1.85
  1
4
  7
MTXPL_CONSOLAS
1001
ACADANNOTATIVE
1000
AnnotativeData
1002
{
1070
     1
1070
     0
1002
}
  0
TEXT
  5
72
  8
MOSFET$MASK
 10
-17.36400923173444
 20
-27.03225681216981
 30
0.0
 40
1.85
  1
16
  7
DEFAULT
1001
ACADANNOTATIVE
1000
AnnotativeData
1002
{
1070
     1
1070
     0
1002
}
  0
TEXT
  5
73
  8
MOSFET$MASK
 10
-17.32387406642367
 20
-24.54062246386687
 30
0.0
 40
1.85
  1
17
  7
DEFAULT
1001
ACADANNOTATIVE
1000
AnnotativeData
1002
{
1070
     1
1070
     0
1002
}
  0
TEXT
  5
74
  8
MOSFET$MASK
 10
-15.6584245106292
 20
-21.95213048232098
 30
0.0
 40
1.85
  1
5
  7
MTXPL_CONSOLAS
1001
ACADANNOTATIVE
1000
AnnotativeData
1002
{
1070
     1
1070
     0
1002
}
  0
TEXT
  5
75
  8
MOSFET$MASK
 10
-17.24290652963374
 20
-19.42340589011626
 30
0.0
 40
1.85
  1
18
  7
MTXPL_CONSOLAS
1001
ACADANNOTATIVE
1000
AnnotativeData
1002
{
1070
     1
1070
     0
1002
}
  0
TEXT
  5
76
  8
MOSFET$MASK
 10
-17.23133628817442
 20
-16.92624746773926
 30
0.0
 40
1.85
  1
19
  7
MTXPL_CONSOLAS
1001
ACADANNOTATIVE
1000
AnnotativeData
1002
{
1070
     1
1070
     0
1002
}
  0
TEXT
  5
77
  8
MOSFET$MASK
 10
-17.22683603917653
 20
-11.84623730771876
 30
0.0
 40
1.85
  1
21
  7
MTXPL_CONSOLAS
1001
ACADANNOTATIVE
1000
AnnotativeData
1002
{
1070
     1
1070
     0
1002
}
  0
TEXT
  5
78
  8
MOSFET$MASK
 10
-17.20624178975394
 20
-9.29495173990364
 30
0.0
 40
1.85
  1
TR
  7
MTXPL_CONSOLAS
1001
ACADANNOTATIVE
1000
AnnotativeData
1002
{
1070
     1
1070
     0
1002
}
  0
TEXT
  5
79
  8
MOSFET$MASK
 10
-17.27331265474707
 20
-6.754946659893394
 30
0.0
 40
1.85
  1
TX
  7
MTXPL_CONSOLAS
1001
ACADANNOTATIVE
1000
AnnotativeData
1002
{
1070
     1
1070
     0
1002
}
  0
TEXT
  5
7A
  8
MOSFET$MASK
 10
-17.24259937206784
 20
-4.226222067688026
 30
0.0
 40
1.85
  1
22
  7
MTXPL_CONSOLAS
1001
ACADANNOTATIVE
1000
AnnotativeData
1002
{
1070
     1
1070
     0
1002
}
  0
TEXT
  5
7B
  8
MOSFET$MASK
 10
-7.165853973883499
 20
-1.329891858481711
 30
0.0
 40
1.85005815644804
  1
GND
 50
90.0000000000001
  7
MTXPL_CONSOLAS
1001
ACADANNOTATIVE
1000
AnnotativeData
1002
{
1070
     1
1070
     0
1002
}
  0
TEXT
  5
7C
  8
MOSFET$MASK
 10
-26.12754236192994
 20
-30.09898660546688
 30
0.0
 40
2.0
  1
v2.0
 50
90.00000000000014
  7
MTXPL_CONSOLAS
1001
ACADANNOTATIVE
1000
AnnotativeData
1002
{
1070
     1
1070
     0
1002
}
  0
TEXT
  5
7D
  8
MOSFET$MASK
 10
-34.11646521400858
 20
-30.93936434169107
 30
0.0
 40
5.535019488481495
  1
BOTS
 50
89.99999999999999
  7
MTXPL_INTER
1001
ACADANNOTATIVE
1000
AnnotativeData
1002
{
1070
     1
1070
     0
1002
}
  0
TEXT
  5
7E
  8
MOSFET$MASK
 10
-45.41250388113453
 20
27.73275263617001
 30
0.0
 40
2.5
  1
TB6612
  7
MTXPL_CONSOLAS
1001
ACADANNOTATIVE
1000
AnnotativeData
1002
{
1070
     1
1070
     0
1002
}
  0
LINE
  5
7F
  8
MOSFET$MASK
 10
10.47128235313316
 20
-29.76737024329498
 30
0.0
 11
10.47128235313313
 21
-40.23271084803874
 31
0.0
  0
POLYLINE
  5
80
  8
MOSFET$MASK
 66
     1
 10
0.0
 20
0.0
 30
0.0
 70
     1
  0
VERTEX
  5
81
  8
MOSFET$MASK
 10
12.43919025235796
 20
-40.23271084803874
 30
0.0
  0
VERTEX
  5
82
  8
MOSFET$MASK
 10
12.43919025235808
 20
-29.76737024329498
 30
0.0
  0
VERTEX
  5
83
  8
MOSFET$MASK
 10
-2.795216771183938
 20
-29.76737024329498
 30
0.0
  0
VERTEX
  5
84
  8
MOSFET$MASK
 10
-2.795216771184061
 20
-40.2327108480387
 30
0.0
  0
SEQEND
  5
85
  8
MOSFET$MASK
  0
LINE
  5
86
  8
MOSFET$MASK
 10
-31.51351301461425
 20
-22.05896780854578
 30
0.0
 11
-31.51351301461421
 21
-23.78517429010276
 31
0.0
  0
LINE
  5
87
  8
MOSFET$MASK
 10
-31.51351301461432
 20
-17.05896780854575
 30
0.0
 11
-31.51351301461432
 21
-15.33276132698876
 31
0.0
  0
TEXT
  5
88
  8
MOSFET$MASK
 10
3.403677085904834
 20
-3.794627241314223
 30
0.0
 40
1.85005815644804
  1
+
 50
180.0
  7
MTXPL_CONSOLAS
1001
ACADANNOTATIVE
1000
AnnotativeData
1002
{
1070
     1
1070
     0
1002
}
  0
POLYLINE
  5
89
  8
MOSFET$MASK
 66
     1
 10
0.0
 20
0.0
 30
0.0
 70
     1
  0
VERTEX
  5
8A
  8
MOSFET$MASK
 10
-17.42700413068594
 20
24.71439356775028
 30
0.0
  0
VERTEX
  5
8B
  8
MOSFET$MASK
 10
-8.172220114363263
 20
24.7143935677503
 30
0.0
  0
VERTEX
  5
8C
  8
MOSFET$MASK
 10
-8.172220114363263
 20
26.86840732255594
 30
0.0
  0
VERTEX
  5
8D
  8
MOSFET$MASK
 10
-17.42700413068594
 20
26.86840732255591
 30
0.0
  0
SEQEND
  5
8E
  8
MOSFET$MASK
  0
POLYLINE
  5
8F
  8
MOSFET$MASK
 66
     1
 10
0.0
 20
0.0
 30
0.0
 70
     1
  0
VERTEX
  5
90
  8
MOSFET$MASK
 10
-13.86328083104026
 20
14.34651092946528
 30
0.0
  0
VERTEX
  5
91
  8
MOSFET$MASK
 10
-11.73594341400893
 20
14.34651092946531
 30
0.0
 42
0.4142135623730893
  0
VERTEX
  5
92
  8
MOSFET$MASK
 10
-11.23594341400894
 20
14.8465109294653
 30
0.0
  0
VERTEX
  5
93
  8
MOSFET$MASK
 10
-11.23594341400894
 20
17.43033361315448
 30
0.0
  0
VERTEX
  5
94
  8
MOSFET$MASK
 10
-14.36328083104026
 20
17.43033361315444
 30
0.0
  0
VERTEX
  5
95
  8
MOSFET$MASK
 10
-14.36328083104026
 20
14.84651092946528
 30
0.0
 42
0.414213562373099
  0
SEQEND
  5
96
  8
MOSFET$MASK
  0
TEXT
  5
97
  8
MOSFET$MASK
 10
-19.34581018331848
 20
19.11613110995689
 30
0.0
 40
2.5
  1
MOSFET
  7
MTXPL_CONSOLAS
1001
ACADANNOTATIVE
1000
AnnotativeData
1002
{
1070
     1
1070
     0
1002
}
  0
TEXT
  5
98
  8
MOSFET$MASK
 10
-12.9591500807292
 20
37.42677549924455
 30
0.0
 40
2.3
  1
L+
 50
89.99999999999916
  7
MTXPL_CONSOLAS
1001
ACADANNOTATIVE
1000
AnnotativeData
1002
{
1070
     1
1070
     0
1002
}
  0
TEXT
  5
99
  8
MOSFET$MASK
 10
-10.33630567835769
 20
37.70688501980814
 30
0.0
 40
2.3
  1
P+
 50
90.0000000000008
  7
MTXPL_CONSOLAS
1001
ACADANNOTATIVE
1000
AnnotativeData
1002
{
1070
     1
1070
     0
1002
}
  0
TEXT
  5
9A
  8
MOSFET$MASK
 10
-15.58901701134585
 20
37.41867539468886
 30
0.0
 40
2.3
  1
L-
 50
89.99999999999942
  7
MTXPL_CONSOLAS
1001
ACADANNOTATIVE
1000
AnnotativeData
1002
{
1070
     1
1070
     0
1002
}
  0
TEXT
  5
9B
  8
MOSFET$MASK
 10
-7.699215835243958
 20
37.70688501980813
 30
0.0
 40
2.3
  1
P-
 50
90.00000000000043
  7
MTXPL_CONSOLAS
1001
ACADANNOTATIVE
1000
AnnotativeData
1002
{
1070
     1
1070
     0
1002
}
  0
TEXT
  5
9C
  8
MOSFET$MASK
 10
-24.55905203464379
 20
39.41802290716779
 30
0.0
 40
2.5
  1
M3
 50
180.0
  7
DEFAULT
1001
ACADANNOTATIVE
1000
AnnotativeData
1002
{
1070
     1
1070
     0
1002
}
  0
TEXT
  5
9D
  8
MOSFET$MASK
 10
-36.9264891884943
 20
39.44035693235794
 30
0.0
 40
2.5
  1
M2
 50
180.0
  7
MTXPL_CONSOLAS
1001
ACADANNOTATIVE
1000
AnnotativeData
1002
{
1070
     1
1070
     0
1002
}
  0
TEXT
  5
9E
  8
MOSFET$MASK
 10
-45.99715917450354
 20
39.43314832068053
 30
0.0
 40
2.5
  1
M1
 50
180.0
  7
MTXPL_CONSOLAS
1001
ACADANNOTATIVE
1000
AnnotativeData
1002
{
1070
     1
1070
     0
1002
}
  0
TEXT
  5
9F
  8
MOSFET$MASK
 10
3.698193618204401
 20
7.356828921742164
 30
0.0
 40
1.85005815644804
  1
R120
 50
90.00000000000036
  7
MTXPL_CONSOLAS
1001
ACADANNOTATIVE
1000
AnnotativeData
1002
{
1070
     1
1070
     0
1002
}
  0
POLYLINE
  5
A0
  8
MOSFET$MASK
 66
     1
 10
0.0
 20
0.0
 30
0.0
 70
     1
  0
VERTEX
  5
A1
  8
MOSFET$MASK
 10
-35.03644107015482
 20
-45.24650749301531
 30
0.0
  0
VERTEX
  5
A2
  8
MOSFET$MASK
 10
-27.90085785104345
 20
-45.24650749301531
 30
0.0
  0
VERTEX
  5
A3
  8
MOSFET$MASK
 10
-27.9008578510435
 20
-40.29349758699546
 30
0.0
  0
VERTEX
  5
A4
  8
MOSFET$MASK
 10
-35.03644107015482
 20
-40.29349758699549
 30
0.0
  0
SEQEND
  5
A5
  8
MOSFET$MASK
  0
TEXT
  5
A6
  8
MOSFET$MASK
 10
-12.25652172703919
 20
-1.52696195952667
 30
0.0
 40
1.85005815644804
  1
S
 50
90.00000000000009
  7
MTXPL_CONSOLAS
1001
ACADANNOTATIVE
1000
AnnotativeData
1002
{
1070
     1
1070
     0
1002
}
  0
TEXT
  5
A7
  8
MOSFET$MASK
 10
-9.713333662877758
 20
-1.621409372918912
 30
0.0
 40
1.85005815644804
  1
5V
 50
90.00000000000009
  7
MTXPL_CONSOLAS
1001
ACADANNOTATIVE
1000
AnnotativeData
1002
{
1070
     1
1070
     0
1002
}
  0
POLYLINE
  5
A8
  8
MOSFET$MASK
 66
     1
 10
0.0
 20
0.0
 30
0.0
 70
     1
  0
VERTEX
  5
A9
  8
MOSFET$MASK
 10
-40.52368122302517
 20
15.50449034592817
 30
0.0
  0
VERTEX
  5
AA
  8
MOSFET$MASK
 10
-37.57577881760927
 20
15.50449034592823
 30
0.0
  0
VERTEX
  5
AB
  8
MOSFET$MASK
 10
-37.57577881760927
 20
17.79730332791838
 30
0.0
  0
VERTEX
  5
AC
  8
MOSFET$MASK
 10
-40.52368122302517
 20
17.79730332791838
 30
0.0
  0
SEQEND
  5
AD
  8
MOSFET$MASK
  0
POLYLINE
  5
AE
  8
MOSFET$MASK
 66
     1
 10
0.0
 20
0.0
 30
0.0
 70
     1
  0
VERTEX
  5
AF
  8
MOSFET$MASK
 10
-41.56227189371146
 20
19.3955697235777
 30
0.0
  0
VERTEX
  5
B0
  8
MOSFET$MASK
 10
-36.53718814692287
 20
19.3955697235777
 30
0.0
  0
VERTEX
  5
B1
  8
MOSFET$MASK
 10
-36.53718814692292
 20
25.98926851343499
 30
0.0
  0
VERTEX
  5
B2
  8
MOSFET$MASK
 10
-41.56227189371152
 20
25.98926851343499
 30
0.0
  0
SEQEND
  5
B3
  8
MOSFET$MASK
  0
POLYLINE
  5
B4
  8
MOSFET$MASK
 66
     1
 10
0.0
 20
0.0
 30
0.0
 70
     1
  0
VERTEX
  5
B5
  8
MOSFET$MASK
 10
9.962421739146912
 20
-9.99373239740327
 30
0.0
  0
VERTEX
  5
B6
  8
MOSFET$MASK
 10
3.962421739146912
 20
-9.99373239740327
 30
0.0
  0
VERTEX
  5
B7
  8
MOSFET$MASK
 10
3.96242173914694
 20
-18.99373239740327
 30
0.0
  0
VERTEX
  5
B8
  8
MOSFET$MASK
 10
9.96242173914694
 20
-18.99373239740327
 30
0.0
  0
SEQEND
  5
B9
  8
MOSFET$MASK
  0
TEXT
  5
BA
  8
MOSFET$MASK
 10
8.170119704962412
 20
33.18003628201447
 30
0.0
 40
1.266194762502437
  1
GND
  7
MTXPL_CONSOLAS
1001
ACADANNOTATIVE
1000
AnnotativeData
1002
{
1070
     1
1070
     0
1002
}
  0
TEXT
  5
BB
  8
MOSFET$MASK
 10
8.283881540676335
 20
35.71472841176456
 30
0.0
 40
1.266194762502437
  1
VIN
  7
MTXPL_CONSOLAS
1001
ACADANNOTATIVE
1000
AnnotativeData
1002
{
1070
     1
1070
     0
1002
}
  0
TEXT
  5
BC
  8
MOSFET$MASK
 10
9.167023014818525
 20
28.13132084311635
 30
0.0
 40
1.271001291013058
  1
5V
  7
MTXPL_CONSOLAS
1001
ACADANNOTATIVE
1000
AnnotativeData
1002
{
1070
     1
1070
     0
1002
}
  0
TEXT
  5
BD
  8
MOSFET$MASK
 10
3.846005714473782
 20
18.65534409869111
 30
0.0
 40
2.201225529498676
  1
DCDC
  7
MTXPL_CONSOLAS
1001
ACADANNOTATIVE
1000
AnnotativeData
1002
{
1070
     1
1070
     0
1002
}
  0
POLYLINE
  5
BE
  8
MOSFET$MASK
 66
     1
 10
0.0
 20
0.0
 30
0.0
  0
VERTEX
  5
BF
  8
MOSFET$MASK
 10
12.48906963741867
 20
39.21310642621302
 30
0.0
  0
VERTEX
  5
C0
  8
MOSFET$MASK
 10
2.861297199294306
 20
39.21310642621302
 30
0.0
  0
VERTEX
  5
C1
  8
MOSFET$MASK
 10
2.861297199294306
 20
18.21310642621302
 30
0.0
  0
VERTEX
  5
C2
  8
MOSFET$MASK
 10
12.48906963741867
 20
18.21310642621302
 30
0.0
  0
SEQEND
  5
C3
  8
MOSFET$MASK
  0
CIRCLE
  5
C4
  8
MOSFET$MASK
 10
3.963558929845185
 20
-1.675187457396014
 30
0.0
 40
2.5
  0
TEXT
  5
C5
  8
MOSFET$MASK
 10
4.436706445059082
 20
-5.374284605336236
 30
0.0
 40
1.85005815644804
  1
-
  7
MTXPL_CONSOLAS
1001
ACADANNOTATIVE
1000
AnnotativeData
1002
{
1070
     1
1070
     0
1002
}
  0
POLYLINE
  5
C6
  8
MOSFET$MASK
 66
     1
 10
0.0
 20
0.0
 30
0.0
 70
     1
  0
VERTEX
  5
C7
  8
MOSFET$MASK
 10
12.48906963741873
 20
-44.50000000000062
 30
0.0
  0
VERTEX
  5
C8
  8
MOSFET$MASK
 10
12.48906963741861
 20
44.50000000000058
 30
0.0
 42
0.4142135623730888
  0
VERTEX
  5
C9
  8
MOSFET$MASK
 10
9.489069637419027
 20
47.50000000000019
 30
0.0
  0
VERTEX
  5
CA
  8
MOSFET$MASK
 10
-58.71093036258225
 20
47.50000000000006
 30
0.0
 42
0.4142135623731008
  0
VERTEX
  5
CB
  8
MOSFET$MASK
 10
-61.7109303625818
 20
44.50000000000046
 30
0.0
  0
VERTEX
  5
CC
  8
MOSFET$MASK
 10
-61.7109303625818
 20
-44.50000000000068
 30
0.0
 42
0.4142135623730908
  0
VERTEX
  5
CD
  8
MOSFET$MASK
 10
-58.71093036258221
 20
-47.50000000000026
 30
0.0
  0
VERTEX
  5
CE
  8
MOSFET$MASK
 10
9.489069637419156
 20
-47.50000000000022
 30
0.0
 42
0.4142135623730951
  0
SEQEND
  5
CF
  8
MOSFET$MASK
  0
CIRCLE
  5
D1
  8
MOSFET
 10
-9.489069637419156
 20
44.49999999999989
 30
0.0
 40
3.000000000000024
210
0.0
220
0.0
230
-1.0
  0
CIRCLE
  5
D2
  8
MOSFET
 10
-58.71093036258214
 20
44.49999999999984
 30
0.0
 40
3.000000000000012
  0
POLYLINE
  5
D4
  8
DEFAULT
 66
     1
 10
0.0
 20
0.0
 30
0.0
 70
     1
  0
VERTEX
  5
D5
  8
DEFAULT
 10
2.711156803586015
 20
-30.40229719285544
 30
0.0
  0
VERTEX
  5
D6
  8
DEFAULT
 10
0.8981373288840832
 20
-30.40229719285537
 30
0.0
 42
1.000000000000008
  0
VERTEX
  5
D7
  8
DEFAULT
 10
0.8981373288840478
 20
-31.22949557972066
 30
0.0
  0
VERTEX
  5
D8
  8
DEFAULT
 10
2.711156803585979
 20
-31.22949557972071
 30
0.0
 42
0.9999999999999999
  0
SEQEND
  5
D9
  8
DEFAULT
  0
POLYLINE
  5
DA
  8
DEFAULT
 66
     1
 10
0.0
 20
0.0
 30
0.0
 70
     1
  0
VERTEX
  5
DB
  8
DEFAULT
 10
-1.081753740332331
 20
-36.37240612363901
 30
0.0
  0
VERTEX
  5
DC
  8
DEFAULT
 10
-1.081753740332338
 20
-34.55938664893708
 30
0.0
 42
0.9999999999999915
  0
VERTEX
  5
DD
  8
DEFAULT
 10
-1.908952127197615
 20
-34.55938664893708
 30
0.0
  0
VERTEX
  5
DE
  8
DEFAULT
 10
-1.908952127197608
 20
-36.37240612363901
 30
0.0
 42
0.9999999999999915
  0
SEQEND
  5
DF
  8
DEFAULT
  0
CIRCLE
  5
E0
  8
DEFAULT
 10
-31.48675880876422
 20
-24.98934193465528
 30
0.0
 40
0.6
  0
CIRCLE
  5
E1
  8
DEFAULT
 10
-31.48675880876422
 20
-13.98934193465528
 30
0.0
 40
0.6
  0
LINE
  5
E2
  8
MOSFET$MASK
 10
-32.51351301461429
 20
-21.44507711032034
 30
0.0
 11
-30.51351301461428
 21
-21.44507711032033
 31
0.0
  0
POLYLINE
  5
E3
  8
MOSFET$MASK
 66
     1
 10
0.0
 20
0.0
 30
0.0
 70
     1
  0
VERTEX
  5
E4
  8
MOSFET$MASK
 10
-32.51351301461428
 20
-22.05896780854577
 30
0.0
  0
VERTEX
  5
E5
  8
MOSFET$MASK
 10
-30.51351301461427
 20
-22.05896780854576
 30
0.0
  0
VERTEX
  5
E6
  8
MOSFET$MASK
 10
-30.51351301461431
 20
-17.05896780854575
 30
0.0
  0
VERTEX
  5
E7
  8
MOSFET$MASK
 10
-32.51351301461433
 20
-17.05896780854575
 30
0.0
  0
SEQEND
  5
E8
  8
MOSFET$MASK
  0
POLYLINE
  5
E9
  8
DEFAULT
 66
     1
 10
0.0
 20
0.0
 30
0.0
 70
     1
  0
VERTEX
  5
EA
  8
DEFAULT
 10
5.318246259667674
 20
-36.37240612363901
 30
0.0
  0
VERTEX
  5
EB
  8
DEFAULT
 10
5.318246259667667
 20
-34.55938664893708
 30
0.0
 42
0.9999999999999915
  0
VERTEX
  5
EC
  8
DEFAULT
 10
4.49104787280239
 20
-34.55938664893708
 30
0.0
  0
VERTEX
  5
ED
  8
DEFAULT
 10
4.491047872802397
 20
-36.37240612363901
 30
0.0
 42
0.9999999999999915
  0
SEQEND
  5
EE
  8
DEFAULT
  0
CIRCLE
  5
EF
  8
MOSFET
 10
-9.489069637418915
 20
-44.49999999999999
 30
0.0
 40
3.000000000000115
210
0.0
220
0.0
230
-1.0
  0
CIRCLE
  5
F0
  8
MOSFET
 10
-58.71093036258164
 20
-44.50000000000004
 30
0.0
 40
3.00000000000011
  0
POLYLINE
  5
F1
  8
MOSFET$MASK
 66
     1
 10
0.0
 20
0.0
 30
0.0
 70
     1
  0
VERTEX
  5
F2
  8
MOSFET$MASK
 10
1.579603510319104
 20
7.352257884867074
 30
0.0
  0
VERTEX
  5
F3
  8
MOSFET$MASK
 10
3.996017366669208
 20
7.352257884867074
 30
0.0
  0
VERTEX
  5
F4
  8
MOSFET$MASK
 10
3.996017366669208
 20
14.08120243271458
 30
0.0
  0
VERTEX
  5
F5
  8
MOSFET$MASK
 10
1.579603510319104
 20
14.08120243271458
 30
0.0
  0
SEQEND
  5
F6
  8
MOSFET$MASK
  0
ENDSEC
  0
EOF
