  0
SECTION
  2
HEADER
  9
$ACADVER
  1
AC1009
  9
$DWGCODEPAGE
  3
ansi_1252
  9
$INSBASE
 10
0.0
 20
0.0
 30
0.0
  9
$EXTMIN
 10
239.2890696374179
 20
-47.50000000000026
 30
-0.0000000000000399
  9
$EXTMAX
 10
313.4890696374192
 20
47.50000000000019
 30
0.000000000000016
  9
$LIMMIN
 10
0.0
 20
0.0
  9
$LIMMAX
 10
12.0
 20
9.0
  9
$ORTHOMODE
 70
     0
  9
$REGENMODE
 70
     1
  9
$FILLMODE
 70
     1
  9
$QTEXTMODE
 70
     0
  9
$MIRRTEXT
 70
     1
  9
$DRAGMODE
 70
     2
  9
$LTSCALE
 40
1.0
  9
$OSMODE
 70
    37
  9
$ATTMODE
 70
     1
  9
$TEXTSIZE
 40
0.2
  9
$TRACEWID
 40
0.05
  9
$TEXTSTYLE
  7
STANDARD
  9
$CLAYER
  8
0
  9
$CELTYPE
  6
BYLAYER
  9
$CECOLOR
 62
   256
  9
$DIMSCALE
 40
1.0
  9
$DIMASZ
 40
0.18
  9
$DIMEXO
 40
0.0625
  9
$DIMDLI
 40
0.38
  9
$DIMRND
 40
0.0
  9
$DIMDLE
 40
0.0
  9
$DIMEXE
 40
0.18
  9
$DIMTP
 40
0.0
  9
$DIMTM
 40
0.0
  9
$DIMTXT
 40
0.18
  9
$DIMCEN
 40
0.09
  9
$DIMTSZ
 40
0.0
  9
$DIMTOL
 70
     0
  9
$DIMLIM
 70
     0
  9
$DIMTIH
 70
     1
  9
$DIMTOH
 70
     1
  9
$DIMSE1
 70
     0
  9
$DIMSE2
 70
     0
  9
$DIMTAD
 70
     0
  9
$DIMZIN
 70
     0
  9
$DIMBLK
  1

  9
$DIMASO
 70
     1
  9
$DIMSHO
 70
     1
  9
$DIMPOST
  1

  9
$DIMAPOST
  1

  9
$DIMALT
 70
     0
  9
$DIMALTD
 70
     2
  9
$DIMALTF
 40
25.4
  9
$DIMLFAC
 40
1.0
  9
$DIMTOFL
 70
     0
  9
$DIMTVP
 40
0.0
  9
$DIMTIX
 70
     0
  9
$DIMSOXD
 70
     0
  9
$DIMSAH
 70
     0
  9
$DIMBLK1
  1

  9
$DIMBLK2
  1

  9
$DIMSTYLE
  2
STANDARD_ACAD
  9
$DIMCLRD
 70
     0
  9
$DIMCLRE
 70
     0
  9
$DIMCLRT
 70
     0
  9
$DIMTFAC
 40
1.0
  9
$DIMGAP
 40
0.09
  9
$LUNITS
 70
     2
  9
$LUPREC
 70
     3
  9
$SKETCHINC
 40
0.1
  9
$FILLETRAD
 40
0.0
  9
$AUNITS
 70
     0
  9
$AUPREC
 70
     0
  9
$MENU
  1
.
  9
$ELEVATION
 40
0.0
  9
$PELEVATION
 40
0.0
  9
$THICKNESS
 40
0.0
  9
$LIMCHECK
 70
     0
  9
$CHAMFERA
 40
0.0
  9
$CHAMFERB
 40
0.0
  9
$SKPOLY
 70
     0
  9
$TDCREATE
 40
2460917.798707894
  9
$TDUPDATE
 40
2460917.798723553
  9
$TDINDWG
 40
0.0000000116
  9
$TDUSRTIMER
 40
0.0000000116
  9
$USRTIMER
 70
     1
  9
$ANGBASE
 50
0.0
  9
$ANGDIR
 70
     0
  9
$PDMODE
 70
     0
  9
$PDSIZE
 40
0.0
  9
$PLINEWID
 40
0.0
  9
$COORDS
 70
     1
  9
$SPLFRAME
 70
     0
  9
$SPLINETYPE
 70
     6
  9
$SPLINESEGS
 70
     8
  9
$ATTDIA
 70
     0
  9
$ATTREQ
 70
     1
  9
$HANDLING
 70
     1
  9
$HANDSEED
  5
E5
  9
$SURFTAB1
 70
     6
  9
$SURFTAB2
 70
     6
  9
$SURFTYPE
 70
     6
  9
$SURFU
 70
     6
  9
$SURFV
 70
     6
  9
$UCSNAME
  2

  9
$UCSORG
 10
0.0
 20
0.0
 30
0.0
  9
$UCSXDIR
 10
1.0
 20
0.0
 30
0.0
  9
$UCSYDIR
 10
0.0
 20
1.0
 30
0.0
  9
$PUCSNAME
  2

  9
$PUCSORG
 10
0.0
 20
0.0
 30
0.0
  9
$PUCSXDIR
 10
1.0
 20
0.0
 30
0.0
  9
$PUCSYDIR
 10
0.0
 20
1.0
 30
0.0
  9
$USERI1
 70
     0
  9
$USERI2
 70
     0
  9
$USERI3
 70
     0
  9
$USERI4
 70
     0
  9
$USERI5
 70
     0
  9
$USERR1
 40
0.0
  9
$USERR2
 40
0.0
  9
$USERR3
 40
0.0
  9
$USERR4
 40
0.0
  9
$USERR5
 40
0.0
  9
$WORLDVIEW
 70
     1
  9
$SHADEDGE
 70
     3
  9
$SHADEDIF
 70
    70
  9
$TILEMODE
 70
     1
  9
$MAXACTVP
 70
    64
  9
$PLIMCHECK
 70
     0
  9
$PEXTMIN
 10
1.000000000000000E+20
 20
1.000000000000000E+20
 30
1.000000000000000E+20
  9
$PEXTMAX
 10
-1.000000000000000E+20
 20
-1.000000000000000E+20
 30
-1.000000000000000E+20
  9
$PLIMMIN
 10
0.0
 20
0.0
  9
$PLIMMAX
 10
12.0
 20
9.0
  9
$UNITMODE
 70
     0
  9
$VISRETAIN
 70
     1
  9
$PLINEGEN
 70
     0
  9
$PSLTSCALE
 70
     1
  0
ENDSEC
  0
SECTION
  2
TABLES
  0
TABLE
  2
VPORT
 70
     1
  0
VPORT
  2
*ACTIVE
 70
     0
 10
0.0
 20
0.0
 11
1.0
 21
1.0
 12
10.42990654205607
 22
4.5
 13
0.0
 23
0.0
 14
0.5
 24
0.5
 15
0.5
 25
0.5
 16
0.0
 26
0.0
 36
1.0
 17
0.0
 27
0.0
 37
0.0
 40
9.0
 41
1.972972972850329
 42
50.0
 43
0.0
 44
0.0
 50
0.0
 51
0.0
 71
     0
 72
   100
 73
     1
 74
     3
 75
     0
 76
     0
 77
     0
 78
     0
  0
ENDTAB
  0
TABLE
  2
LTYPE
 70
     1
  0
LTYPE
  2
CONTINUOUS
 70
     0
  3
Solid line
 72
    65
 73
     0
 40
0.0
  0
ENDTAB
  0
TABLE
  2
LAYER
 70
     6
  0
LAYER
  2
0
 70
     0
 62
   160
  6
CONTINUOUS
  0
LAYER
  2
MOSFET$TRACES
 70
     0
 62
     7
  6
CONTINUOUS
  0
LAYER
  2
MOSFET$MASK
 70
     0
 62
     7
  6
CONTINUOUS
  0
LAYER
  2
HOLES
 70
     0
 62
    22
  6
CONTINUOUS
  0
LAYER
  2
DEFAULT
 70
     0
 62
     7
  6
CONTINUOUS
  0
LAYER
  2
MOSFET
 70
     0
 62
     7
  6
CONTINUOUS
  0
ENDTAB
  0
TABLE
  2
STYLE
 70
     3
  0
STYLE
  2
STANDARD
 70
     0
 40
0.0
 41
1.0
 50
0.0
 71
     0
 42
0.2
  3
txt
  4

  0
STYLE
  2
DEFAULT
 70
     0
 40
0.0
 41
1.0
 50
0.0
 71
     0
 42
0.2
  3

  4

  0
STYLE
  2
MTXPL_CONSOLAS
 70
     0
 40
0.2
 41
1.0
 50
0.0
 71
     0
 42
0.2
  3
txt.shx
  4

  0
ENDTAB
  0
TABLE
  2
VIEW
 70
     0
  0
ENDTAB
  0
TABLE
  2
UCS
 70
     0
  0
ENDTAB
  0
TABLE
  2
APPID
 70
     3
  0
APPID
  2
ACAD
 70
     0
  0
APPID
  2
RHINO
 70
     0
  0
APPID
  2
ACADANNOTATIVE
 70
     0
  0
ENDTAB
  0
TABLE
  2
DIMSTYLE
 70
     1
  0
DIMSTYLE
  2
STANDARD_ACAD
 70
     0
  3

  4

  5

  6

  7

 40
1.0
 41
0.18
 42
0.0625
 43
0.38
 44
0.18
 45
0.0
 46
0.0
 47
0.0
 48
0.0
140
0.18
141
0.09
142
0.0
143
25.4
144
1.0
145
0.0
146
1.0
147
0.09
 71
     0
 72
     0
 73
     1
 74
     1
 75
     0
 76
     0
 77
     0
 78
     0
170
     0
171
     2
172
     0
173
     0
174
     0
175
     0
176
     0
177
     0
178
     0
  0
ENDTAB
  0
ENDSEC
  0
SECTION
  2
BLOCKS
  0
BLOCK
  8
0
  2
$MODEL_SPACE
 70
     0
 10
0.0
 20
0.0
 30
0.0
  3
$MODEL_SPACE
  1

  0
ENDBLK
  5
21
  8
0
  0
BLOCK
 67
     1
  8
0
  2
$PAPER_SPACE
 70
     0
 10
0.0
 20
0.0
 30
0.0
  3
$PAPER_SPACE
  1

  0
ENDBLK
  5
1D
 67
     1
  8
0
  0
ENDSEC
  0
SECTION
  2
ENTITIES
  0
POLYLINE
  5
60
  8
MOSFET$TRACES
 66
     1
 10
0.0
 20
0.0
 30
0.0
 70
     1
  0
VERTEX
  5
61
  8
MOSFET$TRACES
 10
265.1618333256737
 20
-36.31135627582685
 30
0.0
  0
VERTEX
  5
62
  8
MOSFET$TRACES
 10
267.1618333037488
 20
-36.31135627582685
 30
0.0
 42
1.000000000013209
  0
VERTEX
  5
63
  8
MOSFET$TRACES
 10
267.1618333037378
 20
-35.48135627582685
 30
0.0
  0
VERTEX
  5
64
  8
MOSFET$TRACES
 10
265.1618334036114
 20
-35.48135627582687
 30
0.0
 42
1.000000146731922
  0
SEQEND
  5
65
  8
MOSFET$TRACES
  0
POLYLINE
  5
66
  8
MOSFET$TRACES
 66
     1
 10
0.0
 20
0.0
 30
0.0
 70
     1
  0
VERTEX
  5
67
  8
MOSFET$TRACES
 10
287.1602839900441
 20
-36.31135627582685
 30
0.0
  0
VERTEX
  5
68
  8
MOSFET$TRACES
 10
285.1602840119691
 20
-36.31135627582685
 30
0.0
 42
-1.000000000013209
  0
VERTEX
  5
69
  8
MOSFET$TRACES
 10
285.1602840119801
 20
-35.48135627582685
 30
0.0
  0
VERTEX
  5
6A
  8
MOSFET$TRACES
 10
287.1602839121064
 20
-35.48135627582687
 30
0.0
 42
-1.000000146731922
  0
SEQEND
  5
6B
  8
MOSFET$TRACES
  0
POLYLINE
  5
6C
  8
MOSFET$TRACES
 66
     1
 10
0.0
 20
0.0
 30
0.0
 70
     1
  0
VERTEX
  5
6D
  8
MOSFET$TRACES
 10
287.1625688776644
 20
36.48135627582685
 30
0.0
  0
VERTEX
  5
6E
  8
MOSFET$TRACES
 10
285.1625688995894
 20
36.48135627582685
 30
0.0
 42
-1.000000000013363
  0
VERTEX
  5
6F
  8
MOSFET$TRACES
 10
285.1625688996004
 20
37.31135627582685
 30
0.0
  0
VERTEX
  5
70
  8
MOSFET$TRACES
 10
287.1625687997267
 20
37.31135627582683
 30
0.0
 42
-1.000000146731905
  0
SEQEND
  5
71
  8
MOSFET$TRACES
  0
POLYLINE
  5
72
  8
MOSFET$TRACES
 66
     1
 10
0.0
 20
0.0
 30
0.0
 70
     1
  0
VERTEX
  5
73
  8
MOSFET$TRACES
 10
265.164118213294
 20
36.48135627582685
 30
0.0
  0
VERTEX
  5
74
  8
MOSFET$TRACES
 10
267.1641181913691
 20
36.48135627582685
 30
0.0
 42
1.000000000013363
  0
VERTEX
  5
75
  8
MOSFET$TRACES
 10
267.1641181913581
 20
37.31135627582685
 30
0.0
  0
VERTEX
  5
76
  8
MOSFET$TRACES
 10
265.1641182912317
 20
37.31135627582683
 30
0.0
 42
1.000000146731905
  0
SEQEND
  5
77
  8
MOSFET$TRACES
  0
LINE
  5
78
  8
0
 10
286.1614264557776
 20
-35.89635627582686
 30
0.0
 11
244.8898548550252
 21
30.66960683270668
 31
0.0
  0
LINE
  5
79
  8
0
 10
307.8882844198116
 20
35.74960683270675
 30
0.0
 11
286.1614264557776
 21
-35.89635627582686
 31
0.0
  0
LINE
  5
7A
  8
0
 10
244.8898548550252
 20
-35.33039316729332
 30
0.0
 11
286.1614264557776
 21
-35.89635627582686
 31
0.0
  0
LINE
  5
7B
  8
0
 10
286.1614264557776
 20
-35.89635627582686
 30
0.0
 11
307.8882844198116
 21
-30.25039316729325
 31
0.0
  0
LINE
  5
7C
  8
0
 10
266.162975747559
 20
36.89635627582686
 30
0.0
 11
307.8882844198116
 21
-32.79039316729322
 31
0.0
  0
LINE
  5
7D
  8
0
 10
244.8898548550252
 20
-32.79039316729322
 30
0.0
 11
266.162975747559
 21
36.89635627582686
 31
0.0
  0
LINE
  5
7E
  8
0
 10
266.162975747559
 20
36.89635627582686
 30
0.0
 11
307.8882844198116
 21
33.20960683270678
 31
0.0
  0
LINE
  5
7F
  8
0
 10
244.8898548550252
 20
33.20960683270678
 30
0.0
 11
266.162975747559
 21
36.89635627582686
 31
0.0
  0
TEXT
  5
82
  8
MOSFET$MASK
 10
306.0829762330873
 20
29.69494649105565
 30
-0.0000000000000043
 40
1.85005815644804
  1
S
 50
89.9999999999991
  7
MTXPL_CONSOLAS
1001
ACADANNOTATIVE
1000
AnnotativeData
1002
{
1070
     1
1070
     0
1002
}
  0
TEXT
  5
83
  8
MOSFET$MASK
 10
306.0976221316011
 20
32.36928140590305
 30
-0.000000000000001
 40
1.85005815644804
  1
V
 50
89.99999999999936
  7
MTXPL_CONSOLAS
1001
ACADANNOTATIVE
1000
AnnotativeData
1002
{
1070
     1
1070
     0
1002
}
  0
TEXT
  5
84
  8
MOSFET$MASK
 10
305.9676442479964
 20
34.8673523601654
 30
0.000000000000002
 40
1.85005815644804
  1
G
 50
90.00000000000074
  7
MTXPL_CONSOLAS
1001
ACADANNOTATIVE
1000
AnnotativeData
1002
{
1070
     1
1070
     0
1002
}
  0
TEXT
  5
85
  8
MOSFET$MASK
 10
305.9676442479965
 20
-31.13264763983466
 30
-0.000000000000008
 40
1.85005815644804
  1
G
 50
90.00000000000074
  7
MTXPL_CONSOLAS
1001
ACADANNOTATIVE
1000
AnnotativeData
1002
{
1070
     1
1070
     0
1002
}
  0
TEXT
  5
86
  8
MOSFET$MASK
 10
306.0976221316011
 20
-33.63071859409695
 30
0.000000000000004
 40
1.85005815644804
  1
V
 50
89.99999999999936
  7
MTXPL_CONSOLAS
1001
ACADANNOTATIVE
1000
AnnotativeData
1002
{
1070
     1
1070
     0
1002
}
  0
TEXT
  5
87
  8
MOSFET$MASK
 10
306.0829762330873
 20
-36.30505350894435
 30
0.0000000000000168
 40
1.85005815644804
  1
S
 50
89.9999999999991
  7
MTXPL_CONSOLAS
1001
ACADANNOTATIVE
1000
AnnotativeData
1002
{
1070
     1
1070
     0
1002
}
  0
CIRCLE
  5
89
  8
HOLES
 10
244.8898548550252
 20
-32.79039316729322
 30
0.0
 40
0.5
  0
CIRCLE
  5
8A
  8
HOLES
 10
244.8898548550252
 20
-30.25039316729325
 30
0.0
 40
0.5
  0
CIRCLE
  5
8B
  8
HOLES
 10
244.8898548550252
 20
-35.33039316729332
 30
0.0
 40
0.5
  0
POLYLINE
  5
8D
  8
DEFAULT
 66
     1
 10
0.0
 20
0.0
 30
0.0
 70
     1
  0
VERTEX
  5
8E
  8
DEFAULT
 10
243.1797964349084
 20
-27.38909596799917
 30
0.0
  0
VERTEX
  5
8F
  8
DEFAULT
 10
243.1797964349083
 20
-38.17979643490824
 30
0.0
  0
VERTEX
  5
90
  8
DEFAULT
 10
249.6109040320008
 20
-38.17979643490835
 30
0.0
  0
VERTEX
  5
91
  8
DEFAULT
 10
249.6109040320009
 20
-27.38909596799928
 30
0.0
  0
SEQEND
  5
92
  8
DEFAULT
  0
TEXT
  5
93
  8
MOSFET$MASK
 10
246.6951630417496
 20
-29.30332184242388
 30
0.0
 40
1.85005815644804
  1
S
 50
269.9999999999991
  7
MTXPL_CONSOLAS
1001
ACADANNOTATIVE
1000
AnnotativeData
1002
{
1070
     1
1070
     0
1002
}
  0
TEXT
  5
94
  8
MOSFET$MASK
 10
246.6805171432357
 20
-31.97765675727132
 30
0.0
 40
1.85005815644804
  1
V
 50
269.9999999999993
  7
MTXPL_CONSOLAS
1001
ACADANNOTATIVE
1000
AnnotativeData
1002
{
1070
     1
1070
     0
1002
}
  0
TEXT
  5
95
  8
MOSFET$MASK
 10
246.8104950268404
 20
-34.47572771153366
 30
0.0
 40
1.85005815644804
  1
G
 50
270.0000000000007
  7
MTXPL_CONSOLAS
1001
ACADANNOTATIVE
1000
AnnotativeData
1002
{
1070
     1
1070
     0
1002
}
  0
CIRCLE
  5
96
  8
HOLES
 10
-307.8882844198116
 20
-32.79039316729322
 30
0.0
 40
0.5
210
0.0
220
0.0
230
-1.0
  0
CIRCLE
  5
97
  8
HOLES
 10
-307.8882844198116
 20
-30.25039316729325
 30
0.0
 40
0.5
210
0.0
220
0.0
230
-1.0
  0
CIRCLE
  5
98
  8
HOLES
 10
-307.8882844198116
 20
-35.33039316729332
 30
0.0
 40
0.5
210
0.0
220
0.0
230
-1.0
  0
POLYLINE
  5
99
  8
DEFAULT
 66
     1
 10
0.0
 20
0.0
 30
0.0
 70
     1
  0
VERTEX
  5
9A
  8
DEFAULT
 10
309.5983428399284
 20
-27.38909596799917
 30
0.0
  0
VERTEX
  5
9B
  8
DEFAULT
 10
309.5983428399285
 20
-38.17979643490824
 30
0.0
  0
VERTEX
  5
9C
  8
DEFAULT
 10
303.167235242836
 20
-38.17979643490835
 30
0.0
  0
VERTEX
  5
9D
  8
DEFAULT
 10
303.1672352428359
 20
-27.38909596799928
 30
0.0
  0
SEQEND
  5
9E
  8
DEFAULT
  0
POLYLINE
  5
9F
  8
DEFAULT
 66
     1
 10
0.0
 20
0.0
 30
0.0
 70
     1
  0
VERTEX
  5
A0
  8
DEFAULT
 10
309.5983428399284
 20
38.61090403200083
 30
0.0
  0
VERTEX
  5
A1
  8
DEFAULT
 10
309.5983428399285
 20
27.82020356509176
 30
0.0
  0
VERTEX
  5
A2
  8
DEFAULT
 10
303.167235242836
 20
27.82020356509165
 30
0.0
  0
VERTEX
  5
A3
  8
DEFAULT
 10
303.1672352428359
 20
38.61090403200072
 30
0.0
  0
SEQEND
  5
A4
  8
DEFAULT
  0
CIRCLE
  5
A5
  8
HOLES
 10
-307.8882844198116
 20
30.66960683270668
 30
0.0
 40
0.5
210
0.0
220
0.0
230
-1.0
  0
CIRCLE
  5
A6
  8
HOLES
 10
-307.8882844198116
 20
35.74960683270675
 30
0.0
 40
0.5
210
0.0
220
0.0
230
-1.0
  0
CIRCLE
  5
A7
  8
HOLES
 10
-307.8882844198116
 20
33.20960683270678
 30
0.0
 40
0.5
210
0.0
220
0.0
230
-1.0
  0
TEXT
  5
A8
  8
MOSFET$MASK
 10
246.8104950268404
 20
31.52427228846631
 30
0.0
 40
1.85005815644804
  1
G
 50
270.0000000000007
  7
MTXPL_CONSOLAS
1001
ACADANNOTATIVE
1000
AnnotativeData
1002
{
1070
     1
1070
     0
1002
}
  0
TEXT
  5
A9
  8
MOSFET$MASK
 10
246.6805171432357
 20
34.02234324272865
 30
0.0
 40
1.85005815644804
  1
V
 50
269.9999999999993
  7
MTXPL_CONSOLAS
1001
ACADANNOTATIVE
1000
AnnotativeData
1002
{
1070
     1
1070
     0
1002
}
  0
TEXT
  5
AA
  8
MOSFET$MASK
 10
246.6951630417495
 20
36.69667815757609
 30
0.0
 40
1.85005815644804
  1
S
 50
269.9999999999991
  7
MTXPL_CONSOLAS
1001
ACADANNOTATIVE
1000
AnnotativeData
1002
{
1070
     1
1070
     0
1002
}
  0
POLYLINE
  5
AB
  8
DEFAULT
 66
     1
 10
0.0
 20
0.0
 30
0.0
 70
     1
  0
VERTEX
  5
AC
  8
DEFAULT
 10
243.1797964349084
 20
38.61090403200083
 30
0.0
  0
VERTEX
  5
AD
  8
DEFAULT
 10
243.1797964349083
 20
27.82020356509176
 30
0.0
  0
VERTEX
  5
AE
  8
DEFAULT
 10
249.6109040320008
 20
27.82020356509165
 30
0.0
  0
VERTEX
  5
AF
  8
DEFAULT
 10
249.6109040320009
 20
38.61090403200072
 30
0.0
  0
SEQEND
  5
B0
  8
DEFAULT
  0
CIRCLE
  5
B1
  8
HOLES
 10
244.8898548550252
 20
30.66960683270668
 30
0.0
 40
0.5
  0
CIRCLE
  5
B2
  8
HOLES
 10
244.8898548550252
 20
35.74960683270675
 30
0.0
 40
0.5
  0
CIRCLE
  5
B3
  8
HOLES
 10
244.8898548550252
 20
33.20960683270678
 30
0.0
 40
0.5
  0
POLYLINE
  5
B4
  8
MOSFET$TRACES
 66
     1
 10
0.0
 20
0.0
 30
0.0
 70
     1
  0
VERTEX
  5
B5
  8
MOSFET$TRACES
 10
266.6583084013606
 20
-33.04267002141839
 30
0.0
 42
3.156969257699675
  0
VERTEX
  5
B6
  8
MOSFET$TRACES
 10
269.01664939235
 20
-35.40095098160106
 30
0.0
 42
-0.2439947620096419
  0
VERTEX
  5
B7
  8
MOSFET$TRACES
 10
269.5729445014626
 20
-33.64466677560471
 30
0.0
  0
VERTEX
  5
B8
  8
MOSFET$TRACES
 10
276.9812791696231
 20
-26.23614352588222
 30
0.0
  0
VERTEX
  5
B9
  8
MOSFET$TRACES
 10
276.9812791696231
 20
25.72919703691189
 30
0.0
 42
-0.1989090596122253
  0
VERTEX
  5
BA
  8
MOSFET$TRACES
 10
277.5670476079612
 20
27.14339259976704
 30
0.0
  0
VERTEX
  5
BB
  8
MOSFET$TRACES
 10
283.909823757041
 20
33.48633020627098
 30
0.0
 42
-0.2439947620096467
  0
VERTEX
  5
BC
  8
MOSFET$TRACES
 10
285.6660938019761
 20
34.04267002141845
 30
0.0
 42
3.156969257699392
  0
VERTEX
  5
BD
  8
MOSFET$TRACES
 10
283.3077528109868
 20
36.40095098160113
 30
0.0
 42
-0.2439947620096527
  0
VERTEX
  5
BE
  8
MOSFET$TRACES
 10
282.7514577018741
 20
34.6446667756047
 30
0.0
  0
VERTEX
  5
BF
  8
MOSFET$TRACES
 10
275.3431230337135
 20
27.23614352588221
 30
0.0
  0
VERTEX
  5
C0
  8
MOSFET$TRACES
 10
275.3431230337135
 20
-24.72919703691209
 30
0.0
 42
-0.1989090596122099
  0
VERTEX
  5
C1
  8
MOSFET$TRACES
 10
274.7573545953755
 20
-26.14339259976721
 30
0.0
  0
VERTEX
  5
C2
  8
MOSFET$TRACES
 10
268.4145784462959
 20
-32.48633020627094
 30
0.0
 42
-0.2439947620096627
  0
SEQEND
  5
C3
  8
MOSFET$TRACES
  0
CIRCLE
  5
C4
  8
MOSFET$TRACES
 10
286.1614264557776
 20
-35.89635627582686
 30
0.0
 40
2.896356275826691
  0
CIRCLE
  5
C5
  8
MOSFET$TRACES
 10
266.162975747559
 20
36.89635627582686
 30
0.0
 40
2.896356275826691
  0
TEXT
  5
C6
  8
DEFAULT
 10
284.9220677560199
 20
-44.0
 30
0.0
 40
5.0
  1
-
  7
DEFAULT
1001
ACADANNOTATIVE
1000
AnnotativeData
1002
{
1070
     1
1070
     0
1002
}
  0
TEXT
  5
C7
  8
DEFAULT
 10
263.6928728576781
 20
41.0
 30
0.0
 40
5.0
  1
+
  7
DEFAULT
1001
ACADANNOTATIVE
1000
AnnotativeData
1002
{
1070
     1
1070
     0
1002
}
  0
LINE
  5
C8
  8
MOSFET$TRACES
 10
276.3890696374184
 20
47.50000000000012
 30
0.0
 11
276.3890696374186
 21
-47.50000000000025
 31
0.0
  0
CIRCLE
  5
C9
  8
HOLES
 10
242.2890696374179
 20
44.49999999999989
 30
0.0
 40
1.5
  0
CIRCLE
  5
CA
  8
HOLES
 10
-242.2890696374184
 20
-44.50000000000007
 30
0.0
 40
1.5
210
0.0
220
0.0
230
-1.0
  0
CIRCLE
  5
CC
  8
MOSFET
 10
242.2890696374184
 20
-44.50000000000004
 30
0.0
 40
3.00000000000011
  0
CIRCLE
  5
CD
  8
HOLES
 10
-310.4890696374191
 20
44.49999999999994
 30
0.0
 40
1.499999999999986
210
0.0
220
0.0
230
-1.0
  0
CIRCLE
  5
CE
  8
HOLES
 10
310.4890696374189
 20
-44.50000000000003
 30
0.0
 40
1.5
  0
CIRCLE
  5
CF
  8
MOSFET
 10
-310.4890696374189
 20
-44.49999999999999
 30
0.0
 40
3.000000000000115
210
0.0
220
0.0
230
-1.0
  0
CIRCLE
  5
D0
  8
MOSFET
 10
242.2890696374179
 20
44.49999999999984
 30
0.0
 40
3.000000000000012
  0
CIRCLE
  5
D1
  8
MOSFET
 10
-310.4890696374192
 20
44.49999999999989
 30
0.0
 40
3.000000000000024
210
0.0
220
0.0
230
-1.0
  0
POLYLINE
  5
D2
  8
MOSFET$MASK
 66
     1
 10
0.0
 20
0.0
 30
0.0
 70
     1
  0
VERTEX
  5
D3
  8
MOSFET$MASK
 10
313.4890696374187
 20
-44.50000000000062
 30
0.0
  0
VERTEX
  5
D4
  8
MOSFET$MASK
 10
313.4890696374186
 20
44.50000000000058
 30
0.0
 42
0.4142135623730904
  0
VERTEX
  5
D5
  8
MOSFET$MASK
 10
310.489069637419
 20
47.50000000000019
 30
0.0
  0
VERTEX
  5
D6
  8
MOSFET$MASK
 10
242.2890696374178
 20
47.50000000000006
 30
0.0
 42
0.4142135623731023
  0
VERTEX
  5
D7
  8
MOSFET$MASK
 10
239.2890696374182
 20
44.50000000000046
 30
0.0
  0
VERTEX
  5
D8
  8
MOSFET$MASK
 10
239.2890696374182
 20
-44.50000000000068
 30
0.0
 42
0.414213562373093
  0
VERTEX
  5
D9
  8
MOSFET$MASK
 10
242.2890696374178
 20
-47.50000000000026
 30
0.0
  0
VERTEX
  5
DA
  8
MOSFET$MASK
 10
310.4890696374192
 20
-47.50000000000022
 30
0.0
 42
0.4142135623730954
  0
SEQEND
  5
DB
  8
MOSFET$MASK
  0
ENDSEC
  0
EOF
