  0
SECTION
  2
HEADER
  9
$ACADVER
  1
AC1009
  9
$DWGCODEPAGE
  3
ansi_1252
  9
$INSBASE
 10
0.0
 20
0.0
 30
0.0
  9
$EXTMIN
 10
81.72687665177011
 20
-49.99999148321706
 30
0.3304610413994237
  9
$EXTMAX
 10
156.7268766517701
 20
50.00000851678296
 30
1.830461041404593
  9
$LIMMIN
 10
0.0
 20
0.0
  9
$LIMMAX
 10
12.0
 20
9.0
  9
$ORTHOMODE
 70
     0
  9
$REGENMODE
 70
     1
  9
$FILLMODE
 70
     1
  9
$QTEXTMODE
 70
     0
  9
$MIRRTEXT
 70
     1
  9
$DRAGMODE
 70
     2
  9
$LTSCALE
 40
1.0
  9
$OSMODE
 70
    37
  9
$ATTMODE
 70
     1
  9
$TEXTSIZE
 40
0.2
  9
$TRACEWID
 40
0.05
  9
$TEXTSTYLE
  7
STANDARD
  9
$CLAYER
  8
0
  9
$CELTYPE
  6
BYLAYER
  9
$CECOLOR
 62
   256
  9
$DIMSCALE
 40
1.0
  9
$DIMASZ
 40
0.18
  9
$DIMEXO
 40
0.0625
  9
$DIMDLI
 40
0.38
  9
$DIMRND
 40
0.0
  9
$DIMDLE
 40
0.0
  9
$DIMEXE
 40
0.18
  9
$DIMTP
 40
0.0
  9
$DIMTM
 40
0.0
  9
$DIMTXT
 40
0.18
  9
$DIMCEN
 40
0.09
  9
$DIMTSZ
 40
0.0
  9
$DIMTOL
 70
     0
  9
$DIMLIM
 70
     0
  9
$DIMTIH
 70
     1
  9
$DIMTOH
 70
     1
  9
$DIMSE1
 70
     0
  9
$DIMSE2
 70
     0
  9
$DIMTAD
 70
     0
  9
$DIMZIN
 70
     0
  9
$DIMBLK
  1

  9
$DIMASO
 70
     1
  9
$DIMSHO
 70
     1
  9
$DIMPOST
  1

  9
$DIMAPOST
  1

  9
$DIMALT
 70
     0
  9
$DIMALTD
 70
     2
  9
$DIMALTF
 40
25.4
  9
$DIMLFAC
 40
1.0
  9
$DIMTOFL
 70
     0
  9
$DIMTVP
 40
0.0
  9
$DIMTIX
 70
     0
  9
$DIMSOXD
 70
     0
  9
$DIMSAH
 70
     0
  9
$DIMBLK1
  1

  9
$DIMBLK2
  1

  9
$DIMSTYLE
  2
STANDARD_ACAD
  9
$DIMCLRD
 70
     0
  9
$DIMCLRE
 70
     0
  9
$DIMCLRT
 70
     0
  9
$DIMTFAC
 40
1.0
  9
$DIMGAP
 40
0.09
  9
$LUNITS
 70
     2
  9
$LUPREC
 70
     3
  9
$SKETCHINC
 40
0.1
  9
$FILLETRAD
 40
0.0
  9
$AUNITS
 70
     0
  9
$AUPREC
 70
     0
  9
$MENU
  1
.
  9
$ELEVATION
 40
0.0
  9
$PELEVATION
 40
0.0
  9
$THICKNESS
 40
0.0
  9
$LIMCHECK
 70
     0
  9
$CHAMFERA
 40
0.0
  9
$CHAMFERB
 40
0.0
  9
$SKPOLY
 70
     0
  9
$TDCREATE
 40
2460559.731675035
  9
$TDUPDATE
 40
2460559.731688403
  9
$TDINDWG
 40
0.0000000116
  9
$TDUSRTIMER
 40
0.0000000116
  9
$USRTIMER
 70
     1
  9
$ANGBASE
 50
0.0
  9
$ANGDIR
 70
     0
  9
$PDMODE
 70
     0
  9
$PDSIZE
 40
0.0
  9
$PLINEWID
 40
0.0
  9
$COORDS
 70
     1
  9
$SPLFRAME
 70
     0
  9
$SPLINETYPE
 70
     6
  9
$SPLINESEGS
 70
     8
  9
$ATTDIA
 70
     0
  9
$ATTREQ
 70
     1
  9
$HANDLING
 70
     1
  9
$HANDSEED
  5
406
  9
$SURFTAB1
 70
     6
  9
$SURFTAB2
 70
     6
  9
$SURFTYPE
 70
     6
  9
$SURFU
 70
     6
  9
$SURFV
 70
     6
  9
$UCSNAME
  2

  9
$UCSORG
 10
0.0
 20
0.0
 30
0.0
  9
$UCSXDIR
 10
1.0
 20
0.0
 30
0.0
  9
$UCSYDIR
 10
0.0
 20
1.0
 30
0.0
  9
$PUCSNAME
  2

  9
$PUCSORG
 10
0.0
 20
0.0
 30
0.0
  9
$PUCSXDIR
 10
1.0
 20
0.0
 30
0.0
  9
$PUCSYDIR
 10
0.0
 20
1.0
 30
0.0
  9
$USERI1
 70
     0
  9
$USERI2
 70
     0
  9
$USERI3
 70
     0
  9
$USERI4
 70
     0
  9
$USERI5
 70
     0
  9
$USERR1
 40
0.0
  9
$USERR2
 40
0.0
  9
$USERR3
 40
0.0
  9
$USERR4
 40
0.0
  9
$USERR5
 40
0.0
  9
$WORLDVIEW
 70
     1
  9
$SHADEDGE
 70
     3
  9
$SHADEDIF
 70
    70
  9
$TILEMODE
 70
     1
  9
$MAXACTVP
 70
    64
  9
$PLIMCHECK
 70
     0
  9
$PEXTMIN
 10
1.000000000000000E+20
 20
1.000000000000000E+20
 30
1.000000000000000E+20
  9
$PEXTMAX
 10
-1.000000000000000E+20
 20
-1.000000000000000E+20
 30
-1.000000000000000E+20
  9
$PLIMMIN
 10
0.0
 20
0.0
  9
$PLIMMAX
 10
12.0
 20
9.0
  9
$UNITMODE
 70
     0
  9
$VISRETAIN
 70
     1
  9
$PLINEGEN
 70
     0
  9
$PSLTSCALE
 70
     1
  0
ENDSEC
  0
SECTION
  2
TABLES
  0
TABLE
  2
VPORT
 70
     1
  0
VPORT
  2
*ACTIVE
 70
     0
 10
0.0
 20
0.0
 11
1.0
 21
1.0
 12
10.42990654205607
 22
4.5
 13
0.0
 23
0.0
 14
0.5
 24
0.5
 15
0.5
 25
0.5
 16
0.0
 26
0.0
 36
1.0
 17
0.0
 27
0.0
 37
0.0
 40
9.0
 41
1.972972972850329
 42
50.0
 43
0.0
 44
0.0
 50
0.0
 51
0.0
 71
     0
 72
   100
 73
     1
 74
     3
 75
     0
 76
     0
 77
     0
 78
     0
  0
ENDTAB
  0
TABLE
  2
LTYPE
 70
     1
  0
LTYPE
  2
CONTINUOUS
 70
     0
  3
Solid line
 72
    65
 73
     0
 40
0.0
  0
ENDTAB
  0
TABLE
  2
LAYER
 70
     2
  0
LAYER
  2
0
 70
     0
 62
     7
  6
CONTINUOUS
  0
LAYER
  2
MOSFET$TRACES
 70
     0
 62
     7
  6
CONTINUOUS
  0
ENDTAB
  0
TABLE
  2
STYLE
 70
     1
  0
STYLE
  2
STANDARD
 70
     0
 40
0.0
 41
1.0
 50
0.0
 71
     0
 42
0.2
  3
txt
  4

  0
ENDTAB
  0
TABLE
  2
VIEW
 70
     0
  0
ENDTAB
  0
TABLE
  2
UCS
 70
     0
  0
ENDTAB
  0
TABLE
  2
APPID
 70
     2
  0
APPID
  2
ACAD
 70
     0
  0
APPID
  2
RHINO
 70
     0
  0
ENDTAB
  0
TABLE
  2
DIMSTYLE
 70
     1
  0
DIMSTYLE
  2
STANDARD_ACAD
 70
     0
  3

  4

  5

  6

  7

 40
1.0
 41
0.18
 42
0.0625
 43
0.38
 44
0.18
 45
0.0
 46
0.0
 47
0.0
 48
0.0
140
0.18
141
0.09
142
0.0
143
25.4
144
1.0
145
0.0
146
1.0
147
0.09
 71
     0
 72
     0
 73
     1
 74
     1
 75
     0
 76
     0
 77
     0
 78
     0
170
     0
171
     2
172
     0
173
     0
174
     0
175
     0
176
     0
177
     0
178
     0
  0
ENDTAB
  0
ENDSEC
  0
SECTION
  2
BLOCKS
  0
BLOCK
  8
0
  2
$MODEL_SPACE
 70
     0
 10
0.0
 20
0.0
 30
0.0
  3
$MODEL_SPACE
  1

  0
ENDBLK
  5
21
  8
0
  0
BLOCK
 67
     1
  8
0
  2
$PAPER_SPACE
 70
     0
 10
0.0
 20
0.0
 30
0.0
  3
$PAPER_SPACE
  1

  0
ENDBLK
  5
1D
 67
     1
  8
0
  0
ENDSEC
  0
SECTION
  2
ENTITIES
  0
LINE
  5
60
  8
MOSFET$TRACES
 10
153.7268766517701
 20
50.00000851678294
 30
1.830461041404593
 11
84.72687665177011
 21
50.00000851678294
 31
1.830461041404593
  0
ARC
  5
61
  8
MOSFET$TRACES
 10
84.72687665177006
 20
47.00000851678301
 30
1.830461041404593
 40
2.999999999999936
 50
89.99999999999892
 51
180.0000000000013
  0
LINE
  5
62
  8
MOSFET$TRACES
 10
81.72687665177011
 20
47.00000851678294
 30
1.830461041404593
 11
81.72687665177011
 21
-46.99999148321706
 31
1.830461041404593
  0
ARC
  5
63
  8
MOSFET$TRACES
 10
84.72687665177008
 20
-46.99999148321709
 30
1.830461041404593
 40
2.999999999999972
 50
179.9999999999995
 51
270.0000000000005
  0
LINE
  5
64
  8
MOSFET$TRACES
 10
84.72687665177011
 20
-49.99999148321706
 30
1.830461041404593
 11
153.7268766517701
 21
-49.99999148321706
 31
1.830461041404593
  0
ARC
  5
65
  8
MOSFET$TRACES
 10
153.7268766517701
 20
-46.99999148321706
 30
1.830461041404593
 40
3.0
 50
270.0
 51
0.0
  0
LINE
  5
66
  8
MOSFET$TRACES
 10
156.7268766517701
 20
-46.99999148321706
 30
1.830461041404593
 11
156.7268766517701
 21
47.00000851678294
 31
1.830461041404593
  0
ARC
  5
67
  8
MOSFET$TRACES
 10
153.7268766517702
 20
47.00000851678305
 30
1.830461041404593
 40
2.999999999999915
 50
359.999999999998
 51
90.00000000000162
  0
CIRCLE
  5
68
  8
MOSFET$TRACES
 10
-153.7268766517701
 20
47.00000851678297
 30
-1.830461041404593
 40
1.5
210
0.0
220
0.0
230
-1.0
  0
CIRCLE
  5
69
  8
MOSFET$TRACES
 10
-153.7268766517701
 20
-46.99999148321703
 30
-1.830461041404593
 40
1.500000000000028
210
0.0
220
0.0
230
-1.0
  0
CIRCLE
  5
6A
  8
MOSFET$TRACES
 10
-84.72687665177011
 20
-46.99999148321706
 30
-1.830461041404593
 40
1.5
210
0.0
220
0.0
230
-1.0
  0
CIRCLE
  5
6B
  8
MOSFET$TRACES
 10
-84.72687665177011
 20
47.00000851678294
 30
-1.830461041404593
 40
1.5
210
0.0
220
0.0
230
-1.0
  0
LINE
  5
6C
  8
MOSFET$TRACES
 10
88.08476336752123
 20
33.32991070100302
 30
0.3304610414045933
 11
88.08476336754347
 21
-42.21257005841435
 31
0.3304610414045932
  0
ARC
  5
6D
  8
MOSFET$TRACES
 10
-87.59166889741148
 20
-42.21599009498025
 30
-0.3304610414045914
 40
0.4931063304449286
 50
179.6026105933656
 51
233.0921884408201
210
0.0
220
0.0
230
-1.0
  0
ARC
  5
6E
  8
MOSFET$TRACES
 10
88.58476336754362
 20
-43.52501053325518
 30
0.330461041404593
 40
1.150000000000025
 50
127.3052009657925
 51
52.69479903421816
  0
ARC
  5
6F
  8
MOSFET$TRACES
 10
-89.58476336754416
 20
-42.21257005841419
 30
-0.3304610414045927
 40
0.5000000000005649
 50
307.3052009658189
 51
359.9999999999919
210
0.0
220
0.0
230
-1.0
  0
LINE
  5
70
  8
MOSFET$TRACES
 10
89.08476336754359
 20
-42.21257005841426
 30
0.3304610414045932
 11
89.08476336754359
 21
33.3361466706428
 31
0.3304610414045932
  0
ARC
  5
71
  8
MOSFET$TRACES
 10
-89.58476336754359
 20
33.3361466706428
 30
-0.3304610414045931
 40
0.5
 50
0.0
 51
48.0640202192449
210
0.0
220
0.0
230
-1.0
  0
ARC
  5
72
  8
MOSFET$TRACES
 10
88.58127086054822
 20
34.45314542305852
 30
0.3304610414045932
 40
1.001560329954851
 50
311.9359797807685
 51
228.4213138030221
  0
ARC
  5
73
  8
MOSFET$TRACES
 10
-87.58476336752123
 20
33.3299107010012
 30
-0.3304610414045932
 40
0.5
 50
131.5786861969789
 51
179.9999999997908
210
0.0
220
0.0
230
-1.0
  0
LINE
  5
74
  8
MOSFET$TRACES
 10
92.5847633675436
 20
33.33301890141183
 30
0.3304610414045928
 11
92.58476336754343
 21
-42.21257005841449
 31
0.3304610414045928
  0
ARC
  5
75
  8
MOSFET$TRACES
 10
93.0842990709493
 20
-42.21280000620406
 30
0.3304610414045925
 40
0.4995357563309975
 50
179.9736254349174
 51
232.7211735993221
  0
ARC
  5
76
  8
MOSFET$TRACES
 10
-92.08476336754356
 20
-43.52501053325522
 30
-0.3304610414045932
 40
1.149999999999999
 50
127.3052009657855
 51
52.6947990342151
210
0.0
220
0.0
230
-1.0
  0
ARC
  5
77
  8
MOSFET$TRACES
 10
91.08476336754335
 20
-42.2125700584144
 30
0.3304610414045936
 40
0.5000000000002393
 50
307.3052009657941
 51
0.0000000000032569
  0
LINE
  5
78
  8
MOSFET$TRACES
 10
91.58476336754359
 20
-42.21257005841437
 30
0.3304610414045932
 11
91.58476336754364
 21
33.33301890141136
 31
0.3304610414045931
  0
ARC
  5
79
  8
MOSFET$TRACES
 10
91.08476336754364
 20
33.33301890141135
 30
0.3304610414045935
 40
0.5
 50
0.0000000000016284
 51
48.24291565296922
  0
ARC
  5
7A
  8
MOSFET$TRACES
 10
-92.08476336754339
 20
34.45314542305388
 30
-0.3304610414045926
 40
1.001560329952304
 50
311.7570843470363
 51
228.2429156529386
210
0.0
220
0.0
230
-1.0
  0
ARC
  5
7B
  8
MOSFET$TRACES
 10
93.08476336754359
 20
33.33301890141176
 30
0.3304610414045921
 40
0.5
 50
131.7570843470504
 51
179.999999999991
  0
CIRCLE
  5
7C
  8
MOSFET$TRACES
 10
-88.58127086054711
 20
34.4531454230566
 30
-0.3304610414045932
 40
0.415
210
0.0
220
0.0
230
-1.0
  0
CIRCLE
  5
7D
  8
MOSFET$TRACES
 10
-92.0847633675436
 20
34.45314542305417
 30
-0.3304610414045931
 40
0.415
210
0.0
220
0.0
230
-1.0
  0
ARC
  5
7E
  8
MOSFET$TRACES
 10
-101.7367826715821
 20
35.45314542305674
 30
-0.3304610414045932
 40
1.001560329952623
 50
110.289087612455
 51
228.2429156529627
210
0.0
220
0.0
230
-1.0
  0
ARC
  5
7F
  8
MOSFET$TRACES
 10
102.7367826715821
 20
34.33301890141398
 30
0.3304610414045932
 40
0.5
 50
131.7570843470308
 51
179.9999999999959
  0
LINE
  5
80
  8
MOSFET$TRACES
 10
102.2367826715821
 20
34.33301890141401
 30
0.3304610414045932
 11
102.2367826715821
 21
29.78502771984836
 31
0.3304610414045932
  0
LINE
  5
81
  8
MOSFET$TRACES
 10
102.2367826715821
 20
29.78502771984836
 30
0.3304610414045932
 11
96.14421480296005
 21
23.69245985122632
 31
0.3304610414045932
  0
ARC
  5
82
  8
MOSFET$TRACES
 10
96.48140280605499
 20
23.34568522608825
 30
0.3304610414045909
 40
0.4836821167572778
 50
134.1969780292007
 51
180.8030219707918
  0
LINE
  5
83
  8
MOSFET$TRACES
 10
95.99776819355326
 20
23.33890646063294
 30
0.3304610414045927
 11
95.99776819355327
 21
21.87115401175595
 31
0.3304610414045932
  0
ARC
  5
84
  8
MOSFET$TRACES
 10
96.48551063107466
 20
21.86567226316784
 30
0.3304610414045928
 40
0.4877732412985472
 50
179.3560785143109
 51
228.8336065899254
  0
ARC
  5
85
  8
MOSFET$TRACES
 10
-95.49776819355327
 20
20.75312002300597
 30
-0.330461041404593
 40
1.00000000000007
 50
131.8103148957809
 51
318.1896851042295
210
0.0
220
0.0
230
-1.0
  0
ARC
  5
86
  8
MOSFET$TRACES
 10
-95.49776819355318
 20
20.7531200230059
 30
-0.3304610414045932
 40
0.9999999999999538
 50
318.1896851042289
 51
41.81031489578265
210
0.0
220
0.0
230
-1.0
  0
LINE
  5
87
  8
MOSFET$TRACES
 10
94.75241220105335
 20
21.41978668967259
 30
0.3304610414045932
 11
94.83110152688675
 21
21.49847601550607
 31
0.3304610414045932
  0
ARC
  5
88
  8
MOSFET$TRACES
 10
94.49776819355327
 20
21.87115401175605
 30
0.3304610414045967
 40
0.5000000000001148
 50
311.8103148957902
 51
0.0000000000008142
  0
LINE
  5
89
  8
MOSFET$TRACES
 10
94.99776819355338
 20
21.87115401175606
 30
0.3304610414045932
 11
94.99776819355318
 21
23.96022680419268
 31
0.3304610414045931
  0
LINE
  5
8A
  8
MOSFET$TRACES
 10
94.99776819355318
 20
23.96022680419268
 30
0.3304610414045931
 11
101.0903360621753
 21
30.0527946728148
 31
0.3304610414045932
  0
ARC
  5
8B
  8
MOSFET$TRACES
 10
100.7679824043029
 20
30.39342471097271
 30
0.3304610414045973
 40
0.4689783615895232
 50
313.4209350461275
 51
1.579064953856046
  0
LINE
  5
8C
  8
MOSFET$TRACES
 10
101.2367826715821
 20
30.40634806340799
 30
0.3304610414045931
 11
101.2367826715821
 21
34.33301890141396
 31
0.3304610414045932
  0
ARC
  5
8D
  8
MOSFET$TRACES
 10
100.7367826715821
 20
34.33301890141397
 30
0.3304610414045932
 40
0.5
 50
359.9999999999992
 51
48.24291565296639
  0
ARC
  5
8E
  8
MOSFET$TRACES
 10
-101.7367826715821
 20
35.45314542305675
 30
-0.3304610414045932
 40
1.001560329952658
 50
311.7570843470354
 51
19.94302797291639
210
0.0
220
0.0
230
-1.0
  0
ARC
  5
8F
  8
MOSFET$TRACES
 10
100.325267545534
 20
35.96530601644994
 30
0.3304610414045932
 40
0.5
 50
340.0569720270843
 51
44.9999999999977
  0
LINE
  5
90
  8
MOSFET$TRACES
 10
100.6788209361272
 20
36.31885940704321
 30
0.3304610414045932
 11
96.92796400348573
 21
40.06971633968499
 31
0.3304610414045932
  0
ARC
  5
91
  8
MOSFET$TRACES
 10
96.57441061289221
 20
39.71616294909128
 30
0.3304610414045945
 40
0.5000000000004763
 50
45.00000000001498
 51
89.99999999996581
  0
LINE
  5
92
  8
MOSFET$TRACES
 10
96.5744106128925
 20
40.21616294909177
 30
0.3304610414045932
 11
95.66720638238905
 21
40.21616294909177
 31
0.3304610414045932
  0
ARC
  5
93
  8
MOSFET$TRACES
 10
95.66720638238911
 20
39.71616294909172
 30
0.3304610414045928
 40
0.5000000000000426
 50
90.00000000000651
 51
142.6947990342032
  0
ARC
  5
94
  8
MOSFET$TRACES
 10
-94.35476590754848
 20
40.71616294909169
 30
-0.3304610414045932
 40
1.149999999999903
 50
217.3052009657798
 51
322.6947990342202
210
0.0
220
0.0
230
-1.0
  0
ARC
  5
95
  8
MOSFET$TRACES
 10
93.04232543270783
 20
39.71616294909165
 30
0.3304610414045928
 40
0.5000000000001132
 50
37.30520096580202
 51
89.99999999997719
  0
LINE
  5
96
  8
MOSFET$TRACES
 10
93.04232543270803
 20
40.21616294909177
 30
0.3304610414045932
 11
91.80152574768533
 21
40.21616294909177
 31
0.3304610414045932
  0
LINE
  5
97
  8
MOSFET$TRACES
 10
91.80152574768533
 20
40.21616294909177
 30
0.3304610414045932
 11
90.18776057353796
 21
41.82992812323926
 31
0.3304610414045932
  0
LINE
  5
98
  8
MOSFET$TRACES
 10
90.18776057353796
 20
41.82992812323926
 30
0.3304610414045932
 11
90.18776057353796
 21
45.43927176228237
 31
0.3304610414045932
  0
LINE
  5
99
  8
MOSFET$TRACES
 10
90.18776057353796
 20
45.43927176228237
 30
0.3304610414045932
 11
92.75065633235636
 21
48.00216752110089
 31
0.3304610414045932
  0
LINE
  5
9A
  8
MOSFET$TRACES
 10
92.75065633235636
 20
48.00216752110089
 30
0.3304610414045932
 11
97.1309190919203
 21
48.00216752110089
 31
0.3304610414045932
  0
LINE
  5
9B
  8
MOSFET$TRACES
 10
97.1309190919203
 20
48.00216752110089
 30
0.3304610414045932
 11
108.5408761456839
 21
36.59221046733705
 31
0.3304610414045932
  0
LINE
  5
9C
  8
MOSFET$TRACES
 10
108.5408761456839
 20
36.59221046733705
 30
0.3304610414045932
 11
108.540876145684
 21
32.11927262334217
 31
0.3304610414045932
  0
ARC
  5
9D
  8
MOSFET$TRACES
 10
109.0096764129636
 20
32.10634927090684
 30
0.3304610414045961
 40
0.4689783615898959
 50
178.4209350461387
 51
226.5790649538463
  0
LINE
  5
9E
  8
MOSFET$TRACES
 10
108.6873227550907
 20
31.7657192327488
 30
0.3304610414045931
 11
120.7364827214415
 21
19.71655926639812
 31
0.3304610414045932
  0
ARC
  5
9F
  8
MOSFET$TRACES
 10
121.0771127595995
 20
20.03891292427055
 30
0.3304610414045915
 40
0.4689783615896495
 50
223.4209350461135
 51
271.5790649538804
  0
LINE
  5
A0
  8
MOSFET$TRACES
 10
121.090036112035
 20
19.57011265699125
 30
0.3304610414045931
 11
121.9387893229133
 21
19.57011265699123
 31
0.3304610414045932
  0
ARC
  5
A1
  8
MOSFET$TRACES
 10
121.9468758917273
 20
20.05203053941876
 30
0.3304610414045933
 40
0.4819857238535418
 50
269.038668615229
 51
319.1510164889577
  0
ARC
  5
A2
  8
MOSFET$TRACES
 10
-123.0568233116634
 20
19.07011265699127
 30
-0.330461041404593
 40
0.999999999999997
 50
41.81031489576792
 51
318.1896851042257
210
0.0
220
0.0
230
-1.0
  0
ARC
  5
A3
  8
MOSFET$TRACES
 10
121.9387893229133
 20
18.07011265699099
 30
0.3304610414045949
 40
0.5000000000002962
 50
41.81031489579995
 51
89.99999999997883
  0
LINE
  5
A4
  8
MOSFET$TRACES
 10
121.9387893229135
 20
18.57011265699128
 30
0.3304610414045932
 11
120.4687157684752
 21
18.57011265699123
 31
0.3304610414045932
  0
LINE
  5
A5
  8
MOSFET$TRACES
 10
120.4687157684752
 20
18.57011265699123
 30
0.3304610414045932
 11
107.540876145684
 21
31.4979522797825
 31
0.3304610414045928
  0
LINE
  5
A6
  8
MOSFET$TRACES
 10
107.540876145684
 20
31.4979522797825
 30
0.3304610414045928
 11
107.540876145684
 21
35.97089012377739
 31
0.3304610414045932
  0
ARC
  5
A7
  8
MOSFET$TRACES
 10
107.0572415331821
 20
35.97766888923262
 30
0.3304610414045953
 40
0.48368211675743
 50
359.1969780292186
 51
45.80302197078152
  0
LINE
  5
A8
  8
MOSFET$TRACES
 10
107.3944295362773
 20
36.32444351437069
 30
0.3304610414045928
 11
96.86315213895398
 21
46.85572091169422
 31
0.3304610414045932
  0
ARC
  5
A9
  8
MOSFET$TRACES
 10
96.5163775138162
 20
46.51853290859965
 30
0.3304610414045921
 40
0.4836821167568139
 50
44.19697802919307
 51
90.80302197079926
  0
LINE
  5
AA
  8
MOSFET$TRACES
 10
96.50959874836083
 20
47.00216752110092
 30
0.3304610414045928
 11
93.3719766759159
 21
47.002167521101
 31
0.3304610414045932
  0
ARC
  5
AB
  8
MOSFET$TRACES
 10
93.36519791046072
 20
46.51853290859952
 30
0.3304610414045928
 40
0.4836821167570244
 50
89.19697802922299
 51
135.8030219708012
  0
LINE
  5
AC
  8
MOSFET$TRACES
 10
93.01842328532281
 20
46.85572091169427
 30
0.3304610414045928
 11
91.33420718294485
 21
45.17150480931605
 31
0.3304610414045932
  0
ARC
  5
AD
  8
MOSFET$TRACES
 10
91.68776057353794
 20
44.81795141872261
 30
0.3304610414045973
 40
0.499999999999984
 50
134.9999999999724
 51
179.9999999999886
  0
LINE
  5
AE
  8
MOSFET$TRACES
 10
91.18776057353796
 20
44.81795141872271
 30
0.3304610414045932
 11
91.18776057353807
 21
42.4512484667988
 31
0.3304610414045932
  0
ARC
  5
AF
  8
MOSFET$TRACES
 10
91.68776057353767
 20
42.45124846679863
 30
0.3304610414045925
 40
0.4999999999996021
 50
179.9999999999804
 51
225.0000000000092
  0
LINE
  5
B0
  8
MOSFET$TRACES
 10
91.33420718294474
 20
42.09769507620558
 30
0.3304610414045932
 11
92.06929270065177
 21
41.36260955849855
 31
0.3304610414045932
  0
ARC
  5
B1
  8
MOSFET$TRACES
 10
92.422846091245
 20
41.71616294909173
 30
0.3304610414045953
 40
0.4999999999999086
 50
224.999999999996
 51
269.9999999999593
  0
LINE
  5
B2
  8
MOSFET$TRACES
 10
92.42284609124465
 20
41.21616294909182
 30
0.3304610414045932
 11
93.04232543270803
 21
41.21616294909188
 31
0.3304610414045932
  0
ARC
  5
B3
  8
MOSFET$TRACES
 10
93.04232543270811
 20
41.71616294909172
 30
0.3304610414045946
 40
0.4999999999998366
 50
269.9999999999902
 51
322.6947990342059
  0
ARC
  5
B4
  8
MOSFET$TRACES
 10
-94.35476590754857
 20
40.71616294909182
 30
-0.3304610414045932
 40
1.149999999999932
 50
37.30520096578401
 51
142.6947990342122
210
0.0
220
0.0
230
-1.0
  0
ARC
  5
B5
  8
MOSFET$TRACES
 10
95.66720638238925
 20
41.71616294909222
 30
0.3304610414045965
 40
0.5000000000003328
 50
217.3052009658135
 51
269.9999999999902
  0
LINE
  5
B6
  8
MOSFET$TRACES
 10
95.66720638238917
 20
41.21616294909188
 30
0.3304610414045932
 11
97.19573095645205
 21
41.21616294909188
 31
0.3304610414045932
  0
LINE
  5
B7
  8
MOSFET$TRACES
 10
97.19573095645205
 20
41.21616294909188
 30
0.3304610414045932
 11
101.9039058628743
 21
36.50798804266919
 31
0.3304610414045932
  0
ARC
  5
B8
  8
MOSFET$TRACES
 10
102.2574592534675
 20
36.8615414332625
 30
0.3304610414045932
 40
0.5
 50
225.0000000000064
 51
249.7109123875412
  0
CIRCLE
  5
B9
  8
MOSFET$TRACES
 10
-101.7367826715821
 20
35.45314542305675
 30
-0.3304610414045932
 40
0.415
210
0.0
220
0.0
230
-1.0
  0
CIRCLE
  5
BA
  8
MOSFET$TRACES
 10
-104.3877859735886
 20
35.45314542305675
 30
-0.3304610414045932
 40
0.415
210
0.0
220
0.0
230
-1.0
  0
CIRCLE
  5
BB
  8
MOSFET$TRACES
 10
-123.0568233116634
 20
31.77013805704189
 30
-0.3304610414045932
 40
0.415
210
0.0
220
0.0
230
-1.0
  0
CIRCLE
  5
BC
  8
MOSFET$TRACES
 10
-113.2778037536243
 20
20.75312002300598
 30
-0.3304610414045932
 40
0.415
210
0.0
220
0.0
230
-1.0
  0
CIRCLE
  5
BD
  8
MOSFET$TRACES
 10
-113.2778037536242
 20
15.6731098629856
 30
-0.3304610414045932
 40
0.415
210
0.0
220
0.0
230
-1.0
  0
CIRCLE
  5
BE
  8
MOSFET$TRACES
 10
-113.2778037536242
 20
18.21311494299573
 30
-0.3304610414045932
 40
0.415
210
0.0
220
0.0
230
-1.0
  0
CIRCLE
  5
BF
  8
MOSFET$TRACES
 10
-110.3567979116127
 20
-21.56996862317135
 30
-0.3304610414045932
 40
0.415
210
0.0
220
0.0
230
-1.0
  0
CIRCLE
  5
C0
  8
MOSFET$TRACES
 10
-110.3567979116127
 20
-24.10997370318159
 30
-0.3304610414045932
 40
0.415
210
0.0
220
0.0
230
-1.0
  0
CIRCLE
  5
C1
  8
MOSFET$TRACES
 10
-110.3567979116127
 20
-3.789933063100307
 30
-0.3304610414045932
 40
0.415
210
0.0
220
0.0
230
-1.0
  0
CIRCLE
  5
C2
  8
MOSFET$TRACES
 10
-110.3567979116127
 20
-39.3500041832425
 30
-0.3304610414045932
 40
0.415
210
0.0
220
0.0
230
-1.0
  0
CIRCLE
  5
C3
  8
MOSFET$TRACES
 10
-110.3567979116127
 20
-41.89000926325264
 30
-0.3304610414045932
 40
0.415
210
0.0
220
0.0
230
-1.0
  0
CIRCLE
  5
C4
  8
MOSFET$TRACES
 10
-138.25677998573
 20
26.69012789702163
 30
-0.3304610414045932
 40
0.415
210
0.0
220
0.0
230
-1.0
  0
CIRCLE
  5
C5
  8
MOSFET$TRACES
 10
-138.25677998573
 20
24.15012281701149
 30
-0.3304610414045932
 40
0.415
210
0.0
220
0.0
230
-1.0
  0
CIRCLE
  5
C6
  8
MOSFET$TRACES
 10
-138.25677998573
 20
19.07011265699123
 30
-0.3304610414045932
 40
0.415
210
0.0
220
0.0
230
-1.0
  0
CIRCLE
  5
C7
  8
MOSFET$TRACES
 10
-138.25677998573
 20
16.53010757698098
 30
-0.3304610414045932
 40
0.415
210
0.0
220
0.0
230
-1.0
  0
CIRCLE
  5
C8
  8
MOSFET$TRACES
 10
-138.25677998573
 20
13.99010249697085
 30
-0.3304610414045932
 40
0.415
210
0.0
220
0.0
230
-1.0
  0
CIRCLE
  5
C9
  8
MOSFET$TRACES
 10
-138.25677998573
 20
21.61011773700136
 30
-0.3304610414045932
 40
0.415
210
0.0
220
0.0
230
-1.0
  0
CIRCLE
  5
CA
  8
MOSFET$TRACES
 10
-138.25677998573
 20
29.23013297703176
 30
-0.3304610414045932
 40
0.415
210
0.0
220
0.0
230
-1.0
  0
CIRCLE
  5
CB
  8
MOSFET$TRACES
 10
-95.49776819355327
 20
18.21311494299573
 30
-0.3304610414045932
 40
0.415
210
0.0
220
0.0
230
-1.0
  0
CIRCLE
  5
CC
  8
MOSFET$TRACES
 10
-123.0568233116634
 20
29.23013297703176
 30
-0.3304610414045932
 40
0.415
210
0.0
220
0.0
230
-1.0
  0
CIRCLE
  5
CD
  8
MOSFET$TRACES
 10
-123.0568233116634
 20
26.69012789702163
 30
-0.3304610414045932
 40
0.415
210
0.0
220
0.0
230
-1.0
  0
CIRCLE
  5
CE
  8
MOSFET$TRACES
 10
-123.0568233116634
 20
24.15012281701149
 30
-0.3304610414045932
 40
0.415
210
0.0
220
0.0
230
-1.0
  0
CIRCLE
  5
CF
  8
MOSFET$TRACES
 10
-123.0568233116634
 20
21.61011773700136
 30
-0.3304610414045932
 40
0.415
210
0.0
220
0.0
230
-1.0
  0
CIRCLE
  5
D0
  8
MOSFET$TRACES
 10
-123.0568233116634
 20
19.07011265699123
 30
-0.3304610414045932
 40
0.415
210
0.0
220
0.0
230
-1.0
  0
CIRCLE
  5
D1
  8
MOSFET$TRACES
 10
-123.0568233116634
 20
13.99010249697091
 30
-0.3304610414045932
 40
0.415
210
0.0
220
0.0
230
-1.0
  0
CIRCLE
  5
D2
  8
MOSFET$TRACES
 10
-110.3567979116127
 20
1.290077096920186
 30
-0.3304610414045932
 40
0.415
210
0.0
220
0.0
230
-1.0
  0
CIRCLE
  5
D3
  8
MOSFET$TRACES
 10
-110.3567979116127
 20
-6.329938143110553
 30
-0.3304610414045932
 40
0.415
210
0.0
220
0.0
230
-1.0
  0
CIRCLE
  5
D4
  8
MOSFET$TRACES
 10
-110.3567979116127
 20
-8.8699432231208
 30
-0.3304610414045932
 40
0.415
210
0.0
220
0.0
230
-1.0
  0
CIRCLE
  5
D5
  8
MOSFET$TRACES
 10
-110.3567979116127
 20
-11.40994830313105
 30
-0.3304610414045932
 40
0.415
210
0.0
220
0.0
230
-1.0
  0
CIRCLE
  5
D6
  8
MOSFET$TRACES
 10
-110.3567979116127
 20
-16.48995846315154
 30
-0.3304610414045932
 40
0.415
210
0.0
220
0.0
230
-1.0
  0
CIRCLE
  5
D7
  8
MOSFET$TRACES
 10
-110.3567979116127
 20
-19.02996354316178
 30
-0.3304610414045932
 40
0.415
210
0.0
220
0.0
230
-1.0
  0
CIRCLE
  5
D8
  8
MOSFET$TRACES
 10
-110.3567979116127
 20
-26.64997878319184
 30
-0.3304610414045932
 40
0.415
210
0.0
220
0.0
230
-1.0
  0
CIRCLE
  5
D9
  8
MOSFET$TRACES
 10
-110.3567979116127
 20
-29.18998386320209
 30
-0.3304610414045932
 40
0.415
210
0.0
220
0.0
230
-1.0
  0
CIRCLE
  5
DA
  8
MOSFET$TRACES
 10
-110.3567979116127
 20
-31.72998894321233
 30
-0.3304610414045932
 40
0.415
210
0.0
220
0.0
230
-1.0
  0
CIRCLE
  5
DB
  8
MOSFET$TRACES
 10
-110.3567979116127
 20
-34.26999402322258
 30
-0.3304610414045932
 40
0.415
210
0.0
220
0.0
230
-1.0
  0
CIRCLE
  5
DC
  8
MOSFET$TRACES
 10
-110.3567979116127
 20
-13.94995338314129
 30
-0.3304610414045932
 40
0.415
210
0.0
220
0.0
230
-1.0
  0
CIRCLE
  5
DD
  8
MOSFET$TRACES
 10
-110.3567979116127
 20
-13.94995338314129
 30
-0.3304610414045932
 40
0.415
210
0.0
220
0.0
230
-1.0
  0
CIRCLE
  5
DE
  8
MOSFET$TRACES
 10
-110.3567979116127
 20
-36.80999910323237
 30
-0.3304610414045932
 40
0.415
210
0.0
220
0.0
230
-1.0
  0
CIRCLE
  5
DF
  8
MOSFET$TRACES
 10
-95.49776819355327
 20
15.6731098629856
 30
-0.3304610414045932
 40
0.415
210
0.0
220
0.0
230
-1.0
  0
CIRCLE
  5
E0
  8
MOSFET$TRACES
 10
-102.1868766517701
 20
-3.789933063100307
 30
-0.3304610414045932
 40
0.415
210
0.0
220
0.0
230
-1.0
  0
CIRCLE
  5
E1
  8
MOSFET$TRACES
 10
-135.7568487117143
 20
-24.10997370318159
 30
-0.3304610414045932
 40
0.415
210
0.0
220
0.0
230
-1.0
  0
CIRCLE
  5
E2
  8
MOSFET$TRACES
 10
-135.7568487117143
 20
-29.18998386320186
 30
-0.3304610414045932
 40
0.415
210
0.0
220
0.0
230
-1.0
  0
CIRCLE
  5
E3
  8
MOSFET$TRACES
 10
-135.7568487117143
 20
-34.26999402322224
 30
-0.3304610414045932
 40
0.415
210
0.0
220
0.0
230
-1.0
  0
CIRCLE
  5
E4
  8
MOSFET$TRACES
 10
-135.7568487117143
 20
-26.64997878319173
 30
-0.3304610414045932
 40
0.415
210
0.0
220
0.0
230
-1.0
  0
CIRCLE
  5
E5
  8
MOSFET$TRACES
 10
-135.7568487117143
 20
-21.56996862317135
 30
-0.3304610414045932
 40
0.415
210
0.0
220
0.0
230
-1.0
  0
CIRCLE
  5
E6
  8
MOSFET$TRACES
 10
-135.7568487117143
 20
-16.48995846315108
 30
-0.3304610414045932
 40
0.415
210
0.0
220
0.0
230
-1.0
  0
CIRCLE
  5
E7
  8
MOSFET$TRACES
 10
-135.7568487117143
 20
-19.02996354316122
 30
-0.3304610414045932
 40
0.415
210
0.0
220
0.0
230
-1.0
  0
CIRCLE
  5
E8
  8
MOSFET$TRACES
 10
-135.7568487117143
 20
-44.43001434326288
 30
-0.3304610414045932
 40
0.415
210
0.0
220
0.0
230
-1.0
  0
CIRCLE
  5
E9
  8
MOSFET$TRACES
 10
-104.7268766517701
 20
-6.329938143110553
 30
-0.3304610414045932
 40
0.415
210
0.0
220
0.0
230
-1.0
  0
CIRCLE
  5
EA
  8
MOSFET$TRACES
 10
-104.7268766517701
 20
-39.3500041832425
 30
-0.3304610414045932
 40
0.415
210
0.0
220
0.0
230
-1.0
  0
CIRCLE
  5
EB
  8
MOSFET$TRACES
 10
-104.7268766517701
 20
-41.89000926325264
 30
-0.3304610414045932
 40
0.415
210
0.0
220
0.0
230
-1.0
  0
CIRCLE
  5
EC
  8
MOSFET$TRACES
 10
-102.1868766517701
 20
-6.329938143110553
 30
-0.3304610414045932
 40
0.415
210
0.0
220
0.0
230
-1.0
  0
CIRCLE
  5
ED
  8
MOSFET$TRACES
 10
-99.64687665177007
 20
-6.329938143110553
 30
-0.3304610414045932
 40
0.415
210
0.0
220
0.0
230
-1.0
  0
CIRCLE
  5
EE
  8
MOSFET$TRACES
 10
-104.7268766517701
 20
-3.789933063100307
 30
-0.3304610414045932
 40
0.415
210
0.0
220
0.0
230
-1.0
  0
CIRCLE
  5
EF
  8
MOSFET$TRACES
 10
-99.64687665177007
 20
-3.789933063100307
 30
-0.3304610414045932
 40
0.415
210
0.0
220
0.0
230
-1.0
  0
CIRCLE
  5
F0
  8
MOSFET$TRACES
 10
-104.7268766517701
 20
-8.8699432231208
 30
-0.3304610414045932
 40
0.415
210
0.0
220
0.0
230
-1.0
  0
CIRCLE
  5
F1
  8
MOSFET$TRACES
 10
-102.1868766517701
 20
-8.8699432231208
 30
-0.3304610414045932
 40
0.415
210
0.0
220
0.0
230
-1.0
  0
CIRCLE
  5
F2
  8
MOSFET$TRACES
 10
-99.64687665177007
 20
-8.8699432231208
 30
-0.3304610414045932
 40
0.415
210
0.0
220
0.0
230
-1.0
  0
CIRCLE
  5
F3
  8
MOSFET$TRACES
 10
-104.7268766517701
 20
-11.40994830313105
 30
-0.3304610414045932
 40
0.415
210
0.0
220
0.0
230
-1.0
  0
CIRCLE
  5
F4
  8
MOSFET$TRACES
 10
-102.1868766517701
 20
-11.40994830313105
 30
-0.3304610414045932
 40
0.415
210
0.0
220
0.0
230
-1.0
  0
CIRCLE
  5
F5
  8
MOSFET$TRACES
 10
-99.64687665177007
 20
-11.40994830313105
 30
-0.3304610414045932
 40
0.415
210
0.0
220
0.0
230
-1.0
  0
CIRCLE
  5
F6
  8
MOSFET$TRACES
 10
-104.7268766517701
 20
-16.48995846315154
 30
-0.3304610414045932
 40
0.415
210
0.0
220
0.0
230
-1.0
  0
CIRCLE
  5
F7
  8
MOSFET$TRACES
 10
-102.1868766517701
 20
-16.48995846315154
 30
-0.3304610414045932
 40
0.415
210
0.0
220
0.0
230
-1.0
  0
CIRCLE
  5
F8
  8
MOSFET$TRACES
 10
-99.64687665177007
 20
-16.48995846315154
 30
-0.3304610414045932
 40
0.415
210
0.0
220
0.0
230
-1.0
  0
CIRCLE
  5
F9
  8
MOSFET$TRACES
 10
-104.7268766517701
 20
-19.02996354316178
 30
-0.3304610414045932
 40
0.415
210
0.0
220
0.0
230
-1.0
  0
CIRCLE
  5
FA
  8
MOSFET$TRACES
 10
-102.1868766517701
 20
-19.02996354316178
 30
-0.3304610414045932
 40
0.415
210
0.0
220
0.0
230
-1.0
  0
CIRCLE
  5
FB
  8
MOSFET$TRACES
 10
-99.64687665177007
 20
-19.02996354316178
 30
-0.3304610414045932
 40
0.415
210
0.0
220
0.0
230
-1.0
  0
CIRCLE
  5
FC
  8
MOSFET$TRACES
 10
-104.7268766517701
 20
-21.56996862317135
 30
-0.3304610414045932
 40
0.415
210
0.0
220
0.0
230
-1.0
  0
CIRCLE
  5
FD
  8
MOSFET$TRACES
 10
-102.18687665177
 20
-21.56996862317135
 30
-0.3304610414045932
 40
0.415
210
0.0
220
0.0
230
-1.0
  0
CIRCLE
  5
FE
  8
MOSFET$TRACES
 10
-99.64687665177007
 20
-21.56996862317135
 30
-0.3304610414045932
 40
0.415
210
0.0
220
0.0
230
-1.0
  0
CIRCLE
  5
FF
  8
MOSFET$TRACES
 10
-104.7268766517701
 20
-24.10997370318159
 30
-0.3304610414045932
 40
0.415
210
0.0
220
0.0
230
-1.0
  0
CIRCLE
  5
100
  8
MOSFET$TRACES
 10
-102.18687665177
 20
-24.10997370318159
 30
-0.3304610414045932
 40
0.415
210
0.0
220
0.0
230
-1.0
  0
CIRCLE
  5
101
  8
MOSFET$TRACES
 10
-99.64687665177007
 20
-24.10997370318159
 30
-0.3304610414045932
 40
0.415
210
0.0
220
0.0
230
-1.0
  0
CIRCLE
  5
102
  8
MOSFET$TRACES
 10
-104.7268766517701
 20
-26.64997878319184
 30
-0.3304610414045932
 40
0.415
210
0.0
220
0.0
230
-1.0
  0
CIRCLE
  5
103
  8
MOSFET$TRACES
 10
-102.1868766517701
 20
-26.64997878319184
 30
-0.3304610414045932
 40
0.415
210
0.0
220
0.0
230
-1.0
  0
CIRCLE
  5
104
  8
MOSFET$TRACES
 10
-99.64687665177007
 20
-26.64997878319184
 30
-0.3304610414045932
 40
0.415
210
0.0
220
0.0
230
-1.0
  0
CIRCLE
  5
105
  8
MOSFET$TRACES
 10
-104.7268766517701
 20
-29.18998386320209
 30
-0.3304610414045932
 40
0.415
210
0.0
220
0.0
230
-1.0
  0
CIRCLE
  5
106
  8
MOSFET$TRACES
 10
-102.1868766517701
 20
-29.18998386320209
 30
-0.3304610414045932
 40
0.415
210
0.0
220
0.0
230
-1.0
  0
CIRCLE
  5
107
  8
MOSFET$TRACES
 10
-99.64687665177007
 20
-29.18998386320209
 30
-0.3304610414045932
 40
0.415
210
0.0
220
0.0
230
-1.0
  0
CIRCLE
  5
108
  8
MOSFET$TRACES
 10
-104.7268766517701
 20
-31.72998894321233
 30
-0.3304610414045932
 40
0.415
210
0.0
220
0.0
230
-1.0
  0
CIRCLE
  5
109
  8
MOSFET$TRACES
 10
-102.1868766517701
 20
-31.72998894321233
 30
-0.3304610414045932
 40
0.415
210
0.0
220
0.0
230
-1.0
  0
CIRCLE
  5
10A
  8
MOSFET$TRACES
 10
-99.64687665177007
 20
-31.72998894321233
 30
-0.3304610414045932
 40
0.415
210
0.0
220
0.0
230
-1.0
  0
CIRCLE
  5
10B
  8
MOSFET$TRACES
 10
-104.7268766517701
 20
-34.26999402322258
 30
-0.3304610414045932
 40
0.415
210
0.0
220
0.0
230
-1.0
  0
CIRCLE
  5
10C
  8
MOSFET$TRACES
 10
-102.1868766517701
 20
-34.26999402322258
 30
-0.3304610414045932
 40
0.415
210
0.0
220
0.0
230
-1.0
  0
CIRCLE
  5
10D
  8
MOSFET$TRACES
 10
-99.64687665177007
 20
-34.26999402322258
 30
-0.3304610414045932
 40
0.415
210
0.0
220
0.0
230
-1.0
  0
CIRCLE
  5
10E
  8
MOSFET$TRACES
 10
-135.7568487117143
 20
1.290077096920641
 30
-0.3304610414045932
 40
0.415
210
0.0
220
0.0
230
-1.0
  0
CIRCLE
  5
10F
  8
MOSFET$TRACES
 10
-135.7568487117143
 20
-1.249927983089606
 30
-0.3304610414045932
 40
0.415
210
0.0
220
0.0
230
-1.0
  0
CIRCLE
  5
110
  8
MOSFET$TRACES
 10
-135.7568487117143
 20
-3.789933063099852
 30
-0.3304610414045932
 40
0.415
210
0.0
220
0.0
230
-1.0
  0
CIRCLE
  5
111
  8
MOSFET$TRACES
 10
-135.7568487117143
 20
-6.329938143110098
 30
-0.3304610414045932
 40
0.415
210
0.0
220
0.0
230
-1.0
  0
CIRCLE
  5
112
  8
MOSFET$TRACES
 10
-135.7568487117143
 20
-8.869943223120345
 30
-0.3304610414045932
 40
0.415
210
0.0
220
0.0
230
-1.0
  0
CIRCLE
  5
113
  8
MOSFET$TRACES
 10
-135.7568487117143
 20
-11.40994830313059
 30
-0.3304610414045932
 40
0.415
210
0.0
220
0.0
230
-1.0
  0
CIRCLE
  5
114
  8
MOSFET$TRACES
 10
-135.7568487117143
 20
-13.94995338314084
 30
-0.3304610414045932
 40
0.415
210
0.0
220
0.0
230
-1.0
  0
CIRCLE
  5
115
  8
MOSFET$TRACES
 10
-135.7568487117143
 20
-36.80999910323249
 30
-0.3304610414045932
 40
0.415
210
0.0
220
0.0
230
-1.0
  0
CIRCLE
  5
116
  8
MOSFET$TRACES
 10
-138.92687665177
 20
1.290077096920641
 30
-0.3304610414045932
 40
0.415
210
0.0
220
0.0
230
-1.0
  0
CIRCLE
  5
117
  8
MOSFET$TRACES
 10
-138.92687665177
 20
-1.249927983089606
 30
-0.3304610414045932
 40
0.415
210
0.0
220
0.0
230
-1.0
  0
CIRCLE
  5
118
  8
MOSFET$TRACES
 10
-138.92687665177
 20
-3.789933063099852
 30
-0.3304610414045932
 40
0.415
210
0.0
220
0.0
230
-1.0
  0
CIRCLE
  5
119
  8
MOSFET$TRACES
 10
-138.92687665177
 20
-6.329938143110098
 30
-0.3304610414045932
 40
0.415
210
0.0
220
0.0
230
-1.0
  0
CIRCLE
  5
11A
  8
MOSFET$TRACES
 10
-138.92687665177
 20
-8.869943223120345
 30
-0.3304610414045932
 40
0.415
210
0.0
220
0.0
230
-1.0
  0
CIRCLE
  5
11B
  8
MOSFET$TRACES
 10
-138.92687665177
 20
-11.40994830313059
 30
-0.3304610414045932
 40
0.415
210
0.0
220
0.0
230
-1.0
  0
CIRCLE
  5
11C
  8
MOSFET$TRACES
 10
-138.92687665177
 20
-13.94995338314084
 30
-0.3304610414045932
 40
0.415
210
0.0
220
0.0
230
-1.0
  0
CIRCLE
  5
11D
  8
MOSFET$TRACES
 10
-138.92687665177
 20
-36.80999910323249
 30
-0.3304610414045932
 40
0.415
210
0.0
220
0.0
230
-1.0
  0
CIRCLE
  5
11E
  8
MOSFET$TRACES
 10
-135.7568487117143
 20
-39.35000418324273
 30
-0.3304610414045932
 40
0.415
210
0.0
220
0.0
230
-1.0
  0
CIRCLE
  5
11F
  8
MOSFET$TRACES
 10
-138.92687665177
 20
-39.35000418324273
 30
-0.3304610414045932
 40
0.415
210
0.0
220
0.0
230
-1.0
  0
CIRCLE
  5
120
  8
MOSFET$TRACES
 10
-136.462843123703
 20
42.43815939308467
 30
-0.3304610414045932
 40
0.5
210
0.0
220
0.0
230
-1.0
  0
CIRCLE
  5
121
  8
MOSFET$TRACES
 10
-119.937824073665
 20
42.43815939308467
 30
-0.3304610414045932
 40
0.5
210
0.0
220
0.0
230
-1.0
  0
CIRCLE
  5
122
  8
MOSFET$TRACES
 10
-88.58476336754359
 20
-43.52501053325523
 30
-0.3304610414045932
 40
0.5
210
0.0
220
0.0
230
-1.0
  0
CIRCLE
  5
123
  8
MOSFET$TRACES
 10
-92.08476336754359
 20
-43.52501053325523
 30
-0.3304610414045932
 40
0.5
210
0.0
220
0.0
230
-1.0
  0
CIRCLE
  5
124
  8
MOSFET$TRACES
 10
-94.35476590754854
 20
40.71616294909177
 30
-0.3304610414045932
 40
0.5
210
0.0
220
0.0
230
-1.0
  0
CIRCLE
  5
125
  8
MOSFET$TRACES
 10
-144.9958631897181
 20
-45.39000926325275
 30
-0.3304610414045932
 40
0.5
210
0.0
220
0.0
230
-1.0
  0
CIRCLE
  5
126
  8
MOSFET$TRACES
 10
-123.437824073665
 20
42.43815939308467
 30
-0.3304610414045932
 40
0.5
210
0.0
220
0.0
230
-1.0
  0
CIRCLE
  5
127
  8
MOSFET$TRACES
 10
-132.962843123703
 20
42.43815939308467
 30
-0.3304610414045932
 40
0.5
210
0.0
220
0.0
230
-1.0
  0
CIRCLE
  5
128
  8
MOSFET$TRACES
 10
-94.35476590754854
 20
44.21616294909177
 30
-0.3304610414045932
 40
0.5
210
0.0
220
0.0
230
-1.0
  0
CIRCLE
  5
129
  8
MOSFET$TRACES
 10
-95.49776819355327
 20
20.75312002300598
 30
-0.3304610414045932
 40
0.5
210
0.0
220
0.0
230
-1.0
  0
CIRCLE
  5
12A
  8
MOSFET$TRACES
 10
-135.7568487117143
 20
-31.72998894321199
 30
-0.3304610414045932
 40
0.5
210
0.0
220
0.0
230
-1.0
  0
CIRCLE
  5
12B
  8
MOSFET$TRACES
 10
-144.9958631897431
 20
-41.89000926325275
 30
-0.3304610414045932
 40
0.5
210
0.0
220
0.0
230
-1.0
  0
CIRCLE
  5
12C
  8
MOSFET$TRACES
 10
110.3567979116127
 20
-13.94995338314129
 30
0.3304610414045932
 40
0.7
  0
ARC
  5
12D
  8
MOSFET$TRACES
 10
139.2310686757569
 20
-45.33001434326288
 30
0.3304610414045952
 40
0.4999999999999388
 50
44.99999999999252
 51
90.00000000000651
  0
LINE
  5
12E
  8
MOSFET$TRACES
 10
139.2310686757569
 20
-44.83001434326292
 30
0.3304610414045932
 11
136.6949318636794
 21
-44.83001434326288
 31
0.3304610414045933
  0
ARC
  5
12F
  8
MOSFET$TRACES
 10
136.6879689126278
 20
-45.31368477558949
 30
0.3304610414045953
 40
0.48372054927856
 50
89.17522319997272
 51
137.0117153398501
  0
ARC
  5
130
  8
MOSFET$TRACES
 10
-135.7568487117144
 20
-44.43001434326223
 30
-0.3304610414045924
 40
0.800000000000639
 50
223.813061460572
 51
316.1869385395788
210
0.0
220
0.0
230
-1.0
  0
ARC
  5
131
  8
MOSFET$TRACES
 10
134.8265369243149
 20
-45.31178887784645
 30
0.3304610414045943
 40
0.4818372093149524
 50
42.88892009277905
 51
90.92414136756251
  0
LINE
  5
132
  8
MOSFET$TRACES
 10
134.8187655597501
 20
-44.83001434326286
 30
0.3304610414045932
 11
132.7971576987537
 21
-44.8300143432628
 31
0.330461041404593
  0
LINE
  5
133
  8
MOSFET$TRACES
 10
132.7971576987537
 20
-44.83001434326286
 30
0.3304610414045932
 11
122.6740422969333
 21
-34.70689894144232
 31
0.3304610414045932
  0
LINE
  5
134
  8
MOSFET$TRACES
 10
122.6740422969333
 20
-34.7068989414422
 30
0.330461041404593
 11
122.6740422969333
 21
-7.735951366520453
 31
0.3304610414045932
  0
ARC
  5
135
  8
MOSFET$TRACES
 10
122.1740422969334
 20
-7.735951366520414
 30
0.3304610414045945
 40
0.4999999999999147
 50
359.9999999999955
 51
44.99999999992077
  0
LINE
  5
136
  8
MOSFET$TRACES
 10
122.5275956875271
 20
-7.382397975927688
 30
0.3304610414045932
 11
117.4809121323164
 21
-2.335714420716853
 31
0.3304610414045931
  0
ARC
  5
137
  8
MOSFET$TRACES
 10
116.0938136317654
 20
-3.684466433095018
 30
0.3304610414045925
 40
1.934728467027131
 50
44.1969780291923
 51
90.80302197081235
  0
LINE
  5
138
  8
MOSFET$TRACES
 10
116.0666985699435
 20
-1.74992798309006
 30
0.3304610414045932
 11
104.3110165539957
 21
-1.74992798309006
 31
0.3304610414045932
  0
ARC
  5
139
  8
MOSFET$TRACES
 10
104.3110165539959
 20
-2.249927983090399
 30
0.3304610414045932
 40
0.5000000000003384
 50
90.00000000001629
 51
134.9999999999752
  0
LINE
  5
13A
  8
MOSFET$TRACES
 10
103.9574631634025
 20
-1.896374592496727
 30
0.3304610414045932
 11
102.9969964474884
 21
-2.856841308410708
 31
0.3304610414045932
  0
ARC
  5
13B
  8
MOSFET$TRACES
 10
103.3505498380814
 20
-3.210394699003931
 30
0.3304610414045934
 40
0.4999999999997554
 50
134.9999999999802
 51
206.4744533532105
  0
ARC
  5
13C
  8
MOSFET$TRACES
 10
-102.1868766517702
 20
-3.789933063100289
 30
-0.3304610414045932
 40
0.7999999999998629
 50
153.525546646803
 51
219.7151372324343
210
0.0
220
0.0
230
-1.0
  0
ARC
  5
13D
  8
MOSFET$TRACES
 10
103.1868766517615
 20
-4.620595449402755
 30
0.3304610414045976
 40
0.5000000000002128
 50
140.2848627675663
 51
179.9999999975951
  0
LINE
  5
13E
  8
MOSFET$TRACES
 10
102.6868766517613
 20
-4.620595449381767
 30
0.3304610414045932
 11
102.6868766517239
 21
-5.499275756741099
 31
0.3304610414045932
  0
ARC
  5
13F
  8
MOSFET$TRACES
 10
103.1868766517245
 20
-5.499275756762231
 30
0.3304610414045914
 40
0.5000000000006111
 50
179.9999999975785
 51
219.715137235047
  0
ARC
  5
140
  8
MOSFET$TRACES
 10
-102.1868766517696
 20
-6.329938143110226
 30
-0.3304610414045934
 40
0.8000000000005769
 50
140.2848627650257
 51
219.7151372318278
210
0.0
220
0.0
230
-1.0
  0
ARC
  5
141
  8
MOSFET$TRACES
 10
103.18687665177
 20
-7.160600529402451
 30
0.3304610414045967
 40
0.4999999999999885
 50
140.2848627681682
 51
180.0000000000546
  0
LINE
  5
142
  8
MOSFET$TRACES
 10
102.68687665177
 20
-7.160600529402927
 30
0.3304610414045932
 11
102.68687665177
 21
-8.039280836828425
 31
0.3304610414045932
  0
ARC
  5
143
  8
MOSFET$TRACES
 10
103.1868766517703
 20
-8.039280836828294
 30
0.3304610414045985
 40
0.5000000000002842
 50
180.0000000000151
 51
219.71513723186
  0
ARC
  5
144
  8
MOSFET$TRACES
 10
-102.18687665177
 20
-8.86994322312053
 30
-0.3304610414045932
 40
0.8000000000002501
 50
140.2848627681871
 51
219.7151372324504
210
0.0
220
0.0
230
-1.0
  0
ARC
  5
145
  8
MOSFET$TRACES
 10
103.1868766517605
 20
-9.700605609422928
 30
0.330461041404595
 40
0.4999999999992327
 50
140.2848627675461
 51
179.9999999973711
  0
LINE
  5
146
  8
MOSFET$TRACES
 10
102.6868766517613
 20
-9.700605609399986
 30
0.3304610414045932
 11
102.6868766517239
 21
-10.5792859167625
 31
0.3304610414045932
  0
ARC
  5
147
  8
MOSFET$TRACES
 10
103.1868766517245
 20
-10.57928591678354
 30
0.3304610414045932
 40
0.5000000000006679
 50
179.9999999975887
 51
219.7151372350039
  0
ARC
  5
148
  8
MOSFET$TRACES
 10
-102.18687665177
 20
-11.40994830313113
 30
-0.3304610414045934
 40
0.800000000000029
 50
140.2848627650077
 51
219.7151372320233
210
0.0
220
0.0
230
-1.0
  0
ARC
  5
149
  8
MOSFET$TRACES
 10
103.1868766517676
 20
-12.24061068942649
 30
0.3304610414045941
 40
0.5000000000004388
 50
140.2848627680041
 51
179.9999999984949
  0
LINE
  5
14A
  8
MOSFET$TRACES
 10
102.6868766517672
 20
-12.24061068941336
 30
0.3304610414045932
 11
102.6868766517181
 21
-15.65929607679107
 31
0.3304610414045932
  0
ARC
  5
14B
  8
MOSFET$TRACES
 10
103.1868766517184
 20
-15.65929607679817
 30
0.3304610414045985
 40
0.5000000000002984
 50
179.9999999991854
 51
219.7151372353443
  0
ARC
  5
14C
  8
MOSFET$TRACES
 10
-102.1868766517707
 20
-16.48995846315213
 30
-0.3304610414045939
 40
0.7999999999991447
 50
140.2848627645535
 51
219.7151372318277
210
0.0
220
0.0
230
-1.0
  0
ARC
  5
14D
  8
MOSFET$TRACES
 10
103.1868766517701
 20
-17.32062084944366
 30
0.3304610414045906
 40
0.5000000000002276
 50
140.2848627681581
 51
180.0000000000814
  0
LINE
  5
14E
  8
MOSFET$TRACES
 10
102.6868766517699
 20
-17.32062084944437
 30
0.3304610414045932
 11
102.68687665177
 21
-18.19930115686611
 31
0.3304610414045932
  0
ARC
  5
14F
  8
MOSFET$TRACES
 10
103.1868766517703
 20
-18.19930115686929
 30
0.3304610414045914
 40
0.5000000000002558
 50
179.9999999996356
 51
219.7151372318613
  0
ARC
  5
150
  8
MOSFET$TRACES
 10
-102.1868766517699
 20
-19.02996354316152
 30
-0.3304610414045938
 40
0.8000000000002874
 50
140.2848627681886
 51
219.7151372324218
210
0.0
220
0.0
230
-1.0
  0
ARC
  5
151
  8
MOSFET$TRACES
 10
103.1868766517618
 20
-19.86062592946456
 30
0.3304610414045914
 40
0.500000000000668
 50
140.2848627675443
 51
179.9999999973363
  0
LINE
  5
152
  8
MOSFET$TRACES
 10
102.6868766517612
 20
-19.86062592944131
 30
0.3304610414045932
 11
102.6868766517239
 21
-20.73930623680252
 31
0.3304610414045932
  0
ARC
  5
153
  8
MOSFET$TRACES
 10
103.186876651723
 20
-20.73930623682402
 30
0.3304610414045967
 40
0.4999999999991473
 50
179.9999999975362
 51
219.7151372350881
  0
ARC
  5
154
  8
MOSFET$TRACES
 10
-102.1868766517698
 20
-21.56996862317125
 30
-0.3304610414045936
 40
0.8000000000002748
 50
140.2848627650183
 51
219.7151372317711
210
0.0
220
0.0
230
-1.0
  0
ARC
  5
155
  8
MOSFET$TRACES
 10
103.1868766517712
 20
-22.40063100946329
 30
0.3304610414045897
 40
0.5000000000009255
 50
140.2848627681663
 51
180.0000000003688
  0
LINE
  5
156
  8
MOSFET$TRACES
 10
102.6868766517703
 20
-22.40063100946651
 30
0.3304610414045932
 11
102.6868766517701
 21
-23.27931131688979
 31
0.3304610414045932
  0
ARC
  5
157
  8
MOSFET$TRACES
 10
103.1868766517702
 20
-23.27931131689044
 30
0.3304610414045941
 40
0.5000000000000568
 50
179.9999999999259
 51
219.7151372317669
  0
ARC
  5
158
  8
MOSFET$TRACES
 10
-102.1868766517703
 20
-24.10997370318187
 30
-0.330461041404593
 40
0.7999999999996351
 50
140.2848627681524
 51
219.7151372318223
210
0.0
220
0.0
230
-1.0
  0
ARC
  5
159
  8
MOSFET$TRACES
 10
103.1868766517697
 20
-24.94063608947367
 30
0.3304610414045941
 40
0.4999999999999
 50
140.2848627681243
 51
180.0000000001771
  0
LINE
  5
15A
  8
MOSFET$TRACES
 10
102.6868766517698
 20
-24.94063608947522
 30
0.3304610414045932
 11
102.68687665177
 21
-25.8193163968981
 31
0.3304610414045932
  0
ARC
  5
15B
  8
MOSFET$TRACES
 10
103.1868766517698
 20
-25.81931639689805
 30
0.3304610414045897
 40
0.4999999999997584
 50
180.0000000000061
 51
219.7151372319838
  0
ARC
  5
15C
  8
MOSFET$TRACES
 10
-102.1868766517696
 20
-26.64997878319087
 30
-0.3304610414045936
 40
0.8000000000010242
 50
140.2848627682238
 51
219.7151372324642
210
0.0
220
0.0
230
-1.0
  0
ARC
  5
15D
  8
MOSFET$TRACES
 10
103.1868766517615
 20
-27.48064116949477
 30
0.330461041404595
 40
0.5000000000004673
 50
140.2848627675363
 51
179.9999999974881
  0
LINE
  5
15E
  8
MOSFET$TRACES
 10
102.6868766517611
 20
-27.48064116947285
 30
0.3304610414045932
 11
102.6868766517239
 21
-28.35932147683172
 31
0.3304610414045932
  0
ARC
  5
15F
  8
MOSFET$TRACES
 10
103.1868766517236
 20
-28.35932147685299
 30
0.3304610414045932
 40
0.4999999999997442
 50
179.9999999975634
 51
219.7151372351854
  0
ARC
  5
160
  8
MOSFET$TRACES
 10
-102.1868766517694
 20
-29.18998386320125
 30
-0.3304610414045938
 40
0.8000000000011143
 50
140.2848627650686
 51
219.715137232447
210
0.0
220
0.0
230
-1.0
  0
ARC
  5
161
  8
MOSFET$TRACES
 10
103.1868766517599
 20
-30.02064624950425
 30
0.3304610414045897
 40
0.4999999999987089
 50
140.2848627674832
 51
179.9999999977845
  0
LINE
  5
162
  8
MOSFET$TRACES
 10
102.6868766517612
 20
-30.02064624948491
 30
0.3304610414045932
 11
102.6868766517239
 21
-30.89932655684584
 31
0.3304610414045932
  0
ARC
  5
163
  8
MOSFET$TRACES
 10
103.1868766517246
 20
-30.8993265568668
 30
0.3304610414045958
 40
0.5000000000007532
 50
179.9999999975977
 51
219.7151372349394
  0
ARC
  5
164
  8
MOSFET$TRACES
 10
-102.1868766517709
 20
-31.72998894321339
 30
-0.3304610414045936
 40
0.7999999999986391
 50
140.2848627649825
 51
219.7151372324695
210
0.0
220
0.0
230
-1.0
  0
ARC
  5
165
  8
MOSFET$TRACES
 10
103.1868766517618
 20
-32.56065132951544
 30
0.3304610414045914
 40
0.5000000000008734
 50
140.2848627676332
 51
179.9999999975981
  0
LINE
  5
166
  8
MOSFET$TRACES
 10
102.6868766517609
 20
-32.56065132949448
 30
0.3304610414045932
 11
102.6868766517239
 21
-33.43933163685358
 31
0.3304610414045932
  0
ARC
  5
167
  8
MOSFET$TRACES
 10
103.1868766517238
 20
-33.4393316368747
 30
0.3304610414045941
 40
0.4999999999999005
 50
179.9999999975801
 51
219.7151372349122
  0
ARC
  5
168
  8
MOSFET$TRACES
 10
-102.1868766517703
 20
-34.26999402322267
 30
-0.3304610414045932
 40
0.8000000000002081
 50
140.2848627648808
 51
39.71513723168513
210
0.0
220
0.0
230
-1.0
  0
ARC
  5
169
  8
MOSFET$TRACES
 10
101.1868766517694
 20
-33.43933163693062
 30
0.3304610414045932
 40
0.5000000000006227
 50
320.2848627679914
 51
359.9999999999764
  0
LINE
  5
16A
  8
MOSFET$TRACES
 10
101.68687665177
 20
-33.43933163693083
 30
0.3304610414045932
 11
101.6868766517701
 21
-32.56065132950516
 31
0.3304610414045932
  0
ARC
  5
16B
  8
MOSFET$TRACES
 10
101.1868766517695
 20
-32.5606513295045
 30
0.3304610414045958
 40
0.5000000000006821
 50
359.9999999999243
 51
39.71513723182301
  0
ARC
  5
16C
  8
MOSFET$TRACES
 10
-102.1868766517698
 20
-31.72998894321235
 30
-0.3304610414045939
 40
0.7999999999998194
 50
320.2848627681701
 51
39.71513723182895
210
0.0
220
0.0
230
-1.0
  0
ARC
  5
16D
  8
MOSFET$TRACES
 10
101.1868766517698
 20
-30.89932655691963
 30
0.3304610414045967
 40
0.5000000000007963
 50
320.2848627681
 51
0.0000000003533723
  0
LINE
  5
16E
  8
MOSFET$TRACES
 10
101.6868766517706
 20
-30.89932655691655
 30
0.3304610414045932
 11
101.6868766517703
 21
-30.02064624949219
 31
0.3304610414045932
  0
ARC
  5
16F
  8
MOSFET$TRACES
 10
101.1868766517708
 20
-30.0206462494922
 30
0.3304610414045958
 40
0.4999999999994316
 50
0.0000000000008142
 51
39.71513723171177
  0
ARC
  5
170
  8
MOSFET$TRACES
 10
-102.1868766517693
 20
-29.18998386320122
 30
-0.3304610414045934
 40
0.7999999999988903
 50
320.2848627680797
 51
39.7151372323673
210
0.0
220
0.0
230
-1.0
  0
ARC
  5
171
  8
MOSFET$TRACES
 10
101.1868766517791
 20
-28.35932147689916
 30
0.330461041404594
 40
0.5000000000001419
 50
320.2848627674206
 51
359.9999999976966
  0
LINE
  5
172
  8
MOSFET$TRACES
 10
101.6868766517792
 20
-28.35932147691926
 30
0.3304610414045932
 11
101.6868766518163
 21
-27.48064116956391
 31
0.3304610414045932
  0
ARC
  5
173
  8
MOSFET$TRACES
 10
101.1868766518164
 20
-27.48064116954165
 30
0.330461041404594
 40
0.4999999999998721
 50
359.9999999974486
 51
39.71513723526137
  0
ARC
  5
174
  8
MOSFET$TRACES
 10
-102.1868766517712
 20
-26.649978783193
 30
-0.3304610414045932
 40
0.8000000000016407
 50
320.2848627651188
 51
39.71513723237113
210
0.0
220
0.0
230
-1.0
  0
ARC
  5
175
  8
MOSFET$TRACES
 10
101.1868766517796
 20
-25.81931639688941
 30
0.3304610414045967
 40
0.4999999999993945
 50
320.2848627673887
 51
359.9999999973423
  0
LINE
  5
176
  8
MOSFET$TRACES
 10
101.686876651779
 20
-25.8193163969126
 30
0.3304610414045932
 11
101.6868766518163
 21
-24.94063608955014
 31
0.3304610414045932
  0
ARC
  5
177
  8
MOSFET$TRACES
 10
101.1868766518166
 20
-24.94063608952878
 30
0.330461041404594
 40
0.4999999999997016
 50
359.999999997552
 51
39.71513723496298
  0
ARC
  5
178
  8
MOSFET$TRACES
 10
-102.1868766517699
 20
-24.1099737031815
 30
-0.3304610414045936
 40
0.7999999999998064
 50
320.2848627649408
 51
39.71513723183494
210
0.0
220
0.0
230
-1.0
  0
ARC
  5
179
  8
MOSFET$TRACES
 10
101.1868766517697
 20
-23.27931131688953
 30
0.3304610414045914
 40
0.5000000000004691
 50
320.2848627681885
 51
0.0000000000350115
  0
LINE
  5
17A
  8
MOSFET$TRACES
 10
101.6868766517701
 20
-23.27931131688922
 30
0.3304610414045932
 11
101.6868766517701
 21
-22.40063100946657
 31
0.3304610414045932
  0
ARC
  5
17B
  8
MOSFET$TRACES
 10
101.1868766517701
 20
-22.40063100946412
 30
0.3304610414045967
 40
0.500000000000071
 50
359.9999999997195
 51
39.71513723197063
  0
ARC
  5
17C
  8
MOSFET$TRACES
 10
-102.1868766517702
 20
-21.56996862317169
 30
-0.3304610414045928
 40
0.8000000000004239
 50
320.2848627682357
 51
39.71513723238851
210
0.0
220
0.0
230
-1.0
  0
ARC
  5
17D
  8
MOSFET$TRACES
 10
101.1868766517785
 20
-20.73930623686879
 30
0.3304610414045968
 40
0.5000000000002579
 50
320.2848627674862
 51
359.9999999980707
  0
LINE
  5
17E
  8
MOSFET$TRACES
 10
101.6868766517788
 20
-20.73930623688562
 30
0.3304610414045932
 11
101.6868766518163
 21
-19.86062592953107
 31
0.3304610414045932
  0
ARC
  5
17F
  8
MOSFET$TRACES
 10
101.1868766518164
 20
-19.86062592950978
 30
0.3304610414045975
 40
0.4999999999998863
 50
359.9999999975606
 51
39.71513723511814
  0
ARC
  5
180
  8
MOSFET$TRACES
 10
-102.1868766517704
 20
-19.02996354316211
 30
-0.3304610414045934
 40
0.8000000000004379
 50
320.2848627650488
 51
39.71513723186733
210
0.0
220
0.0
230
-1.0
  0
ARC
  5
181
  8
MOSFET$TRACES
 10
101.1868766517696
 20
-18.19930115686938
 30
0.330461041404595
 40
0.5000000000008142
 50
320.2848627682224
 51
0.000000000231239
  0
LINE
  5
182
  8
MOSFET$TRACES
 10
101.6868766517704
 20
-18.19930115686736
 30
0.3304610414045932
 11
101.6868766517701
 21
-17.32062084944255
 31
0.3304610414045932
  0
ARC
  5
183
  8
MOSFET$TRACES
 10
101.1868766517703
 20
-17.3206208494425
 30
0.3304610414045932
 40
0.4999999999998295
 50
359.9999999999947
 51
39.71513723171601
  0
ARC
  5
184
  8
MOSFET$TRACES
 10
-102.1868766517698
 20
-16.48995846315112
 30
-0.3304610414045938
 40
0.7999999999994899
 50
320.2848627681045
 51
39.71513723181875
210
0.0
220
0.0
230
-1.0
  0
ARC
  5
185
  8
MOSFET$TRACES
 10
101.1868766517707
 20
-15.65929607686024
 30
0.3304610414045958
 40
0.4999999999992475
 50
320.2848627681786
 51
0.0000000001624373
  0
LINE
  5
186
  8
MOSFET$TRACES
 10
101.6868766517699
 20
-15.65929607685882
 30
0.3304610414045932
 11
101.6868766517701
 21
-12.24061068942672
 31
0.3304610414045932
  0
ARC
  5
187
  8
MOSFET$TRACES
 10
101.1868766517709
 20
-12.24061068942369
 30
0.330461041404594
 40
0.499999999999261
 50
359.9999999996531
 51
39.7151372319022
  0
ARC
  5
188
  8
MOSFET$TRACES
 10
-102.1868766517708
 20
-11.40994830313154
 30
-0.330461041404593
 40
0.8000000000008799
 50
320.284862768198
 51
39.71513723241349
210
0.0
220
0.0
230
-1.0
  0
ARC
  5
189
  8
MOSFET$TRACES
 10
101.1868766517796
 20
-10.57928591682886
 30
0.3304610414045975
 40
0.4999999999992601
 50
320.2848627675066
 51
359.9999999980162
  0
LINE
  5
18A
  8
MOSFET$TRACES
 10
101.6868766517789
 20
-10.57928591684617
 30
0.3304610414045932
 11
101.6868766518163
 21
-9.700605609489514
 31
0.3304610414045932
  0
ARC
  5
18B
  8
MOSFET$TRACES
 10
101.186876651816
 20
-9.700605609468138
 30
0.3304610414045958
 40
0.5000000000003268
 50
359.9999999975504
 51
39.71513723497769
  0
ARC
  5
18C
  8
MOSFET$TRACES
 10
-102.1868766517698
 20
-8.86994322312065
 30
-0.3304610414045938
 40
0.7999999999997559
 50
320.2848627649643
 51
39.71513723183745
210
0.0
220
0.0
230
-1.0
  0
ARC
  5
18D
  8
MOSFET$TRACES
 10
101.1868766517699
 20
-8.039280836828755
 30
0.3304610414045994
 40
0.5000000000002419
 50
320.284862768179
 51
0.0000000001551093
  0
LINE
  5
18E
  8
MOSFET$TRACES
 10
101.6868766517701
 20
-8.039280836827402
 30
0.3304610414045932
 11
101.6868766517701
 21
-7.16060052940054
 31
0.3304610414045932
  0
ARC
  5
18F
  8
MOSFET$TRACES
 10
101.18687665177
 20
-7.16060052940238
 30
0.3304610414045968
 40
0.5000000000001705
 50
0.0000000002108835
 51
39.71513723180367
  0
ARC
  5
190
  8
MOSFET$TRACES
 10
-102.1868766517699
 20
-6.329938143110486
 30
-0.3304610414045938
 40
0.7999999999998068
 50
320.2848627681504
 51
39.71513723183691
210
0.0
220
0.0
230
-1.0
  0
ARC
  5
191
  8
MOSFET$TRACES
 10
101.1868766517696
 20
-5.499275756818465
 30
0.3304610414045941
 40
0.5000000000005144
 50
320.2848627681898
 51
0.0000000000392862
  0
LINE
  5
192
  8
MOSFET$TRACES
 10
101.6868766517701
 20
-5.499275756818122
 30
0.3304610414045932
 11
101.6868766517701
 21
-4.620595449392283
 31
0.3304610414045932
  0
ARC
  5
193
  8
MOSFET$TRACES
 10
101.1868766517701
 20
-4.620595449392223
 30
0.3304610414045949
 40
0.5000000000000568
 50
359.9999999999931
 51
39.71513723182838
  0
ARC
  5
194
  8
MOSFET$TRACES
 10
-102.1868766517703
 20
-3.789933063100271
 30
-0.3304610414045934
 40
0.8000000000002015
 50
320.2848627681769
 51
39.69534430001199
210
0.0
220
0.0
230
-1.0
  0
ARC
  5
195
  8
MOSFET$TRACES
 10
101.1865897576047
 20
-2.959616178194713
 30
0.330461041404595
 40
0.4999999999993542
 50
320.3046556999419
 51
359.9727262734907
  0
ARC
  5
196
  8
MOSFET$TRACES
 10
-102.1875705730055
 20
-2.960548244177726
 30
-0.3304610414045959
 40
0.5009813528222672
 50
0.0793773996009279
 51
44.99999999999171
210
0.0
220
0.0
230
-1.0
  0
LINE
  5
197
  8
MOSFET$TRACES
 10
101.8333232611768
 20
-2.606300932349143
 30
0.3304610414045932
 11
103.6896962104361
 21
-0.7499279830900605
 31
0.3304610414045932
  0
LINE
  5
198
  8
MOSFET$TRACES
 10
103.6896962104361
 20
-0.7499279830900605
 30
0.3304610414045932
 11
111.0666985699435
 21
-0.7499279830900605
 31
0.3304610414045932
  0
ARC
  5
199
  8
MOSFET$TRACES
 10
111.0666985699435
 20
1.25007201690994
 30
0.3304610414045932
 40
2.0
 50
269.9999999999992
 51
45.00000000000064
  0
LINE
  5
19A
  8
MOSFET$TRACES
 10
112.4809121323166
 20
2.664285579283046
 30
0.3304610414045932
 11
97.47852937801062
 21
17.66666833358915
 31
0.330461041404593
  0
ARC
  5
19B
  8
MOSFET$TRACES
 10
97.13175475287275
 20
17.32948033049442
 30
0.3304610414045925
 40
0.4836821167569865
 50
44.19697802919961
 51
90.8030219708074
  0
LINE
  5
19C
  8
MOSFET$TRACES
 10
97.12497598741732
 20
17.81311494299587
 30
0.3304610414045932
 11
96.43585134551799
 21
17.81311494299586
 31
0.330461041404593
  0
ARC
  5
19D
  8
MOSFET$TRACES
 10
96.42888839446685
 20
17.32944451066851
 30
0.3304610414045943
 40
0.4837205492792993
 50
89.17522320002954
 51
137.0117153395847
  0
ARC
  5
19E
  8
MOSFET$TRACES
 10
-95.49776819355328
 20
18.21311494299582
 30
-0.3304610414045932
 40
0.8000000000000185
 50
223.8130614604066
 51
136.1869385395936
210
0.0
220
0.0
230
-1.0
  0
ARC
  5
19F
  8
MOSFET$TRACES
 10
96.4280799809527
 20
19.09488947757948
 30
0.3304610414045941
 40
0.4818372093150958
 50
222.8889200927626
 51
270.9241413676501
  0
LINE
  5
1A0
  8
MOSFET$TRACES
 10
96.43585134551824
 20
18.61311494299576
 30
0.3304610414045932
 11
97.66345361850237
 21
18.61311494299575
 31
0.3304610414045928
  0
LINE
  5
1A1
  8
MOSFET$TRACES
 10
97.66345361850244
 20
18.61311494299571
 30
0.3304610414045932
 11
123.4758230227237
 21
-7.199254461225678
 31
0.3304610414045932
  0
LINE
  5
1A2
  8
MOSFET$TRACES
 10
123.4758230227237
 20
-7.199254461225679
 30
0.3304610414045928
 11
123.4758230227237
 21
-34.17020203614749
 31
0.3304610414045932
  0
ARC
  5
1A3
  8
MOSFET$TRACES
 10
123.975823022723
 20
-34.17020203614778
 30
0.3304610414045952
 40
0.4999999999992752
 50
179.9999999999658
 51
225.0000000000616
  0
LINE
  5
1A4
  8
MOSFET$TRACES
 10
123.6222696321306
 20
-34.52375542674093
 30
0.3304610414045932
 11
132.9820819392454
 21
-43.88356773385605
 31
0.3304610414045928
  0
ARC
  5
1A5
  8
MOSFET$TRACES
 10
133.3288565643833
 20
-43.54637973076123
 30
0.3304610414045924
 40
0.4836821167570892
 50
224.1969780292024
 51
270.8030219707231
  0
LINE
  5
1A6
  8
MOSFET$TRACES
 10
133.3356353298381
 20
-44.03001434326279
 30
0.3304610414045932
 11
134.8187655597499
 21
-44.03001434326283
 31
0.3304610414045928
  0
ARC
  5
1A7
  8
MOSFET$TRACES
 10
134.8257285108005
 20
-43.54634391093585
 30
0.3304610414045949
 40
0.4837205492789144
 50
269.1752232000979
 51
317.0117153398404
  0
ARC
  5
1A8
  8
MOSFET$TRACES
 10
-135.7568487117141
 20
-44.43001434326363
 30
-0.3304610414045919
 40
0.8000000000007611
 50
43.81306146058409
 51
136.1869385395012
210
0.0
220
0.0
230
-1.0
  0
ARC
  5
1A9
  8
MOSFET$TRACES
 10
136.6871604991135
 20
-43.54823980867938
 30
0.3304610414045924
 40
0.4818372093147678
 50
222.8889200926611
 51
270.9241413673499
  0
LINE
  5
1AA
  8
MOSFET$TRACES
 10
136.6949318636765
 20
-44.03001434326279
 30
0.3304610414045932
 11
139.7695463067662
 21
-44.03001434329897
 31
0.3304610414045928
  0
LINE
  5
1AB
  8
MOSFET$TRACES
 10
139.7695463067662
 20
-44.03001434329897
 30
0.3304610414045928
 11
140.5830946173242
 21
-44.84356265385679
 31
0.3304610414045932
  0
ARC
  5
1AC
  8
MOSFET$TRACES
 10
140.9366480079175
 20
-44.49000926326346
 30
0.3304610414045932
 40
0.5
 50
225.0
 51
270.0000000000196
  0
LINE
  5
1AD
  8
MOSFET$TRACES
 10
140.9366480079176
 20
-44.99000926326346
 30
0.3304610414045932
 11
143.6129315211172
 21
-44.99000926326346
 31
0.3304610414045932
  0
ARC
  5
1AE
  8
MOSFET$TRACES
 10
143.6129315211172
 20
-44.49000926326346
 30
0.3304610414045932
 40
0.5
 50
269.9999999999968
 51
326.9442688495948
  0
ARC
  5
1AF
  8
MOSFET$TRACES
 10
-144.9958631897181
 20
-45.39000926325275
 30
-0.3304610414045932
 40
1.149999999999987
 50
33.05573115041036
 51
326.9442688495905
210
0.0
220
0.0
230
-1.0
  0
ARC
  5
1B0
  8
MOSFET$TRACES
 10
143.6129315211172
 20
-46.29000926324193
 30
0.3304610414045932
 40
0.5000000000000075
 50
33.0557311504072
 51
90.00000000001303
  0
LINE
  5
1B1
  8
MOSFET$TRACES
 10
143.612931521117
 20
-45.79000926324193
 30
0.3304610414045932
 11
140.3981703769224
 21
-45.79000926324193
 31
0.3304610414045932
  0
LINE
  5
1B2
  8
MOSFET$TRACES
 10
140.3981703769224
 20
-45.79000926324193
 30
0.3304610414045932
 11
139.5846220663502
 21
-44.9764609526697
 31
0.3304610414045932
  0
LINE
  5
1B3
  8
MOSFET$TRACES
 10
103.077605403687
 20
0.6436304875132919
 30
0.3304610414045932
 11
100.2933232611639
 21
-2.140651655009833
 31
0.3304610414045932
  0
ARC
  5
1B4
  8
MOSFET$TRACES
 10
100.6468766517571
 20
-2.494205045603053
 30
0.3304610414045932
 40
0.5
 50
135.0000000000001
 51
179.999999996404
  0
LINE
  5
1B5
  8
MOSFET$TRACES
 10
100.1468766517571
 20
-2.494205045571675
 30
0.3304610414045932
 11
100.146876651728
 21
-2.959270676726533
 31
0.3304610414045932
  0
ARC
  5
1B6
  8
MOSFET$TRACES
 10
100.646876651728
 20
-2.959270676757797
 30
0.3304610414045932
 40
0.5
 50
179.9999999964158
 51
219.7151372347277
  0
ARC
  5
1B7
  8
MOSFET$TRACES
 10
-99.64687665177007
 20
-3.789933063100307
 30
-0.3304610414045932
 40
0.8000000000000013
 50
140.2848627652713
 51
219.7151372324307
210
0.0
220
0.0
230
-1.0
  0
ARC
  5
1B8
  8
MOSFET$TRACES
 10
100.6468766517613
 20
-4.620595449402686
 30
0.3304610414045932
 40
0.5
 50
140.2848627675653
 51
179.9999999975773
  0
LINE
  5
1B9
  8
MOSFET$TRACES
 10
100.1468766517613
 20
-4.62059544938154
 30
0.3304610414045932
 11
100.1468766517239
 21
-5.499275756741895
 31
0.3304610414045932
  0
ARC
  5
1BA
  8
MOSFET$TRACES
 10
100.6468766517239
 20
-5.499275756763154
 30
0.3304610414045932
 40
0.5
 50
179.9999999975691
 51
219.7151372350093
  0
ARC
  5
1BB
  8
MOSFET$TRACES
 10
-99.64687665177007
 20
-6.329938143110553
 30
-0.3304610414045932
 40
0.8000000000000252
 50
140.2848627649873
 51
219.7151372324383
210
0.0
220
0.0
230
-1.0
  0
ARC
  5
1BC
  8
MOSFET$TRACES
 10
100.6468766517613
 20
-7.160600529412932
 30
0.3304610414045932
 40
0.5
 50
140.284862767583
 51
179.999999997545
  0
LINE
  5
1BD
  8
MOSFET$TRACES
 10
100.1468766517613
 20
-7.160600529391445
 30
0.3304610414045932
 11
100.1468766517239
 21
-8.039280836752027
 31
0.3304610414045932
  0
ARC
  5
1BE
  8
MOSFET$TRACES
 10
100.6468766517239
 20
-8.039280836773798
 30
0.3304610414045932
 40
0.5
 50
179.9999999975056
 51
219.7151372349834
  0
ARC
  5
1BF
  8
MOSFET$TRACES
 10
-99.64687665177041
 20
-8.86994322312097
 30
-0.3304610414045932
 40
0.799999999999673
 50
140.2848627649722
 51
219.7151372324295
210
0.0
220
0.0
230
-1.0
  0
ARC
  5
1C0
  8
MOSFET$TRACES
 10
100.6468766517613
 20
-9.700605609423121
 30
0.3304610414045932
 40
0.5
 50
140.2848627675674
 51
179.9999999975455
  0
LINE
  5
1C1
  8
MOSFET$TRACES
 10
100.1468766517613
 20
-9.700605609401691
 30
0.3304610414045932
 11
100.1468766517239
 21
-10.57928591676273
 31
0.3304610414045932
  0
ARC
  5
1C2
  8
MOSFET$TRACES
 10
100.6468766517239
 20
-10.57928591678404
 30
0.3304610414045932
 40
0.5
 50
179.999999997561
 51
219.7151372349609
  0
ARC
  5
1C3
  8
MOSFET$TRACES
 10
-99.6468766517703
 20
-11.40994830313122
 30
-0.3304610414045932
 40
0.7999999999997582
 50
140.2848627649641
 51
219.7151372320241
210
0.0
220
0.0
230
-1.0
  0
ARC
  5
1C4
  8
MOSFET$TRACES
 10
100.6468766517672
 20
-12.24061068942638
 30
0.3304610414045932
 40
0.5
 50
140.2848627679722
 51
179.9999999991435
  0
LINE
  5
1C5
  8
MOSFET$TRACES
 10
100.1468766517672
 20
-12.24061068941887
 30
0.3304610414045932
 11
100.1468766517182
 21
-15.65929607678981
 31
0.3304610414045932
  0
ARC
  5
1C6
  8
MOSFET$TRACES
 10
100.6468766517182
 20
-15.65929607679703
 30
0.3304610414045932
 40
0.5
 50
179.9999999991715
 51
219.7151372353866
  0
ARC
  5
1C7
  8
MOSFET$TRACES
 10
-99.64687665177007
 20
-16.48995846315142
 30
-0.3304610414045932
 40
0.8000000000001019
 50
140.2848627645777
 51
219.7151372324247
210
0.0
220
0.0
230
-1.0
  0
ARC
  5
1C8
  8
MOSFET$TRACES
 10
100.6468766517614
 20
-17.3206208494538
 30
0.3304610414045932
 40
0.5
 50
140.2848627675679
 51
179.9999999976314
  0
LINE
  5
1C9
  8
MOSFET$TRACES
 10
100.1468766517614
 20
-17.32062084943311
 30
0.3304610414045932
 11
100.146876651724
 21
-18.1993011567929
 31
0.3304610414045932
  0
ARC
  5
1CA
  8
MOSFET$TRACES
 10
100.646876651724
 20
-18.19930115681422
 30
0.3304610414045932
 40
0.5
 50
179.9999999975614
 51
219.7151372350164
  0
ARC
  5
1CB
  8
MOSFET$TRACES
 10
-99.64687665177007
 20
-19.02996354316167
 30
-0.3304610414045932
 40
0.8000000000001517
 50
140.2848627649967
 51
219.7151372318176
210
0.0
220
0.0
230
-1.0
  0
ARC
  5
1CC
  8
MOSFET$TRACES
 10
100.6468766517703
 20
-19.86062592945342
 30
0.3304610414045932
 40
0.5
 50
140.2848627681836
 51
179.9999999998457
  0
LINE
  5
1CD
  8
MOSFET$TRACES
 10
100.1468766517703
 20
-19.86062592945211
 30
0.3304610414045932
 11
100.1468766517702
 21
-20.73930623687841
 31
0.3304610414045932
  0
ARC
  5
1CE
  8
MOSFET$TRACES
 10
100.6468766517702
 20
-20.7393062368792
 30
0.3304610414045932
 40
0.5
 50
179.99999999991
 51
219.7151372318478
  0
ARC
  5
1CF
  8
MOSFET$TRACES
 10
-99.64687665176984
 20
-21.56996862317112
 30
-0.3304610414045932
 40
0.8000000000003092
 50
140.2848627681983
 51
219.7151372318085
210
0.0
220
0.0
230
-1.0
  0
ARC
  5
1D0
  8
MOSFET$TRACES
 10
100.6468766517702
 20
-22.40063100946304
 30
0.3304610414045932
 40
0.5
 50
140.2848627681614
 51
180.0000000000411
  0
LINE
  5
1D1
  8
MOSFET$TRACES
 10
100.1468766517702
 20
-22.40063100946338
 30
0.3304610414045932
 11
100.1468766517702
 21
-23.27931131689081
 31
0.3304610414045932
  0
ARC
  5
1D2
  8
MOSFET$TRACES
 10
100.6468766517702
 20
-23.27931131689053
 30
0.3304610414045932
 40
0.5
 50
180.0000000000281
 51
219.7151372317513
  0
ARC
  5
1D3
  8
MOSFET$TRACES
 10
-99.6468766517703
 20
-24.10997370318188
 30
-0.3304610414045932
 40
0.799999999999653
 50
140.2848627681509
 51
219.7151372324055
210
0.0
220
0.0
230
-1.0
  0
ARC
  5
1D4
  8
MOSFET$TRACES
 10
100.6468766517615
 20
-24.94063608948369
 30
0.3304610414045932
 40
0.5
 50
140.2848627675777
 51
179.9999999976681
  0
LINE
  5
1D5
  8
MOSFET$TRACES
 10
100.1468766517615
 20
-24.94063608946334
 30
0.3304610414045932
 11
100.146876651724
 21
-25.81931639682284
 31
0.3304610414045932
  0
ARC
  5
1D6
  8
MOSFET$TRACES
 10
100.646876651724
 20
-25.8193163968441
 30
0.3304610414045932
 40
0.5
 50
179.9999999975594
 51
219.7151372350144
  0
ARC
  5
1D7
  8
MOSFET$TRACES
 10
-99.64687665176996
 20
-26.64997878319161
 30
-0.3304610414045932
 40
0.8000000000003014
 50
140.2848627650017
 51
219.7151372318195
210
0.0
220
0.0
230
-1.0
  0
ARC
  5
1D8
  8
MOSFET$TRACES
 10
100.6468766517703
 20
-27.48064116948342
 30
0.3304610414045932
 40
0.5
 50
140.2848627681842
 51
180.0000000000391
  0
LINE
  5
1D9
  8
MOSFET$TRACES
 10
100.1468766517703
 20
-27.48064116948376
 30
0.3304610414045932
 11
100.1468766517703
 21
-28.3593214769096
 31
0.3304610414045932
  0
ARC
  5
1DA
  8
MOSFET$TRACES
 10
100.6468766517703
 20
-28.35932147691011
 30
0.3304610414045932
 40
0.5
 50
179.9999999999475
 51
219.7151372318132
  0
ARC
  5
1DB
  8
MOSFET$TRACES
 10
-99.64687665176996
 20
-29.18998386320192
 30
-0.3304610414045932
 40
0.8000000000002256
 50
140.2848627681792
 51
219.7151372324206
210
0.0
220
0.0
230
-1.0
  0
ARC
  5
1DC
  8
MOSFET$TRACES
 10
100.6468766517615
 20
-30.02064624950424
 30
0.3304610414045932
 40
0.5
 50
140.2848627675747
 51
179.9999999976156
  0
LINE
  5
1DD
  8
MOSFET$TRACES
 10
100.1468766517615
 20
-30.02064624948343
 30
0.3304610414045932
 11
100.1468766517241
 21
-30.89932655684373
 31
0.3304610414045932
  0
ARC
  5
1DE
  8
MOSFET$TRACES
 10
100.6468766517241
 20
-30.89932655686505
 30
0.3304610414045932
 40
0.5
 50
179.999999997561
 51
219.7151372350197
  0
ARC
  5
1DF
  8
MOSFET$TRACES
 10
-99.64687665177007
 20
-31.72998894321228
 30
-0.3304610414045932
 40
0.8000000000000738
 50
140.2848627650107
 51
219.7151372324095
210
0.0
220
0.0
230
-1.0
  0
ARC
  5
1E0
  8
MOSFET$TRACES
 10
100.6468766517617
 20
-32.56065132951437
 30
0.3304610414045932
 40
0.5
 50
140.2848627675806
 51
179.9999999979498
  0
LINE
  5
1E1
  8
MOSFET$TRACES
 10
100.1468766517617
 20
-32.56065132949647
 30
0.3304610414045932
 11
100.1468766517241
 21
-33.43933163685119
 31
0.3304610414045932
  0
ARC
  5
1E2
  8
MOSFET$TRACES
 10
100.6468766517241
 20
-33.43933163687495
 30
0.3304610414045932
 40
0.5
 50
179.9999999972805
 51
219.7151372350624
  0
ARC
  5
1E3
  8
MOSFET$TRACES
 10
-99.6468766517703
 20
-34.26999402322275
 30
-0.3304610414045932
 40
0.800000000000254
 50
140.2848627649986
 51
39.71513723183291
210
0.0
220
0.0
230
-1.0
  0
ARC
  5
1E4
  8
MOSFET$TRACES
 10
98.6468766517703
 20
-33.43933163693055
 30
0.3304610414045932
 40
0.5
 50
320.284862768149
 51
359.999999999917
  0
LINE
  5
1E5
  8
MOSFET$TRACES
 10
99.1468766517703
 20
-33.43933163693123
 30
0.3304610414045932
 11
99.1468766517703
 21
-32.56065132950408
 31
0.3304610414045932
  0
ARC
  5
1E6
  8
MOSFET$TRACES
 10
98.6468766517703
 20
-32.56065132950368
 30
0.3304610414045932
 40
0.5
 50
359.9999999999569
 51
39.71513723179559
  0
ARC
  5
1E7
  8
MOSFET$TRACES
 10
-99.64687665176973
 20
-31.72998894321199
 30
-0.3304610414045932
 40
0.799999999999499
 50
320.2848627681338
 51
39.71513723242992
210
0.0
220
0.0
230
-1.0
  0
ARC
  5
1E8
  8
MOSFET$TRACES
 10
98.64687665177905
 20
-30.89932655690973
 30
0.3304610414045932
 40
0.5
 50
320.2848627675294
 51
359.9999999971246
  0
LINE
  5
1E9
  8
MOSFET$TRACES
 10
99.14687665177905
 20
-30.89932655693474
 30
0.3304610414045932
 11
99.14687665181646
 21
-30.02064624957166
 31
0.3304610414045932
  0
ARC
  5
1EA
  8
MOSFET$TRACES
 10
98.64687665181646
 20
-30.02064624955028
 30
0.3304610414045932
 40
0.5
 50
359.999999997559
 51
39.71513723506822
  0
ARC
  5
1EB
  8
MOSFET$TRACES
 10
-99.64687665177053
 20
-29.18998386320237
 30
-0.3304610414045932
 40
0.8000000000004855
 50
320.284862765003
 51
39.71513723182681
210
0.0
220
0.0
230
-1.0
  0
ARC
  5
1EC
  8
MOSFET$TRACES
 10
98.64687665177019
 20
-28.35932147691005
 30
0.3304610414045932
 40
0.5
 50
320.2848627681516
 51
359.9999999999312
  0
LINE
  5
1ED
  8
MOSFET$TRACES
 10
99.14687665177019
 20
-28.35932147691074
 30
0.3304610414045932
 11
99.1468766517703
 21
-27.48064116948319
 31
0.3304610414045932
  0
ARC
  5
1EE
  8
MOSFET$TRACES
 10
98.6468766517703
 20
-27.48064116948319
 30
0.3304610414045932
 40
0.5
 50
0.0
 51
39.71513723176983
  0
ARC
  5
1EF
  8
MOSFET$TRACES
 10
-99.64687665176984
 20
-26.6499787831915
 30
-0.3304610414045932
 40
0.7999999999995934
 50
320.2848627681252
 51
39.71513723208557
210
0.0
220
0.0
230
-1.0
  0
ARC
  5
1F0
  8
MOSFET$TRACES
 10
98.64687665177394
 20
-25.81931639689537
 30
0.3304610414045932
 40
0.5
 50
320.2848627679011
 51
359.9999999989952
  0
LINE
  5
1F1
  8
MOSFET$TRACES
 10
99.14687665177394
 20
-25.81931639690413
 30
0.3304610414045932
 11
99.14687665178963
 21
-24.94063608950535
 31
0.3304610414045932
  0
ARC
  5
1F2
  8
MOSFET$TRACES
 10
98.64687665178963
 20
-24.94063608950296
 30
0.3304610414045932
 40
0.5
 50
359.9999999997317
 51
39.71513723139192
  0
ARC
  5
1F3
  8
MOSFET$TRACES
 10
-99.6468766517736
 20
-24.10997370318455
 30
-0.3304610414045932
 40
0.8000000000046866
 50
320.2848627657025
 51
39.71513723243122
210
0.0
220
0.0
230
-1.0
  0
ARC
  5
1F4
  8
MOSFET$TRACES
 10
98.64687665177894
 20
-23.27931131687905
 30
0.3304610414045932
 40
0.5
 50
320.2848627675467
 51
359.9999999976905
  0
LINE
  5
1F5
  8
MOSFET$TRACES
 10
99.14687665177894
 20
-23.27931131689922
 30
0.3304610414045932
 11
99.14687665181646
 21
-22.40063100954069
 31
0.3304610414045932
  0
ARC
  5
1F6
  8
MOSFET$TRACES
 10
98.64687665181646
 20
-22.4006310095196
 30
0.3304610414045932
 40
0.5
 50
359.9999999975842
 51
39.71513723509595
  0
ARC
  5
1F7
  8
MOSFET$TRACES
 10
-99.6468766517703
 20
-21.56996862317169
 30
-0.3304610414045932
 40
0.8000000000004146
 50
320.2848627650142
 51
39.71513723184785
210
0.0
220
0.0
230
-1.0
  0
ARC
  5
1F8
  8
MOSFET$TRACES
 10
98.6468766517703
 20
-20.7393062368792
 30
0.3304610414045932
 40
0.5
 50
320.284862768149
 51
359.9999999999434
  0
LINE
  5
1F9
  8
MOSFET$TRACES
 10
99.1468766517703
 20
-20.73930623687966
 30
0.3304610414045932
 11
99.14687665177019
 21
-19.86062592945336
 31
0.3304610414045932
  0
ARC
  5
1FA
  8
MOSFET$TRACES
 10
98.64687665177019
 20
-19.86062592945336
 30
0.3304610414045932
 40
0.5
 50
359.9999999999996
 51
39.71513723179527
  0
ARC
  5
1FB
  8
MOSFET$TRACES
 10
-99.64687665176996
 20
-19.02996354316156
 30
-0.3304610414045932
 40
0.799999999999771
 50
320.2848627681423
 51
39.71513723182856
210
0.0
220
0.0
230
-1.0
  0
ARC
  5
1FC
  8
MOSFET$TRACES
 10
98.64687665177019
 20
-18.19930115686986
 30
0.3304610414045932
 40
0.5
 50
320.284862768166
 51
0.0000000002092551
  0
LINE
  5
1FD
  8
MOSFET$TRACES
 10
99.14687665177019
 20
-18.19930115686805
 30
0.3304610414045932
 11
99.14687665177019
 21
-17.32062084944403
 31
0.3304610414045932
  0
ARC
  5
1FE
  8
MOSFET$TRACES
 10
98.64687665177019
 20
-17.32062084944289
 30
0.3304610414045932
 40
0.5
 50
359.9999999998624
 51
39.71513723177734
  0
ARC
  5
1FF
  8
MOSFET$TRACES
 10
-99.64687665176973
 20
-16.4899584631512
 30
-0.3304610414045932
 40
0.799999999999546
 50
320.284862768133
 51
39.71513723183237
210
0.0
220
0.0
230
-1.0
  0
ARC
  5
200
  8
MOSFET$TRACES
 10
98.64687665177019
 20
-15.65929607685962
 30
0.3304610414045932
 40
0.5
 50
320.2848627681744
 51
359.9999999999642
  0
LINE
  5
201
  8
MOSFET$TRACES
 10
99.14687665177019
 20
-15.65929607685996
 30
0.3304610414045932
 11
99.14687665177019
 21
-12.24061068942262
 31
0.3304610414045932
  0
ARC
  5
202
  8
MOSFET$TRACES
 10
98.64687665177019
 20
-12.24061068942262
 30
0.3304610414045932
 40
0.5
 50
0.0000000000004071
 51
39.7151372318106
  0
ARC
  5
203
  8
MOSFET$TRACES
 10
-99.64687665176996
 20
-11.40994830313082
 30
-0.3304610414045932
 40
0.7999999999997472
 50
320.2848627681557
 51
39.71513723183494
210
0.0
220
0.0
230
-1.0
  0
ARC
  5
204
  8
MOSFET$TRACES
 10
98.64687665177019
 20
-10.57928591683913
 30
0.3304610414045932
 40
0.5
 50
320.284862768169
 51
359.9999999999308
  0
LINE
  5
205
  8
MOSFET$TRACES
 10
99.14687665177019
 20
-10.57928591683969
 30
0.3304610414045932
 11
99.14687665177019
 21
-9.700605609412037
 31
0.3304610414045932
  0
ARC
  5
206
  8
MOSFET$TRACES
 10
98.64687665177019
 20
-9.700605609412094
 30
0.3304610414045932
 40
0.5
 50
0.0000000000020356
 51
39.71513723177979
  0
ARC
  5
207
  8
MOSFET$TRACES
 10
-99.64687665176973
 20
-8.869943223120458
 30
-0.3304610414045932
 40
0.7999999999995837
 50
320.28486276814
 51
39.71513723183244
210
0.0
220
0.0
230
-1.0
  0
ARC
  5
208
  8
MOSFET$TRACES
 10
98.64687665177019
 20
-8.03928083682888
 30
0.3304610414045932
 40
0.5
 50
320.2848627681741
 51
0.0000000001290542
  0
LINE
  5
209
  8
MOSFET$TRACES
 10
99.14687665177019
 20
-8.039280836827743
 30
0.3304610414045932
 11
99.14687665177019
 21
-7.160600529401677
 31
0.3304610414045932
  0
ARC
  5
20A
  8
MOSFET$TRACES
 10
98.64687665177019
 20
-7.160600529402245
 30
0.3304610414045932
 40
0.5
 50
0.0000000000704302
 51
39.71513723180981
  0
ARC
  5
20B
  8
MOSFET$TRACES
 10
-99.64687665176996
 20
-6.329938143110439
 30
-0.3304610414045932
 40
0.7999999999998798
 50
320.2848627681585
 51
39.71513723183202
210
0.0
220
0.0
230
-1.0
  0
ARC
  5
20C
  8
MOSFET$TRACES
 10
98.64687665177007
 20
-5.499275756818747
 30
0.3304610414045932
 40
0.5
 50
320.2848627681773
 51
359.999999999989
  0
LINE
  5
20D
  8
MOSFET$TRACES
 10
99.14687665177007
 20
-5.499275756818804
 30
0.3304610414045932
 11
99.14687665177007
 21
-4.620595449392226
 31
0.3304610414045932
  0
ARC
  5
20E
  8
MOSFET$TRACES
 10
98.64687665177007
 20
-4.620595449392113
 30
0.3304610414045932
 40
0.5
 50
359.9999999999972
 51
39.71513723183067
  0
ARC
  5
20F
  8
MOSFET$TRACES
 10
-99.64687665177019
 20
-3.789933063100307
 30
-0.3304610414045932
 40
0.8000000000000487
 50
320.2848627681746
 51
39.71513723182794
210
0.0
220
0.0
230
-1.0
  0
ARC
  5
210
  8
MOSFET$TRACES
 10
98.64687665177007
 20
-2.959270676808444
 30
0.3304610414045932
 40
0.5
 50
320.2848627681764
 51
359.9999999999992
  0
LINE
  5
211
  8
MOSFET$TRACES
 10
99.14687665177007
 20
-2.959270676808501
 30
0.3304610414045932
 11
99.14687665177007
 21
-1.87288470203049
 31
0.3304610414045932
  0
LINE
  5
212
  8
MOSFET$TRACES
 10
99.14687665177007
 20
-1.87288470203049
 30
0.3304610414045932
 11
102.8098384507209
 21
1.790077096920186
 31
0.3304610414045932
  0
LINE
  5
213
  8
MOSFET$TRACES
 10
102.8098384507209
 20
1.790077096920186
 30
0.3304610414045932
 11
109.5261355252527
 21
1.790077096866867
 31
0.3304610414045932
  0
ARC
  5
214
  8
MOSFET$TRACES
 10
109.5261355252567
 20
2.290077096866867
 30
0.3304610414045932
 40
0.5
 50
269.9999999995441
 51
309.7151372355064
  0
ARC
  5
215
  8
MOSFET$TRACES
 10
-110.3567979116127
 20
1.290077096920186
 30
-0.3304610414045932
 40
0.7999999999999832
 50
50.2848627644968
 51
309.7151372318278
210
0.0
220
0.0
230
-1.0
  0
ARC
  5
216
  8
MOSFET$TRACES
 10
109.5261355253209
 20
0.2900770969202426
 30
0.3304610414045932
 40
0.5
 50
50.28486276817474
 51
90.00000000000162
  0
LINE
  5
217
  8
MOSFET$TRACES
 10
109.5261355253209
 20
0.7900770969202426
 30
0.3304610414045932
 11
103.4311587942805
 21
0.7900770969201858
 31
0.3304610414045932
  0
ARC
  5
218
  8
MOSFET$TRACES
 10
103.4311587942805
 20
0.2900770969201858
 30
0.3304610414045932
 40
0.5
 50
90.0
 51
135.0000000000282
  0
ARC
  5
219
  8
MOSFET$TRACES
 10
-110.3567979116154
 20
-3.78993306309701
 30
-0.3304610414045932
 40
0.8000000000042734
 50
50.28486276454736
 51
309.715137232005
210
0.0
220
0.0
230
-1.0
  0
ARC
  5
21A
  8
MOSFET$TRACES
 10
109.5261355253177
 20
-4.789933063097692
 30
0.3304610414045932
 40
0.5
 50
50.28486276799239
 51
89.99999999928022
  0
LINE
  5
21B
  8
MOSFET$TRACES
 10
109.5261355253241
 20
-4.289933063097692
 30
0.3304610414045932
 11
105.5575390381313
 21
-4.289933063047897
 31
0.3304610414045932
  0
ARC
  5
21C
  8
MOSFET$TRACES
 10
105.557539038125
 20
-4.789933063047897
 30
0.3304610414045932
 40
0.5
 50
89.99999999928022
 51
129.7151372354412
  0
ARC
  5
21D
  8
MOSFET$TRACES
 10
-104.7268766517701
 20
-3.789933063100307
 30
-0.3304610414045932
 40
0.8000000000000049
 50
230.2848627645604
 51
129.7151372318312
210
0.0
220
0.0
230
-1.0
  0
ARC
  5
21E
  8
MOSFET$TRACES
 10
105.557539038062
 20
-2.789933063100307
 30
0.3304610414045932
 40
0.5
 50
230.2848627681684
 51
269.9999999999707
  0
LINE
  5
21F
  8
MOSFET$TRACES
 10
105.5575390380618
 20
-3.289933063100307
 30
0.3304610414045932
 11
109.5261355252967
 21
-3.28993306312509
 31
0.3304610414045932
  0
ARC
  5
220
  8
MOSFET$TRACES
 10
109.5261355252831
 20
-2.78993306312509
 30
0.3304610414045932
 40
0.5
 50
270.0000000015633
 51
309.715137231658
  0
LINE
  5
221
  8
MOSFET$TRACES
 10
123.937824073665
 20
39.68794868093096
 30
0.3304610414045932
 11
121.4565222624775
 21
37.68247135321553
 31
0.3304610414045932
  0
ARC
  5
222
  8
MOSFET$TRACES
 10
121.7546470330706
 20
37.30132691829637
 30
0.3304610414045942
 40
0.483889924581002
 50
128.0319200668166
 51
180.914469316162
  0
LINE
  5
223
  8
MOSFET$TRACES
 10
121.2708187396544
 20
37.29360412081587
 30
0.3304610414045932
 11
121.2708187396545
 21
25.64323417020715
 31
0.3304610414045927
  0
LINE
  5
224
  8
MOSFET$TRACES
 10
121.2708187396544
 20
25.64323417020717
 30
0.3304610414045932
 11
121.8701330859886
 21
25.04391982387295
 31
0.3304610414045932
  0
ARC
  5
225
  8
MOSFET$TRACES
 10
122.2217951666635
 20
25.37828765159317
 30
0.3304610414045931
 40
0.4852505159182575
 50
223.5559261075721
 51
305.1840360648363
  0
ARC
  5
226
  8
MOSFET$TRACES
 10
-123.0568233116634
 20
24.15012281701148
 30
-0.3304610414045931
 40
1.000000000000014
 50
56.26003782761094
 51
318.189685104225
210
0.0
220
0.0
230
-1.0
  0
ARC
  5
227
  8
MOSFET$TRACES
 10
121.9478828799939
 20
23.16743305058008
 30
0.3304610414045976
 40
0.4817304681989357
 50
40.99676571645918
 51
83.57479308634467
  0
ARC
  5
228
  8
MOSFET$TRACES
 10
-122.0647936153961
 20
24.14215251327827
 30
-0.3304610414045961
 40
0.4999999999995798
 50
277.2387560929508
 51
315.0000000000089
210
0.0
220
0.0
230
-1.0
  0
LINE
  5
229
  8
MOSFET$TRACES
 10
121.7112402248031
 20
23.78859912268535
 30
0.3304610414045932
 11
120.2708187396545
 21
25.22902060783413
 31
0.3304610414045929
  0
LINE
  5
22A
  8
MOSFET$TRACES
 10
120.2708187396544
 20
25.22902060783406
 30
0.3304610414045932
 11
120.2708187396544
 21
38.00992902820303
 31
0.3304610414045932
  0
LINE
  5
22B
  8
MOSFET$TRACES
 10
120.2708187396544
 20
38.00992902820303
 30
0.3304610414045932
 11
122.7521205508418
 21
40.01540635591846
 31
0.3304610414045932
  0
ARC
  5
22C
  8
MOSFET$TRACES
 10
122.4539957802492
 20
40.3965507908373
 30
0.3304610414045931
 40
0.4838899245805439
 50
308.0319200668141
 51
0.9144693162016296
  0
LINE
  5
22D
  8
MOSFET$TRACES
 10
122.937824073665
 20
40.40427358831812
 30
0.3304610414045932
 11
122.937824073665
 21
41.1257189182442
 31
0.3304610414045931
  0
ARC
  5
22E
  8
MOSFET$TRACES
 10
122.437824073665
 20
41.12571891824405
 30
0.3304610414045932
 40
0.4999999999999929
 50
0.0
 51
52.69479903420913
  0
ARC
  5
22F
  8
MOSFET$TRACES
 10
-123.4378240736651
 20
42.43815939308479
 30
-0.3304610414045932
 40
1.150000000000128
 50
307.3052009657831
 51
232.6947990342248
210
0.0
220
0.0
230
-1.0
  0
ARC
  5
230
  8
MOSFET$TRACES
 10
124.4378240736648
 20
41.12571891824393
 30
0.3304610414045932
 40
0.4999999999999787
 50
127.3052009657779
 51
180.0
  0
LINE
  5
231
  8
MOSFET$TRACES
 10
123.937824073665
 20
41.12571891824393
 30
0.3304610414045932
 11
123.937824073665
 21
39.68794868093096
 31
0.3304610414045932
  0
LINE
  5
232
  8
MOSFET$TRACES
 10
121.5309809939247
 20
22.11011773700136
 30
0.3304610414045927
 11
121.9387893229135
 21
22.11011773700136
 31
0.3304610414045927
  0
ARC
  5
233
  8
MOSFET$TRACES
 10
121.9387893229135
 20
22.61011773700136
 30
0.3304610414045932
 40
0.5
 50
269.9999999999984
 51
318.1896851042213
  0
ARC
  5
234
  8
MOSFET$TRACES
 10
-123.0568233116634
 20
21.61011773700134
 30
-0.3304610414045931
 40
1.000000000000002
 50
41.81031489578048
 51
318.189685104228
210
0.0
220
0.0
230
-1.0
  0
ARC
  5
235
  8
MOSFET$TRACES
 10
121.9387893229134
 20
20.61011773700142
 30
0.3304610414045932
 40
0.5
 50
41.81031489578102
 51
90.00000000000487
  0
LINE
  5
236
  8
MOSFET$TRACES
 10
121.9387893229133
 20
21.11011773700142
 30
0.3304610414045933
 11
120.9096606503651
 21
21.11011773700136
 31
0.3304610414045933
  0
LINE
  5
237
  8
MOSFET$TRACES
 10
120.9096606503651
 20
21.11011773700136
 30
0.3304610414045933
 11
117.238814675646
 21
24.7809637117205
 31
0.3304610414045933
  0
LINE
  5
238
  8
MOSFET$TRACES
 10
117.238814675646
 20
24.7809637117205
 30
0.3304610414045933
 11
117.238814675646
 21
37.58749494074843
 31
0.3304610414045933
  0
LINE
  5
239
  8
MOSFET$TRACES
 10
117.238814675646
 20
37.58749494074846
 30
0.3304610414045932
 11
117.238814675646
 21
41.00570092695921
 31
0.3304610414045932
  0
LINE
  5
23A
  8
MOSFET$TRACES
 10
117.238814675646
 20
41.00570092695921
 30
0.3304610414045932
 11
118.5913356456252
 21
42.03882380343964
 31
0.3304610414045932
  0
ARC
  5
23B
  8
MOSFET$TRACES
 10
118.2878252768261
 20
42.43616679888771
 30
0.3304610414045932
 40
0.5000000000002872
 50
307.3743932478687
 51
0.0691922820197188
  0
ARC
  5
23C
  8
MOSFET$TRACES
 10
-119.937824073665
 20
42.4381593930849
 30
-0.3304610414045932
 40
1.150000000000136
 50
359.930807717809
 51
285.3204057863347
210
0.0
220
0.0
230
-1.0
  0
ARC
  5
23D
  8
MOSFET$TRACES
 10
119.5018667520228
 20
40.8467948170977
 30
0.3304610414045932
 40
0.4999999999999497
 50
74.67959421365548
 51
127.3743932478798
  0
LINE
  5
23E
  8
MOSFET$TRACES
 10
119.1983563832238
 20
41.24413781254543
 30
0.3304610414045932
 11
118.4353043068469
 21
40.6612806343208
 31
0.3304610414045932
  0
ARC
  5
23F
  8
MOSFET$TRACES
 10
118.738814675646
 20
40.26393763887302
 30
0.3304610414045932
 40
0.5
 50
127.3743932478804
 51
179.9999999999984
  0
LINE
  5
240
  8
MOSFET$TRACES
 10
118.238814675646
 20
40.26393763887302
 30
0.3304610414045932
 11
118.238814675646
 21
37.58749494074846
 31
0.3304610414045932
  0
LINE
  5
241
  8
MOSFET$TRACES
 10
118.2388146756461
 20
37.58749494074851
 30
0.3304610414045932
 11
118.2388146756461
 21
25.19517727409358
 31
0.3304610414045932
  0
LINE
  5
242
  8
MOSFET$TRACES
 10
118.2388146756461
 20
25.19517727409358
 30
0.3304610414045932
 11
121.1774276033316
 21
22.25656434640809
 31
0.3304610414045932
  0
ARC
  5
243
  8
MOSFET$TRACES
 10
121.5309809939248
 20
22.61011773700136
 30
0.3304610414045932
 40
0.4999999999999739
 50
225.0000000000012
 51
270.0000000000032
  0
ARC
  5
244
  8
MOSFET$TRACES
 10
133.962843123703
 20
41.12571891824405
 30
0.3304610414045932
 40
0.5
 50
127.3052009657822
 51
180.0000000000016
  0
LINE
  5
245
  8
MOSFET$TRACES
 10
133.462843123703
 20
41.12571891824399
 30
0.3304610414045932
 11
133.462843123703
 21
38.42104499188281
 31
0.3304610414045932
  0
LINE
  5
246
  8
MOSFET$TRACES
 10
133.462843123703
 20
38.42104499188281
 30
0.3304610414045932
 11
124.0261482155951
 21
28.98435008377498
 31
0.3304610414045932
  0
ARC
  5
247
  8
MOSFET$TRACES
 10
-123.0568233116635
 20
29.23013297703181
 30
-0.3304610414045928
 40
0.9999999999999951
 50
194.2281049962345
 51
359.9999999999987
210
0.0
220
0.0
230
-1.0
  0
ARC
  5
248
  8
MOSFET$TRACES
 10
-123.0499978908346
 20
29.23982845716331
 30
-0.3304610414045924
 40
0.9932219022186507
 50
359.4406900276493
 51
110.269777227955
210
0.0
220
0.0
230
-1.0
  0
ARC
  5
249
  8
MOSFET$TRACES
 10
123.5658828029226
 20
30.62816722770502
 30
0.330461041404594
 40
0.4878721592758499
 50
249.3826226998313
 51
315.9069100445519
  0
LINE
  5
24A
  8
MOSFET$TRACES
 10
123.9162775746128
 20
30.28869300516567
 30
0.3304610414045932
 11
132.3163965142962
 21
38.68881194484916
 31
0.3304610414045926
  0
ARC
  5
24B
  8
MOSFET$TRACES
 10
131.9805666547921
 20
39.03502400849223
 30
0.3304610414045905
 40
0.4823323413856356
 50
314.127897392547
 51
0.8721026074435738
  0
LINE
  5
24C
  8
MOSFET$TRACES
 10
132.462843123703
 20
39.04236533544247
 30
0.3304610414045932
 11
132.462843123703
 21
41.12571891824413
 31
0.3304610414045927
  0
ARC
  5
24D
  8
MOSFET$TRACES
 10
131.962843123703
 20
41.12571891824405
 30
0.3304610414045932
 40
0.5000000000000071
 50
0.0000000000016284
 51
52.69479903421418
  0
ARC
  5
24E
  8
MOSFET$TRACES
 10
-132.962843123703
 20
42.43815939308467
 30
-0.3304610414045932
 40
1.150000000000017
 50
307.3052009657858
 51
232.6947990342161
210
0.0
220
0.0
230
-1.0
  0
ARC
  5
24F
  8
MOSFET$TRACES
 10
135.462843123703
 20
41.12571891824405
 30
0.3304610414045932
 40
0.5
 50
0.0000000000016284
 51
52.69479903421418
  0
ARC
  5
250
  8
MOSFET$TRACES
 10
-136.462843123703
 20
42.43815939308467
 30
-0.3304610414045932
 40
1.149999999999984
 50
307.3052009657869
 51
232.6947990342149
210
0.0
220
0.0
230
-1.0
  0
ARC
  5
251
  8
MOSFET$TRACES
 10
137.462843123703
 20
41.12571891824405
 30
0.3304610414045932
 40
0.5
 50
127.3052009657822
 51
179.9999999999984
  0
LINE
  5
252
  8
MOSFET$TRACES
 10
136.962843123703
 20
41.12571891824405
 30
0.3304610414045932
 11
136.962843123703
 21
38.23803762586806
 31
0.3304610414045932
  0
LINE
  5
253
  8
MOSFET$TRACES
 10
136.962843123703
 20
38.23803762586806
 30
0.3304610414045932
 11
134.3770738523307
 21
35.65226835449573
 31
0.3304610414045932
  0
LINE
  5
254
  8
MOSFET$TRACES
 10
134.3770738523306
 20
35.65226835449568
 30
0.3304610414045931
 11
124.9149333948564
 21
26.1901278970217
 31
0.3304610414045931
  0
LINE
  5
255
  8
MOSFET$TRACES
 10
124.9149333948564
 20
26.1901278970217
 30
0.3304610414045931
 11
124.1748573004134
 21
26.19012789702171
 31
0.3304610414045931
  0
ARC
  5
256
  8
MOSFET$TRACES
 10
124.1675825837208
 20
25.70639465806348
 30
0.3304610414045929
 40
0.4837879369889024
 50
89.13841119019118
 51
139.0512739140387
  0
ARC
  5
257
  8
MOSFET$TRACES
 10
-123.0568233116635
 20
26.69012789702163
 30
-0.3304610414045931
 40
0.9999999999999492
 50
221.8103148957783
 51
0.0000000000038676
210
0.0
220
0.0
230
-1.0
  0
ARC
  5
258
  8
MOSFET$TRACES
 10
-123.0568233116634
 20
26.69012789702176
 30
-0.3304610414045928
 40
0.9999999999998863
 50
359.9999999999957
 51
138.1896851042324
210
0.0
220
0.0
230
-1.0
  0
ARC
  5
259
  8
MOSFET$TRACES
 10
124.1667707315997
 20
27.67204577944975
 30
0.3304610414045915
 40
0.4819857238541294
 50
220.8489835110672
 51
270.9613313847377
  0
LINE
  5
25A
  8
MOSFET$TRACES
 10
124.1748573004135
 20
27.19012789702163
 30
0.3304610414045932
 11
124.2936130512969
 21
27.19012789702162
 31
0.3304610414045932
  0
ARC
  5
25B
  8
MOSFET$TRACES
 10
124.3003918167521
 20
27.67376250952304
 30
0.3304610414045951
 40
0.4836821167569678
 50
269.1969780292212
 51
315.8030219708138
  0
LINE
  5
25C
  8
MOSFET$TRACES
 10
124.64716644189
 20
27.33657450642841
 30
0.3304610414045932
 11
133.6699670711441
 21
36.35937513568231
 31
0.3304610414045932
  0
LINE
  5
25D
  8
MOSFET$TRACES
 10
133.669967071144
 20
36.35937513568228
 30
0.3304610414045932
 11
135.8163965142962
 21
38.50580457883444
 31
0.3304610414045932
  0
ARC
  5
25E
  8
MOSFET$TRACES
 10
135.462843123703
 20
38.85935796942772
 30
0.3304610414045932
 40
0.5
 50
315.0
 51
0.0000000000016284
  0
LINE
  5
25F
  8
MOSFET$TRACES
 10
135.962843123703
 20
38.85935796942783
 30
0.3304610414045932
 11
135.962843123703
 21
41.12571891824405
 31
0.3304610414045932
  0
ARC
  5
260
  8
MOSFET$TRACES
 10
105.3707424582429
 20
31.9712975522196
 30
0.3304610414045925
 40
0.4830080794368171
 50
179.1625339855861
 51
225.8374660144325
  0
LINE
  5
261
  8
MOSFET$TRACES
 10
105.0342325829954
 20
31.62480381683304
 30
0.3304610414045932
 11
116.6708329695817
 21
19.9882034302469
 31
0.330461041404593
  0
LINE
  5
262
  8
MOSFET$TRACES
 10
116.6708329695816
 20
19.98820343024693
 30
0.3304610414045932
 11
116.6697061832577
 21
18.91468364595698
 31
0.3304610414045932
  0
ARC
  5
263
  8
MOSFET$TRACES
 10
117.1526568432591
 20
18.90710736355383
 30
0.330461041404595
 40
0.4830100827629047
 50
179.10124690173
 51
225.838614404912
  0
LINE
  5
264
  8
MOSFET$TRACES
 10
116.8161525172399
 20
18.56060544635716
 30
0.3304610414045932
 11
120.7371307325548
 21
14.63962723104219
 31
0.330461041404593
  0
ARC
  5
265
  8
MOSFET$TRACES
 10
121.0836122742493
 20
14.97614538213939
 30
0.3304610414045963
 40
0.483005098060958
 50
224.1642459742156
 51
270.7460893423205
  0
LINE
  5
266
  8
MOSFET$TRACES
 10
121.0899016514928
 20
14.49318123389776
 30
0.3304610414045932
 11
121.9395731636288
 21
14.4918515445203
 31
0.330461041404593
  0
ARC
  5
267
  8
MOSFET$TRACES
 10
121.9479053354401
 20
14.97489815136067
 30
0.3304610414045964
 40
0.4831184631817445
 50
269.0117911334819
 51
318.9985646037852
  0
ARC
  5
268
  8
MOSFET$TRACES
 10
-123.0568233116633
 20
13.99010249697077
 30
-0.330461041404593
 40
1.000000000000031
 50
41.89997957925423
 51
318.2793497877111
210
0.0
220
0.0
230
-1.0
  0
ARC
  5
269
  8
MOSFET$TRACES
 10
121.9453384209029
 20
13.00991795822191
 30
0.3304610414045909
 40
0.481990553562695
 50
40.75958723088684
 51
90.87139829794194
  0
LINE
  5
26A
  8
MOSFET$TRACES
 10
121.938008220318
 20
13.49185276904495
 30
0.3304610414045932
 11
120.4683917629186
 21
13.49415263830525
 31
0.3304610414045928
  0
LINE
  5
26B
  8
MOSFET$TRACES
 10
120.4683917629186
 20
13.49415263830531
 30
0.3304610414045932
 11
115.669053616832
 21
18.29349078439191
 31
0.3304610414045932
  0
LINE
  5
26C
  8
MOSFET$TRACES
 10
115.669053616832
 20
18.29349078439191
 30
0.3304610414045932
 11
115.6701804031559
 21
19.36701056868185
 31
0.3304610414045932
  0
ARC
  5
26D
  8
MOSFET$TRACES
 10
115.1865282864563
 20
19.37429672940561
 30
0.3304610414045943
 40
0.4837069961516268
 50
359.1369112905529
 51
45.80295001609569
  0
LINE
  5
26E
  8
MOSFET$TRACES
 10
115.5237340691738
 20
19.72108876828179
 30
0.3304610414045932
 11
103.8877859735885
 21
31.35703686386656
 31
0.3304610414045928
  0
LINE
  5
26F
  8
MOSFET$TRACES
 10
103.8877859735886
 20
31.3570368638666
 30
0.3304610414045932
 11
103.8877859735886
 21
34.33511143430678
 31
0.3304610414045932
  0
ARC
  5
270
  8
MOSFET$TRACES
 10
103.3877859735886
 20
34.33511143430678
 30
0.3304610414045932
 40
0.5
 50
0.0000000000032569
 51
48.18968510422037
  0
ARC
  5
271
  8
MOSFET$TRACES
 10
-104.3877859735887
 20
35.45314542305672
 30
-0.3304610414045924
 40
1.000000000000041
 50
311.8103148957768
 51
21.64377402894233
210
0.0
220
0.0
230
-1.0
  0
ARC
  5
272
  8
MOSFET$TRACES
 10
102.5589877925448
 20
36.19705539817194
 30
0.3304610414045937
 40
0.9743857866416098
 50
337.3602957814527
 51
45.99593018962092
  0
LINE
  5
273
  8
MOSFET$TRACES
 10
103.2359028206546
 20
36.89792179480423
 30
0.3304610414045932
 11
96.56410827577402
 21
43.56971633968507
 31
0.3304610414045931
  0
ARC
  5
274
  8
MOSFET$TRACES
 10
96.2176145403873
 20
43.23320646443705
 30
0.3304610414045938
 40
0.4830080794372716
 50
44.16253398559716
 51
90.837466014427
  0
LINE
  5
275
  8
MOSFET$TRACES
 10
96.21055488518061
 20
43.71616294909177
 30
0.3304610414045932
 11
95.66720638238932
 21
43.7161629490918
 31
0.3304610414045924
  0
ARC
  5
276
  8
MOSFET$TRACES
 10
95.66720638238928
 20
43.21616294909177
 30
0.3304610414045932
 40
0.500000000000071
 50
89.9999999999886
 51
142.6947990342097
  0
ARC
  5
277
  8
MOSFET$TRACES
 10
-94.35476590754854
 20
44.21616294909177
 30
-0.3304610414045932
 40
1.150000000000029
 50
217.3052009657773
 51
142.6947990342176
210
0.0
220
0.0
230
-1.0
  0
ARC
  5
278
  8
MOSFET$TRACES
 10
95.66720638238928
 20
45.21616294909177
 30
0.3304610414045932
 40
0.5
 50
217.3052009657868
 51
270.0000000000032
  0
LINE
  5
279
  8
MOSFET$TRACES
 10
95.66720638238928
 20
44.71616294909177
 30
0.3304610414045932
 11
96.83187522874027
 21
44.71616294909182
 31
0.3304610414045932
  0
LINE
  5
27A
  8
MOSFET$TRACES
 10
96.83187522874027
 20
44.71616294909182
 30
0.3304610414045932
 11
104.7493096679148
 21
36.79872850991717
 31
0.3304610414045932
  0
ARC
  5
27B
  8
MOSFET$TRACES
 10
-104.4121232885193
 20
36.45320010051444
 30
-0.3304610414045914
 40
0.4827882933069342
 50
134.2999429116564
 51
173.4613009953592
210
0.0
220
0.0
230
-1.0
  0
ARC
  5
27C
  8
MOSFET$TRACES
 10
105.3877859735886
 20
36.57117941180683
 30
0.3304610414045924
 40
0.4999999999999601
 50
187.2387560929806
 51
228.1896851042483
  0
ARC
  5
27D
  8
MOSFET$TRACES
 10
-104.3877859735888
 20
35.4531454230563
 30
-0.3304610414045973
 40
1.000000000000361
 50
131.8103148957583
 51
179.9999999999739
210
0.0
220
0.0
230
-1.0
  0
ARC
  5
27E
  8
MOSFET$TRACES
 10
-104.3862092408218
 20
35.45396594426217
 30
-0.3304610414045919
 40
1.001577068864921
 50
180.0469383822685
 51
228.1629761251181
210
0.0
220
0.0
230
-1.0
  0
ARC
  5
27F
  8
MOSFET$TRACES
 10
105.3877859735886
 20
34.33522659031468
 30
0.3304610414045932
 40
0.5
 50
131.8375978839
 51
180.0000000000016
  0
LINE
  5
280
  8
MOSFET$TRACES
 10
104.8877859735886
 20
34.33522659031462
 30
0.3304610414045932
 11
104.8877859735886
 21
31.97835720742614
 31
0.3304610414045932
  0
ARC
  5
281
  8
MOSFET$TRACES
 10
145.9958631897431
 20
-40.57756878841201
 30
0.3304610414045932
 40
0.5000000000000142
 50
180.0
 51
232.6947990342182
  0
ARC
  5
282
  8
MOSFET$TRACES
 10
-144.9958631897431
 20
-41.89000926325275
 30
-0.3304610414045932
 40
1.150000000000023
 50
127.3052009657834
 51
52.69479903421461
210
0.0
220
0.0
230
-1.0
  0
ARC
  5
283
  8
MOSFET$TRACES
 10
143.9958631897431
 20
-40.57756878841201
 30
0.3304610414045932
 40
0.5
 50
307.3052009657858
 51
0.0000000000008142
  0
LINE
  5
284
  8
MOSFET$TRACES
 10
144.4958631897431
 20
-40.57756878841201
 30
0.3304610414045932
 11
144.4958631897431
 21
-37.53049443891473
 31
0.3304610414045932
  0
ARC
  5
285
  8
MOSFET$TRACES
 10
144.0124312482801
 20
-37.52486967294502
 30
0.3304610414045992
 40
0.4834646626372363
 50
359.3333894977002
 51
38.17075286256993
  0
LINE
  5
286
  8
MOSFET$TRACES
 10
144.3925178527883
 20
-37.22608504634525
 30
0.3304610414045932
 11
140.7084089839932
 21
-32.42557955064242
 31
0.3304610414045934
  0
ARC
  5
287
  8
MOSFET$TRACES
 10
140.3197038233552
 20
-32.7138674778713
 30
0.3304610414045944
 40
0.4839438303073648
 50
36.56293101614538
 51
90.94121134413804
  0
LINE
  5
288
  8
MOSFET$TRACES
 10
140.311754320948
 20
-32.22998894321199
 30
0.3304610414045932
 11
136.8748827004643
 21
-32.22998894321192
 31
0.3304610414045934
  0
ARC
  5
289
  8
MOSFET$TRACES
 10
136.8676079837714
 20
-32.71372218216964
 30
0.3304610414045963
 40
0.4837879369883949
 50
89.1384111901583
 51
139.0512739140632
  0
ARC
  5
28A
  8
MOSFET$TRACES
 10
-135.7568487117143
 20
-31.72998894321194
 30
-0.3304610414045932
 40
1.000000000000025
 50
221.8103148957782
 51
359.9999999999972
210
0.0
220
0.0
230
-1.0
  0
ARC
  5
28B
  8
MOSFET$TRACES
 10
-135.7568487117143
 20
-31.72998894321202
 30
-0.3304610414045928
 40
1.000000000000057
 50
0.0000000000016284
 51
138.1896851042238
210
0.0
220
0.0
230
-1.0
  0
ARC
  5
28C
  8
MOSFET$TRACES
 10
136.8667961316504
 20
-30.74807106078444
 30
0.3304610414045928
 40
0.48198572385356
 50
220.8489835110303
 51
270.9613313847489
  0
LINE
  5
28D
  8
MOSFET$TRACES
 10
136.8748827004642
 20
-31.22998894321199
 30
0.3304610414045932
 11
141.0514050511156
 21
-31.22998894321196
 31
0.3304610414045934
  0
LINE
  5
28E
  8
MOSFET$TRACES
 10
141.0514050511156
 20
-31.22998894321199
 30
0.3304610414045932
 11
141.6764892981836
 21
-32.04449265908841
 31
0.3304610414045932
  0
ARC
  5
28F
  8
MOSFET$TRACES
 10
143.2631079503642
 20
-30.82685508881065
 30
0.3304610414045934
 40
1.99999999999976
 50
217.5041423602636
 51
315.000000000004
  0
LINE
  5
290
  8
MOSFET$TRACES
 10
144.6773215127372
 20
-32.24106865118347
 30
0.3304610414045932
 11
149.6465362910897
 21
-27.27185387283129
 31
0.3304610414045932
  0
LINE
  5
291
  8
MOSFET$TRACES
 10
149.6465362910897
 20
-27.27185387283129
 30
0.3304610414045932
 11
149.6465362910897
 21
37.27247396813573
 31
0.3304610414045932
  0
LINE
  5
292
  8
MOSFET$TRACES
 10
149.6465362910897
 20
37.27247396813573
 30
0.3304610414045932
 11
140.3190017424421
 21
46.60000851678296
 31
0.3304610414045932
  0
LINE
  5
293
  8
MOSFET$TRACES
 10
140.3190017424421
 20
46.60000851678296
 30
0.3304610414045932
 11
133.1503725923405
 21
46.60000851678296
 31
0.3304610414045932
  0
LINE
  5
294
  8
MOSFET$TRACES
 10
133.1503725923405
 20
46.60000851678296
 30
0.3304610414045932
 11
130.8228380436929
 21
44.2724739681355
 31
0.3304610414045932
  0
LINE
  5
295
  8
MOSFET$TRACES
 10
130.8228380436929
 20
44.2724739681355
 30
0.3304610414045932
 11
130.8228380436929
 21
38.97046736412176
 31
0.3304610414045932
  0
LINE
  5
296
  8
MOSFET$TRACES
 10
130.8228380436929
 20
38.97046736412176
 30
0.3304610414045932
 11
124.1881941615618
 21
32.33582348199104
 31
0.3304610414045932
  0
ARC
  5
297
  8
MOSFET$TRACES
 10
124.5417475521566
 20
31.98227009139724
 30
0.330461041404596
 40
0.500000000001471
 50
135.0000000000829
 51
188.1301023541815
  0
ARC
  5
298
  8
MOSFET$TRACES
 10
-123.0568233116634
 20
31.77013805704193
 30
-0.3304610414045931
 40
0.9999999999999362
 50
171.8698976459062
 51
98.13010235415446
210
0.0
220
0.0
230
-1.0
  0
ARC
  5
299
  8
MOSFET$TRACES
 10
123.271731465804
 20
33.24673393817968
 30
0.3304610414045921
 40
0.4921636068525474
 50
261.4128400393631
 51
315.457057606484
  0
LINE
  5
29A
  8
MOSFET$TRACES
 10
123.6225087366126
 20
32.90150890694042
 30
0.3304610414045932
 11
130.0228380436929
 21
39.30183821402034
 31
0.3304610414045932
  0
LINE
  5
29B
  8
MOSFET$TRACES
 10
130.0228380436929
 20
39.30183821402034
 30
0.3304610414045932
 11
130.0228380436929
 21
44.60384481803396
 31
0.3304610414045932
  0
LINE
  5
29C
  8
MOSFET$TRACES
 10
130.0228380436929
 20
44.60384481803396
 30
0.3304610414045932
 11
132.8190017424421
 21
47.40000851678292
 31
0.3304610414045932
  0
LINE
  5
29D
  8
MOSFET$TRACES
 10
132.8190017424421
 20
47.40000851678292
 30
0.3304610414045932
 11
140.6503725923405
 21
47.40000851678292
 31
0.3304610414045932
  0
LINE
  5
29E
  8
MOSFET$TRACES
 10
140.6503725923405
 20
47.40000851678292
 30
0.3304610414045932
 11
150.4465362910896
 21
37.6038448180343
 31
0.3304610414045932
  0
LINE
  5
29F
  8
MOSFET$TRACES
 10
150.4465362910896
 20
37.6038448180343
 30
0.3304610414045932
 11
150.4465362910896
 21
-27.60322472272981
 31
0.3304610414045932
  0
LINE
  5
2A0
  8
MOSFET$TRACES
 10
150.4465362910896
 20
-27.60322472272981
 30
0.3304610414045932
 11
144.7964131811476
 21
-33.25334783267152
 31
0.3304610414045932
  0
ARC
  5
2A1
  8
MOSFET$TRACES
 10
146.2106267435205
 20
-34.6675613950447
 30
0.3304610414045932
 40
1.999999999999926
 50
134.9999999999945
 51
217.5041423602735
  0
LINE
  5
2A2
  8
MOSFET$TRACES
 10
144.6240080913401
 20
-35.88519896532284
 30
0.3304610414045932
 11
145.4958631897431
 21
-37.0212525783933
 31
0.3304610414045934
  0
LINE
  5
2A3
  8
MOSFET$TRACES
 10
145.4958631897431
 20
-37.02125257839339
 30
0.3304610414045932
 11
145.4958631897431
 21
-40.57756878841201
 31
0.3304610414045932
  0
CIRCLE
  5
2A4
  8
MOSFET$TRACES
 10
-113.2778037536242
 20
15.6731098629856
 30
-0.3304610414045932
 40
0.8000000000000081
210
0.0
220
0.0
230
-1.0
  0
ARC
  5
2A5
  8
MOSFET$TRACES
 10
-104.7268766517674
 20
-6.32993814311385
 30
-0.3304610414045932
 40
0.8000000000042689
 50
230.2848627645467
 51
129.715137232005
210
0.0
220
0.0
230
-1.0
  0
ARC
  5
2A6
  8
MOSFET$TRACES
 10
105.557539038065
 20
-5.329938143113168
 30
0.3304610414045932
 40
0.5
 50
230.2848627679949
 51
269.9999999992818
  0
LINE
  5
2A7
  8
MOSFET$TRACES
 10
105.5575390380587
 20
-5.829938143113168
 30
0.3304610414045932
 11
109.5261355252516
 21
-5.829938143162963
 31
0.3304610414045932
  0
ARC
  5
2A8
  8
MOSFET$TRACES
 10
109.5261355252578
 20
-5.329938143162963
 30
0.3304610414045932
 40
0.5
 50
269.9999999992835
 51
309.7151372354397
  0
ARC
  5
2A9
  8
MOSFET$TRACES
 10
-110.3567979116127
 20
-6.329938143110553
 30
-0.3304610414045932
 40
0.8000000000000177
 50
50.28486276455974
 51
309.7151372318307
210
0.0
220
0.0
230
-1.0
  0
ARC
  5
2AA
  8
MOSFET$TRACES
 10
109.5261355253208
 20
-7.329938143110439
 30
0.3304610414045932
 40
0.5
 50
50.28486276816843
 51
89.99999999997232
  0
LINE
  5
2AB
  8
MOSFET$TRACES
 10
109.5261355253211
 20
-6.829938143110439
 30
0.3304610414045932
 11
105.5575390380861
 21
-6.829938143085656
 31
0.3304610414045932
  0
ARC
  5
2AC
  8
MOSFET$TRACES
 10
105.5575390380998
 20
-7.329938143085656
 30
0.3304610414045932
 40
0.5
 50
90.00000000156331
 51
129.7151372316584
  0
ARC
  5
2AD
  8
MOSFET$TRACES
 10
-110.3567979116127
 20
-8.8699432231208
 30
-0.3304610414045932
 40
0.8000000000000123
 50
50.28486276817265
 51
309.7151372319107
210
0.0
220
0.0
230
-1.0
  0
ARC
  5
2AE
  8
MOSFET$TRACES
 10
109.5261355253194
 20
-9.869943223119549
 30
0.3304610414045932
 40
0.5
 50
50.2848627680874
 51
89.99999999965803
  0
LINE
  5
2AF
  8
MOSFET$TRACES
 10
109.5261355253224
 20
-9.369943223119549
 30
0.3304610414045932
 11
105.5575390380859
 21
-9.369943223095788
 31
0.3304610414045932
  0
ARC
  5
2B0
  8
MOSFET$TRACES
 10
105.5575390380999
 20
-9.869943223095788
 30
0.3304610414045932
 40
0.5
 50
90.00000000160402
 51
129.7151372316646
  0
ARC
  5
2B1
  8
MOSFET$TRACES
 10
-104.7268766517674
 20
-8.869943223124096
 30
-0.3304610414045932
 40
0.8000000000042627
 50
230.2848627645385
 51
129.7151372318257
210
0.0
220
0.0
230
-1.0
  0
ARC
  5
2B2
  8
MOSFET$TRACES
 10
105.5575390380619
 20
-7.869943223120799
 30
0.3304610414045932
 40
0.5
 50
230.2848627681727
 51
270.0
  0
LINE
  5
2B3
  8
MOSFET$TRACES
 10
105.5575390380619
 20
-8.3699432231208
 30
0.3304610414045932
 11
109.5261355253209
 21
-8.3699432231208
 31
0.3304610414045932
  0
ARC
  5
2B4
  8
MOSFET$TRACES
 10
109.5261355253209
 20
-7.869943223120799
 30
0.3304610414045932
 40
0.5
 50
270.0
 51
309.7151372318257
  0
LINE
  5
2B5
  8
MOSFET$TRACES
 10
105.5575390380835
 20
-11.90994830310478
 30
0.3304610414045932
 11
109.5261355253215
 21
-11.90994830312968
 31
0.3304610414045932
  0
ARC
  5
2B6
  8
MOSFET$TRACES
 10
-109.5261355253193
 20
-12.40994830312968
 30
-0.3304610414045932
 40
0.5
 50
90.000000000241
 51
129.7151372319149
210
0.0
220
0.0
230
-1.0
  0
ARC
  5
2B7
  8
MOSFET$TRACES
 10
110.3567979116127
 20
-11.40994830313105
 30
0.3304610414045932
 40
0.8000000000000049
 50
230.2848627680825
 51
129.7151372318265
  0
ARC
  5
2B8
  8
MOSFET$TRACES
 10
-109.5261355253209
 20
-10.40994830313105
 30
-0.3304610414045932
 40
0.5
 50
230.2848627681743
 51
270.0
210
0.0
220
0.0
230
-1.0
  0
LINE
  5
2B9
  8
MOSFET$TRACES
 10
109.5261355253209
 20
-10.90994830313105
 30
0.3304610414045932
 11
105.5575390380619
 21
-10.90994830313105
 31
0.3304610414045932
  0
ARC
  5
2BA
  8
MOSFET$TRACES
 10
-105.5575390380619
 20
-10.40994830313105
 30
-0.3304610414045932
 40
0.5
 50
270.0
 51
309.7151372318277
210
0.0
220
0.0
230
-1.0
  0
ARC
  5
2BB
  8
MOSFET$TRACES
 10
104.7268766517674
 20
-11.40994830313429
 30
0.3304610414045932
 40
0.8000000000042673
 50
50.28486276817357
 51
309.7151372355444
  0
ARC
  5
2BC
  8
MOSFET$TRACES
 10
-105.5575390381014
 20
-12.40994830310478
 30
-0.3304610414045932
 40
0.5
 50
50.28486276824894
 51
89.9999999979612
210
0.0
220
0.0
230
-1.0
  0
LINE
  5
2BD
  8
MOSFET$TRACES
 10
105.5575390381313
 20
-16.98995846309913
 30
0.3304610414045932
 11
109.526135525324
 21
-16.98995846314892
 31
0.3304610414045932
  0
ARC
  5
2BE
  8
MOSFET$TRACES
 10
-109.5261355253176
 20
-17.48995846314892
 30
-0.3304610414045932
 40
0.5
 50
90.00000000071977
 51
129.7151372320584
210
0.0
220
0.0
230
-1.0
  0
ARC
  5
2BF
  8
MOSFET$TRACES
 10
110.3567979116168
 20
-16.48995846314824
 30
0.3304610414045932
 40
0.8000000000052403
 50
230.2848627679429
 51
129.7151372356348
  0
ARC
  5
2C0
  8
MOSFET$TRACES
 10
-109.5261355252813
 20
-15.48995846317769
 30
-0.3304610414045932
 40
0.5
 50
230.2848627682613
 51
269.9999999979628
210
0.0
220
0.0
230
-1.0
  0
LINE
  5
2C1
  8
MOSFET$TRACES
 10
109.5261355252992
 20
-15.98995846317769
 30
0.3304610414045932
 11
105.5575390380613
 21
-15.98995846315279
 31
0.3304610414045932
  0
ARC
  5
2C2
  8
MOSFET$TRACES
 10
-105.5575390380635
 20
-15.48995846315279
 30
-0.3304610414045932
 40
0.5
 50
270.000000000241
 51
309.7151372319168
210
0.0
220
0.0
230
-1.0
  0
ARC
  5
2C3
  8
MOSFET$TRACES
 10
104.7268766517701
 20
-16.48995846315154
 30
0.3304610414045932
 40
0.8000000000000131
 50
50.28486276808561
 51
309.7151372354391
  0
ARC
  5
2C4
  8
MOSFET$TRACES
 10
-105.557539038125
 20
-17.48995846309913
 30
-0.3304610414045932
 40
0.5
 50
50.28486276455862
 51
90.00000000071977
210
0.0
220
0.0
230
-1.0
  0
LINE
  5
2C5
  8
MOSFET$TRACES
 10
109.5261355252516
 20
-18.52996354321414
 30
0.3304610414045932
 11
105.5575390380587
 21
-18.5299635431644
 31
0.3304610414045932
  0
ARC
  5
2C6
  8
MOSFET$TRACES
 10
-105.5575390380651
 20
-18.0299635431644
 30
-0.3304610414045932
 40
0.5
 50
270.0000000007198
 51
309.7151372320052
210
0.0
220
0.0
230
-1.0
  0
ARC
  5
2C7
  8
MOSFET$TRACES
 10
104.7268766517674
 20
-19.02996354316508
 30
0.3304610414045932
 40
0.8000000000042842
 50
50.2848627679941
 51
309.7151372355471
  0
ARC
  5
2C8
  8
MOSFET$TRACES
 10
-105.5575390381014
 20
-20.02996354313552
 30
-0.3304610414045932
 40
0.5
 50
50.28486276824842
 51
89.99999999795631
210
0.0
220
0.0
230
-1.0
  0
LINE
  5
2C9
  8
MOSFET$TRACES
 10
105.5575390380835
 20
-19.52996354313552
 30
0.3304610414045932
 11
109.5261355253225
 21
-19.52996354316042
 31
0.3304610414045932
  0
ARC
  5
2CA
  8
MOSFET$TRACES
 10
-109.5261355253194
 20
-20.02996354316042
 30
-0.3304610414045932
 40
0.5
 50
90.00000000035989
 51
129.7151372319162
210
0.0
220
0.0
230
-1.0
  0
ARC
  5
2CB
  8
MOSFET$TRACES
 10
110.3567979116127
 20
-19.02996354316178
 30
0.3304610414045932
 40
0.8000000000000076
 50
230.2848627680829
 51
129.7151372354394
  0
ARC
  5
2CC
  8
MOSFET$TRACES
 10
-109.5261355252579
 20
-18.02996354321414
 30
-0.3304610414045932
 40
0.5
 50
230.2848627645584
 51
270.0000000007182
210
0.0
220
0.0
230
-1.0
  0
LINE
  5
2CD
  8
MOSFET$TRACES
 10
105.5575390380603
 20
-21.0699686231726
 30
0.3304610414045932
 11
109.5261355252992
 21
-21.0699686231975
 31
0.3304610414045932
  0
ARC
  5
2CE
  8
MOSFET$TRACES
 10
109.5261355252813
 20
-20.5699686231975
 30
0.3304610414045932
 40
0.5
 50
270.0000000020437
 51
309.7151372317391
  0
ARC
  5
2CF
  8
MOSFET$TRACES
 10
-110.3567979116168
 20
-21.56996862316805
 30
-0.3304610414045932
 40
0.8000000000052373
 50
50.28486276436497
 51
309.7151372320563
210
0.0
220
0.0
230
-1.0
  0
ARC
  5
2D0
  8
MOSFET$TRACES
 10
109.5261355253176
 20
-22.56996862316873
 30
0.3304610414045932
 40
0.5
 50
50.28486276794192
 51
89.99999999928349
  0
LINE
  5
2D1
  8
MOSFET$TRACES
 10
109.5261355253239
 20
-22.06996862316873
 30
0.3304610414045932
 11
105.5575390381313
 21
-22.06996862311894
 31
0.3304610414045932
  0
ARC
  5
2D2
  8
MOSFET$TRACES
 10
105.5575390381249
 20
-22.56996862311894
 30
0.3304610414045932
 40
0.5
 50
89.99999999928185
 51
129.7151372354393
  0
ARC
  5
2D3
  8
MOSFET$TRACES
 10
-104.7268766517701
 20
-21.56996862317135
 30
-0.3304610414045932
 40
0.8000000000000114
 50
230.2848627645593
 51
129.7151372319158
210
0.0
220
0.0
230
-1.0
  0
ARC
  5
2D4
  8
MOSFET$TRACES
 10
105.5575390380634
 20
-20.5699686231726
 30
0.3304610414045932
 40
0.5
 50
230.2848627680854
 51
269.9999999996401
  0
LINE
  5
2D5
  8
MOSFET$TRACES
 10
109.5261355252516
 20
-23.609973703234
 30
0.3304610414045932
 11
105.5575390380587
 21
-23.60997370318415
 31
0.3304610414045932
  0
ARC
  5
2D6
  8
MOSFET$TRACES
 10
-105.557539038065
 20
-23.10997370318415
 30
-0.3304610414045932
 40
0.5
 50
270.0000000007182
 51
309.7151372320037
210
0.0
220
0.0
230
-1.0
  0
ARC
  5
2D7
  8
MOSFET$TRACES
 10
104.7268766517674
 20
-24.10997370318489
 30
0.3304610414045932
 40
0.8000000000042811
 50
50.2848627679941
 51
309.7151372355461
  0
ARC
  5
2D8
  8
MOSFET$TRACES
 10
-105.5575390381014
 20
-25.10997370315539
 30
-0.3304610414045932
 40
0.5
 50
50.28486276824815
 51
89.99999999795631
210
0.0
220
0.0
230
-1.0
  0
LINE
  5
2D9
  8
MOSFET$TRACES
 10
105.5575390380835
 20
-24.60997370315539
 30
0.3304610414045932
 11
109.5261355253225
 21
-24.60997370318029
 31
0.3304610414045932
  0
ARC
  5
2DA
  8
MOSFET$TRACES
 10
-109.5261355253193
 20
-25.10997370318029
 30
-0.3304610414045932
 40
0.5
 50
90.00000000035989
 51
129.7151372319146
210
0.0
220
0.0
230
-1.0
  0
ARC
  5
2DB
  8
MOSFET$TRACES
 10
110.3567979116127
 20
-24.10997370318159
 30
0.3304610414045932
 40
0.8000000000000035
 50
230.2848627680849
 51
129.7151372354407
  0
ARC
  5
2DC
  8
MOSFET$TRACES
 10
-109.5261355252578
 20
-23.109973703234
 30
-0.3304610414045932
 40
0.5
 50
230.2848627645586
 51
270.0000000007182
210
0.0
220
0.0
230
-1.0
  0
ARC
  5
2DD
  8
MOSFET$TRACES
 10
110.3567979116127
 20
-26.64997878319184
 30
0.3304610414045932
 40
0.8000000000000091
 50
230.2848627680837
 51
129.7151372354394
  0
ARC
  5
2DE
  8
MOSFET$TRACES
 10
-109.5261355252578
 20
-25.64997878324419
 30
-0.3304610414045932
 40
0.5
 50
230.2848627645604
 51
270.0000000007198
210
0.0
220
0.0
230
-1.0
  0
LINE
  5
2DF
  8
MOSFET$TRACES
 10
109.5261355252516
 20
-26.14997878324419
 30
0.3304610414045932
 11
105.5575390380587
 21
-26.1499787831944
 31
0.3304610414045932
  0
ARC
  5
2E0
  8
MOSFET$TRACES
 10
-105.557539038065
 20
-25.6499787831944
 30
-0.3304610414045932
 40
0.5
 50
270.0000000007198
 51
309.715137232005
210
0.0
220
0.0
230
-1.0
  0
ARC
  5
2E1
  8
MOSFET$TRACES
 10
104.7268766517674
 20
-26.64997878319514
 30
0.3304610414045932
 40
0.8000000000042642
 50
50.28486276799583
 51
309.715137235546
  0
ARC
  5
2E2
  8
MOSFET$TRACES
 10
-105.5575390381014
 20
-27.64997878316564
 30
-0.3304610414045932
 40
0.5
 50
50.28486276825045
 51
89.99999999795956
210
0.0
220
0.0
230
-1.0
  0
LINE
  5
2E3
  8
MOSFET$TRACES
 10
105.5575390380835
 20
-27.14997878316564
 30
0.3304610414045932
 11
109.5261355253225
 21
-27.14997878319053
 31
0.3304610414045932
  0
ARC
  5
2E4
  8
MOSFET$TRACES
 10
-109.5261355253193
 20
-27.64997878319053
 30
-0.3304610414045932
 40
0.5
 50
90.00000000035826
 51
129.7151372319162
210
0.0
220
0.0
230
-1.0
  0
LINE
  5
2E5
  8
MOSFET$TRACES
 10
105.5575390380835
 20
-29.68998386317588
 30
0.3304610414045932
 11
109.7322981117728
 21
-29.68998386320209
 31
0.3304610414045932
  0
ARC
  5
2E6
  8
MOSFET$TRACES
 10
110.3567979116127
 20
-29.18998386320209
 30
0.3304610414045932
 40
0.8000000000000081
 50
218.6821874534876
 51
141.3178125515541
  0
LINE
  5
2E7
  8
MOSFET$TRACES
 10
109.7322981117288
 20
-28.689983863257
 30
0.3304610414045932
 11
105.5575390380587
 21
-28.68998386320465
 31
0.3304610414045932
  0
ARC
  5
2E8
  8
MOSFET$TRACES
 10
-105.5575390380651
 20
-28.18998386320465
 30
-0.3304610414045932
 40
0.5
 50
270.0000000007198
 51
309.715137232005
210
0.0
220
0.0
230
-1.0
  0
ARC
  5
2E9
  8
MOSFET$TRACES
 10
104.7268766517674
 20
-29.18998386320538
 30
0.3304610414045932
 40
0.8000000000042713
 50
50.28486276799489
 51
309.7151372355446
  0
ARC
  5
2EA
  8
MOSFET$TRACES
 10
-105.5575390381014
 20
-30.18998386317588
 30
-0.3304610414045932
 40
0.5
 50
50.28486276824868
 51
89.99999999795631
210
0.0
220
0.0
230
-1.0
  0
LINE
  5
2EB
  8
MOSFET$TRACES
 10
109.5261355252516
 20
-33.76999402327493
 30
0.3304610414045932
 11
105.5575390380587
 21
-33.76999402322519
 31
0.3304610414045932
  0
ARC
  5
2EC
  8
MOSFET$TRACES
 10
-105.5575390380651
 20
-33.26999402322519
 30
-0.3304610414045932
 40
0.5
 50
270.0000000007198
 51
309.7151372320095
210
0.0
220
0.0
230
-1.0
  0
ARC
  5
2ED
  8
MOSFET$TRACES
 10
104.7268766517674
 20
-34.26999402322588
 30
0.3304610414045932
 40
0.8000000000042874
 50
50.28486276799586
 51
309.715137235546
  0
ARC
  5
2EE
  8
MOSFET$TRACES
 10
-105.5575390381014
 20
-35.26999402319638
 30
-0.3304610414045932
 40
0.5
 50
50.28486276824842
 51
89.99999999795631
210
0.0
220
0.0
230
-1.0
  0
LINE
  5
2EF
  8
MOSFET$TRACES
 10
105.5575390380835
 20
-34.76999402319638
 30
0.3304610414045932
 11
109.5261355253225
 21
-34.76999402322127
 31
0.3304610414045932
  0
ARC
  5
2F0
  8
MOSFET$TRACES
 10
-109.5261355253193
 20
-35.26999402322127
 30
-0.3304610414045932
 40
0.5
 50
90.00000000035989
 51
129.7151372319159
210
0.0
220
0.0
230
-1.0
  0
ARC
  5
2F1
  8
MOSFET$TRACES
 10
110.3567979116127
 20
-34.26999402322258
 30
0.3304610414045932
 40
0.8000000000000027
 50
230.2848627680839
 51
129.7151372354385
  0
ARC
  5
2F2
  8
MOSFET$TRACES
 10
-109.5261355252579
 20
-33.26999402327493
 30
-0.3304610414045932
 40
0.5
 50
230.2848627645612
 51
270.0000000007182
210
0.0
220
0.0
230
-1.0
  0
LINE
  5
2F3
  8
MOSFET$TRACES
 10
109.5261355252516
 20
-31.22998894326469
 30
0.3304610414045932
 11
105.5575390380587
 21
-31.22998894321489
 31
0.3304610414045932
  0
ARC
  5
2F4
  8
MOSFET$TRACES
 10
-105.5575390380651
 20
-30.72998894321489
 30
-0.3304610414045932
 40
0.5
 50
270.0000000007198
 51
309.7151372320052
210
0.0
220
0.0
230
-1.0
  0
ARC
  5
2F5
  8
MOSFET$TRACES
 10
104.7268766517674
 20
-31.72998894321563
 30
0.3304610414045932
 40
0.8000000000042731
 50
50.28486276799394
 51
309.7151372355444
  0
ARC
  5
2F6
  8
MOSFET$TRACES
 10
-105.5575390381014
 20
-32.72998894318613
 30
-0.3304610414045932
 40
0.5
 50
50.2848627682507
 51
89.99999999795631
210
0.0
220
0.0
230
-1.0
  0
LINE
  5
2F7
  8
MOSFET$TRACES
 10
105.5575390380835
 20
-32.22998894318613
 30
0.3304610414045932
 11
109.5261355253225
 21
-32.22998894321097
 31
0.3304610414045932
  0
ARC
  5
2F8
  8
MOSFET$TRACES
 10
-109.5261355253193
 20
-32.72998894321097
 30
-0.3304610414045932
 40
0.5
 50
90.00000000035989
 51
129.7151372319164
210
0.0
220
0.0
230
-1.0
  0
ARC
  5
2F9
  8
MOSFET$TRACES
 10
110.3567979116127
 20
-31.72998894321233
 30
0.3304610414045932
 40
0.800000000000008
 50
230.2848627680831
 51
129.7151372354381
  0
ARC
  5
2FA
  8
MOSFET$TRACES
 10
-109.5261355252579
 20
-30.72998894326469
 30
-0.3304610414045932
 40
0.5
 50
230.2848627645609
 51
270.0000000007198
210
0.0
220
0.0
230
-1.0
  0
ARC
  5
2FB
  8
MOSFET$TRACES
 10
-104.7268766517701
 20
-39.3500041832425
 30
-0.3304610414045932
 40
0.8000000000000038
 50
230.2848627645601
 51
129.7151372319162
210
0.0
220
0.0
230
-1.0
  0
ARC
  5
2FC
  8
MOSFET$TRACES
 10
105.5575390380635
 20
-38.35000418324375
 30
0.3304610414045932
 40
0.5
 50
230.2848627680854
 51
269.9999999996417
  0
LINE
  5
2FD
  8
MOSFET$TRACES
 10
105.5575390380603
 20
-38.85000418324375
 30
0.3304610414045932
 11
109.5261355252992
 21
-38.85000418326865
 31
0.3304610414045932
  0
ARC
  5
2FE
  8
MOSFET$TRACES
 10
109.5261355252813
 20
-38.35000418326865
 30
0.3304610414045932
 40
0.5
 50
270.0000000020437
 51
309.7151372317371
  0
ARC
  5
2FF
  8
MOSFET$TRACES
 10
-110.3567979116168
 20
-39.35000418323921
 30
-0.3304610414045932
 40
0.800000000005241
 50
50.28486276436387
 51
309.7151372320571
210
0.0
220
0.0
230
-1.0
  0
ARC
  5
300
  8
MOSFET$TRACES
 10
109.5261355253176
 20
-40.35000418323989
 30
0.3304610414045932
 40
0.5
 50
50.28486276794139
 51
89.99999999928022
  0
LINE
  5
301
  8
MOSFET$TRACES
 10
109.5261355253239
 20
-39.85000418323989
 30
0.3304610414045932
 11
105.5575390381313
 21
-39.85000418319009
 31
0.3304610414045932
  0
ARC
  5
302
  8
MOSFET$TRACES
 10
105.557539038125
 20
-40.35000418319009
 30
0.3304610414045932
 40
0.5
 50
89.99999999928185
 51
129.7151372354411
  0
ARC
  5
303
  8
MOSFET$TRACES
 10
-104.7268766517674
 20
-41.89000926325593
 30
-0.3304610414045932
 40
0.8000000000042718
 50
230.2848627645459
 51
129.7151372320051
210
0.0
220
0.0
230
-1.0
  0
ARC
  5
304
  8
MOSFET$TRACES
 10
105.557539038065
 20
-40.89000926325519
 30
0.3304610414045932
 40
0.5
 50
230.2848627679963
 51
269.9999999992818
  0
LINE
  5
305
  8
MOSFET$TRACES
 10
105.5575390380587
 20
-41.39000926325519
 30
0.3304610414045932
 11
109.5261355252516
 21
-41.39000926330505
 31
0.3304610414045932
  0
ARC
  5
306
  8
MOSFET$TRACES
 10
109.5261355252578
 20
-40.89000926330505
 30
0.3304610414045932
 40
0.5
 50
269.9999999992818
 51
309.7151372354406
  0
ARC
  5
307
  8
MOSFET$TRACES
 10
-110.3567979116127
 20
-41.89000926325264
 30
-0.3304610414045932
 40
0.8000000000000046
 50
50.28486276456123
 51
309.7151372318316
210
0.0
220
0.0
230
-1.0
  0
ARC
  5
308
  8
MOSFET$TRACES
 10
109.5261355253208
 20
-42.89000926325252
 30
0.3304610414045932
 40
0.5
 50
50.28486276816855
 51
89.99999999997232
  0
LINE
  5
309
  8
MOSFET$TRACES
 10
109.526135525321
 20
-42.39000926325252
 30
0.3304610414045932
 11
105.5575390380861
 21
-42.39000926322774
 31
0.3304610414045932
  0
ARC
  5
30A
  8
MOSFET$TRACES
 10
105.5575390380998
 20
-42.89000926322774
 30
0.3304610414045932
 40
0.5
 50
90.00000000156331
 51
129.7151372316567
  0
LINE
  5
30B
  8
MOSFET$TRACES
 10
96.04421480296
 20
-32.93274657166236
 30
0.3304610414045931
 11
99.37502072512294
 21
-36.26355249382563
 31
0.3304610414045931
  0
ARC
  5
30C
  8
MOSFET$TRACES
 10
99.72857411571636
 20
-35.90999910323234
 30
0.3304610414045932
 40
0.5
 50
224.9999999999948
 51
270.0
  0
LINE
  5
30D
  8
MOSFET$TRACES
 10
99.72857411571627
 20
-36.40999910323234
 30
0.3304610414045931
 11
109.4187147596479
 21
-36.40999910323241
 31
0.3304610414045931
  0
ARC
  5
30E
  8
MOSFET$TRACES
 10
109.418714759648
 20
-35.90999910323239
 30
0.3304610414045932
 40
0.5
 50
269.9999999999935
 51
316.1869385395976
  0
ARC
  5
30F
  8
MOSFET$TRACES
 10
-110.3567979116127
 20
-36.80999910323241
 30
-0.330461041404593
 40
0.7999999999999734
 50
43.8130614604062
 51
316.1869385396129
210
0.0
220
0.0
230
-1.0
  0
ARC
  5
310
  8
MOSFET$TRACES
 10
109.418714759648
 20
-37.70999910323229
 30
0.3304610414045932
 40
0.5
 50
43.81306146040869
 51
90.00000000000325
  0
LINE
  5
311
  8
MOSFET$TRACES
 10
109.4187147596479
 20
-37.20999910323232
 30
0.3304610414045929
 11
99.1900964846312
 21
-37.20999910323232
 31
0.3304610414045929
  0
LINE
  5
312
  8
MOSFET$TRACES
 10
99.1900964846312
 20
-37.20999910323232
 30
0.3304610414045929
 11
95.09776819355322
 21
-33.11767081215416
 31
0.3304610414045929
  0
LINE
  5
313
  8
MOSFET$TRACES
 10
95.09776819355322
 20
-33.11767081215416
 30
0.3304610414045929
 11
95.09776819355322
 21
14.73502671102084
 31
0.3304610414045929
  0
ARC
  5
314
  8
MOSFET$TRACES
 10
94.59776819355329
 20
14.73502671102085
 30
0.3304610414045932
 40
0.5
 50
0.0
 51
46.18693853959579
  0
ARC
  5
315
  8
MOSFET$TRACES
 10
-95.49776819355334
 20
15.67310986298558
 30
-0.3304610414045932
 40
0.8000000000000542
 50
313.8130614604049
 51
226.1869385396004
210
0.0
220
0.0
230
-1.0
  0
ARC
  5
316
  8
MOSFET$TRACES
 10
96.39776819355325
 20
14.73502671102085
 30
0.3304610414045932
 40
0.5
 50
133.8130614604045
 51
180.0000000000008
  0
LINE
  5
317
  8
MOSFET$TRACES
 10
95.89776819355328
 20
14.73502671102082
 30
0.3304610414045931
 11
95.89776819355328
 21
-32.57919318106909
 31
0.3304610414045931
  0
ARC
  5
318
  8
MOSFET$TRACES
 10
96.39776819355325
 20
-32.57919318106906
 30
0.3304610414045932
 40
0.5
 50
180.0
 51
225.0000000000012
  0
LINE
  5
319
  8
MOSFET$TRACES
 10
130.7152841450985
 20
10.92285758541614
 30
0.3304610414045934
 11
135.7760875272568
 21
15.98366096757426
 31
0.3304610414045934
  0
ARC
  5
31A
  8
MOSFET$TRACES
 10
-136.12964091785
 20
15.630107576981
 30
-0.3304610414045932
 40
0.5
 50
45.00000000000058
 51
90.0
210
0.0
220
0.0
230
-1.0
  0
LINE
  5
31B
  8
MOSFET$TRACES
 10
136.1296409178501
 20
16.13010757698094
 30
0.3304610414045934
 11
137.3186968337652
 21
16.130107576981
 31
0.3304610414045934
  0
ARC
  5
31C
  8
MOSFET$TRACES
 10
-137.3186968337652
 20
15.630107576981
 30
-0.3304610414045932
 40
0.5
 50
90.0
 51
136.1869385395972
210
0.0
220
0.0
230
-1.0
  0
ARC
  5
31D
  8
MOSFET$TRACES
 10
138.25677998573
 20
16.53010757698084
 30
0.330461041404593
 40
0.800000000000053
 50
223.8130614603871
 51
136.1869385395926
  0
ARC
  5
31E
  8
MOSFET$TRACES
 10
-137.3186968337652
 20
17.43010757698096
 30
-0.3304610414045932
 40
0.5
 50
223.8130614604058
 51
270.0
210
0.0
220
0.0
230
-1.0
  0
LINE
  5
31F
  8
MOSFET$TRACES
 10
137.3186968337651
 20
16.93010757698097
 30
0.3304610414045922
 11
135.591163286765
 21
16.93010757698097
 31
0.3304610414045922
  0
LINE
  5
320
  8
MOSFET$TRACES
 10
135.591163286765
 20
16.93010757698097
 30
0.3304610414045922
 11
129.7688375356917
 21
11.10778182590797
 31
0.3304610414045922
  0
LINE
  5
321
  8
MOSFET$TRACES
 10
129.7688375356917
 20
11.10778182590797
 30
0.3304610414045922
 11
129.7688375356917
 21
-21.22765303211845
 31
0.3304610414045922
  0
LINE
  5
322
  8
MOSFET$TRACES
 10
129.7688375356917
 20
-21.22765303211845
 30
0.3304610414045922
 11
134.8106810411685
 21
-26.26949653759523
 31
0.3304610414045922
  0
ARC
  5
323
  8
MOSFET$TRACES
 10
-134.4571276505753
 20
-26.62304992818849
 30
-0.3304610414045932
 40
0.5
 50
135.0
 51
181.1869385395962
210
0.0
220
0.0
230
-1.0
  0
ARC
  5
324
  8
MOSFET$TRACES
 10
135.7568487115606
 20
-26.64997878318817
 30
0.3304610413994237
 40
0.7999999998462785
 50
178.8130614604276
 51
180.0000000002549
  0
ARC
  5
325
  8
MOSFET$TRACES
 10
135.7568487117142
 20
-26.64997878319173
 30
0.3304610414045932
 40
0.8000000000000398
 50
180.000000000001
 51
91.18693853960107
  0
ARC
  5
326
  8
MOSFET$TRACES
 10
-135.729919856711
 20
-25.35025772205273
 30
-0.3304610414045932
 40
0.5
 50
268.8130614604013
 51
314.9999999999986
210
0.0
220
0.0
230
-1.0
  0
LINE
  5
327
  8
MOSFET$TRACES
 10
135.3763664661178
 20
-25.70381111264605
 30
0.3304610414045934
 11
130.5688375356918
 21
-20.89628218222012
 31
0.3304610414045934
  0
LINE
  5
328
  8
MOSFET$TRACES
 10
130.5688375356918
 20
-20.89628218222012
 30
0.3304610414045934
 11
130.5688375356918
 21
10.56930419482289
 31
0.3304610414045934
  0
ARC
  5
329
  8
MOSFET$TRACES
 10
-131.0688375356917
 20
10.56930419482296
 30
-0.3304610414045932
 40
0.5
 50
0.0
 51
45.00000000000029
210
0.0
220
0.0
230
-1.0
  0
LINE
  5
32A
  8
MOSFET$TRACES
 10
138.2375411701875
 20
-18.48351693375446
 30
0.3304610414045929
 11
142.663343282343
 21
-14.05771482159894
 31
0.3304610414045929
  0
ARC
  5
32B
  8
MOSFET$TRACES
 10
142.3097898917498
 20
-13.70416143100556
 30
0.3304610414045932
 40
0.5
 50
314.9999999999948
 51
359.9999999999939
  0
LINE
  5
32C
  8
MOSFET$TRACES
 10
142.8097898917497
 20
-13.70416143100569
 30
0.3304610414045929
 11
142.8097898917497
 21
23.90433086487619
 31
0.3304610414045929
  0
ARC
  5
32D
  8
MOSFET$TRACES
 10
142.3097898917498
 20
23.90433086487627
 30
0.3304610414045932
 40
0.5
 50
359.9999999999968
 51
45.0
  0
LINE
  5
32E
  8
MOSFET$TRACES
 10
142.663343282343
 20
24.2578842554695
 30
0.3304610414045929
 11
138.6372140592003
 21
28.28401347861211
 31
0.3304610414045928
  0
ARC
  5
32F
  8
MOSFET$TRACES
 10
138.283660668607
 20
27.930460088019
 30
0.3304610414045932
 40
0.5
 50
44.99999999999597
 51
91.18847305285702
  0
ARC
  5
330
  8
MOSFET$TRACES
 10
-138.2566979870783
 20
29.23009843231835
 30
-0.3304610414045938
 40
0.7999180020943135
 50
268.8114755260459
 51
0.0024743364697851
210
0.0
220
0.0
230
-1.0
  0
ARC
  5
331
  8
MOSFET$TRACES
 10
-138.25677998573
 20
29.23013297703169
 30
-0.3304610414045929
 40
0.8000000000000682
 50
0.0000000000050889
 51
181.1869385395906
210
0.0
220
0.0
230
-1.0
  0
ARC
  5
332
  8
MOSFET$TRACES
 10
139.5565010468689
 20
29.20320412202864
 30
0.3304610414045932
 40
0.5
 50
178.8130614604046
 51
225.0000000000029
  0
LINE
  5
333
  8
MOSFET$TRACES
 10
139.2029476562757
 20
28.84965073143537
 30
0.330461041404593
 11
143.6097898917498
 21
24.44280849596129
 31
0.330461041404593
  0
LINE
  5
334
  8
MOSFET$TRACES
 10
143.6097898917498
 20
24.44280849596129
 30
0.330461041404593
 11
143.6097898917498
 21
-14.24263906209059
 31
0.330461041404593
  0
LINE
  5
335
  8
MOSFET$TRACES
 10
143.6097898917498
 20
-14.24263906209059
 30
0.330461041404593
 11
138.4224654106793
 21
-19.42996354316113
 31
0.330461041404593
  0
LINE
  5
336
  8
MOSFET$TRACES
 10
138.4224654106793
 20
-19.42996354316113
 30
0.330461041404593
 11
136.694931863679
 21
-19.42996354316113
 31
0.330461041404593
  0
ARC
  5
337
  8
MOSFET$TRACES
 10
136.694931863679
 20
-19.92996354316119
 30
0.3304610414045932
 40
0.5
 50
90.0
 51
136.1869385395936
  0
ARC
  5
338
  8
MOSFET$TRACES
 10
-135.7568487117142
 20
-19.02996354316118
 30
-0.3304610414045927
 40
0.8000000000000435
 50
223.8130614603982
 51
136.1869385396043
210
0.0
220
0.0
230
-1.0
  0
ARC
  5
339
  8
MOSFET$TRACES
 10
136.694931863679
 20
-18.12996354316124
 30
0.3304610414045932
 40
0.5
 50
223.8130614604052
 51
270.0
  0
LINE
  5
33A
  8
MOSFET$TRACES
 10
136.6949318636791
 20
-18.62996354316127
 30
0.3304610414045929
 11
137.8839877795944
 21
-18.62996354316127
 31
0.3304610414045924
  0
ARC
  5
33B
  8
MOSFET$TRACES
 10
137.8839877795941
 20
-18.12996354316124
 30
0.3304610414045932
 40
0.5
 50
270.0000000000065
 51
315.0000000000067
  0
LINE
  5
33C
  8
MOSFET$TRACES
 10
138.2375411701875
 20
-15.94351185374434
 30
0.3304610414045932
 11
140.631339218335
 21
-13.54971380559685
 31
0.3304610414045932
  0
ARC
  5
33D
  8
MOSFET$TRACES
 10
140.2777858277417
 20
-13.19616041500353
 30
0.3304610414045932
 40
0.5
 50
315.0000000000002
 51
0.0000000000012213
  0
LINE
  5
33E
  8
MOSFET$TRACES
 10
140.7777858277417
 20
-13.19616041500353
 30
0.3304610414045932
 11
140.7777858277417
 21
18.31631968885393
 31
0.3304610414045932
  0
ARC
  5
33F
  8
MOSFET$TRACES
 10
140.2777858277417
 20
18.31631968885392
 30
0.3304610414045932
 40
0.5
 50
359.9999999999992
 51
44.99999999999942
  0
LINE
  5
340
  8
MOSFET$TRACES
 10
140.631339218335
 20
18.6698730794472
 30
0.3304610414045932
 11
138.6372622313264
 21
20.66395006645568
 31
0.3304610414045932
  0
ARC
  5
341
  8
MOSFET$TRACES
 10
138.2837088407331
 20
20.31039667586242
 30
0.3304610414045932
 40
0.5
 50
45.00000000000346
 51
91.18693853959542
  0
ARC
  5
342
  8
MOSFET$TRACES
 10
-138.2567799857299
 20
21.61011773700129
 30
-0.330461041404593
 40
0.8000000000000058
 50
268.8130614603887
 51
181.1869385395927
210
0.0
220
0.0
230
-1.0
  0
ARC
  5
343
  8
MOSFET$TRACES
 10
139.5565010468689
 20
21.58318888199824
 30
0.3304610414045932
 40
0.5
 50
178.8130614604021
 51
225.0000000000043
  0
LINE
  5
344
  8
MOSFET$TRACES
 10
139.2029476562758
 20
21.2296354914049
 30
0.3304610414045927
 11
141.5777858277418
 21
18.8547973199389
 31
0.3304610414045927
  0
LINE
  5
345
  8
MOSFET$TRACES
 10
141.5777858277418
 20
18.8547973199389
 30
0.3304610414045927
 11
141.5777858277418
 21
-13.73463804608859
 31
0.3304610414045927
  0
LINE
  5
346
  8
MOSFET$TRACES
 10
141.5777858277418
 20
-13.73463804608859
 30
0.3304610414045927
 11
138.4224654106792
 21
-16.88995846315111
 31
0.3304610414045927
  0
LINE
  5
347
  8
MOSFET$TRACES
 10
138.4224654106792
 20
-16.88995846315111
 30
0.3304610414045927
 11
136.6949318636791
 21
-16.88995846315104
 31
0.3304610414045927
  0
ARC
  5
348
  8
MOSFET$TRACES
 10
136.694931863679
 20
-17.38995846315106
 30
0.3304610414045932
 40
0.5
 50
89.99999999999675
 51
136.1869385395942
  0
ARC
  5
349
  8
MOSFET$TRACES
 10
-135.7568487117143
 20
-16.48995846315099
 30
-0.3304610414045934
 40
0.8000000000000911
 50
223.8130614603988
 51
359.9999999999933
210
0.0
220
0.0
230
-1.0
  0
ARC
  5
34A
  8
MOSFET$TRACES
 10
-135.7568487117143
 20
-16.48995846315098
 30
-0.3304610414045929
 40
0.7999999999999545
 50
359.9999999999924
 51
136.1869385396142
210
0.0
220
0.0
230
-1.0
  0
ARC
  5
34B
  8
MOSFET$TRACES
 10
136.694931863679
 20
-15.58995846315111
 30
0.3304610414045932
 40
0.5
 50
223.8130614604059
 51
270.0
  0
LINE
  5
34C
  8
MOSFET$TRACES
 10
136.6949318636791
 20
-16.08995846315105
 30
0.3304610414045932
 11
137.8839877795943
 21
-16.08995846315105
 31
0.3304610414045932
  0
ARC
  5
34D
  8
MOSFET$TRACES
 10
137.8839877795941
 20
-15.58995846315105
 30
0.3304610414045932
 40
0.5
 50
270.0
 51
315.0000000000014
  0
LINE
  5
34E
  8
MOSFET$TRACES
 10
132.7472882091068
 20
-17.99472269561459
 30
0.3304610414045931
 11
135.3763664661177
 21
-20.62380095262563
 31
0.3304610414045931
  0
ARC
  5
34F
  8
MOSFET$TRACES
 10
135.729919856711
 20
-20.27024756203235
 30
0.3304610414045932
 40
0.5
 50
224.9999999999997
 51
271.1869385395954
  0
ARC
  5
350
  8
MOSFET$TRACES
 10
-135.7568487117143
 20
-21.56996862317132
 30
-0.3304610414045929
 40
0.8000000000000244
 50
88.81306146039891
 51
359.9999999999972
210
0.0
220
0.0
230
-1.0
  0
ARC
  5
351
  8
MOSFET$TRACES
 10
-135.7568487131515
 20
-21.56996862318422
 30
-0.3304610414087323
 40
0.800000001437212
 50
0.0000000009221064
 51
1.186938538392038
210
0.0
220
0.0
230
-1.0
  0
ARC
  5
352
  8
MOSFET$TRACES
 10
134.4571276505753
 20
-21.54303976816811
 30
0.3304610414045932
 40
0.5
 50
358.8130614604054
 51
44.99999999999942
  0
LINE
  5
353
  8
MOSFET$TRACES
 10
134.8106810411686
 20
-21.18948637757491
 30
0.3304610414045929
 11
131.8008415997002
 21
-18.17964693610639
 31
0.3304610414045929
  0
LINE
  5
354
  8
MOSFET$TRACES
 10
131.8008415997002
 20
-18.17964693610639
 30
0.3304610414045929
 11
131.8008415997002
 21
10.59978080990589
 31
0.3304610414045929
  0
LINE
  5
355
  8
MOSFET$TRACES
 10
131.8008415997002
 20
10.59978080990589
 30
0.3304610414045929
 11
135.5911632867651
 21
14.39010249697082
 31
0.3304610414045929
  0
LINE
  5
356
  8
MOSFET$TRACES
 10
135.5911632867651
 20
14.39010249697082
 30
0.3304610414045929
 11
137.3186968337653
 21
14.39010249697082
 31
0.3304610414045929
  0
ARC
  5
357
  8
MOSFET$TRACES
 10
137.3186968337652
 20
14.89010249697083
 30
0.3304610414045932
 40
0.5
 50
270.0
 51
316.1869385395976
  0
ARC
  5
358
  8
MOSFET$TRACES
 10
-138.2567799857299
 20
13.99010249697091
 30
-0.3304610414045931
 40
0.7999999999999731
 50
43.81306146039882
 51
316.1869385395985
210
0.0
220
0.0
230
-1.0
  0
ARC
  5
359
  8
MOSFET$TRACES
 10
137.3186968337652
 20
13.09010249697087
 30
0.3304610414045932
 40
0.5
 50
43.81306146040683
 51
90.00000000000325
  0
LINE
  5
35A
  8
MOSFET$TRACES
 10
137.3186968337651
 20
13.59010249697089
 30
0.3304610414045931
 11
136.12964091785
 21
13.59010249697089
 31
0.3304610414045931
  0
ARC
  5
35B
  8
MOSFET$TRACES
 10
136.1296409178501
 20
13.09010249697087
 30
0.3304610414045932
 40
0.5
 50
90.00000000000325
 51
134.9999999999993
  0
LINE
  5
35C
  8
MOSFET$TRACES
 10
135.7760875272567
 20
13.44365588756414
 30
0.3304610414045931
 11
132.7472882091067
 21
10.41485656941418
 31
0.3304610414045931
  0
ARC
  5
35D
  8
MOSFET$TRACES
 10
133.1008415997001
 20
10.06130317882094
 30
0.3304610414045932
 40
0.5
 50
135.0000000000006
 51
179.999999999991
  0
LINE
  5
35E
  8
MOSFET$TRACES
 10
132.6008415997
 20
10.06130317882099
 30
0.3304610414045931
 11
132.6008415997
 21
-17.64116930502134
 31
0.3304610414045931
  0
ARC
  5
35F
  8
MOSFET$TRACES
 10
133.1008415997001
 20
-17.64116930502132
 30
0.3304610414045932
 40
0.5
 50
180.0
 51
225.0000000000003
  0
LINE
  5
360
  8
MOSFET$TRACES
 10
138.9995426941903
 20
-23.56352709377499
 30
0.3304610414045928
 11
144.6953473463511
 21
-17.86772244161423
 31
0.3304610414045928
  0
ARC
  5
361
  8
MOSFET$TRACES
 10
144.3417939557578
 20
-17.51416905102099
 30
0.3304610414045932
 40
0.5
 50
315.0000000000106
 51
0.0000000000350115
  0
LINE
  5
362
  8
MOSFET$TRACES
 10
144.8417939557579
 20
-17.51416905102073
 30
0.3304610414045928
 11
144.8417939557579
 21
25.80933467488376
 31
0.3304610414045928
  0
ARC
  5
363
  8
MOSFET$TRACES
 10
144.3417939557579
 20
25.80933467488398
 30
0.3304610414045932
 40
0.5
 50
359.9999999999878
 51
44.99999999999137
  0
LINE
  5
364
  8
MOSFET$TRACES
 10
144.6953473463512
 20
26.16288806547708
 30
0.3304610414045928
 11
139.8090423131896
 21
31.04919309863848
 31
0.3304610414045928
  0
ARC
  5
365
  8
MOSFET$TRACES
 10
139.4554889225963
 20
30.69563970804529
 30
0.3304610414045932
 40
0.5
 50
45.00000000000288
 51
90.00000000000651
  0
LINE
  5
366
  8
MOSFET$TRACES
 10
139.4554889225963
 20
31.19563970804523
 30
0.3304610414045928
 11
138.2010733348679
 21
31.19563970804523
 31
0.3304610414045928
  0
ARC
  5
367
  8
MOSFET$TRACES
 10
138.2010733348679
 20
30.69563970804529
 30
0.3304610414045932
 40
0.5
 50
90.0
 51
135.0
  0
LINE
  5
368
  8
MOSFET$TRACES
 10
137.8475199442747
 20
31.04919309863848
 30
0.3304610414045928
 11
137.1522232931299
 21
30.35389644749386
 31
0.3304610414045928
  0
ARC
  5
369
  8
MOSFET$TRACES
 10
137.5057766837232
 20
30.00034305690059
 30
0.3304610414045932
 40
0.5
 50
134.9999999999908
 51
179.9999999999862
  0
LINE
  5
36A
  8
MOSFET$TRACES
 10
137.0057766837232
 20
30.00034305690067
 30
0.3304610414045928
 11
137.0057766837232
 21
28.71392340516404
 31
0.3304610414045928
  0
ARC
  5
36B
  8
MOSFET$TRACES
 10
137.5057766837232
 20
28.71392340516411
 30
0.3304610414045932
 40
0.5
 50
180.0000000000008
 51
225.0000000000003
  0
LINE
  5
36C
  8
MOSFET$TRACES
 10
137.1522232931299
 20
28.36037001457078
 30
0.3304610414045928
 11
137.8762977401334
 21
27.63629556756733
 31
0.3304610414045928
  0
ARC
  5
36D
  8
MOSFET$TRACES
 10
138.2298511307267
 20
27.98984895816062
 30
0.3304610414045932
 40
0.5
 50
224.9999999999954
 51
271.186938539602
  0
ARC
  5
36E
  8
MOSFET$TRACES
 10
-138.25677998573
 20
26.69012789702169
 30
-0.3304610414045927
 40
0.7999999999999343
 50
88.81306146039064
 51
0.0000000000007633
210
0.0
220
0.0
230
-1.0
  0
ARC
  5
36F
  8
MOSFET$TRACES
 10
-138.2567799877013
 20
26.69012789700319
 30
-0.3304610414061421
 40
0.8000000019714264
 50
0.0000000013203119
 51
1.18693853799558
210
0.0
220
0.0
230
-1.0
  0
ARC
  5
370
  8
MOSFET$TRACES
 10
136.957058924591
 20
26.71705675202475
 30
0.3304610414045932
 40
0.5
 50
358.813061460407
 51
45.00000000000115
  0
LINE
  5
371
  8
MOSFET$TRACES
 10
137.3106123151842
 20
27.07061014261805
 30
0.3304610414045928
 11
136.2057766837233
 21
28.17544577407898
 31
0.3304610414045928
  0
LINE
  5
372
  8
MOSFET$TRACES
 10
136.2057766837233
 20
28.17544577407898
 30
0.3304610414045928
 11
136.2057766837233
 21
30.5388206879856
 31
0.3304610414045928
  0
LINE
  5
373
  8
MOSFET$TRACES
 10
136.2057766837233
 20
30.5388206879856
 30
0.3304610414045928
 11
137.662595703783
 21
31.99563970804524
 31
0.3304610414045928
  0
LINE
  5
374
  8
MOSFET$TRACES
 10
137.662595703783
 20
31.99563970804524
 30
0.3304610414045928
 11
139.9939665536813
 21
31.99563970804524
 31
0.3304610414045928
  0
LINE
  5
375
  8
MOSFET$TRACES
 10
139.9939665536813
 20
31.99563970804524
 30
0.3304610414045928
 11
145.6417939557578
 21
26.34781230596882
 31
0.3304610414045928
  0
LINE
  5
376
  8
MOSFET$TRACES
 10
145.6417939557578
 20
26.34781230596882
 30
0.3304610414045928
 11
145.6417939557578
 21
-18.05264668210597
 31
0.3304610414045928
  0
LINE
  5
377
  8
MOSFET$TRACES
 10
145.6417939557578
 20
-18.05264668210597
 30
0.3304610414045928
 11
139.1844669346821
 21
-24.50997370318162
 31
0.3304610414045928
  0
LINE
  5
378
  8
MOSFET$TRACES
 10
139.1844669346821
 20
-24.50997370318162
 30
0.3304610414045928
 11
136.694931863679
 21
-24.50997370318162
 31
0.3304610414045928
  0
ARC
  5
379
  8
MOSFET$TRACES
 10
136.694931863679
 20
-25.00997370318157
 30
0.3304610414045932
 40
0.5
 50
90.0
 51
136.1869385395977
  0
ARC
  5
37A
  8
MOSFET$TRACES
 10
-135.7568487117143
 20
-24.10997370318157
 30
-0.3304610414045929
 40
0.8000000000000336
 50
223.8130614603975
 51
136.1869385396
210
0.0
220
0.0
230
-1.0
  0
ARC
  5
37B
  8
MOSFET$TRACES
 10
136.694931863679
 20
-23.20997370318162
 30
0.3304610414045932
 40
0.5
 50
223.8130614604049
 51
270.0
  0
LINE
  5
37C
  8
MOSFET$TRACES
 10
136.694931863679
 20
-23.70997370318167
 30
0.3304610414045928
 11
138.6459893035972
 21
-23.70997370318161
 31
0.3304610414045928
  0
ARC
  5
37D
  8
MOSFET$TRACES
 10
138.6459893035972
 20
-23.20997370318156
 30
0.3304610414045932
 40
0.5
 50
270.0
 51
314.9999999999812
  0
LINE
  5
37E
  8
MOSFET$TRACES
 10
147.0007982737665
 20
-22.46717895704079
 30
0.3304610414045934
 11
147.0007982737665
 21
29.23834153289768
 31
0.3304610414045934
  0
ARC
  5
37F
  8
MOSFET$TRACES
 10
146.5007982737665
 20
29.23834153289766
 30
0.3304610414045932
 40
0.5
 50
359.9999999999992
 51
44.99999999997985
  0
LINE
  5
380
  8
MOSFET$TRACES
 10
146.8543516643598
 20
29.59189492349081
 30
0.3304610414045934
 11
142.9365505682063
 21
33.50969601964425
 31
0.3304610414045934
  0
ARC
  5
381
  8
MOSFET$TRACES
 10
142.5829971776129
 20
33.15614262905109
 30
0.3304610414045932
 40
0.5
 50
44.99999999998158
 51
89.99999999998046
  0
LINE
  5
382
  8
MOSFET$TRACES
 10
142.582997177613
 20
33.65614262905109
 30
0.3304610414045934
 11
138.1215711758639
 21
33.65614262905115
 31
0.3304610414045934
  0
ARC
  5
383
  8
MOSFET$TRACES
 10
138.1215711758637
 20
33.15614262905115
 30
0.3304610414045932
 40
0.5
 50
89.99999999997394
 51
135.0000000000006
  0
LINE
  5
384
  8
MOSFET$TRACES
 10
137.7680177852704
 20
33.50969601964437
 30
0.3304610414045934
 11
134.9932189751214
 21
30.73489720949545
 31
0.3304610414045934
  0
ARC
  5
385
  8
MOSFET$TRACES
 10
135.3467723657146
 20
30.38134381890222
 30
0.3304610414045932
 40
0.5
 50
135.0000000000003
 51
180.0
  0
LINE
  5
386
  8
MOSFET$TRACES
 10
134.8467723657147
 20
30.38134381890219
 30
0.3304610414045934
 11
134.8467723657147
 21
28.33292264316252
 31
0.3304610414045934
  0
ARC
  5
387
  8
MOSFET$TRACES
 10
135.3467723657146
 20
28.33292264316253
 30
0.3304610414045932
 40
0.5
 50
180.0000000000008
 51
225.0000000000035
  0
LINE
  5
388
  8
MOSFET$TRACES
 10
134.9932189751214
 20
27.97936925256926
 30
0.3304610414045934
 11
137.8762977401335
 21
25.0962904875572
 31
0.3304610414045934
  0
ARC
  5
389
  8
MOSFET$TRACES
 10
138.2298511307267
 20
25.44984387815049
 30
0.3304610414045932
 40
0.5
 50
224.9999999999997
 51
271.1869385395954
  0
ARC
  5
38A
  8
MOSFET$TRACES
 10
-138.25677998573
 20
24.15012281701147
 30
-0.3304610414045931
 40
0.8000000000000302
 50
88.813061460403
 51
1.186938539601846
210
0.0
220
0.0
230
-1.0
  0
ARC
  5
38B
  8
MOSFET$TRACES
 10
136.957058924591
 20
24.17705167201473
 30
0.3304610414045932
 40
0.5
 50
358.8130614604046
 51
45.0
  0
LINE
  5
38C
  8
MOSFET$TRACES
 10
137.3106123151842
 20
24.53060506260803
 30
0.3304610414045932
 11
134.0467723657147
 21
27.79444501207752
 31
0.3304610414045932
  0
LINE
  5
38D
  8
MOSFET$TRACES
 10
134.0467723657147
 20
27.79444501207752
 30
0.3304610414045932
 11
134.0467723657147
 21
30.91982144998724
 31
0.3304610414045932
  0
LINE
  5
38E
  8
MOSFET$TRACES
 10
134.0467723657147
 20
30.91982144998724
 30
0.3304610414045932
 11
137.5830935447786
 21
34.45614262905116
 31
0.3304610414045932
  0
LINE
  5
38F
  8
MOSFET$TRACES
 10
137.5830935447786
 20
34.45614262905116
 30
0.3304610414045932
 11
143.1214748086978
 21
34.45614262905116
 31
0.3304610414045932
  0
LINE
  5
390
  8
MOSFET$TRACES
 10
143.1214748086978
 20
34.45614262905116
 30
0.3304610414045932
 11
147.8007982737664
 21
29.77681916398267
 31
0.3304610414045932
  0
LINE
  5
391
  8
MOSFET$TRACES
 10
147.8007982737664
 20
29.77681916398267
 30
0.3304610414045932
 11
147.8007982737664
 21
-23.00565658812572
 31
0.3304610414045932
  0
LINE
  5
392
  8
MOSFET$TRACES
 10
147.8007982737664
 20
-23.00565658812572
 30
0.3304610414045932
 11
141.2164709986902
 21
-29.58998386320178
 31
0.3304610414045932
  0
LINE
  5
393
  8
MOSFET$TRACES
 10
141.2164709986902
 20
-29.58998386320178
 30
0.3304610414045932
 11
136.694931863679
 21
-29.58998386320178
 31
0.3304610414045932
  0
ARC
  5
394
  8
MOSFET$TRACES
 10
136.694931863679
 20
-30.08998386320184
 30
0.3304610414045932
 40
0.5
 50
90.0
 51
136.1869385395939
  0
ARC
  5
395
  8
MOSFET$TRACES
 10
-135.7568487117143
 20
-29.18998386320172
 30
-0.3304610414045931
 40
0.800000000000046
 50
223.8130614603984
 51
359.9999999999959
210
0.0
220
0.0
230
-1.0
  0
ARC
  5
396
  8
MOSFET$TRACES
 10
-135.7568487117142
 20
-29.18998386320173
 30
-0.3304610414045925
 40
0.7999999999998977
 50
359.9999999999908
 51
136.1869385396117
210
0.0
220
0.0
230
-1.0
  0
ARC
  5
397
  8
MOSFET$TRACES
 10
136.694931863679
 20
-28.28998386320188
 30
0.3304610414045932
 40
0.5
 50
223.8130614604023
 51
269.9999999999968
  0
LINE
  5
398
  8
MOSFET$TRACES
 10
136.694931863679
 20
-28.78998386320184
 30
0.3304610414045934
 11
140.6779933676054
 21
-28.78998386320184
 31
0.3304610414045934
  0
ARC
  5
399
  8
MOSFET$TRACES
 10
140.6779933676053
 20
-28.28998386320183
 30
0.3304610414045932
 40
0.5
 50
270.0
 51
314.9999999999784
  0
LINE
  5
39A
  8
MOSFET$TRACES
 10
141.0315467581984
 20
-28.64353725379526
 30
0.3304610414045934
 11
146.8543516643598
 21
-22.82073234763392
 31
0.3304610414045934
  0
ARC
  5
39B
  8
MOSFET$TRACES
 10
146.5007982737665
 20
-22.46717895704063
 30
0.3304610414045932
 40
0.5
 50
315.0
 51
359.999999999978
  0
LINE
  5
39C
  8
MOSFET$TRACES
 10
132.8276343138367
 20
-33.86999402322213
 30
0.3304610414045927
 11
134.8187655597496
 21
-33.86999402322213
 31
0.3304610414045927
  0
ARC
  5
39D
  8
MOSFET$TRACES
 10
134.8187655597495
 20
-33.36999402322226
 30
0.3304610414045932
 40
0.5
 50
270.0
 51
316.1869385395942
  0
ARC
  5
39E
  8
MOSFET$TRACES
 10
-135.7568487117143
 20
-34.26999402322219
 30
-0.330461041404593
 40
0.8000000000000929
 50
43.81306146039305
 51
316.1869385396066
210
0.0
220
0.0
230
-1.0
  0
ARC
  5
39F
  8
MOSFET$TRACES
 10
134.8187655597495
 20
-35.16999402322222
 30
0.3304610414045932
 40
0.5
 50
43.81306146040521
 51
90.0
  0
LINE
  5
3A0
  8
MOSFET$TRACES
 10
134.8187655597495
 20
-34.66999402322224
 30
0.3304610414045931
 11
132.2891566827517
 21
-34.66999402322224
 31
0.3304610414045931
  0
LINE
  5
3A1
  8
MOSFET$TRACES
 10
132.2891566827517
 20
-34.66999402322224
 30
0.3304610414045931
 11
127.6098332176831
 21
-29.99067055815366
 31
0.3304610414045931
  0
LINE
  5
3A2
  8
MOSFET$TRACES
 10
127.6098332176831
 20
-29.99067055815366
 30
0.3304610414045931
 11
127.6098332176831
 21
11.48878258790936
 31
0.3304610414045931
  0
LINE
  5
3A3
  8
MOSFET$TRACES
 10
127.6098332176831
 20
11.48878258790936
 30
0.3304610414045931
 11
135.591163286765
 21
19.47011265699117
 31
0.3304610414045931
  0
LINE
  5
3A4
  8
MOSFET$TRACES
 10
135.591163286765
 20
19.47011265699117
 30
0.3304610414045931
 11
137.3186968337652
 21
19.47011265699117
 31
0.3304610414045931
  0
ARC
  5
3A5
  8
MOSFET$TRACES
 10
137.3186968337652
 20
19.9701126569912
 30
0.3304610414045932
 40
0.5
 50
269.9999999999935
 51
316.186938539585
  0
ARC
  5
3A6
  8
MOSFET$TRACES
 10
-138.2567799857299
 20
19.07011265699125
 30
-0.3304610414045929
 40
0.7999999999999919
 50
43.81306146039435
 51
316.1869385396001
210
0.0
220
0.0
230
-1.0
  0
ARC
  5
3A7
  8
MOSFET$TRACES
 10
137.3186968337652
 20
18.17011265699125
 30
0.3304610414045932
 40
0.5
 50
43.81306146040237
 51
90.0
  0
LINE
  5
3A8
  8
MOSFET$TRACES
 10
137.3186968337653
 20
18.67011265699133
 30
0.3304610414045927
 11
136.12964091785
 21
18.67011265699133
 31
0.3304610414045927
  0
ARC
  5
3A9
  8
MOSFET$TRACES
 10
136.1296409178501
 20
18.17011265699125
 30
0.3304610414045932
 40
0.5
 50
90.00000000000978
 51
135.0000000000061
  0
LINE
  5
3AA
  8
MOSFET$TRACES
 10
135.7760875272568
 20
18.52366604758462
 30
0.3304610414045927
 11
128.55627982709
 21
11.30385834741764
 31
0.3304610414045927
  0
ARC
  5
3AB
  8
MOSFET$TRACES
 10
128.9098332176832
 20
10.95030495682443
 30
0.3304610414045932
 40
0.5
 50
135.000000000005
 51
180.0000000000024
  0
LINE
  5
3AC
  8
MOSFET$TRACES
 10
128.4098332176832
 20
10.95030495682444
 30
0.3304610414045927
 11
128.4098332176832
 21
-29.65929970825513
 31
0.3304610414045927
  0
LINE
  5
3AD
  8
MOSFET$TRACES
 10
128.4098332176832
 20
-29.65929970825513
 30
0.3304610414045927
 11
132.4740809232435
 21
-33.72354741381541
 31
0.3304610414045927
  0
ARC
  5
3AE
  8
MOSFET$TRACES
 10
132.8276343138367
 20
-33.3699940232222
 30
0.3304610414045932
 40
0.5
 50
224.9999999999983
 51
270.0
  0
ARC
  5
3AF
  8
MOSFET$TRACES
 10
136.5875110980691
 20
0.2900770969730502
 30
0.3304610414045932
 40
0.5
 50
89.99999999928022
 51
129.7151372354412
  0
ARC
  5
3B0
  8
MOSFET$TRACES
 10
-135.7568487117143
 20
1.290077096920641
 30
-0.3304610414045932
 40
0.8000000000000049
 50
230.2848627645596
 51
129.7151372318312
210
0.0
220
0.0
230
-1.0
  0
ARC
  5
3B1
  8
MOSFET$TRACES
 10
136.5875110980061
 20
2.290077096920641
 30
0.3304610414045932
 40
0.5
 50
230.2848627681697
 51
269.9999999999707
  0
LINE
  5
3B2
  8
MOSFET$TRACES
 10
136.5875110980058
 20
1.790077096920641
 30
0.3304610414045932
 11
138.0962142654471
 21
1.790077096911205
 31
0.3304610414045932
  0
ARC
  5
3B3
  8
MOSFET$TRACES
 10
138.0962142654334
 20
2.290077096911205
 30
0.3304610414045932
 40
0.5
 50
270.0000000015633
 51
309.7151372316567
  0
ARC
  5
3B4
  8
MOSFET$TRACES
 10
-138.9268766517658
 20
1.290077096939285
 30
-0.3304610414045932
 40
0.8000000000042734
 50
50.28486276454816
 51
309.7151372320057
210
0.0
220
0.0
230
-1.0
  0
ARC
  5
3B5
  8
MOSFET$TRACES
 10
138.0962142654681
 20
0.2900770969386031
 30
0.3304610414045932
 40
0.5
 50
50.28486276799239
 51
89.99999999928022
  0
LINE
  5
3B6
  8
MOSFET$TRACES
 10
138.0962142654744
 20
0.7900770969386031
 30
0.3304610414045932
 11
136.5875110980754
 21
0.7900770969730502
 31
0.3304610414045932
  0
ARC
  5
3B7
  8
MOSFET$TRACES
 10
136.5875110980691
 20
-2.249927983037196
 30
0.3304610414045932
 40
0.5
 50
89.99999999928022
 51
129.7151372354412
  0
ARC
  5
3B8
  8
MOSFET$TRACES
 10
-135.7568487117143
 20
-1.249927983089606
 30
-0.3304610414045932
 40
0.8000000000000049
 50
230.2848627645596
 51
129.7151372318312
210
0.0
220
0.0
230
-1.0
  0
ARC
  5
3B9
  8
MOSFET$TRACES
 10
136.5875110980061
 20
-0.2499279830896057
 30
0.3304610414045932
 40
0.5
 50
230.2848627681697
 51
269.9999999999707
  0
LINE
  5
3BA
  8
MOSFET$TRACES
 10
136.5875110980058
 20
-0.7499279830896057
 30
0.3304610414045932
 11
138.0962142654471
 21
-0.7499279830990417
 31
0.3304610414045932
  0
ARC
  5
3BB
  8
MOSFET$TRACES
 10
138.0962142654334
 20
-0.2499279830990417
 30
0.3304610414045932
 40
0.5
 50
270.0000000015633
 51
309.7151372316567
  0
ARC
  5
3BC
  8
MOSFET$TRACES
 10
-138.9268766517658
 20
-1.249927983070961
 30
-0.3304610414045932
 40
0.8000000000042734
 50
50.28486276454816
 51
309.7151372320057
210
0.0
220
0.0
230
-1.0
  0
ARC
  5
3BD
  8
MOSFET$TRACES
 10
138.0962142654681
 20
-2.249927983071643
 30
0.3304610414045932
 40
0.5
 50
50.28486276799239
 51
89.99999999928022
  0
LINE
  5
3BE
  8
MOSFET$TRACES
 10
138.0962142654744
 20
-1.749927983071643
 30
0.3304610414045932
 11
136.5875110980754
 21
-1.749927983037196
 31
0.3304610414045932
  0
ARC
  5
3BF
  8
MOSFET$TRACES
 10
136.5875110980692
 20
-4.789933063047442
 30
0.3304610414045932
 40
0.5
 50
89.99999999928022
 51
129.7151372354412
  0
ARC
  5
3C0
  8
MOSFET$TRACES
 10
-135.7568487117143
 20
-3.789933063099852
 30
-0.3304610414045932
 40
0.8000000000000049
 50
230.2848627645596
 51
129.7151372318312
210
0.0
220
0.0
230
-1.0
  0
ARC
  5
3C1
  8
MOSFET$TRACES
 10
136.5875110980061
 20
-2.789933063099852
 30
0.3304610414045932
 40
0.5
 50
230.2848627681697
 51
269.9999999999707
  0
LINE
  5
3C2
  8
MOSFET$TRACES
 10
136.5875110980058
 20
-3.289933063099852
 30
0.3304610414045932
 11
138.0962142654471
 21
-3.289933063109288
 31
0.3304610414045932
  0
ARC
  5
3C3
  8
MOSFET$TRACES
 10
138.0962142654334
 20
-2.789933063109288
 30
0.3304610414045932
 40
0.5
 50
270.0000000015633
 51
309.7151372316567
  0
ARC
  5
3C4
  8
MOSFET$TRACES
 10
-138.9268766517658
 20
-3.789933063081207
 30
-0.3304610414045932
 40
0.8000000000042734
 50
50.28486276454815
 51
309.7151372320058
210
0.0
220
0.0
230
-1.0
  0
ARC
  5
3C5
  8
MOSFET$TRACES
 10
138.0962142654681
 20
-4.789933063081889
 30
0.3304610414045932
 40
0.5
 50
50.28486276799239
 51
89.99999999928022
  0
LINE
  5
3C6
  8
MOSFET$TRACES
 10
138.0962142654744
 20
-4.289933063081889
 30
0.3304610414045932
 11
136.5875110980754
 21
-4.289933063047442
 31
0.3304610414045932
  0
ARC
  5
3C7
  8
MOSFET$TRACES
 10
136.5875110980692
 20
-9.869943223067935
 30
0.3304610414045932
 40
0.5
 50
89.99999999928022
 51
129.7151372354413
  0
ARC
  5
3C8
  8
MOSFET$TRACES
 10
-135.7568487117143
 20
-8.869943223120345
 30
-0.3304610414045932
 40
0.8000000000000049
 50
230.2848627645596
 51
129.7151372318312
210
0.0
220
0.0
230
-1.0
  0
ARC
  5
3C9
  8
MOSFET$TRACES
 10
136.5875110980062
 20
-7.869943223120345
 30
0.3304610414045932
 40
0.5
 50
230.2848627681697
 51
269.9999999999707
  0
LINE
  5
3CA
  8
MOSFET$TRACES
 10
136.5875110980058
 20
-8.369943223120345
 30
0.3304610414045932
 11
138.0962142654471
 21
-8.36994322312978
 31
0.3304610414045932
  0
ARC
  5
3CB
  8
MOSFET$TRACES
 10
138.0962142654334
 20
-7.869943223129781
 30
0.3304610414045932
 40
0.5
 50
270.0000000015633
 51
309.7151372316567
  0
ARC
  5
3CC
  8
MOSFET$TRACES
 10
-138.9268766517658
 20
-8.8699432231017
 30
-0.3304610414045932
 40
0.8000000000042734
 50
50.28486276454811
 51
309.7151372320058
210
0.0
220
0.0
230
-1.0
  0
ARC
  5
3CD
  8
MOSFET$TRACES
 10
138.0962142654681
 20
-9.869943223102382
 30
0.3304610414045932
 40
0.5
 50
50.28486276799239
 51
89.99999999928022
  0
LINE
  5
3CE
  8
MOSFET$TRACES
 10
138.0962142654744
 20
-9.369943223102382
 30
0.3304610414045932
 11
136.5875110980754
 21
-9.369943223067935
 31
0.3304610414045932
  0
ARC
  5
3CF
  8
MOSFET$TRACES
 10
136.5875110980692
 20
-37.80999910318008
 30
0.3304610414045932
 40
0.5
 50
89.99999999928022
 51
129.7151372354411
  0
ARC
  5
3D0
  8
MOSFET$TRACES
 10
-135.7568487117143
 20
-36.80999910323249
 30
-0.3304610414045932
 40
0.8000000000000049
 50
230.2848627645597
 51
129.7151372318312
210
0.0
220
0.0
230
-1.0
  0
ARC
  5
3D1
  8
MOSFET$TRACES
 10
136.5875110980062
 20
-35.80999910323249
 30
0.3304610414045932
 40
0.5
 50
230.2848627681697
 51
269.9999999999707
  0
LINE
  5
3D2
  8
MOSFET$TRACES
 10
136.5875110980058
 20
-36.30999910323249
 30
0.3304610414045932
 11
138.0962142654471
 21
-36.30999910325727
 31
0.3304610414045932
  0
ARC
  5
3D3
  8
MOSFET$TRACES
 10
138.0962142654336
 20
-35.80999910325727
 30
0.3304610414045932
 40
0.5
 50
270.0000000015633
 51
309.7151372316567
  0
ARC
  5
3D4
  8
MOSFET$TRACES
 10
-138.9268766517658
 20
-36.80999910322919
 30
-0.3304610414045932
 40
0.8000000000042734
 50
50.28486276454811
 51
309.7151372320056
210
0.0
220
0.0
230
-1.0
  0
ARC
  5
3D5
  8
MOSFET$TRACES
 10
138.0962142654682
 20
-37.80999910322987
 30
0.3304610414045932
 40
0.5
 50
50.28486276799227
 51
89.99999999928022
  0
LINE
  5
3D6
  8
MOSFET$TRACES
 10
138.0962142654745
 20
-37.30999910322987
 30
0.3304610414045932
 11
136.5875110980754
 21
-37.30999910318008
 31
0.3304610414045932
  0
ARC
  5
3D7
  8
MOSFET$TRACES
 10
136.5875110980692
 20
-40.35000418319032
 30
0.3304610414045932
 40
0.5
 50
89.99999999928022
 51
129.7151372354411
  0
ARC
  5
3D8
  8
MOSFET$TRACES
 10
-135.7568487117143
 20
-39.35000418324273
 30
-0.3304610414045932
 40
0.8000000000000049
 50
230.2848627645597
 51
129.7151372318312
210
0.0
220
0.0
230
-1.0
  0
ARC
  5
3D9
  8
MOSFET$TRACES
 10
136.5875110980062
 20
-38.35000418324273
 30
0.3304610414045932
 40
0.5
 50
230.2848627681697
 51
269.9999999999707
  0
LINE
  5
3DA
  8
MOSFET$TRACES
 10
136.5875110980058
 20
-38.85000418324273
 30
0.3304610414045932
 11
138.0962142654471
 21
-38.85000418326752
 31
0.3304610414045932
  0
ARC
  5
3DB
  8
MOSFET$TRACES
 10
138.0962142654336
 20
-38.35000418326752
 30
0.3304610414045932
 40
0.5
 50
270.0000000015633
 51
309.7151372316567
  0
ARC
  5
3DC
  8
MOSFET$TRACES
 10
-138.9268766517658
 20
-39.35000418323943
 30
-0.3304610414045932
 40
0.8000000000042734
 50
50.28486276454811
 51
309.7151372320056
210
0.0
220
0.0
230
-1.0
  0
ARC
  5
3DD
  8
MOSFET$TRACES
 10
138.0962142654682
 20
-40.35000418324012
 30
0.3304610414045932
 40
0.5
 50
50.28486276799227
 51
89.99999999928022
  0
LINE
  5
3DE
  8
MOSFET$TRACES
 10
138.0962142654745
 20
-39.85000418324012
 30
0.3304610414045932
 11
136.5875110980754
 21
-39.85000418319032
 31
0.3304610414045932
  0
ARC
  5
3DF
  8
MOSFET$TRACES
 10
136.5875110980692
 20
-12.40994830307818
 30
0.3304610414045932
 40
0.5
 50
89.99999999928022
 51
129.7151372354413
  0
ARC
  5
3E0
  8
MOSFET$TRACES
 10
-135.7568487117143
 20
-11.40994830313059
 30
-0.3304610414045932
 40
0.8000000000000049
 50
230.2848627645596
 51
129.7151372318312
210
0.0
220
0.0
230
-1.0
  0
ARC
  5
3E1
  8
MOSFET$TRACES
 10
136.5875110980062
 20
-10.40994830313059
 30
0.3304610414045932
 40
0.5
 50
230.2848627681697
 51
269.9999999999707
  0
LINE
  5
3E2
  8
MOSFET$TRACES
 10
136.5875110980058
 20
-10.90994830313059
 30
0.3304610414045932
 11
138.0962142654471
 21
-10.90994830314003
 31
0.3304610414045932
  0
ARC
  5
3E3
  8
MOSFET$TRACES
 10
138.0962142654334
 20
-10.40994830314003
 30
0.3304610414045932
 40
0.5
 50
270.0000000015633
 51
309.7151372316567
  0
ARC
  5
3E4
  8
MOSFET$TRACES
 10
-138.9268766517658
 20
-11.40994830311195
 30
-0.3304610414045932
 40
0.8000000000042734
 50
50.28486276454811
 51
309.7151372320058
210
0.0
220
0.0
230
-1.0
  0
ARC
  5
3E5
  8
MOSFET$TRACES
 10
138.0962142654681
 20
-12.40994830311263
 30
0.3304610414045932
 40
0.5
 50
50.28486276799239
 51
89.99999999928022
  0
LINE
  5
3E6
  8
MOSFET$TRACES
 10
138.0962142654744
 20
-11.90994830311263
 30
0.3304610414045932
 11
136.5875110980754
 21
-11.90994830307818
 31
0.3304610414045932
  0
ARC
  5
3E7
  8
MOSFET$TRACES
 10
136.5875110980692
 20
-7.329938143057689
 30
0.3304610414045932
 40
0.5
 50
89.99999999928022
 51
129.7151372354412
  0
ARC
  5
3E8
  8
MOSFET$TRACES
 10
-135.7568487117143
 20
-6.329938143110098
 30
-0.3304610414045932
 40
0.8000000000000049
 50
230.2848627645596
 51
129.7151372318312
210
0.0
220
0.0
230
-1.0
  0
ARC
  5
3E9
  8
MOSFET$TRACES
 10
136.5875110980061
 20
-5.329938143110098
 30
0.3304610414045932
 40
0.5
 50
230.2848627681697
 51
269.9999999999707
  0
LINE
  5
3EA
  8
MOSFET$TRACES
 10
136.5875110980058
 20
-5.829938143110098
 30
0.3304610414045932
 11
138.0962142654471
 21
-5.829938143119534
 31
0.3304610414045932
  0
ARC
  5
3EB
  8
MOSFET$TRACES
 10
138.0962142654334
 20
-5.329938143119534
 30
0.3304610414045932
 40
0.5
 50
270.0000000015633
 51
309.7151372316567
  0
ARC
  5
3EC
  8
MOSFET$TRACES
 10
-138.9268766517658
 20
-6.329938143091454
 30
-0.3304610414045932
 40
0.8000000000042734
 50
50.28486276454819
 51
309.7151372320058
210
0.0
220
0.0
230
-1.0
  0
ARC
  5
3ED
  8
MOSFET$TRACES
 10
138.0962142654681
 20
-7.329938143092136
 30
0.3304610414045932
 40
0.5
 50
50.28486276799239
 51
89.99999999928022
  0
LINE
  5
3EE
  8
MOSFET$TRACES
 10
138.0962142654744
 20
-6.829938143092136
 30
0.3304610414045932
 11
136.5875110980754
 21
-6.829938143057689
 31
0.3304610414045932
  0
ARC
  5
3EF
  8
MOSFET$TRACES
 10
139.0561659736554
 20
-13.67924270501805
 30
0.3304610414045932
 40
0.5
 50
315.0000000000003
 51
64.47122063313475
  0
ARC
  5
3F0
  8
MOSFET$TRACES
 10
138.9268766517658
 20
-13.94995338313754
 30
0.3304610414045932
 40
0.8000000000042734
 50
64.47122063313319
 51
129.7151372354519
  0
ARC
  5
3F1
  8
MOSFET$TRACES
 10
-138.0962142654336
 20
-12.94995338316562
 30
-0.3304610414045932
 40
0.5
 50
230.2848627683433
 51
269.9999999984367
210
0.0
220
0.0
230
-1.0
  0
LINE
  5
3F2
  8
MOSFET$TRACES
 10
138.0962142654471
 20
-13.44995338316562
 30
0.3304610414045932
 11
136.5875110980058
 21
-13.44995338314084
 31
0.3304610414045932
  0
ARC
  5
3F3
  8
MOSFET$TRACES
 10
-136.5875110980062
 20
-12.94995338314084
 30
-0.3304610414045932
 40
0.5
 50
270.0000000000293
 51
309.7151372318303
210
0.0
220
0.0
230
-1.0
  0
ARC
  5
3F4
  8
MOSFET$TRACES
 10
135.7568487117143
 20
-13.94995338314084
 30
0.3304610414045932
 40
0.8000000000000049
 50
50.28486276816875
 51
309.7151372354405
  0
ARC
  5
3F5
  8
MOSFET$TRACES
 10
-136.5875110980692
 20
-14.94995338308843
 30
-0.3304610414045932
 40
0.5
 50
50.28486276455875
 51
90.00000000071977
210
0.0
220
0.0
230
-1.0
  0
LINE
  5
3F6
  8
MOSFET$TRACES
 10
136.5875110980754
 20
-14.44995338308843
 30
0.3304610414045932
 11
138.0962142654745
 21
-14.44995338313822
 31
0.3304610414045932
  0
ARC
  5
3F7
  8
MOSFET$TRACES
 10
-138.0962142654682
 20
-14.94995338313822
 30
-0.3304610414045932
 40
0.5
 50
90.00000000071977
 51
122.3062508093164
210
0.0
220
0.0
230
-1.0
  0
ARC
  5
3F8
  8
MOSFET$TRACES
 10
138.6306588273801
 20
-14.10474985129349
 30
0.3304610414045932
 40
0.5
 50
237.6937491906839
 51
315.0000000000002
  0
LINE
  5
3F9
  8
MOSFET$TRACES
 10
138.9842122179733
 20
-14.45830324188671
 30
0.3304610414045932
 11
139.4097193642488
 21
-14.03279609561139
 31
0.3304610414045932
  0
CIRCLE
  5
3FA
  8
MOSFET$TRACES
 10
-113.2778037536242
 20
18.21311494299573
 30
-0.3304610414045932
 40
0.8000000000000081
210
0.0
220
0.0
230
-1.0
  0
ARC
  5
3FB
  8
MOSFET$TRACES
 10
113.2778037536243
 20
20.75312002300598
 30
0.3304610414045932
 40
0.8000000000000081
 50
154.4712410789867
 51
295.5287589210215
  0
ARC
  5
3FC
  8
MOSFET$TRACES
 10
113.4070929789096
 20
20.48240929875385
 30
0.3304610414045932
 40
0.5
 50
295.528758921023
 51
45.00000000000173
  0
LINE
  5
3FD
  8
MOSFET$TRACES
 10
113.760646369503
 20
20.83596268934707
 30
0.3304610414045932
 11
113.3606464199654
 21
21.23596263888459
 31
0.3304610414045932
  0
ARC
  5
3FE
  8
MOSFET$TRACES
 10
113.0070930293722
 20
20.88240924829131
 30
0.3304610414045932
 40
0.5
 50
45.00000000000202
 51
154.4712410789879
  0
ENDSEC
  0
EOF
