  0
SECTION
  2
HEADER
  9
$ACADVER
  1
AC1009
  9
$DWGCODEPAGE
  3
ansi_1252
  9
$INSBASE
 10
0.0
 20
0.0
 30
0.0
  9
$EXTMIN
 10
241.0047455086847
 20
-68.19999999999999
 30
-14.90031440630962
  9
$EXTMAX
 10
567.9033295019317
 20
134.0
 30
0.0
  9
$LIMMIN
 10
0.0
 20
0.0
  9
$LIMMAX
 10
12.0
 20
9.0
  9
$ORTHOMODE
 70
     0
  9
$REGENMODE
 70
     1
  9
$FILLMODE
 70
     1
  9
$QTEXTMODE
 70
     0
  9
$MIRRTEXT
 70
     1
  9
$DRAGMODE
 70
     2
  9
$LTSCALE
 40
1.0
  9
$OSMODE
 70
    37
  9
$ATTMODE
 70
     1
  9
$TEXTSIZE
 40
0.2
  9
$TRACEWID
 40
0.05
  9
$TEXTSTYLE
  7
STANDARD
  9
$CLAYER
  8
DEFAULT
  9
$CELTYPE
  6
BYLAYER
  9
$CECOLOR
 62
   256
  9
$DIMSCALE
 40
1.0
  9
$DIMASZ
 40
0.18
  9
$DIMEXO
 40
0.0625
  9
$DIMDLI
 40
0.38
  9
$DIMRND
 40
0.0
  9
$DIMDLE
 40
0.0
  9
$DIMEXE
 40
0.18
  9
$DIMTP
 40
0.0
  9
$DIMTM
 40
0.0
  9
$DIMTXT
 40
0.18
  9
$DIMCEN
 40
0.09
  9
$DIMTSZ
 40
0.0
  9
$DIMTOL
 70
     0
  9
$DIMLIM
 70
     0
  9
$DIMTIH
 70
     1
  9
$DIMTOH
 70
     1
  9
$DIMSE1
 70
     0
  9
$DIMSE2
 70
     0
  9
$DIMTAD
 70
     0
  9
$DIMZIN
 70
     0
  9
$DIMBLK
  1

  9
$DIMASO
 70
     1
  9
$DIMSHO
 70
     1
  9
$DIMPOST
  1

  9
$DIMAPOST
  1

  9
$DIMALT
 70
     0
  9
$DIMALTD
 70
     2
  9
$DIMALTF
 40
25.4
  9
$DIMLFAC
 40
1.0
  9
$DIMTOFL
 70
     0
  9
$DIMTVP
 40
0.0
  9
$DIMTIX
 70
     0
  9
$DIMSOXD
 70
     0
  9
$DIMSAH
 70
     0
  9
$DIMBLK1
  1

  9
$DIMBLK2
  1

  9
$DIMSTYLE
  2
STANDARD_ACAD
  9
$DIMCLRD
 70
     0
  9
$DIMCLRE
 70
     0
  9
$DIMCLRT
 70
     0
  9
$DIMTFAC
 40
1.0
  9
$DIMGAP
 40
0.09
  9
$LUNITS
 70
     2
  9
$LUPREC
 70
     3
  9
$SKETCHINC
 40
0.1
  9
$FILLETRAD
 40
0.0
  9
$AUNITS
 70
     0
  9
$AUPREC
 70
     0
  9
$MENU
  1
.
  9
$ELEVATION
 40
0.0
  9
$PELEVATION
 40
0.0
  9
$THICKNESS
 40
0.0
  9
$LIMCHECK
 70
     0
  9
$CHAMFERA
 40
0.0
  9
$CHAMFERB
 40
0.0
  9
$SKPOLY
 70
     0
  9
$TDCREATE
 40
2461070.637715764
  9
$TDUPDATE
 40
2461070.637731886
  9
$TDINDWG
 40
0.0000000116
  9
$TDUSRTIMER
 40
0.0000000116
  9
$USRTIMER
 70
     1
  9
$ANGBASE
 50
0.0
  9
$ANGDIR
 70
     0
  9
$PDMODE
 70
     0
  9
$PDSIZE
 40
0.0
  9
$PLINEWID
 40
0.0
  9
$COORDS
 70
     1
  9
$SPLFRAME
 70
     0
  9
$SPLINETYPE
 70
     6
  9
$SPLINESEGS
 70
     8
  9
$ATTDIA
 70
     0
  9
$ATTREQ
 70
     1
  9
$HANDLING
 70
     1
  9
$HANDSEED
  5
339
  9
$SURFTAB1
 70
     6
  9
$SURFTAB2
 70
     6
  9
$SURFTYPE
 70
     6
  9
$SURFU
 70
     6
  9
$SURFV
 70
     6
  9
$UCSNAME
  2

  9
$UCSORG
 10
0.0
 20
0.0
 30
0.0
  9
$UCSXDIR
 10
1.0
 20
0.0
 30
0.0
  9
$UCSYDIR
 10
0.0
 20
1.0
 30
0.0
  9
$PUCSNAME
  2

  9
$PUCSORG
 10
0.0
 20
0.0
 30
0.0
  9
$PUCSXDIR
 10
1.0
 20
0.0
 30
0.0
  9
$PUCSYDIR
 10
0.0
 20
1.0
 30
0.0
  9
$USERI1
 70
     0
  9
$USERI2
 70
     0
  9
$USERI3
 70
     0
  9
$USERI4
 70
     0
  9
$USERI5
 70
     0
  9
$USERR1
 40
0.0
  9
$USERR2
 40
0.0
  9
$USERR3
 40
0.0
  9
$USERR4
 40
0.0
  9
$USERR5
 40
0.0
  9
$WORLDVIEW
 70
     1
  9
$SHADEDGE
 70
     3
  9
$SHADEDIF
 70
    70
  9
$TILEMODE
 70
     1
  9
$MAXACTVP
 70
    64
  9
$PLIMCHECK
 70
     0
  9
$PEXTMIN
 10
1.000000000000000E+20
 20
1.000000000000000E+20
 30
1.000000000000000E+20
  9
$PEXTMAX
 10
-1.000000000000000E+20
 20
-1.000000000000000E+20
 30
-1.000000000000000E+20
  9
$PLIMMIN
 10
0.0
 20
0.0
  9
$PLIMMAX
 10
12.0
 20
9.0
  9
$UNITMODE
 70
     0
  9
$VISRETAIN
 70
     1
  9
$PLINEGEN
 70
     0
  9
$PSLTSCALE
 70
     1
  0
ENDSEC
  0
SECTION
  2
TABLES
  0
TABLE
  2
VPORT
 70
     1
  0
VPORT
  2
*ACTIVE
 70
     0
 10
0.0
 20
0.0
 11
1.0
 21
1.0
 12
10.42990654205607
 22
4.5
 13
0.0
 23
0.0
 14
0.5
 24
0.5
 15
0.5
 25
0.5
 16
0.0
 26
0.0
 36
1.0
 17
0.0
 27
0.0
 37
0.0
 40
9.0
 41
1.972972972850329
 42
50.0
 43
0.0
 44
0.0
 50
0.0
 51
0.0
 71
     0
 72
   100
 73
     1
 74
     3
 75
     0
 76
     0
 77
     0
 78
     0
  0
ENDTAB
  0
TABLE
  2
LTYPE
 70
     1
  0
LTYPE
  2
CONTINUOUS
 70
     0
  3
Solid line
 72
    65
 73
     0
 40
0.0
  0
ENDTAB
  0
TABLE
  2
LAYER
 70
     2
  0
LAYER
  2
0
 70
     0
 62
     7
  6
CONTINUOUS
  0
LAYER
  2
DEFAULT
 70
     0
 62
     7
  6
CONTINUOUS
  0
ENDTAB
  0
TABLE
  2
STYLE
 70
     1
  0
STYLE
  2
STANDARD
 70
     0
 40
0.0
 41
1.0
 50
0.0
 71
     0
 42
0.2
  3
txt
  4

  0
ENDTAB
  0
TABLE
  2
VIEW
 70
     0
  0
ENDTAB
  0
TABLE
  2
UCS
 70
     0
  0
ENDTAB
  0
TABLE
  2
APPID
 70
     2
  0
APPID
  2
ACAD
 70
     0
  0
APPID
  2
RHINO
 70
     0
  0
ENDTAB
  0
TABLE
  2
DIMSTYLE
 70
     1
  0
DIMSTYLE
  2
STANDARD_ACAD
 70
     0
  3

  4

  5

  6

  7

 40
1.0
 41
0.18
 42
0.0625
 43
0.38
 44
0.18
 45
0.0
 46
0.0
 47
0.0
 48
0.0
140
0.18
141
0.09
142
0.0
143
25.4
144
1.0
145
0.0
146
1.0
147
0.09
 71
     0
 72
     0
 73
     1
 74
     1
 75
     0
 76
     0
 77
     0
 78
     0
170
     0
171
     2
172
     0
173
     0
174
     0
175
     0
176
     0
177
     0
178
     0
  0
ENDTAB
  0
ENDSEC
  0
SECTION
  2
BLOCKS
  0
BLOCK
  8
0
  2
$MODEL_SPACE
 70
     0
 10
0.0
 20
0.0
 30
0.0
  3
$MODEL_SPACE
  1

  0
ENDBLK
  5
21
  8
0
  0
BLOCK
 67
     1
  8
0
  2
$PAPER_SPACE
 70
     0
 10
0.0
 20
0.0
 30
0.0
  3
$PAPER_SPACE
  1

  0
ENDBLK
  5
1D
 67
     1
  8
0
  0
ENDSEC
  0
SECTION
  2
ENTITIES
  0
CIRCLE
  5
60
  8
DEFAULT
 10
-562.6946727608131
 20
52.07244491577153
 30
14.90031440630961
 40
1.625
210
0.0
220
0.0
230
-1.0
  0
CIRCLE
  5
61
  8
DEFAULT
 10
-542.6946737144874
 20
52.07244491577137
 30
14.90031440630961
 40
1.625
210
0.0
220
0.0
230
-1.0
  0
CIRCLE
  5
62
  8
DEFAULT
 10
-562.694672760813
 20
88.07245254516613
 30
14.90031440630961
 40
1.625
210
0.0
220
0.0
230
-1.0
  0
CIRCLE
  5
63
  8
DEFAULT
 10
-542.6946737144873
 20
88.07245254516602
 30
14.90031440630961
 40
1.625
210
0.0
220
0.0
230
-1.0
  0
CIRCLE
  5
64
  8
DEFAULT
 10
-448.9119852893749
 20
52.07244491577154
 30
14.90031440630962
 40
1.625
210
0.0
220
0.0
230
-1.0
  0
CIRCLE
  5
65
  8
DEFAULT
 10
-428.9119862430493
 20
88.07245254516613
 30
14.90031440630962
 40
1.625
210
0.0
220
0.0
230
-1.0
  0
CIRCLE
  5
66
  8
DEFAULT
 10
-448.911985289375
 20
88.07245254516607
 30
14.90031440630962
 40
1.624999999999943
210
0.0
220
0.0
230
-1.0
  0
CIRCLE
  5
67
  8
DEFAULT
 10
-428.9119862430493
 20
52.07244491577171
 30
14.90031440630962
 40
1.624999999999886
210
0.0
220
0.0
230
-1.0
  0
CIRCLE
  5
68
  8
DEFAULT
 10
-485.0512102910167
 20
-31.07244802675558
 30
14.90031440630962
 40
2.000000000000036
210
0.0
220
0.0
230
-1.0
  0
CIRCLE
  5
69
  8
DEFAULT
 10
-485.0512102910167
 20
-61.07244802675558
 30
14.90031440630962
 40
2.000000000000036
210
0.0
220
0.0
230
-1.0
  0
CIRCLE
  5
6A
  8
DEFAULT
 10
-506.0512102910166
 20
-31.07244802675564
 30
14.90031440630962
 40
1.999999999999979
210
0.0
220
0.0
230
-1.0
  0
CIRCLE
  5
6B
  8
DEFAULT
 10
-506.0512102910166
 20
-61.07244802675564
 30
14.90031440630962
 40
1.999999999999979
210
0.0
220
0.0
230
-1.0
  0
CIRCLE
  5
6C
  8
DEFAULT
 10
-510.9251597867517
 20
112.8056926408439
 30
14.90031440630962
 40
1.499999999999958
210
0.0
220
0.0
230
-1.0
  0
CIRCLE
  5
6D
  8
DEFAULT
 10
-511.9251597867517
 20
127.8056926408445
 30
14.90031440630962
 40
1.500000000000127
210
0.0
220
0.0
230
-1.0
  0
CIRCLE
  5
6E
  8
DEFAULT
 10
-479.6814992171119
 20
127.8056926408449
 30
14.90031440630962
 40
1.500000000000014
210
0.0
220
0.0
230
-1.0
  0
CIRCLE
  5
6F
  8
DEFAULT
 10
-480.6814992171107
 20
112.8056926408441
 30
14.90031440630962
 40
1.499999999999936
210
0.0
220
0.0
230
-1.0
  0
CIRCLE
  5
70
  8
DEFAULT
 10
-461.7033295019306
 20
-0.5000000000001705
 30
14.90031440630962
 40
1.5
210
0.0
220
0.0
230
-1.0
  0
CIRCLE
  5
71
  8
DEFAULT
 10
-461.7033295019307
 20
88.49999999999983
 30
14.90031440630962
 40
1.500000000000057
210
0.0
220
0.0
230
-1.0
  0
CIRCLE
  5
72
  8
DEFAULT
 10
-529.9033295019316
 20
88.5
 30
14.90031440630962
 40
1.499999999999886
210
0.0
220
0.0
230
-1.0
  0
CIRCLE
  5
73
  8
DEFAULT
 10
-529.9033295019316
 20
-0.5000000000001137
 30
14.90031440630961
 40
1.499999999999886
210
0.0
220
0.0
230
-1.0
  0
POLYLINE
  5
74
  8
DEFAULT
 66
     1
 10
0.0
 20
0.0
 30
-14.90031440630962
 70
     1
  0
VERTEX
  5
75
  8
DEFAULT
 10
511.1669294378116
 20
-68.19999999999993
 30
-14.90031440630962
 42
0.2944096566793963
  0
VERTEX
  5
76
  8
DEFAULT
 10
522.0968416535364
 20
-61.15348553612008
 30
-14.90031440630962
  0
VERTEX
  5
77
  8
DEFAULT
 10
566.8332417176563
 20
37.55780007941368
 30
-14.90031440630962
 42
0.1067820034609053
  0
VERTEX
  5
78
  8
DEFAULT
 10
567.9033295019317
 20
42.51128561553396
 30
-14.90031440630962
  0
VERTEX
  5
79
  8
DEFAULT
 10
567.9033295019317
 20
98.02749712644797
 30
-14.90031440630962
 42
0.2360679774997795
  0
VERTEX
  5
7A
  8
DEFAULT
 10
563.1033295019316
 20
107.627497126448
 30
-14.90031440630962
  0
VERTEX
  5
7B
  8
DEFAULT
 10
531.1399923371957
 20
131.6
 30
-14.90031440630962
 42
0.1622776601683868
  0
VERTEX
  5
7C
  8
DEFAULT
 10
523.9399923371957
 20
134.0
 30
-14.90031440630962
  0
VERTEX
  5
7D
  8
DEFAULT
 10
467.6666666666666
 20
134.0
 30
-14.90031440630962
 42
0.1622776601683843
  0
VERTEX
  5
7E
  8
DEFAULT
 10
460.4666666666666
 20
131.6
 30
-14.90031440630962
  0
VERTEX
  5
7F
  8
DEFAULT
 10
428.8000000000001
 20
107.8500000000001
 30
-14.90031440630962
 42
0.2360679774997917
  0
VERTEX
  5
80
  8
DEFAULT
 10
424.0
 20
98.25000000000009
 30
-14.90031440630962
  0
VERTEX
  5
81
  8
DEFAULT
 10
424.0
 20
42.51128561553394
 30
-14.90031440630962
 42
0.1067820034608523
  0
VERTEX
  5
82
  8
DEFAULT
 10
425.0700877842752
 20
37.55780007941382
 30
-14.90031440630962
  0
VERTEX
  5
83
  8
DEFAULT
 10
469.8064878483954
 20
-61.15348553612024
 30
-14.90031440630962
 42
0.29440965667937
  0
VERTEX
  5
84
  8
DEFAULT
 10
480.7364000641201
 20
-68.19999999999999
 30
-14.90031440630962
  0
SEQEND
  5
85
  8
DEFAULT
  0
POLYLINE
  5
86
  8
DEFAULT
 66
     1
 10
0.0
 20
0.0
 30
-14.90031440630962
 70
     1
  0
VERTEX
  5
87
  8
DEFAULT
 10
498.0
 20
93.99999999999999
 30
-14.90031440630962
  0
VERTEX
  5
88
  8
DEFAULT
 10
470.0
 20
94.0
 30
-14.90031440630962
 42
-0.9999999999999808
  0
VERTEX
  5
89
  8
DEFAULT
 10
470.0
 20
99.99999999999989
 30
-14.90031440630962
  0
VERTEX
  5
8A
  8
DEFAULT
 10
498.0
 20
100.0
 30
-14.90031440630962
 42
-0.9999999999999906
  0
SEQEND
  5
8B
  8
DEFAULT
  0
POLYLINE
  5
8C
  8
DEFAULT
 66
     1
 10
0.0
 20
0.0
 30
-14.90031440630961
 70
     1
  0
VERTEX
  5
8D
  8
DEFAULT
 10
450.0
 20
36.5
 30
-14.90031440630961
 42
-1.000000000000048
  0
VERTEX
  5
8E
  8
DEFAULT
 10
453.0
 20
36.50000000000001
 30
-14.90031440630961
  0
VERTEX
  5
8F
  8
DEFAULT
 10
453.0
 20
27.5
 30
-14.90031440630961
 42
-1.000000000000098
  0
VERTEX
  5
90
  8
DEFAULT
 10
450.0
 20
27.5
 30
-14.90031440630961
  0
SEQEND
  5
91
  8
DEFAULT
  0
POLYLINE
  5
92
  8
DEFAULT
 66
     1
 10
0.0
 20
0.0
 30
-14.90031440630961
 70
     1
  0
VERTEX
  5
93
  8
DEFAULT
 10
538.0
 20
36.50000000000001
 30
-14.90031440630961
 42
-0.9999999999999903
  0
VERTEX
  5
94
  8
DEFAULT
 10
541.0
 20
36.5
 30
-14.90031440630961
  0
VERTEX
  5
95
  8
DEFAULT
 10
541.0
 20
27.5
 30
-14.90031440630961
 42
-1.000000000000114
  0
VERTEX
  5
96
  8
DEFAULT
 10
538.0
 20
27.5
 30
-14.90031440630961
  0
SEQEND
  5
97
  8
DEFAULT
  0
POLYLINE
  5
98
  8
DEFAULT
 66
     1
 10
0.0
 20
0.0
 30
-14.90031440630961
 70
     1
  0
VERTEX
  5
99
  8
DEFAULT
 10
450.0
 20
3.5
 30
-14.90031440630961
 42
-1.000000000000019
  0
VERTEX
  5
9A
  8
DEFAULT
 10
452.9999999999999
 20
3.5
 30
-14.90031440630961
  0
VERTEX
  5
9B
  8
DEFAULT
 10
453.0
 20
-5.499999999999996
 30
-14.90031440630961
 42
-1.000000000000002
  0
VERTEX
  5
9C
  8
DEFAULT
 10
450.0
 20
-5.499999999999997
 30
-14.90031440630961
  0
SEQEND
  5
9D
  8
DEFAULT
  0
POLYLINE
  5
9E
  8
DEFAULT
 66
     1
 10
0.0
 20
0.0
 30
-14.90031440630961
 70
     1
  0
VERTEX
  5
9F
  8
DEFAULT
 10
538.0
 20
3.5
 30
-14.90031440630961
 42
-0.9999999999999999
  0
VERTEX
  5
A0
  8
DEFAULT
 10
541.0
 20
3.5
 30
-14.90031440630961
  0
VERTEX
  5
A1
  8
DEFAULT
 10
541.0
 20
-5.499999999999996
 30
-14.90031440630961
 42
-1.000000000000078
  0
VERTEX
  5
A2
  8
DEFAULT
 10
538.0
 20
-5.499999999999996
 30
-14.90031440630961
  0
SEQEND
  5
A3
  8
DEFAULT
  0
POLYLINE
  5
A4
  8
DEFAULT
 66
     1
 10
0.0
 20
0.0
 30
-14.90031440630962
 70
     1
  0
VERTEX
  5
A5
  8
DEFAULT
 10
455.0
 20
57.5
 30
-14.90031440630962
 42
-0.999999999999981
  0
VERTEX
  5
A6
  8
DEFAULT
 10
458.0000000000001
 20
57.5
 30
-14.90031440630962
  0
VERTEX
  5
A7
  8
DEFAULT
 10
458.0
 20
48.49999999999999
 30
-14.90031440630962
 42
-1.000000000000073
  0
VERTEX
  5
A8
  8
DEFAULT
 10
455.0
 20
48.49999999999999
 30
-14.90031440630962
  0
SEQEND
  5
A9
  8
DEFAULT
  0
POLYLINE
  5
AA
  8
DEFAULT
 66
     1
 10
0.0
 20
0.0
 30
-14.90031440630962
 70
     1
  0
VERTEX
  5
AB
  8
DEFAULT
 10
533.6066590038623
 20
57.5
 30
-14.90031440630962
 42
-0.9999999999999621
  0
VERTEX
  5
AC
  8
DEFAULT
 10
536.6066590038623
 20
57.49999999999999
 30
-14.90031440630962
  0
VERTEX
  5
AD
  8
DEFAULT
 10
536.6066590038622
 20
48.49999999999999
 30
-14.90031440630962
 42
-1.000000000000187
  0
VERTEX
  5
AE
  8
DEFAULT
 10
533.6066590038622
 20
48.49999999999999
 30
-14.90031440630962
  0
SEQEND
  5
AF
  8
DEFAULT
  0
POLYLINE
  5
B0
  8
DEFAULT
 66
     1
 10
0.0
 20
0.0
 30
-14.90031440630962
 70
     1
  0
VERTEX
  5
B1
  8
DEFAULT
 10
538.0
 20
104.0
 30
-14.90031440630962
  0
VERTEX
  5
B2
  8
DEFAULT
 10
530.0
 20
104.0
 30
-14.90031440630962
  0
VERTEX
  5
B3
  8
DEFAULT
 10
530.0
 20
112.0
 30
-14.90031440630962
  0
VERTEX
  5
B4
  8
DEFAULT
 10
538.0
 20
112.0
 30
-14.90031440630962
  0
SEQEND
  5
B5
  8
DEFAULT
  0
CIRCLE
  5
B6
  8
DEFAULT
 10
-367.6977353863477
 20
36.07655174582003
 30
0.0
 40
21.69298987766291
210
0.0
220
0.0
230
-1.0
  0
POLYLINE
  5
B7
  8
DEFAULT
 66
     1
 10
0.0
 20
0.0
 30
0.0
 70
     1
  0
VERTEX
  5
B8
  8
DEFAULT
 10
369.0627947211271
 20
34.68391266867096
 30
0.0
  0
VERTEX
  5
B9
  8
DEFAULT
 10
369.0627947211271
 20
37.46919082296878
 30
0.0
 42
2.38047614284757
  0
SEQEND
  5
BA
  8
DEFAULT
  0
CIRCLE
  5
BB
  8
DEFAULT
 10
367.6977353862519
 20
51.76954162348301
 30
0.0
 40
1.5
  0
CIRCLE
  5
BC
  8
DEFAULT
 10
356.6011158266926
 20
47.17317130533971
 30
0.0
 40
1.499999999999962
  0
CIRCLE
  5
BD
  8
DEFAULT
 10
352.0047455086847
 20
36.07655174572432
 30
0.0
 40
1.499999999999972
  0
CIRCLE
  5
BE
  8
DEFAULT
 10
356.601115826828
 20
24.97993218616506
 30
0.0
 40
1.499999999999967
  0
CIRCLE
  5
BF
  8
DEFAULT
 10
367.6977353864434
 20
20.38356186815713
 30
0.0
 40
1.500000000000057
  0
CIRCLE
  5
C0
  8
DEFAULT
 10
378.7943549460026
 20
24.97993218630037
 30
0.0
 40
1.499999999999967
  0
CIRCLE
  5
C1
  8
DEFAULT
 10
383.3907252640106
 20
36.07655174591571
 30
0.0
 40
1.499999999999972
  0
CIRCLE
  5
C2
  8
DEFAULT
 10
378.7943549458673
 20
47.17317130547494
 30
0.0
 40
1.499999999999962
  0
CIRCLE
  5
C3
  8
DEFAULT
 10
-364.697735386348
 20
79.40599872902769
 30
0.0
 40
1.624999999999986
210
0.0
220
0.0
230
-1.0
  0
CIRCLE
  5
C4
  8
DEFAULT
 10
-374.8047307308814
 20
96.9118281776223
 30
0.0
 40
1.624999999999998
210
0.0
220
0.0
230
-1.0
  0
CIRCLE
  5
C5
  8
DEFAULT
 10
-354.590740041814
 20
96.911828177622
 30
0.0
 40
1.625
210
0.0
220
0.0
230
-1.0
  0
CIRCLE
  5
C6
  8
DEFAULT
 10
364.6977353863476
 20
91.07655174582004
 30
0.0
 40
21.69298987766285
  0
CIRCLE
  5
C7
  8
DEFAULT
 10
-314.6977353863481
 20
79.4059987290277
 30
0.0
 40
1.625000000000002
210
0.0
220
0.0
230
-1.0
  0
CIRCLE
  5
C8
  8
DEFAULT
 10
-324.8047307308815
 20
96.91182817762233
 30
0.0
 40
1.625000000000022
210
0.0
220
0.0
230
-1.0
  0
CIRCLE
  5
C9
  8
DEFAULT
 10
-304.5907400418141
 20
96.911828177622
 30
0.0
 40
1.625
210
0.0
220
0.0
230
-1.0
  0
CIRCLE
  5
CA
  8
DEFAULT
 10
-262.697735386348
 20
79.40599872902767
 30
0.0
 40
1.625000000000026
210
0.0
220
0.0
230
-1.0
  0
CIRCLE
  5
CB
  8
DEFAULT
 10
-272.8047307308814
 20
96.91182817762231
 30
0.0
 40
1.62500000000001
210
0.0
220
0.0
230
-1.0
  0
CIRCLE
  5
CC
  8
DEFAULT
 10
-252.590740041814
 20
96.91182817762206
 30
0.0
 40
1.625
210
0.0
220
0.0
230
-1.0
  0
CIRCLE
  5
CD
  8
DEFAULT
 10
262.6977353863476
 20
91.0765517458201
 30
0.0
 40
21.69298987766285
  0
CIRCLE
  5
CE
  8
DEFAULT
 10
-314.6977353863477
 20
91.0765517458201
 30
0.0
 40
20.07655174582004
210
0.0
220
0.0
230
-1.0
  0
CIRCLE
  5
CF
  8
DEFAULT
 10
-313.5859639241638
 20
36.0765517458201
 30
0.0
 40
20.07655174581998
210
0.0
220
0.0
230
-1.0
  0
POLYLINE
  5
D0
  8
DEFAULT
 66
     1
 10
0.0
 20
0.0
 30
0.0
 70
     1
  0
VERTEX
  5
D1
  8
DEFAULT
 10
251.1706533673872
 20
-17.77720915807698
 30
0.0
  0
VERTEX
  5
D2
  8
DEFAULT
 10
248.1706533673872
 20
-22.97336158078361
 30
0.0
 42
0.4142135623730652
  0
VERTEX
  5
D3
  8
DEFAULT
 10
248.5366787711716
 20
-24.33938698456806
 30
0.0
  0
VERTEX
  5
D4
  8
DEFAULT
 10
253.7328311938783
 20
-27.33938698456805
 30
0.0
 42
0.4142135623730947
  0
VERTEX
  5
D5
  8
DEFAULT
 10
255.0988565976627
 20
-26.97336158078362
 30
0.0
  0
VERTEX
  5
D6
  8
DEFAULT
 10
258.0988565976627
 20
-21.77720915807698
 30
0.0
 42
0.4142135623730775
  0
VERTEX
  5
D7
  8
DEFAULT
 10
257.7328311938783
 20
-20.41118375429253
 30
0.0
  0
VERTEX
  5
D8
  8
DEFAULT
 10
252.5366787711716
 20
-17.41118375429255
 30
0.0
 42
0.4142135623730942
  0
SEQEND
  5
D9
  8
DEFAULT
  0
CIRCLE
  5
DA
  8
DEFAULT
 10
253.1347549825251
 20
-22.37528536943028
 30
0.0
 40
1.999999999999969
  0
CIRCLE
  5
DB
  8
DEFAULT
 10
-260.0629582128066
 20
-18.37528536943015
 30
0.0
 40
1.499999999999976
210
0.0
220
0.0
230
-1.0
  0
CIRCLE
  5
DC
  8
DEFAULT
 10
-246.2065517522556
 20
-18.37528536943017
 30
0.0
 40
1.500000000000029
210
0.0
220
0.0
230
-1.0
  0
CIRCLE
  5
DD
  8
DEFAULT
 10
-253.134754982531
 20
-30.37528536943013
 30
0.0
 40
1.499999999999972
210
0.0
220
0.0
230
-1.0
  0
POLYLINE
  5
DE
  8
DEFAULT
 66
     1
 10
0.0
 20
0.0
 30
0.0
 70
     1
  0
VERTEX
  5
DF
  8
DEFAULT
 10
264.0048261260528
 20
-20.68959461048966
 30
0.0
  0
VERTEX
  5
E0
  8
DEFAULT
 10
263.9617474258685
 20
-20.43203174936008
 30
0.0
  0
VERTEX
  5
E1
  8
DEFAULT
 10
263.912514455736
 20
-20.17530792914987
 30
0.0
  0
VERTEX
  5
E2
  8
DEFAULT
 10
263.8571531281729
 20
-19.91964329324367
 30
0.0
  0
VERTEX
  5
E3
  8
DEFAULT
 10
263.7956998401584
 20
-19.66525681927967
 30
0.0
  0
VERTEX
  5
E4
  8
DEFAULT
 10
263.7282014003787
 20
-19.41236569583257
 30
0.0
  0
VERTEX
  5
E5
  8
DEFAULT
 10
263.6547149120794
 20
-19.16118470506116
 30
0.0
  0
VERTEX
  5
E6
  8
DEFAULT
 10
263.5753076121284
 20
-18.91192561499973
 30
0.0
  0
VERTEX
  5
E7
  8
DEFAULT
 10
263.4900566672417
 20
-18.66479658510149
 30
0.0
  0
VERTEX
  5
E8
  8
DEFAULT
 10
263.3990489286617
 20
-18.42000158853315
 30
0.0
  0
VERTEX
  5
E9
  8
DEFAULT
 10
263.3023806468998
 20
-18.17773985457619
 30
0.0
  0
VERTEX
  5
EA
  8
DEFAULT
 10
263.2001571484641
 20
-17.93820533431341
 30
0.0
  0
VERTEX
  5
EB
  8
DEFAULT
 10
263.0924924767729
 20
-17.70158619257138
 30
0.0
  0
VERTEX
  5
EC
  8
DEFAULT
 10
262.9795089997183
 20
-17.46806432885361
 30
0.0
  0
VERTEX
  5
ED
  8
DEFAULT
 10
262.8613369865704
 20
-17.23781492973933
 30
0.0
  0
VERTEX
  5
EE
  8
DEFAULT
 10
262.7381141571189
 20
-17.01100605494065
 30
0.0
  0
VERTEX
  5
EF
  8
DEFAULT
 10
262.6099852061093
 20
-16.78779825891352
 30
0.0
  0
VERTEX
  5
F0
  8
DEFAULT
 10
262.4771013061745
 20
-16.56834424960593
 30
0.0
  0
VERTEX
  5
F1
  8
DEFAULT
 10
262.3396195925532
 20
-16.35278858560682
 30
0.0
  0
VERTEX
  5
F2
  8
DEFAULT
 10
262.1977026329565
 20
-16.14126741263463
 30
0.0
  0
VERTEX
  5
F3
  8
DEFAULT
 10
262.0515178859721
 20
-15.93390823997892
 30
0.0
  0
VERTEX
  5
F4
  8
DEFAULT
 10
261.9012371513906
 20
-15.73082975718703
 30
0.0
  0
VERTEX
  5
F5
  8
DEFAULT
 10
261.7470360157995
 20
-15.53214169097321
 30
0.0
  0
VERTEX
  5
F6
  8
DEFAULT
 10
261.5890932967266
 20
-15.33794470202422
 30
0.0
  0
VERTEX
  5
F7
  8
DEFAULT
 10
261.4275904885095
 20
-15.1483303210862
 30
0.0
  0
VERTEX
  5
F8
  8
DEFAULT
 10
261.2627112129487
 20
-14.96338092344492
 30
0.0
  0
VERTEX
  5
F9
  8
DEFAULT
 10
261.0946406776509
 20
-14.78316974065921
 30
0.0
  0
VERTEX
  5
FA
  8
DEFAULT
 10
260.923565144797
 20
-14.60776090817589
 30
0.0
  0
VERTEX
  5
FB
  8
DEFAULT
 10
260.7496714128846
 20
-14.43720954724678
 30
0.0
  0
VERTEX
  5
FC
  8
DEFAULT
 10
260.5731463137866
 20
-14.27156187938536
 30
0.0
  0
VERTEX
  5
FD
  8
DEFAULT
 10
260.3941762272559
 20
-14.1108553714425
 30
0.0
  0
VERTEX
  5
FE
  8
DEFAULT
 10
260.2129466147801
 20
-13.95511890924897
 30
0.0
  0
VERTEX
  5
FF
  8
DEFAULT
 10
260.029641574459
 20
-13.80437299766642
 30
0.0
  0
VERTEX
  5
100
  8
DEFAULT
 10
259.9809378108402
 20
-13.76601526742921
 30
0.0
  0
VERTEX
  5
101
  8
DEFAULT
 10
259.9310736576141
 20
-13.72839289264165
 30
0.0
  0
VERTEX
  5
102
  8
DEFAULT
 10
259.8800598522591
 20
-13.69155042700786
 30
0.0
  0
VERTEX
  5
103
  8
DEFAULT
 10
259.8279091712182
 20
-13.65553259035708
 30
0.0
  0
VERTEX
  5
104
  8
DEFAULT
 10
259.7746364732809
 20
-13.62038416263824
 30
0.0
  0
VERTEX
  5
105
  8
DEFAULT
 10
259.7202587369848
 20
-13.58614987303026
 30
0.0
  0
VERTEX
  5
106
  8
DEFAULT
 10
259.6647950915343
 20
-13.55287428451201
 30
0.0
  0
VERTEX
  5
107
  8
DEFAULT
 10
259.6082668407511
 20
-13.52060167428851
 30
0.0
  0
VERTEX
  5
108
  8
DEFAULT
 10
259.5506974795954
 20
-13.48937591052137
 30
0.0
  0
VERTEX
  5
109
  8
DEFAULT
 10
259.4921127028248
 20
-13.45924032586272
 30
0.0
  0
VERTEX
  5
10A
  8
DEFAULT
 10
259.4325404053914
 20
-13.43023758834075
 30
0.0
  0
VERTEX
  5
10B
  8
DEFAULT
 10
259.3720106742215
 20
-13.40240957019248
 30
0.0
  0
VERTEX
  5
10C
  8
DEFAULT
 10
259.3105557710648
 20
-13.37579721528259
 30
0.0
  0
VERTEX
  5
10D
  8
DEFAULT
 10
259.2482101061541
 20
-13.35044040578803
 30
0.0
  0
VERTEX
  5
10E
  8
DEFAULT
 10
259.1850102024717
 20
-13.32637782886319
 30
0.0
  0
VERTEX
  5
10F
  8
DEFAULT
 10
259.1209946504812
 20
-13.30364684403178
 30
0.0
  0
VERTEX
  5
110
  8
DEFAULT
 10
259.0562040532486
 20
-13.28228335207581
 30
0.0
  0
VERTEX
  5
111
  8
DEFAULT
 10
258.9906809619451
 20
-13.26232166621101
 30
0.0
  0
VERTEX
  5
112
  8
DEFAULT
 10
258.9244698017991
 20
-13.24379438634962
 30
0.0
  0
VERTEX
  5
113
  8
DEFAULT
 10
258.8576167886362
 20
-13.22673227725588
 30
0.0
  0
VERTEX
  5
114
  8
DEFAULT
 10
258.7901698362238
 20
-13.21116415139591
 30
0.0
  0
VERTEX
  5
115
  8
DEFAULT
 10
258.7221784547148
 20
-13.1971167572729
 30
0.0
  0
VERTEX
  5
116
  8
DEFAULT
 10
258.6536936405586
 20
-13.18461467401839
 30
0.0
  0
VERTEX
  5
117
  8
DEFAULT
 10
258.5847677583239
 20
-13.17368021298324
 30
0.0
  0
VERTEX
  5
118
  8
DEFAULT
 10
258.515454414952
 20
-13.16433332703587
 30
0.0
  0
VERTEX
  5
119
  8
DEFAULT
 10
258.4458083270266
 20
-13.15659152823176
 30
0.0
  0
VERTEX
  5
11A
  8
DEFAULT
 10
258.3758851817127
 20
-13.15046981446657
 30
0.0
  0
VERTEX
  5
11B
  8
DEFAULT
 10
258.3057414920772
 20
-13.14598060566726
 30
0.0
  0
VERTEX
  5
11C
  8
DEFAULT
 10
258.2354344475589
 20
-13.14313369001004
 30
0.0
  0
VERTEX
  5
11D
  8
DEFAULT
 10
258.165021760402
 20
-13.14193618058332
 30
0.0
  0
VERTEX
  5
11E
  8
DEFAULT
 10
258.0945615089078
 20
-13.14239248283752
 30
0.0
  0
VERTEX
  5
11F
  8
DEFAULT
 10
258.024111978393
 20
-13.14450427308348
 30
0.0
  0
VERTEX
  5
120
  8
DEFAULT
 10
257.9537315007634
 20
-13.14827048821736
 30
0.0
  0
VERTEX
  5
121
  8
DEFAULT
 10
257.8834782936299
 20
-13.15368732676411
 30
0.0
  0
VERTEX
  5
122
  8
DEFAULT
 10
257.813410299897
 20
-13.16074826124431
 30
0.0
  0
VERTEX
  5
123
  8
DEFAULT
 10
257.7435850287508
 20
-13.16944406178209
 30
0.0
  0
VERTEX
  5
124
  8
DEFAULT
 10
257.6740593989616
 20
-13.17976283078518
 30
0.0
  0
VERTEX
  5
125
  8
DEFAULT
 10
257.6048895853942
 20
-13.19169004844386
 30
0.0
  0
VERTEX
  5
126
  8
DEFAULT
 10
257.5361308695867
 20
-13.20520862871421
 30
0.0
  0
VERTEX
  5
127
  8
DEFAULT
 10
257.4678374952214
 20
-13.22029898537368
 30
0.0
  0
VERTEX
  5
128
  8
DEFAULT
 10
257.400062529267
 20
-13.23693910766435
 30
0.0
  0
VERTEX
  5
129
  8
DEFAULT
 10
257.3328577295127
 20
-13.2551046449729
 30
0.0
  0
VERTEX
  5
12A
  8
DEFAULT
 10
257.2662734191608
 20
-13.27476899993527
 30
0.0
  0
VERTEX
  5
12B
  8
DEFAULT
 10
257.2003583690745
 20
-13.29590342930173
 30
0.0
  0
VERTEX
  5
12C
  8
DEFAULT
 10
257.1351596882141
 20
-13.3184771518514
 30
0.0
  0
VERTEX
  5
12D
  8
DEFAULT
 10
257.0707227227133
 20
-13.34245746260824
 30
0.0
  0
VERTEX
  5
12E
  8
DEFAULT
 10
257.007090963982
 20
-13.36780985258036
 30
0.0
  0
VERTEX
  5
12F
  8
DEFAULT
 10
256.9443059661353
 20
-13.39449813322373
 30
0.0
  0
VERTEX
  5
130
  8
DEFAULT
 10
256.8824072729773
 20
-13.42248456481775
 30
0.0
  0
VERTEX
  5
131
  8
DEFAULT
 10
256.821432354688
 20
-13.45172998793572
 30
0.0
  0
VERTEX
  5
132
  8
DEFAULT
 10
256.7614165542866
 20
-13.48219395719593
 30
0.0
  0
VERTEX
  5
133
  8
DEFAULT
 10
256.7023930438684
 20
-13.51383487648978
 30
0.0
  0
VERTEX
  5
134
  8
DEFAULT
 10
256.6443927905445
 20
-13.54661013490103
 30
0.0
  0
VERTEX
  5
135
  8
DEFAULT
 10
256.5874445319437
 20
-13.58047624255452
 30
0.0
  0
VERTEX
  5
136
  8
DEFAULT
 10
256.531574761073
 20
-13.61538896566291
 30
0.0
  0
VERTEX
  5
137
  8
DEFAULT
 10
256.476807720275
 20
-13.65130346007585
 30
0.0
  0
VERTEX
  5
138
  8
DEFAULT
 10
256.4231654039658
 20
-13.68817440267612
 30
0.0
  0
VERTEX
  5
139
  8
DEFAULT
 10
256.3706675697907
 20
-13.72595612001177
 30
0.0
  0
VERTEX
  5
13A
  8
DEFAULT
 10
256.3193317577917
 20
-13.7646027136009
 30
0.0
  0
VERTEX
  5
13B
  8
DEFAULT
 10
256.2691733171425
 20
-13.80406818139568
 30
0.0
  0
VERTEX
  5
13C
  8
DEFAULT
 10
256.2202054399808
 20
-13.84430653494445
 30
0.0
  0
VERTEX
  5
13D
  8
DEFAULT
 10
256.1724392018384
 20
-13.88527191184375
 30
0.0
  0
VERTEX
  5
13E
  8
DEFAULT
 10
256.1258836081531
 20
-13.9269186831256
 30
0.0
  0
VERTEX
  5
13F
  8
DEFAULT
 10
256.0805456463327
 20
-13.96920155527926
 30
0.0
 42
-0.3999217260364751
  0
VERTEX
  5
140
  8
DEFAULT
 10
250.1889643187295
 20
-13.96920155527923
 30
0.0
  0
VERTEX
  5
141
  8
DEFAULT
 10
250.1436263569091
 20
-13.92691868312558
 30
0.0
  0
VERTEX
  5
142
  8
DEFAULT
 10
250.0970707632237
 20
-13.88527191184372
 30
0.0
  0
VERTEX
  5
143
  8
DEFAULT
 10
250.0493045250813
 20
-13.84430653494443
 30
0.0
  0
VERTEX
  5
144
  8
DEFAULT
 10
250.0003366479196
 20
-13.80406818139565
 30
0.0
  0
VERTEX
  5
145
  8
DEFAULT
 10
249.9501782072703
 20
-13.76460271360088
 30
0.0
  0
VERTEX
  5
146
  8
DEFAULT
 10
249.8988423952713
 20
-13.72595612001175
 30
0.0
  0
VERTEX
  5
147
  8
DEFAULT
 10
249.8463445610963
 20
-13.68817440267609
 30
0.0
  0
VERTEX
  5
148
  8
DEFAULT
 10
249.7927022447871
 20
-13.65130346007582
 30
0.0
  0
VERTEX
  5
149
  8
DEFAULT
 10
249.7379352039891
 20
-13.61538896566289
 30
0.0
  0
VERTEX
  5
14A
  8
DEFAULT
 10
249.6820654331185
 20
-13.58047624255449
 30
0.0
  0
VERTEX
  5
14B
  8
DEFAULT
 10
249.6251171745176
 20
-13.546610134901
 30
0.0
  0
VERTEX
  5
14C
  8
DEFAULT
 10
249.5671169211937
 20
-13.51383487648975
 30
0.0
  0
VERTEX
  5
14D
  8
DEFAULT
 10
249.5080934107755
 20
-13.48219395719591
 30
0.0
  0
VERTEX
  5
14E
  8
DEFAULT
 10
249.4480776103741
 20
-13.4517299879357
 30
0.0
  0
VERTEX
  5
14F
  8
DEFAULT
 10
249.3871026920848
 20
-13.42248456481772
 30
0.0
  0
VERTEX
  5
150
  8
DEFAULT
 10
249.3252039989268
 20
-13.3944981332237
 30
0.0
  0
VERTEX
  5
151
  8
DEFAULT
 10
249.26241900108
 20
-13.36780985258033
 30
0.0
  0
VERTEX
  5
152
  8
DEFAULT
 10
249.1987872423488
 20
-13.34245746260821
 30
0.0
  0
VERTEX
  5
153
  8
DEFAULT
 10
249.1343502768481
 20
-13.31847715185138
 30
0.0
  0
VERTEX
  5
154
  8
DEFAULT
 10
249.0691515959876
 20
-13.2959034293017
 30
0.0
  0
VERTEX
  5
155
  8
DEFAULT
 10
249.0032365459014
 20
-13.27476899993525
 30
0.0
  0
VERTEX
  5
156
  8
DEFAULT
 10
248.9366522355494
 20
-13.25510464497287
 30
0.0
  0
VERTEX
  5
157
  8
DEFAULT
 10
248.8694474357952
 20
-13.23693910766434
 30
0.0
  0
VERTEX
  5
158
  8
DEFAULT
 10
248.8016724698408
 20
-13.22029898537365
 30
0.0
  0
VERTEX
  5
159
  8
DEFAULT
 10
248.7333790954755
 20
-13.20520862871419
 30
0.0
  0
VERTEX
  5
15A
  8
DEFAULT
 10
248.664620379668
 20
-13.19169004844384
 30
0.0
  0
VERTEX
  5
15B
  8
DEFAULT
 10
248.5954505661005
 20
-13.17976283078516
 30
0.0
  0
VERTEX
  5
15C
  8
DEFAULT
 10
248.5259249363114
 20
-13.16944406178206
 30
0.0
  0
VERTEX
  5
15D
  8
DEFAULT
 10
248.4560996651651
 20
-13.16074826124428
 30
0.0
  0
VERTEX
  5
15E
  8
DEFAULT
 10
248.3860316714322
 20
-13.15368732676408
 30
0.0
  0
VERTEX
  5
15F
  8
DEFAULT
 10
248.3157784642988
 20
-13.14827048821734
 30
0.0
  0
VERTEX
  5
160
  8
DEFAULT
 10
248.2453979866692
 20
-13.14450427308345
 30
0.0
  0
VERTEX
  5
161
  8
DEFAULT
 10
248.1749484561543
 20
-13.1423924828375
 30
0.0
  0
VERTEX
  5
162
  8
DEFAULT
 10
248.1044882046602
 20
-13.1419361805833
 30
0.0
  0
VERTEX
  5
163
  8
DEFAULT
 10
248.0340755175032
 20
-13.14313369001002
 30
0.0
  0
VERTEX
  5
164
  8
DEFAULT
 10
247.963768472985
 20
-13.14598060566724
 30
0.0
  0
VERTEX
  5
165
  8
DEFAULT
 10
247.8936247833495
 20
-13.15046981446655
 30
0.0
  0
VERTEX
  5
166
  8
DEFAULT
 10
247.8237016380357
 20
-13.15659152823174
 30
0.0
  0
VERTEX
  5
167
  8
DEFAULT
 10
247.7540555501102
 20
-13.16433332703585
 30
0.0
  0
VERTEX
  5
168
  8
DEFAULT
 10
247.6847422067383
 20
-13.17368021298321
 30
0.0
  0
VERTEX
  5
169
  8
DEFAULT
 10
247.6158163245036
 20
-13.18461467401837
 30
0.0
  0
VERTEX
  5
16A
  8
DEFAULT
 10
247.5473315103473
 20
-13.19711675727288
 30
0.0
  0
VERTEX
  5
16B
  8
DEFAULT
 10
247.4793401288383
 20
-13.21116415139588
 30
0.0
  0
VERTEX
  5
16C
  8
DEFAULT
 10
247.4118931764259
 20
-13.22673227725585
 30
0.0
  0
VERTEX
  5
16D
  8
DEFAULT
 10
247.3450401632629
 20
-13.2437943863496
 30
0.0
  0
VERTEX
  5
16E
  8
DEFAULT
 10
247.278829003117
 20
-13.26232166621098
 30
0.0
  0
VERTEX
  5
16F
  8
DEFAULT
 10
247.2133059118135
 20
-13.28228335207579
 30
0.0
  0
VERTEX
  5
170
  8
DEFAULT
 10
247.1485153145809
 20
-13.30364684403176
 30
0.0
  0
VERTEX
  5
171
  8
DEFAULT
 10
247.0844997625904
 20
-13.32637782886316
 30
0.0
  0
VERTEX
  5
172
  8
DEFAULT
 10
247.0212998589081
 20
-13.350440405788
 30
0.0
  0
VERTEX
  5
173
  8
DEFAULT
 10
246.9589541939973
 20
-13.37579721528257
 30
0.0
  0
VERTEX
  5
174
  8
DEFAULT
 10
246.8974992908406
 20
-13.40240957019245
 30
0.0
  0
VERTEX
  5
175
  8
DEFAULT
 10
246.8369695596706
 20
-13.43023758834073
 30
0.0
  0
VERTEX
  5
176
  8
DEFAULT
 10
246.7773972622373
 20
-13.45924032586269
 30
0.0
  0
VERTEX
  5
177
  8
DEFAULT
 10
246.7188124854667
 20
-13.48937591052135
 30
0.0
  0
VERTEX
  5
178
  8
DEFAULT
 10
246.661243124311
 20
-13.52060167428848
 30
0.0
  0
VERTEX
  5
179
  8
DEFAULT
 10
246.6047148735278
 20
-13.55287428451199
 30
0.0
  0
VERTEX
  5
17A
  8
DEFAULT
 10
246.5492512280773
 20
-13.58614987303024
 30
0.0
  0
VERTEX
  5
17B
  8
DEFAULT
 10
246.4948734917812
 20
-13.62038416263822
 30
0.0
  0
VERTEX
  5
17C
  8
DEFAULT
 10
246.4416007938439
 20
-13.65553259035705
 30
0.0
  0
VERTEX
  5
17D
  8
DEFAULT
 10
246.3894501128029
 20
-13.69155042700784
 30
0.0
  0
VERTEX
  5
17E
  8
DEFAULT
 10
246.3384363074479
 20
-13.72839289264163
 30
0.0
  0
VERTEX
  5
17F
  8
DEFAULT
 10
246.288572154222
 20
-13.76601526742919
 30
0.0
  0
VERTEX
  5
180
  8
DEFAULT
 10
246.2398683906031
 20
-13.8043729976664
 30
0.0
  0
VERTEX
  5
181
  8
DEFAULT
 10
246.033883364441
 20
-13.97423649066478
 30
0.0
  0
VERTEX
  5
182
  8
DEFAULT
 10
245.8331593291381
 20
-14.14809259702255
 30
0.0
  0
VERTEX
  5
183
  8
DEFAULT
 10
245.6377925945755
 20
-14.32571675033127
 30
0.0
  0
VERTEX
  5
184
  8
DEFAULT
 10
245.4478675871744
 20
-14.50688259814882
 30
0.0
  0
VERTEX
  5
185
  8
DEFAULT
 10
245.2634569370591
 20
-14.69136273321426
 30
0.0
  0
VERTEX
  5
186
  8
DEFAULT
 10
245.0846216149685
 20
-14.87892940373217
 30
0.0
  0
VERTEX
  5
187
  8
DEFAULT
 10
244.9114111159886
 20
-15.06935519917815
 30
0.0
  0
VERTEX
  5
188
  8
DEFAULT
 10
244.7438636869394
 20
-15.26241370845066
 30
0.0
  0
VERTEX
  5
189
  8
DEFAULT
 10
244.5820065940459
 20
-15.45788014758103
 30
0.0
  0
VERTEX
  5
18A
  8
DEFAULT
 10
244.425856427377
 20
-15.65553195460639
 30
0.0
  0
VERTEX
  5
18B
  8
DEFAULT
 10
244.2754194384297
 20
-15.85514934960503
 30
0.0
  0
VERTEX
  5
18C
  8
DEFAULT
 10
244.1306919071737
 20
-16.0565158582844
 30
0.0
  0
VERTEX
  5
18D
  8
DEFAULT
 10
243.9916605348529
 20
-16.25941879789369
 30
0.0
  0
VERTEX
  5
18E
  8
DEFAULT
 10
243.8583028588576
 20
-16.46364972460286
 30
0.0
  0
VERTEX
  5
18F
  8
DEFAULT
 10
243.730587686036
 20
-16.66900484184215
 30
0.0
  0
VERTEX
  5
190
  8
DEFAULT
 10
243.6084755409023
 20
-16.87528536943012
 30
0.0
  0
VERTEX
  5
191
  8
DEFAULT
 10
243.4908874362718
 20
-17.08417785302041
 30
0.0
  0
VERTEX
  5
192
  8
DEFAULT
 10
243.3769022743564
 20
-17.29745999575234
 30
0.0
  0
VERTEX
  5
193
  8
DEFAULT
 10
243.2667119415854
 20
-17.51506659430858
 30
0.0
  0
VERTEX
  5
194
  8
DEFAULT
 10
243.1605085275415
 20
-17.73692276446599
 30
0.0
  0
VERTEX
  5
195
  8
DEFAULT
 10
243.0584837811818
 20
-17.96294373750035
 30
0.0
  0
VERTEX
  5
196
  8
DEFAULT
 10
242.9608285405494
 20
-18.19303468909695
 30
0.0
  0
VERTEX
  5
197
  8
DEFAULT
 10
242.867732137896
 20
-18.42709060375011
 30
0.0
  0
VERTEX
  5
198
  8
DEFAULT
 10
242.7793817824685
 20
-18.66499617754377
 30
0.0
  0
VERTEX
  5
199
  8
DEFAULT
 10
242.6959619235464
 20
-18.90662576207535
 30
0.0
  0
VERTEX
  5
19A
  8
DEFAULT
 10
242.6176535966443
 20
-19.1518433521171
 30
0.0
  0
VERTEX
  5
19B
  8
DEFAULT
 10
242.5446337561179
 20
-19.40050261940058
 30
0.0
  0
VERTEX
  5
19C
  8
DEFAULT
 10
242.4770745977153
 20
-19.65244699466151
 30
0.0
  0
VERTEX
  5
19D
  8
DEFAULT
 10
242.4151428749077
 20
-19.90750979979364
 30
0.0
  0
VERTEX
  5
19E
  8
DEFAULT
 10
242.358999213098
 20
-20.16551443163367
 30
0.0
  0
VERTEX
  5
19F
  8
DEFAULT
 10
242.3087974260406
 20
-20.42627459853493
 30
0.0
  0
VERTEX
  5
1A0
  8
DEFAULT
 10
242.2646838390093
 20
-20.68959461048965
 30
0.0
  0
VERTEX
  5
1A1
  8
DEFAULT
 10
242.219543363441
 20
-21.01446908166793
 30
0.0
  0
VERTEX
  5
1A2
  8
DEFAULT
 10
242.2012904847067
 20
-21.17673889118028
 30
0.0
  0
VERTEX
  5
1A3
  8
DEFAULT
 10
242.1863638366975
 20
-21.33838705836575
 30
0.0
  0
VERTEX
  5
1A4
  8
DEFAULT
 10
242.1751474745916
 20
-21.49895967238489
 30
0.0
  0
VERTEX
  5
1A5
  8
DEFAULT
 10
242.1680546674152
 20
-21.65795818219987
 30
0.0
  0
VERTEX
  5
1A6
  8
DEFAULT
 10
242.1655202018096
 20
-21.81484979116435
 30
0.0
  0
VERTEX
  5
1A7
  8
DEFAULT
 10
242.1679926857981
 20
-21.96907785161322
 30
0.0
  0
VERTEX
  5
1A8
  8
DEFAULT
 10
242.1712486091868
 20
-22.04501513502963
 30
0.0
  0
VERTEX
  5
1A9
  8
DEFAULT
 10
242.1759268525533
 20
-22.12007225945251
 30
0.0
  0
VERTEX
  5
1AA
  8
DEFAULT
 10
242.1820839519354
 20
-22.1941775646655
 30
0.0
  0
VERTEX
  5
1AB
  8
DEFAULT
 10
242.1897758641637
 20
-22.26725984874915
 30
0.0
  0
VERTEX
  5
1AC
  8
DEFAULT
 10
242.1990577263543
 20
-22.33924869291185
 30
0.0
  0
VERTEX
  5
1AD
  8
DEFAULT
 10
242.2099836154013
 20
-22.41007478632079
 30
0.0
  0
VERTEX
  5
1AE
  8
DEFAULT
 10
242.2226063074697
 20
-22.47967025093287
 30
0.0
  0
VERTEX
  5
1AF
  8
DEFAULT
 10
242.2369770374882
 20
-22.54796896632566
 30
0.0
  0
VERTEX
  5
1B0
  8
DEFAULT
 10
242.2531452586415
 20
-22.61490689452826
 30
0.0
  0
VERTEX
  5
1B1
  8
DEFAULT
 10
242.2711584018637
 20
-22.68042240485235
 30
0.0
  0
VERTEX
  5
1B2
  8
DEFAULT
 10
242.2910616353304
 20
-22.74445659872299
 30
0.0
  0
VERTEX
  5
1B3
  8
DEFAULT
 10
242.30173547305
 20
-22.77590062318475
 30
0.0
  0
VERTEX
  5
1B4
  8
DEFAULT
 10
242.3128976239518
 20
-22.80695363450967
 30
0.0
  0
VERTEX
  5
1B5
  8
DEFAULT
 10
242.3245529905558
 20
-22.83760918343406
 30
0.0
  0
VERTEX
  5
1B6
  8
DEFAULT
 10
242.3367062888651
 20
-22.86786105235714
 30
0.0
  0
VERTEX
  5
1B7
  8
DEFAULT
 10
242.3493620408489
 20
-22.89770326549197
 30
0.0
  0
VERTEX
  5
1B8
  8
DEFAULT
 10
242.3625245669275
 20
-22.92713009901642
 30
0.0
  0
VERTEX
  5
1B9
  8
DEFAULT
 10
242.3761979784562
 20
-22.95613609122419
 30
0.0
  0
VERTEX
  5
1BA
  8
DEFAULT
 10
242.390386170209
 20
-22.98471605267571
 30
0.0
  0
VERTEX
  5
1BB
  8
DEFAULT
 10
242.4050928128635
 20
-23.01286507634912
 30
0.0
  0
VERTEX
  5
1BC
  8
DEFAULT
 10
242.4203213454846
 20
-23.04057854779128
 30
0.0
  0
VERTEX
  5
1BD
  8
DEFAULT
 10
242.4360749680086
 20
-23.06785215526869
 30
0.0
  0
VERTEX
  5
1BE
  8
DEFAULT
 10
242.4523566337276
 20
-23.09468189991847
 30
0.0
  0
VERTEX
  5
1BF
  8
DEFAULT
 10
242.4691690417735
 20
-23.12106410589933
 30
0.0
  0
VERTEX
  5
1C0
  8
DEFAULT
 10
242.4865146296021
 20
-23.14699543054255
 30
0.0
  0
VERTEX
  5
1C1
  8
DEFAULT
 10
242.5043955654774
 20
-23.17247287450292
 30
0.0
  0
VERTEX
  5
1C2
  8
DEFAULT
 10
242.5228137409556
 20
-23.19749379190972
 30
0.0
  0
VERTEX
  5
1C3
  8
DEFAULT
 10
242.5417707633693
 20
-23.2220559005177
 30
0.0
  0
VERTEX
  5
1C4
  8
DEFAULT
 10
242.5612679483118
 20
-23.24615729185801
 30
0.0
  0
VERTEX
  5
1C5
  8
DEFAULT
 10
242.5813063121209
 20
-23.2697964413892
 30
0.0
  0
VERTEX
  5
1C6
  8
DEFAULT
 10
242.6018865643634
 20
-23.2929722186482
 30
0.0
  0
VERTEX
  5
1C7
  8
DEFAULT
 10
242.6230091003191
 20
-23.31568389740121
 30
0.0
  0
VERTEX
  5
1C8
  8
DEFAULT
 10
242.6446739934648
 20
-23.33793116579477
 30
0.0
  0
VERTEX
  5
1C9
  8
DEFAULT
 10
242.6668809879588
 20
-23.35971413650664
 30
0.0
  0
VERTEX
  5
1CA
  8
DEFAULT
 10
242.6896294911247
 20
-23.38103335689683
 30
0.0
  0
VERTEX
  5
1CB
  8
DEFAULT
 10
242.7129185659359
 20
-23.40188981915851
 30
0.0
  0
VERTEX
  5
1CC
  8
DEFAULT
 10
242.7367469234991
 20
-23.42228497046904
 30
0.0
  0
VERTEX
  5
1CD
  8
DEFAULT
 10
242.7611129155393
 20
-23.44222072314087
 30
0.0
  0
VERTEX
  5
1CE
  8
DEFAULT
 10
242.7860145268835
 20
-23.46169946477256
 30
0.0
  0
VERTEX
  5
1CF
  8
DEFAULT
 10
242.8114493679446
 20
-23.48072406839972
 30
0.0
  0
VERTEX
  5
1D0
  8
DEFAULT
 10
242.8374146672062
 20
-23.49929790264597
 30
0.0
  0
VERTEX
  5
1D1
  8
DEFAULT
 10
242.863907263706
 20
-23.51742484187395
 30
0.0
  0
VERTEX
  5
1D2
  8
DEFAULT
 10
242.8909235995206
 20
-23.5351092763362
 30
0.0
  0
VERTEX
  5
1D3
  8
DEFAULT
 10
242.9184597122494
 20
-23.55235612232626
 30
0.0
  0
VERTEX
  5
1D4
  8
DEFAULT
 10
242.9465112274983
 20
-23.56917083232948
 30
0.0
  0
VERTEX
  5
1D5
  8
DEFAULT
 10
242.9750733513648
 20
-23.58555940517412
 30
0.0
  0
VERTEX
  5
1D6
  8
DEFAULT
 10
243.0041408629214
 20
-23.60152839618224
 30
0.0
  0
VERTEX
  5
1D7
  8
DEFAULT
 10
243.0337081066999
 20
-23.61708492732069
 30
0.0
  0
VERTEX
  5
1D8
  8
DEFAULT
 10
243.0637689851755
 20
-23.63223669735207
 30
0.0
  0
VERTEX
  5
1D9
  8
DEFAULT
 10
243.1253450007424
 20
-23.66135969402864
 30
0.0
  0
VERTEX
  5
1DA
  8
DEFAULT
 10
243.1888110026927
 20
-23.68897089796463
 30
0.0
  0
VERTEX
  5
1DB
  8
DEFAULT
 10
243.2541015301785
 20
-23.71515369930668
 30
0.0
  0
VERTEX
  5
1DC
  8
DEFAULT
 10
243.3211433279264
 20
-23.74000169142629
 30
0.0
  0
VERTEX
  5
1DD
  8
DEFAULT
 10
243.3898551057299
 20
-23.76361899575078
 30
0.0
  0
VERTEX
  5
1DE
  8
DEFAULT
 10
243.4601472979423
 20
-23.7861205865942
 30
0.0
  0
VERTEX
  5
1DF
  8
DEFAULT
 10
243.605071842762
 20
-23.8282927385134
 30
0.0
  0
VERTEX
  5
1E0
  8
DEFAULT
 10
244.2238891349216
 20
-23.98347672820869
 30
0.0
  0
VERTEX
  5
1E1
  8
DEFAULT
 10
244.3819775212343
 20
-24.02719772742232
 30
0.0
  0
VERTEX
  5
1E2
  8
DEFAULT
 10
244.4780283451435
 20
-24.0567078413214
 30
0.0
  0
VERTEX
  5
1E3
  8
DEFAULT
 10
244.5734603011117
 20
-24.08850409024778
 30
0.0
  0
VERTEX
  5
1E4
  8
DEFAULT
 10
244.668192073723
 20
-24.12256636457444
 30
0.0
  0
VERTEX
  5
1E5
  8
DEFAULT
 10
244.762143257105
 20
-24.15887070996324
 30
0.0
  0
VERTEX
  5
1E6
  8
DEFAULT
 10
244.8552345815241
 20
-24.19738938136589
 30
0.0
  0
VERTEX
  5
1E7
  8
DEFAULT
 10
244.9473881359455
 20
-24.23809091300269
 30
0.0
  0
VERTEX
  5
1E8
  8
DEFAULT
 10
245.0385275852474
 20
-24.28094020395298
 30
0.0
  0
VERTEX
  5
1E9
  8
DEFAULT
 10
245.12857838082
 20
-24.32589861886888
 30
0.0
  0
VERTEX
  5
1EA
  8
DEFAULT
 10
245.2174679633299
 20
-24.37292410320707
 30
0.0
  0
VERTEX
  5
1EB
  8
DEFAULT
 10
245.3051259564952
 20
-24.42197131226147
 30
0.0
  0
VERTEX
  5
1EC
  8
DEFAULT
 10
245.3914843507912
 20
-24.47299175317706
 30
0.0
  0
VERTEX
  5
1ED
  8
DEFAULT
 10
245.4764776760924
 20
-24.52593393902954
 30
0.0
  0
VERTEX
  5
1EE
  8
DEFAULT
 10
245.5600431623513
 20
-24.58074355397165
 30
0.0
  0
VERTEX
  5
1EF
  8
DEFAULT
 10
245.6421208875151
 20
-24.63736362837214
 30
0.0
  0
VERTEX
  5
1F0
  8
DEFAULT
 10
245.7226539119926
 20
-24.69573472281214
 30
0.0
  0
VERTEX
  5
1F1
  8
DEFAULT
 10
245.8015883990943
 20
-24.75579511975255
 30
0.0
  0
VERTEX
  5
1F2
  8
DEFAULT
 10
245.8788737209894
 20
-24.81748102164966
 30
0.0
  0
VERTEX
  5
1F3
  8
DEFAULT
 10
245.9544625498399
 20
-24.88072675427041
 30
0.0
  0
VERTEX
  5
1F4
  8
DEFAULT
 10
246.0283109338925
 20
-24.94546497394779
 30
0.0
  0
VERTEX
  5
1F5
  8
DEFAULT
 10
246.100378358428
 20
-25.01162687751619
 30
0.0
  0
VERTEX
  5
1F6
  8
DEFAULT
 10
246.1706277915856
 20
-25.07914241368049
 30
0.0
  0
VERTEX
  5
1F7
  8
DEFAULT
 10
246.2390257151883
 20
-25.14794049459586
 30
0.0
  0
VERTEX
  5
1F8
  8
DEFAULT
 10
246.3055421408092
 20
-25.21794920647132
 30
0.0
  0
VERTEX
  5
1F9
  8
DEFAULT
 10
246.3701506114134
 20
-25.2890960180545
 30
0.0
  0
VERTEX
  5
1FA
  8
DEFAULT
 10
246.4328281890119
 20
-25.36130798591071
 30
0.0
  0
VERTEX
  5
1FB
  8
DEFAULT
 10
246.4935554288464
 20
-25.43451195547039
 30
0.0
  0
VERTEX
  5
1FC
  8
DEFAULT
 10
246.5523163407027
 20
-25.50863475689026
 30
0.0
  0
VERTEX
  5
1FD
  8
DEFAULT
 10
246.609098338023
 20
-25.5836033948476
 30
0.0
  0
VERTEX
  5
1FE
  8
DEFAULT
 10
246.6638921755435
 20
-25.65934523146803
 30
0.0
  0
VERTEX
  5
1FF
  8
DEFAULT
 10
246.7166918762383
 20
-25.73578816167058
 30
0.0
  0
VERTEX
  5
200
  8
DEFAULT
 10
246.7674946483885
 20
-25.81286078030021
 30
0.0
  0
VERTEX
  5
201
  8
DEFAULT
 10
246.8163007936277
 20
-25.89049254050501
 30
0.0
  0
VERTEX
  5
202
  8
DEFAULT
 10
246.8667549645696
 20
-25.97485228658799
 30
0.0
  0
VERTEX
  5
203
  8
DEFAULT
 10
246.9155932422941
 20
-26.060963551876
 30
0.0
  0
VERTEX
  5
204
  8
DEFAULT
 10
246.9627381094068
 20
-26.1487869438703
 30
0.0
  0
VERTEX
  5
205
  8
DEFAULT
 10
247.0081129204879
 20
-26.23827891661981
 30
0.0
  0
VERTEX
  5
206
  8
DEFAULT
 10
247.051642161569
 20
-26.32939175917197
 30
0.0
  0
VERTEX
  5
207
  8
DEFAULT
 10
247.0932517149722
 20
-26.42207360238933
 30
0.0
  0
VERTEX
  5
208
  8
DEFAULT
 10
247.132869128071
 20
-26.51626844493856
 30
0.0
  0
VERTEX
  5
209
  8
DEFAULT
 10
247.1704238844282
 20
-26.61191619913787
 30
0.0
  0
VERTEX
  5
20A
  8
DEFAULT
 10
247.2058476756685
 20
-26.70895275721184
 30
0.0
  0
VERTEX
  5
20B
  8
DEFAULT
 10
247.2390746723562
 20
-26.80731007835334
 30
0.0
  0
VERTEX
  5
20C
  8
DEFAULT
 10
247.2700417920809
 20
-26.9069162968299
 30
0.0
  0
VERTEX
  5
20D
  8
DEFAULT
 10
247.2986889629015
 20
-27.00769585119934
 30
0.0
  0
VERTEX
  5
20E
  8
DEFAULT
 10
247.3249593802606
 20
-27.10956963451746
 30
0.0
  0
VERTEX
  5
20F
  8
DEFAULT
 10
247.348799755472
 20
-27.21245516523256
 30
0.0
  0
VERTEX
  5
210
  8
DEFAULT
 10
247.3701605538822
 20
-27.31626677826812
 30
0.0
  0
VERTEX
  5
211
  8
DEFAULT
 10
247.388996220842
 20
-27.42091583560073
 30
0.0
  0
VERTEX
  5
212
  8
DEFAULT
 10
247.4052653936681
 20
-27.52631095544577
 30
0.0
  0
VERTEX
  5
213
  8
DEFAULT
 10
247.4189310978493
 20
-27.63235825897343
 30
0.0
  0
VERTEX
  5
214
  8
DEFAULT
 10
247.4299609258466
 20
-27.73896163329298
 30
0.0
  0
VERTEX
  5
215
  8
DEFAULT
 10
247.4383271969503
 20
-27.8460230092693
 30
0.0
  0
VERTEX
  5
216
  8
DEFAULT
 10
247.4440070967942
 20
-27.95344265257186
 30
0.0
  0
VERTEX
  5
217
  8
DEFAULT
 10
247.4469827952859
 20
-28.06111946620943
 30
0.0
  0
VERTEX
  5
218
  8
DEFAULT
 10
247.4472415418776
 20
-28.16895130267216
 30
0.0
  0
VERTEX
  5
219
  8
DEFAULT
 10
247.4447757372979
 20
-28.27683528369166
 30
0.0
  0
VERTEX
  5
21A
  8
DEFAULT
 10
247.4395829810596
 20
-28.3846681255393
 30
0.0
  0
VERTEX
  5
21B
  8
DEFAULT
 10
247.4316660942746
 20
-28.49234646771617
 30
0.0
  0
VERTEX
  5
21C
  8
DEFAULT
 10
247.4210331175191
 20
-28.59976720284442
 30
0.0
  0
VERTEX
  5
21D
  8
DEFAULT
 10
247.4076972837199
 20
-28.70682780555243
 30
0.0
  0
VERTEX
  5
21E
  8
DEFAULT
 10
247.3916769662521
 20
-28.81342665815251
 30
0.0
  0
VERTEX
  5
21F
  8
DEFAULT
 10
247.3729956026598
 20
-28.91946337094296
 30
0.0
  0
VERTEX
  5
220
  8
DEFAULT
 10
247.3516815946277
 20
-29.02483909502279
 30
0.0
  0
VERTEX
  5
221
  8
DEFAULT
 10
247.3277681850361
 20
-29.1294568255888
 30
0.0
  0
VERTEX
  5
222
  8
DEFAULT
 10
247.3138191245162
 20
-29.18986208835792
 30
0.0
  0
VERTEX
  5
223
  8
DEFAULT
 10
247.3010297594432
 20
-29.25100380081863
 30
0.0
  0
VERTEX
  5
224
  8
DEFAULT
 10
247.289435821444
 20
-29.31285326494279
 30
0.0
  0
VERTEX
  5
225
  8
DEFAULT
 10
247.2790723236452
 20
-29.37537986730861
 30
0.0
  0
VERTEX
  5
226
  8
DEFAULT
 10
247.2699734462873
 20
-29.43855108502245
 30
0.0
  0
VERTEX
  5
227
  8
DEFAULT
 10
247.2621724204689
 20
-29.5023324991321
 30
0.0
  0
VERTEX
  5
228
  8
DEFAULT
 10
247.2557014105451
 20
-29.56668781583912
 30
0.0
  0
VERTEX
  5
229
  8
DEFAULT
 10
247.2505913957464
 20
-29.63157889578089
 30
0.0
  0
VERTEX
  5
22A
  8
DEFAULT
 10
247.2468720516197
 20
-29.69696579160854
 30
0.0
  0
VERTEX
  5
22B
  8
DEFAULT
 10
247.2445716319279
 20
-29.76280679404035
 30
0.0
  0
VERTEX
  5
22C
  8
DEFAULT
 10
247.243716851673
 20
-29.82905848651667
 30
0.0
  0
VERTEX
  5
22D
  8
DEFAULT
 10
247.2443327719353
 20
-29.89567580852674
 30
0.0
  0
VERTEX
  5
22E
  8
DEFAULT
 10
247.2464426872369
 20
-29.96261212761639
 30
0.0
  0
VERTEX
  5
22F
  8
DEFAULT
 10
247.2500680161581
 20
-30.02981932002255
 30
0.0
  0
VERTEX
  5
230
  8
DEFAULT
 10
247.2552281959381
 20
-30.09724785981368
 30
0.0
  0
VERTEX
  5
231
  8
DEFAULT
 10
247.2619405817954
 20
-30.16484691634665
 30
0.0
  0
VERTEX
  5
232
  8
DEFAULT
 10
247.2702203516983
 20
-30.23256445978016
 30
0.0
  0
VERTEX
  5
233
  8
DEFAULT
 10
247.2800804173014
 20
-30.30034737431498
 30
0.0
  0
VERTEX
  5
234
  8
DEFAULT
 10
247.2915313417457
 20
-30.3681415787598
 30
0.0
  0
VERTEX
  5
235
  8
DEFAULT
 10
247.3045812649899
 20
-30.43589215395303
 30
0.0
  0
VERTEX
  5
236
  8
DEFAULT
 10
247.3192358373072
 20
-30.50354347650264
 30
0.0
  0
VERTEX
  5
237
  8
DEFAULT
 10
247.3354981615368
 20
-30.57103935824214
 30
0.0
  0
VERTEX
  5
238
  8
DEFAULT
 10
247.3533687446313
 20
-30.63832319073982
 30
0.0
  0
VERTEX
  5
239
  8
DEFAULT
 10
247.3728454589828
 20
-30.7053380941423
 30
0.0
  0
VERTEX
  5
23A
  8
DEFAULT
 10
247.3939235139461
 20
-30.77202706958252
 30
0.0
  0
VERTEX
  5
23B
  8
DEFAULT
 10
247.4165954379127
 20
-30.83833315433867
 30
0.0
  0
VERTEX
  5
23C
  8
DEFAULT
 10
247.4408510712074
 20
-30.90419957889231
 30
0.0
  0
VERTEX
  5
23D
  8
DEFAULT
 10
247.4666775700096
 20
-30.9695699250054
 30
0.0
  0
VERTEX
  5
23E
  8
DEFAULT
 10
247.4940594214108
 20
-31.03438828391313
 30
0.0
  0
VERTEX
  5
23F
  8
DEFAULT
 10
247.5229784696429
 20
-31.09859941371815
 30
0.0
  0
VERTEX
  5
240
  8
DEFAULT
 10
247.5534139534199
 20
-31.16214889506639
 30
0.0
  0
VERTEX
  5
241
  8
DEFAULT
 10
247.5853425542527
 20
-31.22498328419104
 30
0.0
  0
VERTEX
  5
242
  8
DEFAULT
 10
247.6187384555096
 20
-31.28705026242455
 30
0.0
  0
VERTEX
  5
243
  8
DEFAULT
 10
247.6535734119127
 20
-31.34829878130269
 30
0.0
  0
VERTEX
  5
244
  8
DEFAULT
 10
247.689816829076
 20
-31.40867920241597
 30
0.0
  0
VERTEX
  5
245
  8
DEFAULT
 10
247.7274358526168
 20
-31.46814343120516
 30
0.0
  0
VERTEX
  5
246
  8
DEFAULT
 10
247.7663954662976
 20
-31.52664504394498
 30
0.0
  0
VERTEX
  5
247
  8
DEFAULT
 10
247.8066585985899
 20
-31.58413940721675
 30
0.0
  0
VERTEX
  5
248
  8
DEFAULT
 10
247.8481862369879
 20
-31.64058378923227
 30
0.0
  0
VERTEX
  5
249
  8
DEFAULT
 10
247.8909375493506
 20
-31.69593746243991
 30
0.0
  0
VERTEX
  5
24A
  8
DEFAULT
 10
247.934870011501
 20
-31.75016179691588
 30
0.0
  0
VERTEX
  5
24B
  8
DEFAULT
 10
247.9799395402778
 20
-31.80322034412138
 30
0.0
  0
VERTEX
  5
24C
  8
DEFAULT
 10
248.0261006311998
 20
-31.85507891068501
 30
0.0
  0
VERTEX
  5
24D
  8
DEFAULT
 10
248.07330649989
 20
-31.90570562195201
 30
0.0
  0
VERTEX
  5
24E
  8
DEFAULT
 10
248.1215092263888
 20
-31.95507097512379
 30
0.0
  0
VERTEX
  5
24F
  8
DEFAULT
 10
248.1706599014848
 20
-32.00314788189355
 30
0.0
  0
VERTEX
  5
250
  8
DEFAULT
 10
248.2207087741978
 20
-32.04991170056444
 30
0.0
  0
VERTEX
  5
251
  8
DEFAULT
 10
248.2716053995616
 20
-32.09534025771629
 30
0.0
  0
VERTEX
  5
252
  8
DEFAULT
 10
248.3232987858738
 20
-32.13941385956159
 30
0.0
  0
VERTEX
  5
253
  8
DEFAULT
 10
248.3757375406125
 20
-32.18211529320488
 30
0.0
  0
VERTEX
  5
254
  8
DEFAULT
 10
248.4288700142491
 20
-32.22342981808611
 30
0.0
  0
VERTEX
  5
255
  8
DEFAULT
 10
248.482644441234
 20
-32.26334514795199
 30
0.0
  0
VERTEX
  5
256
  8
DEFAULT
 10
248.5370090774723
 20
-32.30185142375525
 30
0.0
  0
VERTEX
  5
257
  8
DEFAULT
 10
248.5919123336623
 20
-32.33894117793341
 30
0.0
  0
VERTEX
  5
258
  8
DEFAULT
 10
248.6473029039199
 20
-32.37460929056245
 30
0.0
  0
VERTEX
  5
259
  8
DEFAULT
 10
248.7031298891726
 20
-32.40885293791931
 30
0.0
  0
VERTEX
  5
25A
  8
DEFAULT
 10
248.7593429148642
 20
-32.44167153401735
 30
0.0
  0
VERTEX
  5
25B
  8
DEFAULT
 10
248.8158922425721
 20
-32.47306666570488
 30
0.0
  0
VERTEX
  5
25C
  8
DEFAULT
 10
248.8727288752011
 20
-32.50304202193353
 30
0.0
  0
VERTEX
  5
25D
  8
DEFAULT
 10
248.9298046554774
 20
-32.53160331781596
 30
0.0
  0
VERTEX
  5
25E
  8
DEFAULT
 10
248.9870723575268
 20
-32.55875821409671
 30
0.0
  0
VERTEX
  5
25F
  8
DEFAULT
 10
249.0444857713812
 20
-32.58451623266098
 30
0.0
  0
VERTEX
  5
260
  8
DEFAULT
 10
249.101999780311
 20
-32.60888866869908
 30
0.0
  0
VERTEX
  5
261
  8
DEFAULT
 10
249.1595704309373
 20
-32.63188850013432
 30
0.0
  0
VERTEX
  5
262
  8
DEFAULT
 10
249.381772740045
 20
-32.71526236590283
 30
0.0
  0
VERTEX
  5
263
  8
DEFAULT
 10
249.6072592788379
 20
-32.7943435831281
 30
0.0
  0
VERTEX
  5
264
  8
DEFAULT
 10
249.8359202405354
 20
-32.86898297060971
 30
0.0
  0
VERTEX
  5
265
  8
DEFAULT
 10
250.06763787853
 20
-32.93903435690347
 30
0.0
  0
VERTEX
  5
266
  8
DEFAULT
 10
250.3022865557008
 20
-33.00435506583393
 30
0.0
  0
VERTEX
  5
267
  8
DEFAULT
 10
250.5397328271064
 20
-33.06480640700966
 30
0.0
  0
VERTEX
  5
268
  8
DEFAULT
 10
250.7798355570939
 20
-33.12025416881239
 30
0.0
  0
VERTEX
  5
269
  8
DEFAULT
 10
251.0224460716461
 20
-33.17056911118496
 30
0.0
  0
VERTEX
  5
26A
  8
DEFAULT
 10
251.26740834657
 20
-33.21562745541453
 30
0.0
  0
VERTEX
  5
26B
  8
DEFAULT
 10
251.5145592318746
 20
-33.25531136799992
 30
0.0
  0
VERTEX
  5
26C
  8
DEFAULT
 10
251.7637287124402
 20
-33.28950943560727
 30
0.0
  0
VERTEX
  5
26D
  8
DEFAULT
 10
252.0147402047907
 20
-33.31811712805838
 30
0.0
  0
VERTEX
  5
26E
  8
DEFAULT
 10
252.2674108895105
 20
-33.34103724626475
 30
0.0
  0
VERTEX
  5
26F
  8
DEFAULT
 10
252.5215520785411
 20
-33.35818035201728
 30
0.0
  0
VERTEX
  5
270
  8
DEFAULT
 10
252.7769696163047
 20
-33.36946517656964
 30
0.0
  0
VERTEX
  5
271
  8
DEFAULT
 10
253.0334643132947
 20
-33.3748190050133
 30
0.0
  0
VERTEX
  5
272
  8
DEFAULT
 10
253.2908324104817
 20
-33.37417803353429
 30
0.0
  0
VERTEX
  5
273
  8
DEFAULT
 10
253.5488660725868
 20
-33.3674876967662
 30
0.0
  0
VERTEX
  5
274
  8
DEFAULT
 10
253.8073539079999
 20
-33.35470296261138
 30
0.0
  0
VERTEX
  5
275
  8
DEFAULT
 10
254.0660815128458
 20
-33.33578859208973
 30
0.0
  0
VERTEX
  5
276
  8
DEFAULT
 10
254.3248320364617
 20
-33.31071936199336
 30
0.0
  0
VERTEX
  5
277
  8
DEFAULT
 10
254.5833867653104
 20
-33.27948024837104
 30
0.0
  0
VERTEX
  5
278
  8
DEFAULT
 10
254.8415257221629
 20
-33.24206656913854
 30
0.0
  0
VERTEX
  5
279
  8
DEFAULT
 10
255.0990282772005
 20
-33.19848408440567
 30
0.0
  0
VERTEX
  5
27A
  8
DEFAULT
 10
255.3556737675484
 20
-33.14874905342504
 30
0.0
  0
VERTEX
  5
27B
  8
DEFAULT
 10
255.6112421216412
 20
-33.09288824739783
 30
0.0
  0
VERTEX
  5
27C
  8
DEFAULT
 10
255.8655144847467
 20
-33.0309389177142
 30
0.0
  0
VERTEX
  5
27D
  8
DEFAULT
 10
256.1182738419333
 20
-32.96294871955565
 30
0.0
  0
VERTEX
  5
27E
  8
DEFAULT
 10
256.3693056347726
 20
-32.88897559114032
 30
0.0
  0
VERTEX
  5
27F
  8
DEFAULT
 10
256.6183983680982
 20
-32.8090875892441
 30
0.0
  0
VERTEX
  5
280
  8
DEFAULT
 10
256.8653442032231
 20
-32.72336268197749
 30
0.0
  0
VERTEX
  5
281
  8
DEFAULT
 10
257.1099395341248
 20
-32.63188850013432
 30
0.0
  0
VERTEX
  5
282
  8
DEFAULT
 10
257.4138593169904
 20
-32.50854406312629
 30
0.0
  0
VERTEX
  5
283
  8
DEFAULT
 10
257.5635155336625
 20
-32.44321661504618
 30
0.0
  0
VERTEX
  5
284
  8
DEFAULT
 10
257.7109702769249
 20
-32.37531938782277
 30
0.0
  0
VERTEX
  5
285
  8
DEFAULT
 10
257.8556384208705
 20
-32.30474673533497
 30
0.0
  0
VERTEX
  5
286
  8
DEFAULT
 10
257.9968815731223
 20
-32.23139003162639
 30
0.0
  0
VERTEX
  5
287
  8
DEFAULT
 10
258.134020924929
 20
-32.15513913874361
 30
0.0
  0
VERTEX
  5
288
  8
DEFAULT
 10
258.2663501012599
 20
-32.07588387457465
 30
0.0
  0
VERTEX
  5
289
  8
DEFAULT
 10
258.3304857560985
 20
-32.03509552049906
 30
0.0
  0
VERTEX
  5
28A
  8
DEFAULT
 10
258.3931480109006
 20
-31.99351548068717
 30
0.0
  0
VERTEX
  5
28B
  8
DEFAULT
 10
258.4542465380791
 20
-31.95113062360215
 30
0.0
  0
VERTEX
  5
28C
  8
DEFAULT
 10
258.5136916965479
 20
-31.90792809016692
 30
0.0
  0
VERTEX
  5
28D
  8
DEFAULT
 10
258.5713949332867
 20
-31.8638953396341
 30
0.0
  0
VERTEX
  5
28E
  8
DEFAULT
 10
258.6272691849061
 20
-31.81902019545601
 30
0.0
  0
VERTEX
  5
28F
  8
DEFAULT
 10
258.6812292792142
 20
-31.77329089115458
 30
0.0
  0
VERTEX
  5
290
  8
DEFAULT
 10
258.7331923367809
 20
-31.7266961161913
 30
0.0
  0
VERTEX
  5
291
  8
DEFAULT
 10
258.7830781725044
 20
-31.67922506183719
 30
0.0
  0
VERTEX
  5
292
  8
DEFAULT
 10
258.8308096971758
 20
-31.63086746704272
 30
0.0
  0
VERTEX
  5
293
  8
DEFAULT
 10
258.8763133190453
 20
-31.58161366430777
 30
0.0
  0
VERTEX
  5
294
  8
DEFAULT
 10
258.8982077241666
 20
-31.55664783745581
 30
0.0
  0
VERTEX
  5
295
  8
DEFAULT
 10
258.9195193453872
 20
-31.53145462555161
 30
0.0
  0
VERTEX
  5
296
  8
DEFAULT
 10
258.9402401462206
 20
-31.50603300751987
 30
0.0
  0
VERTEX
  5
297
  8
DEFAULT
 10
258.9603623840654
 20
-31.48038200798278
 30
0.0
  0
VERTEX
  5
298
  8
DEFAULT
 10
258.9798786227533
 20
-31.45450069869338
 30
0.0
  0
VERTEX
  5
299
  8
DEFAULT
 10
258.9987817450992
 20
-31.42838819996908
 30
0.0
  0
VERTEX
  5
29A
  8
DEFAULT
 10
259.0170649654488
 20
-31.40204368212502
 30
0.0
  0
VERTEX
  5
29B
  8
DEFAULT
 10
259.0347218422285
 20
-31.37546636690754
 30
0.0
  0
VERTEX
  5
29C
  8
DEFAULT
 10
259.0517462904941
 20
-31.34865552892763
 30
0.0
  0
VERTEX
  5
29D
  8
DEFAULT
 10
259.0681325944796
 20
-31.32161049709432
 30
0.0
  0
VERTEX
  5
29E
  8
DEFAULT
 10
259.0838754201458
 20
-31.29433065604819
 30
0.0
  0
VERTEX
  5
29F
  8
DEFAULT
 10
259.0989698277301
 20
-31.2668154475947
 30
0.0
  0
VERTEX
  5
2A0
  8
DEFAULT
 10
259.1134112842944
 20
-31.23906437213774
 30
0.0
  0
VERTEX
  5
2A1
  8
DEFAULT
 10
259.127195676275
 20
-31.21107699011299
 30
0.0
  0
VERTEX
  5
2A2
  8
DEFAULT
 10
259.1403193220305
 20
-31.18285292342138
 30
0.0
  0
VERTEX
  5
2A3
  8
DEFAULT
 10
259.1527789843917
 20
-31.1543918568625
 30
0.0
  0
VERTEX
  5
2A4
  8
DEFAULT
 10
259.1645718832098
 20
-31.12569353956811
 30
0.0
  0
VERTEX
  5
2A5
  8
DEFAULT
 10
259.1756957079058
 20
-31.0967577864355
 30
0.0
  0
VERTEX
  5
2A6
  8
DEFAULT
 10
259.1861486300191
 20
-31.06758447956094
 30
0.0
  0
VERTEX
  5
2A7
  8
DEFAULT
 10
259.1959293157566
 20
-31.03817356967313
 30
0.0
  0
VERTEX
  5
2A8
  8
DEFAULT
 10
259.2050369385415
 20
-31.00852507756666
 30
0.0
  0
VERTEX
  5
2A9
  8
DEFAULT
 10
259.2134711915623
 20
-30.9786390955354
 30
0.0
  0
VERTEX
  5
2AA
  8
DEFAULT
 10
259.2212323003217
 20
-30.94851578880594
 30
0.0
  0
VERTEX
  5
2AB
  8
DEFAULT
 10
259.2283210351855
 20
-30.91815539697108
 30
0.0
  0
VERTEX
  5
2AC
  8
DEFAULT
 10
259.2347387239316
 20
-30.8875582354232
 30
0.0
  0
VERTEX
  5
2AD
  8
DEFAULT
 10
259.240487264299
 20
-30.85672469678771
 30
0.0
  0
VERTEX
  5
2AE
  8
DEFAULT
 10
259.2455691365362
 20
-30.82565525235654
 30
0.0
  0
VERTEX
  5
2AF
  8
DEFAULT
 10
259.249987415951
 20
-30.79435045352149
 30
0.0
  0
VERTEX
  5
2B0
  8
DEFAULT
 10
259.2537457854584
 20
-30.76281093320775
 30
0.0
  0
VERTEX
  5
2B1
  8
DEFAULT
 10
259.2568485481306
 20
-30.73103740730726
 30
0.0
  0
VERTEX
  5
2B2
  8
DEFAULT
 10
259.2593006397449
 20
-30.69903067611221
 30
0.0
  0
VERTEX
  5
2B3
  8
DEFAULT
 10
259.2611076413335
 20
-30.66679162574846
 30
0.0
  0
VERTEX
  5
2B4
  8
DEFAULT
 10
259.2622757917317
 20
-30.6343212296089
 30
0.0
  0
VERTEX
  5
2B5
  8
DEFAULT
 10
259.2628120001273
 20
-30.60162054978702
 30
0.0
  0
VERTEX
  5
2B6
  8
DEFAULT
 10
259.2627238586092
 20
-30.56869073851025
 30
0.0
  0
VERTEX
  5
2B7
  8
DEFAULT
 10
259.2620196547168
 20
-30.5355330395734
 30
0.0
  0
VERTEX
  5
2B8
  8
DEFAULT
 10
259.2607083839882
 20
-30.50214878977216
 30
0.0
  0
VERTEX
  5
2B9
  8
DEFAULT
 10
259.2587997625099
 20
-30.46853942033646
 30
0.0
  0
VERTEX
  5
2BA
  8
DEFAULT
 10
259.2532330096826
 20
-30.40065152825342
 30
0.0
  0
VERTEX
  5
2BB
  8
DEFAULT
 10
259.2454120127451
 20
-30.33188275631987
 30
0.0
  0
VERTEX
  5
2BC
  8
DEFAULT
 10
259.2354417201067
 20
-30.26224810021963
 30
0.0
  0
VERTEX
  5
2BD
  8
DEFAULT
 10
259.2234398136413
 20
-30.19176420419475
 30
0.0
  0
VERTEX
  5
2BE
  8
DEFAULT
 10
259.2095371102535
 20
-30.12044940691545
 30
0.0
  0
VERTEX
  5
2BF
  8
DEFAULT
 10
259.1938779634432
 20
-30.04832378735008
 30
0.0
  0
VERTEX
  5
2C0
  8
DEFAULT
 10
259.1579378459277
 20
-29.90172937394473
 30
0.0
  0
VERTEX
  5
2C1
  8
DEFAULT
 10
258.9829224771847
 20
-29.28822588378576
 30
0.0
  0
VERTEX
  5
2C2
  8
DEFAULT
 10
258.9417417800261
 20
-29.12945682558881
 30
0.0
  0
VERTEX
  5
2C3
  8
DEFAULT
 10
258.9192728763767
 20
-29.03151931507957
 30
0.0
  0
VERTEX
  5
2C4
  8
DEFAULT
 10
258.8990932577079
 20
-28.93297469241498
 30
0.0
  0
VERTEX
  5
2C5
  8
DEFAULT
 10
258.8812261662798
 20
-28.83390343362471
 30
0.0
  0
VERTEX
  5
2C6
  8
DEFAULT
 10
258.8656910599633
 20
-28.73438714940594
 30
0.0
  0
VERTEX
  5
2C7
  8
DEFAULT
 10
258.8525035457085
 20
-28.63450836188575
 30
0.0
  0
VERTEX
  5
2C8
  8
DEFAULT
 10
258.8416753288682
 20
-28.53435027688942
 30
0.0
  0
VERTEX
  5
2C9
  8
DEFAULT
 10
258.8332141787143
 20
-28.43399655303194
 30
0.0
  0
VERTEX
  5
2CA
  8
DEFAULT
 10
258.827123910359
 20
-28.33353106897709
 30
0.0
  0
VERTEX
  5
2CB
  8
DEFAULT
 10
258.8234043831662
 20
-28.23303769022257
 30
0.0
  0
VERTEX
  5
2CC
  8
DEFAULT
 10
258.8220515156094
 20
-28.13260003676942
 30
0.0
  0
VERTEX
  5
2CD
  8
DEFAULT
 10
258.8230573164065
 20
-28.03230125302131
 30
0.0
  0
VERTEX
  5
2CE
  8
DEFAULT
 10
258.8264099316361
 20
-27.93222378123212
 30
0.0
  0
VERTEX
  5
2CF
  8
DEFAULT
 10
258.8320937074182
 20
-27.83244913978131
 30
0.0
  0
VERTEX
  5
2D0
  8
DEFAULT
 10
258.8400892676312
 20
-27.73305770750432
 30
0.0
  0
VERTEX
  5
2D1
  8
DEFAULT
 10
258.8503736060242
 20
-27.63412851524325
 30
0.0
  0
VERTEX
  5
2D2
  8
DEFAULT
 10
258.8629201919852
 20
-27.5357390457083
 30
0.0
  0
VERTEX
  5
2D3
  8
DEFAULT
 10
258.8776990891358
 20
-27.4379650426589
 30
0.0
  0
VERTEX
  5
2D4
  8
DEFAULT
 10
258.8946770858411
 20
-27.34088033032161
 30
0.0
  0
VERTEX
  5
2D5
  8
DEFAULT
 10
258.9138178366512
 20
-27.244556643865
 30
0.0
  0
VERTEX
  5
2D6
  8
DEFAULT
 10
258.9350820136364
 20
-27.14906347164771
 30
0.0
  0
VERTEX
  5
2D7
  8
DEFAULT
 10
258.9584274665261
 20
-27.0544679098497
 30
0.0
  0
VERTEX
  5
2D8
  8
DEFAULT
 10
258.983809390529
 20
-26.96083452998587
 30
0.0
  0
VERTEX
  5
2D9
  8
DEFAULT
 10
259.011180500689
 20
-26.86822525969154
 30
0.0
  0
VERTEX
  5
2DA
  8
DEFAULT
 10
259.0404912116162
 20
-26.77669927705709
 30
0.0
  0
VERTEX
  5
2DB
  8
DEFAULT
 10
259.0716898214377
 20
-26.68631291868097
 30
0.0
  0
VERTEX
  5
2DC
  8
DEFAULT
 10
259.104722698817
 20
-26.59711960150274
 30
0.0
  0
VERTEX
  5
2DD
  8
DEFAULT
 10
259.1395344719181
 20
-26.50916975837567
 30
0.0
  0
VERTEX
  5
2DE
  8
DEFAULT
 10
259.1760682182161
 20
-26.42251078724005
 30
0.0
  0
VERTEX
  5
2DF
  8
DEFAULT
 10
259.2142656540984
 20
-26.33718701366628
 30
0.0
  0
VERTEX
  5
2E0
  8
DEFAULT
 10
259.2540673232462
 20
-26.25323966645103
 30
0.0
  0
VERTEX
  5
2E1
  8
DEFAULT
 10
259.2954127828405
 20
-26.17070686587149
 30
0.0
  0
VERTEX
  5
2E2
  8
DEFAULT
 10
259.3382407866988
 20
-26.08962362413116
 30
0.0
  0
VERTEX
  5
2E3
  8
DEFAULT
 10
259.3860713843926
 20
-26.00374915732715
 30
0.0
  0
VERTEX
  5
2E4
  8
DEFAULT
 10
259.4362267888217
 20
-25.91839833549662
 30
0.0
  0
VERTEX
  5
2E5
  8
DEFAULT
 10
259.4887116437789
 20
-25.83365798692179
 30
0.0
  0
VERTEX
  5
2E6
  8
DEFAULT
 10
259.5435265600742
 20
-25.74961626145897
 30
0.0
  0
VERTEX
  5
2E7
  8
DEFAULT
 10
259.6006679757949
 20
-25.66636241159915
 30
0.0
  0
VERTEX
  5
2E8
  8
DEFAULT
 10
259.6601280297891
 20
-25.5839865597031
 30
0.0
  0
VERTEX
  5
2E9
  8
DEFAULT
 10
259.7218944497929
 20
-25.50257945225276
 30
0.0
  0
VERTEX
  5
2EA
  8
DEFAULT
 10
259.7859504565658
 20
-25.42223220211484
 30
0.0
  0
VERTEX
  5
2EB
  8
DEFAULT
 10
259.8522746853335
 20
-25.34303601996539
 30
0.0
  0
VERTEX
  5
2EC
  8
DEFAULT
 10
259.9208411257464
 20
-25.26508193617167
 30
0.0
  0
VERTEX
  5
2ED
  8
DEFAULT
 10
259.9916190814596
 20
-25.18846051456974
 30
0.0
  0
VERTEX
  5
2EE
  8
DEFAULT
 10
260.0645731503154
 20
-25.11326155970791
 30
0.0
  0
VERTEX
  5
2EF
  8
DEFAULT
 10
260.1396632259689
 20
-25.03957381924776
 30
0.0
  0
VERTEX
  5
2F0
  8
DEFAULT
 10
260.2168445216443
 20
-24.96748468332139
 30
0.0
  0
VERTEX
  5
2F1
  8
DEFAULT
 10
260.2960676165359
 20
-24.89707988273524
 30
0.0
  0
VERTEX
  5
2F2
  8
DEFAULT
 10
260.377278525188
 20
-24.82844318798452
 30
0.0
  0
VERTEX
  5
2F3
  8
DEFAULT
 10
260.4604187899958
 20
-24.76165611109607
 30
0.0
  0
VERTEX
  5
2F4
  8
DEFAULT
 10
260.5454255967629
 20
-24.69679761235071
 30
0.0
  0
VERTEX
  5
2F5
  8
DEFAULT
 10
260.6322319130541
 20
-24.63394381394583
 30
0.0
  0
VERTEX
  5
2F6
  8
DEFAULT
 10
260.7207666488619
 20
-24.57316772264702
 30
0.0
  0
VERTEX
  5
2F7
  8
DEFAULT
 10
260.8109548389055
 20
-24.51453896343992
 30
0.0
  0
VERTEX
  5
2F8
  8
DEFAULT
 10
260.9027178456682
 20
-24.45812352613328
 30
0.0
  0
VERTEX
  5
2F9
  8
DEFAULT
 10
260.9959735820859
 20
-24.40398352678033
 30
0.0
  0
VERTEX
  5
2FA
  8
DEFAULT
 10
261.0906367526
 20
-24.35217698567748
 30
0.0
  0
VERTEX
  5
2FB
  8
DEFAULT
 10
261.1866191111215
 20
-24.30275762357166
 30
0.0
  0
VERTEX
  5
2FC
  8
DEFAULT
 10
261.2838297342765
 20
-24.25577467755793
 30
0.0
  0
VERTEX
  5
2FD
  8
DEFAULT
 10
261.3821753081686
 20
-24.21127273798193
 30
0.0
  0
VERTEX
  5
2FE
  8
DEFAULT
 10
261.4815604267577
 20
-24.16929160747867
 30
0.0
  0
VERTEX
  5
2FF
  8
DEFAULT
 10
261.5818878998576
 20
-24.12986618308247
 30
0.0
  0
VERTEX
  5
300
  8
DEFAULT
 10
261.6830590686641
 20
-24.09302636213553
 30
0.0
  0
VERTEX
  5
301
  8
DEFAULT
 10
261.7849741266755
 20
-24.0587969725079
 30
0.0
  0
VERTEX
  5
302
  8
DEFAULT
 10
261.8875324438277
 20
-24.02719772742233
 30
0.0
 42
0.3759255368311791
  0
SEQEND
  5
303
  8
DEFAULT
  0
POLYLINE
  5
304
  8
DEFAULT
 66
     1
 10
0.0
 20
0.0
 30
0.0
 70
     1
  0
VERTEX
  5
305
  8
DEFAULT
 10
280.9435577451852
 20
2.795107865848628
 30
0.0
 42
2.225960088880981
  0
VERTEX
  5
306
  8
DEFAULT
 10
280.9435577451851
 20
-0.0654515875028123
 30
0.0
  0
SEQEND
  5
307
  8
DEFAULT
  0
POLYLINE
  5
308
  8
DEFAULT
 66
     1
 10
0.0
 20
0.0
 30
0.0
 70
     1
  0
VERTEX
  5
309
  8
DEFAULT
 10
266.9935577451851
 20
2.759069628376473
 30
0.0
 42
2.317849781947114
  0
VERTEX
  5
30A
  8
DEFAULT
 10
266.9935577451851
 20
-0.0294133500303704
 30
0.0
  0
SEQEND
  5
30B
  8
DEFAULT
  0
CIRCLE
  5
30C
  8
DEFAULT
 10
280.5619474361702
 20
5.577682922790245
 30
0.0
 40
0.5
  0
CIRCLE
  5
30D
  8
DEFAULT
 10
278.5619474361702
 20
5.577682922790245
 30
0.0
 40
0.5
  0
CIRCLE
  5
30E
  8
DEFAULT
 10
276.5619474361702
 20
5.577682922790245
 30
0.0
 40
0.5
  0
CIRCLE
  5
30F
  8
DEFAULT
 10
264.5619474361702
 20
5.577682922790245
 30
0.0
 40
0.5
  0
CIRCLE
  5
310
  8
DEFAULT
 10
262.5619474361702
 20
5.577682922790245
 30
0.0
 40
0.5
  0
CIRCLE
  5
311
  8
DEFAULT
 10
279.6784984104057
 20
1.36482813917303
 30
0.0
 40
6.439509605819296
  0
CIRCLE
  5
312
  8
DEFAULT
 10
251.6784984104057
 20
1.36482813917303
 30
0.0
 40
6.439509605819296
  0
POLYLINE
  5
313
  8
DEFAULT
 66
     1
 10
0.0
 20
0.0
 30
0.0
 70
     1
  0
VERTEX
  5
314
  8
DEFAULT
 10
253.0435577451852
 20
-0.0278109379759997
 30
0.0
  0
VERTEX
  5
315
  8
DEFAULT
 10
253.0435577451852
 20
2.757467216321829
 30
0.0
 42
2.380476142847589
  0
SEQEND
  5
316
  8
DEFAULT
  0
CIRCLE
  5
317
  8
DEFAULT
 10
251.5619474361702
 20
5.577682922790245
 30
0.0
 40
0.5
  0
CIRCLE
  5
318
  8
DEFAULT
 10
265.6784984104057
 20
1.36482813917299
 30
0.0
 40
6.439509605819296
  0
CIRCLE
  5
319
  8
DEFAULT
 10
324.6825834836834
 20
47.17317130547497
 30
0.0
 40
1.500000000000002
  0
CIRCLE
  5
31A
  8
DEFAULT
 10
329.2789538018267
 20
36.07655174591576
 30
0.0
 40
1.5
  0
CIRCLE
  5
31B
  8
DEFAULT
 10
324.6825834838187
 20
24.9799321863004
 30
0.0
 40
1.500000000000007
  0
CIRCLE
  5
31C
  8
DEFAULT
 10
313.5859639242595
 20
20.38356186815707
 30
0.0
 40
1.5
  0
CIRCLE
  5
31D
  8
DEFAULT
 10
302.4893443646442
 20
24.97993218616509
 30
0.0
 40
1.500000000000007
  0
CIRCLE
  5
31E
  8
DEFAULT
 10
297.8929740465007
 20
36.07655174572432
 30
0.0
 40
1.5
  0
CIRCLE
  5
31F
  8
DEFAULT
 10
302.4893443645088
 20
47.17317130533974
 30
0.0
 40
1.500000000000002
  0
CIRCLE
  5
320
  8
DEFAULT
 10
313.585963924068
 20
51.76954162348301
 30
0.0
 40
1.5
  0
CIRCLE
  5
321
  8
DEFAULT
 10
273.7943549458673
 20
47.17317130547491
 30
0.0
 40
1.500000000000002
  0
CIRCLE
  5
322
  8
DEFAULT
 10
278.3907252640106
 20
36.07655174591571
 30
0.0
 40
1.5
  0
CIRCLE
  5
323
  8
DEFAULT
 10
273.7943549460026
 20
24.97993218630035
 30
0.0
 40
1.500000000000007
  0
CIRCLE
  5
324
  8
DEFAULT
 10
262.6977353864434
 20
20.38356186815705
 30
0.0
 40
1.5
  0
CIRCLE
  5
325
  8
DEFAULT
 10
251.601115826828
 20
24.97993218616503
 30
0.0
 40
1.500000000000007
  0
CIRCLE
  5
326
  8
DEFAULT
 10
247.0047455086847
 20
36.07655174572426
 30
0.0
 40
1.5
  0
CIRCLE
  5
327
  8
DEFAULT
 10
251.6011158266926
 20
47.17317130533968
 30
0.0
 40
1.500000000000002
  0
CIRCLE
  5
328
  8
DEFAULT
 10
262.6977353862519
 20
51.76954162348292
 30
0.0
 40
1.5
  0
POLYLINE
  5
329
  8
DEFAULT
 66
     1
 10
0.0
 20
0.0
 30
0.0
 70
     1
  0
VERTEX
  5
32A
  8
DEFAULT
 10
314.9510232589433
 20
34.68391266867098
 30
0.0
  0
VERTEX
  5
32B
  8
DEFAULT
 10
314.9510232589433
 20
37.46919082296881
 30
0.0
 42
2.380476142847407
  0
SEQEND
  5
32C
  8
DEFAULT
  0
POLYLINE
  5
32D
  8
DEFAULT
 66
     1
 10
0.0
 20
0.0
 30
0.0
 70
     1
  0
VERTEX
  5
32E
  8
DEFAULT
 10
264.0627947211271
 20
34.68391266867093
 30
0.0
  0
VERTEX
  5
32F
  8
DEFAULT
 10
264.0627947211271
 20
37.46919082296876
 30
0.0
 42
2.380476142847608
  0
SEQEND
  5
330
  8
DEFAULT
  0
CIRCLE
  5
331
  8
DEFAULT
 10
-262.6977353863476
 20
36.07655174581998
 30
0.0
 40
21.69298987766291
210
0.0
220
0.0
230
-1.0
  0
ENDSEC
  0
EOF
