  0
SECTION
  2
HEADER
  9
$ACADVER
  1
AC1009
  9
$DWGCODEPAGE
  3
ansi_1252
  9
$INSBASE
 10
0.0
 20
0.0
 30
0.0
  9
$EXTMIN
 10
74.30501668442565
 20
0.2363920843010305
 30
0.0
  9
$EXTMAX
 10
124.3050166844257
 20
75.23639208430102
 30
0.0
  9
$LIMMIN
 10
0.0
 20
0.0
  9
$LIMMAX
 10
12.0
 20
9.0
  9
$ORTHOMODE
 70
     0
  9
$REGENMODE
 70
     1
  9
$FILLMODE
 70
     1
  9
$QTEXTMODE
 70
     0
  9
$MIRRTEXT
 70
     1
  9
$DRAGMODE
 70
     2
  9
$LTSCALE
 40
1.0
  9
$OSMODE
 70
    37
  9
$ATTMODE
 70
     1
  9
$TEXTSIZE
 40
0.2
  9
$TRACEWID
 40
0.05
  9
$TEXTSTYLE
  7
STANDARD
  9
$CLAYER
  8
DEFAULT
  9
$CELTYPE
  6
BYLAYER
  9
$CECOLOR
 62
   256
  9
$DIMSCALE
 40
1.0
  9
$DIMASZ
 40
0.18
  9
$DIMEXO
 40
0.0625
  9
$DIMDLI
 40
0.38
  9
$DIMRND
 40
0.0
  9
$DIMDLE
 40
0.0
  9
$DIMEXE
 40
0.18
  9
$DIMTP
 40
0.0
  9
$DIMTM
 40
0.0
  9
$DIMTXT
 40
0.18
  9
$DIMCEN
 40
0.09
  9
$DIMTSZ
 40
0.0
  9
$DIMTOL
 70
     0
  9
$DIMLIM
 70
     0
  9
$DIMTIH
 70
     1
  9
$DIMTOH
 70
     1
  9
$DIMSE1
 70
     0
  9
$DIMSE2
 70
     0
  9
$DIMTAD
 70
     0
  9
$DIMZIN
 70
     0
  9
$DIMBLK
  1

  9
$DIMASO
 70
     1
  9
$DIMSHO
 70
     1
  9
$DIMPOST
  1

  9
$DIMAPOST
  1

  9
$DIMALT
 70
     0
  9
$DIMALTD
 70
     2
  9
$DIMALTF
 40
25.4
  9
$DIMLFAC
 40
1.0
  9
$DIMTOFL
 70
     0
  9
$DIMTVP
 40
0.0
  9
$DIMTIX
 70
     0
  9
$DIMSOXD
 70
     0
  9
$DIMSAH
 70
     0
  9
$DIMBLK1
  1

  9
$DIMBLK2
  1

  9
$DIMSTYLE
  2
STANDARD_ACAD
  9
$DIMCLRD
 70
     0
  9
$DIMCLRE
 70
     0
  9
$DIMCLRT
 70
     0
  9
$DIMTFAC
 40
1.0
  9
$DIMGAP
 40
0.09
  9
$LUNITS
 70
     2
  9
$LUPREC
 70
     3
  9
$SKETCHINC
 40
0.1
  9
$FILLETRAD
 40
0.0
  9
$AUNITS
 70
     0
  9
$AUPREC
 70
     0
  9
$MENU
  1
.
  9
$ELEVATION
 40
0.0
  9
$PELEVATION
 40
0.0
  9
$THICKNESS
 40
0.0
  9
$LIMCHECK
 70
     0
  9
$CHAMFERA
 40
0.0
  9
$CHAMFERB
 40
0.0
  9
$SKPOLY
 70
     0
  9
$TDCREATE
 40
2460397.822926215
  9
$TDUPDATE
 40
2460397.822937604
  9
$TDINDWG
 40
0.0000000116
  9
$TDUSRTIMER
 40
0.0000000116
  9
$USRTIMER
 70
     1
  9
$ANGBASE
 50
0.0
  9
$ANGDIR
 70
     0
  9
$PDMODE
 70
     0
  9
$PDSIZE
 40
0.0
  9
$PLINEWID
 40
0.0
  9
$COORDS
 70
     1
  9
$SPLFRAME
 70
     0
  9
$SPLINETYPE
 70
     6
  9
$SPLINESEGS
 70
     8
  9
$ATTDIA
 70
     0
  9
$ATTREQ
 70
     1
  9
$HANDLING
 70
     1
  9
$HANDSEED
  5
18F
  9
$SURFTAB1
 70
     6
  9
$SURFTAB2
 70
     6
  9
$SURFTYPE
 70
     6
  9
$SURFU
 70
     6
  9
$SURFV
 70
     6
  9
$UCSNAME
  2

  9
$UCSORG
 10
0.0
 20
0.0
 30
0.0
  9
$UCSXDIR
 10
1.0
 20
0.0
 30
0.0
  9
$UCSYDIR
 10
0.0
 20
1.0
 30
0.0
  9
$PUCSNAME
  2

  9
$PUCSORG
 10
0.0
 20
0.0
 30
0.0
  9
$PUCSXDIR
 10
1.0
 20
0.0
 30
0.0
  9
$PUCSYDIR
 10
0.0
 20
1.0
 30
0.0
  9
$USERI1
 70
     0
  9
$USERI2
 70
     0
  9
$USERI3
 70
     0
  9
$USERI4
 70
     0
  9
$USERI5
 70
     0
  9
$USERR1
 40
0.0
  9
$USERR2
 40
0.0
  9
$USERR3
 40
0.0
  9
$USERR4
 40
0.0
  9
$USERR5
 40
0.0
  9
$WORLDVIEW
 70
     1
  9
$SHADEDGE
 70
     3
  9
$SHADEDIF
 70
    70
  9
$TILEMODE
 70
     1
  9
$MAXACTVP
 70
    64
  9
$PLIMCHECK
 70
     0
  9
$PEXTMIN
 10
1.000000000000000E+20
 20
1.000000000000000E+20
 30
1.000000000000000E+20
  9
$PEXTMAX
 10
-1.000000000000000E+20
 20
-1.000000000000000E+20
 30
-1.000000000000000E+20
  9
$PLIMMIN
 10
0.0
 20
0.0
  9
$PLIMMAX
 10
12.0
 20
9.0
  9
$UNITMODE
 70
     0
  9
$VISRETAIN
 70
     1
  9
$PLINEGEN
 70
     0
  9
$PSLTSCALE
 70
     1
  0
ENDSEC
  0
SECTION
  2
TABLES
  0
TABLE
  2
VPORT
 70
     1
  0
VPORT
  2
*ACTIVE
 70
     0
 10
0.0
 20
0.0
 11
1.0
 21
1.0
 12
10.42990654205607
 22
4.5
 13
0.0
 23
0.0
 14
0.5
 24
0.5
 15
0.5
 25
0.5
 16
0.0
 26
0.0
 36
1.0
 17
0.0
 27
0.0
 37
0.0
 40
9.0
 41
1.972972972850329
 42
50.0
 43
0.0
 44
0.0
 50
0.0
 51
0.0
 71
     0
 72
   100
 73
     1
 74
     3
 75
     0
 76
     0
 77
     0
 78
     0
  0
ENDTAB
  0
TABLE
  2
LTYPE
 70
     1
  0
LTYPE
  2
CONTINUOUS
 70
     0
  3
Solid line
 72
    65
 73
     0
 40
0.0
  0
ENDTAB
  0
TABLE
  2
LAYER
 70
     2
  0
LAYER
  2
0
 70
     0
 62
     7
  6
CONTINUOUS
  0
LAYER
  2
DEFAULT
 70
     0
 62
     7
  6
CONTINUOUS
  0
ENDTAB
  0
TABLE
  2
STYLE
 70
     1
  0
STYLE
  2
STANDARD
 70
     0
 40
0.0
 41
1.0
 50
0.0
 71
     0
 42
0.2
  3
txt
  4

  0
ENDTAB
  0
TABLE
  2
VIEW
 70
     0
  0
ENDTAB
  0
TABLE
  2
UCS
 70
     0
  0
ENDTAB
  0
TABLE
  2
APPID
 70
     2
  0
APPID
  2
ACAD
 70
     0
  0
APPID
  2
RHINO
 70
     0
  0
ENDTAB
  0
TABLE
  2
DIMSTYLE
 70
     1
  0
DIMSTYLE
  2
STANDARD_ACAD
 70
     0
  3

  4

  5

  6

  7

 40
1.0
 41
0.18
 42
0.0625
 43
0.38
 44
0.18
 45
0.0
 46
0.0
 47
0.0
 48
0.0
140
0.18
141
0.09
142
0.0
143
25.4
144
1.0
145
0.0
146
1.0
147
0.09
 71
     0
 72
     0
 73
     1
 74
     1
 75
     0
 76
     0
 77
     0
 78
     0
170
     0
171
     2
172
     0
173
     0
174
     0
175
     0
176
     0
177
     0
178
     0
  0
ENDTAB
  0
ENDSEC
  0
SECTION
  2
BLOCKS
  0
BLOCK
  8
0
  2
$MODEL_SPACE
 70
     0
 10
0.0
 20
0.0
 30
0.0
  3
$MODEL_SPACE
  1

  0
ENDBLK
  5
21
  8
0
  0
BLOCK
 67
     1
  8
0
  2
$PAPER_SPACE
 70
     0
 10
0.0
 20
0.0
 30
0.0
  3
$PAPER_SPACE
  1

  0
ENDBLK
  5
1D
 67
     1
  8
0
  0
ENDSEC
  0
SECTION
  2
ENTITIES
  0
ARC
  5
60
  8
DEFAULT
 10
-90.09002108862657
 20
72.89545480591043
 30
0.0
 40
0.7972655731984022
 50
261.2773480212339
 51
0.193389366716937
210
0.0
220
0.0
230
-1.0
  0
ARC
  5
61
  8
DEFAULT
 10
-90.0927600568571
 20
72.8981457962916
 30
0.0
 40
0.8000000000000114
 50
0.0
 51
214.3365626483657
210
0.0
220
0.0
230
-1.0
  0
LINE
  5
62
  8
DEFAULT
 10
90.75335087173355
 20
72.44690331679654
 30
0.0
 11
91.12718304919274
 21
72.01966654255736
 31
0.0
  0
LINE
  5
63
  8
DEFAULT
 10
91.12718304919274
 20
72.01966654255736
 30
0.0
 11
97.15085861712194
 21
66.12415428458416
 31
0.0
  0
LINE
  5
64
  8
DEFAULT
 10
97.15085861712194
 20
66.12415428458416
 30
0.0
 11
97.10005724163159
 21
15.75459048578996
 31
0.0
  0
LINE
  5
65
  8
DEFAULT
 10
97.10005724163159
 20
15.75459048578996
 30
0.0
 11
98.57647663562454
 21
14.2781710917969
 31
0.0
  0
ARC
  5
66
  8
DEFAULT
 10
100.3439857718963
 20
16.87527383595045
 30
0.0
 40
3.141501426148643
 50
235.7619878549751
 51
259.2380121450233
  0
LINE
  5
67
  8
DEFAULT
 10
99.75737450613393
 20
13.78902717805438
 30
0.0
 11
104.6615425299562
 21
13.78902717805438
 31
0.0
  0
LINE
  5
68
  8
DEFAULT
 10
104.6615425299562
 20
13.78902717805438
 30
0.0
 11
107.0285624378998
 21
16.27434794270192
 31
0.0
  0
LINE
  5
69
  8
DEFAULT
 10
107.0285624378998
 20
16.27434794270192
 30
0.0
 11
107.0285624378998
 21
19.33247615701091
 31
0.0
  0
LINE
  5
6A
  8
DEFAULT
 10
107.0285624378998
 20
19.33247615701091
 30
0.0
 11
104.0066100329627
 21
21.65386680528176
 31
0.0
  0
ARC
  5
6B
  8
DEFAULT
 10
103.7020175288584
 20
21.25735273687633
 30
0.0
 40
0.5
 50
52.46940294598125
 51
109.8354768291287
  0
ARC
  5
6C
  8
DEFAULT
 10
-103.2610764341474
 20
22.47999022814238
 30
0.0
 40
0.7997197731126303
 50
250.1706455731912
 51
185.0213471674119
210
0.0
220
0.0
230
-1.0
  0
ARC
  5
6D
  8
DEFAULT
 10
104.5558609711967
 20
22.36683591247765
 30
0.0
 40
0.5
 50
175.048373338779
 51
232.4694029459808
  0
LINE
  5
6E
  8
DEFAULT
 10
104.2512684670923
 20
21.97032184407222
 30
0.0
 11
107.4285624378998
 21
19.5296015671447
 31
0.0
  0
LINE
  5
6F
  8
DEFAULT
 10
107.4285624378998
 20
19.5296015671447
 30
0.0
 11
107.4285624378998
 21
16.11434560532608
 31
0.0
  0
LINE
  5
70
  8
DEFAULT
 10
107.4285624378998
 20
16.11434560532608
 30
0.0
 11
104.8329687163173
 21
13.38902717805438
 31
0.0
  0
LINE
  5
71
  8
DEFAULT
 10
104.8329687163173
 20
13.38902717805438
 30
0.0
 11
99.75737450613393
 21
13.38902717805438
 31
0.0
  0
ARC
  5
72
  8
DEFAULT
 10
99.89421080892721
 20
11.38863333577414
 30
0.0
 40
2.005068502070399
 50
93.91320356695329
 51
131.0867964330504
  0
LINE
  5
73
  8
DEFAULT
 10
98.57647663562457
 20
12.89988326431186
 30
0.0
 11
98.03977555088794
 21
12.36318217957515
 31
0.0
  0
LINE
  5
74
  8
DEFAULT
 10
98.03977555088794
 20
12.36318217957515
 30
0.0
 11
98.03977555088795
 21
7.829858206505586
 31
0.0
  0
LINE
  5
75
  8
DEFAULT
 10
98.03977555088795
 20
7.829858206505586
 30
0.0
 11
99.70062181936977
 21
6.169011938023868
 31
0.0
  0
LINE
  5
76
  8
DEFAULT
 10
99.70062181936977
 20
6.169011938023868
 30
0.0
 11
112.781647981422
 21
6.169011938023869
 31
0.0
  0
LINE
  5
77
  8
DEFAULT
 10
112.781647981422
 20
6.169011938023869
 30
0.0
 11
113.3362855341787
 21
5.614374385267156
 31
0.0
  0
ARC
  5
78
  8
DEFAULT
 10
113.689838924772
 20
5.967927775860459
 30
0.0
 40
0.5
 50
225.0000000000044
 51
282.4991352853919
  0
ARC
  5
79
  8
DEFAULT
 10
-113.9684458962744
 20
4.698351841487536
 30
0.0
 40
0.7997883188876783
 50
77.69887691228166
 51
12.4726102185317
210
0.0
220
0.0
230
-1.0
  0
ARC
  5
7A
  8
DEFAULT
 10
112.6992363928805
 20
4.978631320429667
 30
0.0
 40
0.5
 50
347.5789703928112
 51
45.00000000000389
  0
LINE
  5
7B
  8
DEFAULT
 10
113.0527897834737
 20
5.332184711022962
 30
0.0
 11
112.6159625564728
 21
5.769011938023868
 31
0.0
  0
LINE
  5
7C
  8
DEFAULT
 10
112.6159625564728
 20
5.769011938023868
 30
0.0
 11
99.53493639442053
 21
5.769011938023868
 31
0.0
  0
LINE
  5
7D
  8
DEFAULT
 10
99.53493639442053
 20
5.769011938023868
 30
0.0
 11
97.63977555088793
 21
7.664172781556339
 31
0.0
  0
LINE
  5
7E
  8
DEFAULT
 10
97.63977555088793
 20
7.664172781556339
 30
0.0
 11
97.63977555088793
 21
12.52886760452438
 31
0.0
  0
LINE
  5
7F
  8
DEFAULT
 10
97.63977555088793
 20
12.52886760452438
 30
0.0
 11
98.29363392314995
 21
13.18272597678643
 31
0.0
  0
ARC
  5
80
  8
DEFAULT
 10
97.70297680397822
 20
13.58902717805436
 30
0.0
 40
0.7169075941709773
 50
325.4766963726902
 51
34.52330362731161
  0
LINE
  5
81
  8
DEFAULT
 10
98.29363392314994
 20
13.99532837932231
 30
0.0
 11
96.6998901009369
 21
15.58907220153542
 31
0.0
  0
LINE
  5
82
  8
DEFAULT
 10
96.6998901009369
 20
15.58907220153542
 30
0.0
 11
96.75068892864672
 21
65.95610987594432
 31
0.0
  0
LINE
  5
83
  8
DEFAULT
 10
96.75068892864672
 20
65.95610987594432
 30
0.0
 11
90.83634062052815
 21
71.74462098601776
 31
0.0
  0
LINE
  5
84
  8
DEFAULT
 10
90.83634062052815
 20
71.74462098601776
 30
0.0
 11
90.66322004520697
 21
71.94247307209915
 31
0.0
  0
ARC
  5
85
  8
DEFAULT
 10
90.28693169785346
 20
71.61322076816496
 30
0.0
 40
0.5
 50
41.18592516569785
 51
98.74331113855351
  0
LINE
  5
86
  8
DEFAULT
 10
98.20967490512155
 20
4.498257629633112
 30
0.0
 11
95.09977047087781
 21
7.535789943165214
 31
0.0
  0
LINE
  5
87
  8
DEFAULT
 10
95.09977047087781
 20
7.535789943165214
 30
0.0
 11
95.09977047087781
 21
65.06828758978602
 31
0.0
  0
LINE
  5
88
  8
DEFAULT
 10
95.09977047087781
 20
65.06828758978602
 30
0.0
 11
90.72593536986128
 21
69.44212269080268
 31
0.0
  0
ARC
  5
89
  8
DEFAULT
 10
90.37238197926801
 20
69.0885693002094
 30
0.0
 40
0.5
 50
45.00000000000115
 51
102.4210296071948
  0
ARC
  5
8A
  8
DEFAULT
 10
-90.09276005685703
 20
70.35814071628143
 30
0.0
 40
0.7999999999999852
 50
257.5789703927973
 51
192.4210296071985
210
0.0
220
0.0
230
-1.0
  0
ARC
  5
8B
  8
DEFAULT
 10
91.36233147292913
 20
70.07851879387051
 30
0.0
 40
0.5
 50
167.5789703928084
 51
225.0000000000069
  0
LINE
  5
8C
  8
DEFAULT
 10
91.0087780823359
 20
69.7249654032772
 30
0.0
 11
95.49977047087782
 21
65.23397301473526
 31
0.0
  0
LINE
  5
8D
  8
DEFAULT
 10
95.49977047087782
 20
65.23397301473526
 30
0.0
 11
95.4997704708778
 21
7.704240536895824
 31
0.0
  0
LINE
  5
8E
  8
DEFAULT
 10
95.4997704708778
 20
7.704240536895824
 30
0.0
 11
98.37260861216534
 21
4.898257629633095
 31
0.0
  0
ARC
  5
8F
  8
DEFAULT
 10
-90.09276005685712
 20
67.81813563627131
 30
0.0
 40
0.8000000000000252
 50
347.5789703928032
 51
282.4210296072032
210
0.0
220
0.0
230
-1.0
  0
ARC
  5
90
  8
DEFAULT
 10
89.81313813444613
 20
66.54856422019928
 30
0.0
 40
0.5
 50
77.57897039280522
 51
134.9999999999989
  0
LINE
  5
91
  8
DEFAULT
 10
89.45958474385287
 20
66.90211761079256
 30
0.0
 11
80.5137404988179
 21
57.95627336575753
 31
0.0
  0
LINE
  5
92
  8
DEFAULT
 10
80.5137404988179
 20
57.95627336575753
 30
0.0
 11
80.51374049881791
 21
25.22889300457527
 31
0.0
  0
LINE
  5
93
  8
DEFAULT
 10
80.51374049881791
 20
25.22889300457527
 30
0.0
 11
87.4275806798446
 21
18.31505282354834
 31
0.0
  0
ARC
  5
94
  8
DEFAULT
 10
87.78113407043783
 20
18.66860621414164
 30
0.0
 40
0.5
 50
225.0000000000043
 51
282.4210296071933
  0
ARC
  5
95
  8
DEFAULT
 10
-88.06075599284874
 20
17.39903479806957
 30
0.0
 40
0.8000000000000042
 50
77.57897039280178
 51
0.0000000000005089
210
0.0
220
0.0
230
-1.0
  0
ARC
  5
96
  8
DEFAULT
 10
-88.06075599285063
 20
17.39903479806948
 30
0.0
 40
0.800000000001873
 50
0.0000000000073789
 51
12.42102960717786
210
0.0
220
0.0
230
-1.0
  0
ARC
  5
97
  8
DEFAULT
 10
86.79118457677669
 20
17.67865672048053
 30
0.0
 40
0.5
 50
347.5789703928045
 51
44.99999999999942
  0
LINE
  5
98
  8
DEFAULT
 10
87.14473796736996
 20
18.0322101110738
 30
0.0
 11
80.1137404988179
 21
25.06320757962604
 31
0.0
  0
LINE
  5
99
  8
DEFAULT
 10
80.1137404988179
 20
25.06320757962604
 30
0.0
 11
80.1137404988179
 21
58.12195879070678
 31
0.0
  0
LINE
  5
9A
  8
DEFAULT
 10
80.1137404988179
 20
58.12195879070678
 30
0.0
 11
89.17674203137832
 21
67.18496032326722
 31
0.0
  0
ARC
  5
9B
  8
DEFAULT
 10
88.82318864078502
 20
67.53851371386045
 30
0.0
 40
0.5
 50
315.0000000000057
 51
12.42102960718843
  0
LINE
  5
9C
  8
DEFAULT
 10
91.0087780823359
 20
64.64495524325686
 30
0.0
 11
94.10276767687218
 21
61.55096564872052
 31
0.0
  0
LINE
  5
9D
  8
DEFAULT
 10
94.10276767687218
 20
61.55096564872052
 30
0.0
 11
94.10276767687218
 21
6.013169479549816
 31
0.0
  0
LINE
  5
9E
  8
DEFAULT
 10
94.10276767687218
 20
6.013169479549816
 30
0.0
 11
90.1756027693317
 21
2.08600457200912
 31
0.0
  0
LINE
  5
9F
  8
DEFAULT
 10
90.1756027693317
 20
2.08600457200912
 30
0.0
 11
86.45391023236806
 21
2.08600457200912
 31
0.0
  0
LINE
  5
A0
  8
DEFAULT
 10
86.45391023236806
 20
2.08600457200912
 30
0.0
 11
84.17774862683413
 21
4.362166177543173
 31
0.0
  0
LINE
  5
A1
  8
DEFAULT
 10
84.17774862683413
 20
4.362166177543173
 30
0.0
 11
84.17774862683413
 21
8.718859984509184
 31
0.0
  0
LINE
  5
A2
  8
DEFAULT
 10
84.17774862683413
 20
8.718859984509184
 30
0.0
 11
87.14473796736998
 21
11.68584932504514
 31
0.0
  0
ARC
  5
A3
  8
DEFAULT
 10
86.79118457677669
 20
12.03940271563839
 30
0.0
 40
0.5
 50
315.0000000000033
 51
12.42102960719475
  0
ARC
  5
A4
  8
DEFAULT
 10
-88.060755992848
 20
12.31902463804915
 30
0.0
 40
0.7999999999992299
 50
347.5789703928015
 51
0.0000000000117044
210
0.0
220
0.0
230
-1.0
  0
ARC
  5
A5
  8
DEFAULT
 10
-88.06075599284873
 20
12.31902463804933
 30
0.0
 40
0.7999999999999687
 50
359.999999999999
 51
282.4210296071925
210
0.0
220
0.0
230
-1.0
  0
ARC
  5
A6
  8
DEFAULT
 10
87.78113407043782
 20
11.04945322197725
 30
0.0
 40
0.5
 50
77.57897039280004
 51
134.9999999999958
  0
LINE
  5
A7
  8
DEFAULT
 10
87.42758067984457
 20
11.40300661257055
 30
0.0
 11
84.57774862683411
 21
8.553174559559947
 31
0.0
  0
LINE
  5
A8
  8
DEFAULT
 10
84.57774862683411
 20
8.553174559559947
 30
0.0
 11
84.57774862683411
 21
4.527851602492404
 31
0.0
  0
LINE
  5
A9
  8
DEFAULT
 10
84.57774862683411
 20
4.527851602492404
 30
0.0
 11
86.61959565731729
 21
2.486004572009119
 31
0.0
  0
LINE
  5
AA
  8
DEFAULT
 10
86.61959565731729
 20
2.486004572009119
 30
0.0
 11
90.00991734438246
 21
2.486004572009119
 31
0.0
  0
LINE
  5
AB
  8
DEFAULT
 10
90.00991734438246
 20
2.486004572009119
 30
0.0
 11
93.70276767687216
 21
6.178854904499042
 31
0.0
  0
LINE
  5
AC
  8
DEFAULT
 10
93.70276767687216
 20
6.178854904499042
 30
0.0
 11
93.70276767687216
 21
61.38528022377125
 31
0.0
  0
LINE
  5
AD
  8
DEFAULT
 10
93.70276767687216
 20
61.38528022377125
 30
0.0
 11
90.72593536986128
 21
64.36211253078227
 31
0.0
  0
ARC
  5
AE
  8
DEFAULT
 10
90.37238197926798
 20
64.008559140189
 30
0.0
 40
0.5
 50
44.9999999999977
 51
102.4210296071916
  0
ARC
  5
AF
  8
DEFAULT
 10
-90.09276005685712
 20
65.2781305562611
 30
0.0
 40
0.8000000000000252
 50
257.5789703928032
 51
192.421029607201
210
0.0
220
0.0
230
-1.0
  0
ARC
  5
B0
  8
DEFAULT
 10
91.36233147292916
 20
64.99850863385015
 30
0.0
 40
0.5
 50
167.5789703928068
 51
225.0000000000023
  0
ARC
  5
B1
  8
DEFAULT
 10
-90.09276005685713
 20
62.73812547625092
 30
0.0
 40
0.8000000000000208
 50
347.5789703928046
 51
282.4210296071979
210
0.0
220
0.0
230
-1.0
  0
ARC
  5
B2
  8
DEFAULT
 10
89.81313813444615
 20
61.4685540601789
 30
0.0
 40
0.5
 50
77.57897039279833
 51
134.9999999999977
  0
LINE
  5
B3
  8
DEFAULT
 10
89.45958474385287
 20
61.82210745077219
 30
0.0
 11
82.67274481682644
 21
55.03526752374592
 31
0.0
  0
LINE
  5
B4
  8
DEFAULT
 10
82.67274481682644
 20
55.03526752374592
 30
0.0
 11
82.67274481682647
 21
25.60989376657673
 31
0.0
  0
LINE
  5
B5
  8
DEFAULT
 10
82.67274481682647
 20
25.60989376657673
 30
0.0
 11
87.42758067984455
 21
20.85505790355863
 31
0.0
  0
ARC
  5
B6
  8
DEFAULT
 10
87.78113407043783
 20
21.2086112941519
 30
0.0
 40
0.5
 50
224.9999999999997
 51
282.4210296071967
  0
ARC
  5
B7
  8
DEFAULT
 10
-88.06075599284877
 20
19.93903987807984
 30
0.0
 40
0.800000000000001
 50
77.57897039280277
 51
359.9999999999987
210
0.0
220
0.0
230
-1.0
  0
ARC
  5
B8
  8
DEFAULT
 10
-88.06075599285221
 20
19.93903987807951
 30
0.0
 40
0.8000000000034504
 50
0.0000000000229
 51
12.42102960717018
210
0.0
220
0.0
230
-1.0
  0
ARC
  5
B9
  8
DEFAULT
 10
86.79118457677669
 20
20.21866180049076
 30
0.0
 40
0.5
 50
347.5789703928088
 51
44.99999999999885
  0
LINE
  5
BA
  8
DEFAULT
 10
87.14473796736998
 20
20.57221519108402
 30
0.0
 11
82.27274481682649
 21
25.4442083416275
 31
0.0
  0
LINE
  5
BB
  8
DEFAULT
 10
82.27274481682649
 20
25.4442083416275
 30
0.0
 11
82.27274481682649
 21
55.20095294869519
 31
0.0
  0
LINE
  5
BC
  8
DEFAULT
 10
82.27274481682649
 20
55.20095294869519
 30
0.0
 11
89.17674203137831
 21
62.10495016324676
 31
0.0
  0
ARC
  5
BD
  8
DEFAULT
 10
88.82318864078503
 20
62.45850355384003
 30
0.0
 40
0.5
 50
314.9999999999983
 51
12.42102960719479
  0
LINE
  5
BE
  8
DEFAULT
 10
91.00877808233591
 20
59.56494508323662
 30
0.0
 11
92.83276513686724
 21
57.74095802870532
 31
0.0
  0
LINE
  5
BF
  8
DEFAULT
 10
92.83276513686724
 20
57.74095802870532
 30
0.0
 11
92.83276513686724
 21
9.315176083562987
 31
0.0
  0
LINE
  5
C0
  8
DEFAULT
 10
92.83276513686724
 20
9.315176083562987
 30
0.0
 11
89.28660099132811
 21
5.769011938023869
 31
0.0
  0
LINE
  5
C1
  8
DEFAULT
 10
89.28660099132811
 20
5.769011938023869
 30
0.0
 11
87.21591175637123
 21
5.769011938023869
 31
0.0
  0
LINE
  5
C2
  8
DEFAULT
 10
87.21591175637123
 20
5.769011938023869
 30
0.0
 11
86.08275243684177
 21
6.902171257553303
 31
0.0
  0
LINE
  5
C3
  8
DEFAULT
 10
86.08275243684177
 20
6.902171257553303
 30
0.0
 11
86.08275243684177
 21
8.083858714506587
 31
0.0
  0
LINE
  5
C4
  8
DEFAULT
 10
86.08275243684177
 20
8.083858714506587
 30
0.0
 11
87.14473796736999
 21
9.1458442450349
 31
0.0
  0
ARC
  5
C5
  8
DEFAULT
 10
86.7911845767767
 20
9.499397635628165
 30
0.0
 40
0.5
 50
315.0000000000007
 51
12.42102960719619
  0
ARC
  5
C6
  8
DEFAULT
 10
-88.0607559928491
 20
9.779019558039188
 30
0.0
 40
0.8000000000003382
 50
347.5789703928008
 51
359.9999999999995
210
0.0
220
0.0
230
-1.0
  0
ARC
  5
C7
  8
DEFAULT
 10
-88.06075599284873
 20
9.779019558039185
 30
0.0
 40
0.7999999999999687
 50
359.9999999999998
 51
282.4210296071946
210
0.0
220
0.0
230
-1.0
  0
ARC
  5
C8
  8
DEFAULT
 10
87.78113407043789
 20
8.509448141967098
 30
0.0
 40
0.5
 50
77.5789703928084
 51
134.9999999999982
  0
LINE
  5
C9
  8
DEFAULT
 10
87.42758067984462
 20
8.863001532560384
 30
0.0
 11
86.48275243684178
 21
7.918173289557363
 31
0.0
  0
LINE
  5
CA
  8
DEFAULT
 10
86.48275243684178
 20
7.918173289557363
 30
0.0
 11
86.48275243684178
 21
7.067856682502541
 31
0.0
  0
LINE
  5
CB
  8
DEFAULT
 10
86.48275243684178
 20
7.067856682502541
 30
0.0
 11
87.38159718132043
 21
6.169011938023869
 31
0.0
  0
LINE
  5
CC
  8
DEFAULT
 10
87.38159718132043
 20
6.169011938023869
 30
0.0
 11
89.12091556637887
 21
6.169011938023869
 31
0.0
  0
LINE
  5
CD
  8
DEFAULT
 10
89.12091556637887
 20
6.169011938023869
 30
0.0
 11
92.43276513686722
 21
9.480861508512216
 31
0.0
  0
LINE
  5
CE
  8
DEFAULT
 10
92.43276513686722
 20
9.480861508512216
 30
0.0
 11
92.43276513686722
 21
57.5752726037561
 31
0.0
  0
LINE
  5
CF
  8
DEFAULT
 10
92.43276513686722
 20
57.5752726037561
 30
0.0
 11
90.72593536986129
 21
59.28210237076203
 31
0.0
  0
ARC
  5
D0
  8
DEFAULT
 10
90.372381979268
 20
58.92854898016876
 30
0.0
 40
0.5
 50
44.9999999999977
 51
102.4210296071883
  0
ARC
  5
D1
  8
DEFAULT
 10
-90.0927600568571
 20
60.19812039624084
 30
0.0
 40
0.8000000000000137
 50
257.5789703927998
 51
192.4210296071954
210
0.0
220
0.0
230
-1.0
  0
ARC
  5
D2
  8
DEFAULT
 10
91.36233147292916
 20
59.91849847382991
 30
0.0
 40
0.5
 50
167.5789703928001
 51
225.0000000000017
  0
LINE
  5
D3
  8
DEFAULT
 10
89.49572672312455
 20
56.71814127488043
 30
0.0
 11
85.59375065883818
 21
52.49978877294922
 31
0.0
  0
LINE
  5
D4
  8
DEFAULT
 10
85.59375065883818
 20
52.49978877294922
 30
0.0
 11
85.59375065883818
 21
25.85173299004729
 31
0.0
  0
LINE
  5
D5
  8
DEFAULT
 10
85.59375065883818
 20
25.85173299004729
 30
0.0
 11
87.52803541435061
 21
23.45690424512703
 31
0.0
  0
ARC
  5
D6
  8
DEFAULT
 10
87.91700600445247
 20
23.77107279867084
 30
0.0
 40
0.5
 50
218.9275435927923
 51
276.3485731999892
  0
ARC
  5
D7
  8
DEFAULT
 10
-88.06075599284875
 20
22.47904495808995
 30
0.0
 40
0.8000000000000231
 50
83.65142680001077
 51
0.0000000000010178
210
0.0
220
0.0
230
-1.0
  0
ARC
  5
D8
  8
DEFAULT
 10
-88.06075599284905
 20
22.47904495808994
 30
0.0
 40
0.8000000000002956
 50
0.0000000000010178
 51
18.49348601440017
210
0.0
220
0.0
230
-1.0
  0
ARC
  5
D9
  8
DEFAULT
 10
86.82788835216729
 20
22.89140084874819
 30
0.0
 40
0.5
 50
341.5065139855975
 51
38.92754359279196
  0
LINE
  5
DA
  8
DEFAULT
 10
87.21685894226916
 20
23.205569402292
 30
0.0
 11
85.19375065883817
 21
25.71037013415897
 31
0.0
  0
LINE
  5
DB
  8
DEFAULT
 10
85.19375065883817
 20
25.71037013415897
 30
0.0
 11
85.19375065883817
 21
52.6564215394714
 31
0.0
  0
LINE
  5
DC
  8
DEFAULT
 10
85.19375065883817
 20
52.6564215394714
 30
0.0
 11
89.20208694729006
 21
56.98975806752744
 31
0.0
  0
ARC
  5
DD
  8
DEFAULT
 10
88.83503722749684
 20
57.32927905833616
 30
0.0
 40
0.5
 50
317.2311746080302
 51
14.65220421522575
  0
ARC
  5
DE
  8
DEFAULT
 10
-90.09276005685712
 20
57.65811531623069
 30
0.0
 40
0.800000000000042
 50
345.347795784774
 51
280.1898549991739
210
0.0
220
0.0
230
-1.0
  0
ARC
  5
DF
  8
DEFAULT
 10
89.86277644291778
 20
56.37862028407174
 30
0.0
 40
0.5
 50
79.810145000842
 51
137.2311746080349
  0
LINE
  5
E0
  8
DEFAULT
 10
91.00875268228505
 20
54.48490952316547
 30
0.0
 11
91.55841918817531
 21
53.93524301727528
 31
0.0
  0
LINE
  5
E1
  8
DEFAULT
 10
91.55841918817531
 20
53.93524301727528
 30
0.0
 11
91.55841918817531
 21
10.45383496088075
 31
0.0
  0
LINE
  5
E2
  8
DEFAULT
 10
91.55841918817531
 20
10.45383496088075
 30
0.0
 11
88.97674861827672
 21
7.872164390982269
 31
0.0
  0
ARC
  5
E3
  8
DEFAULT
 10
89.33030200886998
 20
7.518611000388987
 30
0.0
 40
0.5
 50
134.9999999999984
 51
192.4210296071887
  0
ARC
  5
E4
  8
DEFAULT
 10
-88.06073059279791
 20
7.238989077978095
 30
0.0
 40
0.8000000000000053
 50
167.5789703928002
 51
102.4210296072013
210
0.0
220
0.0
230
-1.0
  0
ARC
  5
E5
  8
DEFAULT
 10
88.34035251520888
 20
8.508560494050148
 30
0.0
 40
0.5
 50
257.578970392805
 51
314.999999999998
  0
LINE
  5
E6
  8
DEFAULT
 10
88.69390590580214
 20
8.15500710345686
 30
0.0
 11
91.15841918817529
 21
10.61952038582998
 31
0.0
  0
LINE
  5
E7
  8
DEFAULT
 10
91.15841918817529
 20
10.61952038582998
 30
0.0
 11
91.15841918817529
 21
53.76955759232603
 31
0.0
  0
LINE
  5
E8
  8
DEFAULT
 10
91.15841918817529
 20
53.76955759232603
 30
0.0
 11
90.72590996981047
 21
54.20206681069082
 31
0.0
  0
ARC
  5
E9
  8
DEFAULT
 10
90.3723565792172
 20
53.84851342009755
 30
0.0
 40
0.5
 50
44.99999999999942
 51
102.421029607195
  0
ARC
  5
EA
  8
DEFAULT
 10
-90.09273465680623
 20
55.11808483616957
 30
0.0
 40
0.7999999999999751
 50
257.5789703927982
 51
0.0000000000020356
210
0.0
220
0.0
230
-1.0
  0
ARC
  5
EB
  8
DEFAULT
 10
-90.09273465680626
 20
55.11808483616961
 30
0.0
 40
0.8000000000000114
 50
359.999999999999
 51
192.4210296071966
210
0.0
220
0.0
230
-1.0
  0
ARC
  5
EC
  8
DEFAULT
 10
91.36230607287833
 20
54.83846291375874
 30
0.0
 40
0.5
 50
167.5789703928084
 51
224.9999999999994
  0
LINE
  5
ED
  8
DEFAULT
 10
89.45958474385286
 20
51.66208713073154
 30
0.0
 11
87.6257547228463
 21
49.8282571097251
 31
0.0
  0
LINE
  5
EE
  8
DEFAULT
 10
87.6257547228463
 20
49.8282571097251
 30
0.0
 11
87.6257547228463
 21
28.27689910058743
 31
0.0
  0
LINE
  5
EF
  8
DEFAULT
 10
87.6257547228463
 20
28.27689910058743
 30
0.0
 11
90.03875954885595
 21
25.86389427457775
 31
0.0
  0
LINE
  5
F0
  8
DEFAULT
 10
90.03875954885595
 20
25.86389427457775
 30
0.0
 11
90.03875954885595
 21
16.55419056159192
 31
0.0
  0
LINE
  5
F1
  8
DEFAULT
 10
90.03875954885595
 20
16.55419056159192
 30
0.0
 11
88.97677401832755
 21
15.4922050310636
 31
0.0
  0
ARC
  5
F2
  8
DEFAULT
 10
89.33032740892082
 20
15.13865164047031
 30
0.0
 40
0.5
 50
134.999999999998
 51
192.4210296071881
  0
ARC
  5
F3
  8
DEFAULT
 10
-88.06075599284875
 20
14.85902971805943
 30
0.0
 40
0.799999999999989
 50
167.5789703928008
 51
0.0000000000010178
210
0.0
220
0.0
230
-1.0
  0
ARC
  5
F4
  8
DEFAULT
 10
-88.06075599284873
 20
14.85902971805948
 30
0.0
 40
0.7999999999999687
 50
359.9999999999974
 51
102.421029607204
210
0.0
220
0.0
230
-1.0
  0
ARC
  5
F5
  8
DEFAULT
 10
88.34037791525974
 20
16.12860113413151
 30
0.0
 40
0.5
 50
257.5789703928034
 51
314.9999999999972
  0
LINE
  5
F6
  8
DEFAULT
 10
88.693931305853
 20
15.77504774353821
 30
0.0
 11
89.63875954885596
 21
16.71987598654117
 31
0.0
  0
LINE
  5
F7
  8
DEFAULT
 10
89.63875954885596
 20
16.71987598654117
 30
0.0
 11
89.63875954885596
 21
25.69820884962851
 31
0.0
  0
LINE
  5
F8
  8
DEFAULT
 10
89.63875954885596
 20
25.69820884962851
 30
0.0
 11
87.22575472284629
 21
28.1112136756382
 31
0.0
  0
LINE
  5
F9
  8
DEFAULT
 10
87.22575472284629
 20
28.1112136756382
 30
0.0
 11
87.22575472284629
 21
49.99394253467436
 31
0.0
  0
LINE
  5
FA
  8
DEFAULT
 10
87.22575472284629
 20
49.99394253467436
 30
0.0
 11
89.17674203137828
 21
51.94492984320619
 31
0.0
  0
ARC
  5
FB
  8
DEFAULT
 10
88.823188640785
 20
52.29848323379946
 30
0.0
 40
0.5
 50
315.0000000000006
 51
12.42102960718684
  0
ARC
  5
FC
  8
DEFAULT
 10
-90.09276005685706
 20
52.57810515621033
 30
0.0
 40
0.7999999999999744
 50
347.5789703928008
 51
282.4210296071976
210
0.0
220
0.0
230
-1.0
  0
ARC
  5
FD
  8
DEFAULT
 10
89.81313813444612
 20
51.30853374013825
 30
0.0
 40
0.5
 50
77.57897039280344
 51
134.9999999999971
  0
LINE
  5
FE
  8
DEFAULT
 10
104.3561756879353
 20
12.51899923799848
 30
0.0
 11
106.8905733275849
 21
12.51899923799847
 31
0.0
  0
LINE
  5
FF
  8
DEFAULT
 10
106.8905733275849
 20
12.51899923799847
 30
0.0
 11
114.3810499065686
 21
21.43591608144363
 31
0.0
  0
ARC
  5
100
  8
DEFAULT
 10
113.9982031079664
 20
21.75751883143193
 30
0.0
 40
0.5
 50
319.968737018086
 51
17.3897666252859
  0
ARC
  5
101
  8
DEFAULT
 10
-115.2387849489067
 20
22.14605029210063
 30
0.0
 40
0.8000000000000222
 50
342.6102333747182
 51
277.4522925891166
210
0.0
220
0.0
230
-1.0
  0
ARC
  5
102
  8
DEFAULT
 10
115.0701741440526
 20
20.85703113146475
 30
0.0
 40
0.5
 50
82.5477074108967
 51
139.9687370180899
  0
LINE
  5
103
  8
DEFAULT
 10
114.6873273454504
 20
21.17863388145302
 30
0.0
 11
107.0769635501627
 21
12.11899923799847
 31
0.0
  0
LINE
  5
104
  8
DEFAULT
 10
107.0769635501627
 20
12.11899923799847
 30
0.0
 11
104.3561756879352
 21
12.11899923799847
 31
0.0
  0
ARC
  5
105
  8
DEFAULT
 10
104.3561756879353
 20
11.61899923799847
 30
0.0
 40
0.5
 50
90.00000000000651
 51
147.4210296071946
  0
ARC
  5
106
  8
DEFAULT
 10
-103.260730572925
 20
12.31899923799846
 30
0.0
 40
0.7999999999999885
 50
212.5789703928031
 51
0.0000000000006361
210
0.0
220
0.0
230
-1.0
  0
ARC
  5
107
  8
DEFAULT
 10
-103.260730572925
 20
12.31899923799847
 30
0.0
 40
0.8000000000000114
 50
359.9999999999997
 51
147.4210296071937
210
0.0
220
0.0
230
-1.0
  0
ARC
  5
108
  8
DEFAULT
 10
104.3561756879353
 20
13.01899923799848
 30
0.0
 40
0.5
 50
212.5789703928008
 51
270.0
  0
ARC
  5
109
  8
DEFAULT
 10
-103.260730572925
 20
14.85902971805944
 30
0.0
 40
0.8000000000000238
 50
77.66529379699169
 51
0.0000000000003817
210
0.0
220
0.0
230
-1.0
  0
ARC
  5
10A
  8
DEFAULT
 10
-103.2607305729279
 20
14.85902971805914
 30
0.0
 40
0.800000000002882
 50
0.0000000000216278
 51
12.50735301136672
210
0.0
220
0.0
230
-1.0
  0
ARC
  5
10B
  8
DEFAULT
 10
101.9915818837231
 20
15.14056409375309
 30
0.0
 40
0.5
 50
347.4926469886146
 51
44.91367659580737
  0
LINE
  5
10C
  8
DEFAULT
 10
102.3456675461499
 20
15.49358440997273
 30
0.0
 11
101.2881151744122
 21
16.55432826774185
 31
0.0
  0
LINE
  5
10D
  8
DEFAULT
 10
101.2881151744122
 20
16.55432826774185
 30
0.0
 11
101.2848323660116
 21
23.57785097797453
 31
0.0
  0
LINE
  5
10E
  8
DEFAULT
 10
101.2848323660116
 20
23.57785097797453
 30
0.0
 11
103.0530316801378
 21
25.34605029210065
 31
0.0
  0
LINE
  5
10F
  8
DEFAULT
 10
103.0530316801378
 20
25.34605029210065
 30
0.0
 11
114.1433398338963
 21
25.34605029210065
 31
0.0
  0
ARC
  5
110
  8
DEFAULT
 10
114.1433398338963
 20
25.84605029210065
 30
0.0
 40
0.5
 50
270.0
 51
327.4210296071979
  0
ARC
  5
111
  8
DEFAULT
 10
-115.2387849489067
 20
25.14605029210062
 30
0.0
 40
0.8000000000000238
 50
32.57897039280713
 51
327.4210296071988
210
0.0
220
0.0
230
-1.0
  0
ARC
  5
112
  8
DEFAULT
 10
114.1433398338963
 20
24.44605029210065
 30
0.0
 40
0.5
 50
32.57897039280577
 51
90.00000000000325
  0
LINE
  5
113
  8
DEFAULT
 10
114.1433398338963
 20
24.94605029210065
 30
0.0
 11
103.2187171050871
 21
24.94605029210065
 31
0.0
  0
LINE
  5
114
  8
DEFAULT
 10
103.2187171050871
 20
24.94605029210065
 30
0.0
 11
101.6849098151998
 21
23.41224300221349
 31
0.0
  0
LINE
  5
115
  8
DEFAULT
 10
101.6849098151998
 20
23.41224300221349
 30
0.0
 11
101.6880379051381
 21
16.71973828039123
 31
0.0
  0
LINE
  5
116
  8
DEFAULT
 10
101.6880379051381
 20
16.71973828039123
 30
0.0
 11
102.6289360760912
 21
15.77600066294846
 31
0.0
  0
ARC
  5
117
  8
DEFAULT
 10
102.983021738518
 20
16.12902097916809
 30
0.0
 40
0.5
 50
224.9136765958056
 51
282.334706203001
  0
ARC
  5
118
  8
DEFAULT
 10
-115.6197857109082
 20
15.95400050800095
 30
0.0
 40
0.8000000000000095
 50
263.3841430956388
 51
198.2262023100305
210
0.0
220
0.0
230
-1.0
  0
ARC
  5
119
  8
DEFAULT
 10
116.8545635620391
 20
15.54740038705089
 30
0.0
 40
0.5
 50
161.7737976899712
 51
219.1948272971663
  0
LINE
  5
11A
  8
DEFAULT
 10
116.4670627892436
 20
15.23142071827005
 30
0.0
 11
117.8518151749672
 21
13.53323354797281
 31
0.0
  0
LINE
  5
11B
  8
DEFAULT
 10
117.8518151749672
 20
13.53323354797281
 30
0.0
 11
117.8518151749672
 21
11.6011806555721
 31
0.0
  0
LINE
  5
11C
  8
DEFAULT
 10
117.8518151749672
 20
11.6011806555721
 30
0.0
 11
114.4326514943264
 21
8.182016974931424
 31
0.0
  0
LINE
  5
11D
  8
DEFAULT
 10
114.4326514943264
 20
8.182016974931424
 30
0.0
 11
104.486575782302
 21
8.181991654571288
 31
0.0
  0
LINE
  5
11E
  8
DEFAULT
 10
104.486575782302
 20
8.181991654571288
 30
0.0
 11
104.1767485984038
 21
7.872164470673003
 31
0.0
  0
ARC
  5
11F
  8
DEFAULT
 10
104.5303019889971
 20
7.51861108007977
 30
0.0
 40
0.5
 50
135.000000000007
 51
192.4210296071934
  0
ARC
  5
120
  8
DEFAULT
 10
-103.260730572925
 20
7.238989157668826
 30
0.0
 40
0.800000000000022
 50
167.5789703927995
 51
359.9999999999982
210
0.0
220
0.0
230
-1.0
  0
ARC
  5
121
  8
DEFAULT
 10
-103.260730572925
 20
7.238989157668774
 30
0.0
 40
0.8000000000000398
 50
0.0000000000017811
 51
102.4210296071945
210
0.0
220
0.0
230
-1.0
  0
ARC
  5
122
  8
DEFAULT
 10
103.5403524953359
 20
8.508560573740883
 30
0.0
 40
0.5
 50
257.57897039281
 51
315.000000000003
  0
LINE
  5
123
  8
DEFAULT
 10
103.8939058859291
 20
8.15500718314763
 30
0.0
 11
104.320889935557
 21
8.581991232775543
 31
0.0
  0
LINE
  5
124
  8
DEFAULT
 10
104.320889935557
 20
8.581991232775543
 30
0.0
 11
114.2669656475814
 21
8.58201655313568
 31
0.0
  0
LINE
  5
125
  8
DEFAULT
 10
114.2669656475814
 20
8.58201655313568
 30
0.0
 11
117.4518151749672
 21
11.76686608052134
 31
0.0
  0
LINE
  5
126
  8
DEFAULT
 10
117.4518151749672
 20
11.76686608052134
 30
0.0
 11
117.4518151749672
 21
13.39082030013505
 31
0.0
  0
LINE
  5
127
  8
DEFAULT
 10
117.4518151749672
 20
13.39082030013505
 30
0.0
 11
116.1570621710072
 21
14.97863698324538
 31
0.0
  0
ARC
  5
128
  8
DEFAULT
 10
115.7695613982116
 20
14.66265731446453
 30
0.0
 40
0.5
 50
39.19482729716712
 51
96.61585690436395
  0
ARC
  5
129
  8
DEFAULT
 10
-115.6197857109082
 20
12.95400050800096
 30
0.0
 40
0.8000000000000059
 50
347.5789703928
 51
282.4210296071982
210
0.0
220
0.0
230
-1.0
  0
ARC
  5
12A
  8
DEFAULT
 10
115.3401637884973
 20
11.68442909192887
 30
0.0
 40
0.5
 50
77.5789703928034
 51
135.0000000000002
  0
LINE
  5
12B
  8
DEFAULT
 10
114.986610397904
 20
12.03798248252214
 30
0.0
 11
112.5276155197778
 21
9.578987604395895
 31
0.0
  0
LINE
  5
12C
  8
DEFAULT
 10
112.5276155197778
 20
9.578987604395895
 30
0.0
 11
104.3561598629952
 21
9.579634028337335
 31
0.0
  0
ARC
  5
12D
  8
DEFAULT
 10
104.3561203092139
 20
9.079634029901836
 30
0.0
 40
0.5
 50
89.99546747053327
 51
147.4164970777309
  0
ARC
  5
12E
  8
DEFAULT
 10
-103.260730572925
 20
9.77972068570449
 30
0.0
 40
0.8000000000000143
 50
212.5835029222709
 51
359.9999999999997
210
0.0
220
0.0
230
-1.0
  0
ARC
  5
12F
  8
DEFAULT
 10
-103.260730572925
 20
9.779720685704456
 30
0.0
 40
0.8000000000000256
 50
0.0000000000020356
 51
147.4255621366598
210
0.0
220
0.0
230
-1.0
  0
ARC
  5
130
  8
DEFAULT
 10
104.3562310598015
 20
10.47963402552123
 30
0.0
 40
0.5
 50
212.5744378633377
 51
269.9954674705365
  0
LINE
  5
131
  8
DEFAULT
 10
104.3561915060202
 20
9.979634027085732
 30
0.0
 11
112.3619432020135
 21
9.97900071158078
 31
0.0
  0
LINE
  5
132
  8
DEFAULT
 10
112.3619432020135
 20
9.97900071158078
 30
0.0
 11
114.7037676854295
 21
12.32082519499676
 31
0.0
  0
ARC
  5
133
  8
DEFAULT
 10
114.3502142948362
 20
12.67437858559003
 30
0.0
 40
0.5
 50
315.0000000000023
 51
12.42102960719395
  0
LINE
  5
134
  8
DEFAULT
 10
105.2918229918028
 20
2.994002762876468
 30
0.0
 11
114.98096126252
 21
2.994005564060842
 31
0.0
  0
LINE
  5
135
  8
DEFAULT
 10
114.98096126252
 20
2.994005564060842
 30
0.0
 11
116.0527897834738
 21
4.065834085014645
 31
0.0
  0
ARC
  5
136
  8
DEFAULT
 10
115.6992363928805
 20
4.4193874756079
 30
0.0
 40
0.5
 50
315.0000000000029
 51
12.42102960719524
  0
ARC
  5
137
  8
DEFAULT
 10
-116.9688078089526
 20
4.699009398018802
 30
0.0
 40
0.8000000000000232
 50
347.5789703928039
 51
282.4210293962739
210
0.0
220
0.0
230
-1.0
  0
ARC
  5
138
  8
DEFAULT
 10
116.6891858912154
 20
3.429437980917346
 30
0.0
 40
0.5
 50
77.57897060373216
 51
135.0000002109293
  0
LINE
  5
139
  8
DEFAULT
 10
116.3356324993205
 20
3.782991370209045
 30
0.0
 11
115.146646712146
 21
2.594005574280388
 31
0.0
  0
LINE
  5
13A
  8
DEFAULT
 10
115.146646712146
 20
2.594005574280388
 30
0.0
 11
105.1288834491708
 21
2.594008462661812
 31
0.0
  0
ARC
  5
13B
  8
DEFAULT
 10
-102.1652854579147
 20
5.398257629633116
 30
0.0
 40
0.5
 50
212.578970392804
 51
270.0000000000016
210
0.0
220
0.0
230
-1.0
  0
LINE
  5
13C
  8
DEFAULT
 10
98.37260861216534
 20
4.898257629633113
 30
0.0
 11
102.1652854579147
 21
4.898257629633113
 31
0.0
  0
ARC
  5
13D
  8
DEFAULT
 10
103.260730572925
 20
4.698257629633114
 30
0.0
 40
0.7999999999999737
 50
348.2534670468407
 51
147.4210296071949
  0
ARC
  5
13E
  8
DEFAULT
 10
-104.5335057042619
 20
4.433600370049374
 30
0.0
 40
0.5
 50
314.3255033459645
 51
11.74653295315701
210
0.0
220
0.0
230
-1.0
  0
LINE
  5
13F
  8
DEFAULT
 10
105.2918229918028
 20
2.994002762876469
 30
0.0
 11
104.1841388125166
 21
4.075909477025415
 31
0.0
  0
ARC
  5
140
  8
DEFAULT
 10
102.1652854579147
 20
3.998257629633115
 30
0.0
 40
0.5
 50
32.57897039280697
 51
89.99999999999837
  0
LINE
  5
141
  8
DEFAULT
 10
98.20967490512155
 20
4.498257629633113
 30
0.0
 11
102.1652854579147
 21
4.498257629633113
 31
0.0
  0
ARC
  5
142
  8
DEFAULT
 10
103.260730572925
 20
4.698257629633114
 30
0.0
 40
0.7999999999999737
 50
212.5789703928035
 51
283.0955262612309
  0
ARC
  5
143
  8
DEFAULT
 10
103.5552784073752
 20
3.432065869582282
 30
0.0
 40
0.5
 50
45.67449665403605
 51
103.0955262612342
  0
LINE
  5
144
  8
DEFAULT
 10
105.1288834491708
 20
2.594008462661812
 30
0.0
 11
103.9046452991205
 21
3.789756762606243
 31
0.0
  0
CIRCLE
  5
145
  8
DEFAULT
 10
-103.260730572925
 20
4.698257629633114
 30
0.0
 40
0.4
210
0.0
220
0.0
230
-1.0
  0
CIRCLE
  5
146
  8
DEFAULT
 10
-88.06073059279791
 20
7.23898907797809
 30
0.0
 40
0.4
210
0.0
220
0.0
230
-1.0
  0
LINE
  5
147
  8
DEFAULT
 10
124.3050166844257
 20
0.2363920843010305
 30
0.0
 11
74.30501668442565
 21
0.2363920843010305
 31
0.0
  0
LINE
  5
148
  8
DEFAULT
 10
74.30501668442565
 20
0.2363920843010305
 30
0.0
 11
74.30501668442565
 21
75.23639208430102
 31
0.0
  0
LINE
  5
149
  8
DEFAULT
 10
74.30501668442565
 20
75.23639208430102
 30
0.0
 11
124.3050166844257
 21
75.23639208430102
 31
0.0
  0
LINE
  5
14A
  8
DEFAULT
 10
124.3050166844257
 20
75.23639208430102
 30
0.0
 11
124.3050166844257
 21
0.2363920843010305
 31
0.0
  0
CIRCLE
  5
14B
  8
DEFAULT
 10
-115.4928108569586
 20
72.8981457962916
 30
0.0
 40
0.8382016764033529
210
0.0
220
0.0
230
-1.0
  0
CIRCLE
  5
14C
  8
DEFAULT
 10
-115.4928108569586
 20
70.35814071628147
 30
0.0
 40
0.8382016764033529
210
0.0
220
0.0
230
-1.0
  0
CIRCLE
  5
14D
  8
DEFAULT
 10
-115.4928108569586
 20
57.65811531623069
 30
0.0
 40
0.8382016764033529
210
0.0
220
0.0
230
-1.0
  0
CIRCLE
  5
14E
  8
DEFAULT
 10
-115.4928108569586
 20
55.11811023622056
 30
0.0
 40
0.8382016764033529
210
0.0
220
0.0
230
-1.0
  0
CIRCLE
  5
14F
  8
DEFAULT
 10
-115.4928108569586
 20
52.57810515621031
 30
0.0
 40
0.8382016764033529
210
0.0
220
0.0
230
-1.0
  0
CIRCLE
  5
150
  8
DEFAULT
 10
-115.4928108569586
 20
39.87807975615954
 30
0.0
 40
0.8382016764033529
210
0.0
220
0.0
230
-1.0
  0
CIRCLE
  5
151
  8
DEFAULT
 10
-115.4928108569586
 20
37.3380746761494
 30
0.0
 40
0.8382016764033529
210
0.0
220
0.0
230
-1.0
  0
ARC
  5
152
  8
DEFAULT
 10
-115.4953508620386
 20
72.8981457962916
 30
0.0
 40
0.4064008128016257
 50
90.0
 51
270.0
210
0.0
220
0.0
230
-1.0
  0
LINE
  5
153
  8
DEFAULT
 10
115.4953508620386
 20
72.49174498348998
 30
0.0
 11
115.4902708518785
 21
72.49174498348998
 31
0.0
  0
ARC
  5
154
  8
DEFAULT
 10
-115.4902708518785
 20
72.8981457962916
 30
0.0
 40
0.4064008128016257
 50
270.0
 51
90.0
210
0.0
220
0.0
230
-1.0
  0
LINE
  5
155
  8
DEFAULT
 10
115.4902708518785
 20
73.30454660909322
 30
0.0
 11
115.4953508620386
 21
73.30454660909322
 31
0.0
  0
ARC
  5
156
  8
DEFAULT
 10
-115.4953508620386
 20
70.35814071628147
 30
0.0
 40
0.4064008128016257
 50
90.0
 51
270.0
210
0.0
220
0.0
230
-1.0
  0
LINE
  5
157
  8
DEFAULT
 10
115.4953508620386
 20
69.95173990347985
 30
0.0
 11
115.4902708518785
 21
69.95173990347985
 31
0.0
  0
ARC
  5
158
  8
DEFAULT
 10
-115.4902708518785
 20
70.35814071628147
 30
0.0
 40
0.4064008128016257
 50
270.0
 51
90.0
210
0.0
220
0.0
230
-1.0
  0
LINE
  5
159
  8
DEFAULT
 10
115.4902708518785
 20
70.76454152908309
 30
0.0
 11
115.4953508620386
 21
70.76454152908309
 31
0.0
  0
ARC
  5
15A
  8
DEFAULT
 10
-115.4953508620386
 20
57.65811531623069
 30
0.0
 40
0.4064008128016257
 50
90.0
 51
270.0
210
0.0
220
0.0
230
-1.0
  0
LINE
  5
15B
  8
DEFAULT
 10
115.4953508620386
 20
57.25171450342906
 30
0.0
 11
115.4902708518785
 21
57.25171450342906
 31
0.0
  0
ARC
  5
15C
  8
DEFAULT
 10
-115.4902708518785
 20
57.65811531623069
 30
0.0
 40
0.4064008128016257
 50
270.0
 51
90.0
210
0.0
220
0.0
230
-1.0
  0
LINE
  5
15D
  8
DEFAULT
 10
115.4902708518785
 20
58.06451612903232
 30
0.0
 11
115.4953508620386
 21
58.06451612903232
 31
0.0
  0
ARC
  5
15E
  8
DEFAULT
 10
-115.4953508620386
 20
55.11811023622056
 30
0.0
 40
0.4064008128016257
 50
90.0
 51
270.0
210
0.0
220
0.0
230
-1.0
  0
LINE
  5
15F
  8
DEFAULT
 10
115.4953508620386
 20
54.71170942341893
 30
0.0
 11
115.4902708518785
 21
54.71170942341893
 31
0.0
  0
ARC
  5
160
  8
DEFAULT
 10
-115.4902708518785
 20
55.11811023622056
 30
0.0
 40
0.4064008128016257
 50
270.0
 51
90.0
210
0.0
220
0.0
230
-1.0
  0
LINE
  5
161
  8
DEFAULT
 10
115.4902708518785
 20
55.52451104902219
 30
0.0
 11
115.4953508620386
 21
55.52451104902219
 31
0.0
  0
ARC
  5
162
  8
DEFAULT
 10
-115.4953508620386
 20
52.57810515621031
 30
0.0
 40
0.4064008128016257
 50
90.0
 51
270.0
210
0.0
220
0.0
230
-1.0
  0
LINE
  5
163
  8
DEFAULT
 10
115.4953508620386
 20
52.17170434340868
 30
0.0
 11
115.4902708518785
 21
52.17170434340868
 31
0.0
  0
ARC
  5
164
  8
DEFAULT
 10
-115.4902708518785
 20
52.57810515621031
 30
0.0
 40
0.4064008128016257
 50
270.0
 51
90.0
210
0.0
220
0.0
230
-1.0
  0
LINE
  5
165
  8
DEFAULT
 10
115.4902708518785
 20
52.98450596901194
 30
0.0
 11
115.4953508620386
 21
52.98450596901194
 31
0.0
  0
ARC
  5
166
  8
DEFAULT
 10
-115.4953508620386
 20
39.87807975615954
 30
0.0
 40
0.4064008128016257
 50
90.0
 51
270.0
210
0.0
220
0.0
230
-1.0
  0
LINE
  5
167
  8
DEFAULT
 10
115.4953508620386
 20
39.47167894335791
 30
0.0
 11
115.4902708518785
 21
39.47167894335791
 31
0.0
  0
ARC
  5
168
  8
DEFAULT
 10
-115.4902708518785
 20
39.87807975615954
 30
0.0
 40
0.4064008128016257
 50
270.0
 51
90.0
210
0.0
220
0.0
230
-1.0
  0
LINE
  5
169
  8
DEFAULT
 10
115.4902708518785
 20
40.28448056896116
 30
0.0
 11
115.4953508620386
 21
40.28448056896116
 31
0.0
  0
ARC
  5
16A
  8
DEFAULT
 10
-115.4953508620386
 20
37.3380746761494
 30
0.0
 40
0.4064008128016257
 50
90.0
 51
270.0
210
0.0
220
0.0
230
-1.0
  0
LINE
  5
16B
  8
DEFAULT
 10
115.4953508620386
 20
36.93167386334778
 30
0.0
 11
115.4902708518785
 21
36.93167386334778
 31
0.0
  0
ARC
  5
16C
  8
DEFAULT
 10
-115.4902708518785
 20
37.3380746761494
 30
0.0
 40
0.4064008128016257
 50
270.0
 51
90.0
210
0.0
220
0.0
230
-1.0
  0
LINE
  5
16D
  8
DEFAULT
 10
115.4902708518785
 20
37.74447548895103
 30
0.0
 11
115.4953508620386
 21
37.74447548895103
 31
0.0
  0
CIRCLE
  5
16E
  8
DEFAULT
 10
-88.06075599284875
 20
12.31902463804931
 30
0.0
 40
0.4
210
0.0
220
0.0
230
-1.0
  0
CIRCLE
  5
16F
  8
DEFAULT
 10
-90.09276005685709
 20
65.27813055626109
 30
0.0
 40
0.4
210
0.0
220
0.0
230
-1.0
  0
CIRCLE
  5
170
  8
DEFAULT
 10
-88.06075599284875
 20
9.779019558039181
 30
0.0
 40
0.4
210
0.0
220
0.0
230
-1.0
  0
CIRCLE
  5
171
  8
DEFAULT
 10
-90.09276005685709
 20
60.19812039624082
 30
0.0
 40
0.4
210
0.0
220
0.0
230
-1.0
  0
CIRCLE
  5
172
  8
DEFAULT
 10
-103.260730572925
 20
14.85902971805945
 30
0.0
 40
0.4
210
0.0
220
0.0
230
-1.0
  0
CIRCLE
  5
173
  8
DEFAULT
 10
-115.2387849489067
 20
25.14605029210065
 30
0.0
 40
0.4
210
0.0
220
0.0
230
-1.0
  0
CIRCLE
  5
174
  8
DEFAULT
 10
-103.260730572925
 20
7.238989157668799
 30
0.0
 40
0.4
210
0.0
220
0.0
230
-1.0
  0
CIRCLE
  5
175
  8
DEFAULT
 10
-115.6197857109082
 20
15.95400050800095
 30
0.0
 40
0.4
210
0.0
220
0.0
230
-1.0
  0
CIRCLE
  5
176
  8
DEFAULT
 10
-88.06075599284875
 20
17.39903479806958
 30
0.0
 40
0.4
210
0.0
220
0.0
230
-1.0
  0
CIRCLE
  5
177
  8
DEFAULT
 10
-90.09276005685709
 20
67.81813563627134
 30
0.0
 40
0.4
210
0.0
220
0.0
230
-1.0
  0
CIRCLE
  5
178
  8
DEFAULT
 10
-88.06075599284875
 20
14.85902971805945
 30
0.0
 40
0.4
210
0.0
220
0.0
230
-1.0
  0
CIRCLE
  5
179
  8
DEFAULT
 10
-90.09276005685709
 20
52.57810515621031
 30
0.0
 40
0.4
210
0.0
220
0.0
230
-1.0
  0
CIRCLE
  5
17A
  8
DEFAULT
 10
-88.06075599284875
 20
19.93903987807983
 30
0.0
 40
0.4
210
0.0
220
0.0
230
-1.0
  0
CIRCLE
  5
17B
  8
DEFAULT
 10
-90.09276005685709
 20
62.73812547625096
 30
0.0
 40
0.4
210
0.0
220
0.0
230
-1.0
  0
CIRCLE
  5
17C
  8
DEFAULT
 10
-88.06075599284875
 20
22.47904495808996
 30
0.0
 40
0.4
210
0.0
220
0.0
230
-1.0
  0
CIRCLE
  5
17D
  8
DEFAULT
 10
-90.09276005685709
 20
57.65811531623069
 30
0.0
 40
0.4
210
0.0
220
0.0
230
-1.0
  0
CIRCLE
  5
17E
  8
DEFAULT
 10
-103.260730572925
 20
9.779720685704484
 30
0.0
 40
0.4
210
0.0
220
0.0
230
-1.0
  0
CIRCLE
  5
17F
  8
DEFAULT
 10
-115.6197857109082
 20
12.95400050800095
 30
0.0
 40
0.4
210
0.0
220
0.0
230
-1.0
  0
CIRCLE
  5
180
  8
DEFAULT
 10
-103.260730572925
 20
12.31899923799847
 30
0.0
 40
0.4
210
0.0
220
0.0
230
-1.0
  0
CIRCLE
  5
181
  8
DEFAULT
 10
-115.2387849489067
 20
22.14605029210065
 30
0.0
 40
0.4
210
0.0
220
0.0
230
-1.0
  0
CIRCLE
  5
182
  8
DEFAULT
 10
-90.09273465680624
 20
55.1180848361696
 30
0.0
 40
0.4
210
0.0
220
0.0
230
-1.0
  0
CIRCLE
  5
183
  8
DEFAULT
 10
-90.09276005685709
 20
72.8981457962916
 30
0.0
 40
0.4
210
0.0
220
0.0
230
-1.0
  0
CIRCLE
  5
184
  8
DEFAULT
 10
-113.9688078089526
 20
4.699009398018802
 30
0.0
 40
0.4
210
0.0
220
0.0
230
-1.0
  0
CIRCLE
  5
185
  8
DEFAULT
 10
-103.2607126669154
 20
22.47904495808996
 30
0.0
 40
0.4
210
0.0
220
0.0
230
-1.0
  0
CIRCLE
  5
186
  8
DEFAULT
 10
-90.09276005685709
 20
70.35814071628147
 30
0.0
 40
0.4
210
0.0
220
0.0
230
-1.0
  0
CIRCLE
  5
187
  8
DEFAULT
 10
-116.9688078089526
 20
4.699009398018802
 30
0.0
 40
0.4
210
0.0
220
0.0
230
-1.0
  0
ENDSEC
  0
EOF
