  0
SECTION
  2
HEADER
  9
$ACADVER
  1
AC1009
  9
$DWGCODEPAGE
  3
ansi_1252
  9
$INSBASE
 10
0.0
 20
0.0
 30
0.0
  9
$EXTMIN
 10
74.30501668442565
 20
0.2363920843010305
 30
0.0
  9
$EXTMAX
 10
124.3050166844257
 20
75.23639208430102
 30
0.0
  9
$LIMMIN
 10
0.0
 20
0.0
  9
$LIMMAX
 10
12.0
 20
9.0
  9
$ORTHOMODE
 70
     0
  9
$REGENMODE
 70
     1
  9
$FILLMODE
 70
     1
  9
$QTEXTMODE
 70
     0
  9
$MIRRTEXT
 70
     1
  9
$DRAGMODE
 70
     2
  9
$LTSCALE
 40
1.0
  9
$OSMODE
 70
    37
  9
$ATTMODE
 70
     1
  9
$TEXTSIZE
 40
0.2
  9
$TRACEWID
 40
0.05
  9
$TEXTSTYLE
  7
STANDARD
  9
$CLAYER
  8
DEFAULT
  9
$CELTYPE
  6
BYLAYER
  9
$CECOLOR
 62
   256
  9
$DIMSCALE
 40
1.0
  9
$DIMASZ
 40
0.18
  9
$DIMEXO
 40
0.0625
  9
$DIMDLI
 40
0.38
  9
$DIMRND
 40
0.0
  9
$DIMDLE
 40
0.0
  9
$DIMEXE
 40
0.18
  9
$DIMTP
 40
0.0
  9
$DIMTM
 40
0.0
  9
$DIMTXT
 40
0.18
  9
$DIMCEN
 40
0.09
  9
$DIMTSZ
 40
0.0
  9
$DIMTOL
 70
     0
  9
$DIMLIM
 70
     0
  9
$DIMTIH
 70
     1
  9
$DIMTOH
 70
     1
  9
$DIMSE1
 70
     0
  9
$DIMSE2
 70
     0
  9
$DIMTAD
 70
     0
  9
$DIMZIN
 70
     0
  9
$DIMBLK
  1

  9
$DIMASO
 70
     1
  9
$DIMSHO
 70
     1
  9
$DIMPOST
  1

  9
$DIMAPOST
  1

  9
$DIMALT
 70
     0
  9
$DIMALTD
 70
     2
  9
$DIMALTF
 40
25.4
  9
$DIMLFAC
 40
1.0
  9
$DIMTOFL
 70
     0
  9
$DIMTVP
 40
0.0
  9
$DIMTIX
 70
     0
  9
$DIMSOXD
 70
     0
  9
$DIMSAH
 70
     0
  9
$DIMBLK1
  1

  9
$DIMBLK2
  1

  9
$DIMSTYLE
  2
STANDARD_ACAD
  9
$DIMCLRD
 70
     0
  9
$DIMCLRE
 70
     0
  9
$DIMCLRT
 70
     0
  9
$DIMTFAC
 40
1.0
  9
$DIMGAP
 40
0.09
  9
$LUNITS
 70
     2
  9
$LUPREC
 70
     3
  9
$SKETCHINC
 40
0.1
  9
$FILLETRAD
 40
0.0
  9
$AUNITS
 70
     0
  9
$AUPREC
 70
     0
  9
$MENU
  1
.
  9
$ELEVATION
 40
0.0
  9
$PELEVATION
 40
0.0
  9
$THICKNESS
 40
0.0
  9
$LIMCHECK
 70
     0
  9
$CHAMFERA
 40
0.0
  9
$CHAMFERB
 40
0.0
  9
$SKPOLY
 70
     0
  9
$TDCREATE
 40
2460397.852127893
  9
$TDUPDATE
 40
2460397.852141516
  9
$TDINDWG
 40
0.0000000116
  9
$TDUSRTIMER
 40
0.0000000116
  9
$USRTIMER
 70
     1
  9
$ANGBASE
 50
0.0
  9
$ANGDIR
 70
     0
  9
$PDMODE
 70
     0
  9
$PDSIZE
 40
0.0
  9
$PLINEWID
 40
0.0
  9
$COORDS
 70
     1
  9
$SPLFRAME
 70
     0
  9
$SPLINETYPE
 70
     6
  9
$SPLINESEGS
 70
     8
  9
$ATTDIA
 70
     0
  9
$ATTREQ
 70
     1
  9
$HANDLING
 70
     1
  9
$HANDSEED
  5
2AB
  9
$SURFTAB1
 70
     6
  9
$SURFTAB2
 70
     6
  9
$SURFTYPE
 70
     6
  9
$SURFU
 70
     6
  9
$SURFV
 70
     6
  9
$UCSNAME
  2

  9
$UCSORG
 10
0.0
 20
0.0
 30
0.0
  9
$UCSXDIR
 10
1.0
 20
0.0
 30
0.0
  9
$UCSYDIR
 10
0.0
 20
1.0
 30
0.0
  9
$PUCSNAME
  2

  9
$PUCSORG
 10
0.0
 20
0.0
 30
0.0
  9
$PUCSXDIR
 10
1.0
 20
0.0
 30
0.0
  9
$PUCSYDIR
 10
0.0
 20
1.0
 30
0.0
  9
$USERI1
 70
     0
  9
$USERI2
 70
     0
  9
$USERI3
 70
     0
  9
$USERI4
 70
     0
  9
$USERI5
 70
     0
  9
$USERR1
 40
0.0
  9
$USERR2
 40
0.0
  9
$USERR3
 40
0.0
  9
$USERR4
 40
0.0
  9
$USERR5
 40
0.0
  9
$WORLDVIEW
 70
     1
  9
$SHADEDGE
 70
     3
  9
$SHADEDIF
 70
    70
  9
$TILEMODE
 70
     1
  9
$MAXACTVP
 70
    64
  9
$PLIMCHECK
 70
     0
  9
$PEXTMIN
 10
1.000000000000000E+20
 20
1.000000000000000E+20
 30
1.000000000000000E+20
  9
$PEXTMAX
 10
-1.000000000000000E+20
 20
-1.000000000000000E+20
 30
-1.000000000000000E+20
  9
$PLIMMIN
 10
0.0
 20
0.0
  9
$PLIMMAX
 10
12.0
 20
9.0
  9
$UNITMODE
 70
     0
  9
$VISRETAIN
 70
     1
  9
$PLINEGEN
 70
     0
  9
$PSLTSCALE
 70
     1
  0
ENDSEC
  0
SECTION
  2
TABLES
  0
TABLE
  2
VPORT
 70
     1
  0
VPORT
  2
*ACTIVE
 70
     0
 10
0.0
 20
0.0
 11
1.0
 21
1.0
 12
10.42990654205607
 22
4.5
 13
0.0
 23
0.0
 14
0.5
 24
0.5
 15
0.5
 25
0.5
 16
0.0
 26
0.0
 36
1.0
 17
0.0
 27
0.0
 37
0.0
 40
9.0
 41
1.972972972850329
 42
50.0
 43
0.0
 44
0.0
 50
0.0
 51
0.0
 71
     0
 72
   100
 73
     1
 74
     3
 75
     0
 76
     0
 77
     0
 78
     0
  0
ENDTAB
  0
TABLE
  2
LTYPE
 70
     1
  0
LTYPE
  2
CONTINUOUS
 70
     0
  3
Solid line
 72
    65
 73
     0
 40
0.0
  0
ENDTAB
  0
TABLE
  2
LAYER
 70
     2
  0
LAYER
  2
0
 70
     0
 62
     7
  6
CONTINUOUS
  0
LAYER
  2
DEFAULT
 70
     0
 62
     7
  6
CONTINUOUS
  0
ENDTAB
  0
TABLE
  2
STYLE
 70
     1
  0
STYLE
  2
STANDARD
 70
     0
 40
0.0
 41
1.0
 50
0.0
 71
     0
 42
0.2
  3
txt
  4

  0
ENDTAB
  0
TABLE
  2
VIEW
 70
     0
  0
ENDTAB
  0
TABLE
  2
UCS
 70
     0
  0
ENDTAB
  0
TABLE
  2
APPID
 70
     2
  0
APPID
  2
ACAD
 70
     0
  0
APPID
  2
RHINO
 70
     0
  0
ENDTAB
  0
TABLE
  2
DIMSTYLE
 70
     1
  0
DIMSTYLE
  2
STANDARD_ACAD
 70
     0
  3

  4

  5

  6

  7

 40
1.0
 41
0.18
 42
0.0625
 43
0.38
 44
0.18
 45
0.0
 46
0.0
 47
0.0
 48
0.0
140
0.18
141
0.09
142
0.0
143
25.4
144
1.0
145
0.0
146
1.0
147
0.09
 71
     0
 72
     0
 73
     1
 74
     1
 75
     0
 76
     0
 77
     0
 78
     0
170
     0
171
     2
172
     0
173
     0
174
     0
175
     0
176
     0
177
     0
178
     0
  0
ENDTAB
  0
ENDSEC
  0
SECTION
  2
BLOCKS
  0
BLOCK
  8
0
  2
$MODEL_SPACE
 70
     0
 10
0.0
 20
0.0
 30
0.0
  3
$MODEL_SPACE
  1

  0
ENDBLK
  5
21
  8
0
  0
BLOCK
 67
     1
  8
0
  2
$PAPER_SPACE
 70
     0
 10
0.0
 20
0.0
 30
0.0
  3
$PAPER_SPACE
  1

  0
ENDBLK
  5
1D
 67
     1
  8
0
  0
ENDSEC
  0
SECTION
  2
ENTITIES
  0
ARC
  5
60
  8
DEFAULT
 10
111.4097150413288
 20
70.35814071628145
 30
0.0
 40
0.837497458158421
 50
225.6514408122381
 51
162.534894311598
  0
ARC
  5
61
  8
DEFAULT
 10
-110.1338763364974
 20
70.75955702117514
 30
0.0
 40
0.5
 50
197.4651056884058
 51
255.9068324378948
210
0.0
220
0.0
230
-1.0
  0
LINE
  5
62
  8
DEFAULT
 10
110.2556260136149
 20
70.27460649161385
 30
0.0
 11
105.8
 21
69.1559954262653
 31
0.0
  0
LINE
  5
63
  8
DEFAULT
 10
105.8
 20
69.1559954262653
 30
0.0
 11
105.8
 21
36.87444038684994
 31
0.0
  0
LINE
  5
64
  8
DEFAULT
 10
105.8
 20
36.87444038684994
 30
0.0
 11
112.3898128112577
 21
33.69462238884385
 31
0.0
  0
ARC
  5
65
  8
DEFAULT
 10
-111.955226789962
 20
32.793992059522
 30
0.0
 40
1.0
 50
115.7589546982164
 51
164.986081655892
210
0.0
220
0.0
230
-1.0
  0
ARC
  5
66
  8
DEFAULT
 10
113.7299974599949
 20
33.27000254000508
 30
0.0
 40
0.8374974581584382
 50
195.0139183441046
 51
328.1859879619805
  0
ARC
  5
67
  8
DEFAULT
 10
-114.8665543788746
 20
32.56492252984524
 30
0.0
 40
0.5
 50
31.81401203802423
 51
90.0000000000456
210
0.0
220
0.0
230
-1.0
  0
LINE
  5
68
  8
DEFAULT
 10
114.866554378875
 20
33.06492252984524
 30
0.0
 11
115.1334456211245
 21
33.06492252984511
 31
0.0
  0
ARC
  5
69
  8
DEFAULT
 10
-115.1334456211257
 20
32.56492252984511
 30
0.0
 40
0.5
 50
89.99999999987135
 51
148.1859879619487
210
0.0
220
0.0
230
-1.0
  0
ARC
  5
6A
  8
DEFAULT
 10
116.2700025400051
 20
33.27000254000507
 30
0.0
 40
0.8374974581583088
 50
211.8140120380186
 51
328.1859879619626
  0
ARC
  5
6B
  8
DEFAULT
 10
-117.4065594588845
 20
32.56492252984498
 30
0.0
 40
0.5
 50
31.81401203803442
 51
90.00000000004722
210
0.0
220
0.0
230
-1.0
  0
LINE
  5
6C
  8
DEFAULT
 10
117.4065594588849
 20
33.06492252984498
 30
0.0
 11
117.6766179270475
 21
33.06492252984496
 31
0.0
  0
ARC
  5
6D
  8
DEFAULT
 10
-117.6766179270497
 20
32.56492252984496
 30
0.0
 40
0.5
 50
89.99999999975573
 51
147.9295390617205
210
0.0
220
0.0
230
-1.0
  0
ARC
  5
6E
  8
DEFAULT
 10
118.8100076200148
 20
33.27508255016527
 30
0.0
 40
0.8374974581587146
 50
212.0704609383164
 51
327.9295390617019
  0
ARC
  5
6F
  8
DEFAULT
 10
-119.94339731298
 20
32.56492252984493
 30
0.0
 40
0.5
 50
32.07046093831383
 51
90.00000000009933
210
0.0
220
0.0
230
-1.0
  0
LINE
  5
70
  8
DEFAULT
 10
119.9433973129809
 20
33.06492252984493
 30
0.0
 11
120.2198219420642
 21
33.06492252984495
 31
0.0
  0
ARC
  5
71
  8
DEFAULT
 10
-120.2198219420652
 20
32.56492252984495
 30
0.0
 40
0.5
 50
89.99999999988113
 51
147.6723689193224
210
0.0
220
0.0
230
-1.0
  0
ARC
  5
72
  8
DEFAULT
 10
121.3500127000252
 20
33.28016256032556
 30
0.0
 40
0.8374974581583837
 50
212.3276310806831
 51
149.2047906204979
  0
ARC
  5
73
  8
DEFAULT
 10
-120.2010987629853
 20
33.96492252984446
 30
0.0
 40
0.5
 50
210.7952093795977
 51
270.0000000002296
210
0.0
220
0.0
230
-1.0
  0
LINE
  5
74
  8
DEFAULT
 10
120.2010987629833
 20
33.46492252984446
 30
0.0
 11
119.9558785782899
 21
33.46492252984468
 31
0.0
  0
ARC
  5
75
  8
DEFAULT
 10
-119.9558785782894
 20
33.96492252984468
 30
0.0
 40
0.5
 50
269.9999999999495
 51
328.9511174616144
210
0.0
220
0.0
230
-1.0
  0
ARC
  5
76
  8
DEFAULT
 10
118.8100076200152
 20
33.27508255016517
 30
0.0
 40
0.837497458158502
 50
31.04888253837479
 51
148.9511174616501
  0
ARC
  5
77
  8
DEFAULT
 10
-117.6641366617407
 20
33.96492252984411
 30
0.0
 40
0.5
 50
211.0488825383526
 51
270.0000000000326
210
0.0
220
0.0
230
-1.0
  0
LINE
  5
78
  8
DEFAULT
 10
117.6641366617404
 20
33.46492252984411
 30
0.0
 11
117.4127998353727
 21
33.46492252984451
 31
0.0
  0
ARC
  5
79
  8
DEFAULT
 10
-117.4127998353734
 20
33.96492252984451
 30
0.0
 40
0.5
 50
270.0000000000798
 51
328.6967663440208
210
0.0
220
0.0
230
-1.0
  0
ARC
  5
7A
  8
DEFAULT
 10
116.2700025400049
 20
33.27000254000517
 30
0.0
 40
0.8374974581582774
 50
31.30323365595544
 51
148.6967663440371
  0
ARC
  5
7B
  8
DEFAULT
 10
-115.1272052446364
 20
33.96492252984443
 30
0.0
 40
0.5
 50
211.3032336559566
 51
270.0000000000196
210
0.0
220
0.0
230
-1.0
  0
LINE
  5
7C
  8
DEFAULT
 10
115.1272052446362
 20
33.46492252984443
 30
0.0
 11
114.8727947553627
 21
33.46492252984467
 31
0.0
  0
ARC
  5
7D
  8
DEFAULT
 10
-114.8727947553634
 20
33.96492252984467
 30
0.0
 40
0.5
 50
270.0000000000798
 51
328.6967663440215
210
0.0
220
0.0
230
-1.0
  0
ARC
  5
7E
  8
DEFAULT
 10
113.7299974599949
 20
33.27000254000509
 30
0.0
 40
0.8374974581584128
 50
31.30323365596947
 51
113.4681722594594
  0
ARC
  5
7F
  8
DEFAULT
 10
-112.9982332410716
 20
34.95550484989442
 30
0.0
 40
1.0
 50
246.5318277405399
 51
295.7589546982165
210
0.0
220
0.0
230
-1.0
  0
LINE
  5
80
  8
DEFAULT
 10
112.563647219776
 20
34.05487452057258
 30
0.0
 11
106.2
 21
37.12555961315006
 31
0.0
  0
LINE
  5
81
  8
DEFAULT
 10
106.2
 20
37.12555961315006
 30
0.0
 11
106.2
 21
68.8440045737347
 31
0.0
  0
LINE
  5
82
  8
DEFAULT
 10
106.2
 20
68.8440045737347
 30
0.0
 11
110.353025755301
 21
69.88664606797045
 31
0.0
  0
ARC
  5
83
  8
DEFAULT
 10
-110.4747754324203
 20
69.4016955384096
 30
0.0
 40
0.5
 50
75.90683243768515
 51
134.3485591877512
210
0.0
220
0.0
230
-1.0
  0
ARC
  5
84
  8
DEFAULT
 10
-111.4097150413288
 20
72.89814579629157
 30
0.0
 40
0.8374974581584873
 50
14.43969916801669
 51
311.3231526670075
210
0.0
220
0.0
230
-1.0
  0
ARC
  5
85
  8
DEFAULT
 10
110.5265585246259
 20
71.89368872026216
 30
0.0
 40
0.5
 50
48.67684733298595
 51
107.1185740824804
  0
LINE
  5
86
  8
DEFAULT
 10
110.3793834457762
 20
72.37153754171679
 30
0.0
 11
102.2
 21
69.85232780523506
 31
0.0
  0
LINE
  5
87
  8
DEFAULT
 10
102.2
 20
69.85232780523506
 30
0.0
 11
102.2
 21
35.12484014535332
 31
0.0
  0
LINE
  5
88
  8
DEFAULT
 10
102.2
 20
35.12484014535332
 30
0.0
 11
112.5621913804152
 21
30.05851591724222
 31
0.0
  0
ARC
  5
89
  8
DEFAULT
 10
113.0014269821614
 20
30.95688782584055
 30
0.0
 40
1.0
 50
243.944880308165
 51
293.3596510261171
  0
ARC
  5
8A
  8
DEFAULT
 10
-113.7299974599949
 20
29.27000254000509
 30
0.0
 40
0.8374974581584375
 50
66.6403489738832
 51
148.6407648066575
210
0.0
220
0.0
230
-1.0
  0
ARC
  5
8B
  8
DEFAULT
 10
114.8721149870054
 20
29.96603918061805
 30
0.0
 40
0.5
 50
211.3592351933535
 51
270.0000000000505
  0
LINE
  5
8C
  8
DEFAULT
 10
114.8721149870058
 20
29.46603918061805
 30
0.0
 11
115.1278850129939
 21
29.46603918061784
 31
0.0
  0
ARC
  5
8D
  8
DEFAULT
 10
115.1278850129943
 20
29.96603918061784
 30
0.0
 40
0.5
 50
269.9999999999512
 51
328.6407648066741
  0
ARC
  5
8E
  8
DEFAULT
 10
-116.270002540005
 20
29.27000254000506
 30
0.0
 40
0.8374974581584954
 50
31.35923519334216
 51
148.640764806658
210
0.0
220
0.0
230
-1.0
  0
ARC
  5
8F
  8
DEFAULT
 10
117.4121200670156
 20
29.96603918061796
 30
0.0
 40
0.5
 50
211.3592351933423
 51
269.9999999999316
  0
LINE
  5
90
  8
DEFAULT
 10
117.412120067015
 20
29.46603918061796
 30
0.0
 11
117.6648096522312
 21
29.46603918061764
 31
0.0
  0
ARC
  5
91
  8
DEFAULT
 10
117.6648096522319
 20
29.96603918061764
 30
0.0
 40
0.5
 50
269.9999999999235
 51
328.8952663515436
  0
ARC
  5
92
  8
DEFAULT
 10
-118.810007620015
 20
29.2750825501651
 30
0.0
 40
0.837497458158647
 50
31.10473364848687
 51
148.8952663515142
210
0.0
220
0.0
230
-1.0
  0
ARC
  5
93
  8
DEFAULT
 10
119.955205587798
 20
29.96603918061779
 30
0.0
 40
0.5
 50
211.1047336484809
 51
269.999999999873
  0
LINE
  5
94
  8
DEFAULT
 10
119.9552055877969
 20
29.46603918061779
 30
0.0
 11
120.2017650297382
 21
29.46603918061736
 31
0.0
  0
ARC
  5
95
  8
DEFAULT
 10
120.2017650297392
 20
29.96603918061736
 30
0.0
 40
0.5
 50
269.9999999998844
 51
329.1490876422899
  0
ARC
  5
96
  8
DEFAULT
 10
-121.3500127000256
 20
29.28016256032541
 30
0.0
 40
0.8374974581587282
 50
30.85091235771128
 51
327.7289606025067
210
0.0
220
0.0
230
-1.0
  0
ARC
  5
97
  8
DEFAULT
 10
120.2191160428827
 20
28.56603918061839
 30
0.0
 40
0.5
 50
32.27103939749619
 51
89.99999999995929
  0
LINE
  5
98
  8
DEFAULT
 10
120.2191160428831
 20
29.06603918061839
 30
0.0
 11
119.9440962191475
 21
29.0660391806184
 31
0.0
  0
ARC
  5
99
  8
DEFAULT
 10
119.9440962191476
 20
28.5660391806184
 30
0.0
 40
0.5
 50
90.00000000001303
 51
147.9859712414906
  0
ARC
  5
9A
  8
DEFAULT
 10
-118.8100076200152
 20
29.27508255016522
 30
0.0
 40
0.837497458158471
 50
212.0140287585057
 51
345.5458736042524
210
0.0
220
0.0
230
-1.0
  0
LINE
  5
9B
  8
DEFAULT
 10
117.9990188025396
 20
29.0660391806184
 30
0.0
 11
117.4072514306256
 21
29.0660391806184
 31
0.0
  0
ARC
  5
9C
  8
DEFAULT
 10
117.4072514306267
 20
28.5660391806184
 30
0.0
 40
0.5
 50
90.00000000012051
 51
148.242263103036
  0
ARC
  5
9D
  8
DEFAULT
 10
-116.2700025400048
 20
29.27000254000504
 30
0.0
 40
0.8374974581582199
 50
211.7577368969476
 51
328.2422631030524
210
0.0
220
0.0
230
-1.0
  0
ARC
  5
9E
  8
DEFAULT
 10
115.1327536493828
 20
28.56603918061851
 30
0.0
 40
0.5
 50
31.75773689695158
 51
89.99999999997883
  0
LINE
  5
9F
  8
DEFAULT
 10
115.132753649383
 20
29.06603918061851
 30
0.0
 11
114.867246350616
 21
29.06603918061863
 31
0.0
  0
ARC
  5
A0
  8
DEFAULT
 10
114.8672463506167
 20
28.56603918061863
 30
0.0
 40
0.5
 50
90.00000000008794
 51
148.2422631030301
  0
ARC
  5
A1
  8
DEFAULT
 10
-113.7299974599947
 20
29.27000254000503
 30
0.0
 40
0.8374974581581976
 50
211.7577368969251
 51
345.0940714401729
210
0.0
220
0.0
230
-1.0
  0
ARC
  5
A2
  8
DEFAULT
 10
111.9543327690816
 20
28.79733795048898
 30
0.0
 40
1.0
 50
14.90592855982201
 51
63.94488030816684
  0
LINE
  5
A3
  8
DEFAULT
 10
112.3935683708278
 20
29.69570985908732
 30
0.0
 11
101.8
 21
34.87515985464668
 31
0.0
  0
LINE
  5
A4
  8
DEFAULT
 10
101.8
 20
34.87515985464668
 30
0.0
 11
101.8
 21
70.14767219476492
 31
0.0
  0
LINE
  5
A5
  8
DEFAULT
 10
101.8
 20
70.14767219476492
 30
0.0
 11
110.2616433826963
 21
72.75381659888038
 31
0.0
  0
ARC
  5
A6
  8
DEFAULT
 10
110.1144683038466
 20
73.231665420335
 30
0.0
 40
0.5
 50
287.1185740824788
 51
345.5603008319697
  0
ARC
  5
A7
  8
DEFAULT
 10
-121.3500127000253
 20
33.28016256032532
 30
0.0
 40
0.4064008128016257
 50
0.0
 51
180.0
210
0.0
220
0.0
230
-1.0
  0
LINE
  5
A8
  8
DEFAULT
 10
121.7564135128269
 20
33.28016256032532
 30
0.0
 11
121.7564135128269
 21
33.27508255016522
 31
0.0
  0
ARC
  5
A9
  8
DEFAULT
 10
-121.3500127000253
 20
33.27508255016522
 30
0.0
 40
0.4064008128016257
 50
180.0
 51
0.0
210
0.0
220
0.0
230
-1.0
  0
LINE
  5
AA
  8
DEFAULT
 10
120.9436118872237
 20
33.27508255016522
 30
0.0
 11
120.9436118872237
 21
33.28016256032532
 31
0.0
  0
ARC
  5
AB
  8
DEFAULT
 10
-118.8100076200152
 20
33.27508255016521
 30
0.0
 40
0.4064008128016257
 50
0.0
 51
180.0
210
0.0
220
0.0
230
-1.0
  0
LINE
  5
AC
  8
DEFAULT
 10
119.2164084328168
 20
33.27508255016521
 30
0.0
 11
119.2164084328168
 21
33.27000254000511
 31
0.0
  0
ARC
  5
AD
  8
DEFAULT
 10
-118.8100076200152
 20
33.27000254000511
 30
0.0
 40
0.4064008128016257
 50
180.0
 51
0.0
210
0.0
220
0.0
230
-1.0
  0
LINE
  5
AE
  8
DEFAULT
 10
118.4036068072135
 20
33.27000254000511
 30
0.0
 11
118.4036068072135
 21
33.27508255016521
 31
0.0
  0
ARC
  5
AF
  8
DEFAULT
 10
-113.7299974599949
 20
33.27000254000508
 30
0.0
 40
0.4064008128016257
 50
0.0
 51
180.0
210
0.0
220
0.0
230
-1.0
  0
LINE
  5
B0
  8
DEFAULT
 10
114.1363982727965
 20
33.27000254000508
 30
0.0
 11
114.1363982727965
 21
33.26492252984498
 31
0.0
  0
ARC
  5
B1
  8
DEFAULT
 10
-113.7299974599949
 20
33.26492252984498
 30
0.0
 40
0.4064008128016257
 50
180.0
 51
0.0
210
0.0
220
0.0
230
-1.0
  0
LINE
  5
B2
  8
DEFAULT
 10
113.3235966471933
 20
33.26492252984497
 30
0.0
 11
113.3235966471933
 21
33.27000254000507
 31
0.0
  0
ARC
  5
B3
  8
DEFAULT
 10
-116.270002540005
 20
33.27000254000509
 30
0.0
 40
0.4064008128016257
 50
0.0
 51
180.0
210
0.0
220
0.0
230
-1.0
  0
LINE
  5
B4
  8
DEFAULT
 10
116.6764033528066
 20
33.27000254000509
 30
0.0
 11
116.6764033528066
 21
33.26492252984499
 31
0.0
  0
ARC
  5
B5
  8
DEFAULT
 10
-116.270002540005
 20
33.26492252984499
 30
0.0
 40
0.4064008128016257
 50
180.0
 51
0.0
210
0.0
220
0.0
230
-1.0
  0
LINE
  5
B6
  8
DEFAULT
 10
115.8636017272034
 20
33.26492252984499
 30
0.0
 11
115.8636017272034
 21
33.27000254000509
 31
0.0
  0
ARC
  5
B7
  8
DEFAULT
 10
-116.270002540005
 20
29.27000254000509
 30
0.0
 40
0.4064008128016257
 50
359.9999999999995
 51
179.9999999999995
210
0.0
220
0.0
230
-1.0
  0
LINE
  5
B8
  8
DEFAULT
 10
116.6764033528066
 20
29.27000254000509
 30
0.0
 11
116.6764033528066
 21
29.26492252984499
 31
0.0
  0
ARC
  5
B9
  8
DEFAULT
 10
-116.270002540005
 20
29.26492252984499
 30
0.0
 40
0.4064008128016257
 50
179.9999999999995
 51
359.9999999999995
210
0.0
220
0.0
230
-1.0
  0
LINE
  5
BA
  8
DEFAULT
 10
115.8636017272034
 20
29.26492252984499
 30
0.0
 11
115.8636017272034
 21
29.27000254000509
 31
0.0
  0
ARC
  5
BB
  8
DEFAULT
 10
-113.7299974599949
 20
29.27000254000508
 30
0.0
 40
0.4064008128016257
 50
359.9999999999995
 51
179.9999999999995
210
0.0
220
0.0
230
-1.0
  0
LINE
  5
BC
  8
DEFAULT
 10
114.1363982727965
 20
29.27000254000508
 30
0.0
 11
114.1363982727965
 21
29.26492252984498
 31
0.0
  0
ARC
  5
BD
  8
DEFAULT
 10
-113.7299974599949
 20
29.26492252984498
 30
0.0
 40
0.4064008128016257
 50
179.9999999999995
 51
359.9999999999995
210
0.0
220
0.0
230
-1.0
  0
LINE
  5
BE
  8
DEFAULT
 10
113.3235966471933
 20
29.26492252984497
 30
0.0
 11
113.3235966471933
 21
29.27000254000507
 31
0.0
  0
ARC
  5
BF
  8
DEFAULT
 10
-118.8100076200152
 20
29.27508255016521
 30
0.0
 40
0.4064008128016257
 50
359.9999999999995
 51
179.9999999999995
210
0.0
220
0.0
230
-1.0
  0
LINE
  5
C0
  8
DEFAULT
 10
119.2164084328168
 20
29.27508255016521
 30
0.0
 11
119.2164084328168
 21
29.27000254000511
 31
0.0
  0
ARC
  5
C1
  8
DEFAULT
 10
-118.8100076200152
 20
29.27000254000511
 30
0.0
 40
0.4064008128016257
 50
179.9999999999995
 51
359.9999999999995
210
0.0
220
0.0
230
-1.0
  0
LINE
  5
C2
  8
DEFAULT
 10
118.4036068072135
 20
29.27000254000511
 30
0.0
 11
118.4036068072135
 21
29.27508255016521
 31
0.0
  0
ARC
  5
C3
  8
DEFAULT
 10
-121.3500127000253
 20
29.28016256032532
 30
0.0
 40
0.4064008128016257
 50
359.9999999999995
 51
179.9999999999995
210
0.0
220
0.0
230
-1.0
  0
LINE
  5
C4
  8
DEFAULT
 10
121.7564135128269
 20
29.28016256032532
 30
0.0
 11
121.7564135128269
 21
29.27508255016522
 31
0.0
  0
ARC
  5
C5
  8
DEFAULT
 10
-121.3500127000253
 20
29.27508255016522
 30
0.0
 40
0.4064008128016257
 50
179.9999999999995
 51
359.9999999999995
210
0.0
220
0.0
230
-1.0
  0
LINE
  5
C6
  8
DEFAULT
 10
120.9436118872237
 20
29.27508255016522
 30
0.0
 11
120.9436118872237
 21
29.28016256032532
 31
0.0
  0
ARC
  5
C7
  8
DEFAULT
 10
111.4071750362488
 20
37.3380746761494
 30
0.0
 40
0.8382016764033271
 50
30.73438471147454
 51
327.647863224549
  0
ARC
  5
C8
  8
DEFAULT
 10
-112.5376546852051
 20
36.62197448062901
 30
0.0
 40
0.5
 50
32.3521367754509
 51
90.0
210
0.0
220
0.0
230
-1.0
  0
LINE
  5
C9
  8
DEFAULT
 10
112.5376546852051
 20
37.12197448062901
 30
0.0
 11
117.2766953872925
 21
37.121974480629
 31
0.0
  0
ARC
  5
CA
  8
DEFAULT
 10
-117.2766953872925
 20
36.621974480629
 30
0.0
 40
0.5
 50
90.00000000000162
 51
147.6478632245527
210
0.0
220
0.0
230
-1.0
  0
ARC
  5
CB
  8
DEFAULT
 10
118.4071750362488
 20
37.33807467614944
 30
0.0
 40
0.8382016764033662
 50
212.3521367754556
 51
149.2656152885326
  0
ARC
  5
CC
  8
DEFAULT
 10
-117.256929504129
 20
38.02197448062896
 30
0.0
 40
0.5
 50
210.734384711474
 51
270.0
210
0.0
220
0.0
230
-1.0
  0
LINE
  5
CD
  8
DEFAULT
 10
117.256929504129
 20
37.52197448062896
 30
0.0
 11
112.5574205683686
 21
37.52197448062898
 31
0.0
  0
ARC
  5
CE
  8
DEFAULT
 10
-112.5574205683686
 20
38.02197448062898
 30
0.0
 40
0.5
 50
269.9999999999984
 51
329.2656152885281
210
0.0
220
0.0
230
-1.0
  0
LINE
  5
CF
  8
DEFAULT
 10
117.2666559760274
 20
40.07807975615989
 30
0.0
 11
112.5476940964702
 21
40.07807975615987
 31
0.0
  0
ARC
  5
D0
  8
DEFAULT
 10
-112.5476940964702
 20
40.57807975615987
 30
0.0
 40
0.5
 50
269.9999999999984
 51
328.4602439578846
210
0.0
220
0.0
230
-1.0
  0
ARC
  5
D1
  8
DEFAULT
 10
111.4071750362488
 20
39.87807975615953
 30
0.0
 40
0.8382016764034099
 50
31.5397560421113
 51
328.460243957921
  0
ARC
  5
D2
  8
DEFAULT
 10
-112.5476940964706
 20
39.17807975615988
 30
0.0
 40
0.5
 50
31.53975604207584
 51
90.0
210
0.0
220
0.0
230
-1.0
  0
LINE
  5
D3
  8
DEFAULT
 10
112.5476940964706
 20
39.67807975615988
 30
0.0
 11
117.266655976027
 21
39.67807975615989
 31
0.0
  0
ARC
  5
D4
  8
DEFAULT
 10
-117.266655976027
 20
39.17807975615989
 30
0.0
 40
0.5
 50
90.00000000000162
 51
148.4602439579228
210
0.0
220
0.0
230
-1.0
  0
ARC
  5
D5
  8
DEFAULT
 10
118.4071750362488
 20
39.87807975615954
 30
0.0
 40
0.8382016764033675
 50
211.5397560420806
 51
148.4602439578862
  0
ARC
  5
D6
  8
DEFAULT
 10
-117.2666559760274
 20
40.57807975615989
 30
0.0
 40
0.5
 50
211.5397560421153
 51
270.0
210
0.0
220
0.0
230
-1.0
  0
ARC
  5
D7
  8
DEFAULT
 10
111.4620269240538
 20
42.41808483616965
 30
0.0
 40
0.8382016764034105
 50
31.53975604211481
 51
328.4602439579257
  0
ARC
  5
D8
  8
DEFAULT
 10
-112.6025459842757
 20
41.71808483617004
 30
0.0
 40
0.5
 50
31.53975604208031
 51
90.00000000000325
210
0.0
220
0.0
230
-1.0
  0
LINE
  5
D9
  8
DEFAULT
 10
112.6025459842757
 20
42.21808483617004
 30
0.0
 11
117.321507863832
 21
42.21808483617004
 31
0.0
  0
ARC
  5
DA
  8
DEFAULT
 10
-117.321507863832
 20
41.71808483617004
 30
0.0
 40
0.5
 50
90.0
 51
148.4602439579206
210
0.0
220
0.0
230
-1.0
  0
ARC
  5
DB
  8
DEFAULT
 10
118.4620269240538
 20
42.41808483616968
 30
0.0
 40
0.8382016764033092
 50
211.539756042081
 51
148.4602439578851
  0
ARC
  5
DC
  8
DEFAULT
 10
-117.3215078638324
 20
43.11808483617002
 30
0.0
 40
0.5
 50
211.5397560421167
 51
269.9999999999984
210
0.0
220
0.0
230
-1.0
  0
LINE
  5
DD
  8
DEFAULT
 10
117.3215078638325
 20
42.61808483617002
 30
0.0
 11
112.6025459842752
 21
42.61808483617001
 31
0.0
  0
ARC
  5
DE
  8
DEFAULT
 10
-112.6025459842752
 20
43.11808483617001
 30
0.0
 40
0.5
 50
269.9999999999984
 51
328.4602439578876
210
0.0
220
0.0
230
-1.0
  0
ARC
  5
DF
  8
DEFAULT
 10
118.4620269240538
 20
44.95808991617989
 30
0.0
 40
0.8382016764033475
 50
211.5397560420842
 51
148.4602439578901
  0
ARC
  5
E0
  8
DEFAULT
 10
-117.3215078638324
 20
45.65808991618015
 30
0.0
 40
0.5
 50
211.5397560421102
 51
270.0000000000016
210
0.0
220
0.0
230
-1.0
  0
LINE
  5
E1
  8
DEFAULT
 10
117.3215078638324
 20
45.15808991618015
 30
0.0
 11
112.6025459842753
 21
45.15808991618014
 31
0.0
  0
ARC
  5
E2
  8
DEFAULT
 10
-112.6025459842753
 20
45.65808991618014
 30
0.0
 40
0.5
 50
269.9999999999968
 51
328.4602439578883
210
0.0
220
0.0
230
-1.0
  0
ARC
  5
E3
  8
DEFAULT
 10
111.4620269240539
 20
44.95808991617994
 30
0.0
 40
0.8382016764032884
 50
31.53975604210722
 51
328.4602439579115
  0
ARC
  5
E4
  8
DEFAULT
 10
-112.6025459842755
 20
44.25808991618017
 30
0.0
 40
0.5
 50
31.53975604208687
 51
90.0
210
0.0
220
0.0
230
-1.0
  0
LINE
  5
E5
  8
DEFAULT
 10
112.6025459842755
 20
44.75808991618017
 30
0.0
 11
117.3215078638321
 21
44.75808991618015
 31
0.0
  0
ARC
  5
E6
  8
DEFAULT
 10
-117.3215078638321
 20
44.25808991618015
 30
0.0
 40
0.5
 50
90.0
 51
148.4602439579154
210
0.0
220
0.0
230
-1.0
  0
ARC
  5
E7
  8
DEFAULT
 10
111.4620269240538
 20
47.49809499619005
 30
0.0
 40
0.8382016764033414
 50
31.53975604210828
 51
328.4602439579149
  0
ARC
  5
E8
  8
DEFAULT
 10
-112.6025459842756
 20
46.79809499619029
 30
0.0
 40
0.5
 50
31.53975604208464
 51
89.99999999999837
210
0.0
220
0.0
230
-1.0
  0
LINE
  5
E9
  8
DEFAULT
 10
112.6025459842756
 20
47.29809499619029
 30
0.0
 11
117.3215078638321
 21
47.29809499619028
 31
0.0
  0
ARC
  5
EA
  8
DEFAULT
 10
-117.3215078638321
 20
46.79809499619028
 30
0.0
 40
0.5
 50
90.00000000000162
 51
148.460243957914
210
0.0
220
0.0
230
-1.0
  0
ARC
  5
EB
  8
DEFAULT
 10
118.4620269240538
 20
47.49809499619004
 30
0.0
 40
0.8382016764032916
 50
211.5397560420871
 51
148.4602439578889
  0
ARC
  5
EC
  8
DEFAULT
 10
-117.3215078638324
 20
48.19809499619028
 30
0.0
 40
0.5
 50
211.5397560421102
 51
270.0000000000049
210
0.0
220
0.0
230
-1.0
  0
LINE
  5
ED
  8
DEFAULT
 10
117.3215078638323
 20
47.69809499619028
 30
0.0
 11
112.6025459842753
 21
47.69809499619026
 31
0.0
  0
ARC
  5
EE
  8
DEFAULT
 10
-112.6025459842753
 20
48.19809499619026
 30
0.0
 40
0.5
 50
270.0000000000016
 51
328.460243957892
210
0.0
220
0.0
230
-1.0
  0
LINE
  5
EF
  8
DEFAULT
 10
117.3215078638324
 20
50.23810007620042
 30
0.0
 11
112.6025459842753
 21
50.23810007620042
 31
0.0
  0
ARC
  5
F0
  8
DEFAULT
 10
-112.6025459842753
 20
50.73810007620042
 30
0.0
 40
0.5
 50
270.0
 51
328.4602439578941
210
0.0
220
0.0
230
-1.0
  0
ARC
  5
F1
  8
DEFAULT
 10
111.4620269240538
 20
50.0381000762002
 30
0.0
 40
0.8382016764033644
 50
31.53975604210985
 51
328.4602439579141
  0
ARC
  5
F2
  8
DEFAULT
 10
-112.6025459842756
 20
49.33810007620043
 30
0.0
 40
0.5
 50
31.53975604208533
 51
90.00000000000162
210
0.0
220
0.0
230
-1.0
  0
LINE
  5
F3
  8
DEFAULT
 10
112.6025459842756
 20
49.83810007620043
 30
0.0
 11
117.3215078638321
 21
49.83810007620045
 31
0.0
  0
ARC
  5
F4
  8
DEFAULT
 10
-117.3215078638321
 20
49.33810007620045
 30
0.0
 40
0.5
 50
90.0
 51
148.4602439579147
210
0.0
220
0.0
230
-1.0
  0
ARC
  5
F5
  8
DEFAULT
 10
118.4620269240538
 20
50.03810007620018
 30
0.0
 40
0.8382016764033529
 50
211.5397560420828
 51
148.4602439578905
  0
ARC
  5
F6
  8
DEFAULT
 10
-117.3215078638324
 20
50.73810007620042
 30
0.0
 40
0.5
 50
211.5397560421102
 51
270.0
210
0.0
220
0.0
230
-1.0
  0
ARC
  5
F7
  8
DEFAULT
 10
111.407175036249
 20
52.57810515621035
 30
0.0
 40
0.8382016764032039
 50
31.53975604211253
 51
328.4602439579106
  0
ARC
  5
F8
  8
DEFAULT
 10
-112.5476940964705
 20
51.87810515621057
 30
0.0
 40
0.5
 50
31.5397560420912
 51
89.99999999999675
210
0.0
220
0.0
230
-1.0
  0
LINE
  5
F9
  8
DEFAULT
 10
112.5476940964705
 20
52.37810515621057
 30
0.0
 11
117.2666559760271
 21
52.37810515621057
 31
0.0
  0
ARC
  5
FA
  8
DEFAULT
 10
-117.2666559760271
 20
51.87810515621057
 30
0.0
 40
0.5
 50
90.0
 51
148.4602439579124
210
0.0
220
0.0
230
-1.0
  0
ARC
  5
FB
  8
DEFAULT
 10
118.4071750362488
 20
52.57810515621033
 30
0.0
 40
0.8382016764033904
 50
211.5397560420822
 51
148.4602439578934
  0
ARC
  5
FC
  8
DEFAULT
 10
-117.2666559760274
 20
53.27810515621054
 30
0.0
 40
0.5
 50
211.5397560421081
 51
269.9999999999984
210
0.0
220
0.0
230
-1.0
  0
LINE
  5
FD
  8
DEFAULT
 10
117.2666559760274
 20
52.77810515621054
 30
0.0
 11
112.5476940964703
 21
52.77810515621054
 31
0.0
  0
ARC
  5
FE
  8
DEFAULT
 10
-112.5476940964703
 20
53.27810515621054
 30
0.0
 40
0.5
 50
270.0
 51
328.4602439578912
210
0.0
220
0.0
230
-1.0
  0
ARC
  5
FF
  8
DEFAULT
 10
-118.4071750362488
 20
55.11811023622056
 30
0.0
 40
0.8382016764033674
 50
31.53975604210284
 51
328.460243957912
210
0.0
220
0.0
230
-1.0
  0
ARC
  5
100
  8
DEFAULT
 10
117.2666559760271
 20
54.41811023622071
 30
0.0
 40
0.5
 50
31.53975604209189
 51
90.00000000000162
  0
LINE
  5
101
  8
DEFAULT
 10
117.2666559760271
 20
54.91811023622071
 30
0.0
 11
112.5476940964705
 21
54.9181102362207
 31
0.0
  0
ARC
  5
102
  8
DEFAULT
 10
112.5476940964705
 20
54.4181102362207
 30
0.0
 40
0.5
 50
90.0
 51
148.4602439579154
  0
ARC
  5
103
  8
DEFAULT
 10
-111.4071750362487
 20
55.11811023622059
 30
0.0
 40
0.8382016764034761
 50
211.5397560420908
 51
148.4602439579057
210
0.0
220
0.0
230
-1.0
  0
ARC
  5
104
  8
DEFAULT
 10
112.5476940964704
 20
55.81811023622067
 30
0.0
 40
0.5
 50
211.5397560421043
 51
270.0
  0
LINE
  5
105
  8
DEFAULT
 10
112.5476940964704
 20
55.31811023622067
 30
0.0
 11
117.2666559760273
 21
55.31811023622068
 31
0.0
  0
ARC
  5
106
  8
DEFAULT
 10
117.2666559760273
 20
55.81811023622068
 30
0.0
 40
0.5
 50
269.9999999999984
 51
328.460243957897
  0
ARC
  5
107
  8
DEFAULT
 10
111.4071750362488
 20
57.65811531623071
 30
0.0
 40
0.838201676403373
 50
31.53975604209883
 51
328.4602439579077
  0
ARC
  5
108
  8
DEFAULT
 10
-112.5476940964705
 20
56.95811531623082
 30
0.0
 40
0.5
 50
31.53975604208827
 51
90.00000000000162
210
0.0
220
0.0
230
-1.0
  0
LINE
  5
109
  8
DEFAULT
 10
112.5476940964705
 20
57.45811531623082
 30
0.0
 11
117.2666559760272
 21
57.45811531623082
 31
0.0
  0
ARC
  5
10A
  8
DEFAULT
 10
-117.2666559760272
 20
56.95811531623082
 30
0.0
 40
0.5
 50
89.99999999999837
 51
148.4602439579095
210
0.0
220
0.0
230
-1.0
  0
ARC
  5
10B
  8
DEFAULT
 10
118.4071750362488
 20
57.65811531623072
 30
0.0
 40
0.8382016764033263
 50
211.539756042094
 51
148.4602439579017
  0
ARC
  5
10C
  8
DEFAULT
 10
-117.2666559760273
 20
58.35811531623079
 30
0.0
 40
0.5
 50
211.5397560421072
 51
270.0000000000016
210
0.0
220
0.0
230
-1.0
  0
LINE
  5
10D
  8
DEFAULT
 10
117.2666559760273
 20
57.85811531623079
 30
0.0
 11
112.5476940964704
 21
57.85811531623079
 31
0.0
  0
ARC
  5
10E
  8
DEFAULT
 10
-112.5476940964704
 20
58.35811531623079
 30
0.0
 40
0.5
 50
270.0
 51
328.4602439578948
210
0.0
220
0.0
230
-1.0
  0
LINE
  5
10F
  8
DEFAULT
 10
117.3215078638323
 20
60.39812039624096
 30
0.0
 11
112.6025459842753
 21
60.39812039624095
 31
0.0
  0
ARC
  5
110
  8
DEFAULT
 10
-112.6025459842753
 20
60.89812039624095
 30
0.0
 40
0.5
 50
270.0
 51
328.4602439578964
210
0.0
220
0.0
230
-1.0
  0
ARC
  5
111
  8
DEFAULT
 10
111.4620269240538
 20
60.1981203962408
 30
0.0
 40
0.8382016764033905
 50
31.53975604210357
 51
328.4602439579107
  0
ARC
  5
112
  8
DEFAULT
 10
-112.6025459842755
 20
59.49812039624094
 30
0.0
 40
0.5
 50
31.53975604208981
 51
90.0
210
0.0
220
0.0
230
-1.0
  0
LINE
  5
113
  8
DEFAULT
 10
112.6025459842755
 20
59.99812039624094
 30
0.0
 11
117.3215078638321
 21
59.99812039624096
 31
0.0
  0
ARC
  5
114
  8
DEFAULT
 10
-117.3215078638321
 20
59.49812039624096
 30
0.0
 40
0.5
 50
90.0
 51
148.4602439579124
210
0.0
220
0.0
230
-1.0
  0
ARC
  5
115
  8
DEFAULT
 10
118.4620269240539
 20
60.19812039624078
 30
0.0
 40
0.8382016764034456
 50
211.5397560420854
 51
148.4602439578972
  0
ARC
  5
116
  8
DEFAULT
 10
-117.3215078638323
 20
60.89812039624096
 30
0.0
 40
0.5
 50
211.5397560421043
 51
270.0000000000016
210
0.0
220
0.0
230
-1.0
  0
ARC
  5
117
  8
DEFAULT
 10
111.4620269240538
 20
62.73812547625094
 30
0.0
 40
0.8382016764033833
 50
31.53975604210192
 51
328.4602439579121
  0
ARC
  5
118
  8
DEFAULT
 10
-112.6025459842755
 20
62.03812547625109
 30
0.0
 40
0.5
 50
31.5397560420905
 51
90.00000000000162
210
0.0
220
0.0
230
-1.0
  0
LINE
  5
119
  8
DEFAULT
 10
112.6025459842755
 20
62.53812547625109
 30
0.0
 11
117.3215078638322
 21
62.53812547625109
 31
0.0
  0
ARC
  5
11A
  8
DEFAULT
 10
-117.3215078638322
 20
62.03812547625109
 30
0.0
 40
0.5
 50
89.99999999999837
 51
148.4602439579066
210
0.0
220
0.0
230
-1.0
  0
ARC
  5
11B
  8
DEFAULT
 10
118.4620269240537
 20
62.73812547625096
 30
0.0
 40
0.838201676403287
 50
211.5397560420933
 51
148.460243957895
  0
ARC
  5
11C
  8
DEFAULT
 10
-117.3215078638323
 20
63.43812547625107
 30
0.0
 40
0.5
 50
211.5397560421036
 51
269.9999999999984
210
0.0
220
0.0
230
-1.0
  0
LINE
  5
11D
  8
DEFAULT
 10
117.3215078638323
 20
62.93812547625107
 30
0.0
 11
112.6025459842754
 21
62.93812547625107
 31
0.0
  0
ARC
  5
11E
  8
DEFAULT
 10
-112.6025459842753
 20
63.43812547625107
 30
0.0
 40
0.5
 50
269.9999999999984
 51
328.4602439578964
210
0.0
220
0.0
230
-1.0
  0
ARC
  5
11F
  8
DEFAULT
 10
-118.4620269240538
 20
65.2781305562611
 30
0.0
 40
0.8382016764033096
 50
31.53975604210579
 51
328.460243957909
210
0.0
220
0.0
230
-1.0
  0
ARC
  5
120
  8
DEFAULT
 10
117.3215078638321
 20
64.57813055626124
 30
0.0
 40
0.5
 50
31.53975604209189
 51
90.0
  0
LINE
  5
121
  8
DEFAULT
 10
117.3215078638321
 20
65.07813055626124
 30
0.0
 11
112.6025459842755
 21
65.07813055626123
 31
0.0
  0
ARC
  5
122
  8
DEFAULT
 10
112.6025459842755
 20
64.57813055626123
 30
0.0
 40
0.5
 50
90.0
 51
148.4602439579059
  0
ARC
  5
123
  8
DEFAULT
 10
-111.462026924054
 20
65.27813055626108
 30
0.0
 40
0.838201676403208
 50
211.5397560420929
 51
148.4602439578945
210
0.0
220
0.0
230
-1.0
  0
ARC
  5
124
  8
DEFAULT
 10
112.6025459842753
 20
65.97813055626118
 30
0.0
 40
0.5
 50
211.5397560421072
 51
270.0
  0
LINE
  5
125
  8
DEFAULT
 10
112.6025459842753
 20
65.47813055626118
 30
0.0
 11
117.3215078638323
 21
65.47813055626122
 31
0.0
  0
ARC
  5
126
  8
DEFAULT
 10
117.3215078638323
 20
65.97813055626122
 30
0.0
 40
0.5
 50
270.0
 51
328.4602439578986
  0
LINE
  5
127
  8
DEFAULT
 10
112.6025459842754
 20
68.01813563627134
 30
0.0
 11
117.3215078638322
 21
68.01813563627132
 31
0.0
  0
ARC
  5
128
  8
DEFAULT
 10
117.3215078638322
 20
68.51813563627132
 30
0.0
 40
0.5
 50
270.0000000000032
 51
328.460243957905
  0
ARC
  5
129
  8
DEFAULT
 10
-118.462026924054
 20
67.81813563627134
 30
0.0
 40
0.8382016764034912
 50
31.53975604209251
 51
328.4602439579062
210
0.0
220
0.0
230
-1.0
  0
ARC
  5
12A
  8
DEFAULT
 10
117.3215078638322
 20
67.11813563627136
 30
0.0
 40
0.5
 50
31.5397560420905
 51
90.00000000000162
  0
LINE
  5
12B
  8
DEFAULT
 10
117.3215078638322
 20
67.61813563627136
 30
0.0
 11
112.6025459842754
 21
67.61813563627138
 31
0.0
  0
ARC
  5
12C
  8
DEFAULT
 10
112.6025459842755
 20
67.11813563627138
 30
0.0
 40
0.5
 50
90.00000000000162
 51
148.4602439579095
  0
ARC
  5
12D
  8
DEFAULT
 10
-111.4620269240537
 20
67.81813563627128
 30
0.0
 40
0.8382016764034447
 50
211.539756042091
 51
148.460243957902
210
0.0
220
0.0
230
-1.0
  0
ARC
  5
12E
  8
DEFAULT
 10
112.6025459842754
 20
68.51813563627134
 30
0.0
 40
0.5
 50
211.5397560420978
 51
270.0
  0
ARC
  5
12F
  8
DEFAULT
 10
-118.4097150413288
 20
37.3380746761494
 30
0.0
 40
0.4064008128016257
 50
90.0
 51
270.0
210
0.0
220
0.0
230
-1.0
  0
LINE
  5
130
  8
DEFAULT
 10
118.4097150413288
 20
36.93167386334778
 30
0.0
 11
118.4046350311687
 21
36.93167386334778
 31
0.0
  0
ARC
  5
131
  8
DEFAULT
 10
-118.4046350311687
 20
37.3380746761494
 30
0.0
 40
0.4064008128016257
 50
270.0
 51
90.0
210
0.0
220
0.0
230
-1.0
  0
LINE
  5
132
  8
DEFAULT
 10
118.4046350311687
 20
37.74447548895103
 30
0.0
 11
118.4097150413288
 21
37.74447548895103
 31
0.0
  0
ARC
  5
133
  8
DEFAULT
 10
-118.4097150413288
 20
39.87807975615954
 30
0.0
 40
0.4064008128016257
 50
90.0
 51
270.0
210
0.0
220
0.0
230
-1.0
  0
LINE
  5
134
  8
DEFAULT
 10
118.4097150413288
 20
39.47167894335791
 30
0.0
 11
118.4046350311687
 21
39.47167894335791
 31
0.0
  0
ARC
  5
135
  8
DEFAULT
 10
-118.4046350311687
 20
39.87807975615954
 30
0.0
 40
0.4064008128016257
 50
270.0
 51
90.0
210
0.0
220
0.0
230
-1.0
  0
LINE
  5
136
  8
DEFAULT
 10
118.4046350311687
 20
40.28448056896116
 30
0.0
 11
118.4097150413288
 21
40.28448056896116
 31
0.0
  0
ARC
  5
137
  8
DEFAULT
 10
-118.4097150413288
 20
52.57810515621031
 30
0.0
 40
0.4064008128016257
 50
90.0
 51
270.0
210
0.0
220
0.0
230
-1.0
  0
LINE
  5
138
  8
DEFAULT
 10
118.4097150413288
 20
52.17170434340868
 30
0.0
 11
118.4046350311687
 21
52.17170434340868
 31
0.0
  0
ARC
  5
139
  8
DEFAULT
 10
-118.4046350311687
 20
52.57810515621031
 30
0.0
 40
0.4064008128016257
 50
270.0
 51
90.0
210
0.0
220
0.0
230
-1.0
  0
LINE
  5
13A
  8
DEFAULT
 10
118.4046350311687
 20
52.98450596901194
 30
0.0
 11
118.4097150413288
 21
52.98450596901194
 31
0.0
  0
ARC
  5
13B
  8
DEFAULT
 10
-118.4097150413288
 20
55.11811023622056
 30
0.0
 40
0.4064008128016257
 50
90.0
 51
270.0
210
0.0
220
0.0
230
-1.0
  0
LINE
  5
13C
  8
DEFAULT
 10
118.4097150413288
 20
54.71170942341893
 30
0.0
 11
118.4046350311687
 21
54.71170942341893
 31
0.0
  0
ARC
  5
13D
  8
DEFAULT
 10
-118.4046350311687
 20
55.11811023622056
 30
0.0
 40
0.4064008128016257
 50
270.0
 51
90.0
210
0.0
220
0.0
230
-1.0
  0
LINE
  5
13E
  8
DEFAULT
 10
118.4046350311687
 20
55.52451104902219
 30
0.0
 11
118.4097150413288
 21
55.52451104902219
 31
0.0
  0
ARC
  5
13F
  8
DEFAULT
 10
-118.4097150413288
 20
57.65811531623069
 30
0.0
 40
0.4064008128016257
 50
90.0
 51
270.0
210
0.0
220
0.0
230
-1.0
  0
LINE
  5
140
  8
DEFAULT
 10
118.4097150413288
 20
57.25171450342906
 30
0.0
 11
118.4046350311687
 21
57.25171450342906
 31
0.0
  0
ARC
  5
141
  8
DEFAULT
 10
-118.4046350311687
 20
57.65811531623069
 30
0.0
 40
0.4064008128016257
 50
270.0
 51
90.0
210
0.0
220
0.0
230
-1.0
  0
LINE
  5
142
  8
DEFAULT
 10
118.4046350311687
 20
58.06451612903232
 30
0.0
 11
118.4097150413288
 21
58.06451612903232
 31
0.0
  0
ARC
  5
143
  8
DEFAULT
 10
118.4594869189739
 20
42.41808483616967
 30
0.0
 40
0.4064008128016257
 50
90.0
 51
270.0
  0
LINE
  5
144
  8
DEFAULT
 10
118.4594869189739
 20
42.01168402336804
 30
0.0
 11
118.464566929134
 21
42.01168402336804
 31
0.0
  0
ARC
  5
145
  8
DEFAULT
 10
118.464566929134
 20
42.41808483616967
 30
0.0
 40
0.4064008128016257
 50
270.0
 51
90.0
  0
LINE
  5
146
  8
DEFAULT
 10
118.464566929134
 20
42.8244856489713
 30
0.0
 11
118.4594869189739
 21
42.8244856489713
 31
0.0
  0
ARC
  5
147
  8
DEFAULT
 10
118.4594869189739
 20
44.95808991617992
 30
0.0
 40
0.4064008128016257
 50
90.0
 51
270.0
  0
LINE
  5
148
  8
DEFAULT
 10
118.4594869189739
 20
44.55168910337829
 30
0.0
 11
118.464566929134
 21
44.55168910337829
 31
0.0
  0
ARC
  5
149
  8
DEFAULT
 10
118.464566929134
 20
44.95808991617992
 30
0.0
 40
0.4064008128016257
 50
270.0
 51
90.0
  0
LINE
  5
14A
  8
DEFAULT
 10
118.464566929134
 20
45.36449072898154
 30
0.0
 11
118.4594869189739
 21
45.36449072898154
 31
0.0
  0
ARC
  5
14B
  8
DEFAULT
 10
118.4594869189739
 20
47.49809499619005
 30
0.0
 40
0.4064008128016257
 50
90.0
 51
270.0
  0
LINE
  5
14C
  8
DEFAULT
 10
118.4594869189739
 20
47.09169418338842
 30
0.0
 11
118.464566929134
 21
47.09169418338842
 31
0.0
  0
ARC
  5
14D
  8
DEFAULT
 10
118.464566929134
 20
47.49809499619005
 30
0.0
 40
0.4064008128016257
 50
270.0
 51
90.0
  0
LINE
  5
14E
  8
DEFAULT
 10
118.464566929134
 20
47.90449580899168
 30
0.0
 11
118.4594869189739
 21
47.90449580899168
 31
0.0
  0
ARC
  5
14F
  8
DEFAULT
 10
118.4594869189739
 20
50.03810007620018
 30
0.0
 40
0.4064008128016257
 50
90.0
 51
270.0
  0
LINE
  5
150
  8
DEFAULT
 10
118.4594869189739
 20
49.63169926339855
 30
0.0
 11
118.464566929134
 21
49.63169926339855
 31
0.0
  0
ARC
  5
151
  8
DEFAULT
 10
118.464566929134
 20
50.03810007620018
 30
0.0
 40
0.4064008128016257
 50
270.0
 51
90.0
  0
LINE
  5
152
  8
DEFAULT
 10
118.464566929134
 20
50.44450088900181
 30
0.0
 11
118.4594869189739
 21
50.44450088900181
 31
0.0
  0
ARC
  5
153
  8
DEFAULT
 10
118.4594869189739
 20
60.19812039624082
 30
0.0
 40
0.4064008128016257
 50
90.0
 51
270.0
  0
LINE
  5
154
  8
DEFAULT
 10
118.4594869189739
 20
59.7917195834392
 30
0.0
 11
118.464566929134
 21
59.7917195834392
 31
0.0
  0
ARC
  5
155
  8
DEFAULT
 10
118.464566929134
 20
60.19812039624082
 30
0.0
 40
0.4064008128016257
 50
270.0
 51
90.0
  0
LINE
  5
156
  8
DEFAULT
 10
118.464566929134
 20
60.60452120904245
 30
0.0
 11
118.4594869189739
 21
60.60452120904245
 31
0.0
  0
ARC
  5
157
  8
DEFAULT
 10
118.4594869189739
 20
62.73812547625096
 30
0.0
 40
0.4064008128016257
 50
90.0
 51
270.0
  0
LINE
  5
158
  8
DEFAULT
 10
118.4594869189739
 20
62.33172466344933
 30
0.0
 11
118.464566929134
 21
62.33172466344933
 31
0.0
  0
ARC
  5
159
  8
DEFAULT
 10
118.464566929134
 20
62.73812547625096
 30
0.0
 40
0.4064008128016257
 50
270.0
 51
90.0
  0
LINE
  5
15A
  8
DEFAULT
 10
118.464566929134
 20
63.14452628905259
 30
0.0
 11
118.4594869189739
 21
63.14452628905259
 31
0.0
  0
ARC
  5
15B
  8
DEFAULT
 10
118.4594869189739
 20
65.27813055626109
 30
0.0
 40
0.4064008128016257
 50
90.0
 51
270.0
  0
LINE
  5
15C
  8
DEFAULT
 10
118.4594869189739
 20
64.87172974345947
 30
0.0
 11
118.464566929134
 21
64.87172974345947
 31
0.0
  0
ARC
  5
15D
  8
DEFAULT
 10
118.464566929134
 20
65.27813055626109
 30
0.0
 40
0.4064008128016257
 50
270.0
 51
90.0
  0
LINE
  5
15E
  8
DEFAULT
 10
118.464566929134
 20
65.68453136906271
 30
0.0
 11
118.4594869189739
 21
65.68453136906271
 31
0.0
  0
ARC
  5
15F
  8
DEFAULT
 10
118.4594869189739
 20
67.81813563627134
 30
0.0
 40
0.4064008128016257
 50
90.0
 51
270.0
  0
LINE
  5
160
  8
DEFAULT
 10
118.4594869189739
 20
67.41173482346971
 30
0.0
 11
118.464566929134
 21
67.41173482346971
 31
0.0
  0
ARC
  5
161
  8
DEFAULT
 10
118.464566929134
 20
67.81813563627134
 30
0.0
 40
0.4064008128016257
 50
270.0
 51
90.0
  0
LINE
  5
162
  8
DEFAULT
 10
118.464566929134
 20
68.22453644907296
 30
0.0
 11
118.4594869189739
 21
68.22453644907296
 31
0.0
  0
ARC
  5
163
  8
DEFAULT
 10
111.4594869189739
 20
67.81813563627134
 30
0.0
 40
0.4064008128016257
 50
90.0
 51
270.0
  0
LINE
  5
164
  8
DEFAULT
 10
111.4594869189739
 20
67.41173482346971
 30
0.0
 11
111.464566929134
 21
67.41173482346971
 31
0.0
  0
ARC
  5
165
  8
DEFAULT
 10
111.464566929134
 20
67.81813563627134
 30
0.0
 40
0.4064008128016257
 50
270.0
 51
90.0
  0
LINE
  5
166
  8
DEFAULT
 10
111.464566929134
 20
68.22453644907296
 30
0.0
 11
111.4594869189739
 21
68.22453644907296
 31
0.0
  0
ARC
  5
167
  8
DEFAULT
 10
111.4594869189739
 20
65.27813055626109
 30
0.0
 40
0.4064008128016257
 50
90.0
 51
270.0
  0
LINE
  5
168
  8
DEFAULT
 10
111.4594869189739
 20
64.87172974345947
 30
0.0
 11
111.464566929134
 21
64.87172974345947
 31
0.0
  0
ARC
  5
169
  8
DEFAULT
 10
111.464566929134
 20
65.27813055626109
 30
0.0
 40
0.4064008128016257
 50
270.0
 51
90.0
  0
LINE
  5
16A
  8
DEFAULT
 10
111.464566929134
 20
65.68453136906271
 30
0.0
 11
111.4594869189739
 21
65.68453136906271
 31
0.0
  0
ARC
  5
16B
  8
DEFAULT
 10
111.4594869189739
 20
62.73812547625096
 30
0.0
 40
0.4064008128016257
 50
90.0
 51
270.0
  0
LINE
  5
16C
  8
DEFAULT
 10
111.4594869189739
 20
62.33172466344933
 30
0.0
 11
111.464566929134
 21
62.33172466344933
 31
0.0
  0
ARC
  5
16D
  8
DEFAULT
 10
111.464566929134
 20
62.73812547625096
 30
0.0
 40
0.4064008128016257
 50
270.0
 51
90.0
  0
LINE
  5
16E
  8
DEFAULT
 10
111.464566929134
 20
63.14452628905259
 30
0.0
 11
111.4594869189739
 21
63.14452628905259
 31
0.0
  0
ARC
  5
16F
  8
DEFAULT
 10
111.4594869189739
 20
60.19812039624082
 30
0.0
 40
0.4064008128016257
 50
90.0
 51
270.0
  0
LINE
  5
170
  8
DEFAULT
 10
111.4594869189739
 20
59.7917195834392
 30
0.0
 11
111.464566929134
 21
59.7917195834392
 31
0.0
  0
ARC
  5
171
  8
DEFAULT
 10
111.464566929134
 20
60.19812039624082
 30
0.0
 40
0.4064008128016257
 50
270.0
 51
90.0
  0
LINE
  5
172
  8
DEFAULT
 10
111.464566929134
 20
60.60452120904245
 30
0.0
 11
111.4594869189739
 21
60.60452120904245
 31
0.0
  0
ARC
  5
173
  8
DEFAULT
 10
111.4594869189739
 20
50.03810007620018
 30
0.0
 40
0.4064008128016257
 50
90.0
 51
270.0
  0
LINE
  5
174
  8
DEFAULT
 10
111.4594869189739
 20
49.63169926339855
 30
0.0
 11
111.464566929134
 21
49.63169926339855
 31
0.0
  0
ARC
  5
175
  8
DEFAULT
 10
111.464566929134
 20
50.03810007620018
 30
0.0
 40
0.4064008128016257
 50
270.0
 51
90.0
  0
LINE
  5
176
  8
DEFAULT
 10
111.464566929134
 20
50.44450088900181
 30
0.0
 11
111.4594869189739
 21
50.44450088900181
 31
0.0
  0
ARC
  5
177
  8
DEFAULT
 10
111.4594869189739
 20
47.49809499619005
 30
0.0
 40
0.4064008128016257
 50
90.0
 51
270.0
  0
LINE
  5
178
  8
DEFAULT
 10
111.4594869189739
 20
47.09169418338842
 30
0.0
 11
111.464566929134
 21
47.09169418338842
 31
0.0
  0
ARC
  5
179
  8
DEFAULT
 10
111.464566929134
 20
47.49809499619005
 30
0.0
 40
0.4064008128016257
 50
270.0
 51
90.0
  0
LINE
  5
17A
  8
DEFAULT
 10
111.464566929134
 20
47.90449580899168
 30
0.0
 11
111.4594869189739
 21
47.90449580899168
 31
0.0
  0
ARC
  5
17B
  8
DEFAULT
 10
111.4594869189739
 20
44.95808991617992
 30
0.0
 40
0.4064008128016257
 50
90.0
 51
270.0
  0
LINE
  5
17C
  8
DEFAULT
 10
111.4594869189739
 20
44.55168910337829
 30
0.0
 11
111.464566929134
 21
44.55168910337829
 31
0.0
  0
ARC
  5
17D
  8
DEFAULT
 10
111.464566929134
 20
44.95808991617992
 30
0.0
 40
0.4064008128016257
 50
270.0
 51
90.0
  0
LINE
  5
17E
  8
DEFAULT
 10
111.464566929134
 20
45.36449072898154
 30
0.0
 11
111.4594869189739
 21
45.36449072898154
 31
0.0
  0
ARC
  5
17F
  8
DEFAULT
 10
111.4594869189739
 20
42.41808483616967
 30
0.0
 40
0.4064008128016257
 50
90.0
 51
270.0
  0
LINE
  5
180
  8
DEFAULT
 10
111.4594869189739
 20
42.01168402336804
 30
0.0
 11
111.464566929134
 21
42.01168402336804
 31
0.0
  0
ARC
  5
181
  8
DEFAULT
 10
111.464566929134
 20
42.41808483616967
 30
0.0
 40
0.4064008128016257
 50
270.0
 51
90.0
  0
LINE
  5
182
  8
DEFAULT
 10
111.464566929134
 20
42.8244856489713
 30
0.0
 11
111.4594869189739
 21
42.8244856489713
 31
0.0
  0
ARC
  5
183
  8
DEFAULT
 10
-111.4097150413288
 20
70.35814071628147
 30
0.0
 40
0.4064008128016257
 50
90.0
 51
270.0
210
0.0
220
0.0
230
-1.0
  0
LINE
  5
184
  8
DEFAULT
 10
111.4097150413288
 20
69.95173990347985
 30
0.0
 11
111.4046350311687
 21
69.95173990347985
 31
0.0
  0
ARC
  5
185
  8
DEFAULT
 10
-111.4046350311687
 20
70.35814071628147
 30
0.0
 40
0.4064008128016257
 50
270.0
 51
90.0
210
0.0
220
0.0
230
-1.0
  0
LINE
  5
186
  8
DEFAULT
 10
111.4046350311687
 20
70.76454152908309
 30
0.0
 11
111.4097150413288
 21
70.76454152908309
 31
0.0
  0
ARC
  5
187
  8
DEFAULT
 10
-111.4097150413288
 20
57.65811531623069
 30
0.0
 40
0.4064008128016257
 50
90.0
 51
270.0
210
0.0
220
0.0
230
-1.0
  0
LINE
  5
188
  8
DEFAULT
 10
111.4097150413288
 20
57.25171450342906
 30
0.0
 11
111.4046350311687
 21
57.25171450342906
 31
0.0
  0
ARC
  5
189
  8
DEFAULT
 10
-111.4046350311687
 20
57.65811531623069
 30
0.0
 40
0.4064008128016257
 50
270.0
 51
90.0
210
0.0
220
0.0
230
-1.0
  0
LINE
  5
18A
  8
DEFAULT
 10
111.4046350311687
 20
58.06451612903232
 30
0.0
 11
111.4097150413288
 21
58.06451612903232
 31
0.0
  0
ARC
  5
18B
  8
DEFAULT
 10
-111.4097150413288
 20
55.11811023622056
 30
0.0
 40
0.4064008128016257
 50
90.0
 51
270.0
210
0.0
220
0.0
230
-1.0
  0
LINE
  5
18C
  8
DEFAULT
 10
111.4097150413288
 20
54.71170942341893
 30
0.0
 11
111.4046350311687
 21
54.71170942341893
 31
0.0
  0
ARC
  5
18D
  8
DEFAULT
 10
-111.4046350311687
 20
55.11811023622056
 30
0.0
 40
0.4064008128016257
 50
270.0
 51
90.0
210
0.0
220
0.0
230
-1.0
  0
LINE
  5
18E
  8
DEFAULT
 10
111.4046350311687
 20
55.52451104902219
 30
0.0
 11
111.4097150413288
 21
55.52451104902219
 31
0.0
  0
ARC
  5
18F
  8
DEFAULT
 10
-111.4097150413288
 20
52.57810515621031
 30
0.0
 40
0.4064008128016257
 50
90.0
 51
270.0
210
0.0
220
0.0
230
-1.0
  0
LINE
  5
190
  8
DEFAULT
 10
111.4097150413288
 20
52.17170434340868
 30
0.0
 11
111.4046350311687
 21
52.17170434340868
 31
0.0
  0
ARC
  5
191
  8
DEFAULT
 10
-111.4046350311687
 20
52.57810515621031
 30
0.0
 40
0.4064008128016257
 50
270.0
 51
90.0
210
0.0
220
0.0
230
-1.0
  0
LINE
  5
192
  8
DEFAULT
 10
111.4046350311687
 20
52.98450596901194
 30
0.0
 11
111.4097150413288
 21
52.98450596901194
 31
0.0
  0
ARC
  5
193
  8
DEFAULT
 10
-111.4097150413288
 20
39.87807975615954
 30
0.0
 40
0.4064008128016257
 50
90.0
 51
270.0
210
0.0
220
0.0
230
-1.0
  0
LINE
  5
194
  8
DEFAULT
 10
111.4097150413288
 20
39.47167894335791
 30
0.0
 11
111.4046350311687
 21
39.47167894335791
 31
0.0
  0
ARC
  5
195
  8
DEFAULT
 10
-111.4046350311687
 20
39.87807975615954
 30
0.0
 40
0.4064008128016257
 50
270.0
 51
90.0
210
0.0
220
0.0
230
-1.0
  0
LINE
  5
196
  8
DEFAULT
 10
111.4046350311687
 20
40.28448056896116
 30
0.0
 11
111.4097150413288
 21
40.28448056896116
 31
0.0
  0
ARC
  5
197
  8
DEFAULT
 10
-111.4097150413288
 20
37.3380746761494
 30
0.0
 40
0.4064008128016257
 50
90.0
 51
270.0
210
0.0
220
0.0
230
-1.0
  0
LINE
  5
198
  8
DEFAULT
 10
111.4097150413288
 20
36.93167386334778
 30
0.0
 11
111.4046350311687
 21
36.93167386334778
 31
0.0
  0
ARC
  5
199
  8
DEFAULT
 10
-111.4046350311687
 20
37.3380746761494
 30
0.0
 40
0.4064008128016257
 50
270.0
 51
90.0
210
0.0
220
0.0
230
-1.0
  0
LINE
  5
19A
  8
DEFAULT
 10
111.4046350311687
 20
37.74447548895103
 30
0.0
 11
111.4097150413288
 21
37.74447548895103
 31
0.0
  0
ARC
  5
19B
  8
DEFAULT
 10
-111.4097150413288
 20
72.8981457962916
 30
0.0
 40
0.4064008128016257
 50
90.0
 51
270.0
210
0.0
220
0.0
230
-1.0
  0
LINE
  5
19C
  8
DEFAULT
 10
111.4097150413288
 20
72.49174498348998
 30
0.0
 11
111.4046350311687
 21
72.49174498348998
 31
0.0
  0
ARC
  5
19D
  8
DEFAULT
 10
-111.4046350311687
 20
72.8981457962916
 30
0.0
 40
0.4064008128016257
 50
270.0
 51
90.0
210
0.0
220
0.0
230
-1.0
  0
LINE
  5
19E
  8
DEFAULT
 10
111.4046350311687
 20
73.30454660909322
 30
0.0
 11
111.4097150413288
 21
73.30454660909322
 31
0.0
  0
ARC
  5
19F
  8
DEFAULT
 10
-86.00438526791675
 20
72.89545480591043
 30
0.0
 40
0.7972655731984022
 50
261.2773480212339
 51
0.193389366716937
210
0.0
220
0.0
230
-1.0
  0
ARC
  5
1A0
  8
DEFAULT
 10
-86.00712423614728
 20
72.89814579629162
 30
0.0
 40
0.8000000000000114
 50
359.999999999999
 51
214.3365626483671
210
0.0
220
0.0
230
-1.0
  0
LINE
  5
1A1
  8
DEFAULT
 10
86.66771505102372
 20
72.44690331679654
 30
0.0
 11
87.04154722848291
 21
72.01966654255736
 31
0.0
  0
LINE
  5
1A2
  8
DEFAULT
 10
87.04154722848291
 20
72.01966654255736
 30
0.0
 11
93.06522279641212
 21
66.12415428458416
 31
0.0
  0
LINE
  5
1A3
  8
DEFAULT
 10
93.06522279641212
 20
66.12415428458416
 30
0.0
 11
93.01442142092176
 21
15.75459048578996
 31
0.0
  0
LINE
  5
1A4
  8
DEFAULT
 10
93.01442142092176
 20
15.75459048578996
 30
0.0
 11
94.49084081491472
 21
14.2781710917969
 31
0.0
  0
ARC
  5
1A5
  8
DEFAULT
 10
96.25834995118647
 20
16.87527383595046
 30
0.0
 40
3.141501426148662
 50
235.7619878549748
 51
259.2380121450225
  0
LINE
  5
1A6
  8
DEFAULT
 10
95.67173868542409
 20
13.78902717805438
 30
0.0
 11
100.5759067092463
 21
13.78902717805438
 31
0.0
  0
LINE
  5
1A7
  8
DEFAULT
 10
100.5759067092463
 20
13.78902717805438
 30
0.0
 11
102.94292661719
 21
16.27434794270192
 31
0.0
  0
LINE
  5
1A8
  8
DEFAULT
 10
102.94292661719
 20
16.27434794270192
 30
0.0
 11
102.94292661719
 21
19.33247615701091
 31
0.0
  0
LINE
  5
1A9
  8
DEFAULT
 10
102.94292661719
 20
19.33247615701091
 30
0.0
 11
99.92097421225291
 21
21.65386680528176
 31
0.0
  0
ARC
  5
1AA
  8
DEFAULT
 10
99.61638170814854
 20
21.25735273687633
 30
0.0
 40
0.5
 50
52.46940294598125
 51
109.8354768291287
  0
ARC
  5
1AB
  8
DEFAULT
 10
-99.17544061343759
 20
22.47999022814239
 30
0.0
 40
0.7997197731126354
 50
250.1706455731924
 51
185.0213471674123
210
0.0
220
0.0
230
-1.0
  0
ARC
  5
1AC
  8
DEFAULT
 10
100.4702251504869
 20
22.36683591247765
 30
0.0
 40
0.5
 50
175.048373338779
 51
232.4694029459808
  0
LINE
  5
1AD
  8
DEFAULT
 10
100.1656326463825
 20
21.97032184407222
 30
0.0
 11
103.34292661719
 21
19.5296015671447
 31
0.0
  0
LINE
  5
1AE
  8
DEFAULT
 10
103.34292661719
 20
19.5296015671447
 30
0.0
 11
103.34292661719
 21
16.11434560532608
 31
0.0
  0
LINE
  5
1AF
  8
DEFAULT
 10
103.34292661719
 20
16.11434560532608
 30
0.0
 11
100.7473328956075
 21
13.38902717805438
 31
0.0
  0
LINE
  5
1B0
  8
DEFAULT
 10
100.7473328956075
 20
13.38902717805438
 30
0.0
 11
95.6717386854241
 21
13.38902717805438
 31
0.0
  0
ARC
  5
1B1
  8
DEFAULT
 10
95.80857498821733
 20
11.38863333577429
 30
0.0
 40
2.005068502070252
 50
93.91320356695195
 51
131.0867964330519
  0
LINE
  5
1B2
  8
DEFAULT
 10
94.49084081491475
 20
12.89988326431186
 30
0.0
 11
93.95413973017813
 21
12.36318217957515
 31
0.0
  0
LINE
  5
1B3
  8
DEFAULT
 10
93.95413973017813
 20
12.36318217957515
 30
0.0
 11
93.95413973017813
 21
7.829858206505586
 31
0.0
  0
LINE
  5
1B4
  8
DEFAULT
 10
93.95413973017813
 20
7.829858206505586
 30
0.0
 11
95.61498599865995
 21
6.169011938023868
 31
0.0
  0
LINE
  5
1B5
  8
DEFAULT
 10
95.61498599865995
 20
6.169011938023868
 30
0.0
 11
108.6960121607122
 21
6.169011938023869
 31
0.0
  0
LINE
  5
1B6
  8
DEFAULT
 10
108.6960121607122
 20
6.169011938023869
 30
0.0
 11
109.2506497134689
 21
5.614374385267156
 31
0.0
  0
ARC
  5
1B7
  8
DEFAULT
 10
109.6042031040622
 20
5.967927775860459
 30
0.0
 40
0.5
 50
225.0000000000044
 51
282.4991352853919
  0
ARC
  5
1B8
  8
DEFAULT
 10
-109.8828100755646
 20
4.698351841487543
 30
0.0
 40
0.7997883188876684
 50
77.69887691228256
 51
12.47261021853167
210
0.0
220
0.0
230
-1.0
  0
ARC
  5
1B9
  8
DEFAULT
 10
108.6136005721707
 20
4.978631320429667
 30
0.0
 40
0.5
 50
347.5789703928112
 51
45.00000000000389
  0
LINE
  5
1BA
  8
DEFAULT
 10
108.9671539627639
 20
5.332184711022962
 30
0.0
 11
108.5303267357629
 21
5.769011938023868
 31
0.0
  0
LINE
  5
1BB
  8
DEFAULT
 10
108.5303267357629
 20
5.769011938023868
 30
0.0
 11
95.4493005737107
 21
5.769011938023868
 31
0.0
  0
LINE
  5
1BC
  8
DEFAULT
 10
95.4493005737107
 20
5.769011938023868
 30
0.0
 11
93.55413973017811
 21
7.664172781556339
 31
0.0
  0
LINE
  5
1BD
  8
DEFAULT
 10
93.55413973017811
 20
7.664172781556339
 30
0.0
 11
93.55413973017811
 21
12.52886760452438
 31
0.0
  0
LINE
  5
1BE
  8
DEFAULT
 10
93.55413973017811
 20
12.52886760452438
 30
0.0
 11
94.20799810244013
 21
13.18272597678643
 31
0.0
  0
ARC
  5
1BF
  8
DEFAULT
 10
93.61734098326833
 20
13.58902717805437
 30
0.0
 40
0.7169075941710261
 50
325.4766963726926
 51
34.52330362730827
  0
LINE
  5
1C0
  8
DEFAULT
 10
94.20799810244011
 20
13.99532837932231
 30
0.0
 11
92.61425428022707
 21
15.58907220153542
 31
0.0
  0
LINE
  5
1C1
  8
DEFAULT
 10
92.61425428022707
 20
15.58907220153542
 30
0.0
 11
92.6650531079369
 21
65.95610987594432
 31
0.0
  0
LINE
  5
1C2
  8
DEFAULT
 10
92.6650531079369
 20
65.95610987594432
 30
0.0
 11
86.75070479981832
 21
71.74462098601776
 31
0.0
  0
LINE
  5
1C3
  8
DEFAULT
 10
86.75070479981832
 20
71.74462098601776
 30
0.0
 11
86.57758422449714
 21
71.94247307209915
 31
0.0
  0
ARC
  5
1C4
  8
DEFAULT
 10
86.20129587714364
 20
71.61322076816496
 30
0.0
 40
0.5
 50
41.18592516569785
 51
98.74331113855351
  0
LINE
  5
1C5
  8
DEFAULT
 10
94.12403908441172
 20
4.498257629633112
 30
0.0
 11
91.01413465016799
 21
7.535789943165214
 31
0.0
  0
LINE
  5
1C6
  8
DEFAULT
 10
91.01413465016799
 20
7.535789943165214
 30
0.0
 11
91.01413465016799
 21
65.06828758978602
 31
0.0
  0
LINE
  5
1C7
  8
DEFAULT
 10
91.01413465016799
 20
65.06828758978602
 30
0.0
 11
86.64029954915145
 21
69.44212269080268
 31
0.0
  0
ARC
  5
1C8
  8
DEFAULT
 10
86.28674615855819
 20
69.0885693002094
 30
0.0
 40
0.5
 50
45.00000000000115
 51
102.4210296071948
  0
ARC
  5
1C9
  8
DEFAULT
 10
-86.00712423614722
 20
70.35814071628144
 30
0.0
 40
0.7999999999999958
 50
257.5789703927985
 51
192.4210296072002
210
0.0
220
0.0
230
-1.0
  0
ARC
  5
1CA
  8
DEFAULT
 10
87.2766956522193
 20
70.07851879387051
 30
0.0
 40
0.5
 50
167.5789703928084
 51
225.0000000000069
  0
LINE
  5
1CB
  8
DEFAULT
 10
86.92314226162605
 20
69.7249654032772
 30
0.0
 11
91.41413465016798
 21
65.23397301473526
 31
0.0
  0
LINE
  5
1CC
  8
DEFAULT
 10
91.41413465016798
 20
65.23397301473526
 30
0.0
 11
91.41413465016797
 21
7.704240536895824
 31
0.0
  0
LINE
  5
1CD
  8
DEFAULT
 10
91.41413465016797
 20
7.704240536895824
 30
0.0
 11
94.28697279145551
 21
4.898257629633095
 31
0.0
  0
ARC
  5
1CE
  8
DEFAULT
 10
-86.0071242361473
 20
67.81813563627131
 30
0.0
 40
0.8000000000000252
 50
347.5789703928032
 51
282.421029607204
210
0.0
220
0.0
230
-1.0
  0
ARC
  5
1CF
  8
DEFAULT
 10
85.72750231373631
 20
66.54856422019928
 30
0.0
 40
0.5
 50
77.57897039280522
 51
134.9999999999989
  0
LINE
  5
1D0
  8
DEFAULT
 10
85.37394892314305
 20
66.90211761079256
 30
0.0
 11
76.42810467810807
 21
57.95627336575753
 31
0.0
  0
LINE
  5
1D1
  8
DEFAULT
 10
76.42810467810807
 20
57.95627336575753
 30
0.0
 11
76.42810467810808
 21
25.22889300457527
 31
0.0
  0
LINE
  5
1D2
  8
DEFAULT
 10
76.42810467810808
 20
25.22889300457527
 30
0.0
 11
83.34194485913477
 21
18.31505282354834
 31
0.0
  0
ARC
  5
1D3
  8
DEFAULT
 10
83.695498249728
 20
18.66860621414164
 30
0.0
 40
0.5
 50
225.0000000000043
 51
282.4210296071933
  0
ARC
  5
1D4
  8
DEFAULT
 10
-83.97512017213894
 20
17.39903479806957
 30
0.0
 40
0.8000000000000103
 50
77.57897039279977
 51
0.0000000000005089
210
0.0
220
0.0
230
-1.0
  0
ARC
  5
1D5
  8
DEFAULT
 10
-83.97512017214088
 20
17.39903479806947
 30
0.0
 40
0.800000000001944
 50
0.0000000000078878
 51
12.42102960717727
210
0.0
220
0.0
230
-1.0
  0
ARC
  5
1D6
  8
DEFAULT
 10
82.70554875606686
 20
17.67865672048053
 30
0.0
 40
0.5
 50
347.5789703928045
 51
44.99999999999942
  0
LINE
  5
1D7
  8
DEFAULT
 10
83.05910214666014
 20
18.0322101110738
 30
0.0
 11
76.02810467810808
 21
25.06320757962604
 31
0.0
  0
LINE
  5
1D8
  8
DEFAULT
 10
76.02810467810808
 20
25.06320757962604
 30
0.0
 11
76.02810467810808
 21
58.12195879070678
 31
0.0
  0
LINE
  5
1D9
  8
DEFAULT
 10
76.02810467810808
 20
58.12195879070678
 30
0.0
 11
85.0911062106685
 21
67.18496032326722
 31
0.0
  0
ARC
  5
1DA
  8
DEFAULT
 10
84.7375528200752
 20
67.53851371386045
 30
0.0
 40
0.5
 50
315.0000000000057
 51
12.42102960718843
  0
LINE
  5
1DB
  8
DEFAULT
 10
86.92314226162607
 20
64.64495524325686
 30
0.0
 11
90.01713185616235
 21
61.55096564872052
 31
0.0
  0
LINE
  5
1DC
  8
DEFAULT
 10
90.01713185616235
 20
61.55096564872052
 30
0.0
 11
90.01713185616235
 21
6.013169479549816
 31
0.0
  0
LINE
  5
1DD
  8
DEFAULT
 10
90.01713185616235
 20
6.013169479549816
 30
0.0
 11
86.08996694862188
 21
2.08600457200912
 31
0.0
  0
LINE
  5
1DE
  8
DEFAULT
 10
86.08996694862188
 20
2.08600457200912
 30
0.0
 11
82.36827441165822
 21
2.08600457200912
 31
0.0
  0
LINE
  5
1DF
  8
DEFAULT
 10
82.36827441165822
 20
2.08600457200912
 30
0.0
 11
80.09211280612429
 21
4.362166177543173
 31
0.0
  0
LINE
  5
1E0
  8
DEFAULT
 10
80.09211280612429
 20
4.362166177543173
 30
0.0
 11
80.09211280612429
 21
8.718859984509184
 31
0.0
  0
LINE
  5
1E1
  8
DEFAULT
 10
80.09211280612429
 20
8.718859984509184
 30
0.0
 11
83.05910214666015
 21
11.68584932504514
 31
0.0
  0
ARC
  5
1E2
  8
DEFAULT
 10
82.70554875606686
 20
12.03940271563839
 30
0.0
 40
0.5
 50
315.0000000000033
 51
12.42102960719475
  0
ARC
  5
1E3
  8
DEFAULT
 10
-83.97512017213934
 20
12.31902463804921
 30
0.0
 40
0.8000000000003953
 50
347.5789703928153
 51
0.0000000000072517
210
0.0
220
0.0
230
-1.0
  0
ARC
  5
1E4
  8
DEFAULT
 10
-83.9751201721389
 20
12.31902463804933
 30
0.0
 40
0.7999999999999687
 50
359.999999999999
 51
282.4210296071925
210
0.0
220
0.0
230
-1.0
  0
ARC
  5
1E5
  8
DEFAULT
 10
83.69549824972799
 20
11.04945322197725
 30
0.0
 40
0.5
 50
77.57897039280004
 51
134.9999999999958
  0
LINE
  5
1E6
  8
DEFAULT
 10
83.34194485913476
 20
11.40300661257055
 30
0.0
 11
80.49211280612428
 21
8.553174559559947
 31
0.0
  0
LINE
  5
1E7
  8
DEFAULT
 10
80.49211280612428
 20
8.553174559559947
 30
0.0
 11
80.49211280612428
 21
4.527851602492404
 31
0.0
  0
LINE
  5
1E8
  8
DEFAULT
 10
80.49211280612428
 20
4.527851602492404
 30
0.0
 11
82.53395983660748
 21
2.486004572009119
 31
0.0
  0
LINE
  5
1E9
  8
DEFAULT
 10
82.53395983660748
 20
2.486004572009119
 30
0.0
 11
85.92428152367263
 21
2.486004572009119
 31
0.0
  0
LINE
  5
1EA
  8
DEFAULT
 10
85.92428152367263
 20
2.486004572009119
 30
0.0
 11
89.61713185616235
 21
6.178854904499042
 31
0.0
  0
LINE
  5
1EB
  8
DEFAULT
 10
89.61713185616235
 20
6.178854904499042
 30
0.0
 11
89.61713185616235
 21
61.38528022377125
 31
0.0
  0
LINE
  5
1EC
  8
DEFAULT
 10
89.61713185616235
 20
61.38528022377125
 30
0.0
 11
86.64029954915145
 21
64.36211253078227
 31
0.0
  0
ARC
  5
1ED
  8
DEFAULT
 10
86.28674615855816
 20
64.008559140189
 30
0.0
 40
0.5
 50
44.9999999999977
 51
102.4210296071916
  0
ARC
  5
1EE
  8
DEFAULT
 10
-86.00712423614729
 20
65.2781305562611
 30
0.0
 40
0.8000000000000252
 50
257.5789703928032
 51
192.421029607201
210
0.0
220
0.0
230
-1.0
  0
ARC
  5
1EF
  8
DEFAULT
 10
87.27669565221933
 20
64.99850863385015
 30
0.0
 40
0.5
 50
167.5789703928068
 51
225.0000000000023
  0
ARC
  5
1F0
  8
DEFAULT
 10
-86.00712423614726
 20
62.73812547625097
 30
0.0
 40
0.7999999999999898
 50
347.5789703928005
 51
282.4210296071943
210
0.0
220
0.0
230
-1.0
  0
ARC
  5
1F1
  8
DEFAULT
 10
85.72750231373632
 20
61.4685540601789
 30
0.0
 40
0.5
 50
77.57897039279833
 51
134.9999999999977
  0
LINE
  5
1F2
  8
DEFAULT
 10
85.37394892314305
 20
61.82210745077219
 30
0.0
 11
78.58710899611661
 21
55.03526752374592
 31
0.0
  0
LINE
  5
1F3
  8
DEFAULT
 10
78.58710899611661
 20
55.03526752374592
 30
0.0
 11
78.58710899611664
 21
25.60989376657673
 31
0.0
  0
LINE
  5
1F4
  8
DEFAULT
 10
78.58710899611664
 20
25.60989376657673
 30
0.0
 11
83.34194485913473
 21
20.85505790355863
 31
0.0
  0
ARC
  5
1F5
  8
DEFAULT
 10
83.695498249728
 20
21.2086112941519
 30
0.0
 40
0.5
 50
224.9999999999997
 51
282.4210296071967
  0
ARC
  5
1F6
  8
DEFAULT
 10
-83.97512017213893
 20
19.93903987807983
 30
0.0
 40
0.8000000000000115
 50
77.57897039280294
 51
359.9999999999995
210
0.0
220
0.0
230
-1.0
  0
ARC
  5
1F7
  8
DEFAULT
 10
-83.97512017214477
 20
19.93903987807925
 30
0.0
 40
0.8000000000058378
 50
0.0000000000414744
 51
12.42102960715154
210
0.0
220
0.0
230
-1.0
  0
ARC
  5
1F8
  8
DEFAULT
 10
82.70554875606686
 20
20.21866180049076
 30
0.0
 40
0.5
 50
347.5789703928088
 51
44.99999999999885
  0
LINE
  5
1F9
  8
DEFAULT
 10
83.05910214666015
 20
20.57221519108402
 30
0.0
 11
78.18710899611665
 21
25.4442083416275
 31
0.0
  0
LINE
  5
1FA
  8
DEFAULT
 10
78.18710899611665
 20
25.4442083416275
 30
0.0
 11
78.18710899611665
 21
55.20095294869519
 31
0.0
  0
LINE
  5
1FB
  8
DEFAULT
 10
78.18710899611665
 20
55.20095294869519
 30
0.0
 11
85.09110621066849
 21
62.10495016324676
 31
0.0
  0
ARC
  5
1FC
  8
DEFAULT
 10
84.73755282007521
 20
62.45850355384003
 30
0.0
 40
0.5
 50
314.9999999999983
 51
12.42102960719479
  0
LINE
  5
1FD
  8
DEFAULT
 10
86.9231422616261
 20
59.56494508323662
 30
0.0
 11
88.74712931615743
 21
57.74095802870532
 31
0.0
  0
LINE
  5
1FE
  8
DEFAULT
 10
88.74712931615743
 20
57.74095802870532
 30
0.0
 11
88.74712931615743
 21
9.315176083562987
 31
0.0
  0
LINE
  5
1FF
  8
DEFAULT
 10
88.74712931615743
 20
9.315176083562987
 30
0.0
 11
85.2009651706183
 21
5.769011938023869
 31
0.0
  0
LINE
  5
200
  8
DEFAULT
 10
85.2009651706183
 20
5.769011938023869
 30
0.0
 11
83.1302759356614
 21
5.769011938023869
 31
0.0
  0
LINE
  5
201
  8
DEFAULT
 10
83.1302759356614
 20
5.769011938023869
 30
0.0
 11
81.99711661613196
 21
6.902171257553303
 31
0.0
  0
LINE
  5
202
  8
DEFAULT
 10
81.99711661613196
 20
6.902171257553303
 30
0.0
 11
81.99711661613196
 21
8.083858714506587
 31
0.0
  0
LINE
  5
203
  8
DEFAULT
 10
81.99711661613196
 20
8.083858714506587
 30
0.0
 11
83.05910214666018
 21
9.1458442450349
 31
0.0
  0
ARC
  5
204
  8
DEFAULT
 10
82.70554875606688
 20
9.499397635628165
 30
0.0
 40
0.5
 50
315.0000000000007
 51
12.42102960719619
  0
ARC
  5
205
  8
DEFAULT
 10
-83.97512017214169
 20
9.779019558039451
 30
0.0
 40
0.800000000002754
 50
347.5789703928196
 51
359.9999999999807
210
0.0
220
0.0
230
-1.0
  0
ARC
  5
206
  8
DEFAULT
 10
-83.9751201721389
 20
9.779019558039174
 30
0.0
 40
0.7999999999999687
 50
0.0000000000005089
 51
282.4210296071946
210
0.0
220
0.0
230
-1.0
  0
ARC
  5
207
  8
DEFAULT
 10
83.69549824972806
 20
8.509448141967098
 30
0.0
 40
0.5
 50
77.5789703928084
 51
134.9999999999982
  0
LINE
  5
208
  8
DEFAULT
 10
83.34194485913481
 20
8.863001532560384
 30
0.0
 11
82.39711661613197
 21
7.918173289557363
 31
0.0
  0
LINE
  5
209
  8
DEFAULT
 10
82.39711661613197
 20
7.918173289557363
 30
0.0
 11
82.39711661613197
 21
7.067856682502541
 31
0.0
  0
LINE
  5
20A
  8
DEFAULT
 10
82.39711661613197
 20
7.067856682502541
 30
0.0
 11
83.29596136061062
 21
6.169011938023869
 31
0.0
  0
LINE
  5
20B
  8
DEFAULT
 10
83.29596136061062
 20
6.169011938023869
 30
0.0
 11
85.03527974566906
 21
6.169011938023869
 31
0.0
  0
LINE
  5
20C
  8
DEFAULT
 10
85.03527974566906
 20
6.169011938023869
 30
0.0
 11
88.3471293161574
 21
9.480861508512216
 31
0.0
  0
LINE
  5
20D
  8
DEFAULT
 10
88.3471293161574
 20
9.480861508512216
 30
0.0
 11
88.3471293161574
 21
57.5752726037561
 31
0.0
  0
LINE
  5
20E
  8
DEFAULT
 10
88.3471293161574
 20
57.5752726037561
 30
0.0
 11
86.64029954915148
 21
59.28210237076203
 31
0.0
  0
ARC
  5
20F
  8
DEFAULT
 10
86.28674615855817
 20
58.92854898016876
 30
0.0
 40
0.5
 50
44.9999999999977
 51
102.4210296071883
  0
ARC
  5
210
  8
DEFAULT
 10
-86.00712423614726
 20
60.19812039624083
 30
0.0
 40
0.8000000000000097
 50
257.5789703927987
 51
192.4210296071946
210
0.0
220
0.0
230
-1.0
  0
ARC
  5
211
  8
DEFAULT
 10
87.27669565221933
 20
59.91849847382991
 30
0.0
 40
0.5
 50
167.5789703928001
 51
225.0000000000017
  0
LINE
  5
212
  8
DEFAULT
 10
85.41009090241472
 20
56.71814127488043
 30
0.0
 11
81.50811483812835
 21
52.49978877294922
 31
0.0
  0
LINE
  5
213
  8
DEFAULT
 10
81.50811483812835
 20
52.49978877294922
 30
0.0
 11
81.50811483812835
 21
25.85173299004729
 31
0.0
  0
LINE
  5
214
  8
DEFAULT
 10
81.50811483812835
 20
25.85173299004729
 30
0.0
 11
83.44239959364079
 21
23.45690424512703
 31
0.0
  0
ARC
  5
215
  8
DEFAULT
 10
83.83137018374265
 20
23.77107279867084
 30
0.0
 40
0.5
 50
218.9275435927923
 51
276.3485731999892
  0
ARC
  5
216
  8
DEFAULT
 10
-83.97512017213896
 20
22.47904495808997
 30
0.0
 40
0.8000000000000052
 50
83.65142680000857
 51
359.9999999999995
210
0.0
220
0.0
230
-1.0
  0
ARC
  5
217
  8
DEFAULT
 10
-83.97512017213813
 20
22.47904495809012
 30
0.0
 40
0.7999999999992013
 50
359.9999999999883
 51
18.49348601441296
210
0.0
220
0.0
230
-1.0
  0
ARC
  5
218
  8
DEFAULT
 10
82.74225253145747
 20
22.89140084874819
 30
0.0
 40
0.5
 50
341.5065139855975
 51
38.92754359279196
  0
LINE
  5
219
  8
DEFAULT
 10
83.13122312155932
 20
23.205569402292
 30
0.0
 11
81.10811483812833
 21
25.71037013415897
 31
0.0
  0
LINE
  5
21A
  8
DEFAULT
 10
81.10811483812833
 20
25.71037013415897
 30
0.0
 11
81.10811483812833
 21
52.6564215394714
 31
0.0
  0
LINE
  5
21B
  8
DEFAULT
 10
81.10811483812833
 20
52.6564215394714
 30
0.0
 11
85.11645112658022
 21
56.98975806752744
 31
0.0
  0
ARC
  5
21C
  8
DEFAULT
 10
84.74940140678702
 20
57.32927905833616
 30
0.0
 40
0.5
 50
317.2311746080302
 51
14.65220421522575
  0
ARC
  5
21D
  8
DEFAULT
 10
-86.00712423614729
 20
57.65811531623068
 30
0.0
 40
0.8000000000000248
 50
345.3477957847747
 51
280.1898549991741
210
0.0
220
0.0
230
-1.0
  0
ARC
  5
21E
  8
DEFAULT
 10
85.77714062220795
 20
56.37862028407174
 30
0.0
 40
0.5
 50
79.810145000842
 51
137.2311746080349
  0
LINE
  5
21F
  8
DEFAULT
 10
86.92311686157522
 20
54.48490952316547
 30
0.0
 11
87.47278336746548
 21
53.93524301727528
 31
0.0
  0
LINE
  5
220
  8
DEFAULT
 10
87.47278336746548
 20
53.93524301727528
 30
0.0
 11
87.47278336746548
 21
10.45383496088075
 31
0.0
  0
LINE
  5
221
  8
DEFAULT
 10
87.47278336746548
 20
10.45383496088075
 30
0.0
 11
84.89111279756689
 21
7.872164390982269
 31
0.0
  0
ARC
  5
222
  8
DEFAULT
 10
85.24466618816015
 20
7.518611000388987
 30
0.0
 40
0.5
 50
134.9999999999984
 51
192.4210296071887
  0
ARC
  5
223
  8
DEFAULT
 10
-83.97509477208811
 20
7.238989077978085
 30
0.0
 40
0.7999999999999935
 50
167.5789703927993
 51
102.4210296071984
210
0.0
220
0.0
230
-1.0
  0
ARC
  5
224
  8
DEFAULT
 10
84.25471669449905
 20
8.508560494050148
 30
0.0
 40
0.5
 50
257.578970392805
 51
314.999999999998
  0
LINE
  5
225
  8
DEFAULT
 10
84.60827008509233
 20
8.15500710345686
 30
0.0
 11
87.07278336746548
 21
10.61952038582998
 31
0.0
  0
LINE
  5
226
  8
DEFAULT
 10
87.07278336746548
 20
10.61952038582998
 30
0.0
 11
87.07278336746548
 21
53.76955759232603
 31
0.0
  0
LINE
  5
227
  8
DEFAULT
 10
87.07278336746548
 20
53.76955759232603
 30
0.0
 11
86.64027414910066
 21
54.20206681069082
 31
0.0
  0
ARC
  5
228
  8
DEFAULT
 10
86.28672075850737
 20
53.84851342009755
 30
0.0
 40
0.5
 50
44.99999999999942
 51
102.421029607195
  0
ARC
  5
229
  8
DEFAULT
 10
-86.00709883609643
 20
55.1180848361696
 30
0.0
 40
0.7999999999999936
 50
257.5789703928016
 51
0.0
210
0.0
220
0.0
230
-1.0
  0
ARC
  5
22A
  8
DEFAULT
 10
-86.00709883609642
 20
55.11808483616958
 30
0.0
 40
0.7999999999999972
 50
0.0000000000015267
 51
192.4210296071936
210
0.0
220
0.0
230
-1.0
  0
ARC
  5
22B
  8
DEFAULT
 10
87.2766702521685
 20
54.83846291375874
 30
0.0
 40
0.5
 50
167.5789703928084
 51
224.9999999999994
  0
LINE
  5
22C
  8
DEFAULT
 10
85.37394892314302
 20
51.66208713073154
 30
0.0
 11
83.54011890213646
 21
49.8282571097251
 31
0.0
  0
LINE
  5
22D
  8
DEFAULT
 10
83.54011890213646
 20
49.8282571097251
 30
0.0
 11
83.54011890213646
 21
28.27689910058743
 31
0.0
  0
LINE
  5
22E
  8
DEFAULT
 10
83.54011890213646
 20
28.27689910058743
 30
0.0
 11
85.95312372814612
 21
25.86389427457775
 31
0.0
  0
LINE
  5
22F
  8
DEFAULT
 10
85.95312372814612
 20
25.86389427457775
 30
0.0
 11
85.95312372814612
 21
16.55419056159192
 31
0.0
  0
LINE
  5
230
  8
DEFAULT
 10
85.95312372814612
 20
16.55419056159192
 30
0.0
 11
84.89113819761772
 21
15.4922050310636
 31
0.0
  0
ARC
  5
231
  8
DEFAULT
 10
85.244691588211
 20
15.13865164047031
 30
0.0
 40
0.5
 50
134.999999999998
 51
192.4210296071881
  0
ARC
  5
232
  8
DEFAULT
 10
-83.97512017213892
 20
14.85902971805942
 30
0.0
 40
0.7999999999999905
 50
167.5789703928003
 51
0.0000000000015267
210
0.0
220
0.0
230
-1.0
  0
ARC
  5
233
  8
DEFAULT
 10
-83.97512017213889
 20
14.85902971805949
 30
0.0
 40
0.7999999999999545
 50
359.999999999997
 51
102.4210296072052
210
0.0
220
0.0
230
-1.0
  0
ARC
  5
234
  8
DEFAULT
 10
84.25474209454991
 20
16.12860113413151
 30
0.0
 40
0.5
 50
257.5789703928034
 51
314.9999999999972
  0
LINE
  5
235
  8
DEFAULT
 10
84.60829548514317
 20
15.77504774353821
 30
0.0
 11
85.55312372814613
 21
16.71987598654117
 31
0.0
  0
LINE
  5
236
  8
DEFAULT
 10
85.55312372814613
 20
16.71987598654117
 30
0.0
 11
85.55312372814613
 21
25.69820884962851
 31
0.0
  0
LINE
  5
237
  8
DEFAULT
 10
85.55312372814613
 20
25.69820884962851
 30
0.0
 11
83.14011890213646
 21
28.1112136756382
 31
0.0
  0
LINE
  5
238
  8
DEFAULT
 10
83.14011890213646
 20
28.1112136756382
 30
0.0
 11
83.14011890213646
 21
49.99394253467436
 31
0.0
  0
LINE
  5
239
  8
DEFAULT
 10
83.14011890213646
 20
49.99394253467436
 30
0.0
 11
85.09110621066846
 21
51.94492984320619
 31
0.0
  0
ARC
  5
23A
  8
DEFAULT
 10
84.73755282007518
 20
52.29848323379946
 30
0.0
 40
0.5
 50
315.0000000000006
 51
12.42102960718684
  0
ARC
  5
23B
  8
DEFAULT
 10
-86.00712423614726
 20
52.57810515621032
 30
0.0
 40
0.8000000000000005
 50
347.5789703928017
 51
282.4210296071983
210
0.0
220
0.0
230
-1.0
  0
ARC
  5
23C
  8
DEFAULT
 10
85.7275023137363
 20
51.30853374013825
 30
0.0
 40
0.5
 50
77.57897039280344
 51
134.9999999999971
  0
LINE
  5
23D
  8
DEFAULT
 10
100.2705398672255
 20
12.51899923799848
 30
0.0
 11
102.804937506875
 21
12.51899923799847
 31
0.0
  0
LINE
  5
23E
  8
DEFAULT
 10
102.804937506875
 20
12.51899923799847
 30
0.0
 11
110.2954140858588
 21
21.43591608144363
 31
0.0
  0
ARC
  5
23F
  8
DEFAULT
 10
109.9125672872566
 20
21.75751883143193
 30
0.0
 40
0.5
 50
319.968737018086
 51
17.3897666252859
  0
ARC
  5
240
  8
DEFAULT
 10
-111.1531491281968
 20
22.14605029210066
 30
0.0
 40
0.7999999999999899
 50
342.6102333747153
 51
277.4522925891138
210
0.0
220
0.0
230
-1.0
  0
ARC
  5
241
  8
DEFAULT
 10
110.9845383233428
 20
20.85703113146475
 30
0.0
 40
0.5
 50
82.5477074108967
 51
139.9687370180899
  0
LINE
  5
242
  8
DEFAULT
 10
110.6016915247405
 20
21.17863388145302
 30
0.0
 11
102.9913277294529
 21
12.11899923799847
 31
0.0
  0
LINE
  5
243
  8
DEFAULT
 10
102.9913277294529
 20
12.11899923799847
 30
0.0
 11
100.2705398672254
 21
12.11899923799847
 31
0.0
  0
ARC
  5
244
  8
DEFAULT
 10
100.2705398672255
 20
11.61899923799847
 30
0.0
 40
0.5
 50
90.00000000000651
 51
147.4210296071946
  0
ARC
  5
245
  8
DEFAULT
 10
-99.17509475221516
 20
12.31899923799845
 30
0.0
 40
0.7999999999999827
 50
212.5789703928025
 51
0.0000000000013994
210
0.0
220
0.0
230
-1.0
  0
ARC
  5
246
  8
DEFAULT
 10
-99.1750947522152
 20
12.31899923799845
 30
0.0
 40
0.8000000000000256
 50
0.0000000000010178
 51
147.4210296071921
210
0.0
220
0.0
230
-1.0
  0
ARC
  5
247
  8
DEFAULT
 10
100.2705398672255
 20
13.01899923799848
 30
0.0
 40
0.5
 50
212.5789703928008
 51
270.0
  0
ARC
  5
248
  8
DEFAULT
 10
-99.17509475221519
 20
14.85902971805944
 30
0.0
 40
0.8000000000000238
 50
77.66529379699169
 51
0.0000000000003817
210
0.0
220
0.0
230
-1.0
  0
ARC
  5
249
  8
DEFAULT
 10
-99.17509475221917
 20
14.85902971805908
 30
0.0
 40
0.8000000000039904
 50
0.0000000000260805
 51
12.50735301135365
210
0.0
220
0.0
230
-1.0
  0
ARC
  5
24A
  8
DEFAULT
 10
97.90594606301332
 20
15.14056409375309
 30
0.0
 40
0.5
 50
347.4926469886146
 51
44.91367659580737
  0
LINE
  5
24B
  8
DEFAULT
 10
98.26003172544007
 20
15.49358440997273
 30
0.0
 11
97.20247935370234
 21
16.55432826774185
 31
0.0
  0
LINE
  5
24C
  8
DEFAULT
 10
97.20247935370234
 20
16.55432826774185
 30
0.0
 11
97.19919654530177
 21
23.57785097797453
 31
0.0
  0
LINE
  5
24D
  8
DEFAULT
 10
97.19919654530177
 20
23.57785097797453
 30
0.0
 11
98.96739585942802
 21
25.34605029210065
 31
0.0
  0
LINE
  5
24E
  8
DEFAULT
 10
98.96739585942802
 20
25.34605029210065
 30
0.0
 11
110.0577040131865
 21
25.34605029210065
 31
0.0
  0
ARC
  5
24F
  8
DEFAULT
 10
110.0577040131865
 20
25.84605029210065
 30
0.0
 40
0.5
 50
270.0
 51
327.4210296071979
  0
ARC
  5
250
  8
DEFAULT
 10
-111.1531491281969
 20
25.14605029210066
 30
0.0
 40
0.8000000000000267
 50
32.57897039280367
 51
327.4210296071965
210
0.0
220
0.0
230
-1.0
  0
ARC
  5
251
  8
DEFAULT
 10
110.0577040131865
 20
24.44605029210065
 30
0.0
 40
0.5
 50
32.57897039280577
 51
90.00000000000325
  0
LINE
  5
252
  8
DEFAULT
 10
110.0577040131865
 20
24.94605029210065
 30
0.0
 11
99.13308128437724
 21
24.94605029210065
 31
0.0
  0
LINE
  5
253
  8
DEFAULT
 10
99.13308128437724
 20
24.94605029210065
 30
0.0
 11
97.59927399448999
 21
23.41224300221349
 31
0.0
  0
LINE
  5
254
  8
DEFAULT
 10
97.59927399448999
 20
23.41224300221349
 30
0.0
 11
97.60240208442832
 21
16.71973828039123
 31
0.0
  0
LINE
  5
255
  8
DEFAULT
 10
97.60240208442832
 20
16.71973828039123
 30
0.0
 11
98.5433002553814
 21
15.77600066294846
 31
0.0
  0
ARC
  5
256
  8
DEFAULT
 10
98.89738591780815
 20
16.12902097916809
 30
0.0
 40
0.5
 50
224.9136765958056
 51
282.334706203001
  0
ARC
  5
257
  8
DEFAULT
 10
-111.5341498901984
 20
15.95400050800095
 30
0.0
 40
0.8000000000000078
 50
263.3841430956398
 51
198.2262023100307
210
0.0
220
0.0
230
-1.0
  0
ARC
  5
258
  8
DEFAULT
 10
112.7689277413293
 20
15.54740038705089
 30
0.0
 40
0.5
 50
161.7737976899712
 51
219.1948272971663
  0
LINE
  5
259
  8
DEFAULT
 10
112.3814269685338
 20
15.23142071827005
 30
0.0
 11
113.7661793542574
 21
13.53323354797281
 31
0.0
  0
LINE
  5
25A
  8
DEFAULT
 10
113.7661793542574
 20
13.53323354797281
 30
0.0
 11
113.7661793542574
 21
11.6011806555721
 31
0.0
  0
LINE
  5
25B
  8
DEFAULT
 10
113.7661793542574
 20
11.6011806555721
 30
0.0
 11
110.3470156736166
 21
8.182016974931424
 31
0.0
  0
LINE
  5
25C
  8
DEFAULT
 10
110.3470156736166
 20
8.182016974931424
 30
0.0
 11
100.4009399615922
 21
8.181991654571288
 31
0.0
  0
LINE
  5
25D
  8
DEFAULT
 10
100.4009399615922
 20
8.181991654571288
 30
0.0
 11
100.091112777694
 21
7.872164470673003
 31
0.0
  0
ARC
  5
25E
  8
DEFAULT
 10
100.4446661682873
 20
7.51861108007977
 30
0.0
 40
0.5
 50
135.000000000007
 51
192.4210296071934
  0
ARC
  5
25F
  8
DEFAULT
 10
-99.1750947522152
 20
7.238989157668811
 30
0.0
 40
0.800000000000025
 50
167.5789703927985
 51
359.9999999999991
210
0.0
220
0.0
230
-1.0
  0
ARC
  5
260
  8
DEFAULT
 10
-99.1750947522152
 20
7.238989157668783
 30
0.0
 40
0.8000000000000256
 50
0.000000000001145
 51
102.4210296071948
210
0.0
220
0.0
230
-1.0
  0
ARC
  5
261
  8
DEFAULT
 10
99.45471667462604
 20
8.508560573740883
 30
0.0
 40
0.5
 50
257.57897039281
 51
315.000000000003
  0
LINE
  5
262
  8
DEFAULT
 10
99.80827006521932
 20
8.15500718314763
 30
0.0
 11
100.2352541148472
 21
8.581991232775543
 31
0.0
  0
LINE
  5
263
  8
DEFAULT
 10
100.2352541148472
 20
8.581991232775543
 30
0.0
 11
110.1813298268716
 21
8.58201655313568
 31
0.0
  0
LINE
  5
264
  8
DEFAULT
 10
110.1813298268716
 20
8.58201655313568
 30
0.0
 11
113.3661793542574
 21
11.76686608052134
 31
0.0
  0
LINE
  5
265
  8
DEFAULT
 10
113.3661793542574
 20
11.76686608052134
 30
0.0
 11
113.3661793542574
 21
13.39082030013505
 31
0.0
  0
LINE
  5
266
  8
DEFAULT
 10
113.3661793542574
 20
13.39082030013505
 30
0.0
 11
112.0714263502973
 21
14.97863698324538
 31
0.0
  0
ARC
  5
267
  8
DEFAULT
 10
111.6839255775018
 20
14.66265731446453
 30
0.0
 40
0.5
 50
39.19482729716712
 51
96.61585690436395
  0
ARC
  5
268
  8
DEFAULT
 10
-111.5341498901984
 20
12.95400050800093
 30
0.0
 40
0.8000000000000127
 50
347.5789703928026
 51
282.4210296071991
210
0.0
220
0.0
230
-1.0
  0
ARC
  5
269
  8
DEFAULT
 10
111.2545279677875
 20
11.68442909192887
 30
0.0
 40
0.5
 50
77.5789703928034
 51
135.0000000000002
  0
LINE
  5
26A
  8
DEFAULT
 10
110.9009745771942
 20
12.03798248252214
 30
0.0
 11
108.441979699068
 21
9.578987604395895
 31
0.0
  0
LINE
  5
26B
  8
DEFAULT
 10
108.441979699068
 20
9.578987604395895
 30
0.0
 11
100.2705240422853
 21
9.579634028337335
 31
0.0
  0
ARC
  5
26C
  8
DEFAULT
 10
100.2704844885041
 20
9.079634029901836
 30
0.0
 40
0.5
 50
89.99546747053327
 51
147.4164970777309
  0
ARC
  5
26D
  8
DEFAULT
 10
-99.17509475221517
 20
9.779720685704474
 30
0.0
 40
0.7999999999999936
 50
212.5835029222704
 51
0.0000000000007633
210
0.0
220
0.0
230
-1.0
  0
ARC
  5
26E
  8
DEFAULT
 10
-99.1750947522152
 20
9.779720685704456
 30
0.0
 40
0.8000000000000256
 50
0.0000000000020356
 51
147.4255621366598
210
0.0
220
0.0
230
-1.0
  0
ARC
  5
26F
  8
DEFAULT
 10
100.2705952390916
 20
10.47963402552123
 30
0.0
 40
0.5
 50
212.5744378633377
 51
269.9954674705365
  0
LINE
  5
270
  8
DEFAULT
 10
100.2705556853104
 20
9.979634027085732
 30
0.0
 11
108.2763073813037
 21
9.97900071158078
 31
0.0
  0
LINE
  5
271
  8
DEFAULT
 10
108.2763073813037
 20
9.97900071158078
 30
0.0
 11
110.6181318647196
 21
12.32082519499676
 31
0.0
  0
ARC
  5
272
  8
DEFAULT
 10
110.2645784741264
 20
12.67437858559003
 30
0.0
 40
0.5
 50
315.0000000000023
 51
12.42102960719395
  0
LINE
  5
273
  8
DEFAULT
 10
101.206187171093
 20
2.994002762876468
 30
0.0
 11
110.8953254418102
 21
2.994005564060842
 31
0.0
  0
LINE
  5
274
  8
DEFAULT
 10
110.8953254418102
 20
2.994005564060842
 30
0.0
 11
111.967153962764
 21
4.065834085014645
 31
0.0
  0
ARC
  5
275
  8
DEFAULT
 10
111.6136005721707
 20
4.4193874756079
 30
0.0
 40
0.5
 50
315.0000000000029
 51
12.42102960719524
  0
ARC
  5
276
  8
DEFAULT
 10
-112.8831719882427
 20
4.699009398018809
 30
0.0
 40
0.7999999999999969
 50
347.5789703928029
 51
282.4210293962723
210
0.0
220
0.0
230
-1.0
  0
ARC
  5
277
  8
DEFAULT
 10
112.6035500705056
 20
3.429437980917346
 30
0.0
 40
0.5
 50
77.57897060373216
 51
135.0000002109293
  0
LINE
  5
278
  8
DEFAULT
 10
112.2499966786107
 20
3.782991370209045
 30
0.0
 11
111.0610108914362
 21
2.594005574280388
 31
0.0
  0
LINE
  5
279
  8
DEFAULT
 10
111.0610108914362
 20
2.594005574280388
 30
0.0
 11
101.043247628461
 21
2.594008462661812
 31
0.0
  0
ARC
  5
27A
  8
DEFAULT
 10
-98.07964963720488
 20
5.398257629633116
 30
0.0
 40
0.5
 50
212.578970392804
 51
270.0000000000016
210
0.0
220
0.0
230
-1.0
  0
LINE
  5
27B
  8
DEFAULT
 10
94.28697279145551
 20
4.898257629633113
 30
0.0
 11
98.07964963720487
 21
4.898257629633113
 31
0.0
  0
ARC
  5
27C
  8
DEFAULT
 10
99.17509475221519
 20
4.698257629633114
 30
0.0
 40
0.7999999999999737
 50
348.2534670468407
 51
147.4210296071949
  0
ARC
  5
27D
  8
DEFAULT
 10
-100.4478698835521
 20
4.433600370049374
 30
0.0
 40
0.5
 50
314.3255033459645
 51
11.74653295315701
210
0.0
220
0.0
230
-1.0
  0
LINE
  5
27E
  8
DEFAULT
 10
101.2061871710929
 20
2.994002762876469
 30
0.0
 11
100.0985029918068
 21
4.075909477025415
 31
0.0
  0
ARC
  5
27F
  8
DEFAULT
 10
98.0796496372049
 20
3.998257629633115
 30
0.0
 40
0.5
 50
32.57897039280697
 51
89.99999999999837
  0
LINE
  5
280
  8
DEFAULT
 10
94.12403908441172
 20
4.498257629633113
 30
0.0
 11
98.07964963720491
 21
4.498257629633113
 31
0.0
  0
ARC
  5
281
  8
DEFAULT
 10
99.17509475221519
 20
4.698257629633114
 30
0.0
 40
0.7999999999999737
 50
212.5789703928035
 51
283.0955262612309
  0
ARC
  5
282
  8
DEFAULT
 10
99.46964258666542
 20
3.432065869582282
 30
0.0
 40
0.5
 50
45.67449665403605
 51
103.0955262612342
  0
LINE
  5
283
  8
DEFAULT
 10
101.043247628461
 20
2.594008462661812
 30
0.0
 11
99.81900947841065
 21
3.789756762606243
 31
0.0
  0
CIRCLE
  5
284
  8
DEFAULT
 10
-99.17509475221519
 20
4.698257629633114
 30
0.0
 40
0.4
210
0.0
220
0.0
230
-1.0
  0
CIRCLE
  5
285
  8
DEFAULT
 10
-83.97509477208808
 20
7.23898907797809
 30
0.0
 40
0.4
210
0.0
220
0.0
230
-1.0
  0
CIRCLE
  5
286
  8
DEFAULT
 10
-83.97512017213893
 20
12.31902463804931
 30
0.0
 40
0.4
210
0.0
220
0.0
230
-1.0
  0
CIRCLE
  5
287
  8
DEFAULT
 10
-86.00712423614726
 20
65.27813055626109
 30
0.0
 40
0.4
210
0.0
220
0.0
230
-1.0
  0
CIRCLE
  5
288
  8
DEFAULT
 10
-83.97512017213893
 20
9.779019558039181
 30
0.0
 40
0.4
210
0.0
220
0.0
230
-1.0
  0
CIRCLE
  5
289
  8
DEFAULT
 10
-86.00712423614726
 20
60.19812039624082
 30
0.0
 40
0.4
210
0.0
220
0.0
230
-1.0
  0
CIRCLE
  5
28A
  8
DEFAULT
 10
-99.17509475221519
 20
14.85902971805945
 30
0.0
 40
0.4
210
0.0
220
0.0
230
-1.0
  0
CIRCLE
  5
28B
  8
DEFAULT
 10
-111.1531491281968
 20
25.14605029210065
 30
0.0
 40
0.4
210
0.0
220
0.0
230
-1.0
  0
CIRCLE
  5
28C
  8
DEFAULT
 10
-99.17509475221519
 20
7.238989157668799
 30
0.0
 40
0.4
210
0.0
220
0.0
230
-1.0
  0
CIRCLE
  5
28D
  8
DEFAULT
 10
-111.5341498901984
 20
15.95400050800095
 30
0.0
 40
0.4
210
0.0
220
0.0
230
-1.0
  0
CIRCLE
  5
28E
  8
DEFAULT
 10
-83.97512017213893
 20
17.39903479806958
 30
0.0
 40
0.4
210
0.0
220
0.0
230
-1.0
  0
CIRCLE
  5
28F
  8
DEFAULT
 10
-86.00712423614726
 20
67.81813563627134
 30
0.0
 40
0.4
210
0.0
220
0.0
230
-1.0
  0
CIRCLE
  5
290
  8
DEFAULT
 10
-83.97512017213893
 20
14.85902971805945
 30
0.0
 40
0.4
210
0.0
220
0.0
230
-1.0
  0
CIRCLE
  5
291
  8
DEFAULT
 10
-86.00712423614726
 20
52.57810515621031
 30
0.0
 40
0.4
210
0.0
220
0.0
230
-1.0
  0
CIRCLE
  5
292
  8
DEFAULT
 10
-83.97512017213893
 20
19.93903987807983
 30
0.0
 40
0.4
210
0.0
220
0.0
230
-1.0
  0
CIRCLE
  5
293
  8
DEFAULT
 10
-86.00712423614726
 20
62.73812547625096
 30
0.0
 40
0.4
210
0.0
220
0.0
230
-1.0
  0
CIRCLE
  5
294
  8
DEFAULT
 10
-83.97512017213893
 20
22.47904495808996
 30
0.0
 40
0.4
210
0.0
220
0.0
230
-1.0
  0
CIRCLE
  5
295
  8
DEFAULT
 10
-86.00712423614726
 20
57.65811531623069
 30
0.0
 40
0.4
210
0.0
220
0.0
230
-1.0
  0
CIRCLE
  5
296
  8
DEFAULT
 10
-99.17509475221519
 20
9.779720685704484
 30
0.0
 40
0.4
210
0.0
220
0.0
230
-1.0
  0
CIRCLE
  5
297
  8
DEFAULT
 10
-111.5341498901984
 20
12.95400050800095
 30
0.0
 40
0.4
210
0.0
220
0.0
230
-1.0
  0
CIRCLE
  5
298
  8
DEFAULT
 10
-99.17509475221519
 20
12.31899923799847
 30
0.0
 40
0.4
210
0.0
220
0.0
230
-1.0
  0
CIRCLE
  5
299
  8
DEFAULT
 10
-111.1531491281968
 20
22.14605029210065
 30
0.0
 40
0.4
210
0.0
220
0.0
230
-1.0
  0
CIRCLE
  5
29A
  8
DEFAULT
 10
-86.00709883609642
 20
55.1180848361696
 30
0.0
 40
0.4
210
0.0
220
0.0
230
-1.0
  0
CIRCLE
  5
29B
  8
DEFAULT
 10
-86.00712423614726
 20
72.8981457962916
 30
0.0
 40
0.4
210
0.0
220
0.0
230
-1.0
  0
CIRCLE
  5
29C
  8
DEFAULT
 10
-109.8831719882427
 20
4.699009398018802
 30
0.0
 40
0.4
210
0.0
220
0.0
230
-1.0
  0
CIRCLE
  5
29D
  8
DEFAULT
 10
-99.17507684620557
 20
22.47904495808996
 30
0.0
 40
0.4
210
0.0
220
0.0
230
-1.0
  0
CIRCLE
  5
29E
  8
DEFAULT
 10
-86.00712423614726
 20
70.35814071628147
 30
0.0
 40
0.4
210
0.0
220
0.0
230
-1.0
  0
CIRCLE
  5
29F
  8
DEFAULT
 10
-112.8831719882427
 20
4.699009398018802
 30
0.0
 40
0.4
210
0.0
220
0.0
230
-1.0
  0
LINE
  5
2A0
  8
DEFAULT
 10
124.3050166844257
 20
0.2363920843010305
 30
0.0
 11
74.30501668442565
 21
0.2363920843010305
 31
0.0
  0
LINE
  5
2A1
  8
DEFAULT
 10
74.30501668442565
 20
0.2363920843010305
 30
0.0
 11
74.30501668442565
 21
75.23639208430102
 31
0.0
  0
LINE
  5
2A2
  8
DEFAULT
 10
74.30501668442565
 20
75.23639208430102
 30
0.0
 11
124.3050166844257
 21
75.23639208430102
 31
0.0
  0
LINE
  5
2A3
  8
DEFAULT
 10
124.3050166844257
 20
75.23639208430102
 30
0.0
 11
124.3050166844257
 21
0.2363920843010305
 31
0.0
  0
ENDSEC
  0
EOF
