  0
SECTION
  2
HEADER
  9
$ACADVER
  1
AC1009
  9
$DWGCODEPAGE
  3
ansi_1252
  9
$INSBASE
 10
0.0
 20
0.0
 30
0.0
  9
$EXTMIN
 10
-1220.022003671723
 20
140.3901517580885
 30
0.0
  9
$EXTMAX
 10
-895.2094167281668
 20
244.6646119443669
 30
0.0
  9
$LIMMIN
 10
0.0
 20
0.0
  9
$LIMMAX
 10
12.0
 20
9.0
  9
$ORTHOMODE
 70
     0
  9
$REGENMODE
 70
     1
  9
$FILLMODE
 70
     1
  9
$QTEXTMODE
 70
     0
  9
$MIRRTEXT
 70
     1
  9
$DRAGMODE
 70
     2
  9
$LTSCALE
 40
1.0
  9
$OSMODE
 70
    37
  9
$ATTMODE
 70
     1
  9
$TEXTSIZE
 40
0.2
  9
$TRACEWID
 40
0.05
  9
$TEXTSTYLE
  7
STANDARD
  9
$CLAYER
  8
DEFAULT
  9
$CELTYPE
  6
BYLAYER
  9
$CECOLOR
 62
   256
  9
$DIMSCALE
 40
1.0
  9
$DIMASZ
 40
0.18
  9
$DIMEXO
 40
0.0625
  9
$DIMDLI
 40
0.38
  9
$DIMRND
 40
0.0
  9
$DIMDLE
 40
0.0
  9
$DIMEXE
 40
0.18
  9
$DIMTP
 40
0.0
  9
$DIMTM
 40
0.0
  9
$DIMTXT
 40
0.18
  9
$DIMCEN
 40
0.09
  9
$DIMTSZ
 40
0.0
  9
$DIMTOL
 70
     0
  9
$DIMLIM
 70
     0
  9
$DIMTIH
 70
     1
  9
$DIMTOH
 70
     1
  9
$DIMSE1
 70
     0
  9
$DIMSE2
 70
     0
  9
$DIMTAD
 70
     0
  9
$DIMZIN
 70
     0
  9
$DIMBLK
  1

  9
$DIMASO
 70
     1
  9
$DIMSHO
 70
     1
  9
$DIMPOST
  1

  9
$DIMAPOST
  1

  9
$DIMALT
 70
     0
  9
$DIMALTD
 70
     2
  9
$DIMALTF
 40
25.4
  9
$DIMLFAC
 40
1.0
  9
$DIMTOFL
 70
     0
  9
$DIMTVP
 40
0.0
  9
$DIMTIX
 70
     0
  9
$DIMSOXD
 70
     0
  9
$DIMSAH
 70
     0
  9
$DIMBLK1
  1

  9
$DIMBLK2
  1

  9
$DIMSTYLE
  2
STANDARD_ACAD
  9
$DIMCLRD
 70
     0
  9
$DIMCLRE
 70
     0
  9
$DIMCLRT
 70
     0
  9
$DIMTFAC
 40
1.0
  9
$DIMGAP
 40
0.09
  9
$LUNITS
 70
     2
  9
$LUPREC
 70
     3
  9
$SKETCHINC
 40
0.1
  9
$FILLETRAD
 40
0.0
  9
$AUNITS
 70
     0
  9
$AUPREC
 70
     0
  9
$MENU
  1
.
  9
$ELEVATION
 40
0.0
  9
$PELEVATION
 40
0.0
  9
$THICKNESS
 40
0.0
  9
$LIMCHECK
 70
     0
  9
$CHAMFERA
 40
0.0
  9
$CHAMFERB
 40
0.0
  9
$SKPOLY
 70
     0
  9
$TDCREATE
 40
2461077.769706956
  9
$TDUPDATE
 40
2461077.76971721
  9
$TDINDWG
 40
0.0000000116
  9
$TDUSRTIMER
 40
0.0000000116
  9
$USRTIMER
 70
     1
  9
$ANGBASE
 50
0.0
  9
$ANGDIR
 70
     0
  9
$PDMODE
 70
     0
  9
$PDSIZE
 40
0.0
  9
$PLINEWID
 40
0.0
  9
$COORDS
 70
     1
  9
$SPLFRAME
 70
     0
  9
$SPLINETYPE
 70
     6
  9
$SPLINESEGS
 70
     8
  9
$ATTDIA
 70
     0
  9
$ATTREQ
 70
     1
  9
$HANDLING
 70
     1
  9
$HANDSEED
  5
53C
  9
$SURFTAB1
 70
     6
  9
$SURFTAB2
 70
     6
  9
$SURFTYPE
 70
     6
  9
$SURFU
 70
     6
  9
$SURFV
 70
     6
  9
$UCSNAME
  2

  9
$UCSORG
 10
0.0
 20
0.0
 30
0.0
  9
$UCSXDIR
 10
1.0
 20
0.0
 30
0.0
  9
$UCSYDIR
 10
0.0
 20
1.0
 30
0.0
  9
$PUCSNAME
  2

  9
$PUCSORG
 10
0.0
 20
0.0
 30
0.0
  9
$PUCSXDIR
 10
1.0
 20
0.0
 30
0.0
  9
$PUCSYDIR
 10
0.0
 20
1.0
 30
0.0
  9
$USERI1
 70
     0
  9
$USERI2
 70
     0
  9
$USERI3
 70
     0
  9
$USERI4
 70
     0
  9
$USERI5
 70
     0
  9
$USERR1
 40
0.0
  9
$USERR2
 40
0.0
  9
$USERR3
 40
0.0
  9
$USERR4
 40
0.0
  9
$USERR5
 40
0.0
  9
$WORLDVIEW
 70
     1
  9
$SHADEDGE
 70
     3
  9
$SHADEDIF
 70
    70
  9
$TILEMODE
 70
     1
  9
$MAXACTVP
 70
    64
  9
$PLIMCHECK
 70
     0
  9
$PEXTMIN
 10
1.000000000000000E+20
 20
1.000000000000000E+20
 30
1.000000000000000E+20
  9
$PEXTMAX
 10
-1.000000000000000E+20
 20
-1.000000000000000E+20
 30
-1.000000000000000E+20
  9
$PLIMMIN
 10
0.0
 20
0.0
  9
$PLIMMAX
 10
12.0
 20
9.0
  9
$UNITMODE
 70
     0
  9
$VISRETAIN
 70
     1
  9
$PLINEGEN
 70
     0
  9
$PSLTSCALE
 70
     1
  0
ENDSEC
  0
SECTION
  2
TABLES
  0
TABLE
  2
VPORT
 70
     1
  0
VPORT
  2
*ACTIVE
 70
     0
 10
0.0
 20
0.0
 11
1.0
 21
1.0
 12
10.42990654205607
 22
4.5
 13
0.0
 23
0.0
 14
0.5
 24
0.5
 15
0.5
 25
0.5
 16
0.0
 26
0.0
 36
1.0
 17
0.0
 27
0.0
 37
0.0
 40
9.0
 41
1.972972972850329
 42
50.0
 43
0.0
 44
0.0
 50
0.0
 51
0.0
 71
     0
 72
   100
 73
     1
 74
     3
 75
     0
 76
     0
 77
     0
 78
     0
  0
ENDTAB
  0
TABLE
  2
LTYPE
 70
     1
  0
LTYPE
  2
CONTINUOUS
 70
     0
  3
Solid line
 72
    65
 73
     0
 40
0.0
  0
ENDTAB
  0
TABLE
  2
LAYER
 70
     2
  0
LAYER
  2
0
 70
     0
 62
     7
  6
CONTINUOUS
  0
LAYER
  2
DEFAULT
 70
     0
 62
     7
  6
CONTINUOUS
  0
ENDTAB
  0
TABLE
  2
STYLE
 70
     1
  0
STYLE
  2
STANDARD
 70
     0
 40
0.0
 41
1.0
 50
0.0
 71
     0
 42
0.2
  3
txt
  4

  0
ENDTAB
  0
TABLE
  2
VIEW
 70
     0
  0
ENDTAB
  0
TABLE
  2
UCS
 70
     0
  0
ENDTAB
  0
TABLE
  2
APPID
 70
     2
  0
APPID
  2
ACAD
 70
     0
  0
APPID
  2
RHINO
 70
     0
  0
ENDTAB
  0
TABLE
  2
DIMSTYLE
 70
     1
  0
DIMSTYLE
  2
STANDARD_ACAD
 70
     0
  3

  4

  5

  6

  7

 40
1.0
 41
0.18
 42
0.0625
 43
0.38
 44
0.18
 45
0.0
 46
0.0
 47
0.0
 48
0.0
140
0.18
141
0.09
142
0.0
143
25.4
144
1.0
145
0.0
146
1.0
147
0.09
 71
     0
 72
     0
 73
     1
 74
     1
 75
     0
 76
     0
 77
     0
 78
     0
170
     0
171
     2
172
     0
173
     0
174
     0
175
     0
176
     0
177
     0
178
     0
  0
ENDTAB
  0
ENDSEC
  0
SECTION
  2
BLOCKS
  0
BLOCK
  8
0
  2
$MODEL_SPACE
 70
     0
 10
0.0
 20
0.0
 30
0.0
  3
$MODEL_SPACE
  1

  0
ENDBLK
  5
21
  8
0
  0
BLOCK
 67
     1
  8
0
  2
$PAPER_SPACE
 70
     0
 10
0.0
 20
0.0
 30
0.0
  3
$PAPER_SPACE
  1

  0
ENDBLK
  5
1D
 67
     1
  8
0
  0
ENDSEC
  0
SECTION
  2
ENTITIES
  0
POLYLINE
  5
60
  8
DEFAULT
 66
     1
 10
0.0
 20
0.0
 30
0.0
 70
     1
  0
VERTEX
  5
61
  8
DEFAULT
 10
-1004.170176328435
 20
190.2861104050265
 30
0.0
  0
VERTEX
  5
62
  8
DEFAULT
 10
-991.6048446012547
 20
152.9155799499209
 30
0.0
 42
-0.1022609663488824
  0
VERTEX
  5
63
  8
DEFAULT
 10
-991.344117436231
 20
151.3220640272975
 30
0.0
  0
VERTEX
  5
64
  8
DEFAULT
 10
-991.3441174362312
 20
143.1401517580885
 30
0.0
  0
VERTEX
  5
65
  8
DEFAULT
 10
-999.0
 20
143.1401517580885
 30
0.0
  0
VERTEX
  5
66
  8
DEFAULT
 10
-999.0
 20
140.3901517580885
 30
0.0
  0
VERTEX
  5
67
  8
DEFAULT
 10
-1007.300000190735
 20
140.3901517580885
 30
0.0
  0
VERTEX
  5
68
  8
DEFAULT
 10
-1007.300000190735
 20
158.093247374474
 30
0.0
  0
VERTEX
  5
69
  8
DEFAULT
 10
-1010.300000190735
 20
158.093247374474
 30
0.0
  0
VERTEX
  5
6A
  8
DEFAULT
 10
-1010.300000190735
 20
170.3282800125243
 30
0.0
  0
VERTEX
  5
6B
  8
DEFAULT
 10
-1007.300000190735
 20
170.3282800125243
 30
0.0
  0
VERTEX
  5
6C
  8
DEFAULT
 10
-1007.300000190735
 20
180.4520235036527
 30
0.0
  0
VERTEX
  5
6D
  8
DEFAULT
 10
-1010.300000190735
 20
180.4520235036527
 30
0.0
  0
VERTEX
  5
6E
  8
DEFAULT
 10
-1010.300000190735
 20
192.6098482419116
 30
0.0
  0
VERTEX
  5
6F
  8
DEFAULT
 10
-1007.092960871766
 20
192.6098482419116
 30
0.0
  0
VERTEX
  5
70
  8
DEFAULT
 10
-1006.795693841182
 20
192.6087490617214
 30
0.0
  0
VERTEX
  5
71
  8
DEFAULT
 10
-1006.503444658912
 20
192.6013384597941
 30
0.0
  0
VERTEX
  5
72
  8
DEFAULT
 10
-1006.360602459424
 20
192.59350458485
 30
0.0
  0
VERTEX
  5
73
  8
DEFAULT
 10
-1006.220610989772
 20
192.5820850777533
 30
0.0
  0
VERTEX
  5
74
  8
DEFAULT
 10
-1006.083914244962
 20
192.5665214840525
 30
0.0
  0
VERTEX
  5
75
  8
DEFAULT
 10
-1006.016928580442
 20
192.5570256807941
 30
0.0
  0
VERTEX
  5
76
  8
DEFAULT
 10
-1005.95091393476
 20
192.5463085354343
 30
0.0
  0
VERTEX
  5
77
  8
DEFAULT
 10
-1005.885913914569
 20
192.5343151997681
 30
0.0
  0
VERTEX
  5
78
  8
DEFAULT
 10
-1005.821969483694
 20
192.5209941497238
 30
0.0
  0
VERTEX
  5
79
  8
DEFAULT
 10
-1005.759118963133
 20
192.5062971853639
 30
0.0
  0
VERTEX
  5
7A
  8
DEFAULT
 10
-1005.697398031055
 20
192.4901794308843
 30
0.0
  0
VERTEX
  5
7B
  8
DEFAULT
 10
-1005.636839722803
 20
192.4725993346143
 30
0.0
  0
VERTEX
  5
7C
  8
DEFAULT
 10
-1005.577474430892
 20
192.4535186690171
 30
0.0
  0
VERTEX
  5
7D
  8
DEFAULT
 10
-1005.519329905011
 20
192.4329025306896
 30
0.0
  0
VERTEX
  5
7E
  8
DEFAULT
 10
-1005.462431252019
 20
192.4107193403622
 30
0.0
  0
VERTEX
  5
7F
  8
DEFAULT
 10
-1005.406800935949
 20
192.3869408428988
 30
0.0
  0
VERTEX
  5
80
  8
DEFAULT
 10
-1005.352458778008
 20
192.3615421072972
 30
0.0
  0
VERTEX
  5
81
  8
DEFAULT
 10
-1005.299421956573
 20
192.3345015266888
 30
0.0
  0
VERTEX
  5
82
  8
DEFAULT
 10
-1005.273397692641
 20
192.3203597013033
 30
0.0
  0
VERTEX
  5
83
  8
DEFAULT
 10
-1005.247705007196
 20
192.3058008183385
 30
0.0
  0
VERTEX
  5
84
  8
DEFAULT
 10
-1005.22234530424
 20
192.2908231118482
 30
0.0
  0
VERTEX
  5
85
  8
DEFAULT
 10
-1005.197319822599
 20
192.2754250236449
 30
0.0
  0
VERTEX
  5
86
  8
DEFAULT
 10
-1005.172629635921
 20
192.2596052032993
 30
0.0
  0
VERTEX
  5
87
  8
DEFAULT
 10
-1005.148275652678
 20
192.2433625081404
 30
0.0
  0
VERTEX
  5
88
  8
DEFAULT
 10
-1005.124258616166
 20
192.2266960032557
 30
0.0
  0
VERTEX
  5
89
  8
DEFAULT
 10
-1005.100579104503
 20
192.2096049614908
 30
0.0
  0
VERTEX
  5
8A
  8
DEFAULT
 10
-1005.07723753063
 20
192.19208886345
 30
0.0
  0
VERTEX
  5
8B
  8
DEFAULT
 10
-1005.054234142313
 20
192.1741473974957
 30
0.0
  0
VERTEX
  5
8C
  8
DEFAULT
 10
-1005.031569022141
 20
192.1557804597487
 30
0.0
  0
VERTEX
  5
8D
  8
DEFAULT
 10
-1005.009242087523
 20
192.1369881540882
 30
0.0
  0
VERTEX
  5
8E
  8
DEFAULT
 10
-1004.987253090697
 20
192.1177707921517
 30
0.0
  0
VERTEX
  5
8F
  8
DEFAULT
 10
-1004.96560161872
 20
192.0981288933351
 30
0.0
  0
VERTEX
  5
90
  8
DEFAULT
 10
-1004.944287093473
 20
192.0780631847927
 30
0.0
  0
VERTEX
  5
91
  8
DEFAULT
 10
-1004.923308771661
 20
192.057574601437
 30
0.0
  0
VERTEX
  5
92
  8
DEFAULT
 10
-1004.902665744813
 20
192.0366642859389
 30
0.0
  0
VERTEX
  5
93
  8
DEFAULT
 10
-1004.882356939279
 20
192.0153335887278
 30
0.0
  0
VERTEX
  5
94
  8
DEFAULT
 10
-1004.862381116235
 20
191.9935840679913
 30
0.0
  0
VERTEX
  5
95
  8
DEFAULT
 10
-1004.842736871678
 20
191.9714174896754
 30
0.0
  0
VERTEX
  5
96
  8
DEFAULT
 10
-1004.804436676133
 20
191.9258412628812
 30
0.0
  0
VERTEX
  5
97
  8
DEFAULT
 10
-1004.767441817095
 20
191.8786231910801
 30
0.0
  0
VERTEX
  5
98
  8
DEFAULT
 10
-1004.731735116186
 20
191.8297848811408
 30
0.0
  0
VERTEX
  5
99
  8
DEFAULT
 10
-1004.697296752199
 20
191.7793512640656
 30
0.0
  0
VERTEX
  5
9A
  8
DEFAULT
 10
-1004.664104261101
 20
191.7273505949905
 30
0.0
  0
VERTEX
  5
9B
  8
DEFAULT
 10
-1004.632132536032
 20
191.673814453185
 30
0.0
  0
VERTEX
  5
9C
  8
DEFAULT
 10
-1004.601353827305
 20
191.6187777420523
 30
0.0
  0
VERTEX
  5
9D
  8
DEFAULT
 10
-1004.571737742404
 20
191.5622786891294
 30
0.0
  0
VERTEX
  5
9E
  8
DEFAULT
 10
-1004.543251245987
 20
191.5043588460866
 30
0.0
  0
VERTEX
  5
9F
  8
DEFAULT
 10
-1004.515858659883
 20
191.4450630887281
 30
0.0
  0
VERTEX
  5
A0
  8
DEFAULT
 10
-1004.489521663094
 20
191.3844396169917
 30
0.0
  0
VERTEX
  5
A1
  8
DEFAULT
 10
-1004.464199291797
 20
191.3225399549489
 30
0.0
  0
VERTEX
  5
A2
  8
DEFAULT
 10
-1004.439847939338
 20
191.2594189508046
 30
0.0
  0
VERTEX
  5
A3
  8
DEFAULT
 10
-1004.39387065019
 20
191.1297489297001
 30
0.0
  0
VERTEX
  5
A4
  8
DEFAULT
 10
-1004.351188085884
 20
190.9959348219915
 30
0.0
  0
VERTEX
  5
A5
  8
DEFAULT
 10
-1004.311356251413
 20
190.8585350821303
 30
0.0
  0
VERTEX
  5
A6
  8
DEFAULT
 10
-1004.238257365767
 20
190.5754784544469
 30
0.0
  0
SEQEND
  5
A7
  8
DEFAULT
  0
POLYLINE
  5
A8
  8
DEFAULT
 66
     1
 10
0.0
 20
0.0
 30
0.0
 70
     1
  0
VERTEX
  5
A9
  8
DEFAULT
 10
-1122.769533740425
 20
176.2434777816634
 30
0.0
  0
VERTEX
  5
AA
  8
DEFAULT
 10
-1124.485780108421
 20
176.2434777816634
 30
0.0
 42
0.9999999999997696
  0
VERTEX
  5
AB
  8
DEFAULT
 10
-1124.485780108421
 20
173.1581523937737
 30
0.0
  0
VERTEX
  5
AC
  8
DEFAULT
 10
-1122.769533740425
 20
173.1581523937732
 30
0.0
 42
1.000000000000147
  0
SEQEND
  5
AD
  8
DEFAULT
  0
POLYLINE
  5
AE
  8
DEFAULT
 66
     1
 10
0.0
 20
0.0
 30
0.0
 70
     1
  0
VERTEX
  5
AF
  8
DEFAULT
 10
-1151.606249346771
 20
173.158152393773
 30
0.0
 42
1.000000000000074
  0
VERTEX
  5
B0
  8
DEFAULT
 10
-1151.606249346771
 20
176.2434777816631
 30
0.0
  0
VERTEX
  5
B1
  8
DEFAULT
 10
-1154.073362365086
 20
176.2434777816631
 30
0.0
 42
0.9999999999999999
  0
VERTEX
  5
B2
  8
DEFAULT
 10
-1154.073362365086
 20
173.158152393773
 30
0.0
  0
SEQEND
  5
B3
  8
DEFAULT
  0
POLYLINE
  5
B4
  8
DEFAULT
 66
     1
 10
0.0
 20
0.0
 30
0.0
 70
     1
  0
VERTEX
  5
B5
  8
DEFAULT
 10
-1153.418231186551
 20
155.9265551434742
 30
0.0
 42
-0.0740377116877382
  0
VERTEX
  5
B6
  8
DEFAULT
 10
-1153.279844626207
 20
157.0947652116984
 30
0.0
  0
VERTEX
  5
B7
  8
DEFAULT
 10
-1152.445392881336
 20
160.5674127504711
 30
0.0
  0
VERTEX
  5
B8
  8
DEFAULT
 10
-1152.314366849809
 20
161.1206241439866
 30
0.0
  0
VERTEX
  5
B9
  8
DEFAULT
 10
-1152.195107375199
 20
161.6704275204077
 30
0.0
  0
VERTEX
  5
BA
  8
DEFAULT
 10
-1152.143174651776
 20
161.9430998772113
 30
0.0
  0
VERTEX
  5
BB
  8
DEFAULT
 10
-1152.097926720871
 20
162.2138360782358
 30
0.0
  0
VERTEX
  5
BC
  8
DEFAULT
 10
-1152.060404724459
 20
162.482334571407
 30
0.0
  0
VERTEX
  5
BD
  8
DEFAULT
 10
-1152.031550648135
 20
162.7483225238955
 30
0.0
  0
VERTEX
  5
BE
  8
DEFAULT
 10
-1152.020641337432
 20
162.8802976400433
 30
0.0
  0
VERTEX
  5
BF
  8
DEFAULT
 10
-1152.012207321116
 20
163.0115558221174
 30
0.0
  0
VERTEX
  5
C0
  8
DEFAULT
 10
-1152.006338459655
 20
163.1420710433019
 30
0.0
  0
VERTEX
  5
C1
  8
DEFAULT
 10
-1152.003118416243
 20
163.2718190717338
 30
0.0
  0
VERTEX
  5
C2
  8
DEFAULT
 10
-1152.0026246568
 20
163.4007774705026
 30
0.0
  0
VERTEX
  5
C3
  8
DEFAULT
 10
-1152.004928449974
 20
163.528925597651
 30
0.0
  0
VERTEX
  5
C4
  8
DEFAULT
 10
-1152.010094867138
 20
163.6562446061743
 30
0.0
  0
VERTEX
  5
C5
  8
DEFAULT
 10
-1152.018182782392
 20
163.7827174440207
 30
0.0
  0
VERTEX
  5
C6
  8
DEFAULT
 10
-1152.029244872562
 20
163.9083288540911
 30
0.0
  0
VERTEX
  5
C7
  8
DEFAULT
 10
-1152.0433276172
 20
164.0330653742395
 30
0.0
  0
VERTEX
  5
C8
  8
DEFAULT
 10
-1152.060471298585
 20
164.1569153372724
 30
0.0
  0
VERTEX
  5
C9
  8
DEFAULT
 10
-1152.080710001722
 20
164.2798688709492
 30
0.0
  0
VERTEX
  5
CA
  8
DEFAULT
 10
-1152.104071614343
 20
164.4019178979824
 30
0.0
  0
VERTEX
  5
CB
  8
DEFAULT
 10
-1152.130577826906
 20
164.523056136037
 30
0.0
  0
VERTEX
  5
CC
  8
DEFAULT
 10
-1152.160244132594
 20
164.643279097731
 30
0.0
  0
VERTEX
  5
CD
  8
DEFAULT
 10
-1152.193079827319
 20
164.7625840906351
 30
0.0
  0
VERTEX
  5
CE
  8
DEFAULT
 10
-1152.229088009716
 20
164.8809702172729
 30
0.0
  0
VERTEX
  5
CF
  8
DEFAULT
 10
-1152.26826558115
 20
164.9984383751208
 30
0.0
  0
VERTEX
  5
D0
  8
DEFAULT
 10
-1152.310603245709
 20
165.1149912566081
 30
0.0
  0
VERTEX
  5
D1
  8
DEFAULT
 10
-1152.35608551021
 20
165.2306333491168
 30
0.0
  0
VERTEX
  5
D2
  8
DEFAULT
 10
-1152.404690684194
 20
165.3453709349818
 30
0.0
  0
VERTEX
  5
D3
  8
DEFAULT
 10
-1152.45639087993
 20
165.4592120914909
 30
0.0
  0
VERTEX
  5
D4
  8
DEFAULT
 10
-1152.511152012414
 20
165.5721666908844
 30
0.0
  0
VERTEX
  5
D5
  8
DEFAULT
 10
-1152.568933799366
 20
165.6842464003558
 30
0.0
  0
VERTEX
  5
D6
  8
DEFAULT
 10
-1152.629689761234
 20
165.7954646820514
 30
0.0
  0
VERTEX
  5
D7
  8
DEFAULT
 10
-1152.693367221191
 20
165.90583679307
 30
0.0
  0
VERTEX
  5
D8
  8
DEFAULT
 10
-1152.759907305139
 20
166.0153797854635
 30
0.0
  0
VERTEX
  5
D9
  8
DEFAULT
 10
-1152.829244941704
 20
166.1241125062365
 30
0.0
  0
VERTEX
  5
DA
  8
DEFAULT
 10
-1152.901308862238
 20
166.2320555973466
 30
0.0
  0
VERTEX
  5
DB
  8
DEFAULT
 10
-1152.976021600821
 20
166.3392314957039
 30
0.0
  0
VERTEX
  5
DC
  8
DEFAULT
 10
-1153.053299494258
 20
166.4456644331717
 30
0.0
  0
VERTEX
  5
DD
  8
DEFAULT
 10
-1153.133052682083
 20
166.5513804365659
 30
0.0
  0
VERTEX
  5
DE
  8
DEFAULT
 10
-1153.29959451265
 20
166.7607747231611
 30
0.0
  0
VERTEX
  5
DF
  8
DEFAULT
 10
-1153.474804263306
 20
166.9676584690738
 30
0.0
  0
VERTEX
  5
E0
  8
DEFAULT
 10
-1153.657739948454
 20
167.172304507133
 30
0.0
  0
VERTEX
  5
E1
  8
DEFAULT
 10
-1153.847360426121
 20
167.3750143894133
 30
0.0
  0
VERTEX
  5
E2
  8
DEFAULT
 10
-1154.241995409218
 20
167.7759754911598
 30
0.0
  0
VERTEX
  5
E3
  8
DEFAULT
 10
-1154.648396949232
 20
168.1735285758119
 30
0.0
  0
VERTEX
  5
E4
  8
DEFAULT
 10
-1155.074344069189
 20
168.5874922410759
 30
0.0
  0
VERTEX
  5
E5
  8
DEFAULT
 10
-1155.490190178651
 20
168.9943153265447
 30
0.0
  0
VERTEX
  5
E6
  8
DEFAULT
 10
-1155.893749808211
 20
169.4045644634843
 30
0.0
  0
VERTEX
  5
E7
  8
DEFAULT
 10
-1156.087492504993
 20
169.6119301604269
 30
0.0
  0
VERTEX
  5
E8
  8
DEFAULT
 10
-1156.274255031661
 20
169.821242258802
 30
0.0
  0
VERTEX
  5
E9
  8
DEFAULT
 10
-1156.45295024182
 20
170.0328039064223
 30
0.0
  0
VERTEX
  5
EA
  8
DEFAULT
 10
-1156.622594526825
 20
170.2468893798804
 30
0.0
  0
VERTEX
  5
EB
  8
DEFAULT
 10
-1156.703743505798
 20
170.3549563682595
 30
0.0
  0
VERTEX
  5
EC
  8
DEFAULT
 10
-1156.782307815786
 20
170.4637440845485
 30
0.0
  0
VERTEX
  5
ED
  8
DEFAULT
 10
-1156.8581936257
 20
170.5732786932908
 30
0.0
  0
VERTEX
  5
EE
  8
DEFAULT
 10
-1156.931313575561
 20
170.6835845545785
 30
0.0
  0
VERTEX
  5
EF
  8
DEFAULT
 10
-1157.001586776503
 20
170.7946842240524
 30
0.0
  0
VERTEX
  5
F0
  8
DEFAULT
 10
-1157.068938810764
 20
170.9065984529021
 30
0.0
  0
VERTEX
  5
F1
  8
DEFAULT
 10
-1157.133301731696
 20
171.0193461878659
 30
0.0
  0
VERTEX
  5
F2
  8
DEFAULT
 10
-1157.194614063758
 20
171.1329445712308
 30
0.0
  0
VERTEX
  5
F3
  8
DEFAULT
 10
-1157.252820802519
 20
171.2474089408325
 30
0.0
  0
VERTEX
  5
F4
  8
DEFAULT
 10
-1157.307873414659
 20
171.3627528300557
 30
0.0
  0
VERTEX
  5
F5
  8
DEFAULT
 10
-1157.359729837965
 20
171.4789879678334
 30
0.0
  0
VERTEX
  5
F6
  8
DEFAULT
 10
-1157.408354481335
 20
171.5961242786477
 30
0.0
  0
VERTEX
  5
F7
  8
DEFAULT
 10
-1157.453718224776
 20
171.7141698825292
 30
0.0
  0
VERTEX
  5
F8
  8
DEFAULT
 10
-1157.495798419406
 20
171.8331310950574
 30
0.0
  0
VERTEX
  5
F9
  8
DEFAULT
 10
-1157.53457888745
 20
171.9530124273605
 30
0.0
  0
VERTEX
  5
FA
  8
DEFAULT
 10
-1157.570049922244
 20
172.0738165861154
 30
0.0
  0
VERTEX
  5
FB
  8
DEFAULT
 10
-1157.602208288233
 20
172.1955444735476
 30
0.0
  0
VERTEX
  5
FC
  8
DEFAULT
 10
-1157.631057220973
 20
172.3181951874316
 30
0.0
  0
VERTEX
  5
FD
  8
DEFAULT
 10
-1157.656606427127
 20
172.4417660210904
 30
0.0
  0
VERTEX
  5
FE
  8
DEFAULT
 10
-1157.67887208447
 20
172.5662524633959
 30
0.0
  0
VERTEX
  5
FF
  8
DEFAULT
 10
-1157.697876841884
 20
172.6916481987687
 30
0.0
  0
VERTEX
  5
100
  8
DEFAULT
 10
-1157.713649819362
 20
172.8179451071781
 30
0.0
  0
VERTEX
  5
101
  8
DEFAULT
 10
-1157.726226608006
 20
172.945133264142
 30
0.0
  0
VERTEX
  5
102
  8
DEFAULT
 10
-1157.735649270029
 20
173.0732009407274
 30
0.0
  0
VERTEX
  5
103
  8
DEFAULT
 10
-1157.741966338751
 20
173.2021346035496
 30
0.0
  0
VERTEX
  5
104
  8
DEFAULT
 10
-1157.745232818603
 20
173.3319189147728
 30
0.0
  0
VERTEX
  5
105
  8
DEFAULT
 10
-1157.745510185126
 20
173.4625367321102
 30
0.0
  0
VERTEX
  5
106
  8
DEFAULT
 10
-1157.742866384968
 20
173.5939691088234
 30
0.0
  0
VERTEX
  5
107
  8
DEFAULT
 10
-1157.73737583589
 20
173.7261952937228
 30
0.0
  0
VERTEX
  5
108
  8
DEFAULT
 10
-1157.729119426761
 20
173.8591927311675
 30
0.0
  0
VERTEX
  5
109
  8
DEFAULT
 10
-1157.718184517557
 20
173.9929370610655
 30
0.0
  0
VERTEX
  5
10A
  8
DEFAULT
 10
-1157.704664939368
 20
174.1274021188735
 30
0.0
  0
VERTEX
  5
10B
  8
DEFAULT
 10
-1157.67027945593
 20
174.3983807377896
 30
0.0
  0
VERTEX
  5
10C
  8
DEFAULT
 10
-1157.626843047339
 20
174.6718831825433
 30
0.0
  0
VERTEX
  5
10D
  8
DEFAULT
 10
-1157.575339322239
 20
174.9476351765423
 30
0.0
  0
VERTEX
  5
10E
  8
DEFAULT
 10
-1157.516855427025
 20
175.2253335719739
 30
0.0
  0
VERTEX
  5
10F
  8
DEFAULT
 10
-1157.383813400601
 20
175.7852126197825
 30
0.0
  0
VERTEX
  5
110
  8
DEFAULT
 10
-1157.238484894274
 20
176.348517719062
 30
0.0
  0
VERTEX
  5
111
  8
DEFAULT
 10
-1156.8601015775
 20
177.7954120142492
 30
0.0
  0
VERTEX
  5
112
  8
DEFAULT
 10
-1156.723161566977
 20
178.3123845127406
 30
0.0
  0
VERTEX
  5
113
  8
DEFAULT
 10
-1156.57815990922
 20
178.8218830706755
 30
0.0
  0
VERTEX
  5
114
  8
DEFAULT
 10
-1156.500385608152
 20
179.0717433218141
 30
0.0
  0
VERTEX
  5
115
  8
DEFAULT
 10
-1156.418031340363
 20
179.3173574929595
 30
0.0
  0
VERTEX
  5
116
  8
DEFAULT
 10
-1156.330383785942
 20
179.5580642663378
 30
0.0
  0
VERTEX
  5
117
  8
DEFAULT
 10
-1156.236797560209
 20
179.7932653068203
 30
0.0
  0
VERTEX
  5
118
  8
DEFAULT
 10
-1156.187594338927
 20
179.9086314193148
 30
0.0
  0
VERTEX
  5
119
  8
DEFAULT
 10
-1156.136695213713
 20
180.0224252619232
 30
0.0
  0
VERTEX
  5
11A
  8
DEFAULT
 10
-1156.084038618265
 20
180.1345897566231
 30
0.0
  0
VERTEX
  5
11B
  8
DEFAULT
 10
-1156.029567232235
 20
180.2450717618079
 30
0.0
  0
VERTEX
  5
11C
  8
DEFAULT
 10
-1155.973227981221
 20
180.353822072286
 30
0.0
  0
VERTEX
  5
11D
  8
DEFAULT
 10
-1155.91497203678
 20
180.4607954192812
 30
0.0
  0
VERTEX
  5
11E
  8
DEFAULT
 10
-1155.854754816417
 20
180.5659504704326
 30
0.0
  0
VERTEX
  5
11F
  8
DEFAULT
 10
-1155.792535983589
 20
180.6692498297947
 30
0.0
  0
VERTEX
  5
120
  8
DEFAULT
 10
-1155.728279447705
 20
180.7706600378372
 30
0.0
  0
VERTEX
  5
121
  8
DEFAULT
 10
-1155.661953364126
 20
180.8701515714453
 30
0.0
  0
VERTEX
  5
122
  8
DEFAULT
 10
-1155.593530134167
 20
180.9676988439193
 30
0.0
  0
VERTEX
  5
123
  8
DEFAULT
 10
-1155.522986405091
 20
181.063280204975
 30
0.0
  0
VERTEX
  5
124
  8
DEFAULT
 10
-1155.450303070115
 20
181.1568779407434
 30
0.0
  0
VERTEX
  5
125
  8
DEFAULT
 10
-1155.375465268408
 20
181.248478273771
 30
0.0
  0
VERTEX
  5
126
  8
DEFAULT
 10
-1155.29846238509
 20
181.3380713630193
 30
0.0
  0
VERTEX
  5
127
  8
DEFAULT
 10
-1155.219288051234
 20
181.4256513038654
 30
0.0
  0
VERTEX
  5
128
  8
DEFAULT
 10
-1155.137940143863
 20
181.5112161281018
 30
0.0
  0
VERTEX
  5
129
  8
DEFAULT
 10
-1155.054420785954
 20
181.594767803936
 30
0.0
  0
VERTEX
  5
12A
  8
DEFAULT
 10
-1154.968736346433
 20
181.676312235991
 30
0.0
  0
VERTEX
  5
12B
  8
DEFAULT
 10
-1154.880897440182
 20
181.755859265305
 30
0.0
  0
VERTEX
  5
12C
  8
DEFAULT
 10
-1154.79091892803
 20
181.8334226693319
 30
0.0
  0
VERTEX
  5
12D
  8
DEFAULT
 10
-1154.698819916762
 20
181.9090201619404
 30
0.0
  0
VERTEX
  5
12E
  8
DEFAULT
 10
-1154.604623759113
 20
181.9826733934149
 30
0.0
  0
VERTEX
  5
12F
  8
DEFAULT
 10
-1154.508358053769
 20
182.0544079504548
 30
0.0
  0
VERTEX
  5
130
  8
DEFAULT
 10
-1154.41005464537
 20
182.1242533561753
 30
0.0
  0
VERTEX
  5
131
  8
DEFAULT
 10
-1154.309749624506
 20
182.1922430701064
 30
0.0
  0
VERTEX
  5
132
  8
DEFAULT
 10
-1154.20748332772
 20
182.2584144881938
 30
0.0
  0
VERTEX
  5
133
  8
DEFAULT
 10
-1154.103300337506
 20
182.3228089427982
 30
0.0
  0
VERTEX
  5
134
  8
DEFAULT
 10
-1153.99724948231
 20
182.3854717026959
 30
0.0
  0
VERTEX
  5
135
  8
DEFAULT
 10
-1153.88938383653
 20
182.4464519730785
 30
0.0
  0
VERTEX
  5
136
  8
DEFAULT
 10
-1153.779760720516
 20
182.5058028955527
 30
0.0
  0
VERTEX
  5
137
  8
DEFAULT
 10
-1153.66844170057
 20
182.5635815481406
 30
0.0
  0
VERTEX
  5
138
  8
DEFAULT
 10
-1153.440983443848
 20
182.6746700378233
 30
0.0
  0
VERTEX
  5
139
  8
DEFAULT
 10
-1153.207586515815
 20
182.78025279461
 30
0.0
  0
VERTEX
  5
13A
  8
DEFAULT
 10
-1152.96889630115
 20
182.8809281536297
 30
0.0
  0
VERTEX
  5
13B
  8
DEFAULT
 10
-1152.725626119763
 20
182.9773574326562
 30
0.0
  0
VERTEX
  5
13C
  8
DEFAULT
 10
-1152.22853881261
 20
183.1604379350515
 30
0.0
  0
VERTEX
  5
13D
  8
DEFAULT
 10
-1151.723389858224
 20
183.3360444968904
 30
0.0
  0
VERTEX
  5
13E
  8
DEFAULT
 10
-1150.696311867393
 20
183.6894621363551
 30
0.0
  0
VERTEX
  5
13F
  8
DEFAULT
 10
-1150.179023619496
 20
183.8693127803999
 30
0.0
  0
VERTEX
  5
140
  8
DEFAULT
 10
-1149.67022221949
 20
184.0568754765035
 30
0.0
  0
VERTEX
  5
141
  8
DEFAULT
 10
-1149.42137313382
 20
184.1557016114181
 30
0.0
  0
VERTEX
  5
142
  8
DEFAULT
 10
-1149.177345579009
 20
184.2589091017509
 30
0.0
  0
VERTEX
  5
143
  8
DEFAULT
 10
-1148.938890498059
 20
184.3671803341307
 30
0.0
  0
VERTEX
  5
144
  8
DEFAULT
 10
-1148.70668731559
 20
184.4811327059836
 30
0.0
  0
VERTEX
  5
145
  8
DEFAULT
 10
-1148.593122950673
 20
184.5404144854228
 30
0.0
  0
VERTEX
  5
146
  8
DEFAULT
 10
-1148.481343937842
 20
184.6013186255327
 30
0.0
  0
VERTEX
  5
147
  8
DEFAULT
 10
-1148.371415090631
 20
184.663904022778
 30
0.0
  0
VERTEX
  5
148
  8
DEFAULT
 10
-1148.263396752673
 20
184.7282255117987
 30
0.0
  0
VERTEX
  5
149
  8
DEFAULT
 10
-1148.157344797704
 20
184.7943338654094
 30
0.0
  0
VERTEX
  5
14A
  8
DEFAULT
 10
-1148.05331062956
 20
184.8622757945995
 30
0.0
  0
VERTEX
  5
14B
  8
DEFAULT
 10
-1147.951341182178
 20
184.9320939485333
 30
0.0
  0
VERTEX
  5
14C
  8
DEFAULT
 10
-1147.851478919599
 20
185.00382691455
 30
0.0
  0
VERTEX
  5
14D
  8
DEFAULT
 10
-1147.75376183596
 20
185.0775092181635
 30
0.0
  0
VERTEX
  5
14E
  8
DEFAULT
 10
-1147.658223455505
 20
185.1531713230627
 30
0.0
  0
VERTEX
  5
14F
  8
DEFAULT
 10
-1147.564892832574
 20
185.2308396311111
 30
0.0
  0
VERTEX
  5
150
  8
DEFAULT
 10
-1147.473794551612
 20
185.3105364823471
 30
0.0
  0
VERTEX
  5
151
  8
DEFAULT
 10
-1147.384948727163
 20
185.3922801549841
 30
0.0
  0
VERTEX
  5
152
  8
DEFAULT
 10
-1147.298371003872
 20
185.4760848654101
 30
0.0
  0
VERTEX
  5
153
  8
DEFAULT
 10
-1147.214072556488
 20
185.561960768188
 30
0.0
  0
VERTEX
  5
154
  8
DEFAULT
 10
-1147.132060089858
 20
185.6499139560558
 30
0.0
  0
VERTEX
  5
155
  8
DEFAULT
 10
-1147.052335838932
 20
185.7399464599258
 30
0.0
  0
VERTEX
  5
156
  8
DEFAULT
 10
-1146.974897568761
 20
185.8320562488856
 30
0.0
  0
VERTEX
  5
157
  8
DEFAULT
 10
-1146.899738574495
 20
185.9262372301973
 30
0.0
  0
VERTEX
  5
158
  8
DEFAULT
 10
-1146.826847681388
 20
186.0224792492981
 30
0.0
  0
VERTEX
  5
159
  8
DEFAULT
 10
-1146.756209244795
 20
186.1207680897998
 30
0.0
  0
VERTEX
  5
15A
  8
DEFAULT
 10
-1146.687803150169
 20
186.2210854734892
 30
0.0
  0
VERTEX
  5
15B
  8
DEFAULT
 10
-1146.621604813069
 20
186.3234090603277
 30
0.0
  0
VERTEX
  5
15C
  8
DEFAULT
 10
-1146.557585179151
 20
186.427712448452
 30
0.0
  0
VERTEX
  5
15D
  8
DEFAULT
 10
-1146.495710724175
 20
186.533965174173
 30
0.0
  0
VERTEX
  5
15E
  8
DEFAULT
 10
-1146.435943454
 20
186.6421327119769
 30
0.0
  0
VERTEX
  5
15F
  8
DEFAULT
 10
-1146.378240904588
 20
186.7521764745245
 30
0.0
  0
VERTEX
  5
160
  8
DEFAULT
 10
-1146.322556142002
 20
186.8640538126516
 30
0.0
  0
VERTEX
  5
161
  8
DEFAULT
 10
-1146.268837762404
 20
186.9777180153687
 30
0.0
  0
VERTEX
  5
162
  8
DEFAULT
 10
-1146.217029892059
 20
187.0931183098611
 30
0.0
  0
VERTEX
  5
163
  8
DEFAULT
 10
-1146.167072187334
 20
187.210199861489
 30
0.0
  0
VERTEX
  5
164
  8
DEFAULT
 10
-1146.118899834695
 20
187.3289037737875
 30
0.0
  0
VERTEX
  5
165
  8
DEFAULT
 10
-1146.027629582052
 20
187.5709227854102
 30
0.0
  0
VERTEX
  5
166
  8
DEFAULT
 10
-1145.94261122789
 20
187.8186229365059
 30
0.0
  0
VERTEX
  5
167
  8
DEFAULT
 10
-1145.863165347589
 20
188.0713868296486
 30
0.0
  0
VERTEX
  5
168
  8
DEFAULT
 10
-1145.788540998148
 20
188.3285320782095
 30
0.0
  0
VERTEX
  5
169
  8
DEFAULT
 10
-1145.65039552793
 20
188.852912149057
 30
0.0
  0
VERTEX
  5
16A
  8
DEFAULT
 10
-1145.520736905604
 20
189.3850042719632
 30
0.0
  0
VERTEX
  5
16B
  8
DEFAULT
 10
-1144.48410609962
 20
193.6990385324013
 30
0.0
  0
VERTEX
  5
16C
  8
DEFAULT
 10
-1144.308879015178
 20
194.4178942702012
 30
0.0
  0
VERTEX
  5
16D
  8
DEFAULT
 10
-1144.122659320475
 20
195.1228030469695
 30
0.0
  0
VERTEX
  5
16E
  8
DEFAULT
 10
-1144.023183752033
 20
195.4633349732352
 30
0.0
  0
VERTEX
  5
16F
  8
DEFAULT
 10
-1143.91572723249
 20
195.8014328127956
 30
0.0
  0
VERTEX
  5
170
  8
DEFAULT
 10
-1143.803035640098
 20
196.1242715584509
 30
0.0
  0
VERTEX
  5
171
  8
DEFAULT
 10
-1143.742820316369
 20
196.2842912354819
 30
0.0
  0
VERTEX
  5
172
  8
DEFAULT
 10
-1143.679751509231
 20
196.4432132392554
 30
0.0
  0
VERTEX
  5
173
  8
DEFAULT
 10
-1143.616448159623
 20
196.5943438674646
 30
0.0
  0
VERTEX
  5
174
  8
DEFAULT
 10
-1143.550146481117
 20
196.7441860081028
 30
0.0
  0
VERTEX
  5
175
  8
DEFAULT
 10
-1143.480656801619
 20
196.8925723843358
 30
0.0
  0
VERTEX
  5
176
  8
DEFAULT
 10
-1143.407789449039
 20
197.0393357193294
 30
0.0
  0
VERTEX
  5
177
  8
DEFAULT
 10
-1143.3346838318
 20
197.1781720522429
 30
0.0
  0
VERTEX
  5
178
  8
DEFAULT
 10
-1143.258162051633
 20
197.3151591028933
 30
0.0
  0
VERTEX
  5
179
  8
DEFAULT
 10
-1143.178078330556
 20
197.4500888737798
 30
0.0
  0
VERTEX
  5
17A
  8
DEFAULT
 10
-1143.094286890588
 20
197.5827533674017
 30
0.0
  0
VERTEX
  5
17B
  8
DEFAULT
 10
-1143.010004730192
 20
197.708111321516
 30
0.0
  0
VERTEX
  5
17C
  8
DEFAULT
 10
-1142.922086409724
 20
197.8309522311182
 30
0.0
  0
VERTEX
  5
17D
  8
DEFAULT
 10
-1142.830466160261
 20
197.9510506218268
 30
0.0
  0
VERTEX
  5
17E
  8
DEFAULT
 10
-1142.735078212882
 20
198.0681810192602
 30
0.0
  0
VERTEX
  5
17F
  8
DEFAULT
 10
-1142.638508037063
 20
198.1791938241268
 30
0.0
  0
VERTEX
  5
180
  8
DEFAULT
 10
-1142.538342218854
 20
198.286981237036
 30
0.0
  0
VERTEX
  5
181
  8
DEFAULT
 10
-1142.434621428254
 20
198.3913470942666
 30
0.0
  0
VERTEX
  5
182
  8
DEFAULT
 10
-1142.327386335257
 20
198.4920952320973
 30
0.0
  0
VERTEX
  5
183
  8
DEFAULT
 10
-1142.217754315057
 20
198.5881473213558
 30
0.0
  0
VERTEX
  5
184
  8
DEFAULT
 10
-1142.104855360567
 20
198.6803455531343
 30
0.0
  0
VERTEX
  5
185
  8
DEFAULT
 10
-1141.988830988954
 20
198.7685783874971
 30
0.0
  0
VERTEX
  5
186
  8
DEFAULT
 10
-1141.869822717383
 20
198.8527342845087
 30
0.0
  0
VERTEX
  5
187
  8
DEFAULT
 10
-1141.746808394138
 20
198.9334624005747
 30
0.0
  0
VERTEX
  5
188
  8
DEFAULT
 10
-1141.621097568932
 20
199.0099282294433
 30
0.0
  0
VERTEX
  5
189
  8
DEFAULT
 10
-1141.492890478419
 20
199.0821380588412
 30
0.0
  0
VERTEX
  5
18A
  8
DEFAULT
 10
-1141.362387359257
 20
199.1500981764947
 30
0.0
  0
VERTEX
  5
18B
  8
DEFAULT
 10
-1141.22621218428
 20
199.2154794599684
 30
0.0
  0
VERTEX
  5
18C
  8
DEFAULT
 10
-1141.088031454631
 20
199.2765038773509
 30
0.0
  0
VERTEX
  5
18D
  8
DEFAULT
 10
-1140.948049037785
 20
199.3332880575464
 30
0.0
  0
VERTEX
  5
18E
  8
DEFAULT
 10
-1140.806468801214
 20
199.3859486294592
 30
0.0
  0
VERTEX
  5
18F
  8
DEFAULT
 10
-1140.657898903417
 20
199.4364249481631
 30
0.0
  0
VERTEX
  5
190
  8
DEFAULT
 10
-1140.507992704049
 20
199.4827669037271
 30
0.0
  0
VERTEX
  5
191
  8
DEFAULT
 10
-1140.356918383939
 20
199.5251648363449
 30
0.0
  0
VERTEX
  5
192
  8
DEFAULT
 10
-1140.204844123915
 20
199.56380908621
 30
0.0
  0
VERTEX
  5
193
  8
DEFAULT
 10
-1140.045117928556
 20
199.6003695852135
 30
0.0
  0
VERTEX
  5
194
  8
DEFAULT
 10
-1139.884602779717
 20
199.6332666854227
 30
0.0
  0
VERTEX
  5
195
  8
DEFAULT
 10
-1139.723417009088
 20
199.6627238922127
 30
0.0
  0
VERTEX
  5
196
  8
DEFAULT
 10
-1139.561678948357
 20
199.6889647109591
 30
0.0
  0
VERTEX
  5
197
  8
DEFAULT
 10
-1139.392419955364
 20
199.7131570860672
 30
0.0
  0
VERTEX
  5
198
  8
DEFAULT
 10
-1139.22276036337
 20
199.7343184919268
 30
0.0
  0
VERTEX
  5
199
  8
DEFAULT
 10
-1138.882527435867
 20
199.7684623893223
 30
0.0
  0
VERTEX
  5
19A
  8
DEFAULT
 10
-1138.528680878177
 20
199.7939509411713
 30
0.0
  0
VERTEX
  5
19B
  8
DEFAULT
 10
-1138.174332288103
 20
199.8111107283194
 30
0.0
  0
VERTEX
  5
19C
  8
DEFAULT
 10
-1137.445424747057
 20
199.8274800563741
 30
0.0
  0
VERTEX
  5
19D
  8
DEFAULT
 10
-1136.705524596251
 20
199.8299024233141
 30
0.0
  0
VERTEX
  5
19E
  8
DEFAULT
 10
-1129.295817519341
 20
199.8299024233142
 30
0.0
  0
VERTEX
  5
19F
  8
DEFAULT
 10
-1128.555917366282
 20
199.8274800564039
 30
0.0
  0
VERTEX
  5
1A0
  8
DEFAULT
 10
-1127.827009825116
 20
199.811110728379
 30
0.0
  0
VERTEX
  5
1A1
  8
DEFAULT
 10
-1127.47266123485
 20
199.7939509412457
 30
0.0
  0
VERTEX
  5
1A2
  8
DEFAULT
 10
-1127.118814677232
 20
199.7684623894116
 30
0.0
  0
VERTEX
  5
1A3
  8
DEFAULT
 10
-1126.778581749704
 20
199.7343184920308
 30
0.0
  0
VERTEX
  5
1A4
  8
DEFAULT
 10
-1126.608922157663
 20
199.7131570861787
 30
0.0
  0
VERTEX
  5
1A5
  8
DEFAULT
 10
-1126.439663164622
 20
199.6889647110781
 30
0.0
  0
VERTEX
  5
1A6
  8
DEFAULT
 10
-1126.277925103853
 20
199.6627238923391
 30
0.0
  0
VERTEX
  5
1A7
  8
DEFAULT
 10
-1126.116739333194
 20
199.6332666855564
 30
0.0
  0
VERTEX
  5
1A8
  8
DEFAULT
 10
-1125.956224184329
 20
199.6003695853547
 30
0.0
  0
VERTEX
  5
1A9
  8
DEFAULT
 10
-1125.796497988944
 20
199.5638090863587
 30
0.0
  0
VERTEX
  5
1AA
  8
DEFAULT
 10
-1125.644423728892
 20
199.5251648365009
 30
0.0
  0
VERTEX
  5
1AB
  8
DEFAULT
 10
-1125.493349408752
 20
199.4827669038906
 30
0.0
  0
VERTEX
  5
1AC
  8
DEFAULT
 10
-1125.343443209354
 20
199.436424948334
 30
0.0
  0
VERTEX
  5
1AD
  8
DEFAULT
 10
-1125.194873311525
 20
199.3859486296376
 30
0.0
  0
VERTEX
  5
1AE
  8
DEFAULT
 10
-1125.053293074924
 20
199.3332880577322
 30
0.0
  0
VERTEX
  5
1AF
  8
DEFAULT
 10
-1124.913310658048
 20
199.2765038775441
 30
0.0
  0
VERTEX
  5
1B0
  8
DEFAULT
 10
-1124.77512992837
 20
199.215479460169
 30
0.0
  0
VERTEX
  5
1B1
  8
DEFAULT
 10
-1124.638954753362
 20
199.1500981767028
 30
0.0
  0
VERTEX
  5
1B2
  8
DEFAULT
 10
-1124.508451634171
 20
199.0821380590566
 30
0.0
  0
VERTEX
  5
1B3
  8
DEFAULT
 10
-1124.380244543628
 20
199.0099282296662
 30
0.0
  0
VERTEX
  5
1B4
  8
DEFAULT
 10
-1124.254533718391
 20
198.933462400805
 30
0.0
  0
VERTEX
  5
1B5
  8
DEFAULT
 10
-1124.131519395117
 20
198.8527342847465
 30
0.0
  0
VERTEX
  5
1B6
  8
DEFAULT
 10
-1124.012511123516
 20
198.7685783877424
 30
0.0
  0
VERTEX
  5
1B7
  8
DEFAULT
 10
-1123.896486751873
 20
198.680345553387
 30
0.0
  0
VERTEX
  5
1B8
  8
DEFAULT
 10
-1123.783587797353
 20
198.5881473216159
 30
0.0
  0
VERTEX
  5
1B9
  8
DEFAULT
 10
-1123.673955777123
 20
198.4920952323646
 30
0.0
  0
VERTEX
  5
1BA
  8
DEFAULT
 10
-1123.566720684096
 20
198.3913470945412
 30
0.0
  0
VERTEX
  5
1BB
  8
DEFAULT
 10
-1123.462999893465
 20
198.2869812373179
 30
0.0
  0
VERTEX
  5
1BC
  8
DEFAULT
 10
-1123.362834075227
 20
198.1791938244161
 30
0.0
  0
VERTEX
  5
1BD
  8
DEFAULT
 10
-1123.266263899378
 20
198.0681810195573
 30
0.0
  0
VERTEX
  5
1BE
  8
DEFAULT
 10
-1123.170875951969
 20
197.9510506221322
 30
0.0
  0
VERTEX
  5
1BF
  8
DEFAULT
 10
-1123.079255702477
 20
197.8309522314318
 30
0.0
  0
VERTEX
  5
1C0
  8
DEFAULT
 10
-1122.991337381979
 20
197.7081113218369
 30
0.0
  0
VERTEX
  5
1C1
  8
DEFAULT
 10
-1122.907055221553
 20
197.5827533677285
 30
0.0
  0
VERTEX
  5
1C2
  8
DEFAULT
 10
-1122.823263781552
 20
197.450088874111
 30
0.0
  0
VERTEX
  5
1C3
  8
DEFAULT
 10
-1122.743180060444
 20
197.3151591032292
 30
0.0
  0
VERTEX
  5
1C4
  8
DEFAULT
 10
-1122.666658280247
 20
197.1781720525864
 30
0.0
  0
VERTEX
  5
1C5
  8
DEFAULT
 10
-1122.593552662981
 20
197.039335719686
 30
0.0
  0
VERTEX
  5
1C6
  8
DEFAULT
 10
-1122.520685310377
 20
196.8925723847122
 30
0.0
  0
VERTEX
  5
1C7
  8
DEFAULT
 10
-1122.451195630855
 20
196.7441860084975
 30
0.0
  0
VERTEX
  5
1C8
  8
DEFAULT
 10
-1122.384893952318
 20
196.594343867866
 30
0.0
  0
VERTEX
  5
1C9
  8
DEFAULT
 10
-1122.32159060267
 20
196.4432132396417
 30
0.0
  0
VERTEX
  5
1CA
  8
DEFAULT
 10
-1122.258521795476
 20
196.2842912358269
 30
0.0
  0
VERTEX
  5
1CB
  8
DEFAULT
 10
-1122.198306471694
 20
196.1242715587601
 30
0.0
  0
VERTEX
  5
1CC
  8
DEFAULT
 10
-1122.085614879291
 20
195.8014328132116
 30
0.0
  0
VERTEX
  5
1CD
  8
DEFAULT
 10
-1121.978158359878
 20
195.4633349740296
 30
0.0
  0
VERTEX
  5
1CE
  8
DEFAULT
 10
-1121.878682791185
 20
195.1228030474153
 30
0.0
  0
VERTEX
  5
1CF
  8
DEFAULT
 10
-1121.692463096363
 20
194.4178942706765
 30
0.0
  0
VERTEX
  5
1D0
  8
DEFAULT
 10
-1121.517236015013
 20
193.6990385328234
 30
0.0
  0
VERTEX
  5
1D1
  8
DEFAULT
 10
-1112.721497488494
 20
157.0947652124504
 30
0.0
  0
VERTEX
  5
1D2
  8
DEFAULT
 10
-1112.583110927963
 20
155.9265551434746
 30
0.0
  0
VERTEX
  5
1D3
  8
DEFAULT
 10
-1112.583110928606
 20
147.5188568369965
 30
0.0
  0
VERTEX
  5
1D4
  8
DEFAULT
 10
-1127.000620465197
 20
147.5188568369964
 30
0.0
  0
VERTEX
  5
1D5
  8
DEFAULT
 10
-1127.000666841765
 20
144.7688568369964
 30
0.0
  0
VERTEX
  5
1D6
  8
DEFAULT
 10
-1139.000666841332
 20
144.7688568369963
 30
0.0
  0
VERTEX
  5
1D7
  8
DEFAULT
 10
-1139.000620465198
 20
147.5188568369963
 30
0.0
  0
VERTEX
  5
1D8
  8
DEFAULT
 10
-1153.418231186551
 20
147.5188568369962
 30
0.0
  0
SEQEND
  5
1D9
  8
DEFAULT
  0
POLYLINE
  5
1DA
  8
DEFAULT
 66
     1
 10
0.0
 20
0.0
 30
0.0
 70
     1
  0
VERTEX
  5
1DB
  8
DEFAULT
 10
-1134.500620465198
 20
159.6126606322551
 30
0.0
  0
VERTEX
  5
1DC
  8
DEFAULT
 10
-1134.500620465198
 20
157.4719524533818
 30
0.0
  0
VERTEX
  5
1DD
  8
DEFAULT
 10
-1131.500620465198
 20
157.4719524533819
 30
0.0
  0
VERTEX
  5
1DE
  8
DEFAULT
 10
-1131.500620465198
 20
166.6822446143501
 30
0.0
  0
VERTEX
  5
1DF
  8
DEFAULT
 10
-1134.500620465198
 20
166.68224461435
 30
0.0
  0
SEQEND
  5
1E0
  8
DEFAULT
  0
POLYLINE
  5
1E1
  8
DEFAULT
 66
     1
 10
0.0
 20
0.0
 30
0.0
 70
     1
  0
VERTEX
  5
1E2
  8
DEFAULT
 10
-1139.840945143879
 20
172.0104006419224
 30
0.0
  0
VERTEX
  5
1E3
  8
DEFAULT
 10
-1138.322132652657
 20
172.0104006419224
 30
0.0
 42
4.124051154232133
  0
VERTEX
  5
1E4
  8
DEFAULT
 10
-1138.322132652657
 20
177.3912295335138
 30
0.0
  0
VERTEX
  5
1E5
  8
DEFAULT
 10
-1139.84094514388
 20
177.391229533514
 30
0.0
 42
0.7619971876223289
  0
SEQEND
  5
1E6
  8
DEFAULT
  0
POLYLINE
  5
1E7
  8
DEFAULT
 66
     1
 10
0.0
 20
0.0
 30
0.0
 70
     1
  0
VERTEX
  5
1E8
  8
DEFAULT
 10
-1125.000774908621
 20
153.6126606322552
 30
0.0
  0
VERTEX
  5
1E9
  8
DEFAULT
 10
-1117.000620465198
 20
153.6126606322553
 30
0.0
  0
VERTEX
  5
1EA
  8
DEFAULT
 10
-1117.000620465198
 20
159.6126606322553
 30
0.0
  0
VERTEX
  5
1EB
  8
DEFAULT
 10
-1125.000774908621
 20
159.6126606322552
 30
0.0
  0
SEQEND
  5
1EC
  8
DEFAULT
  0
POLYLINE
  5
1ED
  8
DEFAULT
 66
     1
 10
0.0
 20
0.0
 30
0.0
 70
     1
  0
VERTEX
  5
1EE
  8
DEFAULT
 10
-1149.000774908621
 20
159.612660632255
 30
0.0
  0
VERTEX
  5
1EF
  8
DEFAULT
 10
-1149.000774908621
 20
153.612660632255
 30
0.0
  0
VERTEX
  5
1F0
  8
DEFAULT
 10
-1141.000620465198
 20
153.6126606322551
 30
0.0
  0
VERTEX
  5
1F1
  8
DEFAULT
 10
-1141.000620465198
 20
159.6126606322551
 30
0.0
  0
SEQEND
  5
1F2
  8
DEFAULT
  0
POLYLINE
  5
1F3
  8
DEFAULT
 66
     1
 10
0.0
 20
0.0
 30
0.0
 70
     1
  0
VERTEX
  5
1F4
  8
DEFAULT
 10
-1137.69293895496
 20
189.8299024233141
 30
0.0
  0
VERTEX
  5
1F5
  8
DEFAULT
 10
-1142.0006204185
 20
189.8299024233141
 30
0.0
  0
VERTEX
  5
1F6
  8
DEFAULT
 10
-1142.0006204185
 20
195.8299024233141
 30
0.0
  0
VERTEX
  5
1F7
  8
DEFAULT
 10
-1137.69293895496
 20
195.8299024233141
 30
0.0
  0
SEQEND
  5
1F8
  8
DEFAULT
  0
POLYLINE
  5
1F9
  8
DEFAULT
 66
     1
 10
0.0
 20
0.0
 30
0.0
 70
     1
  0
VERTEX
  5
1FA
  8
DEFAULT
 10
-1128.308301975432
 20
195.8299024233142
 30
0.0
  0
VERTEX
  5
1FB
  8
DEFAULT
 10
-1124.000620511891
 20
195.8299024233142
 30
0.0
  0
VERTEX
  5
1FC
  8
DEFAULT
 10
-1124.000620511891
 20
189.8299024233142
 30
0.0
  0
VERTEX
  5
1FD
  8
DEFAULT
 10
-1128.308301975432
 20
189.8299024233142
 30
0.0
  0
SEQEND
  5
1FE
  8
DEFAULT
  0
POLYLINE
  5
1FF
  8
DEFAULT
 66
     1
 10
0.0
 20
0.0
 30
0.0
 70
     1
  0
VERTEX
  5
200
  8
DEFAULT
 10
-1076.583060335422
 20
192.0734954490634
 30
0.0
  0
VERTEX
  5
201
  8
DEFAULT
 10
-1076.583060335422
 20
200.4811937555417
 30
0.0
  0
VERTEX
  5
202
  8
DEFAULT
 10
-1091.000620465197
 20
200.4811937555416
 30
0.0
  0
VERTEX
  5
203
  8
DEFAULT
 10
-1091.000620465197
 20
203.2311937555417
 30
0.0
  0
VERTEX
  5
204
  8
DEFAULT
 10
-1103.000620465197
 20
203.2311937555417
 30
0.0
  0
VERTEX
  5
205
  8
DEFAULT
 10
-1103.000620465197
 20
200.4811937555416
 30
0.0
  0
VERTEX
  5
206
  8
DEFAULT
 10
-1117.418180594972
 20
200.4811937555415
 30
0.0
  0
VERTEX
  5
207
  8
DEFAULT
 10
-1117.418180594972
 20
191.4811937555416
 30
0.0
  0
VERTEX
  5
208
  8
DEFAULT
 10
-1108.484055507795
 20
154.3010120600571
 30
0.0
  0
VERTEX
  5
209
  8
DEFAULT
 10
-1108.297619573147
 20
153.5375541100282
 30
0.0
  0
VERTEX
  5
20A
  8
DEFAULT
 10
-1108.09805913103
 20
152.7907479814801
 30
0.0
  0
VERTEX
  5
20B
  8
DEFAULT
 10
-1107.989693601891
 20
152.4282375939683
 30
0.0
  0
VERTEX
  5
20C
  8
DEFAULT
 10
-1107.873871804113
 20
152.0751874055983
 30
0.0
  0
VERTEX
  5
20D
  8
DEFAULT
 10
-1107.749432439985
 20
151.7330708219226
 30
0.0
  0
VERTEX
  5
20E
  8
DEFAULT
 10
-1107.683648507133
 20
151.566534701144
 30
0.0
  0
VERTEX
  5
20F
  8
DEFAULT
 10
-1107.615324811577
 20
151.4032209241552
 30
0.0
  0
VERTEX
  5
210
  8
DEFAULT
 10
-1107.544347297294
 20
151.2432742004302
 30
0.0
  0
VERTEX
  5
211
  8
DEFAULT
 10
-1107.470608820743
 20
151.0868304691718
 30
0.0
  0
VERTEX
  5
212
  8
DEFAULT
 10
-1107.394009150873
 20
150.9340168993115
 30
0.0
  0
VERTEX
  5
213
  8
DEFAULT
 10
-1107.314454969116
 20
150.7849518895099
 30
0.0
  0
VERTEX
  5
214
  8
DEFAULT
 10
-1107.231859869395
 20
150.6397450681561
 30
0.0
  0
VERTEX
  5
215
  8
DEFAULT
 10
-1107.146144358114
 20
150.4984972933684
 30
0.0
  0
VERTEX
  5
216
  8
DEFAULT
 10
-1107.057235854168
 20
150.3613006529939
 30
0.0
  0
VERTEX
  5
217
  8
DEFAULT
 10
-1106.965068688936
 20
150.2282384646083
 30
0.0
  0
VERTEX
  5
218
  8
DEFAULT
 10
-1106.869584106283
 20
150.0993852755165
 30
0.0
  0
VERTEX
  5
219
  8
DEFAULT
 10
-1106.770730262561
 20
149.9748068627519
 30
0.0
  0
VERTEX
  5
21A
  8
DEFAULT
 10
-1106.66846222661
 20
149.8545602330772
 30
0.0
  0
VERTEX
  5
21B
  8
DEFAULT
 10
-1106.616035735694
 20
149.7960767533907
 30
0.0
  0
VERTEX
  5
21C
  8
DEFAULT
 10
-1106.562741979754
 20
149.7386936229834
 30
0.0
  0
VERTEX
  5
21D
  8
DEFAULT
 10
-1106.508577286535
 20
149.6824155010619
 30
0.0
  0
VERTEX
  5
21E
  8
DEFAULT
 10
-1106.453538415805
 20
149.6272464986909
 30
0.0
  0
VERTEX
  5
21F
  8
DEFAULT
 10
-1106.397622559369
 20
149.5731901787929
 30
0.0
  0
VERTEX
  5
220
  8
DEFAULT
 10
-1106.34082734106
 20
149.5202495561486
 30
0.0
  0
VERTEX
  5
221
  8
DEFAULT
 10
-1106.28315081674
 20
149.4684270973968
 30
0.0
  0
VERTEX
  5
222
  8
DEFAULT
 10
-1106.224591474302
 20
149.4177247210343
 30
0.0
  0
VERTEX
  5
223
  8
DEFAULT
 10
-1106.165148233672
 20
149.3681437974161
 30
0.0
  0
VERTEX
  5
224
  8
DEFAULT
 10
-1106.104820446803
 20
149.3196851487549
 30
0.0
  0
VERTEX
  5
225
  8
DEFAULT
 10
-1106.043607897681
 20
149.2723490491218
 30
0.0
  0
VERTEX
  5
226
  8
DEFAULT
 10
-1105.98151080232
 20
149.2261352244458
 30
0.0
  0
VERTEX
  5
227
  8
DEFAULT
 10
-1105.918529808766
 20
149.181042852514
 30
0.0
  0
VERTEX
  5
228
  8
DEFAULT
 10
-1105.854665997095
 20
149.1370705629716
 30
0.0
  0
VERTEX
  5
229
  8
DEFAULT
 10
-1105.789920879414
 20
149.0942164373216
 30
0.0
  0
VERTEX
  5
22A
  8
DEFAULT
 10
-1105.724296399859
 20
149.0524780089254
 30
0.0
  0
VERTEX
  5
22B
  8
DEFAULT
 10
-1105.657794934597
 20
149.0118522630022
 30
0.0
  0
VERTEX
  5
22C
  8
DEFAULT
 10
-1105.590419291826
 20
148.9723356366294
 30
0.0
  0
VERTEX
  5
22D
  8
DEFAULT
 10
-1105.522172711775
 20
148.9339240187424
 30
0.0
  0
VERTEX
  5
22E
  8
DEFAULT
 10
-1105.4530588667
 20
148.8966127501346
 30
0.0
  0
VERTEX
  5
22F
  8
DEFAULT
 10
-1105.31224623067
 20
148.8252698832209
 30
0.0
  0
VERTEX
  5
230
  8
DEFAULT
 10
-1105.168019402409
 20
148.7582587993969
 30
0.0
  0
VERTEX
  5
231
  8
DEFAULT
 10
-1105.02042331308
 20
148.6955224919002
 30
0.0
  0
VERTEX
  5
232
  8
DEFAULT
 10
-1104.86950980633
 20
148.6369951836972
 30
0.0
  0
VERTEX
  5
233
  8
DEFAULT
 10
-1104.715337638294
 20
148.5826023274832
 30
0.0
  0
VERTEX
  5
234
  8
DEFAULT
 10
-1104.557972477593
 20
148.5322606056824
 30
0.0
  0
VERTEX
  5
235
  8
DEFAULT
 10
-1104.397486905332
 20
148.4858779304476
 30
0.0
  0
VERTEX
  5
236
  8
DEFAULT
 10
-1104.233960415106
 20
148.4433534436608
 30
0.0
  0
VERTEX
  5
237
  8
DEFAULT
 10
-1104.067479412995
 20
148.4045775169325
 30
0.0
  0
VERTEX
  5
238
  8
DEFAULT
 10
-1103.898137217564
 20
148.3694317516023
 30
0.0
  0
VERTEX
  5
239
  8
DEFAULT
 10
-1103.726034059865
 20
148.3377889787388
 30
0.0
  0
VERTEX
  5
23A
  8
DEFAULT
 10
-1103.551277083439
 20
148.3095132591391
 30
0.0
  0
VERTEX
  5
23B
  8
DEFAULT
 10
-1103.373980344309
 20
148.2844598833292
 30
0.0
  0
VERTEX
  5
23C
  8
DEFAULT
 10
-1103.012258364473
 20
148.2433974738278
 30
0.0
  0
VERTEX
  5
23D
  8
DEFAULT
 10
-1102.641918818287
 20
148.2132686690206
 30
0.0
  0
VERTEX
  5
23E
  8
DEFAULT
 10
-1102.264123003462
 20
148.1926000633553
 30
0.0
  0
VERTEX
  5
23F
  8
DEFAULT
 10
-1101.49136075765
 20
148.1730482055492
 30
0.0
  0
VERTEX
  5
240
  8
DEFAULT
 10
-1100.705474004371
 20
148.1701481692238
 30
0.0
  0
VERTEX
  5
241
  8
DEFAULT
 10
-1093.295766926025
 20
148.1701481692238
 30
0.0
  0
VERTEX
  5
242
  8
DEFAULT
 10
-1092.509880172746
 20
148.1730482055491
 30
0.0
  0
VERTEX
  5
243
  8
DEFAULT
 10
-1091.737117926935
 20
148.1926000633553
 30
0.0
  0
VERTEX
  5
244
  8
DEFAULT
 10
-1091.35932211211
 20
148.2132686690206
 30
0.0
  0
VERTEX
  5
245
  8
DEFAULT
 10
-1090.988982565924
 20
148.2433974738277
 30
0.0
  0
VERTEX
  5
246
  8
DEFAULT
 10
-1090.627260586088
 20
148.2844598833291
 30
0.0
  0
VERTEX
  5
247
  8
DEFAULT
 10
-1090.449963846958
 20
148.309513259139
 30
0.0
  0
VERTEX
  5
248
  8
DEFAULT
 10
-1090.275206870531
 20
148.3377889787388
 30
0.0
  0
VERTEX
  5
249
  8
DEFAULT
 10
-1090.103103712833
 20
148.3694317516023
 30
0.0
  0
VERTEX
  5
24A
  8
DEFAULT
 10
-1089.933761517402
 20
148.4045775169325
 30
0.0
  0
VERTEX
  5
24B
  8
DEFAULT
 10
-1089.76728051529
 20
148.4433534436608
 30
0.0
  0
VERTEX
  5
24C
  8
DEFAULT
 10
-1089.603754025065
 20
148.4858779304477
 30
0.0
  0
VERTEX
  5
24D
  8
DEFAULT
 10
-1089.443268452804
 20
148.5322606056824
 30
0.0
  0
VERTEX
  5
24E
  8
DEFAULT
 10
-1089.285903292103
 20
148.5826023274833
 30
0.0
  0
VERTEX
  5
24F
  8
DEFAULT
 10
-1089.131731124067
 20
148.6369951836973
 30
0.0
  0
VERTEX
  5
250
  8
DEFAULT
 10
-1088.980817617317
 20
148.6955224919002
 30
0.0
  0
VERTEX
  5
251
  8
DEFAULT
 10
-1088.833221527988
 20
148.7582587993969
 30
0.0
  0
VERTEX
  5
252
  8
DEFAULT
 10
-1088.688994699727
 20
148.8252698832209
 30
0.0
  0
VERTEX
  5
253
  8
DEFAULT
 10
-1088.548182063696
 20
148.8966127501347
 30
0.0
  0
VERTEX
  5
254
  8
DEFAULT
 10
-1088.479068218622
 20
148.9339240187425
 30
0.0
  0
VERTEX
  5
255
  8
DEFAULT
 10
-1088.41082163857
 20
148.9723356366295
 30
0.0
  0
VERTEX
  5
256
  8
DEFAULT
 10
-1088.343445995799
 20
149.0118522630023
 30
0.0
  0
VERTEX
  5
257
  8
DEFAULT
 10
-1088.276944530538
 20
149.0524780089255
 30
0.0
  0
VERTEX
  5
258
  8
DEFAULT
 10
-1088.211320050983
 20
149.0942164373217
 30
0.0
  0
VERTEX
  5
259
  8
DEFAULT
 10
-1088.146574933301
 20
149.1370705629717
 30
0.0
  0
VERTEX
  5
25A
  8
DEFAULT
 10
-1088.08271112163
 20
149.1810428525142
 30
0.0
  0
VERTEX
  5
25B
  8
DEFAULT
 10
-1088.019730128077
 20
149.226135224446
 30
0.0
  0
VERTEX
  5
25C
  8
DEFAULT
 10
-1087.957633032716
 20
149.272349049122
 30
0.0
  0
VERTEX
  5
25D
  8
DEFAULT
 10
-1087.896420483593
 20
149.3196851487551
 30
0.0
  0
VERTEX
  5
25E
  8
DEFAULT
 10
-1087.836092696725
 20
149.3681437974163
 30
0.0
  0
VERTEX
  5
25F
  8
DEFAULT
 10
-1087.776649456094
 20
149.4177247210345
 30
0.0
  0
VERTEX
  5
260
  8
DEFAULT
 10
-1087.718090113657
 20
149.468427097397
 30
0.0
  0
VERTEX
  5
261
  8
DEFAULT
 10
-1087.660413589337
 20
149.5202495561488
 30
0.0
  0
VERTEX
  5
262
  8
DEFAULT
 10
-1087.603618371028
 20
149.5731901787931
 30
0.0
  0
VERTEX
  5
263
  8
DEFAULT
 10
-1087.547702514591
 20
149.6272464986911
 30
0.0
  0
VERTEX
  5
264
  8
DEFAULT
 10
-1087.492663643862
 20
149.6824155010622
 30
0.0
  0
VERTEX
  5
265
  8
DEFAULT
 10
-1087.438498950642
 20
149.7386936229836
 30
0.0
  0
VERTEX
  5
266
  8
DEFAULT
 10
-1087.385205194703
 20
149.7960767533909
 30
0.0
  0
VERTEX
  5
267
  8
DEFAULT
 10
-1087.332778703786
 20
149.8545602330774
 30
0.0
  0
VERTEX
  5
268
  8
DEFAULT
 10
-1087.230510667835
 20
149.9748068627522
 30
0.0
  0
VERTEX
  5
269
  8
DEFAULT
 10
-1087.131656824114
 20
150.0993852755167
 30
0.0
  0
VERTEX
  5
26A
  8
DEFAULT
 10
-1087.036172241461
 20
150.2282384646086
 30
0.0
  0
VERTEX
  5
26B
  8
DEFAULT
 10
-1086.944005076228
 20
150.3613006529941
 30
0.0
  0
VERTEX
  5
26C
  8
DEFAULT
 10
-1086.855096572282
 20
150.4984972933687
 30
0.0
  0
VERTEX
  5
26D
  8
DEFAULT
 10
-1086.769381061002
 20
150.6397450681564
 30
0.0
  0
VERTEX
  5
26E
  8
DEFAULT
 10
-1086.686785961281
 20
150.7849518895102
 30
0.0
  0
VERTEX
  5
26F
  8
DEFAULT
 10
-1086.607231779524
 20
150.9340168993119
 30
0.0
  0
VERTEX
  5
270
  8
DEFAULT
 10
-1086.530632109654
 20
151.0868304691721
 30
0.0
  0
VERTEX
  5
271
  8
DEFAULT
 10
-1086.456893633103
 20
151.2432742004306
 30
0.0
  0
VERTEX
  5
272
  8
DEFAULT
 10
-1086.385916118819
 20
151.4032209241556
 30
0.0
  0
VERTEX
  5
273
  8
DEFAULT
 10
-1086.317592423264
 20
151.5665347011443
 30
0.0
  0
VERTEX
  5
274
  8
DEFAULT
 10
-1086.251808490412
 20
151.733070821923
 30
0.0
  0
VERTEX
  5
275
  8
DEFAULT
 10
-1086.127369126284
 20
152.0751874055987
 30
0.0
  0
VERTEX
  5
276
  8
DEFAULT
 10
-1086.011547328506
 20
152.4282375939686
 30
0.0
  0
VERTEX
  5
277
  8
DEFAULT
 10
-1085.903181799367
 20
152.7907479814804
 30
0.0
  0
VERTEX
  5
278
  8
DEFAULT
 10
-1085.70362135725
 20
153.5375541100285
 30
0.0
  0
VERTEX
  5
279
  8
DEFAULT
 10
-1085.517185422601
 20
154.3010120600573
 30
0.0
  0
VERTEX
  5
27A
  8
DEFAULT
 10
-1076.721446895782
 20
190.9052853808343
 30
0.0
 42
0.0740377116898279
  0
SEQEND
  5
27B
  8
DEFAULT
  0
POLYLINE
  5
27C
  8
DEFAULT
 66
     1
 10
0.0
 20
0.0
 30
0.0
 70
     1
  0
VERTEX
  5
27D
  8
DEFAULT
 10
-1095.500620465197
 20
173.2930655011057
 30
0.0
  0
VERTEX
  5
27E
  8
DEFAULT
 10
-1098.500620465197
 20
173.2930655011057
 30
0.0
  0
VERTEX
  5
27F
  8
DEFAULT
 10
-1098.500620465197
 20
185.5280981391561
 30
0.0
  0
VERTEX
  5
280
  8
DEFAULT
 10
-1095.500620465197
 20
185.5280981391561
 30
0.0
  0
SEQEND
  5
281
  8
DEFAULT
  0
POLYLINE
  5
282
  8
DEFAULT
 66
     1
 10
0.0
 20
0.0
 30
0.0
 70
     1
  0
VERTEX
  5
283
  8
DEFAULT
 10
-1098.500620465197
 20
163.1693220099773
 30
0.0
  0
VERTEX
  5
284
  8
DEFAULT
 10
-1095.500620465197
 20
163.1693220099773
 30
0.0
  0
VERTEX
  5
285
  8
DEFAULT
 10
-1095.500620465197
 20
151.0114972717184
 30
0.0
  0
VERTEX
  5
286
  8
DEFAULT
 10
-1098.500620465197
 20
151.0114972717184
 30
0.0
  0
SEQEND
  5
287
  8
DEFAULT
  0
POLYLINE
  5
288
  8
DEFAULT
 66
     1
 10
0.0
 20
0.0
 30
0.0
 70
     1
  0
VERTEX
  5
289
  8
DEFAULT
 10
-1105.000466021774
 20
194.3873899602828
 30
0.0
  0
VERTEX
  5
28A
  8
DEFAULT
 10
-1105.000466021774
 20
188.3873899602828
 30
0.0
  0
VERTEX
  5
28B
  8
DEFAULT
 10
-1113.000620465197
 20
188.3873899602827
 30
0.0
  0
VERTEX
  5
28C
  8
DEFAULT
 10
-1113.000620465197
 20
194.3873899602827
 30
0.0
  0
SEQEND
  5
28D
  8
DEFAULT
  0
POLYLINE
  5
28E
  8
DEFAULT
 66
     1
 10
0.0
 20
0.0
 30
0.0
 70
     1
  0
VERTEX
  5
28F
  8
DEFAULT
 10
-1089.000620465197
 20
188.3873899602829
 30
0.0
  0
VERTEX
  5
290
  8
DEFAULT
 10
-1089.000620465197
 20
194.3873899602829
 30
0.0
  0
VERTEX
  5
291
  8
DEFAULT
 10
-1081.000466021774
 20
194.3873899602829
 30
0.0
  0
VERTEX
  5
292
  8
DEFAULT
 10
-1081.000466021774
 20
188.3873899602829
 30
0.0
  0
SEQEND
  5
293
  8
DEFAULT
  0
POLYLINE
  5
294
  8
DEFAULT
 66
     1
 10
0.0
 20
0.0
 30
0.0
 70
     1
  0
VERTEX
  5
295
  8
DEFAULT
 10
-1092.308301975435
 20
158.1701481692238
 30
0.0
  0
VERTEX
  5
296
  8
DEFAULT
 10
-1092.308301975435
 20
152.1701481692238
 30
0.0
  0
VERTEX
  5
297
  8
DEFAULT
 10
-1088.000620511895
 20
152.1701481692239
 30
0.0
  0
VERTEX
  5
298
  8
DEFAULT
 10
-1088.000620511895
 20
158.1701481692239
 30
0.0
  0
SEQEND
  5
299
  8
DEFAULT
  0
POLYLINE
  5
29A
  8
DEFAULT
 66
     1
 10
0.0
 20
0.0
 30
0.0
 70
     1
  0
VERTEX
  5
29B
  8
DEFAULT
 10
-1106.000620418503
 20
152.1701481692238
 30
0.0
  0
VERTEX
  5
29C
  8
DEFAULT
 10
-1106.000620418503
 20
158.1701481692238
 30
0.0
  0
VERTEX
  5
29D
  8
DEFAULT
 10
-1101.692938954963
 20
158.1701481692238
 30
0.0
  0
VERTEX
  5
29E
  8
DEFAULT
 10
-1101.692938954963
 20
152.1701481692238
 30
0.0
  0
SEQEND
  5
29F
  8
DEFAULT
  0
CIRCLE
  5
2A0
  8
DEFAULT
 10
1187.024361252102
 20
208.3506387478978
 30
0.0
 40
1.500000000000114
210
0.0
220
0.0
230
-1.0
  0
POLYLINE
  5
2A1
  8
DEFAULT
 66
     1
 10
0.0
 20
0.0
 30
0.0
 70
     1
  0
VERTEX
  5
2A2
  8
DEFAULT
 10
-1156.251549716239
 20
206.4250325632728
 30
0.0
  0
VERTEX
  5
2A3
  8
DEFAULT
 10
-1156.210986803231
 20
207.2507096257772
 30
0.0
 42
0.0548766701251942
  0
VERTEX
  5
2A4
  8
DEFAULT
 10
-1154.026718832481
 20
207.9561837481789
 30
0.0
  0
VERTEX
  5
2A5
  8
DEFAULT
 10
-1154.026718832481
 20
208.7450937476175
 30
0.0
 42
0.0548766701252861
  0
VERTEX
  5
2A6
  8
DEFAULT
 10
-1156.210986803231
 20
209.4505678700192
 30
0.0
  0
VERTEX
  5
2A7
  8
DEFAULT
 10
-1156.251549716239
 20
210.2762449325236
 30
0.0
 42
0.0548766701251221
  0
VERTEX
  5
2A8
  8
DEFAULT
 10
-1154.146948148843
 20
211.1924177044067
 30
0.0
  0
VERTEX
  5
2A9
  8
DEFAULT
 10
-1154.224274850965
 20
211.977528886567
 30
0.0
 42
0.0548766701251273
  0
VERTEX
  5
2AA
  8
DEFAULT
 10
-1156.46717353047
 20
212.4655102580373
 30
0.0
  0
VERTEX
  5
2AB
  8
DEFAULT
 10
-1156.588471626467
 20
213.2832355990687
 30
0.0
 42
0.0548766701250786
  0
VERTEX
  5
2AC
  8
DEFAULT
 10
-1154.583804926012
 20
214.401283775809
 30
0.0
  0
VERTEX
  5
2AD
  8
DEFAULT
 10
-1154.737713631844
 20
215.1750350908213
 30
0.0
 42
0.0548766701251817
  0
VERTEX
  5
2AE
  8
DEFAULT
 10
-1157.017642679726
 20
215.440824183995
 30
0.0
  0
VERTEX
  5
2AF
  8
DEFAULT
 10
-1157.21850779174
 20
216.2427226615054
 30
0.0
 42
0.0548766701251944
  0
VERTEX
  5
2B0
  8
DEFAULT
 10
-1155.333081994413
 20
217.5518788279735
 30
0.0
  0
VERTEX
  5
2B1
  8
DEFAULT
 10
-1155.562090478983
 20
218.3068186276988
 30
0.0
 42
0.0548766701251448
  0
VERTEX
  5
2B2
  8
DEFAULT
 10
-1157.857092932175
 20
218.3478557483137
 30
0.0
  0
VERTEX
  5
2B3
  8
DEFAULT
 10
-1158.135590619373
 20
219.1262046416019
 30
0.0
 42
0.0548766701253151
  0
VERTEX
  5
2B4
  8
DEFAULT
 10
-1156.387563406282
 20
220.6138609082574
 30
0.0
  0
VERTEX
  5
2B5
  8
DEFAULT
 10
-1156.689466192694
 20
221.3427187097321
 30
0.0
 42
0.0548766701251834
  0
VERTEX
  5
2B6
  8
DEFAULT
 10
-1158.977439922996
 20
221.1586086478835
 30
0.0
  0
VERTEX
  5
2B7
  8
DEFAULT
 10
-1159.330888100407
 20
221.9059120316188
 30
0.0
 42
0.0548766701255306
  0
VERTEX
  5
2B8
  8
DEFAULT
 10
-1157.737093929182
 20
223.5577414553778
 30
0.0
  0
VERTEX
  5
2B9
  8
DEFAULT
 10
-1158.108983528567
 20
224.2534979595398
 30
0.0
 42
0.0548766701251137
  0
VERTEX
  5
2BA
  8
DEFAULT
 10
-1160.367894098222
 20
223.8460137957679
 30
0.0
  0
VERTEX
  5
2BB
  8
DEFAULT
 10
-1160.792888866685
 20
224.5550747298472
 30
0.0
 42
0.0548766701253506
  0
VERTEX
  5
2BC
  8
DEFAULT
 10
-1159.368676846452
 20
226.3551692903774
 30
0.0
  0
VERTEX
  5
2BD
  8
DEFAULT
 10
-1159.806971758671
 20
227.0111239817521
 30
0.0
 42
0.0548766701251868
  0
VERTEX
  5
2BE
  8
DEFAULT
 10
-1162.015064624048
 20
226.3841900113077
 30
0.0
  0
VERTEX
  5
2BF
  8
DEFAULT
 10
-1162.507513051615
 20
227.0481798513237
 30
0.0
 42
0.05487667012544
  0
VERTEX
  5
2C0
  8
DEFAULT
 10
-1161.266599122682
 20
228.9792036539752
 30
0.0
  0
VERTEX
  5
2C1
  8
DEFAULT
 10
-1161.767078328136
 20
229.5890393303036
 30
0.0
 42
0.0548766701251056
  0
VERTEX
  5
2C2
  8
DEFAULT
 10
-1163.903088347875
 20
228.748693270039
 30
0.0
  0
VERTEX
  5
2C3
  8
DEFAULT
 10
-1164.458247886989
 20
229.3612174308586
 30
0.0
 42
0.0548766701253241
  0
VERTEX
  5
2C4
  8
DEFAULT
 10
-1163.412582728844
 20
231.4045736608069
 30
0.0
  0
VERTEX
  5
2C5
  8
DEFAULT
 10
-1163.970426339193
 20
231.9624172711558
 30
0.0
 42
0.0548766701251522
  0
VERTEX
  5
2C6
  8
DEFAULT
 10
-1166.013782569142
 20
230.9167521130112
 30
0.0
  0
VERTEX
  5
2C7
  8
DEFAULT
 10
-1166.626306729961
 20
231.4719116521259
 30
0.0
 42
0.0548766701254131
  0
VERTEX
  5
2C8
  8
DEFAULT
 10
-1165.785960669697
 20
233.6079216718645
 30
0.0
  0
VERTEX
  5
2C9
  8
DEFAULT
 10
-1166.395796346025
 20
234.1084008773179
 30
0.0
 42
0.054876670125324
  0
VERTEX
  5
2CA
  8
DEFAULT
 10
-1168.326820148676
 20
232.867486948385
 30
0.0
  0
VERTEX
  5
2CB
  8
DEFAULT
 10
-1168.990809988692
 20
233.359935375952
 30
0.0
 42
0.0548766701253091
  0
VERTEX
  5
2CC
  8
DEFAULT
 10
-1168.363876018248
 20
235.568028241329
 30
0.0
  0
VERTEX
  5
2CD
  8
DEFAULT
 10
-1169.019830709623
 20
236.0063231535486
 30
0.0
 42
0.0548766701250984
  0
VERTEX
  5
2CE
  8
DEFAULT
 10
-1170.819925270153
 20
234.5821111333156
 30
0.0
  0
VERTEX
  5
2CF
  8
DEFAULT
 10
-1171.528986204232
 20
235.0071059017777
 30
0.0
 42
0.0548766701252589
  0
VERTEX
  5
2D0
  8
DEFAULT
 10
-1171.12150204046
 20
237.2660164714332
 30
0.0
  0
VERTEX
  5
2D1
  8
DEFAULT
 10
-1171.817258544622
 20
237.637906070818
 30
0.0
 42
0.0548766701252125
  0
VERTEX
  5
2D2
  8
DEFAULT
 10
-1173.469087968381
 20
236.0441118995932
 30
0.0
  0
VERTEX
  5
2D3
  8
DEFAULT
 10
-1174.216391352117
 20
236.3975600770044
 30
0.0
 42
0.0548766701255217
  0
VERTEX
  5
2D4
  8
DEFAULT
 10
-1174.032281290268
 20
238.6855338073065
 30
0.0
  0
VERTEX
  5
2D5
  8
DEFAULT
 10
-1174.761139091743
 20
238.9874365937187
 30
0.0
 42
0.054876670125135
  0
VERTEX
  5
2D6
  8
DEFAULT
 10
-1176.248795358398
 20
237.2394093806275
 30
0.0
  0
VERTEX
  5
2D7
  8
DEFAULT
 10
-1177.027144251686
 20
237.5179070678249
 30
0.0
 42
0.054876670125188
  0
VERTEX
  5
2D8
  8
DEFAULT
 10
-1177.068181372301
 20
239.8129095210171
 30
0.0
  0
VERTEX
  5
2D9
  8
DEFAULT
 10
-1177.823121172027
 20
240.041918005587
 30
0.0
 42
0.054876670125149
  0
VERTEX
  5
2DA
  8
DEFAULT
 10
-1179.132277338495
 20
238.1564922082603
 30
0.0
  0
VERTEX
  5
2DB
  8
DEFAULT
 10
-1179.934175816005
 20
238.357357320274
 30
0.0
 42
0.0548766701253328
  0
VERTEX
  5
2DC
  8
DEFAULT
 10
-1180.199964909179
 20
240.637286368156
 30
0.0
  0
VERTEX
  5
2DD
  8
DEFAULT
 10
-1180.973716224191
 20
240.7911950739882
 30
0.0
 42
0.0548766701250581
  0
VERTEX
  5
2DE
  8
DEFAULT
 10
-1182.091764400931
 20
238.786528373533
 30
0.0
  0
VERTEX
  5
2DF
  8
DEFAULT
 10
-1182.909489741963
 20
238.9078264695301
 30
0.0
 42
0.0548766701251993
  0
VERTEX
  5
2E0
  8
DEFAULT
 10
-1183.397471113433
 20
241.1507251490348
 30
0.0
  0
VERTEX
  5
2E1
  8
DEFAULT
 10
-1184.182582295593
 20
241.2280518511571
 30
0.0
 42
0.0548766701250528
  0
VERTEX
  5
2E2
  8
DEFAULT
 10
-1185.098755067477
 20
239.123450283761
 30
0.0
  0
VERTEX
  5
2E3
  8
DEFAULT
 10
-1185.924432129981
 20
239.1640131967688
 30
0.0
 42
0.0548766701250805
  0
VERTEX
  5
2E4
  8
DEFAULT
 10
-1186.629906252383
 20
241.3482811675195
 30
0.0
  0
VERTEX
  5
2E5
  8
DEFAULT
 10
-1187.418816251821
 20
241.3482811675195
 30
0.0
 42
0.0548766701251693
  0
VERTEX
  5
2E6
  8
DEFAULT
 10
-1188.124290374223
 20
239.1640131967688
 30
0.0
  0
VERTEX
  5
2E7
  8
DEFAULT
 10
-1188.949967436728
 20
239.123450283761
 30
0.0
 42
0.0548766701253265
  0
VERTEX
  5
2E8
  8
DEFAULT
 10
-1189.86614020861
 20
241.2280518511571
 30
0.0
  0
VERTEX
  5
2E9
  8
DEFAULT
 10
-1190.651251390771
 20
241.1507251490348
 30
0.0
 42
0.0548766701252149
  0
VERTEX
  5
2EA
  8
DEFAULT
 10
-1191.139232762241
 20
238.9078264695301
 30
0.0
  0
VERTEX
  5
2EB
  8
DEFAULT
 10
-1191.956958103272
 20
238.786528373533
 30
0.0
 42
0.0548766701251178
  0
VERTEX
  5
2EC
  8
DEFAULT
 10
-1193.075006280013
 20
240.7911950739882
 30
0.0
  0
VERTEX
  5
2ED
  8
DEFAULT
 10
-1193.848757595025
 20
240.637286368156
 30
0.0
 42
0.054876670125033
  0
VERTEX
  5
2EE
  8
DEFAULT
 10
-1194.114546688199
 20
238.357357320274
 30
0.0
  0
VERTEX
  5
2EF
  8
DEFAULT
 10
-1194.916445165709
 20
238.1564922082604
 30
0.0
 42
0.0548766701252957
  0
VERTEX
  5
2F0
  8
DEFAULT
 10
-1196.225601332177
 20
240.041918005587
 30
0.0
  0
VERTEX
  5
2F1
  8
DEFAULT
 10
-1196.980541131903
 20
239.8129095210171
 30
0.0
 42
0.0548766701249933
  0
VERTEX
  5
2F2
  8
DEFAULT
 10
-1197.021578252517
 20
237.5179070678249
 30
0.0
  0
VERTEX
  5
2F3
  8
DEFAULT
 10
-1197.799927145806
 20
237.2394093806275
 30
0.0
 42
0.054876670125143
  0
VERTEX
  5
2F4
  8
DEFAULT
 10
-1199.287583412461
 20
238.9874365937187
 30
0.0
  0
VERTEX
  5
2F5
  8
DEFAULT
 10
-1200.016441213936
 20
238.6855338073065
 30
0.0
 42
0.054876670125218
  0
VERTEX
  5
2F6
  8
DEFAULT
 10
-1199.832331152087
 20
236.3975600770044
 30
0.0
  0
VERTEX
  5
2F7
  8
DEFAULT
 10
-1200.579634535823
 20
236.0441118995932
 30
0.0
 42
0.0548766701252084
  0
VERTEX
  5
2F8
  8
DEFAULT
 10
-1202.231463959582
 20
237.637906070818
 30
0.0
  0
VERTEX
  5
2F9
  8
DEFAULT
 10
-1202.927220463744
 20
237.2660164714332
 30
0.0
 42
0.0548766701250618
  0
VERTEX
  5
2FA
  8
DEFAULT
 10
-1202.519736299972
 20
235.0071059017777
 30
0.0
  0
VERTEX
  5
2FB
  8
DEFAULT
 10
-1203.228797234051
 20
234.5821111333156
 30
0.0
 42
0.0548766701251502
  0
VERTEX
  5
2FC
  8
DEFAULT
 10
-1205.028891794581
 20
236.0063231535486
 30
0.0
  0
VERTEX
  5
2FD
  8
DEFAULT
 10
-1205.684846485956
 20
235.568028241329
 30
0.0
 42
0.0548766701252187
  0
VERTEX
  5
2FE
  8
DEFAULT
 10
-1205.057912515512
 20
233.359935375952
 30
0.0
  0
VERTEX
  5
2FF
  8
DEFAULT
 10
-1205.721902355528
 20
232.867486948385
 30
0.0
 42
0.0548766701252268
  0
VERTEX
  5
300
  8
DEFAULT
 10
-1207.652926158179
 20
234.1084008773179
 30
0.0
  0
VERTEX
  5
301
  8
DEFAULT
 10
-1208.262761834508
 20
233.6079216718645
 30
0.0
 42
0.0548766701253218
  0
VERTEX
  5
302
  8
DEFAULT
 10
-1207.422415774243
 20
231.4719116521259
 30
0.0
  0
VERTEX
  5
303
  8
DEFAULT
 10
-1208.034939935062
 20
230.9167521130113
 30
0.0
 42
0.0548766701252055
  0
VERTEX
  5
304
  8
DEFAULT
 10
-1210.078296165011
 20
231.9624172711559
 30
0.0
  0
VERTEX
  5
305
  8
DEFAULT
 10
-1210.636139775359
 20
231.4045736608069
 30
0.0
 42
0.0548766701254974
  0
VERTEX
  5
306
  8
DEFAULT
 10
-1209.590474617215
 20
229.3612174308586
 30
0.0
  0
VERTEX
  5
307
  8
DEFAULT
 10
-1210.14563415633
 20
228.748693270039
 30
0.0
 42
0.054876670125203
  0
VERTEX
  5
308
  8
DEFAULT
 10
-1212.281644176068
 20
229.5890393303036
 30
0.0
  0
VERTEX
  5
309
  8
DEFAULT
 10
-1212.782123381522
 20
228.9792036539752
 30
0.0
 42
0.0548766701251571
  0
VERTEX
  5
30A
  8
DEFAULT
 10
-1211.541209452589
 20
227.0481798513236
 30
0.0
  0
VERTEX
  5
30B
  8
DEFAULT
 10
-1212.033657880156
 20
226.3841900113077
 30
0.0
 42
0.0548766701252566
  0
VERTEX
  5
30C
  8
DEFAULT
 10
-1214.241750745533
 20
227.0111239817521
 30
0.0
  0
VERTEX
  5
30D
  8
DEFAULT
 10
-1214.680045657753
 20
226.3551692903774
 30
0.0
 42
0.054876670125177
  0
VERTEX
  5
30E
  8
DEFAULT
 10
-1213.25583363752
 20
224.5550747298472
 30
0.0
  0
VERTEX
  5
30F
  8
DEFAULT
 10
-1213.680828405982
 20
223.8460137957679
 30
0.0
 42
0.0548766701252119
  0
VERTEX
  5
310
  8
DEFAULT
 10
-1215.939738975637
 20
224.2534979595398
 30
0.0
  0
VERTEX
  5
311
  8
DEFAULT
 10
-1216.311628575022
 20
223.5577414553778
 30
0.0
 42
0.0548766701250446
  0
VERTEX
  5
312
  8
DEFAULT
 10
-1214.717834403797
 20
221.9059120316187
 30
0.0
  0
VERTEX
  5
313
  8
DEFAULT
 10
-1215.071282581208
 20
221.1586086478835
 30
0.0
 42
0.0548766701252315
  0
VERTEX
  5
314
  8
DEFAULT
 10
-1217.35925631151
 20
221.3427187097322
 30
0.0
  0
VERTEX
  5
315
  8
DEFAULT
 10
-1217.661159097923
 20
220.6138609082574
 30
0.0
 42
0.0548766701251808
  0
VERTEX
  5
316
  8
DEFAULT
 10
-1215.913131884831
 20
219.126204641602
 30
0.0
  0
VERTEX
  5
317
  8
DEFAULT
 10
-1216.191629572029
 20
218.3478557483137
 30
0.0
 42
0.0548766701251347
  0
VERTEX
  5
318
  8
DEFAULT
 10
-1218.486632025221
 20
218.3068186276988
 30
0.0
  0
VERTEX
  5
319
  8
DEFAULT
 10
-1218.715640509791
 20
217.5518788279735
 30
0.0
 42
0.054876670125021
  0
VERTEX
  5
31A
  8
DEFAULT
 10
-1216.830214712464
 20
216.2427226615054
 30
0.0
  0
VERTEX
  5
31B
  8
DEFAULT
 10
-1217.031079824478
 20
215.440824183995
 30
0.0
 42
0.0548766701252172
  0
VERTEX
  5
31C
  8
DEFAULT
 10
-1219.31100887236
 20
215.1750350908213
 30
0.0
  0
VERTEX
  5
31D
  8
DEFAULT
 10
-1219.464917578192
 20
214.401283775809
 30
0.0
 42
0.0548766701252283
  0
VERTEX
  5
31E
  8
DEFAULT
 10
-1217.460250877737
 20
213.2832355990687
 30
0.0
  0
VERTEX
  5
31F
  8
DEFAULT
 10
-1217.581548973734
 20
212.4655102580373
 30
0.0
 42
0.0548766701252223
  0
VERTEX
  5
320
  8
DEFAULT
 10
-1219.824447653239
 20
211.977528886567
 30
0.0
  0
VERTEX
  5
321
  8
DEFAULT
 10
-1219.901774355361
 20
211.1924177044067
 30
0.0
 42
0.05487667012516
  0
VERTEX
  5
322
  8
DEFAULT
 10
-1217.797172787965
 20
210.2762449325236
 30
0.0
  0
VERTEX
  5
323
  8
DEFAULT
 10
-1217.837735700973
 20
209.4505678700192
 30
0.0
 42
0.0548766701252066
  0
VERTEX
  5
324
  8
DEFAULT
 10
-1220.022003671723
 20
208.7450937476175
 30
0.0
  0
VERTEX
  5
325
  8
DEFAULT
 10
-1220.022003671723
 20
207.9561837481789
 30
0.0
 42
0.0548766701250832
  0
VERTEX
  5
326
  8
DEFAULT
 10
-1217.837735700973
 20
207.2507096257771
 30
0.0
  0
VERTEX
  5
327
  8
DEFAULT
 10
-1217.797172787965
 20
206.4250325632728
 30
0.0
 42
0.0548766701254401
  0
VERTEX
  5
328
  8
DEFAULT
 10
-1219.901774355361
 20
205.5088597913897
 30
0.0
  0
VERTEX
  5
329
  8
DEFAULT
 10
-1219.824447653239
 20
204.7237486092293
 30
0.0
 42
0.0548766701252077
  0
VERTEX
  5
32A
  8
DEFAULT
 10
-1217.581548973734
 20
204.2357672377591
 30
0.0
  0
VERTEX
  5
32B
  8
DEFAULT
 10
-1217.460250877737
 20
203.4180418967277
 30
0.0
 42
0.0548766701253511
  0
VERTEX
  5
32C
  8
DEFAULT
 10
-1219.464917578192
 20
202.2999937199874
 30
0.0
  0
VERTEX
  5
32D
  8
DEFAULT
 10
-1219.31100887236
 20
201.5262424049751
 30
0.0
 42
0.0548766701252501
  0
VERTEX
  5
32E
  8
DEFAULT
 10
-1217.031079824478
 20
201.2604533118014
 30
0.0
  0
VERTEX
  5
32F
  8
DEFAULT
 10
-1216.830214712464
 20
200.458554834291
 30
0.0
 42
0.054876670125089
  0
VERTEX
  5
330
  8
DEFAULT
 10
-1218.715640509791
 20
199.1493986678229
 30
0.0
  0
VERTEX
  5
331
  8
DEFAULT
 10
-1218.486632025221
 20
198.3944588680976
 30
0.0
 42
0.0548766701251692
  0
VERTEX
  5
332
  8
DEFAULT
 10
-1216.191629572029
 20
198.3534217474827
 30
0.0
  0
VERTEX
  5
333
  8
DEFAULT
 10
-1215.913131884831
 20
197.5750728541944
 30
0.0
 42
0.0548766701253621
  0
VERTEX
  5
334
  8
DEFAULT
 10
-1217.661159097923
 20
196.087416587539
 30
0.0
  0
VERTEX
  5
335
  8
DEFAULT
 10
-1217.35925631151
 20
195.3585587860642
 30
0.0
 42
0.0548766701251299
  0
VERTEX
  5
336
  8
DEFAULT
 10
-1215.071282581208
 20
195.5426688479128
 30
0.0
  0
VERTEX
  5
337
  8
DEFAULT
 10
-1214.717834403797
 20
194.7953654641776
 30
0.0
 42
0.0548766701253797
  0
VERTEX
  5
338
  8
DEFAULT
 10
-1216.311628575022
 20
193.1435360404186
 30
0.0
  0
VERTEX
  5
339
  8
DEFAULT
 10
-1215.939738975637
 20
192.4477795362566
 30
0.0
 42
0.0548766701251067
  0
VERTEX
  5
33A
  8
DEFAULT
 10
-1213.680828405982
 20
192.8552637000285
 30
0.0
  0
VERTEX
  5
33B
  8
DEFAULT
 10
-1213.25583363752
 20
192.1462027659492
 30
0.0
 42
0.0548766701254981
  0
VERTEX
  5
33C
  8
DEFAULT
 10
-1214.680045657753
 20
190.346108205419
 30
0.0
  0
VERTEX
  5
33D
  8
DEFAULT
 10
-1214.241750745533
 20
189.6901535140443
 30
0.0
 42
0.0548766701250198
  0
VERTEX
  5
33E
  8
DEFAULT
 10
-1212.033657880156
 20
190.3170874844886
 30
0.0
  0
VERTEX
  5
33F
  8
DEFAULT
 10
-1211.541209452589
 20
189.6530976444727
 30
0.0
 42
0.0548766701251982
  0
VERTEX
  5
340
  8
DEFAULT
 10
-1212.782123381522
 20
187.7220738418212
 30
0.0
  0
VERTEX
  5
341
  8
DEFAULT
 10
-1212.281644176068
 20
187.1122381654927
 30
0.0
 42
0.0548766701250662
  0
VERTEX
  5
342
  8
DEFAULT
 10
-1210.14563415633
 20
187.9525842257574
 30
0.0
  0
VERTEX
  5
343
  8
DEFAULT
 10
-1209.590474617215
 20
187.3400600649378
 30
0.0
 42
0.0548766701252397
  0
VERTEX
  5
344
  8
DEFAULT
 10
-1210.63613977536
 20
185.2967038349894
 30
0.0
  0
VERTEX
  5
345
  8
DEFAULT
 10
-1210.078296165011
 20
184.7388602246406
 30
0.0
 42
0.0548766701249813
  0
VERTEX
  5
346
  8
DEFAULT
 10
-1208.034939935062
 20
185.7845253827851
 30
0.0
  0
VERTEX
  5
347
  8
DEFAULT
 10
-1207.422415774243
 20
185.2293658436705
 30
0.0
 42
0.0548766701253112
  0
VERTEX
  5
348
  8
DEFAULT
 10
-1208.262761834508
 20
183.0933558239319
 30
0.0
  0
VERTEX
  5
349
  8
DEFAULT
 10
-1207.652926158179
 20
182.5928766184785
 30
0.0
 42
0.0548766701250679
  0
VERTEX
  5
34A
  8
DEFAULT
 10
-1205.721902355528
 20
183.8337905474113
 30
0.0
  0
VERTEX
  5
34B
  8
DEFAULT
 10
-1205.057912515512
 20
183.3413421198444
 30
0.0
 42
0.0548766701253165
  0
VERTEX
  5
34C
  8
DEFAULT
 10
-1205.684846485956
 20
181.1332492544674
 30
0.0
  0
VERTEX
  5
34D
  8
DEFAULT
 10
-1205.028891794581
 20
180.6949543422478
 30
0.0
 42
0.0548766701251399
  0
VERTEX
  5
34E
  8
DEFAULT
 10
-1203.228797234051
 20
182.1191663624808
 30
0.0
  0
VERTEX
  5
34F
  8
DEFAULT
 10
-1202.519736299972
 20
181.6941715940187
 30
0.0
 42
0.0548766701253652
  0
VERTEX
  5
350
  8
DEFAULT
 10
-1202.927220463744
 20
179.4352610243632
 30
0.0
  0
VERTEX
  5
351
  8
DEFAULT
 10
-1202.231463959582
 20
179.0633714249784
 30
0.0
 42
0.0548766701250773
  0
VERTEX
  5
352
  8
DEFAULT
 10
-1200.579634535823
 20
180.6571655962032
 30
0.0
  0
VERTEX
  5
353
  8
DEFAULT
 10
-1199.832331152087
 20
180.303717418792
 30
0.0
 42
0.054876670125517
  0
VERTEX
  5
354
  8
DEFAULT
 10
-1200.016441213936
 20
178.0157436884899
 30
0.0
  0
VERTEX
  5
355
  8
DEFAULT
 10
-1199.287583412461
 20
177.7138409020777
 30
0.0
 42
0.0548766701253926
  0
VERTEX
  5
356
  8
DEFAULT
 10
-1197.799927145806
 20
179.4618681151688
 30
0.0
  0
VERTEX
  5
357
  8
DEFAULT
 10
-1197.021578252517
 20
179.1833704279715
 30
0.0
 42
0.0548766701249936
  0
VERTEX
  5
358
  8
DEFAULT
 10
-1196.980541131903
 20
176.8883679747793
 30
0.0
  0
VERTEX
  5
359
  8
DEFAULT
 10
-1196.225601332177
 20
176.6593594902093
 30
0.0
 42
0.0548766701249347
  0
VERTEX
  5
35A
  8
DEFAULT
 10
-1194.916445165709
 20
178.544785287536
 30
0.0
  0
VERTEX
  5
35B
  8
DEFAULT
 10
-1194.114546688199
 20
178.3439201755224
 30
0.0
 42
0.0548766701253292
  0
VERTEX
  5
35C
  8
DEFAULT
 10
-1193.848757595025
 20
176.0639911276404
 30
0.0
  0
VERTEX
  5
35D
  8
DEFAULT
 10
-1193.075006280013
 20
175.9100824218082
 30
0.0
 42
0.0548766701253292
  0
VERTEX
  5
35E
  8
DEFAULT
 10
-1191.956958103272
 20
177.9147491222634
 30
0.0
  0
VERTEX
  5
35F
  8
DEFAULT
 10
-1191.139232762241
 20
177.7934510262663
 30
0.0
 42
0.0548766701254879
  0
VERTEX
  5
360
  8
DEFAULT
 10
-1190.651251390771
 20
175.5505523467616
 30
0.0
  0
VERTEX
  5
361
  8
DEFAULT
 10
-1189.866140208611
 20
175.4732256446392
 30
0.0
 42
0.0548766701250386
  0
VERTEX
  5
362
  8
DEFAULT
 10
-1188.949967436728
 20
177.5778272120353
 30
0.0
  0
VERTEX
  5
363
  8
DEFAULT
 10
-1188.124290374223
 20
177.5372642990276
 30
0.0
 42
0.0548766701255315
  0
VERTEX
  5
364
  8
DEFAULT
 10
-1187.418816251821
 20
175.3529963282768
 30
0.0
  0
VERTEX
  5
365
  8
DEFAULT
 10
-1186.629906252383
 20
175.3529963282768
 30
0.0
 42
0.0548766701247855
  0
VERTEX
  5
366
  8
DEFAULT
 10
-1185.924432129981
 20
177.5372642990276
 30
0.0
  0
VERTEX
  5
367
  8
DEFAULT
 10
-1185.098755067477
 20
177.5778272120353
 30
0.0
 42
0.0548766701251657
  0
VERTEX
  5
368
  8
DEFAULT
 10
-1184.182582295593
 20
175.4732256446392
 30
0.0
  0
VERTEX
  5
369
  8
DEFAULT
 10
-1183.397471113433
 20
175.5505523467616
 30
0.0
 42
0.0548766701248089
  0
VERTEX
  5
36A
  8
DEFAULT
 10
-1182.909489741963
 20
177.7934510262663
 30
0.0
  0
VERTEX
  5
36B
  8
DEFAULT
 10
-1182.091764400931
 20
177.9147491222634
 30
0.0
 42
0.0548766701254854
  0
VERTEX
  5
36C
  8
DEFAULT
 10
-1180.973716224191
 20
175.9100824218082
 30
0.0
  0
VERTEX
  5
36D
  8
DEFAULT
 10
-1180.199964909179
 20
176.0639911276404
 30
0.0
 42
0.0548766701248385
  0
VERTEX
  5
36E
  8
DEFAULT
 10
-1179.934175816005
 20
178.3439201755224
 30
0.0
  0
VERTEX
  5
36F
  8
DEFAULT
 10
-1179.132277338495
 20
178.544785287536
 30
0.0
 42
0.0548766701253738
  0
VERTEX
  5
370
  8
DEFAULT
 10
-1177.823121172027
 20
176.6593594902093
 30
0.0
  0
VERTEX
  5
371
  8
DEFAULT
 10
-1177.068181372302
 20
176.8883679747793
 30
0.0
 42
0.0548766701253897
  0
VERTEX
  5
372
  8
DEFAULT
 10
-1177.027144251687
 20
179.1833704279715
 30
0.0
  0
VERTEX
  5
373
  8
DEFAULT
 10
-1176.248795358398
 20
179.4618681151688
 30
0.0
 42
0.0548766701250155
  0
VERTEX
  5
374
  8
DEFAULT
 10
-1174.761139091743
 20
177.7138409020776
 30
0.0
  0
VERTEX
  5
375
  8
DEFAULT
 10
-1174.032281290268
 20
178.0157436884899
 30
0.0
 42
0.0548766701253121
  0
VERTEX
  5
376
  8
DEFAULT
 10
-1174.216391352117
 20
180.303717418792
 30
0.0
  0
VERTEX
  5
377
  8
DEFAULT
 10
-1173.469087968381
 20
180.6571655962032
 30
0.0
 42
0.0548766701250467
  0
VERTEX
  5
378
  8
DEFAULT
 10
-1171.817258544622
 20
179.0633714249784
 30
0.0
  0
VERTEX
  5
379
  8
DEFAULT
 10
-1171.12150204046
 20
179.4352610243632
 30
0.0
 42
0.0548766701251542
  0
VERTEX
  5
37A
  8
DEFAULT
 10
-1171.528986204232
 20
181.6941715940187
 30
0.0
  0
VERTEX
  5
37B
  8
DEFAULT
 10
-1170.819925270153
 20
182.1191663624808
 30
0.0
 42
0.0548766701252016
  0
VERTEX
  5
37C
  8
DEFAULT
 10
-1169.019830709623
 20
180.6949543422478
 30
0.0
  0
VERTEX
  5
37D
  8
DEFAULT
 10
-1168.363876018248
 20
181.1332492544674
 30
0.0
 42
0.0548766701251135
  0
VERTEX
  5
37E
  8
DEFAULT
 10
-1168.990809988692
 20
183.3413421198444
 30
0.0
  0
VERTEX
  5
37F
  8
DEFAULT
 10
-1168.326820148677
 20
183.8337905474114
 30
0.0
 42
0.0548766701250245
  0
VERTEX
  5
380
  8
DEFAULT
 10
-1166.395796346025
 20
182.5928766184785
 30
0.0
  0
VERTEX
  5
381
  8
DEFAULT
 10
-1165.785960669697
 20
183.0933558239319
 30
0.0
 42
0.0548766701254559
  0
VERTEX
  5
382
  8
DEFAULT
 10
-1166.626306729961
 20
185.2293658436705
 30
0.0
  0
VERTEX
  5
383
  8
DEFAULT
 10
-1166.013782569142
 20
185.7845253827851
 30
0.0
 42
0.0548766701251653
  0
VERTEX
  5
384
  8
DEFAULT
 10
-1163.970426339193
 20
184.7388602246406
 30
0.0
  0
VERTEX
  5
385
  8
DEFAULT
 10
-1163.412582728844
 20
185.2967038349894
 30
0.0
 42
0.0548766701253439
  0
VERTEX
  5
386
  8
DEFAULT
 10
-1164.458247886989
 20
187.3400600649378
 30
0.0
  0
VERTEX
  5
387
  8
DEFAULT
 10
-1163.903088347874
 20
187.9525842257574
 30
0.0
 42
0.0548766701251096
  0
VERTEX
  5
388
  8
DEFAULT
 10
-1161.767078328136
 20
187.1122381654927
 30
0.0
  0
VERTEX
  5
389
  8
DEFAULT
 10
-1161.266599122682
 20
187.7220738418212
 30
0.0
 42
0.0548766701252446
  0
VERTEX
  5
38A
  8
DEFAULT
 10
-1162.507513051615
 20
189.6530976444727
 30
0.0
  0
VERTEX
  5
38B
  8
DEFAULT
 10
-1162.015064624048
 20
190.3170874844886
 30
0.0
 42
0.0548766701252053
  0
VERTEX
  5
38C
  8
DEFAULT
 10
-1159.806971758671
 20
189.6901535140443
 30
0.0
  0
VERTEX
  5
38D
  8
DEFAULT
 10
-1159.368676846452
 20
190.346108205419
 30
0.0
 42
0.0548766701254398
  0
VERTEX
  5
38E
  8
DEFAULT
 10
-1160.792888866685
 20
192.1462027659492
 30
0.0
  0
VERTEX
  5
38F
  8
DEFAULT
 10
-1160.367894098223
 20
192.8552637000284
 30
0.0
 42
0.0548766701251653
  0
VERTEX
  5
390
  8
DEFAULT
 10
-1158.108983528567
 20
192.4477795362566
 30
0.0
  0
VERTEX
  5
391
  8
DEFAULT
 10
-1157.737093929182
 20
193.1435360404186
 30
0.0
 42
0.0548766701254872
  0
VERTEX
  5
392
  8
DEFAULT
 10
-1159.330888100407
 20
194.7953654641776
 30
0.0
  0
VERTEX
  5
393
  8
DEFAULT
 10
-1158.977439922996
 20
195.5426688479129
 30
0.0
 42
0.0548766701252123
  0
VERTEX
  5
394
  8
DEFAULT
 10
-1156.689466192694
 20
195.3585587860642
 30
0.0
  0
VERTEX
  5
395
  8
DEFAULT
 10
-1156.387563406282
 20
196.087416587539
 30
0.0
 42
0.0548766701252046
  0
VERTEX
  5
396
  8
DEFAULT
 10
-1158.135590619373
 20
197.5750728541944
 30
0.0
  0
VERTEX
  5
397
  8
DEFAULT
 10
-1157.857092932175
 20
198.3534217474827
 30
0.0
 42
0.0548766701251956
  0
VERTEX
  5
398
  8
DEFAULT
 10
-1155.562090478983
 20
198.3944588680976
 30
0.0
  0
VERTEX
  5
399
  8
DEFAULT
 10
-1155.333081994413
 20
199.1493986678229
 30
0.0
 42
0.0548766701250732
  0
VERTEX
  5
39A
  8
DEFAULT
 10
-1157.21850779174
 20
200.458554834291
 30
0.0
  0
VERTEX
  5
39B
  8
DEFAULT
 10
-1157.017642679726
 20
201.2604533118014
 30
0.0
 42
0.0548766701252968
  0
VERTEX
  5
39C
  8
DEFAULT
 10
-1154.737713631844
 20
201.5262424049751
 30
0.0
  0
VERTEX
  5
39D
  8
DEFAULT
 10
-1154.583804926012
 20
202.2999937199874
 30
0.0
 42
0.0548766701251491
  0
VERTEX
  5
39E
  8
DEFAULT
 10
-1156.588471626467
 20
203.4180418967277
 30
0.0
  0
VERTEX
  5
39F
  8
DEFAULT
 10
-1156.46717353047
 20
204.2357672377591
 30
0.0
 42
0.0548766701251979
  0
VERTEX
  5
3A0
  8
DEFAULT
 10
-1154.224274850965
 20
204.7237486092294
 30
0.0
  0
VERTEX
  5
3A1
  8
DEFAULT
 10
-1154.146948148843
 20
205.5088597913897
 30
0.0
 42
0.0548766701250669
  0
SEQEND
  5
3A2
  8
DEFAULT
  0
POLYLINE
  5
3A3
  8
DEFAULT
 66
     1
 10
0.0
 20
0.0
 30
0.0
 70
     1
  0
VERTEX
  5
3A4
  8
DEFAULT
 10
-1193.024361252102
 20
214.0506387478979
 30
0.0
  0
VERTEX
  5
3A5
  8
DEFAULT
 10
-1181.024361252102
 20
214.050638747906
 30
0.0
  0
VERTEX
  5
3A6
  8
DEFAULT
 10
-1181.024361252102
 20
217.0506387479062
 30
0.0
  0
VERTEX
  5
3A7
  8
DEFAULT
 10
-1185.524361252102
 20
217.0506386876297
 30
0.0
  0
VERTEX
  5
3A8
  8
DEFAULT
 10
-1185.524361252102
 20
225.3506387478982
 30
0.0
  0
VERTEX
  5
3A9
  8
DEFAULT
 10
-1188.524361252102
 20
225.3506387478982
 30
0.0
  0
VERTEX
  5
3AA
  8
DEFAULT
 10
-1188.524361252102
 20
217.0506386876298
 30
0.0
  0
VERTEX
  5
3AB
  8
DEFAULT
 10
-1193.024361252102
 20
217.0506387478982
 30
0.0
  0
SEQEND
  5
3AC
  8
DEFAULT
  0
POLYLINE
  5
3AD
  8
DEFAULT
 66
     1
 10
0.0
 20
0.0
 30
0.0
 70
     1
  0
VERTEX
  5
3AE
  8
DEFAULT
 10
-1185.524361252102
 20
191.3506387478977
 30
0.0
  0
VERTEX
  5
3AF
  8
DEFAULT
 10
-1188.524361252102
 20
191.3506387478977
 30
0.0
  0
VERTEX
  5
3B0
  8
DEFAULT
 10
-1188.524361248774
 20
199.6510138722755
 30
0.0
  0
VERTEX
  5
3B1
  8
DEFAULT
 10
-1193.02443847354
 20
199.6514287505435
 30
0.0
  0
VERTEX
  5
3B2
  8
DEFAULT
 10
-1193.024411844249
 20
202.6514287504256
 30
0.0
  0
VERTEX
  5
3B3
  8
DEFAULT
 10
-1181.024411844721
 20
202.6513222332532
 30
0.0
  0
VERTEX
  5
3B4
  8
DEFAULT
 10
-1181.024438474013
 20
199.651322233371
 30
0.0
  0
VERTEX
  5
3B5
  8
DEFAULT
 10
-1185.524361248892
 20
199.6510005576289
 30
0.0
  0
SEQEND
  5
3B6
  8
DEFAULT
  0
POLYLINE
  5
3B7
  8
DEFAULT
 66
     1
 10
0.0
 20
0.0
 30
0.0
 70
     1
  0
VERTEX
  5
3B8
  8
DEFAULT
 10
-1026.176003989263
 20
172.4262508643754
 30
0.0
  0
VERTEX
  5
3B9
  8
DEFAULT
 10
-1031.73305840951
 20
168.2891705665409
 30
0.0
 42
0.196453288440481
  0
VERTEX
  5
3BA
  8
DEFAULT
 10
-1033.490695426693
 20
165.8597014241037
 30
0.0
  0
VERTEX
  5
3BB
  8
DEFAULT
 10
-1034.737132809014
 20
162.1203892771406
 30
0.0
 42
0.1014235376050641
  0
VERTEX
  5
3BC
  8
DEFAULT
 10
-1034.993716318761
 20
160.5392504470564
 30
0.0
  0
VERTEX
  5
3BD
  8
DEFAULT
 10
-1034.993716318761
 20
158.3506387478981
 30
0.0
  0
VERTEX
  5
3BE
  8
DEFAULT
 10
-1043.469835706681
 20
158.3506387478981
 30
0.0
  0
VERTEX
  5
3BF
  8
DEFAULT
 10
-1043.469835706681
 20
155.6006387478981
 30
0.0
  0
VERTEX
  5
3C0
  8
DEFAULT
 10
-1051.769835897416
 20
155.6006387478981
 30
0.0
  0
VERTEX
  5
3C1
  8
DEFAULT
 10
-1051.769835897416
 20
168.3037343642836
 30
0.0
  0
VERTEX
  5
3C2
  8
DEFAULT
 10
-1054.769835897416
 20
168.3037343642836
 30
0.0
  0
VERTEX
  5
3C3
  8
DEFAULT
 10
-1054.769835897416
 20
177.5140265252518
 30
0.0
  0
VERTEX
  5
3C4
  8
DEFAULT
 10
-1051.769835897416
 20
177.5140265252518
 30
0.0
  0
VERTEX
  5
3C5
  8
DEFAULT
 10
-1051.769835897416
 20
179.5140265252518
 30
0.0
  0
VERTEX
  5
3C6
  8
DEFAULT
 10
-1028.408409013872
 20
179.5140265252518
 30
0.0
  0
VERTEX
  5
3C7
  8
DEFAULT
 10
-1028.408409013872
 20
188.3956814461191
 30
0.0
 42
-0.6250000000000675
  0
VERTEX
  5
3C8
  8
DEFAULT
 10
-1027.408409013872
 20
189.395681446119
 30
0.0
  0
VERTEX
  5
3C9
  8
DEFAULT
 10
-1027.331354359248
 20
189.3956814461191
 30
0.0
 42
-0.4057415020182876
  0
VERTEX
  5
3CA
  8
DEFAULT
 10
-1026.417935517183
 20
188.802702353397
 30
0.0
  0
VERTEX
  5
3CB
  8
DEFAULT
 10
-1022.711792396465
 20
180.485535108863
 30
0.0
 42
-0.1329494940973727
  0
VERTEX
  5
3CC
  8
DEFAULT
 10
-1022.278886606789
 20
178.4504305724737
 30
0.0
  0
VERTEX
  5
3CD
  8
DEFAULT
 10
-1022.278886606789
 20
177.5667706487993
 30
0.0
  0
VERTEX
  5
3CE
  8
DEFAULT
 10
-1022.288004360549
 20
176.7746157890143
 30
0.0
  0
VERTEX
  5
3CF
  8
DEFAULT
 10
-1022.296427170111
 20
176.580904130059
 30
0.0
  0
VERTEX
  5
3D0
  8
DEFAULT
 10
-1022.308734374689
 20
176.3899284273712
 30
0.0
  0
VERTEX
  5
3D1
  8
DEFAULT
 10
-1022.325549600938
 20
176.2021279295979
 30
0.0
  0
VERTEX
  5
3D2
  8
DEFAULT
 10
-1022.347445106009
 20
176.0179057035063
 30
0.0
  0
VERTEX
  5
3D3
  8
DEFAULT
 10
-1022.360462747116
 20
175.9272525072234
 30
0.0
  0
VERTEX
  5
3D4
  8
DEFAULT
 10
-1022.374941777554
 20
175.8376286339846
 30
0.0
  0
VERTEX
  5
3D5
  8
DEFAULT
 10
-1022.390939281796
 20
175.7490742909823
 30
0.0
  0
VERTEX
  5
3D6
  8
DEFAULT
 10
-1022.408509133719
 20
175.6616274240415
 30
0.0
  0
VERTEX
  5
3D7
  8
DEFAULT
 10
-1022.427701996607
 20
175.5753237176194
 30
0.0
  0
VERTEX
  5
3D8
  8
DEFAULT
 10
-1022.448565323149
 20
175.4901965948062
 30
0.0
  0
VERTEX
  5
3D9
  8
DEFAULT
 10
-1022.471143355443
 20
175.4062772173242
 30
0.0
  0
VERTEX
  5
3DA
  8
DEFAULT
 10
-1022.495477124989
 20
175.3235944855286
 30
0.0
  0
VERTEX
  5
3DB
  8
DEFAULT
 10
-1022.521604452696
 20
175.242175038407
 30
0.0
  0
VERTEX
  5
3DC
  8
DEFAULT
 10
-1022.549559948877
 20
175.1620432535795
 30
0.0
  0
VERTEX
  5
3DD
  8
DEFAULT
 10
-1022.579375013255
 20
175.0832212472988
 30
0.0
  0
VERTEX
  5
3DE
  8
DEFAULT
 10
-1022.611077834954
 20
175.0057288744501
 30
0.0
  0
VERTEX
  5
3DF
  8
DEFAULT
 10
-1022.644693392507
 20
174.9295837285511
 30
0.0
  0
VERTEX
  5
3E0
  8
DEFAULT
 10
-1022.680243453854
 20
174.8548011417522
 30
0.0
  0
VERTEX
  5
3E1
  8
DEFAULT
 10
-1022.717746576338
 20
174.7813941848361
 30
0.0
  0
VERTEX
  5
3E2
  8
DEFAULT
 10
-1022.757218106711
 20
174.7093736672183
 30
0.0
  0
VERTEX
  5
3E3
  8
DEFAULT
 10
-1022.798670181129
 20
174.6387481369466
 30
0.0
  0
VERTEX
  5
3E4
  8
DEFAULT
 10
-1022.842111725156
 20
174.5695238807016
 30
0.0
  0
VERTEX
  5
3E5
  8
DEFAULT
 10
-1022.887548453761
 20
174.5017049237962
 30
0.0
  0
VERTEX
  5
3E6
  8
DEFAULT
 10
-1022.934982871319
 20
174.4352930301758
 30
0.0
  0
VERTEX
  5
3E7
  8
DEFAULT
 10
-1022.984414271612
 20
174.3702877024188
 30
0.0
  0
VERTEX
  5
3E8
  8
DEFAULT
 10
-1023.035838737826
 20
174.3066861817356
 30
0.0
  0
VERTEX
  5
3E9
  8
DEFAULT
 10
-1023.089249142556
 20
174.2444834479693
 30
0.0
  0
VERTEX
  5
3EA
  8
DEFAULT
 10
-1023.144635147802
 20
174.1836722195957
 30
0.0
  0
VERTEX
  5
3EB
  8
DEFAULT
 10
-1023.201983204968
 20
174.124242953723
 30
0.0
  0
VERTEX
  5
3EC
  8
DEFAULT
 10
-1023.261276554868
 20
174.066183846092
 30
0.0
  0
VERTEX
  5
3ED
  8
DEFAULT
 10
-1023.322495227718
 20
174.009480831076
 30
0.0
  0
VERTEX
  5
3EE
  8
DEFAULT
 10
-1023.385616043144
 20
173.9541175816809
 30
0.0
  0
VERTEX
  5
3EF
  8
DEFAULT
 10
-1023.450612610175
 20
173.900075509545
 30
0.0
  0
VERTEX
  5
3F0
  8
DEFAULT
 10
-1023.517455327247
 20
173.8473337649393
 30
0.0
  0
VERTEX
  5
3F1
  8
DEFAULT
 10
-1023.586111382204
 20
173.7958692367673
 30
0.0
  0
VERTEX
  5
3F2
  8
DEFAULT
 10
-1023.656544752293
 20
173.7456565525648
 30
0.0
  0
VERTEX
  5
3F3
  8
DEFAULT
 10
-1023.72871620417
 20
173.6966680785006
 30
0.0
  0
VERTEX
  5
3F4
  8
DEFAULT
 10
-1023.802583293894
 20
173.6488739193757
 30
0.0
  0
VERTEX
  5
3F5
  8
DEFAULT
 10
-1023.878100366934
 20
173.6022419186237
 30
0.0
  0
VERTEX
  5
3F6
  8
DEFAULT
 10
-1023.955218558161
 20
173.5567376583109
 30
0.0
  0
VERTEX
  5
3F7
  8
DEFAULT
 10
-1024.033885791855
 20
173.5123244591358
 30
0.0
  0
VERTEX
  5
3F8
  8
DEFAULT
 10
-1024.114046781701
 20
173.4689633804299
 30
0.0
  0
VERTEX
  5
3F9
  8
DEFAULT
 10
-1024.27861283162
 20
173.3852305149129
 30
0.0
  0
VERTEX
  5
3FA
  8
DEFAULT
 10
-1024.448410205521
 20
173.3051823090608
 30
0.0
  0
VERTEX
  5
3FB
  8
DEFAULT
 10
-1024.622881031506
 20
173.2284258282949
 30
0.0
  0
VERTEX
  5
3FC
  8
DEFAULT
 10
-1024.801416068173
 20
173.1545319561574
 30
0.0
  0
VERTEX
  5
3FD
  8
DEFAULT
 10
-1024.983354704619
 20
173.083035394311
 30
0.0
 42
0.0889435386622331
  0
SEQEND
  5
3FE
  8
DEFAULT
  0
POLYLINE
  5
3FF
  8
DEFAULT
 66
     1
 10
0.0
 20
0.0
 30
0.0
 70
     1
  0
VERTEX
  5
400
  8
DEFAULT
 10
-1072.528039822679
 20
173.553073135963
 30
0.0
 42
1.000000000020728
  0
VERTEX
  5
401
  8
DEFAULT
 10
-1065.387126720986
 20
173.5530731359629
 30
0.0
  0
VERTEX
  5
402
  8
DEFAULT
 10
-1065.996638492646
 20
179.2786873979916
 30
0.0
  0
VERTEX
  5
403
  8
DEFAULT
 10
-1071.918528051018
 20
179.2786873979917
 30
0.0
  0
SEQEND
  5
404
  8
DEFAULT
  0
POLYLINE
  5
405
  8
DEFAULT
 66
     1
 10
0.0
 20
0.0
 30
0.0
 70
     1
  0
VERTEX
  5
406
  8
DEFAULT
 10
-1064.4551123375
 20
165.9352365004534
 30
0.0
 42
-1.754824542308181
  0
VERTEX
  5
407
  8
DEFAULT
 10
-1064.4551123375
 20
181.1338738716771
 30
0.0
  0
VERTEX
  5
408
  8
DEFAULT
 10
-1064.167660581585
 20
181.6190380252704
 30
0.0
 42
-0.1193071592405108
  0
VERTEX
  5
409
  8
DEFAULT
 10
-1062.776208544477
 20
182.6334895456486
 30
0.0
  0
VERTEX
  5
40A
  8
DEFAULT
 10
-1062.214132297162
 20
182.2251172479924
 30
0.0
 42
-0.1193071592406573
  0
VERTEX
  5
40B
  8
DEFAULT
 10
-1062.748950699758
 20
180.588284961222
 30
0.0
  0
VERTEX
  5
40C
  8
DEFAULT
 10
-1063.121541751866
 20
180.164978127117
 30
0.0
  0
VERTEX
  5
40D
  8
DEFAULT
 10
-1062.327160330781
 20
179.370596706032
 30
0.0
  0
VERTEX
  5
40E
  8
DEFAULT
 10
-1061.903853496676
 20
179.7431877581391
 30
0.0
 42
-0.119307159240523
  0
VERTEX
  5
40F
  8
DEFAULT
 10
-1060.267021209905
 20
180.2780061607363
 30
0.0
  0
VERTEX
  5
410
  8
DEFAULT
 10
-1059.858648912249
 20
179.7159299134211
 30
0.0
 42
-0.1193071592404188
  0
VERTEX
  5
411
  8
DEFAULT
 10
-1060.873100432627
 20
178.3244778763125
 30
0.0
  0
VERTEX
  5
412
  8
DEFAULT
 10
-1061.35826458622
 20
178.0370261203979
 30
0.0
  0
VERTEX
  5
413
  8
DEFAULT
 10
-1060.848240318405
 20
177.0360471343201
 30
0.0
  0
VERTEX
  5
414
  8
DEFAULT
 10
-1060.330514628384
 20
177.2595932767664
 30
0.0
 42
-0.1193071592405295
  0
VERTEX
  5
415
  8
DEFAULT
 10
-1058.608526640661
 20
177.2624268100373
 30
0.0
  0
VERTEX
  5
416
  8
DEFAULT
 10
-1058.393832618456
 20
176.6016665523657
 30
0.0
 42
-0.1193071592403173
  0
VERTEX
  5
417
  8
DEFAULT
 10
-1059.788615673701
 20
175.5917997851278
 30
0.0
  0
VERTEX
  5
418
  8
DEFAULT
 10
-1060.338861681089
 20
175.4683408880667
 30
0.0
  0
VERTEX
  5
419
  8
DEFAULT
 10
-1060.163119295425
 20
174.3587471343841
 30
0.0
  0
VERTEX
  5
41A
  8
DEFAULT
 10
-1059.601653347234
 20
174.4113661132094
 30
0.0
 42
-0.119307159240667
  0
VERTEX
  5
41B
  8
DEFAULT
 10
-1057.963069840594
 20
173.881937411175
 30
0.0
  0
VERTEX
  5
41C
  8
DEFAULT
 10
-1057.963069840594
 20
173.1871729609554
 30
0.0
 42
-0.1193071592405032
  0
VERTEX
  5
41D
  8
DEFAULT
 10
-1059.601653347234
 20
172.6577442589211
 30
0.0
  0
VERTEX
  5
41E
  8
DEFAULT
 10
-1060.163119295425
 20
172.7103632377463
 30
0.0
  0
VERTEX
  5
41F
  8
DEFAULT
 10
-1060.33886168109
 20
171.6007694840638
 30
0.0
  0
VERTEX
  5
420
  8
DEFAULT
 10
-1059.788615673701
 20
171.4773105870026
 30
0.0
 42
-0.1193071592405253
  0
VERTEX
  5
421
  8
DEFAULT
 10
-1058.393832618456
 20
170.4674438197648
 30
0.0
  0
VERTEX
  5
422
  8
DEFAULT
 10
-1058.608526640661
 20
169.8066835620932
 30
0.0
 42
-0.1193071592405872
  0
VERTEX
  5
423
  8
DEFAULT
 10
-1060.330514628384
 20
169.8095170953639
 30
0.0
  0
VERTEX
  5
424
  8
DEFAULT
 10
-1060.848240318405
 20
170.0330632378103
 30
0.0
  0
VERTEX
  5
425
  8
DEFAULT
 10
-1061.35826458622
 20
169.0320842517326
 30
0.0
  0
VERTEX
  5
426
  8
DEFAULT
 10
-1060.873100432627
 20
168.7446324958179
 30
0.0
 42
-0.1193071592406997
  0
VERTEX
  5
427
  8
DEFAULT
 10
-1059.858648912249
 20
167.3531804587094
 30
0.0
  0
VERTEX
  5
428
  8
DEFAULT
 10
-1060.267021209905
 20
166.7911042113943
 30
0.0
 42
-0.1193071592404864
  0
VERTEX
  5
429
  8
DEFAULT
 10
-1061.903853496676
 20
167.3259226139913
 30
0.0
  0
VERTEX
  5
42A
  8
DEFAULT
 10
-1062.327160330781
 20
167.6985136660986
 30
0.0
  0
VERTEX
  5
42B
  8
DEFAULT
 10
-1063.121541751866
 20
166.9041322450136
 30
0.0
  0
VERTEX
  5
42C
  8
DEFAULT
 10
-1062.748950699759
 20
166.4808254109086
 30
0.0
 42
-0.1193071592409231
  0
VERTEX
  5
42D
  8
DEFAULT
 10
-1062.214132297162
 20
164.8439931241379
 30
0.0
  0
VERTEX
  5
42E
  8
DEFAULT
 10
-1062.776208544477
 20
164.4356208264818
 30
0.0
 42
-0.1193071592404631
  0
VERTEX
  5
42F
  8
DEFAULT
 10
-1064.167660581585
 20
165.4500723468601
 30
0.0
  0
SEQEND
  5
430
  8
DEFAULT
  0
POLYLINE
  5
431
  8
DEFAULT
 66
     1
 10
0.0
 20
0.0
 30
0.0
 70
     1
  0
VERTEX
  5
432
  8
DEFAULT
 10
-1025.332042762336
 20
200.9602097388691
 30
0.0
  0
VERTEX
  5
433
  8
DEFAULT
 10
-1025.332042762336
 20
197.9616843342098
 30
0.0
  0
VERTEX
  5
434
  8
DEFAULT
 10
-1021.024361298796
 20
197.9616843342098
 30
0.0
  0
VERTEX
  5
435
  8
DEFAULT
 10
-1021.024361298796
 20
205.1616843342158
 30
0.0
  0
VERTEX
  5
436
  8
DEFAULT
 10
-1039.024361205404
 20
205.1616843342158
 30
0.0
  0
VERTEX
  5
437
  8
DEFAULT
 10
-1039.024361205404
 20
197.9616843342098
 30
0.0
  0
VERTEX
  5
438
  8
DEFAULT
 10
-1034.716679741864
 20
197.9616843342098
 30
0.0
  0
VERTEX
  5
439
  8
DEFAULT
 10
-1034.716679741864
 20
200.9602097388691
 30
0.0
  0
SEQEND
  5
43A
  8
DEFAULT
  0
POLYLINE
  5
43B
  8
DEFAULT
 66
     1
 10
0.0
 20
0.0
 30
0.0
 70
     1
  0
VERTEX
  5
43C
  8
DEFAULT
 10
-1025.332042762336
 20
211.3631589295626
 30
0.0
  0
VERTEX
  5
43D
  8
DEFAULT
 10
-1034.716679741864
 20
211.3631589295626
 30
0.0
  0
VERTEX
  5
43E
  8
DEFAULT
 10
-1034.716679741864
 20
214.3616843342218
 30
0.0
  0
VERTEX
  5
43F
  8
DEFAULT
 10
-1039.024361205404
 20
214.3616843342218
 30
0.0
  0
VERTEX
  5
440
  8
DEFAULT
 10
-1039.024361205404
 20
207.1616843342158
 30
0.0
  0
VERTEX
  5
441
  8
DEFAULT
 10
-1021.024361298796
 20
207.1616843342158
 30
0.0
  0
VERTEX
  5
442
  8
DEFAULT
 10
-1021.024361298796
 20
214.3616843342218
 30
0.0
  0
VERTEX
  5
443
  8
DEFAULT
 10
-1025.332042762336
 20
214.3616843342218
 30
0.0
  0
SEQEND
  5
444
  8
DEFAULT
  0
POLYLINE
  5
445
  8
DEFAULT
 66
     1
 10
0.0
 20
0.0
 30
0.0
 70
     1
  0
VERTEX
  5
446
  8
DEFAULT
 10
-1039.024361205404
 20
215.9616843342097
 30
0.0
  0
VERTEX
  5
447
  8
DEFAULT
 10
-1039.024361205404
 20
233.3616843342216
 30
0.0
  0
VERTEX
  5
448
  8
DEFAULT
 10
-1034.716679741864
 20
233.3616843342216
 30
0.0
  0
VERTEX
  5
449
  8
DEFAULT
 10
-1034.716679741864
 20
230.3631589295625
 30
0.0
  0
VERTEX
  5
44A
  8
DEFAULT
 10
-1025.332042762336
 20
230.3631589295625
 30
0.0
  0
VERTEX
  5
44B
  8
DEFAULT
 10
-1025.332042762336
 20
233.3616843342216
 30
0.0
  0
VERTEX
  5
44C
  8
DEFAULT
 10
-1021.024361298796
 20
233.3616843342216
 30
0.0
  0
VERTEX
  5
44D
  8
DEFAULT
 10
-1021.024361298796
 20
215.9616843342097
 30
0.0
  0
VERTEX
  5
44E
  8
DEFAULT
 10
-1025.332042762336
 20
215.9616843342098
 30
0.0
  0
VERTEX
  5
44F
  8
DEFAULT
 10
-1025.332042762336
 20
218.9602097388691
 30
0.0
  0
VERTEX
  5
450
  8
DEFAULT
 10
-1034.716679741864
 20
218.9602097388691
 30
0.0
  0
VERTEX
  5
451
  8
DEFAULT
 10
-1034.716679741864
 20
215.9616843342098
 30
0.0
  0
SEQEND
  5
452
  8
DEFAULT
  0
POLYLINE
  5
453
  8
DEFAULT
 66
     1
 10
0.0
 20
0.0
 30
0.0
 70
     1
  0
VERTEX
  5
454
  8
DEFAULT
 10
-1009.529275220151
 20
210.1459171385035
 30
0.0
 42
0.9999999999999999
  0
VERTEX
  5
455
  8
DEFAULT
 10
-1009.529275220151
 20
198.74296794781
 30
0.0
  0
VERTEX
  5
456
  8
DEFAULT
 10
-971.0245156955252
 20
198.7429679478099
 30
0.0
  0
VERTEX
  5
457
  8
DEFAULT
 10
-971.0245156955252
 20
195.74296794781
 30
0.0
  0
VERTEX
  5
458
  8
DEFAULT
 10
-963.0243612521022
 20
195.74296794781
 30
0.0
  0
VERTEX
  5
459
  8
DEFAULT
 10
-963.0243612521022
 20
198.7429679478099
 30
0.0
  0
VERTEX
  5
45A
  8
DEFAULT
 10
-947.0245156955252
 20
198.7429679478099
 30
0.0
  0
VERTEX
  5
45B
  8
DEFAULT
 10
-947.0245156955252
 20
195.74296794781
 30
0.0
  0
VERTEX
  5
45C
  8
DEFAULT
 10
-939.0243612521022
 20
195.74296794781
 30
0.0
  0
VERTEX
  5
45D
  8
DEFAULT
 10
-939.0243612521022
 20
198.7429679478099
 30
0.0
  0
VERTEX
  5
45E
  8
DEFAULT
 10
-900.9108913235136
 20
198.7429679478099
 30
0.0
 42
0.9999999999999502
  0
VERTEX
  5
45F
  8
DEFAULT
 10
-900.9108913235136
 20
210.1459171385033
 30
0.0
  0
VERTEX
  5
460
  8
DEFAULT
 10
-939.0243612521022
 20
210.1459171385034
 30
0.0
  0
VERTEX
  5
461
  8
DEFAULT
 10
-939.0243612521022
 20
213.1459171385033
 30
0.0
  0
VERTEX
  5
462
  8
DEFAULT
 10
-947.0245156955252
 20
213.1459171385033
 30
0.0
  0
VERTEX
  5
463
  8
DEFAULT
 10
-947.0245156955252
 20
210.1459171385034
 30
0.0
  0
VERTEX
  5
464
  8
DEFAULT
 10
-963.0243612521022
 20
210.1459171385034
 30
0.0
  0
VERTEX
  5
465
  8
DEFAULT
 10
-963.0243612521022
 20
213.1459171385033
 30
0.0
  0
VERTEX
  5
466
  8
DEFAULT
 10
-971.0245156955252
 20
213.1459171385033
 30
0.0
  0
VERTEX
  5
467
  8
DEFAULT
 10
-971.0245156955252
 20
210.1459171385034
 30
0.0
  0
SEQEND
  5
468
  8
DEFAULT
  0
POLYLINE
  5
469
  8
DEFAULT
 66
     1
 10
0.0
 20
0.0
 30
0.0
 70
     1
  0
VERTEX
  5
46A
  8
DEFAULT
 10
-1123.034275220151
 20
237.7088561145285
 30
0.0
 42
0.4142135623730634
  0
VERTEX
  5
46B
  8
DEFAULT
 10
-1123.792583271832
 20
238.46716416621
 30
0.0
  0
VERTEX
  5
46C
  8
DEFAULT
 10
-1132.529275220151
 20
238.4671641662101
 30
0.0
 42
0.9999999999999428
  0
VERTEX
  5
46D
  8
DEFAULT
 10
-1132.529275220151
 20
214.638982105567
 30
0.0
  0
VERTEX
  5
46E
  8
DEFAULT
 10
-1123.792583271832
 20
214.6389821055673
 30
0.0
 42
0.4142135623729712
  0
VERTEX
  5
46F
  8
DEFAULT
 10
-1123.034275220151
 20
215.3972901572486
 30
0.0
  0
VERTEX
  5
470
  8
DEFAULT
 10
-1123.086894198977
 20
215.9587561054391
 30
0.0
 42
-0.1193071592404009
  0
VERTEX
  5
471
  8
DEFAULT
 10
-1122.557465496942
 20
217.5973396120793
 30
0.0
  0
VERTEX
  5
472
  8
DEFAULT
 10
-1121.862701046723
 20
217.5973396120793
 30
0.0
 42
-0.1193071592403774
  0
VERTEX
  5
473
  8
DEFAULT
 10
-1121.333272344688
 20
215.9587561054391
 30
0.0
  0
VERTEX
  5
474
  8
DEFAULT
 10
-1121.385891323513
 20
215.3972901572483
 30
0.0
 42
0.9999999999999999
  0
VERTEX
  5
475
  8
DEFAULT
 10
-1119.869275220151
 20
215.3972901572486
 30
0.0
  0
VERTEX
  5
476
  8
DEFAULT
 10
-1119.921894198977
 20
215.9587561054391
 30
0.0
 42
-0.119307159240629
  0
VERTEX
  5
477
  8
DEFAULT
 10
-1119.392465496942
 20
217.5973396120793
 30
0.0
  0
VERTEX
  5
478
  8
DEFAULT
 10
-1118.697701046723
 20
217.5973396120793
 30
0.0
 42
-0.1193071592408909
  0
VERTEX
  5
479
  8
DEFAULT
 10
-1118.168272344688
 20
215.9587561054391
 30
0.0
  0
VERTEX
  5
47A
  8
DEFAULT
 10
-1118.220891323513
 20
215.3972901572483
 30
0.0
 42
0.99999999999985
  0
VERTEX
  5
47B
  8
DEFAULT
 10
-1116.704275220151
 20
215.3972901572486
 30
0.0
  0
VERTEX
  5
47C
  8
DEFAULT
 10
-1116.756894198977
 20
215.9587561054391
 30
0.0
 42
-0.1193071592405078
  0
VERTEX
  5
47D
  8
DEFAULT
 10
-1116.227465496942
 20
217.5973396120793
 30
0.0
  0
VERTEX
  5
47E
  8
DEFAULT
 10
-1115.532701046723
 20
217.5973396120793
 30
0.0
 42
-0.1193071592404171
  0
VERTEX
  5
47F
  8
DEFAULT
 10
-1115.003272344688
 20
215.9587561054391
 30
0.0
  0
VERTEX
  5
480
  8
DEFAULT
 10
-1115.055891323513
 20
215.3972901572483
 30
0.0
 42
0.9999999999999999
  0
VERTEX
  5
481
  8
DEFAULT
 10
-1113.539275220151
 20
215.3972901572486
 30
0.0
  0
VERTEX
  5
482
  8
DEFAULT
 10
-1113.591894198977
 20
215.9587561054391
 30
0.0
 42
-0.1193071592402599
  0
VERTEX
  5
483
  8
DEFAULT
 10
-1113.062465496942
 20
217.5973396120793
 30
0.0
  0
VERTEX
  5
484
  8
DEFAULT
 10
-1112.367701046723
 20
217.5973396120793
 30
0.0
 42
-0.1193071592405044
  0
VERTEX
  5
485
  8
DEFAULT
 10
-1111.838272344688
 20
215.9587561054391
 30
0.0
  0
VERTEX
  5
486
  8
DEFAULT
 10
-1111.890891323513
 20
215.3972901572483
 30
0.0
 42
1.000000000000075
  0
VERTEX
  5
487
  8
DEFAULT
 10
-1110.374275220151
 20
215.3972901572486
 30
0.0
  0
VERTEX
  5
488
  8
DEFAULT
 10
-1110.426894198976
 20
215.9587561054391
 30
0.0
 42
-0.1193071592406444
  0
VERTEX
  5
489
  8
DEFAULT
 10
-1109.897465496942
 20
217.5973396120793
 30
0.0
  0
VERTEX
  5
48A
  8
DEFAULT
 10
-1109.202701046722
 20
217.5973396120793
 30
0.0
 42
-0.119307159240385
  0
VERTEX
  5
48B
  8
DEFAULT
 10
-1108.673272344688
 20
215.9587561054391
 30
0.0
  0
VERTEX
  5
48C
  8
DEFAULT
 10
-1108.725891323513
 20
215.3972901572483
 30
0.0
 42
1.000000000000056
  0
VERTEX
  5
48D
  8
DEFAULT
 10
-1107.209275220151
 20
215.3972901572486
 30
0.0
  0
VERTEX
  5
48E
  8
DEFAULT
 10
-1107.261894198977
 20
215.9587561054391
 30
0.0
 42
-0.1193071592401545
  0
VERTEX
  5
48F
  8
DEFAULT
 10
-1106.732465496942
 20
217.5973396120793
 30
0.0
  0
VERTEX
  5
490
  8
DEFAULT
 10
-1106.037701046723
 20
217.5973396120793
 30
0.0
 42
-0.1193071592403766
  0
VERTEX
  5
491
  8
DEFAULT
 10
-1105.508272344688
 20
215.9587561054391
 30
0.0
  0
VERTEX
  5
492
  8
DEFAULT
 10
-1105.560891323513
 20
215.3972901572483
 30
0.0
 42
0.99999999999955
  0
VERTEX
  5
493
  8
DEFAULT
 10
-1104.044275220152
 20
215.3972901572486
 30
0.0
  0
VERTEX
  5
494
  8
DEFAULT
 10
-1104.096894198977
 20
215.9587561054391
 30
0.0
 42
-0.1193071592404091
  0
VERTEX
  5
495
  8
DEFAULT
 10
-1103.567465496942
 20
217.5973396120793
 30
0.0
  0
VERTEX
  5
496
  8
DEFAULT
 10
-1102.872701046723
 20
217.5973396120793
 30
0.0
 42
-0.1193071592406248
  0
VERTEX
  5
497
  8
DEFAULT
 10
-1102.343272344688
 20
215.9587561054391
 30
0.0
  0
VERTEX
  5
498
  8
DEFAULT
 10
-1102.395891323513
 20
215.3972901572483
 30
0.0
 42
0.9999999999997001
  0
VERTEX
  5
499
  8
DEFAULT
 10
-1100.879275220151
 20
215.3972901572486
 30
0.0
  0
VERTEX
  5
49A
  8
DEFAULT
 10
-1100.931894198977
 20
215.9587561054391
 30
0.0
 42
-0.1193071592403857
  0
VERTEX
  5
49B
  8
DEFAULT
 10
-1100.402465496942
 20
217.5973396120793
 30
0.0
  0
VERTEX
  5
49C
  8
DEFAULT
 10
-1099.707701046723
 20
217.5973396120793
 30
0.0
 42
-0.1193071592408766
  0
VERTEX
  5
49D
  8
DEFAULT
 10
-1099.178272344688
 20
215.9587561054391
 30
0.0
  0
VERTEX
  5
49E
  8
DEFAULT
 10
-1099.230891323513
 20
215.3972901572483
 30
0.0
 42
0.9999999999999999
  0
VERTEX
  5
49F
  8
DEFAULT
 10
-1097.714275220151
 20
215.3972901572486
 30
0.0
  0
VERTEX
  5
4A0
  8
DEFAULT
 10
-1097.766894198977
 20
215.9587561054391
 30
0.0
 42
-0.1193071592406405
  0
VERTEX
  5
4A1
  8
DEFAULT
 10
-1097.237465496942
 20
217.5973396120793
 30
0.0
  0
VERTEX
  5
4A2
  8
DEFAULT
 10
-1096.542701046723
 20
217.5973396120793
 30
0.0
 42
-0.1193071592406646
  0
VERTEX
  5
4A3
  8
DEFAULT
 10
-1096.013272344688
 20
215.9587561054391
 30
0.0
  0
VERTEX
  5
4A4
  8
DEFAULT
 10
-1096.065891323513
 20
215.3972901572483
 30
0.0
 42
0.99999999999985
  0
VERTEX
  5
4A5
  8
DEFAULT
 10
-1094.549275220152
 20
215.3972901572486
 30
0.0
  0
VERTEX
  5
4A6
  8
DEFAULT
 10
-1094.601894198976
 20
215.9587561054391
 30
0.0
 42
-0.1193071592405503
  0
VERTEX
  5
4A7
  8
DEFAULT
 10
-1094.072465496942
 20
217.5973396120793
 30
0.0
  0
VERTEX
  5
4A8
  8
DEFAULT
 10
-1093.377701046722
 20
217.5973396120793
 30
0.0
 42
-0.1193071592405097
  0
VERTEX
  5
4A9
  8
DEFAULT
 10
-1092.848272344688
 20
215.9587561054391
 30
0.0
  0
VERTEX
  5
4AA
  8
DEFAULT
 10
-1092.900891323513
 20
215.3972901572483
 30
0.0
 42
1.00000000000015
  0
VERTEX
  5
4AB
  8
DEFAULT
 10
-1091.384275220151
 20
215.3972901572486
 30
0.0
  0
VERTEX
  5
4AC
  8
DEFAULT
 10
-1091.436894198976
 20
215.9587561054391
 30
0.0
 42
-0.1193071592402717
  0
VERTEX
  5
4AD
  8
DEFAULT
 10
-1090.907465496942
 20
217.5973396120793
 30
0.0
  0
VERTEX
  5
4AE
  8
DEFAULT
 10
-1090.212701046722
 20
217.5973396120793
 30
0.0
 42
-0.119307159240493
  0
VERTEX
  5
4AF
  8
DEFAULT
 10
-1089.683272344688
 20
215.9587561054391
 30
0.0
  0
VERTEX
  5
4B0
  8
DEFAULT
 10
-1089.735891323513
 20
215.3972901572483
 30
0.0
 42
0.9999999999999999
  0
VERTEX
  5
4B1
  8
DEFAULT
 10
-1088.219275220151
 20
215.3972901572486
 30
0.0
  0
VERTEX
  5
4B2
  8
DEFAULT
 10
-1088.271894198976
 20
215.9587561054391
 30
0.0
 42
-0.1193071592402798
  0
VERTEX
  5
4B3
  8
DEFAULT
 10
-1087.742465496942
 20
217.5973396120793
 30
0.0
  0
VERTEX
  5
4B4
  8
DEFAULT
 10
-1087.047701046723
 20
217.5973396120793
 30
0.0
 42
-0.1193071592404858
  0
VERTEX
  5
4B5
  8
DEFAULT
 10
-1086.518272344688
 20
215.9587561054391
 30
0.0
  0
VERTEX
  5
4B6
  8
DEFAULT
 10
-1086.570891323513
 20
215.3972901572483
 30
0.0
 42
0.9999999999997565
  0
VERTEX
  5
4B7
  8
DEFAULT
 10
-1085.054275220151
 20
215.3972901572484
 30
0.0
  0
VERTEX
  5
4B8
  8
DEFAULT
 10
-1085.106894198977
 20
215.958756105439
 30
0.0
 42
-0.1193071592402873
  0
VERTEX
  5
4B9
  8
DEFAULT
 10
-1084.577465496942
 20
217.5973396120792
 30
0.0
  0
VERTEX
  5
4BA
  8
DEFAULT
 10
-1083.882701046723
 20
217.5973396120792
 30
0.0
 42
-0.1193071592407381
  0
VERTEX
  5
4BB
  8
DEFAULT
 10
-1083.353272344688
 20
215.958756105439
 30
0.0
  0
VERTEX
  5
4BC
  8
DEFAULT
 10
-1083.405891323514
 20
215.3972901572482
 30
0.0
 42
0.414213608476196
  0
VERTEX
  5
4BD
  8
DEFAULT
 10
-1082.64758315247
 20
214.6389821055672
 30
0.0
  0
VERTEX
  5
4BE
  8
DEFAULT
 10
-1073.910891323514
 20
214.6389821055672
 30
0.0
 42
0.9999999999999712
  0
VERTEX
  5
4BF
  8
DEFAULT
 10
-1073.910891323513
 20
238.467144771805
 30
0.0
  0
VERTEX
  5
4C0
  8
DEFAULT
 10
-1082.642159851282
 20
238.467144771805
 30
0.0
 42
0.416309907890067
  0
VERTEX
  5
4C1
  8
DEFAULT
 10
-1083.405891323514
 20
237.7088561145285
 30
0.0
  0
VERTEX
  5
4C2
  8
DEFAULT
 10
-1083.353272344688
 20
237.1473901663379
 30
0.0
 42
-0.1193071592407552
  0
VERTEX
  5
4C3
  8
DEFAULT
 10
-1083.882701046723
 20
235.5088066596976
 30
0.0
  0
VERTEX
  5
4C4
  8
DEFAULT
 10
-1084.577465496942
 20
235.5088066596976
 30
0.0
 42
-0.1193071592407539
  0
VERTEX
  5
4C5
  8
DEFAULT
 10
-1085.106894198976
 20
237.1473901663379
 30
0.0
  0
VERTEX
  5
4C6
  8
DEFAULT
 10
-1085.054275220151
 20
237.7088561145284
 30
0.0
 42
0.99999999999985
  0
VERTEX
  5
4C7
  8
DEFAULT
 10
-1086.570891323513
 20
237.7088561145288
 30
0.0
  0
VERTEX
  5
4C8
  8
DEFAULT
 10
-1086.518272344688
 20
237.147390166338
 30
0.0
 42
-0.1193071592404925
  0
VERTEX
  5
4C9
  8
DEFAULT
 10
-1087.047701046723
 20
235.5088066596977
 30
0.0
  0
VERTEX
  5
4CA
  8
DEFAULT
 10
-1087.742465496942
 20
235.5088066596977
 30
0.0
 42
-0.1193071592405287
  0
VERTEX
  5
4CB
  8
DEFAULT
 10
-1088.271894198976
 20
237.147390166338
 30
0.0
  0
VERTEX
  5
4CC
  8
DEFAULT
 10
-1088.219275220151
 20
237.7088561145285
 30
0.0
 42
1.00000000000015
  0
VERTEX
  5
4CD
  8
DEFAULT
 10
-1089.735891323513
 20
237.7088561145287
 30
0.0
  0
VERTEX
  5
4CE
  8
DEFAULT
 10
-1089.683272344688
 20
237.147390166338
 30
0.0
 42
-0.1193071592407552
  0
VERTEX
  5
4CF
  8
DEFAULT
 10
-1090.212701046722
 20
235.5088066596977
 30
0.0
  0
VERTEX
  5
4D0
  8
DEFAULT
 10
-1090.907465496942
 20
235.5088066596977
 30
0.0
 42
-0.1193071592402603
  0
VERTEX
  5
4D1
  8
DEFAULT
 10
-1091.436894198976
 20
237.147390166338
 30
0.0
  0
VERTEX
  5
4D2
  8
DEFAULT
 10
-1091.384275220151
 20
237.7088561145285
 30
0.0
 42
1.0000000000006
  0
VERTEX
  5
4D3
  8
DEFAULT
 10
-1092.900891323513
 20
237.7088561145287
 30
0.0
  0
VERTEX
  5
4D4
  8
DEFAULT
 10
-1092.848272344688
 20
237.147390166338
 30
0.0
 42
-0.1193071592404925
  0
VERTEX
  5
4D5
  8
DEFAULT
 10
-1093.377701046722
 20
235.5088066596977
 30
0.0
  0
VERTEX
  5
4D6
  8
DEFAULT
 10
-1094.072465496942
 20
235.5088066596977
 30
0.0
 42
-0.1193071592404973
  0
VERTEX
  5
4D7
  8
DEFAULT
 10
-1094.601894198976
 20
237.147390166338
 30
0.0
  0
VERTEX
  5
4D8
  8
DEFAULT
 10
-1094.549275220151
 20
237.7088561145285
 30
0.0
 42
1.0000000000003
  0
VERTEX
  5
4D9
  8
DEFAULT
 10
-1096.065891323513
 20
237.7088561145287
 30
0.0
  0
VERTEX
  5
4DA
  8
DEFAULT
 10
-1096.013272344688
 20
237.147390166338
 30
0.0
 42
-0.1193071592405003
  0
VERTEX
  5
4DB
  8
DEFAULT
 10
-1096.542701046722
 20
235.5088066596977
 30
0.0
  0
VERTEX
  5
4DC
  8
DEFAULT
 10
-1097.237465496942
 20
235.5088066596977
 30
0.0
 42
-0.1193071592403785
  0
VERTEX
  5
4DD
  8
DEFAULT
 10
-1097.766894198976
 20
237.147390166338
 30
0.0
  0
VERTEX
  5
4DE
  8
DEFAULT
 10
-1097.714275220151
 20
237.7088561145285
 30
0.0
 42
1.0000000000006
  0
VERTEX
  5
4DF
  8
DEFAULT
 10
-1099.230891323513
 20
237.7088561145287
 30
0.0
  0
VERTEX
  5
4E0
  8
DEFAULT
 10
-1099.178272344688
 20
237.147390166338
 30
0.0
 42
-0.1193071592408613
  0
VERTEX
  5
4E1
  8
DEFAULT
 10
-1099.707701046722
 20
235.5088066596977
 30
0.0
  0
VERTEX
  5
4E2
  8
DEFAULT
 10
-1100.402465496942
 20
235.5088066596977
 30
0.0
 42
-0.1193071592406251
  0
VERTEX
  5
4E3
  8
DEFAULT
 10
-1100.931894198977
 20
237.147390166338
 30
0.0
  0
VERTEX
  5
4E4
  8
DEFAULT
 10
-1100.879275220151
 20
237.7088561145285
 30
0.0
 42
1.00000000000075
  0
VERTEX
  5
4E5
  8
DEFAULT
 10
-1102.395891323514
 20
237.7088561145287
 30
0.0
  0
VERTEX
  5
4E6
  8
DEFAULT
 10
-1102.343272344688
 20
237.147390166338
 30
0.0
 42
-0.1193071592406215
  0
VERTEX
  5
4E7
  8
DEFAULT
 10
-1102.872701046723
 20
235.5088066596977
 30
0.0
  0
VERTEX
  5
4E8
  8
DEFAULT
 10
-1103.567465496942
 20
235.5088066596977
 30
0.0
 42
-0.1193071592403733
  0
VERTEX
  5
4E9
  8
DEFAULT
 10
-1104.096894198977
 20
237.147390166338
 30
0.0
  0
VERTEX
  5
4EA
  8
DEFAULT
 10
-1104.044275220151
 20
237.7088561145285
 30
0.0
 42
1.0000000000006
  0
VERTEX
  5
4EB
  8
DEFAULT
 10
-1105.560891323513
 20
237.7088561145287
 30
0.0
  0
VERTEX
  5
4EC
  8
DEFAULT
 10
-1105.508272344688
 20
237.147390166338
 30
0.0
 42
-0.1193071592406216
  0
VERTEX
  5
4ED
  8
DEFAULT
 10
-1106.037701046723
 20
235.5088066596977
 30
0.0
  0
VERTEX
  5
4EE
  8
DEFAULT
 10
-1106.732465496942
 20
235.5088066596977
 30
0.0
 42
-0.1193071592403857
  0
VERTEX
  5
4EF
  8
DEFAULT
 10
-1107.261894198977
 20
237.147390166338
 30
0.0
  0
VERTEX
  5
4F0
  8
DEFAULT
 10
-1107.209275220151
 20
237.7088561145285
 30
0.0
 42
1.00000000000015
  0
VERTEX
  5
4F1
  8
DEFAULT
 10
-1108.725891323513
 20
237.7088561145287
 30
0.0
  0
VERTEX
  5
4F2
  8
DEFAULT
 10
-1108.673272344688
 20
237.147390166338
 30
0.0
 42
-0.1193071592403863
  0
VERTEX
  5
4F3
  8
DEFAULT
 10
-1109.202701046722
 20
235.5088066596977
 30
0.0
  0
VERTEX
  5
4F4
  8
DEFAULT
 10
-1109.897465496942
 20
235.5088066596977
 30
0.0
 42
-0.119307159240618
  0
VERTEX
  5
4F5
  8
DEFAULT
 10
-1110.426894198976
 20
237.147390166338
 30
0.0
  0
VERTEX
  5
4F6
  8
DEFAULT
 10
-1110.374275220151
 20
237.7088561145285
 30
0.0
 42
1.00000000000045
  0
VERTEX
  5
4F7
  8
DEFAULT
 10
-1111.890891323514
 20
237.7088561145287
 30
0.0
  0
VERTEX
  5
4F8
  8
DEFAULT
 10
-1111.838272344688
 20
237.147390166338
 30
0.0
 42
-0.1193071592406216
  0
VERTEX
  5
4F9
  8
DEFAULT
 10
-1112.367701046722
 20
235.5088066596977
 30
0.0
  0
VERTEX
  5
4FA
  8
DEFAULT
 10
-1113.062465496942
 20
235.5088066596977
 30
0.0
 42
-0.1193071592403622
  0
VERTEX
  5
4FB
  8
DEFAULT
 10
-1113.591894198976
 20
237.147390166338
 30
0.0
  0
VERTEX
  5
4FC
  8
DEFAULT
 10
-1113.539275220151
 20
237.7088561145285
 30
0.0
 42
1.0000000000006
  0
VERTEX
  5
4FD
  8
DEFAULT
 10
-1115.055891323513
 20
237.7088561145287
 30
0.0
  0
VERTEX
  5
4FE
  8
DEFAULT
 10
-1115.003272344688
 20
237.147390166338
 30
0.0
 42
-0.119307159240481
  0
VERTEX
  5
4FF
  8
DEFAULT
 10
-1115.532701046723
 20
235.5088066596977
 30
0.0
  0
VERTEX
  5
500
  8
DEFAULT
 10
-1116.227465496942
 20
235.5088066596977
 30
0.0
 42
-0.119307159240488
  0
VERTEX
  5
501
  8
DEFAULT
 10
-1116.756894198977
 20
237.147390166338
 30
0.0
  0
VERTEX
  5
502
  8
DEFAULT
 10
-1116.704275220151
 20
237.7088561145285
 30
0.0
 42
1.00000000000075
  0
VERTEX
  5
503
  8
DEFAULT
 10
-1118.220891323513
 20
237.7088561145287
 30
0.0
  0
VERTEX
  5
504
  8
DEFAULT
 10
-1118.168272344688
 20
237.147390166338
 30
0.0
 42
-0.1193071592406136
  0
VERTEX
  5
505
  8
DEFAULT
 10
-1118.697701046723
 20
235.5088066596977
 30
0.0
  0
VERTEX
  5
506
  8
DEFAULT
 10
-1119.392465496942
 20
235.5088066596977
 30
0.0
 42
-0.1193071592403686
  0
VERTEX
  5
507
  8
DEFAULT
 10
-1119.921894198977
 20
237.147390166338
 30
0.0
  0
VERTEX
  5
508
  8
DEFAULT
 10
-1119.869275220151
 20
237.7088561145285
 30
0.0
 42
1.0000000000003
  0
VERTEX
  5
509
  8
DEFAULT
 10
-1121.385891323513
 20
237.7088561145287
 30
0.0
  0
VERTEX
  5
50A
  8
DEFAULT
 10
-1121.333272344688
 20
237.147390166338
 30
0.0
 42
-0.1193071592408648
  0
VERTEX
  5
50B
  8
DEFAULT
 10
-1121.862701046723
 20
235.5088066596977
 30
0.0
  0
VERTEX
  5
50C
  8
DEFAULT
 10
-1122.557465496942
 20
235.5088066596977
 30
0.0
 42
-0.1193071592401259
  0
VERTEX
  5
50D
  8
DEFAULT
 10
-1123.086894198977
 20
237.147390166338
 30
0.0
  0
SEQEND
  5
50E
  8
DEFAULT
  0
POLYLINE
  5
50F
  8
DEFAULT
 66
     1
 10
0.0
 20
0.0
 30
0.0
 70
     1
  0
VERTEX
  5
510
  8
DEFAULT
 10
-1132.529276179567
 20
243.6217056502967
 30
0.0
 42
1.000000000000013
  0
VERTEX
  5
511
  8
DEFAULT
 10
-1132.529275220151
 20
209.4844406214806
 30
0.0
 42
0.6250000000006194
  0
VERTEX
  5
512
  8
DEFAULT
 10
-1131.529275220151
 20
208.4844406214804
 30
0.0
  0
VERTEX
  5
513
  8
DEFAULT
 10
-1074.910891323514
 20
208.4844406214803
 30
0.0
 42
0.6250000000006576
  0
VERTEX
  5
514
  8
DEFAULT
 10
-1073.910891323513
 20
209.4844406214804
 30
0.0
 42
1.000000028104606
  0
VERTEX
  5
515
  8
DEFAULT
 10
-1073.910892282929
 20
243.6217056502964
 30
0.0
 42
0.6250000000007417
  0
VERTEX
  5
516
  8
DEFAULT
 10
-1074.910892282929
 20
244.6217056502966
 30
0.0
  0
VERTEX
  5
517
  8
DEFAULT
 10
-1131.529276179567
 20
244.6217056502967
 30
0.0
 42
0.625000000000139
  0
SEQEND
  5
518
  8
DEFAULT
  0
POLYLINE
  5
519
  8
DEFAULT
 66
     1
 10
0.0
 20
0.0
 30
0.0
 70
     1
  0
VERTEX
  5
51A
  8
DEFAULT
 10
-900.9108913235136
 20
218.7429679478099
 30
0.0
 42
1.00000000000002
  0
VERTEX
  5
51B
  8
DEFAULT
 10
-900.9108913235136
 20
230.1459171385034
 30
0.0
  0
VERTEX
  5
51C
  8
DEFAULT
 10
-939.0243612521022
 20
230.1459171385034
 30
0.0
  0
VERTEX
  5
51D
  8
DEFAULT
 10
-939.0243612521022
 20
233.1459171385033
 30
0.0
  0
VERTEX
  5
51E
  8
DEFAULT
 10
-947.0245156955251
 20
233.1459171385033
 30
0.0
  0
VERTEX
  5
51F
  8
DEFAULT
 10
-947.0245156955251
 20
230.1459171385034
 30
0.0
  0
VERTEX
  5
520
  8
DEFAULT
 10
-963.0243612521022
 20
230.1459171385034
 30
0.0
  0
VERTEX
  5
521
  8
DEFAULT
 10
-963.0243612521022
 20
233.1459171385033
 30
0.0
  0
VERTEX
  5
522
  8
DEFAULT
 10
-971.0245156955251
 20
233.1459171385033
 30
0.0
  0
VERTEX
  5
523
  8
DEFAULT
 10
-971.0245156955251
 20
230.1459171385034
 30
0.0
  0
VERTEX
  5
524
  8
DEFAULT
 10
-1009.529275220151
 20
230.1459171385035
 30
0.0
 42
1.000000000000002
  0
VERTEX
  5
525
  8
DEFAULT
 10
-1009.529275220151
 20
218.74296794781
 30
0.0
  0
VERTEX
  5
526
  8
DEFAULT
 10
-971.0245156955251
 20
218.7429679478099
 30
0.0
  0
VERTEX
  5
527
  8
DEFAULT
 10
-971.0245156955252
 20
215.7429679478099
 30
0.0
  0
VERTEX
  5
528
  8
DEFAULT
 10
-963.0243612521022
 20
215.7429679478099
 30
0.0
  0
VERTEX
  5
529
  8
DEFAULT
 10
-963.0243612521022
 20
218.7429679478099
 30
0.0
  0
VERTEX
  5
52A
  8
DEFAULT
 10
-947.0245156955251
 20
218.7429679478099
 30
0.0
  0
VERTEX
  5
52B
  8
DEFAULT
 10
-947.0245156955252
 20
215.7429679478099
 30
0.0
  0
VERTEX
  5
52C
  8
DEFAULT
 10
-939.0243612521022
 20
215.7429679478099
 30
0.0
  0
VERTEX
  5
52D
  8
DEFAULT
 10
-939.0243612521022
 20
218.7429679478099
 30
0.0
  0
SEQEND
  5
52E
  8
DEFAULT
  0
POLYLINE
  5
52F
  8
DEFAULT
 66
     1
 10
0.0
 20
0.0
 30
0.0
 70
     1
  0
VERTEX
  5
530
  8
DEFAULT
 10
-1009.529275220151
 20
222.9444425431568
 30
0.0
  0
VERTEX
  5
531
  8
DEFAULT
 10
-900.9108913235136
 20
222.9444425431567
 30
0.0
 42
1.00000000000019
  0
VERTEX
  5
532
  8
DEFAULT
 10
-900.9108913235136
 20
225.9444425431565
 30
0.0
  0
VERTEX
  5
533
  8
DEFAULT
 10
-1009.529275220151
 20
225.9444425431567
 30
0.0
 42
0.9999999999999999
  0
SEQEND
  5
534
  8
DEFAULT
  0
ENDSEC
  0
EOF
