  0
SECTION
  2
HEADER
  9
$ACADVER
  1
AC1009
  9
$DWGCODEPAGE
  3
ansi_1251
  9
$INSBASE
 10
0.0
 20
0.0
 30
0.0
  9
$EXTMIN
 10
1.000000000000000E+20
 20
1.000000000000000E+20
 30
1.000000000000000E+20
  9
$EXTMAX
 10
-1.000000000000000E+20
 20
-1.000000000000000E+20
 30
-1.000000000000000E+20
  9
$LIMMIN
 10
0.0
 20
0.0
  9
$LIMMAX
 10
12.0
 20
9.0
  9
$ORTHOMODE
 70
     0
  9
$REGENMODE
 70
     1
  9
$FILLMODE
 70
     1
  9
$QTEXTMODE
 70
     0
  9
$MIRRTEXT
 70
     1
  9
$DRAGMODE
 70
     2
  9
$LTSCALE
 40
1.0
  9
$OSMODE
 70
    37
  9
$ATTMODE
 70
     1
  9
$TEXTSIZE
 40
0.2
  9
$TRACEWID
 40
0.05
  9
$TEXTSTYLE
  7
STANDARD
  9
$CLAYER
  8
DEFAULT
  9
$CELTYPE
  6
BYLAYER
  9
$CECOLOR
 62
   256
  9
$DIMSCALE
 40
1.0
  9
$DIMASZ
 40
0.18
  9
$DIMEXO
 40
0.0625
  9
$DIMDLI
 40
0.38
  9
$DIMRND
 40
0.0
  9
$DIMDLE
 40
0.0
  9
$DIMEXE
 40
0.18
  9
$DIMTP
 40
0.0
  9
$DIMTM
 40
0.0
  9
$DIMTXT
 40
0.18
  9
$DIMCEN
 40
0.09
  9
$DIMTSZ
 40
0.0
  9
$DIMTOL
 70
     0
  9
$DIMLIM
 70
     0
  9
$DIMTIH
 70
     1
  9
$DIMTOH
 70
     1
  9
$DIMSE1
 70
     0
  9
$DIMSE2
 70
     0
  9
$DIMTAD
 70
     0
  9
$DIMZIN
 70
     0
  9
$DIMBLK
  1

  9
$DIMASO
 70
     1
  9
$DIMSHO
 70
     1
  9
$DIMPOST
  1

  9
$DIMAPOST
  1

  9
$DIMALT
 70
     0
  9
$DIMALTD
 70
     2
  9
$DIMALTF
 40
25.4
  9
$DIMLFAC
 40
1.0
  9
$DIMTOFL
 70
     0
  9
$DIMTVP
 40
0.0
  9
$DIMTIX
 70
     0
  9
$DIMSOXD
 70
     0
  9
$DIMSAH
 70
     0
  9
$DIMBLK1
  1

  9
$DIMBLK2
  1

  9
$DIMSTYLE
  2
STANDARD_ACAD
  9
$DIMCLRD
 70
     0
  9
$DIMCLRE
 70
     0
  9
$DIMCLRT
 70
     0
  9
$DIMTFAC
 40
1.0
  9
$DIMGAP
 40
0.09
  9
$LUNITS
 70
     2
  9
$LUPREC
 70
     3
  9
$SKETCHINC
 40
0.1
  9
$FILLETRAD
 40
0.5
  9
$AUNITS
 70
     0
  9
$AUPREC
 70
     0
  9
$MENU
  1
.
  9
$ELEVATION
 40
0.0
  9
$PELEVATION
 40
0.0
  9
$THICKNESS
 40
0.0
  9
$LIMCHECK
 70
     0
  9
$CHAMFERA
 40
0.0
  9
$CHAMFERB
 40
0.0
  9
$SKPOLY
 70
     0
  9
$TDCREATE
 40
2460259.706781181
  9
$TDUPDATE
 40
2460259.706795834
  9
$TDINDWG
 40
0.0000000116
  9
$TDUSRTIMER
 40
0.0000000116
  9
$USRTIMER
 70
     1
  9
$ANGBASE
 50
0.0
  9
$ANGDIR
 70
     0
  9
$PDMODE
 70
     0
  9
$PDSIZE
 40
0.0
  9
$PLINEWID
 40
0.0
  9
$COORDS
 70
     1
  9
$SPLFRAME
 70
     0
  9
$SPLINETYPE
 70
     6
  9
$SPLINESEGS
 70
     8
  9
$ATTDIA
 70
     0
  9
$ATTREQ
 70
     1
  9
$HANDLING
 70
     1
  9
$HANDSEED
  5
22E
  9
$SURFTAB1
 70
     6
  9
$SURFTAB2
 70
     6
  9
$SURFTYPE
 70
     6
  9
$SURFU
 70
     6
  9
$SURFV
 70
     6
  9
$UCSNAME
  2

  9
$UCSORG
 10
0.0
 20
0.0
 30
0.0
  9
$UCSXDIR
 10
1.0
 20
0.0
 30
0.0
  9
$UCSYDIR
 10
0.0
 20
1.0
 30
0.0
  9
$PUCSNAME
  2

  9
$PUCSORG
 10
0.0
 20
0.0
 30
0.0
  9
$PUCSXDIR
 10
1.0
 20
0.0
 30
0.0
  9
$PUCSYDIR
 10
0.0
 20
1.0
 30
0.0
  9
$USERI1
 70
     0
  9
$USERI2
 70
     0
  9
$USERI3
 70
     0
  9
$USERI4
 70
     0
  9
$USERI5
 70
     0
  9
$USERR1
 40
0.0
  9
$USERR2
 40
0.0
  9
$USERR3
 40
0.0
  9
$USERR4
 40
0.0
  9
$USERR5
 40
0.0
  9
$WORLDVIEW
 70
     1
  9
$SHADEDGE
 70
     3
  9
$SHADEDIF
 70
    70
  9
$TILEMODE
 70
     1
  9
$MAXACTVP
 70
    64
  9
$PLIMCHECK
 70
     0
  9
$PEXTMIN
 10
1.000000000000000E+20
 20
1.000000000000000E+20
 30
1.000000000000000E+20
  9
$PEXTMAX
 10
-1.000000000000000E+20
 20
-1.000000000000000E+20
 30
-1.000000000000000E+20
  9
$PLIMMIN
 10
0.0
 20
0.0
  9
$PLIMMAX
 10
12.0
 20
9.0
  9
$UNITMODE
 70
     0
  9
$VISRETAIN
 70
     1
  9
$PLINEGEN
 70
     0
  9
$PSLTSCALE
 70
     1
  0
ENDSEC
  0
SECTION
  2
TABLES
  0
TABLE
  2
VPORT
 70
     1
  0
VPORT
  2
*ACTIVE
 70
     0
 10
0.0
 20
0.0
 11
1.0
 21
1.0
 12
10.42990654205607
 22
4.5
 13
0.0
 23
0.0
 14
0.5
 24
0.5
 15
0.5
 25
0.5
 16
0.0
 26
0.0
 36
1.0
 17
0.0
 27
0.0
 37
0.0
 40
9.0
 41
1.972972972850329
 42
50.0
 43
0.0
 44
0.0
 50
0.0
 51
0.0
 71
     0
 72
   100
 73
     1
 74
     3
 75
     0
 76
     0
 77
     0
 78
     0
  0
ENDTAB
  0
TABLE
  2
LTYPE
 70
     1
  0
LTYPE
  2
CONTINUOUS
 70
     0
  3
Solid line
 72
    65
 73
     0
 40
0.0
  0
ENDTAB
  0
TABLE
  2
LAYER
 70
     2
  0
LAYER
  2
0
 70
     0
 62
     7
  6
CONTINUOUS
  0
LAYER
  2
DEFAULT
 70
     0
 62
     7
  6
CONTINUOUS
  0
ENDTAB
  0
TABLE
  2
STYLE
 70
     1
  0
STYLE
  2
STANDARD
 70
     0
 40
0.0
 41
1.0
 50
0.0
 71
     0
 42
0.2
  3
txt
  4

  0
ENDTAB
  0
TABLE
  2
VIEW
 70
     0
  0
ENDTAB
  0
TABLE
  2
UCS
 70
     0
  0
ENDTAB
  0
TABLE
  2
APPID
 70
     1
  0
APPID
  2
ACAD
 70
     0
  0
ENDTAB
  0
TABLE
  2
DIMSTYLE
 70
     1
  0
DIMSTYLE
  2
STANDARD_ACAD
 70
     0
  3

  4

  5

  6

  7

 40
1.0
 41
0.18
 42
0.0625
 43
0.38
 44
0.18
 45
0.0
 46
0.0
 47
0.0
 48
0.0
140
0.18
141
0.09
142
0.0
143
25.4
144
1.0
145
0.0
146
1.0
147
0.09
 71
     0
 72
     0
 73
     1
 74
     1
 75
     0
 76
     0
 77
     0
 78
     0
170
     0
171
     2
172
     0
173
     0
174
     0
175
     0
176
     0
177
     0
178
     0
  0
ENDTAB
  0
ENDSEC
  0
SECTION
  2
BLOCKS
  0
BLOCK
  8
0
  2
$MODEL_SPACE
 70
     0
 10
0.0
 20
0.0
 30
0.0
  3
$MODEL_SPACE
  1

  0
ENDBLK
  5
21
  8
0
  0
BLOCK
 67
     1
  8
0
  2
$PAPER_SPACE
 70
     0
 10
0.0
 20
0.0
 30
0.0
  3
$PAPER_SPACE
  1

  0
ENDBLK
  5
1D
 67
     1
  8
0
  0
ENDSEC
  0
SECTION
  2
ENTITIES
  0
ARC
  5
6F
  8
DEFAULT
 10
31.96423067632367
 20
694.5042222047657
 30
-34.50000000000022
 40
12.03576932367634
 50
298.4960735182817
 51
61.50392648171834
210
5.645033103131875E-16
220
-3.358703673734218E-16
230
-1.0
  0
ARC
  5
70
  8
DEFAULT
 10
-39.61487270856515
 20
708.5972550329634
 30
34.49999999999997
 40
3.999999999999955
 50
298.4960735182833
 51
0.0000000000016284
  0
LINE
  5
71
  8
DEFAULT
 10
-35.61487270856522
 20
708.5972550329635
 30
34.49999999999997
 11
-35.61487270856523
 21
713.744631404875
 31
34.49999999999997
  0
ARC
  5
72
  8
DEFAULT
 10
31.96423062993484
 20
713.744631404875
 30
-34.49999999999997
 40
3.650642078630391
 50
0.0
 51
180.0000092382571
210
0.0
220
0.0
230
-1.0
  0
LINE
  5
73
  8
DEFAULT
 10
-28.31358855130463
 20
713.7446308162527
 30
34.49999999999997
 11
-28.3135885513046
 21
708.5972549825976
 31
34.49999999999997
  0
ARC
  5
74
  8
DEFAULT
 10
-24.3135885513051
 20
708.5972549825973
 30
34.49999999999997
 40
3.999999999999506
 50
179.9999999999951
 51
241.50392610453
  0
ARC
  5
75
  8
DEFAULT
 10
31.96423067632364
 20
694.5042222047657
 30
-34.49999999999997
 40
12.03576932367636
 50
118.4960738954724
 51
241.5039261045274
210
0.0
220
0.0
230
-1.0
  0
ARC
  5
76
  8
DEFAULT
 10
-24.3135885513053
 20
680.4111894269344
 30
34.49999999999997
 40
3.999999999999214
 50
118.4960738954693
 51
180.0000000000082
  0
LINE
  5
77
  8
DEFAULT
 10
-28.31358855130462
 20
680.4111894269338
 30
34.49999999999997
 11
-28.31358855130461
 21
675.2638183874609
 31
34.49999999999997
  0
ARC
  5
78
  8
DEFAULT
 10
31.96423062993487
 20
675.2638183874614
 30
-34.49999999999997
 40
3.650642078630259
 50
180.0000000000071
 51
0.0000109792473764
210
0.0
220
0.0
230
-1.0
  0
LINE
  5
79
  8
DEFAULT
 10
-35.61487270856516
 20
675.263819087012
 30
34.49999999999997
 11
-35.61487270856523
 21
680.411189376568
 31
34.49999999999997
  0
ARC
  5
7A
  8
DEFAULT
 10
-39.61487270856526
 20
680.411189376568
 30
34.49999999999995
 40
4.000000000000028
 50
0.0
 51
61.50392648171529
  0
CIRCLE
  5
7B
  8
DEFAULT
 10
-31.9642306763235
 20
694.5042222047657
 30
34.49999999999997
 40
7.628740181282524
  0
CIRCLE
  5
7C
  8
DEFAULT
 10
-31.9642306299349
 20
713.744631404875
 30
34.49999999999997
 40
1.499999999999979
  0
CIRCLE
  5
7D
  8
DEFAULT
 10
-31.96423062993486
 20
675.2638183874615
 30
34.49999999999997
 40
1.49999999999994
  0
LINE
  5
7E
  8
DEFAULT
 10
-2.488277300405605
 20
702.0710927756874
 30
6.899061994309643
 11
-3.205768905650024
 21
702.0605372132122
 31
6.899061994309643
  0
LINE
  5
7F
  8
DEFAULT
 10
-3.205768905650024
 20
702.0605372132122
 30
6.899061994309643
 11
-4.183574081870603
 21
702.0460201688563
 31
6.899061994309643
  0
LINE
  5
80
  8
DEFAULT
 10
-4.183574081870603
 20
702.0460201688563
 30
6.899061994309643
 11
-4.386584337723721
 21
702.0375699869672
 31
6.899061994309643
  0
LINE
  5
81
  8
DEFAULT
 10
-4.386584337723721
 20
702.0375699869672
 30
6.899061994309643
 11
-4.574746461925454
 21
702.0260905818336
 31
6.899061994309643
  0
LINE
  5
82
  8
DEFAULT
 10
-4.574746461925454
 20
702.0260905818336
 30
6.899061994309643
 11
-4.748832542077739
 21
702.011110158488
 31
6.899061994309643
  0
LINE
  5
83
  8
DEFAULT
 10
-4.748832542077739
 20
702.011110158488
 30
6.899061994309643
 11
-4.909567785421115
 21
701.9922018548168
 31
6.899061994309643
  0
LINE
  5
84
  8
DEFAULT
 10
-4.909567785421115
 20
701.9922018548168
 30
6.899061994309643
 11
-4.98514353180314
 21
701.9811536397758
 31
6.899061994309643
  0
LINE
  5
85
  8
DEFAULT
 10
-4.98514353180314
 20
701.9811536397758
 30
6.899061994309643
 11
-5.0576340951134
 21
701.9689837415605
 31
6.899061994309643
  0
LINE
  5
86
  8
DEFAULT
 10
-5.0576340951134
 20
701.9689837415605
 30
6.899061994309643
 11
-5.127118533716917
 21
701.9556514397716
 31
6.899061994309643
  0
LINE
  5
87
  8
DEFAULT
 10
-5.127118533716917
 20
701.9556514397716
 30
6.899061994309643
 11
-5.193673646508386
 21
701.9411188223136
 31
6.899061994309643
  0
LINE
  5
88
  8
DEFAULT
 10
-5.193673646508386
 20
701.9411188223136
 30
6.899061994309643
 11
-5.257374084670872
 21
701.9253507853942
 31
6.899061994309643
  0
LINE
  5
89
  8
DEFAULT
 10
-5.257374084670872
 20
701.9253507853942
 30
6.899061994309643
 11
-5.318292463434524
 21
701.9083150335246
 31
6.899061994309643
  0
LINE
  5
8A
  8
DEFAULT
 10
-5.318292463434524
 20
701.9083150335246
 30
6.899061994309643
 11
-5.376499473835287
 21
701.8899820795193
 31
6.899061994309643
  0
LINE
  5
8B
  8
DEFAULT
 10
-5.376499473835287
 20
701.8899820795193
 30
6.899061994309643
 11
-5.404607808204585
 21
701.8803207048659
 31
6.899061994309643
  0
LINE
  5
8C
  8
DEFAULT
 10
-5.404607808204585
 20
701.8803207048659
 30
6.899061994309643
 11
-5.432063994473609
 21
701.8703252444964
 31
6.899061994309643
  0
LINE
  5
8D
  8
DEFAULT
 10
-5.432063994473609
 20
701.8703252444964
 30
6.899061994309643
 11
-5.45887637760978
 21
701.8599928023481
 31
6.899061994309643
  0
LINE
  5
8E
  8
DEFAULT
 10
-5.45887637760978
 20
701.8599928023481
 30
6.899061994309643
 11
-5.485053203273143
 21
701.849320657877
 31
6.899061994309643
  0
LINE
  5
8F
  8
DEFAULT
 10
-5.485053203273143
 20
701.849320657877
 30
6.899061994309643
 11
-5.510602621308818
 21
701.8383062660582
 31
6.899061994309643
  0
LINE
  5
90
  8
DEFAULT
 10
-5.510602621308818
 20
701.8383062660582
 30
6.899061994309643
 11
-5.535532689239466
 21
701.8269472573857
 31
6.899061994309643
  0
LINE
  5
91
  8
DEFAULT
 10
-5.535532689239466
 20
701.8269472573857
 30
6.899061994309643
 11
-5.559851375757749
 21
701.8152414378725
 31
6.899061994309643
  0
LINE
  5
92
  8
DEFAULT
 10
-5.559851375757749
 20
701.8152414378725
 30
6.899061994309643
 11
-5.583566564218785
 21
701.8031867890505
 31
6.899061994309643
  0
LINE
  5
93
  8
DEFAULT
 10
-5.583566564218785
 20
701.8031867890505
 30
6.899061994309643
 11
-5.60668605613261
 21
701.7907814679708
 31
6.899061994309643
  0
LINE
  5
94
  8
DEFAULT
 10
-5.60668605613261
 20
701.7907814679708
 30
6.899061994309643
 11
-5.629217574656639
 21
701.778023807203
 31
6.899061994309643
  0
LINE
  5
95
  8
DEFAULT
 10
-5.629217574656639
 20
701.778023807203
 30
6.899061994309643
 11
-5.651168768088127
 21
701.7649123148362
 31
6.899061994309643
  0
LINE
  5
96
  8
DEFAULT
 10
-5.651168768088127
 20
701.7649123148362
 30
6.899061994309643
 11
-5.672547213356621
 21
701.751445674478
 31
6.899061994309643
  0
LINE
  5
97
  8
DEFAULT
 10
-5.672547213356621
 20
701.751445674478
 30
6.899061994309643
 11
-5.69336041951643
 21
701.7376227452551
 31
6.899061994309643
  0
LINE
  5
98
  8
DEFAULT
 10
-5.69336041951643
 20
701.7376227452551
 30
6.899061994309643
 11
-5.713615831239075
 21
701.7234425618135
 31
6.899061994309643
  0
LINE
  5
99
  8
DEFAULT
 10
-5.713615831239075
 20
701.7234425618135
 30
6.899061994309643
 11
-5.733320832305757
 21
701.7089043343177
 31
6.899061994309643
  0
LINE
  5
9A
  8
DEFAULT
 10
-5.733320832305757
 20
701.7089043343177
 30
6.899061994309643
 11
-5.75248274909981
 21
701.6940074484513
 31
6.899061994309643
  0
LINE
  5
9B
  8
DEFAULT
 10
-5.75248274909981
 20
701.6940074484513
 30
6.899061994309643
 11
-5.771108854099166
 21
701.6787514654169
 31
6.899061994309643
  0
LINE
  5
9C
  8
DEFAULT
 10
-5.771108854099166
 20
701.6787514654169
 30
6.899061994309643
 11
-5.789206369368811
 21
701.6631361219362
 31
6.899061994309643
  0
LINE
  5
9D
  8
DEFAULT
 10
-5.789206369368811
 20
701.6631361219362
 30
6.899061994309643
 11
-5.806782470053244
 21
701.6471613302496
 31
6.899061994309643
  0
LINE
  5
9E
  8
DEFAULT
 10
-5.806782470053244
 20
701.6471613302496
 30
6.899061994309643
 11
-5.823844287868942
 21
701.6308271781165
 31
6.899061994309643
  0
LINE
  5
9F
  8
DEFAULT
 10
-5.823844287868942
 20
701.6308271781165
 30
6.899061994309643
 11
-5.840398914596814
 21
701.6141339288154
 31
6.899061994309643
  0
LINE
  5
A0
  8
DEFAULT
 10
-5.840398914596814
 20
701.6141339288154
 30
6.899061994309643
 11
-5.856453405574662
 21
701.5970820211437
 31
6.899061994309643
  0
LINE
  5
A1
  8
DEFAULT
 10
-5.856453405574662
 20
701.5970820211437
 30
6.899061994309643
 11
-5.872014783189644
 21
701.5796720694179
 31
6.899061994309643
  0
LINE
  5
A2
  8
DEFAULT
 10
-5.872014783189644
 20
701.5796720694179
 30
6.899061994309643
 11
-5.887090040370728
 21
701.5619048634733
 31
6.899061994309643
  0
LINE
  5
A3
  8
DEFAULT
 10
-5.887090040370728
 20
701.5619048634733
 30
6.899061994309643
 11
-5.901686144081157
 21
701.543781368664
 31
6.899061994309643
  0
LINE
  5
A4
  8
DEFAULT
 10
-5.901686144081157
 20
701.543781368664
 30
6.899061994309643
 11
-5.915810038810907
 21
701.5253027258633
 31
6.899061994309643
  0
LINE
  5
A5
  8
DEFAULT
 10
-5.915810038810907
 20
701.5253027258633
 30
6.899061994309643
 11
-5.929468650069143
 21
701.5064702514635
 31
6.899061994309643
  0
LINE
  5
A6
  8
DEFAULT
 10
-5.929468650069143
 20
701.5064702514635
 30
6.899061994309643
 11
-5.942668887876685
 21
701.4872854373757
 31
6.899061994309643
  0
LINE
  5
A7
  8
DEFAULT
 10
-5.942668887876685
 20
701.4872854373757
 30
6.899061994309643
 11
-5.955417650258462
 21
701.4677499510302
 31
6.899061994309643
  0
LINE
  5
A8
  8
DEFAULT
 10
-5.955417650258462
 20
701.4677499510302
 30
6.899061994309643
 11
-5.967721826735974
 21
701.4478656353758
 31
6.899061994309643
  0
LINE
  5
A9
  8
DEFAULT
 10
-5.967721826735974
 20
701.4478656353758
 30
6.899061994309643
 11
-5.979588301819755
 21
701.4276345088809
 31
6.899061994309643
  0
LINE
  5
AA
  8
DEFAULT
 10
-5.979588301819755
 20
701.4276345088809
 30
6.899061994309643
 11
-5.991023958501824
 21
701.4070587655324
 31
6.899061994309643
  0
LINE
  5
AB
  8
DEFAULT
 10
-5.991023958501824
 20
701.4070587655324
 30
6.899061994309643
 11
-6.002035681748154
 21
701.3861407748359
 31
6.899061994309643
  0
LINE
  5
AC
  8
DEFAULT
 10
-6.002035681748154
 20
701.3861407748359
 30
6.899061994309643
 11
-6.012630361991128
 21
701.3648830818167
 31
6.899061994309643
  0
LINE
  5
AD
  8
DEFAULT
 10
-6.012630361991128
 20
701.3648830818167
 30
6.899061994309643
 11
-6.022814898621995
 21
701.3432884070188
 31
6.899061994309643
  0
LINE
  5
AE
  8
DEFAULT
 10
-6.022814898621995
 20
701.3432884070188
 30
6.899061994309643
 11
-6.032596203483336
 21
701.321359646505
 31
6.899061994309643
  0
LINE
  5
AF
  8
DEFAULT
 10
-6.032596203483336
 20
701.321359646505
 30
6.899061994309643
 11
-6.041981204361518
 21
701.2990998718568
 31
6.899061994309643
  0
LINE
  5
B0
  8
DEFAULT
 10
-6.041981204361518
 20
701.2990998718568
 30
6.899061994309643
 11
-6.050976848479158
 21
701.2765123301751
 31
6.899061994309643
  0
LINE
  5
B1
  8
DEFAULT
 10
-6.050976848479158
 20
701.2765123301751
 30
6.899061994309643
 11
-6.05959010598758
 21
701.2536004440799
 31
6.899061994309643
  0
LINE
  5
B2
  8
DEFAULT
 10
-6.05959010598758
 20
701.2536004440799
 30
6.899061994309643
 11
-6.067827973459277
 21
701.2303678117098
 31
6.899061994309643
  0
LINE
  5
B3
  8
DEFAULT
 10
-6.067827973459277
 20
701.2303678117098
 30
6.899061994309643
 11
-6.075697477380369
 21
701.2068182067223
 31
6.899061994309643
  0
LINE
  5
B4
  8
DEFAULT
 10
-6.075697477380369
 20
701.2068182067223
 30
6.899061994309643
 11
-6.083205677643059
 21
701.1829555782941
 31
6.899061994309643
  0
LINE
  5
B5
  8
DEFAULT
 10
-6.083205677643059
 20
701.1829555782941
 30
6.899061994309643
 11
-6.097166594747259
 21
701.1343079254173
 31
6.899061994309643
  0
LINE
  5
B6
  8
DEFAULT
 10
-6.097166594747259
 20
701.1343079254173
 30
6.899061994309643
 11
-6.10976800474473
 21
701.0844599568712
 31
6.899061994309643
  0
LINE
  5
B7
  8
DEFAULT
 10
-6.10976800474473
 20
701.0844599568712
 30
6.899061994309643
 11
-6.121067945623132
 21
701.0334495847517
 31
6.899061994309643
  0
LINE
  5
B8
  8
DEFAULT
 10
-6.121067945623132
 20
701.0334495847517
 30
6.899061994309643
 11
-6.131125325143644
 21
700.9813175294578
 31
6.899061994309643
  0
LINE
  5
B9
  8
DEFAULT
 10
-6.131125325143644
 20
700.9813175294578
 30
6.899061994309643
 11
-6.140000032599671
 21
700.9281073196917
 31
6.899061994309643
  0
LINE
  5
BA
  8
DEFAULT
 10
-6.140000032599671
 20
700.9281073196917
 30
6.899061994309643
 11
-6.14775305057555
 21
700.8738652924592
 31
6.899061994309643
  0
LINE
  5
BB
  8
DEFAULT
 10
-6.14775305057555
 20
700.8738652924592
 30
6.899061994309643
 11
-6.154446566705263
 21
700.8186405930694
 31
6.899061994309643
  0
LINE
  5
BC
  8
DEFAULT
 10
-6.154446566705263
 20
700.8186405930694
 30
6.899061994309643
 11
-6.160144085431147
 21
700.7624851751349
 31
6.899061994309643
  0
LINE
  5
BD
  8
DEFAULT
 10
-6.160144085431147
 20
700.7624851751349
 30
6.899061994309643
 11
-6.168812403034782
 21
700.6476040395985
 31
6.899061994309643
  0
LINE
  5
BE
  8
DEFAULT
 10
-6.168812403034782
 20
700.6476040395985
 30
6.899061994309643
 11
-6.174296621923127
 21
700.5296936808177
 31
6.899061994309643
  0
LINE
  5
BF
  8
DEFAULT
 10
-6.174296621923127
 20
700.5296936808177
 30
6.899061994309643
 11
-6.178011921434404
 21
700.2868971376633
 31
6.899061994309643
  0
LINE
  5
C0
  8
DEFAULT
 10
-6.178011921434404
 20
700.2868971376633
 30
6.899061994309643
 11
-6.176227735095027
 21
700.0387685624942
 31
6.899061994309643
  0
LINE
  5
C1
  8
DEFAULT
 10
-6.176227735095027
 20
700.0387685624942
 30
6.899061994309643
 11
-6.030684530964096
 21
686.7993716809631
 31
6.899061994309643
  0
LINE
  5
C2
  8
DEFAULT
 10
-6.030684530964096
 20
686.7993716809631
 30
6.899061994309643
 11
-6.026986181490745
 21
686.5494191024356
 31
6.899061994309643
  0
LINE
  5
C3
  8
DEFAULT
 10
-6.026986181490745
 20
686.5494191024356
 30
6.899061994309643
 11
-6.017867384052012
 21
686.3049987625634
 31
6.899061994309643
  0
LINE
  5
C4
  8
DEFAULT
 10
-6.017867384052012
 20
686.3049987625634
 30
6.899061994309643
 11
-6.00973311829975
 21
686.1864074692473
 31
6.899061994309643
  0
LINE
  5
C5
  8
DEFAULT
 10
-6.00973311829975
 20
686.1864074692473
 30
6.899061994309643
 11
-5.998459656675726
 21
686.070959140167
 31
6.899061994309643
  0
LINE
  5
C6
  8
DEFAULT
 10
-5.998459656675726
 20
686.070959140167
 30
6.899061994309643
 11
-5.991478615998766
 21
686.0145683801463
 31
6.899061994309643
  0
LINE
  5
C7
  8
DEFAULT
 10
-5.991478615998766
 20
686.0145683801463
 30
6.899061994309643
 11
-5.983515374164013
 21
685.9591432852035
 31
6.899061994309643
  0
LINE
  5
C8
  8
DEFAULT
 10
-5.983515374164013
 20
685.9591432852035
 30
6.899061994309643
 11
-5.974507196848977
 21
685.9047377597002
 31
6.899061994309643
  0
LINE
  5
C9
  8
DEFAULT
 10
-5.974507196848977
 20
685.9047377597002
 30
6.899061994309643
 11
-5.96439262491142
 21
685.8514027942492
 31
6.899061994309643
  0
LINE
  5
CA
  8
DEFAULT
 10
-5.96439262491142
 20
685.8514027942492
 30
6.899061994309643
 11
-5.953111362630647
 21
685.7991864657138
 31
6.899061994309643
  0
LINE
  5
CB
  8
DEFAULT
 10
-5.953111362630647
 20
685.7991864657138
 30
6.899061994309643
 11
-5.940604165948801
 21
685.7481339372077
 31
6.899061994309643
  0
LINE
  5
CC
  8
DEFAULT
 10
-5.940604165948801
 20
685.7481339372077
 30
6.899061994309643
 11
-5.926812730712149
 21
685.698287458096
 31
6.899061994309643
  0
LINE
  5
CD
  8
DEFAULT
 10
-5.926812730712149
 20
685.698287458096
 30
6.899061994309643
 11
-5.911679580912371
 21
685.649686363994
 31
6.899061994309643
  0
LINE
  5
CE
  8
DEFAULT
 10
-5.911679580912371
 20
685.649686363994
 30
6.899061994309643
 11
-5.903592100741606
 21
685.6258643319732
 31
6.899061994309643
  0
LINE
  5
CF
  8
DEFAULT
 10
-5.903592100741606
 20
685.6258643319732
 30
6.899061994309643
 11
-5.895147956927865
 21
685.6023670767679
 31
6.899061994309643
  0
LINE
  5
D0
  8
DEFAULT
 10
-5.895147956927865
 20
685.6023670767679
 30
6.899061994309643
 11
-5.886340148118458
 21
685.579198695838
 31
6.899061994309643
  0
LINE
  5
D1
  8
DEFAULT
 10
-5.886340148118458
 20
685.579198695838
 30
6.899061994309643
 11
-5.877161703765022
 21
685.5563631045343
 31
6.899061994309643
  0
LINE
  5
D2
  8
DEFAULT
 10
-5.877161703765022
 20
685.5563631045343
 30
6.899061994309643
 11
-5.867605680631071
 21
685.5338640360981
 31
6.899061994309643
  0
LINE
  5
D3
  8
DEFAULT
 10
-5.867605680631071
 20
685.5338640360981
 30
6.899061994309643
 11
-5.857665159299522
 21
685.5117050416611
 31
6.899061994309643
  0
LINE
  5
D4
  8
DEFAULT
 10
-5.857665159299522
 20
685.5117050416611
 30
6.899061994309643
 11
-5.847333240680254
 21
685.4898894902461
 31
6.899061994309643
  0
LINE
  5
D5
  8
DEFAULT
 10
-5.847333240680254
 20
685.4898894902461
 30
6.899061994309643
 11
-5.836603042517631
 21
685.4684205687664
 31
6.899061994309643
  0
LINE
  5
D6
  8
DEFAULT
 10
-5.836603042517631
 20
685.4684205687664
 30
6.899061994309643
 11
-5.825467695898049
 21
685.447301282026
 31
6.899061994309643
  0
LINE
  5
D7
  8
DEFAULT
 10
-5.825467695898049
 20
685.447301282026
 30
6.899061994309643
 11
-5.813920341757482
 21
685.4265344527192
 31
6.899061994309643
  0
LINE
  5
D8
  8
DEFAULT
 10
-5.813920341757482
 20
685.4265344527192
 30
6.899061994309643
 11
-5.801954127389011
 21
685.4061227214316
 31
6.899061994309643
  0
LINE
  5
D9
  8
DEFAULT
 10
-5.801954127389011
 20
685.4061227214316
 30
6.899061994309643
 11
-5.789562202950376
 21
685.3860685466393
 31
6.899061994309643
  0
LINE
  5
DA
  8
DEFAULT
 10
-5.789562202950376
 20
685.3860685466393
 30
6.899061994309643
 11
-5.776737717971505
 21
685.3663742047086
 31
6.899061994309643
  0
LINE
  5
DB
  8
DEFAULT
 10
-5.776737717971505
 20
685.3663742047086
 30
6.899061994309643
 11
-5.763473817862066
 21
685.3470417898968
 31
6.899061994309643
  0
LINE
  5
DC
  8
DEFAULT
 10
-5.763473817862066
 20
685.3470417898968
 30
6.899061994309643
 11
-5.749763640418998
 21
685.3280732143522
 31
6.899061994309643
  0
LINE
  5
DD
  8
DEFAULT
 10
-5.749763640418998
 20
685.3280732143522
 30
6.899061994309643
 11
-5.735600312334052
 21
685.3094702081132
 31
6.899061994309643
  0
LINE
  5
DE
  8
DEFAULT
 10
-5.735600312334052
 20
685.3094702081132
 30
6.899061994309643
 11
-5.720976945701342
 21
685.291234319109
 31
6.899061994309643
  0
LINE
  5
DF
  8
DEFAULT
 10
-5.720976945701342
 20
685.291234319109
 30
6.899061994309643
 11
-5.70588663452487
 21
685.2733669131599
 31
6.899061994309643
  0
LINE
  5
E0
  8
DEFAULT
 10
-5.70588663452487
 20
685.2733669131599
 30
6.899061994309643
 11
-5.690322451226079
 21
685.2558691739763
 31
6.899061994309643
  0
LINE
  5
E1
  8
DEFAULT
 10
-5.690322451226079
 20
685.2558691739763
 30
6.899061994309643
 11
-5.674277443151382
 21
685.2387421031597
 31
6.899061994309643
  0
LINE
  5
E2
  8
DEFAULT
 10
-5.674277443151382
 20
685.2387421031597
 30
6.899061994309643
 11
-5.657744629079716
 21
685.2219865202021
 31
6.899061994309643
  0
LINE
  5
E3
  8
DEFAULT
 10
-5.657744629079716
 20
685.2219865202021
 30
6.899061994309643
 11
-5.64071699573007
 21
685.2056030624859
 31
6.899061994309643
  0
LINE
  5
E4
  8
DEFAULT
 10
-5.64071699573007
 20
685.2056030624859
 30
6.899061994309643
 11
-5.623187494269033
 21
685.1895921852847
 31
6.899061994309643
  0
LINE
  5
E5
  8
DEFAULT
 10
-5.623187494269033
 20
685.1895921852847
 30
6.899061994309643
 11
-5.605149036818327
 21
685.1739541617623
 31
6.899061994309643
  0
LINE
  5
E6
  8
DEFAULT
 10
-5.605149036818327
 20
685.1739541617623
 30
6.899061994309643
 11
-5.586594492962358
 21
685.1586890829735
 31
6.899061994309643
  0
LINE
  5
E7
  8
DEFAULT
 10
-5.586594492962358
 20
685.1586890829735
 30
6.899061994309643
 11
-5.567516686255745
 21
685.1437968578634
 31
6.899061994309643
  0
LINE
  5
E8
  8
DEFAULT
 10
-5.567516686255745
 20
685.1437968578634
 30
6.899061994309643
 11
-5.547908390730868
 21
685.1292772132683
 31
6.899061994309643
  0
LINE
  5
E9
  8
DEFAULT
 10
-5.547908390730868
 20
685.1292772132683
 30
6.899061994309643
 11
-5.527762327405407
 21
685.1151296939147
 31
6.899061994309643
  0
LINE
  5
EA
  8
DEFAULT
 10
-5.527762327405407
 20
685.1151296939147
 30
6.899061994309643
 11
-5.507071160789881
 21
685.10135366242
 31
6.899061994309643
  0
LINE
  5
EB
  8
DEFAULT
 10
-5.507071160789881
 20
685.10135366242
 30
6.899061994309643
 11
-5.485827495395183
 21
685.0879482992923
 31
6.899061994309643
  0
LINE
  5
EC
  8
DEFAULT
 10
-5.485827495395183
 20
685.0879482992923
 30
6.899061994309643
 11
-5.464023872240134
 21
685.0749126029302
 31
6.899061994309643
  0
LINE
  5
ED
  8
DEFAULT
 10
-5.464023872240134
 20
685.0749126029302
 30
6.899061994309643
 11
-5.441652765359011
 21
685.0622453896231
 31
6.899061994309643
  0
LINE
  5
EE
  8
DEFAULT
 10
-5.441652765359011
 20
685.0622453896231
 30
6.899061994309643
 11
-5.418706578309093
 21
685.0499452935508
 31
6.899061994309643
  0
LINE
  5
EF
  8
DEFAULT
 10
-5.418706578309093
 20
685.0499452935508
 30
6.899061994309643
 11
-5.395177640678199
 21
685.038010766784
 31
6.899061994309643
  0
LINE
  5
F0
  8
DEFAULT
 10
-5.395177640678199
 20
685.038010766784
 30
6.899061994309643
 11
-5.371058204592229
 21
685.0264400792844
 31
6.899061994309643
  0
LINE
  5
F1
  8
DEFAULT
 10
-5.371058204592229
 20
685.0264400792844
 30
6.899061994309643
 11
-5.346340441222707
 21
685.015231318904
 31
6.899061994309643
  0
LINE
  5
F2
  8
DEFAULT
 10
-5.346340441222707
 20
685.015231318904
 30
6.899061994309643
 11
-5.321016437294317
 21
685.0043823913851
 31
6.899061994309643
  0
LINE
  5
F3
  8
DEFAULT
 10
-5.321016437294317
 20
685.0043823913851
 30
6.899061994309643
 11
-5.295078191592445
 21
684.9938910203614
 31
6.899061994309643
  0
LINE
  5
F4
  8
DEFAULT
 10
-5.295078191592445
 20
684.9938910203614
 30
6.899061994309643
 11
-5.26851761147072
 21
684.9837547473568
 31
6.899061994309643
  0
LINE
  5
F5
  8
DEFAULT
 10
-5.26851761147072
 20
684.9837547473568
 30
6.899061994309643
 11
-5.24132650935856
 21
684.973970931786
 31
6.899061994309643
  0
LINE
  5
F6
  8
DEFAULT
 10
-5.24132650935856
 20
684.973970931786
 30
6.899061994309643
 11
-5.213496599268695
 21
684.9645367509544
 31
6.899061994309643
  0
LINE
  5
F7
  8
DEFAULT
 10
-5.213496599268695
 20
684.9645367509544
 30
6.899061994309643
 11
-5.185019493304727
 21
684.9554492000581
 31
6.899061994309643
  0
LINE
  5
F8
  8
DEFAULT
 10
-5.185019493304727
 20
684.9554492000581
 30
6.899061994309643
 11
-5.126089611668444
 21
684.9383010583086
 31
6.899061994309643
  0
LINE
  5
F9
  8
DEFAULT
 10
-5.126089611668444
 20
684.9383010583086
 30
6.899061994309643
 11
-5.064467590382318
 21
684.9224988259198
 31
6.899061994309643
  0
LINE
  5
FA
  8
DEFAULT
 10
-5.064467590382318
 20
684.9224988259198
 30
6.899061994309643
 11
-5.000082301315357
 21
684.9080119085233
 31
6.899061994309643
  0
LINE
  5
FB
  8
DEFAULT
 10
-5.000082301315357
 20
684.9080119085233
 30
6.899061994309643
 11
-4.932860650514267
 21
684.894806798003
 31
6.899061994309643
  0
LINE
  5
FC
  8
DEFAULT
 10
-4.932860650514267
 20
684.894806798003
 30
6.899061994309643
 11
-4.862727466444733
 21
684.882847072492
 31
6.899061994309643
  0
LINE
  5
FD
  8
DEFAULT
 10
-4.862727466444733
 20
684.882847072492
 30
6.899061994309643
 11
-4.789605388232718
 21
684.8720933963755
 31
6.899061994309643
  0
LINE
  5
FE
  8
DEFAULT
 10
-4.789605388232718
 20
684.8720933963755
 30
6.899061994309643
 11
-4.713414753905752
 21
684.8625035202886
 31
6.899061994309643
  0
LINE
  5
FF
  8
DEFAULT
 10
-4.713414753905752
 20
684.8625035202886
 30
6.899061994309643
 11
-4.551496992972661
 21
684.8466316019978
 31
6.899061994309643
  0
LINE
  5
100
  8
DEFAULT
 10
-4.551496992972661
 20
684.8466316019978
 30
6.899061994309643
 11
-4.376286619066081
 21
684.8348350477162
 31
6.899061994309643
  0
LINE
  5
101
  8
DEFAULT
 10
-4.376286619066081
 20
684.8348350477162
 30
6.899061994309643
 11
-4.187052097474324
 21
684.8266709675513
 31
6.899061994309643
  0
LINE
  5
102
  8
DEFAULT
 10
-4.187052097474324
 20
684.8266709675513
 30
6.899061994309643
 11
-3.983014347074708
 21
684.8216498516224
 31
6.899061994309643
  0
LINE
  5
103
  8
DEFAULT
 10
-3.983014347074708
 20
684.8216498516224
 30
6.899061994309643
 11
-3.001385038952617
 21
684.821573133042
 31
6.899061994309643
  0
LINE
  5
104
  8
DEFAULT
 10
-3.001385038952617
 20
684.821573133042
 30
6.899061994309643
 11
-2.488277300405582
 21
684.8291218496418
 31
6.899061994309643
  0
LINE
  5
105
  8
DEFAULT
 10
-2.488277300405582
 20
684.8291218496418
 30
6.899061994309643
 11
-2.488277300405557
 21
672.7885606993018
 31
6.899061994309643
  0
LINE
  5
106
  8
DEFAULT
 10
-2.488277300405557
 20
672.7885606993018
 30
6.899061994309643
 11
-2.486858233022743
 21
672.4149797666846
 31
6.899061994309643
  0
LINE
  5
107
  8
DEFAULT
 10
-2.486858233022743
 20
672.4149797666846
 30
6.899061994309643
 11
-2.477290972280554
 21
672.0495470274268
 31
6.899061994309643
  0
LINE
  5
108
  8
DEFAULT
 10
-2.477290972280554
 20
672.0495470274268
 30
6.899061994309643
 11
-2.467177256155063
 21
671.8721607435523
 31
6.899061994309643
  0
LINE
  5
109
  8
DEFAULT
 10
-2.467177256155063
 20
671.8721607435523
 30
6.899061994309643
 11
-2.452434404897736
 21
671.6994035948096
 31
6.899061994309643
  0
LINE
  5
10A
  8
DEFAULT
 10
-2.452434404897736
 20
671.6994035948096
 30
6.899061994309643
 11
-2.443099065828369
 21
671.614988933879
 31
6.899061994309643
  0
LINE
  5
10B
  8
DEFAULT
 10
-2.443099065828369
 20
671.614988933879
 30
6.899061994309643
 11
-2.432341440725371
 21
671.531996558982
 31
6.899061994309643
  0
LINE
  5
10C
  8
DEFAULT
 10
-2.432341440725371
 20
671.531996558982
 30
6.899061994309643
 11
-2.4200821362019
 21
671.4505058635054
 31
6.899061994309643
  0
LINE
  5
10D
  8
DEFAULT
 10
-2.4200821362019
 20
671.4505058635054
 30
6.899061994309643
 11
-2.406246050405542
 21
671.3705919493018
 31
6.899061994309643
  0
LINE
  5
10E
  8
DEFAULT
 10
-2.406246050405542
 20
671.3705919493018
 30
6.899061994309643
 11
-2.390762373018302
 21
671.292325626689
 31
6.899061994309643
  0
LINE
  5
10F
  8
DEFAULT
 10
-2.390762373018302
 20
671.292325626689
 30
6.899061994309643
 11
-2.373564585256612
 21
671.2157734144507
 31
6.899061994309643
  0
LINE
  5
110
  8
DEFAULT
 10
-2.373564585256612
 20
671.2157734144507
 30
6.899061994309643
 11
-2.354590459871325
 21
671.140997539836
 31
6.899061994309643
  0
LINE
  5
111
  8
DEFAULT
 10
-2.354590459871325
 20
671.140997539836
 30
6.899061994309643
 11
-2.333782061147721
 21
671.0680559385596
 31
6.899061994309643
  0
LINE
  5
112
  8
DEFAULT
 10
-2.333782061147721
 20
671.0680559385596
 30
6.899061994309643
 11
-2.311085744905501
 21
670.9970022548018
 31
6.899061994309643
  0
LINE
  5
113
  8
DEFAULT
 10
-2.311085744905501
 20
670.9970022548018
 30
6.899061994309643
 11
-2.286452158498791
 21
670.9278858412085
 31
6.899061994309643
  0
LINE
  5
114
  8
DEFAULT
 10
-2.286452158498791
 20
670.9278858412085
 30
6.899061994309643
 11
-2.273394639748361
 21
670.894068359959
 31
6.899061994309643
  0
LINE
  5
115
  8
DEFAULT
 10
-2.273394639748361
 20
670.894068359959
 30
6.899061994309643
 11
-2.25983624081614
 21
670.8607517588912
 31
6.899061994309643
  0
LINE
  5
116
  8
DEFAULT
 10
-2.25983624081614
 20
670.8607517588912
 30
6.899061994309643
 11
-2.245771999615454
 21
670.8279410000919
 31
6.899061994309643
  0
LINE
  5
117
  8
DEFAULT
 10
-2.245771999615454
 20
670.8279410000919
 30
6.899061994309643
 11
-2.231197222280524
 21
670.7956407774268
 31
6.899061994309643
  0
LINE
  5
118
  8
DEFAULT
 10
-2.231197222280524
 20
670.7956407774268
 30
6.899061994309643
 11
-2.216107483166477
 21
670.7638555165408
 31
6.899061994309643
  0
LINE
  5
119
  8
DEFAULT
 10
-2.216107483166477
 20
670.7638555165408
 30
6.899061994309643
 11
-2.200498624849339
 21
670.732589374858
 31
6.899061994309643
  0
LINE
  5
11A
  8
DEFAULT
 10
-2.200498624849339
 20
670.732589374858
 30
6.899061994309643
 11
-2.184366758126038
 21
670.7018462415813
 31
6.899061994309643
  0
LINE
  5
11B
  8
DEFAULT
 10
-2.184366758126038
 20
670.7018462415813
 30
6.899061994309643
 11
-2.167708262014406
 21
670.6716297376929
 31
6.899061994309643
  0
LINE
  5
11C
  8
DEFAULT
 10
-2.167708262014406
 20
670.6716297376929
 30
6.899061994309643
 11
-2.150519783753172
 21
670.6419432159541
 31
6.899061994309643
  0
LINE
  5
11D
  8
DEFAULT
 10
-2.150519783753172
 20
670.6419432159541
 30
6.899061994309643
 11
-2.13279823880197
 21
670.6127897609053
 31
6.899061994309643
  0
LINE
  5
11E
  8
DEFAULT
 10
-2.13279823880197
 20
670.6127897609053
 30
6.899061994309643
 11
-2.114540810841335
 21
670.584172188866
 31
6.899061994309643
  0
LINE
  5
11F
  8
DEFAULT
 10
-2.114540810841335
 20
670.584172188866
 30
6.899061994309643
 11
-2.095744951772701
 21
670.5560930479346
 31
6.899061994309643
  0
LINE
  5
120
  8
DEFAULT
 10
-2.095744951772701
 20
670.5560930479346
 30
6.899061994309643
 11
-2.076408381718408
 21
670.5285546179889
 31
6.899061994309643
  0
LINE
  5
121
  8
DEFAULT
 10
-2.076408381718408
 20
670.5285546179889
 30
6.899061994309643
 11
-2.056529089021692
 21
670.5015589106856
 31
6.899061994309643
  0
LINE
  5
122
  8
DEFAULT
 10
-2.056529089021692
 20
670.5015589106856
 30
6.899061994309643
 11
-2.036105330246695
 21
670.4751076694606
 31
6.899061994309643
  0
LINE
  5
123
  8
DEFAULT
 10
-2.036105330246695
 20
670.4751076694606
 30
6.899061994309643
 11
-2.015135630178459
 21
670.4492023695288
 31
6.899061994309643
  0
LINE
  5
124
  8
DEFAULT
 10
-2.015135630178459
 20
670.4492023695288
 30
6.899061994309643
 11
-1.993618781822926
 21
670.4238442178844
 31
6.899061994309643
  0
LINE
  5
125
  8
DEFAULT
 10
-1.993618781822926
 20
670.4238442178844
 30
6.899061994309643
 11
-1.971553846406942
 21
670.3990341533004
 31
6.899061994309643
  0
LINE
  5
126
  8
DEFAULT
 10
-1.971553846406942
 20
670.3990341533004
 30
6.899061994309643
 11
-1.948940153378252
 21
670.374772846329
 31
6.899061994309643
  0
LINE
  5
127
  8
DEFAULT
 10
-1.948940153378252
 20
670.374772846329
 30
6.899061994309643
 11
-1.925777300405505
 21
670.3510606993018
 31
6.899061994309643
  0
LINE
  5
128
  8
DEFAULT
 10
-1.925777300405505
 20
670.3510606993018
 30
6.899061994309643
 11
-1.90206515337825
 21
670.327897846329
 31
6.899061994309643
  0
LINE
  5
129
  8
DEFAULT
 10
-1.90206515337825
 20
670.327897846329
 30
6.899061994309643
 11
-1.877803846406937
 21
670.3052841533004
 31
6.899061994309643
  0
LINE
  5
12A
  8
DEFAULT
 10
-1.877803846406937
 20
670.3052841533004
 30
6.899061994309643
 11
-1.852993781822919
 21
670.2832192178844
 31
6.899061994309643
  0
LINE
  5
12B
  8
DEFAULT
 10
-1.852993781822919
 20
670.2832192178844
 30
6.899061994309643
 11
-1.82763563017845
 21
670.2617023695288
 31
6.899061994309643
  0
LINE
  5
12C
  8
DEFAULT
 10
-1.82763563017845
 20
670.2617023695288
 30
6.899061994309643
 11
-1.801730330246685
 21
670.2407326694606
 31
6.899061994309643
  0
LINE
  5
12D
  8
DEFAULT
 10
-1.801730330246685
 20
670.2407326694606
 30
6.899061994309643
 11
-1.775279089021679
 21
670.2203089106856
 31
6.899061994309643
  0
LINE
  5
12E
  8
DEFAULT
 10
-1.775279089021679
 20
670.2203089106856
 30
6.899061994309643
 11
-1.748283381718393
 21
670.2004296179889
 31
6.899061994309643
  0
LINE
  5
12F
  8
DEFAULT
 10
-1.748283381718393
 20
670.2004296179889
 30
6.899061994309643
 11
-1.720744951772685
 21
670.1810930479346
 31
6.899061994309643
  0
LINE
  5
130
  8
DEFAULT
 10
-1.720744951772685
 20
670.1810930479346
 30
6.899061994309643
 11
-1.692665810841317
 21
670.162297188866
 31
6.899061994309643
  0
LINE
  5
131
  8
DEFAULT
 10
-1.692665810841317
 20
670.162297188866
 30
6.899061994309643
 11
-1.66404823880195
 21
670.1440397609053
 31
6.899061994309643
  0
LINE
  5
132
  8
DEFAULT
 10
-1.66404823880195
 20
670.1440397609053
 30
6.899061994309643
 11
-1.63489478375315
 21
670.1263182159541
 31
6.899061994309643
  0
LINE
  5
133
  8
DEFAULT
 10
-1.63489478375315
 20
670.1263182159541
 30
6.899061994309643
 11
-1.605208262014382
 21
670.1091297376929
 31
6.899061994309643
  0
LINE
  5
134
  8
DEFAULT
 10
-1.605208262014382
 20
670.1091297376929
 30
6.899061994309643
 11
-1.574991758126012
 21
670.0924712415813
 31
6.899061994309643
  0
LINE
  5
135
  8
DEFAULT
 10
-1.574991758126012
 20
670.0924712415813
 30
6.899061994309643
 11
-1.544248624849311
 21
670.076339374858
 31
6.899061994309643
  0
LINE
  5
136
  8
DEFAULT
 10
-1.544248624849311
 20
670.076339374858
 30
6.899061994309643
 11
-1.512982483166448
 21
670.0607305165408
 31
6.899061994309643
  0
LINE
  5
137
  8
DEFAULT
 10
-1.512982483166448
 20
670.0607305165408
 30
6.899061994309643
 11
-1.481197222280493
 21
670.0456407774268
 31
6.899061994309643
  0
LINE
  5
138
  8
DEFAULT
 10
-1.481197222280493
 20
670.0456407774268
 30
6.899061994309643
 11
-1.448896999615421
 21
670.0310660000919
 31
6.899061994309643
  0
LINE
  5
139
  8
DEFAULT
 10
-1.448896999615421
 20
670.0310660000919
 30
6.899061994309643
 11
-1.416086240816107
 21
670.0170017588912
 31
6.899061994309643
  0
LINE
  5
13A
  8
DEFAULT
 10
-1.416086240816107
 20
670.0170017588912
 30
6.899061994309643
 11
-1.382769639748325
 21
670.003443359959
 31
6.899061994309643
  0
LINE
  5
13B
  8
DEFAULT
 10
-1.382769639748325
 20
670.003443359959
 30
6.899061994309643
 11
-1.348952158498754
 21
669.9903858412085
 31
6.899061994309643
  0
LINE
  5
13C
  8
DEFAULT
 10
-1.348952158498754
 20
669.9903858412085
 30
6.899061994309643
 11
-1.279835744905462
 21
669.9657522548018
 31
6.899061994309643
  0
LINE
  5
13D
  8
DEFAULT
 10
-1.279835744905462
 20
669.9657522548018
 30
6.899061994309643
 11
-1.20878206114768
 21
669.9430559385596
 31
6.899061994309643
  0
LINE
  5
13E
  8
DEFAULT
 10
-1.20878206114768
 20
669.9430559385596
 30
6.899061994309643
 11
-1.135840459871283
 21
669.922247539836
 31
6.899061994309643
  0
LINE
  5
13F
  8
DEFAULT
 10
-1.135840459871283
 20
669.922247539836
 30
6.899061994309643
 11
-1.061064585256568
 21
669.9032734144508
 31
6.899061994309643
  0
LINE
  5
140
  8
DEFAULT
 10
-1.061064585256568
 20
669.9032734144508
 30
6.899061994309643
 11
-0.9845123730182576
 21
669.8860756266891
 31
6.899061994309643
  0
LINE
  5
141
  8
DEFAULT
 10
-0.9845123730182576
 20
669.8860756266891
 30
6.899061994309643
 11
-0.9062460504054964
 21
669.8705919493019
 31
6.899061994309643
  0
LINE
  5
142
  8
DEFAULT
 10
-0.9062460504054964
 20
669.8705919493019
 30
6.899061994309643
 11
-0.8263321362018544
 21
669.8567558635054
 31
6.899061994309643
  0
LINE
  5
143
  8
DEFAULT
 10
-0.8263321362018544
 20
669.8567558635054
 30
6.899061994309643
 11
-0.7448414407253243
 21
669.844496558982
 31
6.899061994309643
  0
LINE
  5
144
  8
DEFAULT
 10
-0.7448414407253243
 20
669.844496558982
 30
6.899061994309643
 11
-0.6618490658283234
 21
669.8337389338792
 31
6.899061994309643
  0
LINE
  5
145
  8
DEFAULT
 10
-0.6618490658283234
 20
669.8337389338792
 30
6.899061994309643
 11
-0.5774344048976923
 21
669.8244035948097
 31
6.899061994309643
  0
LINE
  5
146
  8
DEFAULT
 10
-0.5774344048976923
 20
669.8244035948097
 30
6.899061994309643
 11
-0.4046772561550223
 21
669.8096607435523
 31
6.899061994309643
  0
LINE
  5
147
  8
DEFAULT
 10
-0.4046772561550223
 20
669.8096607435523
 30
6.899061994309643
 11
-0.2272909722805173
 21
669.7995470274269
 31
6.899061994309643
  0
LINE
  5
148
  8
DEFAULT
 10
-0.2272909722805173
 20
669.7995470274269
 30
6.899061994309643
 11
0.1381417669772796
 21
669.7899797666848
 31
6.899061994309643
  0
LINE
  5
149
  8
DEFAULT
 10
0.1381417669772796
 20
669.7899797666848
 30
6.899061994309643
 11
0.5117226995944502
 21
669.7885606993019
 31
6.899061994309643
  0
LINE
  5
14A
  8
DEFAULT
 10
0.5117226995944502
 20
669.7885606993019
 30
6.899061994309643
 11
3.198134148289888
 21
669.7885606993019
 31
6.899061994309643
  0
LINE
  5
14B
  8
DEFAULT
 10
3.198134148289888
 20
669.7885606993019
 30
6.899061994309643
 11
5.884545596985326
 21
669.7885606993019
 31
6.899061994309643
  0
LINE
  5
14C
  8
DEFAULT
 10
5.884545596985326
 20
669.7885606993019
 30
6.899061994309643
 11
6.258126529602489
 21
669.7899797666848
 31
6.899061994309643
  0
LINE
  5
14D
  8
DEFAULT
 10
6.258126529602489
 20
669.7899797666848
 30
6.899061994309643
 11
6.623559268860279
 21
669.799547027427
 31
6.899061994309643
  0
LINE
  5
14E
  8
DEFAULT
 10
6.623559268860279
 20
669.799547027427
 30
6.899061994309643
 11
6.800945552734781
 21
669.8096607435525
 31
6.899061994309643
  0
LINE
  5
14F
  8
DEFAULT
 10
6.800945552734781
 20
669.8096607435525
 30
6.899061994309643
 11
6.973702701477449
 21
669.8244035948098
 31
6.899061994309643
  0
LINE
  5
150
  8
DEFAULT
 10
6.973702701477449
 20
669.8244035948098
 30
6.899061994309643
 11
7.058117362408079
 21
669.8337389338792
 31
6.899061994309643
  0
LINE
  5
151
  8
DEFAULT
 10
7.058117362408079
 20
669.8337389338792
 30
6.899061994309643
 11
7.141109737305078
 21
669.8444965589822
 31
6.899061994309643
  0
LINE
  5
152
  8
DEFAULT
 10
7.141109737305078
 20
669.8444965589822
 30
6.899061994309643
 11
7.222600432781608
 21
669.8567558635057
 31
6.899061994309643
  0
LINE
  5
153
  8
DEFAULT
 10
7.222600432781608
 20
669.8567558635057
 30
6.899061994309643
 11
7.30251434698525
 21
669.870591949302
 31
6.899061994309643
  0
LINE
  5
154
  8
DEFAULT
 10
7.30251434698525
 20
669.870591949302
 30
6.899061994309643
 11
7.38078066959801
 21
669.8860756266893
 31
6.899061994309643
  0
LINE
  5
155
  8
DEFAULT
 10
7.38078066959801
 20
669.8860756266893
 30
6.899061994309643
 11
7.457332881836321
 21
669.903273414451
 31
6.899061994309643
  0
LINE
  5
156
  8
DEFAULT
 10
7.457332881836321
 20
669.903273414451
 30
6.899061994309643
 11
7.532108756451036
 21
669.9222475398362
 31
6.899061994309643
  0
LINE
  5
157
  8
DEFAULT
 10
7.532108756451036
 20
669.9222475398362
 30
6.899061994309643
 11
7.605050357727432
 21
669.9430559385598
 31
6.899061994309643
  0
LINE
  5
158
  8
DEFAULT
 10
7.605050357727432
 20
669.9430559385598
 30
6.899061994309643
 11
7.676104041485214
 21
669.965752254802
 31
6.899061994309643
  0
LINE
  5
159
  8
DEFAULT
 10
7.676104041485214
 20
669.965752254802
 30
6.899061994309643
 11
7.745220455078506
 21
669.9903858412088
 31
6.899061994309643
  0
LINE
  5
15A
  8
DEFAULT
 10
7.745220455078506
 20
669.9903858412088
 30
6.899061994309643
 11
7.779037936328077
 21
670.0034433599592
 31
6.899061994309643
  0
LINE
  5
15B
  8
DEFAULT
 10
7.779037936328077
 20
670.0034433599592
 30
6.899061994309643
 11
7.812354537395859
 21
670.0170017588914
 31
6.899061994309643
  0
LINE
  5
15C
  8
DEFAULT
 10
7.812354537395859
 20
670.0170017588914
 30
6.899061994309643
 11
7.845165296195175
 21
670.0310660000921
 31
6.899061994309643
  0
LINE
  5
15D
  8
DEFAULT
 10
7.845165296195175
 20
670.0310660000921
 30
6.899061994309643
 11
7.877465518860246
 21
670.045640777427
 31
6.899061994309643
  0
LINE
  5
15E
  8
DEFAULT
 10
7.877465518860246
 20
670.045640777427
 30
6.899061994309643
 11
7.9092507797462
 21
670.0607305165411
 31
6.899061994309643
  0
LINE
  5
15F
  8
DEFAULT
 10
7.9092507797462
 20
670.0607305165411
 30
6.899061994309643
 11
7.940516921429063
 21
670.0763393748582
 31
6.899061994309643
  0
LINE
  5
160
  8
DEFAULT
 10
7.940516921429063
 20
670.0763393748582
 30
6.899061994309643
 11
7.971260054705766
 21
670.0924712415815
 31
6.899061994309643
  0
LINE
  5
161
  8
DEFAULT
 10
7.971260054705766
 20
670.0924712415815
 30
6.899061994309643
 11
8.001476558594135
 21
670.1091297376931
 31
6.899061994309643
  0
LINE
  5
162
  8
DEFAULT
 10
8.001476558594135
 20
670.1091297376931
 30
6.899061994309643
 11
8.031163080332902
 21
670.1263182159544
 31
6.899061994309643
  0
LINE
  5
163
  8
DEFAULT
 10
8.031163080332902
 20
670.1263182159544
 30
6.899061994309643
 11
8.060316535381702
 21
670.1440397609056
 31
6.899061994309643
  0
LINE
  5
164
  8
DEFAULT
 10
8.060316535381702
 20
670.1440397609056
 30
6.899061994309643
 11
8.088934107421068
 21
670.1622971888662
 31
6.899061994309643
  0
LINE
  5
165
  8
DEFAULT
 10
8.088934107421068
 20
670.1622971888662
 30
6.899061994309643
 11
8.117013248352437
 21
670.1810930479348
 31
6.899061994309643
  0
LINE
  5
166
  8
DEFAULT
 10
8.117013248352437
 20
670.1810930479348
 30
6.899061994309643
 11
8.144551678298146
 21
670.2004296179891
 31
6.899061994309643
  0
LINE
  5
167
  8
DEFAULT
 10
8.144551678298146
 20
670.2004296179891
 30
6.899061994309643
 11
8.171547385601432
 21
670.2203089106858
 31
6.899061994309643
  0
LINE
  5
168
  8
DEFAULT
 10
8.171547385601432
 20
670.2203089106858
 30
6.899061994309643
 11
8.197998626826438
 21
670.2407326694608
 31
6.899061994309643
  0
LINE
  5
169
  8
DEFAULT
 10
8.197998626826438
 20
670.2407326694608
 30
6.899061994309643
 11
8.223903926758204
 21
670.2617023695291
 31
6.899061994309643
  0
LINE
  5
16A
  8
DEFAULT
 10
8.223903926758204
 20
670.2617023695291
 30
6.899061994309643
 11
8.249262078402673
 21
670.2832192178846
 31
6.899061994309643
  0
LINE
  5
16B
  8
DEFAULT
 10
8.249262078402673
 20
670.2832192178846
 30
6.899061994309643
 11
8.274072142986693
 21
670.3052841533006
 31
6.899061994309643
  0
LINE
  5
16C
  8
DEFAULT
 10
8.274072142986693
 20
670.3052841533006
 30
6.899061994309643
 11
8.298333449958005
 21
670.3278978463293
 31
6.899061994309643
  0
LINE
  5
16D
  8
DEFAULT
 10
8.298333449958005
 20
670.3278978463293
 30
6.899061994309643
 11
8.32204559698526
 21
670.351060699302
 31
6.899061994309643
  0
LINE
  5
16E
  8
DEFAULT
 10
8.32204559698526
 20
670.351060699302
 30
6.899061994309643
 11
8.345208449958008
 21
670.3747728463293
 31
6.899061994309643
  0
LINE
  5
16F
  8
DEFAULT
 10
8.345208449958008
 20
670.3747728463293
 30
6.899061994309643
 11
8.3678221429867
 21
670.3990341533006
 31
6.899061994309643
  0
LINE
  5
170
  8
DEFAULT
 10
8.3678221429867
 20
670.3990341533006
 30
6.899061994309643
 11
8.389887078402683
 21
670.4238442178846
 31
6.899061994309643
  0
LINE
  5
171
  8
DEFAULT
 10
8.389887078402683
 20
670.4238442178846
 30
6.899061994309643
 11
8.411403926758215
 21
670.4492023695291
 31
6.899061994309643
  0
LINE
  5
172
  8
DEFAULT
 10
8.411403926758215
 20
670.4492023695291
 30
6.899061994309643
 11
8.432373626826452
 21
670.4751076694608
 31
6.899061994309643
  0
LINE
  5
173
  8
DEFAULT
 10
8.432373626826452
 20
670.4751076694608
 30
6.899061994309643
 11
8.45279738560145
 21
670.5015589106858
 31
6.899061994309643
  0
LINE
  5
174
  8
DEFAULT
 10
8.45279738560145
 20
670.5015589106858
 30
6.899061994309643
 11
8.472676678298164
 21
670.5285546179891
 31
6.899061994309643
  0
LINE
  5
175
  8
DEFAULT
 10
8.472676678298164
 20
670.5285546179891
 30
6.899061994309643
 11
8.49201324835246
 21
670.5560930479348
 31
6.899061994309643
  0
LINE
  5
176
  8
DEFAULT
 10
8.49201324835246
 20
670.5560930479348
 30
6.899061994309643
 11
8.510809107421093
 21
670.5841721888662
 31
6.899061994309643
  0
LINE
  5
177
  8
DEFAULT
 10
8.510809107421093
 20
670.5841721888662
 30
6.899061994309643
 11
8.529066535381729
 21
670.6127897609056
 31
6.899061994309643
  0
LINE
  5
178
  8
DEFAULT
 10
8.529066535381729
 20
670.6127897609056
 30
6.899061994309643
 11
8.546788080332929
 21
670.6419432159544
 31
6.899061994309643
  0
LINE
  5
179
  8
DEFAULT
 10
8.546788080332929
 20
670.6419432159544
 30
6.899061994309643
 11
8.563976558594163
 21
670.6716297376931
 31
6.899061994309643
  0
LINE
  5
17A
  8
DEFAULT
 10
8.563976558594163
 20
670.6716297376931
 30
6.899061994309643
 11
8.580635054705796
 21
670.7018462415815
 31
6.899061994309643
  0
LINE
  5
17B
  8
DEFAULT
 10
8.580635054705796
 20
670.7018462415815
 30
6.899061994309643
 11
8.596766921429097
 21
670.7325893748582
 31
6.899061994309643
  0
LINE
  5
17C
  8
DEFAULT
 10
8.596766921429097
 20
670.7325893748582
 30
6.899061994309643
 11
8.612375779746236
 21
670.7638555165411
 31
6.899061994309643
  0
LINE
  5
17D
  8
DEFAULT
 10
8.612375779746236
 20
670.7638555165411
 30
6.899061994309643
 11
8.627465518860284
 21
670.795640777427
 31
6.899061994309643
  0
LINE
  5
17E
  8
DEFAULT
 10
8.627465518860284
 20
670.795640777427
 30
6.899061994309643
 11
8.642040296195212
 21
670.8279410000921
 31
6.899061994309643
  0
LINE
  5
17F
  8
DEFAULT
 10
8.642040296195212
 20
670.8279410000921
 30
6.899061994309643
 11
8.656104537395901
 21
670.8607517588914
 31
6.899061994309643
  0
LINE
  5
180
  8
DEFAULT
 10
8.656104537395901
 20
670.8607517588914
 30
6.899061994309643
 11
8.669662936328123
 21
670.8940683599592
 31
6.899061994309643
  0
LINE
  5
181
  8
DEFAULT
 10
8.669662936328123
 20
670.8940683599592
 30
6.899061994309643
 11
8.682720455078552
 21
670.9278858412088
 31
6.899061994309643
  0
LINE
  5
182
  8
DEFAULT
 10
8.682720455078552
 20
670.9278858412088
 30
6.899061994309643
 11
8.707354041485264
 21
670.997002254802
 31
6.899061994309643
  0
LINE
  5
183
  8
DEFAULT
 10
8.707354041485264
 20
670.997002254802
 30
6.899061994309643
 11
8.730050357727485
 21
671.0680559385598
 31
6.899061994309643
  0
LINE
  5
184
  8
DEFAULT
 10
8.730050357727485
 20
671.0680559385598
 30
6.899061994309643
 11
8.75085875645109
 21
671.1409975398362
 31
6.899061994309643
  0
LINE
  5
185
  8
DEFAULT
 10
8.75085875645109
 20
671.1409975398362
 30
6.899061994309643
 11
8.769832881836377
 21
671.215773414451
 31
6.899061994309643
  0
LINE
  5
186
  8
DEFAULT
 10
8.769832881836377
 20
671.215773414451
 30
6.899061994309643
 11
8.787030669598069
 21
671.2923256266893
 31
6.899061994309643
  0
LINE
  5
187
  8
DEFAULT
 10
8.787030669598069
 20
671.2923256266893
 30
6.899061994309643
 11
8.802514346985308
 21
671.370591949302
 31
6.899061994309643
  0
LINE
  5
188
  8
DEFAULT
 10
8.802514346985308
 20
671.370591949302
 30
6.899061994309643
 11
8.816350432781666
 21
671.4505058635057
 31
6.899061994309643
  0
LINE
  5
189
  8
DEFAULT
 10
8.816350432781666
 20
671.4505058635057
 30
6.899061994309643
 11
8.828609737305136
 21
671.5319965589821
 31
6.899061994309643
  0
LINE
  5
18A
  8
DEFAULT
 10
8.828609737305136
 20
671.5319965589821
 30
6.899061994309643
 11
8.839367362408137
 21
671.614988933879
 31
6.899061994309643
  0
LINE
  5
18B
  8
DEFAULT
 10
8.839367362408137
 20
671.614988933879
 30
6.899061994309643
 11
8.848702701477503
 21
671.6994035948097
 31
6.899061994309643
  0
LINE
  5
18C
  8
DEFAULT
 10
8.848702701477503
 20
671.6994035948097
 30
6.899061994309643
 11
8.863445552734829
 21
671.8721607435523
 31
6.899061994309643
  0
LINE
  5
18D
  8
DEFAULT
 10
8.863445552734829
 20
671.8721607435523
 30
6.899061994309643
 11
8.873559268860319
 21
672.0495470274268
 31
6.899061994309643
  0
LINE
  5
18E
  8
DEFAULT
 10
8.873559268860319
 20
672.0495470274268
 30
6.899061994309643
 11
8.883126529602507
 21
672.4149797666846
 31
6.899061994309643
  0
LINE
  5
18F
  8
DEFAULT
 10
8.883126529602507
 20
672.4149797666846
 30
6.899061994309643
 11
8.884545596985319
 21
672.7885606993018
 31
6.899061994309643
  0
LINE
  5
190
  8
DEFAULT
 10
8.884545596985319
 20
672.7885606993018
 30
6.899061994309643
 11
8.884545596985284
 21
684.9363202326734
 31
6.899061994309643
  0
LINE
  5
191
  8
DEFAULT
 10
8.884545596985284
 20
684.9363202326734
 30
6.899061994309643
 11
13.19813414828986
 21
684.9363202326734
 31
6.899061994309643
  0
LINE
  5
192
  8
DEFAULT
 10
13.19813414828986
 20
684.9363202326734
 30
6.899061994309643
 11
13.19813414828982
 21
702.1768970632205
 31
6.899061994309643
  0
LINE
  5
193
  8
DEFAULT
 10
13.19813414828982
 20
702.1768970632205
 30
6.899061994309643
 11
8.884545596985244
 21
702.1768970632205
 31
6.899061994309643
  0
LINE
  5
194
  8
DEFAULT
 10
8.884545596985244
 20
702.1768970632205
 30
6.899061994309643
 11
8.88454559698523
 21
714.1768970632205
 31
6.899061994309643
  0
LINE
  5
195
  8
DEFAULT
 10
8.88454559698523
 20
714.1768970632205
 30
6.899061994309643
 11
8.883126529602418
 21
714.5504779958378
 31
6.899061994309643
  0
LINE
  5
196
  8
DEFAULT
 10
8.883126529602418
 20
714.5504779958378
 30
6.899061994309643
 11
8.873559268860228
 21
714.9159107350956
 31
6.899061994309643
  0
LINE
  5
197
  8
DEFAULT
 10
8.873559268860228
 20
714.9159107350956
 30
6.899061994309643
 11
8.863445552734738
 21
715.0932970189701
 31
6.899061994309643
  0
LINE
  5
198
  8
DEFAULT
 10
8.863445552734738
 20
715.0932970189701
 30
6.899061994309643
 11
8.848702701477416
 21
715.2660541677127
 31
6.899061994309643
  0
LINE
  5
199
  8
DEFAULT
 10
8.848702701477416
 20
715.2660541677127
 30
6.899061994309643
 11
8.839367362408051
 21
715.3504688286434
 31
6.899061994309643
  0
LINE
  5
19A
  8
DEFAULT
 10
8.839367362408051
 20
715.3504688286434
 30
6.899061994309643
 11
8.828609737305053
 21
715.4334612035403
 31
6.899061994309643
  0
LINE
  5
19B
  8
DEFAULT
 10
8.828609737305053
 20
715.4334612035403
 30
6.899061994309643
 11
8.816350432781586
 21
715.5149518990168
 31
6.899061994309643
  0
LINE
  5
19C
  8
DEFAULT
 10
8.816350432781586
 20
715.5149518990168
 30
6.899061994309643
 11
8.802514346985232
 21
715.5948658132204
 31
6.899061994309643
  0
LINE
  5
19D
  8
DEFAULT
 10
8.802514346985232
 20
715.5948658132204
 30
6.899061994309643
 11
8.787030669597996
 21
715.6731321358332
 31
6.899061994309643
  0
LINE
  5
19E
  8
DEFAULT
 10
8.787030669597996
 20
715.6731321358332
 30
6.899061994309643
 11
8.76983288183631
 21
715.7496843480715
 31
6.899061994309643
  0
LINE
  5
19F
  8
DEFAULT
 10
8.76983288183631
 20
715.7496843480715
 30
6.899061994309643
 11
8.750858756451027
 21
715.8244602226862
 31
6.899061994309643
  0
LINE
  5
1A0
  8
DEFAULT
 10
8.750858756451027
 20
715.8244602226862
 30
6.899061994309643
 11
8.730050357727425
 21
715.8974018239626
 31
6.899061994309643
  0
LINE
  5
1A1
  8
DEFAULT
 10
8.730050357727425
 20
715.8974018239626
 30
6.899061994309643
 11
8.707354041485207
 21
715.9684555077204
 31
6.899061994309643
  0
LINE
  5
1A2
  8
DEFAULT
 10
8.707354041485207
 20
715.9684555077204
 30
6.899061994309643
 11
8.6827204550785
 21
716.0375719213137
 31
6.899061994309643
  0
LINE
  5
1A3
  8
DEFAULT
 10
8.6827204550785
 20
716.0375719213137
 30
6.899061994309643
 11
8.669662936328072
 21
716.0713894025632
 31
6.899061994309643
  0
LINE
  5
1A4
  8
DEFAULT
 10
8.669662936328072
 20
716.0713894025632
 30
6.899061994309643
 11
8.656104537395855
 21
716.104706003631
 31
6.899061994309643
  0
LINE
  5
1A5
  8
DEFAULT
 10
8.656104537395855
 20
716.104706003631
 30
6.899061994309643
 11
8.64204029619517
 21
716.1375167624303
 31
6.899061994309643
  0
LINE
  5
1A6
  8
DEFAULT
 10
8.64204029619517
 20
716.1375167624303
 30
6.899061994309643
 11
8.627465518860241
 21
716.1698169850955
 31
6.899061994309643
  0
LINE
  5
1A7
  8
DEFAULT
 10
8.627465518860241
 20
716.1698169850955
 30
6.899061994309643
 11
8.612375779746195
 21
716.2016022459816
 31
6.899061994309643
  0
LINE
  5
1A8
  8
DEFAULT
 10
8.612375779746195
 20
716.2016022459816
 30
6.899061994309643
 11
8.596766921429058
 21
716.2328683876644
 31
6.899061994309643
  0
LINE
  5
1A9
  8
DEFAULT
 10
8.596766921429058
 20
716.2328683876644
 30
6.899061994309643
 11
8.580635054705759
 21
716.2636115209411
 31
6.899061994309643
  0
LINE
  5
1AA
  8
DEFAULT
 10
8.580635054705759
 20
716.2636115209411
 30
6.899061994309643
 11
8.563976558594128
 21
716.2938280248295
 31
6.899061994309643
  0
LINE
  5
1AB
  8
DEFAULT
 10
8.563976558594128
 20
716.2938280248295
 30
6.899061994309643
 11
8.546788080332895
 21
716.3235145465683
 31
6.899061994309643
  0
LINE
  5
1AC
  8
DEFAULT
 10
8.546788080332895
 20
716.3235145465683
 30
6.899061994309643
 11
8.529066535381697
 21
716.3526680016171
 31
6.899061994309643
  0
LINE
  5
1AD
  8
DEFAULT
 10
8.529066535381697
 20
716.3526680016171
 30
6.899061994309643
 11
8.510809107421062
 21
716.3812855736564
 31
6.899061994309643
  0
LINE
  5
1AE
  8
DEFAULT
 10
8.510809107421062
 20
716.3812855736564
 30
6.899061994309643
 11
8.492013248352432
 21
716.4093647145878
 31
6.899061994309643
  0
LINE
  5
1AF
  8
DEFAULT
 10
8.492013248352432
 20
716.4093647145878
 30
6.899061994309643
 11
8.47267667829814
 21
716.4369031445335
 31
6.899061994309643
  0
LINE
  5
1B0
  8
DEFAULT
 10
8.47267667829814
 20
716.4369031445335
 30
6.899061994309643
 11
8.452797385601427
 21
716.4638988518368
 31
6.899061994309643
  0
LINE
  5
1B1
  8
DEFAULT
 10
8.452797385601427
 20
716.4638988518368
 30
6.899061994309643
 11
8.432373626826433
 21
716.4903500930618
 31
6.899061994309643
  0
LINE
  5
1B2
  8
DEFAULT
 10
8.432373626826433
 20
716.4903500930618
 30
6.899061994309643
 11
8.411403926758197
 21
716.5162553929936
 31
6.899061994309643
  0
LINE
  5
1B3
  8
DEFAULT
 10
8.411403926758197
 20
716.5162553929936
 30
6.899061994309643
 11
8.389887078402666
 21
716.541613544638
 31
6.899061994309643
  0
LINE
  5
1B4
  8
DEFAULT
 10
8.389887078402666
 20
716.541613544638
 30
6.899061994309643
 11
8.367822142986682
 21
716.5664236092218
 31
6.899061994309643
  0
LINE
  5
1B5
  8
DEFAULT
 10
8.367822142986682
 20
716.5664236092218
 30
6.899061994309643
 11
8.345208449957994
 21
716.5906849161933
 31
6.899061994309643
  0
LINE
  5
1B6
  8
DEFAULT
 10
8.345208449957994
 20
716.5906849161933
 30
6.899061994309643
 11
8.322045596985248
 21
716.6143970632205
 31
6.899061994309643
  0
LINE
  5
1B7
  8
DEFAULT
 10
8.322045596985248
 20
716.6143970632205
 30
6.899061994309643
 11
8.298333449957994
 21
716.6375599161934
 31
6.899061994309643
  0
LINE
  5
1B8
  8
DEFAULT
 10
8.298333449957994
 20
716.6375599161934
 30
6.899061994309643
 11
8.274072142986682
 21
716.660173609222
 31
6.899061994309643
  0
LINE
  5
1B9
  8
DEFAULT
 10
8.274072142986682
 20
716.660173609222
 30
6.899061994309643
 11
8.249262078402666
 21
716.682238544638
 31
6.899061994309643
  0
LINE
  5
1BA
  8
DEFAULT
 10
8.249262078402666
 20
716.682238544638
 30
6.899061994309643
 11
8.223903926758197
 21
716.7037553929935
 31
6.899061994309643
  0
LINE
  5
1BB
  8
DEFAULT
 10
8.223903926758197
 20
716.7037553929935
 30
6.899061994309643
 11
8.197998626826433
 21
716.7247250930616
 31
6.899061994309643
  0
LINE
  5
1BC
  8
DEFAULT
 10
8.197998626826433
 20
716.7247250930616
 30
6.899061994309643
 11
8.17154738560143
 21
716.7451488518366
 31
6.899061994309643
  0
LINE
  5
1BD
  8
DEFAULT
 10
8.17154738560143
 20
716.7451488518366
 30
6.899061994309643
 11
8.144551678298146
 21
716.7650281445333
 31
6.899061994309643
  0
LINE
  5
1BE
  8
DEFAULT
 10
8.144551678298146
 20
716.7650281445333
 30
6.899061994309643
 11
8.117013248352439
 21
716.7843647145876
 31
6.899061994309643
  0
LINE
  5
1BF
  8
DEFAULT
 10
8.117013248352439
 20
716.7843647145876
 30
6.899061994309643
 11
8.088934107421071
 21
716.8031605736563
 31
6.899061994309643
  0
LINE
  5
1C0
  8
DEFAULT
 10
8.088934107421071
 20
716.8031605736563
 30
6.899061994309643
 11
8.060316535381705
 21
716.821418001617
 31
6.899061994309643
  0
LINE
  5
1C1
  8
DEFAULT
 10
8.060316535381705
 20
716.821418001617
 30
6.899061994309643
 11
8.031163080332906
 21
716.8391395465683
 31
6.899061994309643
  0
LINE
  5
1C2
  8
DEFAULT
 10
8.031163080332906
 20
716.8391395465683
 30
6.899061994309643
 11
8.00147655859414
 21
716.8563280248295
 31
6.899061994309643
  0
LINE
  5
1C3
  8
DEFAULT
 10
8.00147655859414
 20
716.8563280248295
 30
6.899061994309643
 11
7.971260054705771
 21
716.8729865209411
 31
6.899061994309643
  0
LINE
  5
1C4
  8
DEFAULT
 10
7.971260054705771
 20
716.8729865209411
 30
6.899061994309643
 11
7.940516921429071
 21
716.8891183876644
 31
6.899061994309643
  0
LINE
  5
1C5
  8
DEFAULT
 10
7.940516921429071
 20
716.8891183876644
 30
6.899061994309643
 11
7.909250779746207
 21
716.9047272459816
 31
6.899061994309643
  0
LINE
  5
1C6
  8
DEFAULT
 10
7.909250779746207
 20
716.9047272459816
 30
6.899061994309643
 11
7.877465518860254
 21
716.9198169850956
 31
6.899061994309643
  0
LINE
  5
1C7
  8
DEFAULT
 10
7.877465518860254
 20
716.9198169850956
 30
6.899061994309643
 11
7.845165296195184
 21
716.9343917624306
 31
6.899061994309643
  0
LINE
  5
1C8
  8
DEFAULT
 10
7.845165296195184
 20
716.9343917624306
 30
6.899061994309643
 11
7.812354537395869
 21
716.9484560036312
 31
6.899061994309643
  0
LINE
  5
1C9
  8
DEFAULT
 10
7.812354537395869
 20
716.9484560036312
 30
6.899061994309643
 11
7.779037936328088
 21
716.9620144025635
 31
6.899061994309643
  0
LINE
  5
1CA
  8
DEFAULT
 10
7.779037936328088
 20
716.9620144025635
 30
6.899061994309643
 11
7.745220455078517
 21
716.9750719213139
 31
6.899061994309643
  0
LINE
  5
1CB
  8
DEFAULT
 10
7.745220455078517
 20
716.9750719213139
 30
6.899061994309643
 11
7.676104041485226
 21
716.9997055077206
 31
6.899061994309643
  0
LINE
  5
1CC
  8
DEFAULT
 10
7.676104041485226
 20
716.9997055077206
 30
6.899061994309643
 11
7.605050357727444
 21
717.0224018239628
 31
6.899061994309643
  0
LINE
  5
1CD
  8
DEFAULT
 10
7.605050357727444
 20
717.0224018239628
 30
6.899061994309643
 11
7.532108756451045
 21
717.0432102226864
 31
6.899061994309643
  0
LINE
  5
1CE
  8
DEFAULT
 10
7.532108756451045
 20
717.0432102226864
 30
6.899061994309643
 11
7.457332881836329
 21
717.0621843480716
 31
6.899061994309643
  0
LINE
  5
1CF
  8
DEFAULT
 10
7.457332881836329
 20
717.0621843480716
 30
6.899061994309643
 11
7.380780669598018
 21
717.0793821358333
 31
6.899061994309643
  0
LINE
  5
1D0
  8
DEFAULT
 10
7.380780669598018
 20
717.0793821358333
 30
6.899061994309643
 11
7.302514346985255
 21
717.0948658132205
 31
6.899061994309643
  0
LINE
  5
1D1
  8
DEFAULT
 10
7.302514346985255
 20
717.0948658132205
 30
6.899061994309643
 11
7.222600432781611
 21
717.108701899017
 31
6.899061994309643
  0
LINE
  5
1D2
  8
DEFAULT
 10
7.222600432781611
 20
717.108701899017
 30
6.899061994309643
 11
7.141109737305079
 21
717.1209612035404
 31
6.899061994309643
  0
LINE
  5
1D3
  8
DEFAULT
 10
7.141109737305079
 20
717.1209612035404
 30
6.899061994309643
 11
7.058117362408074
 21
717.1317188286432
 31
6.899061994309643
  0
LINE
  5
1D4
  8
DEFAULT
 10
7.058117362408074
 20
717.1317188286432
 30
6.899061994309643
 11
6.97370270147744
 21
717.1410541677127
 31
6.899061994309643
  0
LINE
  5
1D5
  8
DEFAULT
 10
6.97370270147744
 20
717.1410541677127
 30
6.899061994309643
 11
6.800945552734762
 21
717.1557970189701
 31
6.899061994309643
  0
LINE
  5
1D6
  8
DEFAULT
 10
6.800945552734762
 20
717.1557970189701
 30
6.899061994309643
 11
6.623559268860248
 21
717.1659107350955
 31
6.899061994309643
  0
LINE
  5
1D7
  8
DEFAULT
 10
6.623559268860248
 20
717.1659107350955
 30
6.899061994309643
 11
6.25812652960243
 21
717.1754779958376
 31
6.899061994309643
  0
LINE
  5
1D8
  8
DEFAULT
 10
6.25812652960243
 20
717.1754779958376
 30
6.899061994309643
 11
5.884545596985237
 21
717.1768970632205
 31
6.899061994309643
  0
LINE
  5
1D9
  8
DEFAULT
 10
5.884545596985237
 20
717.1768970632205
 30
6.899061994309643
 11
3.198134148289785
 21
717.1768970632205
 31
6.899061994309643
  0
LINE
  5
1DA
  8
DEFAULT
 10
3.198134148289785
 20
717.1768970632205
 30
6.899061994309643
 11
0.5117226995943338
 21
717.1768970632205
 31
6.899061994309643
  0
LINE
  5
1DB
  8
DEFAULT
 10
0.5117226995943338
 20
717.1768970632205
 30
6.899061994309643
 11
0.1381417669771711
 21
717.1754779958376
 31
6.899061994309643
  0
LINE
  5
1DC
  8
DEFAULT
 10
0.1381417669771711
 20
717.1754779958376
 30
6.899061994309643
 11
-0.2272909722806201
 21
717.1659107350954
 31
6.899061994309643
  0
LINE
  5
1DD
  8
DEFAULT
 10
-0.2272909722806201
 20
717.1659107350954
 30
6.899061994309643
 11
-0.4046772561551228
 21
717.1557970189699
 31
6.899061994309643
  0
LINE
  5
1DE
  8
DEFAULT
 10
-0.4046772561551228
 20
717.1557970189699
 30
6.899061994309643
 11
-0.5774344048977911
 21
717.1410541677126
 31
6.899061994309643
  0
LINE
  5
1DF
  8
DEFAULT
 10
-0.5774344048977911
 20
717.1410541677126
 30
6.899061994309643
 11
-0.6618490658284215
 21
717.1317188286432
 31
6.899061994309643
  0
LINE
  5
1E0
  8
DEFAULT
 10
-0.6618490658284215
 20
717.1317188286432
 30
6.899061994309643
 11
-0.7448414407254216
 21
717.1209612035402
 31
6.899061994309643
  0
LINE
  5
1E1
  8
DEFAULT
 10
-0.7448414407254216
 20
717.1209612035402
 30
6.899061994309643
 11
-0.8263321362019511
 21
717.1087018990168
 31
6.899061994309643
  0
LINE
  5
1E2
  8
DEFAULT
 10
-0.8263321362019511
 20
717.1087018990168
 30
6.899061994309643
 11
-0.9062460504055926
 21
717.0948658132204
 31
6.899061994309643
  0
LINE
  5
1E3
  8
DEFAULT
 10
-0.9062460504055926
 20
717.0948658132204
 30
6.899061994309643
 11
-0.9845123730183531
 21
717.0793821358332
 31
6.899061994309643
  0
LINE
  5
1E4
  8
DEFAULT
 10
-0.9845123730183531
 20
717.0793821358332
 30
6.899061994309643
 11
-1.061064585256664
 21
717.0621843480715
 31
6.899061994309643
  0
LINE
  5
1E5
  8
DEFAULT
 10
-1.061064585256664
 20
717.0621843480715
 30
6.899061994309643
 11
-1.135840459871378
 21
717.0432102226862
 31
6.899061994309643
  0
LINE
  5
1E6
  8
DEFAULT
 10
-1.135840459871378
 20
717.0432102226862
 30
6.899061994309643
 11
-1.208782061147775
 21
717.0224018239626
 31
6.899061994309643
  0
LINE
  5
1E7
  8
DEFAULT
 10
-1.208782061147775
 20
717.0224018239626
 30
6.899061994309643
 11
-1.279835744905556
 21
716.9997055077204
 31
6.899061994309643
  0
LINE
  5
1E8
  8
DEFAULT
 10
-1.279835744905556
 20
716.9997055077204
 30
6.899061994309643
 11
-1.348952158498848
 21
716.9750719213137
 31
6.899061994309643
  0
LINE
  5
1E9
  8
DEFAULT
 10
-1.348952158498848
 20
716.9750719213137
 30
6.899061994309643
 11
-1.382769639748419
 21
716.9620144025632
 31
6.899061994309643
  0
LINE
  5
1EA
  8
DEFAULT
 10
-1.382769639748419
 20
716.9620144025632
 30
6.899061994309643
 11
-1.4160862408162
 21
716.948456003631
 31
6.899061994309643
  0
LINE
  5
1EB
  8
DEFAULT
 10
-1.4160862408162
 20
716.948456003631
 30
6.899061994309643
 11
-1.448896999615515
 21
716.9343917624303
 31
6.899061994309643
  0
LINE
  5
1EC
  8
DEFAULT
 10
-1.448896999615515
 20
716.9343917624303
 30
6.899061994309643
 11
-1.481197222280587
 21
716.9198169850954
 31
6.899061994309643
  0
LINE
  5
1ED
  8
DEFAULT
 10
-1.481197222280587
 20
716.9198169850954
 30
6.899061994309643
 11
-1.512982483166541
 21
716.9047272459813
 31
6.899061994309643
  0
LINE
  5
1EE
  8
DEFAULT
 10
-1.512982483166541
 20
716.9047272459813
 30
6.899061994309643
 11
-1.544248624849405
 21
716.8891183876642
 31
6.899061994309643
  0
LINE
  5
1EF
  8
DEFAULT
 10
-1.544248624849405
 20
716.8891183876642
 30
6.899061994309643
 11
-1.574991758126106
 21
716.8729865209409
 31
6.899061994309643
  0
LINE
  5
1F0
  8
DEFAULT
 10
-1.574991758126106
 20
716.8729865209409
 30
6.899061994309643
 11
-1.605208262014475
 21
716.8563280248293
 31
6.899061994309643
  0
LINE
  5
1F1
  8
DEFAULT
 10
-1.605208262014475
 20
716.8563280248293
 30
6.899061994309643
 11
-1.634894783753243
 21
716.839139546568
 31
6.899061994309643
  0
LINE
  5
1F2
  8
DEFAULT
 10
-1.634894783753243
 20
716.839139546568
 30
6.899061994309643
 11
-1.664048238802043
 21
716.8214180016168
 31
6.899061994309643
  0
LINE
  5
1F3
  8
DEFAULT
 10
-1.664048238802043
 20
716.8214180016168
 30
6.899061994309643
 11
-1.69266581084141
 21
716.8031605736562
 31
6.899061994309643
  0
LINE
  5
1F4
  8
DEFAULT
 10
-1.69266581084141
 20
716.8031605736562
 30
6.899061994309643
 11
-1.720744951772779
 21
716.7843647145876
 31
6.899061994309643
  0
LINE
  5
1F5
  8
DEFAULT
 10
-1.720744951772779
 20
716.7843647145876
 30
6.899061994309643
 11
-1.748283381718487
 21
716.7650281445333
 31
6.899061994309643
  0
LINE
  5
1F6
  8
DEFAULT
 10
-1.748283381718487
 20
716.7650281445333
 30
6.899061994309643
 11
-1.775279089021773
 21
716.7451488518366
 31
6.899061994309643
  0
LINE
  5
1F7
  8
DEFAULT
 10
-1.775279089021773
 20
716.7451488518366
 30
6.899061994309643
 11
-1.801730330246778
 21
716.7247250930616
 31
6.899061994309643
  0
LINE
  5
1F8
  8
DEFAULT
 10
-1.801730330246778
 20
716.7247250930616
 30
6.899061994309643
 11
-1.827635630178544
 21
716.7037553929933
 31
6.899061994309643
  0
LINE
  5
1F9
  8
DEFAULT
 10
-1.827635630178544
 20
716.7037553929933
 30
6.899061994309643
 11
-1.852993781823013
 21
716.6822385446378
 31
6.899061994309643
  0
LINE
  5
1FA
  8
DEFAULT
 10
-1.852993781823013
 20
716.6822385446378
 30
6.899061994309643
 11
-1.877803846407031
 21
716.6601736092218
 31
6.899061994309643
  0
LINE
  5
1FB
  8
DEFAULT
 10
-1.877803846407031
 20
716.6601736092218
 30
6.899061994309643
 11
-1.902065153378343
 21
716.6375599161931
 31
6.899061994309643
  0
LINE
  5
1FC
  8
DEFAULT
 10
-1.902065153378343
 20
716.6375599161931
 30
6.899061994309643
 11
-1.925777300405598
 21
716.6143970632204
 31
6.899061994309643
  0
LINE
  5
1FD
  8
DEFAULT
 10
-1.925777300405598
 20
716.6143970632204
 30
6.899061994309643
 11
-1.948940153378345
 21
716.5906849161931
 31
6.899061994309643
  0
LINE
  5
1FE
  8
DEFAULT
 10
-1.948940153378345
 20
716.5906849161931
 30
6.899061994309643
 11
-1.971553846407035
 21
716.5664236092218
 31
6.899061994309643
  0
LINE
  5
1FF
  8
DEFAULT
 10
-1.971553846407035
 20
716.5664236092218
 30
6.899061994309643
 11
-1.993618781823019
 21
716.5416135446378
 31
6.899061994309643
  0
LINE
  5
200
  8
DEFAULT
 10
-1.993618781823019
 20
716.5416135446378
 30
6.899061994309643
 11
-2.015135630178552
 21
716.5162553929933
 31
6.899061994309643
  0
LINE
  5
201
  8
DEFAULT
 10
-2.015135630178552
 20
716.5162553929933
 30
6.899061994309643
 11
-2.036105330246788
 21
716.4903500930616
 31
6.899061994309643
  0
LINE
  5
202
  8
DEFAULT
 10
-2.036105330246788
 20
716.4903500930616
 30
6.899061994309643
 11
-2.056529089021786
 21
716.4638988518366
 31
6.899061994309643
  0
LINE
  5
203
  8
DEFAULT
 10
-2.056529089021786
 20
716.4638988518366
 30
6.899061994309643
 11
-2.076408381718502
 21
716.4369031445333
 31
6.899061994309643
  0
LINE
  5
204
  8
DEFAULT
 10
-2.076408381718502
 20
716.4369031445333
 30
6.899061994309643
 11
-2.095744951772796
 21
716.4093647145876
 31
6.899061994309643
  0
LINE
  5
205
  8
DEFAULT
 10
-2.095744951772796
 20
716.4093647145876
 30
6.899061994309643
 11
-2.114540810841429
 21
716.3812855736562
 31
6.899061994309643
  0
LINE
  5
206
  8
DEFAULT
 10
-2.114540810841429
 20
716.3812855736562
 30
6.899061994309643
 11
-2.132798238802065
 21
716.3526680016168
 31
6.899061994309643
  0
LINE
  5
207
  8
DEFAULT
 10
-2.132798238802065
 20
716.3526680016168
 30
6.899061994309643
 11
-2.150519783753266
 21
716.323514546568
 31
6.899061994309643
  0
LINE
  5
208
  8
DEFAULT
 10
-2.150519783753266
 20
716.323514546568
 30
6.899061994309643
 11
-2.1677082620145
 21
716.2938280248293
 31
6.899061994309643
  0
LINE
  5
209
  8
DEFAULT
 10
-2.1677082620145
 20
716.2938280248293
 30
6.899061994309643
 11
-2.184366758126132
 21
716.2636115209409
 31
6.899061994309643
  0
LINE
  5
20A
  8
DEFAULT
 10
-2.184366758126132
 20
716.2636115209409
 30
6.899061994309643
 11
-2.200498624849433
 21
716.2328683876642
 31
6.899061994309643
  0
LINE
  5
20B
  8
DEFAULT
 10
-2.200498624849433
 20
716.2328683876642
 30
6.899061994309643
 11
-2.216107483166571
 21
716.2016022459813
 31
6.899061994309643
  0
LINE
  5
20C
  8
DEFAULT
 10
-2.216107483166571
 20
716.2016022459813
 30
6.899061994309643
 11
-2.231197222280618
 21
716.1698169850954
 31
6.899061994309643
  0
LINE
  5
20D
  8
DEFAULT
 10
-2.231197222280618
 20
716.1698169850954
 30
6.899061994309643
 11
-2.245771999615548
 21
716.1375167624303
 31
6.899061994309643
  0
LINE
  5
20E
  8
DEFAULT
 10
-2.245771999615548
 20
716.1375167624303
 30
6.899061994309643
 11
-2.259836240816234
 21
716.104706003631
 31
6.899061994309643
  0
LINE
  5
20F
  8
DEFAULT
 10
-2.259836240816234
 20
716.104706003631
 30
6.899061994309643
 11
-2.273394639748455
 21
716.0713894025632
 31
6.899061994309643
  0
LINE
  5
210
  8
DEFAULT
 10
-2.273394639748455
 20
716.0713894025632
 30
6.899061994309643
 11
-2.286452158498885
 21
716.0375719213137
 31
6.899061994309643
  0
LINE
  5
211
  8
DEFAULT
 10
-2.286452158498885
 20
716.0375719213137
 30
6.899061994309643
 11
-2.311085744905595
 21
715.9684555077204
 31
6.899061994309643
  0
LINE
  5
212
  8
DEFAULT
 10
-2.311085744905595
 20
715.9684555077204
 30
6.899061994309643
 11
-2.333782061147815
 21
715.8974018239626
 31
6.899061994309643
  0
LINE
  5
213
  8
DEFAULT
 10
-2.333782061147815
 20
715.8974018239626
 30
6.899061994309643
 11
-2.35459045987142
 21
715.8244602226862
 31
6.899061994309643
  0
LINE
  5
214
  8
DEFAULT
 10
-2.35459045987142
 20
715.8244602226862
 30
6.899061994309643
 11
-2.373564585256706
 21
715.7496843480715
 31
6.899061994309643
  0
LINE
  5
215
  8
DEFAULT
 10
-2.373564585256706
 20
715.7496843480715
 30
6.899061994309643
 11
-2.390762373018396
 21
715.6731321358332
 31
6.899061994309643
  0
LINE
  5
216
  8
DEFAULT
 10
-2.390762373018396
 20
715.6731321358332
 30
6.899061994309643
 11
-2.406246050405636
 21
715.5948658132204
 31
6.899061994309643
  0
LINE
  5
217
  8
DEFAULT
 10
-2.406246050405636
 20
715.5948658132204
 30
6.899061994309643
 11
-2.420082136201993
 21
715.5149518990168
 31
6.899061994309643
  0
LINE
  5
218
  8
DEFAULT
 10
-2.420082136201993
 20
715.5149518990168
 30
6.899061994309643
 11
-2.432341440725463
 21
715.4334612035403
 31
6.899061994309643
  0
LINE
  5
219
  8
DEFAULT
 10
-2.432341440725463
 20
715.4334612035403
 30
6.899061994309643
 11
-2.443099065828461
 21
715.3504688286434
 31
6.899061994309643
  0
LINE
  5
21A
  8
DEFAULT
 10
-2.443099065828461
 20
715.3504688286434
 30
6.899061994309643
 11
-2.452434404897829
 21
715.2660541677127
 31
6.899061994309643
  0
LINE
  5
21B
  8
DEFAULT
 10
-2.452434404897829
 20
715.2660541677127
 30
6.899061994309643
 11
-2.467177256155155
 21
715.0932970189701
 31
6.899061994309643
  0
LINE
  5
21C
  8
DEFAULT
 10
-2.467177256155155
 20
715.0932970189701
 30
6.899061994309643
 11
-2.477290972280645
 21
714.9159107350956
 31
6.899061994309643
  0
LINE
  5
21D
  8
DEFAULT
 10
-2.477290972280645
 20
714.9159107350956
 30
6.899061994309643
 11
-2.486858233022834
 21
714.5504779958378
 31
6.899061994309643
  0
LINE
  5
21E
  8
DEFAULT
 10
-2.486858233022834
 20
714.5504779958378
 30
6.899061994309643
 11
-2.488277300405646
 21
714.1768970632205
 31
6.899061994309643
  0
LINE
  5
21F
  8
DEFAULT
 10
-2.488277300405646
 20
714.1768970632205
 30
6.899061994309643
 11
-2.488277300405605
 21
702.0710927756874
 31
6.899061994309643
  0
CIRCLE
  5
220
  8
DEFAULT
 10
3.162364824612894
 20
693.5481568819372
 30
6.899061994309643
 40
6.855780893904982
  0
ARC
  5
221
  8
DEFAULT
 10
3.162364778224855
 20
712.7885606992422
 30
6.899061994309643
 40
1.500000000000172
 50
180.0000000000087
 51
271.3664188154381
  0
ARC
  5
222
  8
DEFAULT
 10
3.162364778224724
 20
712.788560699242
 30
6.899061994309643
 40
1.499999999999929
 50
271.3664188154432
 51
88.63358118455714
  0
ARC
  5
223
  8
DEFAULT
 10
3.162364778224628
 20
712.7885606992421
 30
6.899061994309643
 40
1.499999999999931
 50
88.63358118455336
 51
180.0000000000043
  0
ARC
  5
224
  8
DEFAULT
 10
-3.162364778224799
 20
674.3246565966517
 30
-6.899061994309643
 40
1.500000000000115
 50
0.000000000008685
 51
91.36641881544014
210
0.0
220
0.0
230
-1.0
  0
ARC
  5
225
  8
DEFAULT
 10
-3.162364778224765
 20
674.324656596652
 30
-6.899061994309643
 40
1.499999999999928
 50
91.36641881544166
 51
268.6335811845587
210
0.0
220
0.0
230
-1.0
  0
ARC
  5
226
  8
DEFAULT
 10
-3.162364778224628
 20
674.3246565966518
 30
-6.899061994309643
 40
1.499999999999931
 50
268.6335811845533
 51
0.0000000000043425
210
0.0
220
0.0
230
-1.0
  0
ENDSEC
  0
EOF
