  0
SECTION
  2
HEADER
  9
$ACADVER
  1
AC1009
  9
$DWGCODEPAGE
  3
ansi_1252
  9
$INSBASE
 10
0.0
 20
0.0
 30
0.0
  9
$EXTMIN
 10
-62.34541294069603
 20
267.6287428726852
 30
-0.5000000000000001
  9
$EXTMAX
 10
74.65914890260963
 20
349.6287428726852
 30
-0.5
  9
$LIMMIN
 10
0.0
 20
0.0
  9
$LIMMAX
 10
12.0
 20
9.0
  9
$ORTHOMODE
 70
     0
  9
$REGENMODE
 70
     1
  9
$FILLMODE
 70
     1
  9
$QTEXTMODE
 70
     0
  9
$MIRRTEXT
 70
     1
  9
$DRAGMODE
 70
     2
  9
$LTSCALE
 40
1.0
  9
$OSMODE
 70
    37
  9
$ATTMODE
 70
     1
  9
$TEXTSIZE
 40
0.2
  9
$TRACEWID
 40
0.05
  9
$TEXTSTYLE
  7
STANDARD
  9
$CLAYER
  8
ASSEMBLY_PLATFORM
  9
$CELTYPE
  6
BYLAYER
  9
$CECOLOR
 62
   256
  9
$DIMSCALE
 40
1.0
  9
$DIMASZ
 40
0.18
  9
$DIMEXO
 40
0.0625
  9
$DIMDLI
 40
0.38
  9
$DIMRND
 40
0.0
  9
$DIMDLE
 40
0.0
  9
$DIMEXE
 40
0.18
  9
$DIMTP
 40
0.0
  9
$DIMTM
 40
0.0
  9
$DIMTXT
 40
0.18
  9
$DIMCEN
 40
0.09
  9
$DIMTSZ
 40
0.0
  9
$DIMTOL
 70
     0
  9
$DIMLIM
 70
     0
  9
$DIMTIH
 70
     1
  9
$DIMTOH
 70
     1
  9
$DIMSE1
 70
     0
  9
$DIMSE2
 70
     0
  9
$DIMTAD
 70
     0
  9
$DIMZIN
 70
     0
  9
$DIMBLK
  1

  9
$DIMASO
 70
     1
  9
$DIMSHO
 70
     1
  9
$DIMPOST
  1

  9
$DIMAPOST
  1

  9
$DIMALT
 70
     0
  9
$DIMALTD
 70
     2
  9
$DIMALTF
 40
25.4
  9
$DIMLFAC
 40
1.0
  9
$DIMTOFL
 70
     0
  9
$DIMTVP
 40
0.0
  9
$DIMTIX
 70
     0
  9
$DIMSOXD
 70
     0
  9
$DIMSAH
 70
     0
  9
$DIMBLK1
  1

  9
$DIMBLK2
  1

  9
$DIMSTYLE
  2
STANDARD_ACAD
  9
$DIMCLRD
 70
     0
  9
$DIMCLRE
 70
     0
  9
$DIMCLRT
 70
     0
  9
$DIMTFAC
 40
1.0
  9
$DIMGAP
 40
0.09
  9
$LUNITS
 70
     2
  9
$LUPREC
 70
     3
  9
$SKETCHINC
 40
0.1
  9
$FILLETRAD
 40
0.0
  9
$AUNITS
 70
     0
  9
$AUPREC
 70
     0
  9
$MENU
  1
.
  9
$ELEVATION
 40
0.0
  9
$PELEVATION
 40
0.0
  9
$THICKNESS
 40
0.0
  9
$LIMCHECK
 70
     0
  9
$CHAMFERA
 40
0.0
  9
$CHAMFERB
 40
0.0
  9
$SKPOLY
 70
     0
  9
$TDCREATE
 40
2460256.757548206
  9
$TDUPDATE
 40
2460256.75755647
  9
$TDINDWG
 40
0.0000000116
  9
$TDUSRTIMER
 40
0.0000000116
  9
$USRTIMER
 70
     1
  9
$ANGBASE
 50
0.0
  9
$ANGDIR
 70
     0
  9
$PDMODE
 70
     0
  9
$PDSIZE
 40
0.0
  9
$PLINEWID
 40
0.0
  9
$COORDS
 70
     1
  9
$SPLFRAME
 70
     0
  9
$SPLINETYPE
 70
     6
  9
$SPLINESEGS
 70
     8
  9
$ATTDIA
 70
     0
  9
$ATTREQ
 70
     1
  9
$HANDLING
 70
     1
  9
$HANDSEED
  5
CB
  9
$SURFTAB1
 70
     6
  9
$SURFTAB2
 70
     6
  9
$SURFTYPE
 70
     6
  9
$SURFU
 70
     6
  9
$SURFV
 70
     6
  9
$UCSNAME
  2

  9
$UCSORG
 10
0.0
 20
0.0
 30
0.0
  9
$UCSXDIR
 10
1.0
 20
0.0
 30
0.0
  9
$UCSYDIR
 10
0.0
 20
1.0
 30
0.0
  9
$PUCSNAME
  2

  9
$PUCSORG
 10
0.0
 20
0.0
 30
0.0
  9
$PUCSXDIR
 10
1.0
 20
0.0
 30
0.0
  9
$PUCSYDIR
 10
0.0
 20
1.0
 30
0.0
  9
$USERI1
 70
     0
  9
$USERI2
 70
     0
  9
$USERI3
 70
     0
  9
$USERI4
 70
     0
  9
$USERI5
 70
     0
  9
$USERR1
 40
0.0
  9
$USERR2
 40
0.0
  9
$USERR3
 40
0.0
  9
$USERR4
 40
0.0
  9
$USERR5
 40
0.0
  9
$WORLDVIEW
 70
     1
  9
$SHADEDGE
 70
     3
  9
$SHADEDIF
 70
    70
  9
$TILEMODE
 70
     1
  9
$MAXACTVP
 70
    64
  9
$PLIMCHECK
 70
     0
  9
$PEXTMIN
 10
1.000000000000000E+20
 20
1.000000000000000E+20
 30
1.000000000000000E+20
  9
$PEXTMAX
 10
-1.000000000000000E+20
 20
-1.000000000000000E+20
 30
-1.000000000000000E+20
  9
$PLIMMIN
 10
0.0
 20
0.0
  9
$PLIMMAX
 10
12.0
 20
9.0
  9
$UNITMODE
 70
     0
  9
$VISRETAIN
 70
     1
  9
$PLINEGEN
 70
     0
  9
$PSLTSCALE
 70
     1
  0
ENDSEC
  0
SECTION
  2
TABLES
  0
TABLE
  2
VPORT
 70
     1
  0
VPORT
  2
*ACTIVE
 70
     0
 10
0.0
 20
0.0
 11
1.0
 21
1.0
 12
10.42990654205607
 22
4.5
 13
0.0
 23
0.0
 14
0.5
 24
0.5
 15
0.5
 25
0.5
 16
0.0
 26
0.0
 36
1.0
 17
0.0
 27
0.0
 37
0.0
 40
9.0
 41
1.972972972850329
 42
50.0
 43
0.0
 44
0.0
 50
0.0
 51
0.0
 71
     0
 72
   100
 73
     1
 74
     3
 75
     0
 76
     0
 77
     0
 78
     0
  0
ENDTAB
  0
TABLE
  2
LTYPE
 70
     1
  0
LTYPE
  2
CONTINUOUS
 70
     0
  3
Solid line
 72
    65
 73
     0
 40
0.0
  0
ENDTAB
  0
TABLE
  2
LAYER
 70
     2
  0
LAYER
  2
0
 70
     0
 62
     7
  6
CONTINUOUS
  0
LAYER
  2
ASSEMBLY_PLATFORM
 70
     0
 62
     7
  6
CONTINUOUS
  0
ENDTAB
  0
TABLE
  2
STYLE
 70
     1
  0
STYLE
  2
STANDARD
 70
     0
 40
0.0
 41
1.0
 50
0.0
 71
     0
 42
0.2
  3
txt
  4

  0
ENDTAB
  0
TABLE
  2
VIEW
 70
     0
  0
ENDTAB
  0
TABLE
  2
UCS
 70
     0
  0
ENDTAB
  0
TABLE
  2
APPID
 70
     2
  0
APPID
  2
ACAD
 70
     0
  0
APPID
  2
RHINO
 70
     0
  0
ENDTAB
  0
TABLE
  2
DIMSTYLE
 70
     1
  0
DIMSTYLE
  2
STANDARD_ACAD
 70
     0
  3

  4

  5

  6

  7

 40
1.0
 41
0.18
 42
0.0625
 43
0.38
 44
0.18
 45
0.0
 46
0.0
 47
0.0
 48
0.0
140
0.18
141
0.09
142
0.0
143
25.4
144
1.0
145
0.0
146
1.0
147
0.09
 71
     0
 72
     0
 73
     1
 74
     1
 75
     0
 76
     0
 77
     0
 78
     0
170
     0
171
     2
172
     0
173
     0
174
     0
175
     0
176
     0
177
     0
178
     0
  0
ENDTAB
  0
ENDSEC
  0
SECTION
  2
BLOCKS
  0
BLOCK
  8
0
  2
$MODEL_SPACE
 70
     0
 10
0.0
 20
0.0
 30
0.0
  3
$MODEL_SPACE
  1

  0
ENDBLK
  5
21
  8
0
  0
BLOCK
 67
     1
  8
0
  2
$PAPER_SPACE
 70
     0
 10
0.0
 20
0.0
 30
0.0
  3
$PAPER_SPACE
  1

  0
ENDBLK
  5
1D
 67
     1
  8
0
  0
ENDSEC
  0
SECTION
  2
ENTITIES
  0
CIRCLE
  5
60
  8
ASSEMBLY_PLATFORM
 10
56.34313201904313
 20
333.8787438263594
 30
0.5
 40
1.49999999999995
210
0.0
220
0.0
230
-1.0
  0
CIRCLE
  5
61
  8
ASSEMBLY_PLATFORM
 10
46.34313201904313
 20
340.8787438263594
 30
0.5
 40
1.49999999999995
210
0.0
220
0.0
230
-1.0
  0
CIRCLE
  5
62
  8
ASSEMBLY_PLATFORM
 10
56.34313201904315
 20
340.8787438263595
 30
0.5
 40
1.499999999999936
210
0.0
220
0.0
230
-1.0
  0
CIRCLE
  5
63
  8
ASSEMBLY_PLATFORM
 10
46.34313201904309
 20
333.8787438263594
 30
0.5
 40
1.500000000000007
210
0.0
220
0.0
230
-1.0
  0
CIRCLE
  5
64
  8
ASSEMBLY_PLATFORM
 10
-45.65686798095705
 20
320.8787438263594
 30
0.5
 40
1.500000000000014
210
0.0
220
0.0
230
-1.0
  0
CIRCLE
  5
65
  8
ASSEMBLY_PLATFORM
 10
-45.656867980957
 20
313.8787438263594
 30
0.5
 40
1.499999999999972
210
0.0
220
0.0
230
-1.0
  0
CIRCLE
  5
66
  8
ASSEMBLY_PLATFORM
 10
-45.656867980957
 20
303.378741919011
 30
0.5
 40
1.499999999999972
210
0.0
220
0.0
230
-1.0
  0
CIRCLE
  5
67
  8
ASSEMBLY_PLATFORM
 10
-45.65686798095702
 20
296.378741919011
 30
0.5
 40
1.499999999999993
210
0.0
220
0.0
230
-1.0
  0
CIRCLE
  5
68
  8
ASSEMBLY_PLATFORM
 10
-35.65686798095697
 20
296.378741919011
 30
0.5
 40
1.499999999999943
210
0.0
220
0.0
230
-1.0
  0
CIRCLE
  5
69
  8
ASSEMBLY_PLATFORM
 10
-35.65686798095703
 20
303.378741919011
 30
0.5
 40
1.5
210
0.0
220
0.0
230
-1.0
  0
CIRCLE
  5
6A
  8
ASSEMBLY_PLATFORM
 10
-35.65686798095703
 20
320.8787438263594
 30
0.5
 40
1.5
210
0.0
220
0.0
230
-1.0
  0
CIRCLE
  5
6B
  8
ASSEMBLY_PLATFORM
 10
-35.65686798095709
 20
313.8787438263593
 30
0.5
 40
1.500000000000057
210
0.0
220
0.0
230
-1.0
  0
CIRCLE
  5
6C
  8
ASSEMBLY_PLATFORM
 10
46.34313201904313
 20
276.378741919011
 30
0.5
 40
1.49999999999995
210
0.0
220
0.0
230
-1.0
  0
CIRCLE
  5
6D
  8
ASSEMBLY_PLATFORM
 10
46.34313201904315
 20
283.378741919011
 30
0.5
 40
1.499999999999929
210
0.0
220
0.0
230
-1.0
  0
CIRCLE
  5
6E
  8
ASSEMBLY_PLATFORM
 10
56.34313201904309
 20
276.378741919011
 30
0.5
 40
1.499999999999993
210
0.0
220
0.0
230
-1.0
  0
CIRCLE
  5
6F
  8
ASSEMBLY_PLATFORM
 10
56.34313201904315
 20
283.378741919011
 30
0.5
 40
1.499999999999936
210
0.0
220
0.0
230
-1.0
  0
LINE
  5
70
  8
ASSEMBLY_PLATFORM
 10
74.65686798095687
 20
314.9365550778674
 30
-0.5
 11
74.6568679809568
 21
345.7849928726852
 31
-0.5
  0
ARC
  5
71
  8
ASSEMBLY_PLATFORM
 10
70.94294316356236
 20
345.9151756122073
 30
-0.5
 40
3.716205739047266
 50
357.9924556182045
 51
87.84081308454043
  0
LINE
  5
72
  8
ASSEMBLY_PLATFORM
 10
71.08295493747858
 20
349.6287428726852
 30
-0.5
 11
67.02507450269596
 21
347.8728834976852
 31
-0.5
  0
LINE
  5
73
  8
ASSEMBLY_PLATFORM
 10
67.02507450269596
 20
347.8728834976852
 30
-0.5
 11
62.96719406791335
 21
346.2303053726852
 31
-0.5
  0
LINE
  5
74
  8
ASSEMBLY_PLATFORM
 10
62.96719406791335
 20
346.2303053726852
 30
-0.5
 11
58.90931363313074
 21
344.7010084976852
 31
-0.5
  0
LINE
  5
75
  8
ASSEMBLY_PLATFORM
 10
58.90931363313074
 20
344.7010084976852
 30
-0.5
 11
54.85143319834813
 21
343.2849928726852
 31
-0.5
  0
LINE
  5
76
  8
ASSEMBLY_PLATFORM
 10
54.85143319834813
 20
343.2849928726852
 30
-0.5
 11
50.79355276356552
 21
341.9822584976852
 31
-0.5
  0
LINE
  5
77
  8
ASSEMBLY_PLATFORM
 10
50.79355276356552
 20
341.9822584976852
 30
-0.5
 11
46.73567232878291
 21
340.7928053726852
 31
-0.5
  0
LINE
  5
78
  8
ASSEMBLY_PLATFORM
 10
46.73567232878291
 20
340.7928053726852
 30
-0.5
 11
42.6777918940003
 21
339.7166334976852
 31
-0.5
  0
LINE
  5
79
  8
ASSEMBLY_PLATFORM
 10
42.6777918940003
 20
339.7166334976852
 30
-0.5
 11
38.61991145921769
 21
338.7537428726852
 31
-0.5
  0
LINE
  5
7A
  8
ASSEMBLY_PLATFORM
 10
38.61991145921769
 20
338.7537428726852
 30
-0.5
 11
34.56203102443507
 21
337.9041334976852
 31
-0.5
  0
LINE
  5
7B
  8
ASSEMBLY_PLATFORM
 10
34.56203102443507
 20
337.9041334976852
 30
-0.5
 11
30.50415058965246
 21
337.1678053726852
 31
-0.5
  0
LINE
  5
7C
  8
ASSEMBLY_PLATFORM
 10
30.50415058965246
 20
337.1678053726852
 30
-0.5
 11
26.44627015486985
 21
336.5447584976852
 31
-0.5
  0
LINE
  5
7D
  8
ASSEMBLY_PLATFORM
 10
26.44627015486985
 20
336.5447584976852
 30
-0.5
 11
22.38838972008724
 21
336.0349928726852
 31
-0.5
  0
LINE
  5
7E
  8
ASSEMBLY_PLATFORM
 10
22.38838972008724
 20
336.0349928726852
 30
-0.5
 11
18.33050928530463
 21
335.6385084976852
 31
-0.5
  0
LINE
  5
7F
  8
ASSEMBLY_PLATFORM
 10
18.33050928530463
 20
335.6385084976852
 30
-0.5
 11
14.27262885052202
 21
335.3553053726852
 31
-0.5
  0
LINE
  5
80
  8
ASSEMBLY_PLATFORM
 10
14.27262885052202
 20
335.3553053726852
 30
-0.5
 11
10.21474841573941
 21
335.1853834976852
 31
-0.5
  0
LINE
  5
81
  8
ASSEMBLY_PLATFORM
 10
10.21474841573941
 20
335.1853834976852
 30
-0.5
 11
6.156867980956797
 21
335.1287428726852
 31
-0.5
  0
LINE
  5
82
  8
ASSEMBLY_PLATFORM
 10
6.156867980956797
 20
335.1287428726852
 30
-0.5
 11
2.098987546174186
 21
335.1853834976852
 31
-0.5
  0
LINE
  5
83
  8
ASSEMBLY_PLATFORM
 10
2.098987546174186
 20
335.1853834976852
 30
-0.5
 11
-1.958892888608425
 21
335.3553053726852
 31
-0.5
  0
LINE
  5
84
  8
ASSEMBLY_PLATFORM
 10
-1.958892888608425
 20
335.3553053726852
 30
-0.5
 11
-6.016773323391035
 21
335.6385084976852
 31
-0.5
  0
LINE
  5
85
  8
ASSEMBLY_PLATFORM
 10
-6.016773323391035
 20
335.6385084976852
 30
-0.5
 11
-10.07465375817365
 21
336.0349928726852
 31
-0.5
  0
LINE
  5
86
  8
ASSEMBLY_PLATFORM
 10
-10.07465375817365
 20
336.0349928726852
 30
-0.5
 11
-14.13253419295626
 21
336.5447584976852
 31
-0.5
  0
LINE
  5
87
  8
ASSEMBLY_PLATFORM
 10
-14.13253419295626
 20
336.5447584976852
 30
-0.5
 11
-18.19041462773887
 21
337.1678053726852
 31
-0.5
  0
LINE
  5
88
  8
ASSEMBLY_PLATFORM
 10
-18.19041462773887
 20
337.1678053726852
 30
-0.5
 11
-22.24829506252148
 21
337.9041334976852
 31
-0.5
  0
LINE
  5
89
  8
ASSEMBLY_PLATFORM
 10
-22.24829506252148
 20
337.9041334976852
 30
-0.5
 11
-26.30617549730409
 21
338.7537428726852
 31
-0.5
  0
LINE
  5
8A
  8
ASSEMBLY_PLATFORM
 10
-26.30617549730409
 20
338.7537428726852
 30
-0.5
 11
-30.36405593208669
 21
339.7166334976852
 31
-0.5
  0
LINE
  5
8B
  8
ASSEMBLY_PLATFORM
 10
-30.36405593208669
 20
339.7166334976852
 30
-0.5
 11
-34.4219363668693
 21
340.7928053726852
 31
-0.5
  0
LINE
  5
8C
  8
ASSEMBLY_PLATFORM
 10
-34.4219363668693
 20
340.7928053726852
 30
-0.5
 11
-38.47981680165191
 21
341.9822584976852
 31
-0.5
  0
LINE
  5
8D
  8
ASSEMBLY_PLATFORM
 10
-38.47981680165191
 20
341.9822584976852
 30
-0.5
 11
-42.53769723643452
 21
343.2849928726852
 31
-0.5
  0
LINE
  5
8E
  8
ASSEMBLY_PLATFORM
 10
-42.53769723643452
 20
343.2849928726852
 30
-0.5
 11
-46.59557767121714
 21
344.7010084976852
 31
-0.5
  0
LINE
  5
8F
  8
ASSEMBLY_PLATFORM
 10
-46.59557767121714
 20
344.7010084976852
 30
-0.5
 11
-50.65345810599975
 21
346.2303053726852
 31
-0.5
  0
LINE
  5
90
  8
ASSEMBLY_PLATFORM
 10
-50.65345810599975
 20
346.2303053726852
 30
-0.5
 11
-54.71133854078236
 21
347.8728834976852
 31
-0.5
  0
LINE
  5
91
  8
ASSEMBLY_PLATFORM
 10
-54.71133854078236
 20
347.8728834976852
 30
-0.5
 11
-58.76921897556497
 21
349.6287428726852
 31
-0.5
  0
ARC
  5
92
  8
ASSEMBLY_PLATFORM
 10
-58.62920720164902
 20
345.9151756122076
 30
-0.5
 40
3.716205739046978
 50
92.15918691545559
 51
182.0075443818
  0
LINE
  5
93
  8
ASSEMBLY_PLATFORM
 10
-62.3431320190432
 20
345.7849928726852
 30
-0.5
 11
-62.3431320190432
 21
271.4724928726852
 31
-0.5
  0
ARC
  5
94
  8
ASSEMBLY_PLATFORM
 10
-58.62920720164901
 20
271.3423101331628
 30
-0.5
 40
3.716205739047019
 50
177.9924556182009
 51
267.8408130845442
  0
LINE
  5
95
  8
ASSEMBLY_PLATFORM
 10
-58.76921897556497
 20
267.6287428726852
 30
-0.5
 11
-54.71133854078236
 21
269.3846022476852
 31
-0.5
  0
LINE
  5
96
  8
ASSEMBLY_PLATFORM
 10
-54.71133854078236
 20
269.3846022476852
 30
-0.5
 11
-50.65345810599975
 21
271.0271803726852
 31
-0.5
  0
LINE
  5
97
  8
ASSEMBLY_PLATFORM
 10
-50.65345810599975
 20
271.0271803726852
 30
-0.5
 11
-46.59557767121714
 21
272.5564772476852
 31
-0.5
  0
LINE
  5
98
  8
ASSEMBLY_PLATFORM
 10
-46.59557767121714
 20
272.5564772476852
 30
-0.5
 11
-42.53769723643452
 21
273.9724928726852
 31
-0.5
  0
LINE
  5
99
  8
ASSEMBLY_PLATFORM
 10
-42.53769723643452
 20
273.9724928726852
 30
-0.5
 11
-38.47981680165191
 21
275.2752272476852
 31
-0.5
  0
LINE
  5
9A
  8
ASSEMBLY_PLATFORM
 10
-38.47981680165191
 20
275.2752272476852
 30
-0.5
 11
-34.4219363668693
 21
276.4646803726852
 31
-0.5
  0
LINE
  5
9B
  8
ASSEMBLY_PLATFORM
 10
-34.4219363668693
 20
276.4646803726852
 30
-0.5
 11
-30.36405593208669
 21
277.5408522476852
 31
-0.5
  0
LINE
  5
9C
  8
ASSEMBLY_PLATFORM
 10
-30.36405593208669
 20
277.5408522476852
 30
-0.5
 11
-26.30617549730408
 21
278.5037428726852
 31
-0.5
  0
LINE
  5
9D
  8
ASSEMBLY_PLATFORM
 10
-26.30617549730408
 20
278.5037428726852
 30
-0.5
 11
-22.24829506252147
 21
279.3533522476852
 31
-0.5
  0
LINE
  5
9E
  8
ASSEMBLY_PLATFORM
 10
-22.24829506252147
 20
279.3533522476852
 30
-0.5
 11
-18.19041462773886
 21
280.0896803726852
 31
-0.5
  0
LINE
  5
9F
  8
ASSEMBLY_PLATFORM
 10
-18.19041462773886
 20
280.0896803726852
 30
-0.5
 11
-14.13253419295625
 21
280.7127272476852
 31
-0.5
  0
LINE
  5
A0
  8
ASSEMBLY_PLATFORM
 10
-14.13253419295625
 20
280.7127272476852
 30
-0.5
 11
-10.07465375817364
 21
281.2224928726852
 31
-0.5
  0
LINE
  5
A1
  8
ASSEMBLY_PLATFORM
 10
-10.07465375817364
 20
281.2224928726852
 30
-0.5
 11
-6.016773323391028
 21
281.6189772476852
 31
-0.5
  0
LINE
  5
A2
  8
ASSEMBLY_PLATFORM
 10
-6.016773323391028
 20
281.6189772476852
 30
-0.5
 11
-1.958892888608418
 21
281.9021803726852
 31
-0.5
  0
LINE
  5
A3
  8
ASSEMBLY_PLATFORM
 10
-1.958892888608418
 20
281.9021803726852
 30
-0.5
 11
2.098987546174193
 21
282.0721022476852
 31
-0.5
  0
LINE
  5
A4
  8
ASSEMBLY_PLATFORM
 10
2.098987546174193
 20
282.0721022476852
 30
-0.5
 11
6.156867980956804
 21
282.1287428726852
 31
-0.5
  0
LINE
  5
A5
  8
ASSEMBLY_PLATFORM
 10
6.156867980956804
 20
282.1287428726852
 30
-0.5
 11
10.21474841573941
 21
282.0721022476852
 31
-0.5
  0
LINE
  5
A6
  8
ASSEMBLY_PLATFORM
 10
10.21474841573941
 20
282.0721022476852
 30
-0.5
 11
14.27262885052203
 21
281.9021803726852
 31
-0.5
  0
LINE
  5
A7
  8
ASSEMBLY_PLATFORM
 10
14.27262885052203
 20
281.9021803726852
 30
-0.5
 11
18.33050928530464
 21
281.6189772476852
 31
-0.5
  0
LINE
  5
A8
  8
ASSEMBLY_PLATFORM
 10
18.33050928530464
 20
281.6189772476852
 30
-0.5
 11
22.38838972008725
 21
281.2224928726852
 31
-0.5
  0
LINE
  5
A9
  8
ASSEMBLY_PLATFORM
 10
22.38838972008725
 20
281.2224928726852
 30
-0.5
 11
26.44627015486986
 21
280.7127272476852
 31
-0.5
  0
LINE
  5
AA
  8
ASSEMBLY_PLATFORM
 10
26.44627015486986
 20
280.7127272476852
 30
-0.5
 11
30.50415058965247
 21
280.0896803726852
 31
-0.5
  0
LINE
  5
AB
  8
ASSEMBLY_PLATFORM
 10
30.50415058965247
 20
280.0896803726852
 30
-0.5
 11
34.56203102443508
 21
279.3533522476852
 31
-0.5
  0
LINE
  5
AC
  8
ASSEMBLY_PLATFORM
 10
34.56203102443508
 20
279.3533522476852
 30
-0.5
 11
38.61991145921769
 21
278.5037428726852
 31
-0.5
  0
LINE
  5
AD
  8
ASSEMBLY_PLATFORM
 10
38.61991145921769
 20
278.5037428726852
 30
-0.5
 11
42.6777918940003
 21
277.5408522476852
 31
-0.5
  0
LINE
  5
AE
  8
ASSEMBLY_PLATFORM
 10
42.6777918940003
 20
277.5408522476852
 30
-0.5
 11
46.73567232878291
 21
276.4646803726852
 31
-0.5
  0
LINE
  5
AF
  8
ASSEMBLY_PLATFORM
 10
46.73567232878291
 20
276.4646803726852
 30
-0.5
 11
50.79355276356552
 21
275.2752272476852
 31
-0.5
  0
LINE
  5
B0
  8
ASSEMBLY_PLATFORM
 10
50.79355276356552
 20
275.2752272476852
 30
-0.5
 11
54.85143319834813
 21
273.9724928726852
 31
-0.5
  0
LINE
  5
B1
  8
ASSEMBLY_PLATFORM
 10
54.85143319834813
 20
273.9724928726852
 30
-0.5
 11
58.90931363313074
 21
272.5564772476852
 31
-0.5
  0
LINE
  5
B2
  8
ASSEMBLY_PLATFORM
 10
58.90931363313074
 20
272.5564772476852
 30
-0.5
 11
62.96719406791335
 21
271.0271803726852
 31
-0.5
  0
LINE
  5
B3
  8
ASSEMBLY_PLATFORM
 10
62.96719406791335
 20
271.0271803726852
 30
-0.5
 11
67.02507450269596
 21
269.3846022476852
 31
-0.5
  0
LINE
  5
B4
  8
ASSEMBLY_PLATFORM
 10
67.02507450269596
 20
269.3846022476852
 30
-0.5
 11
71.08295493747858
 21
267.6287428726852
 31
-0.5
  0
ARC
  5
B5
  8
ASSEMBLY_PLATFORM
 10
70.94294316356248
 20
271.3423101331629
 30
-0.5
 40
3.716205739047155
 50
272.1591869154579
 51
2.007544381797238
  0
LINE
  5
B6
  8
ASSEMBLY_PLATFORM
 10
74.6568679809568
 20
271.4724928726852
 30
-0.5
 11
74.65686798095687
 21
302.9365550778675
 31
-0.5
  0
ARC
  5
B7
  8
ASSEMBLY_PLATFORM
 10
73.65686798095675
 20
302.9365550778665
 30
-0.5
 40
1.000000000000128
 50
0.000000000058624
 51
89.99999999999511
  0
LINE
  5
B8
  8
ASSEMBLY_PLATFORM
 10
73.65686798095683
 20
303.9365550778666
 30
-0.5
 11
72.21029562777396
 21
303.9365550778666
 31
-0.5
  0
LINE
  5
B9
  8
ASSEMBLY_PLATFORM
 10
72.21029562777396
 20
303.9365550778666
 30
-0.5
 11
72.21029562777396
 21
313.9365550778666
 31
-0.5
  0
LINE
  5
BA
  8
ASSEMBLY_PLATFORM
 10
72.21029562777396
 20
313.9365550778666
 30
-0.5
 11
73.65686798095683
 21
313.9365550778666
 31
-0.5
  0
ARC
  5
BB
  8
ASSEMBLY_PLATFORM
 10
73.65686798095689
 20
314.9365550778666
 30
-0.5000000000000001
 40
0.9999999999999432
 50
269.9999999999968
 51
0.0000000000488533
  0
LINE
  5
BC
  8
ASSEMBLY_PLATFORM
 10
-35.86385554715446
 20
313.6287428726852
 30
-0.5
 11
-35.86385554715446
 21
303.6287428726852
 31
-0.5
  0
LINE
  5
BD
  8
ASSEMBLY_PLATFORM
 10
-35.86385554715446
 20
303.6287428726852
 30
-0.5
 11
-41.86385554715446
 21
303.6287428726852
 31
-0.5
  0
LINE
  5
BE
  8
ASSEMBLY_PLATFORM
 10
-41.86385554715446
 20
303.6287428726852
 30
-0.5
 11
-41.86385554715446
 21
313.6287428726852
 31
-0.5
  0
LINE
  5
BF
  8
ASSEMBLY_PLATFORM
 10
-41.86385554715446
 20
313.6287428726852
 30
-0.5
 11
-35.86385554715446
 21
313.6287428726852
 31
-0.5
  0
LINE
  5
C0
  8
ASSEMBLY_PLATFORM
 10
31.13614445284554
 20
313.6287428726852
 30
-0.5
 11
31.13614445284554
 21
303.6287428726852
 31
-0.5
  0
LINE
  5
C1
  8
ASSEMBLY_PLATFORM
 10
31.13614445284554
 20
303.6287428726852
 30
-0.5
 11
25.13614445284554
 21
303.6287428726852
 31
-0.5
  0
LINE
  5
C2
  8
ASSEMBLY_PLATFORM
 10
25.13614445284554
 20
303.6287428726852
 30
-0.5
 11
25.13614445284554
 21
313.6287428726852
 31
-0.5
  0
LINE
  5
C3
  8
ASSEMBLY_PLATFORM
 10
25.13614445284554
 20
313.6287428726852
 30
-0.5
 11
31.13614445284554
 21
313.6287428726852
 31
-0.5
  0
ENDSEC
  0
EOF
