  0
SECTION
  2
HEADER
  9
$ACADVER
  1
AC1009
  9
$DWGCODEPAGE
  3
ansi_1252
  9
$INSBASE
 10
0.0
 20
0.0
 30
0.0
  9
$EXTMIN
 10
-85.34541294069606
 20
267.6287428726851
 30
-0.5000000000000001
  9
$EXTMAX
 10
74.65914890260963
 20
425.5066363240402
 30
-0.5
  9
$LIMMIN
 10
0.0
 20
0.0
  9
$LIMMAX
 10
12.0
 20
9.0
  9
$ORTHOMODE
 70
     0
  9
$REGENMODE
 70
     1
  9
$FILLMODE
 70
     1
  9
$QTEXTMODE
 70
     0
  9
$MIRRTEXT
 70
     1
  9
$DRAGMODE
 70
     2
  9
$LTSCALE
 40
1.0
  9
$OSMODE
 70
    37
  9
$ATTMODE
 70
     1
  9
$TEXTSIZE
 40
0.2
  9
$TRACEWID
 40
0.05
  9
$TEXTSTYLE
  7
STANDARD
  9
$CLAYER
  8
DEFAULT
  9
$CELTYPE
  6
BYLAYER
  9
$CECOLOR
 62
   256
  9
$DIMSCALE
 40
1.0
  9
$DIMASZ
 40
0.18
  9
$DIMEXO
 40
0.0625
  9
$DIMDLI
 40
0.38
  9
$DIMRND
 40
0.0
  9
$DIMDLE
 40
0.0
  9
$DIMEXE
 40
0.18
  9
$DIMTP
 40
0.0
  9
$DIMTM
 40
0.0
  9
$DIMTXT
 40
0.18
  9
$DIMCEN
 40
0.09
  9
$DIMTSZ
 40
0.0
  9
$DIMTOL
 70
     0
  9
$DIMLIM
 70
     0
  9
$DIMTIH
 70
     1
  9
$DIMTOH
 70
     1
  9
$DIMSE1
 70
     0
  9
$DIMSE2
 70
     0
  9
$DIMTAD
 70
     0
  9
$DIMZIN
 70
     0
  9
$DIMBLK
  1

  9
$DIMASO
 70
     1
  9
$DIMSHO
 70
     1
  9
$DIMPOST
  1

  9
$DIMAPOST
  1

  9
$DIMALT
 70
     0
  9
$DIMALTD
 70
     2
  9
$DIMALTF
 40
25.4
  9
$DIMLFAC
 40
1.0
  9
$DIMTOFL
 70
     0
  9
$DIMTVP
 40
0.0
  9
$DIMTIX
 70
     0
  9
$DIMSOXD
 70
     0
  9
$DIMSAH
 70
     0
  9
$DIMBLK1
  1

  9
$DIMBLK2
  1

  9
$DIMSTYLE
  2
STANDARD_ACAD
  9
$DIMCLRD
 70
     0
  9
$DIMCLRE
 70
     0
  9
$DIMCLRT
 70
     0
  9
$DIMTFAC
 40
1.0
  9
$DIMGAP
 40
0.09
  9
$LUNITS
 70
     2
  9
$LUPREC
 70
     3
  9
$SKETCHINC
 40
0.1
  9
$FILLETRAD
 40
0.0
  9
$AUNITS
 70
     0
  9
$AUPREC
 70
     0
  9
$MENU
  1
.
  9
$ELEVATION
 40
0.0
  9
$PELEVATION
 40
0.0
  9
$THICKNESS
 40
0.0
  9
$LIMCHECK
 70
     0
  9
$CHAMFERA
 40
0.0
  9
$CHAMFERB
 40
0.0
  9
$SKPOLY
 70
     0
  9
$TDCREATE
 40
2460256.825997616
  9
$TDUPDATE
 40
2460256.82600934
  9
$TDINDWG
 40
0.0000000116
  9
$TDUSRTIMER
 40
0.0000000116
  9
$USRTIMER
 70
     1
  9
$ANGBASE
 50
0.0
  9
$ANGDIR
 70
     0
  9
$PDMODE
 70
     0
  9
$PDSIZE
 40
0.0
  9
$PLINEWID
 40
0.0
  9
$COORDS
 70
     1
  9
$SPLFRAME
 70
     0
  9
$SPLINETYPE
 70
     6
  9
$SPLINESEGS
 70
     8
  9
$ATTDIA
 70
     0
  9
$ATTREQ
 70
     1
  9
$HANDLING
 70
     1
  9
$HANDSEED
  5
BE
  9
$SURFTAB1
 70
     6
  9
$SURFTAB2
 70
     6
  9
$SURFTYPE
 70
     6
  9
$SURFU
 70
     6
  9
$SURFV
 70
     6
  9
$UCSNAME
  2

  9
$UCSORG
 10
0.0
 20
0.0
 30
0.0
  9
$UCSXDIR
 10
1.0
 20
0.0
 30
0.0
  9
$UCSYDIR
 10
0.0
 20
1.0
 30
0.0
  9
$PUCSNAME
  2

  9
$PUCSORG
 10
0.0
 20
0.0
 30
0.0
  9
$PUCSXDIR
 10
1.0
 20
0.0
 30
0.0
  9
$PUCSYDIR
 10
0.0
 20
1.0
 30
0.0
  9
$USERI1
 70
     0
  9
$USERI2
 70
     0
  9
$USERI3
 70
     0
  9
$USERI4
 70
     0
  9
$USERI5
 70
     0
  9
$USERR1
 40
0.0
  9
$USERR2
 40
0.0
  9
$USERR3
 40
0.0
  9
$USERR4
 40
0.0
  9
$USERR5
 40
0.0
  9
$WORLDVIEW
 70
     1
  9
$SHADEDGE
 70
     3
  9
$SHADEDIF
 70
    70
  9
$TILEMODE
 70
     1
  9
$MAXACTVP
 70
    64
  9
$PLIMCHECK
 70
     0
  9
$PEXTMIN
 10
1.000000000000000E+20
 20
1.000000000000000E+20
 30
1.000000000000000E+20
  9
$PEXTMAX
 10
-1.000000000000000E+20
 20
-1.000000000000000E+20
 30
-1.000000000000000E+20
  9
$PLIMMIN
 10
0.0
 20
0.0
  9
$PLIMMAX
 10
12.0
 20
9.0
  9
$UNITMODE
 70
     0
  9
$VISRETAIN
 70
     1
  9
$PLINEGEN
 70
     0
  9
$PSLTSCALE
 70
     1
  0
ENDSEC
  0
SECTION
  2
TABLES
  0
TABLE
  2
VPORT
 70
     1
  0
VPORT
  2
*ACTIVE
 70
     0
 10
0.0
 20
0.0
 11
1.0
 21
1.0
 12
10.42990654205607
 22
4.5
 13
0.0
 23
0.0
 14
0.5
 24
0.5
 15
0.5
 25
0.5
 16
0.0
 26
0.0
 36
1.0
 17
0.0
 27
0.0
 37
0.0
 40
9.0
 41
1.972972972850329
 42
50.0
 43
0.0
 44
0.0
 50
0.0
 51
0.0
 71
     0
 72
   100
 73
     1
 74
     3
 75
     0
 76
     0
 77
     0
 78
     0
  0
ENDTAB
  0
TABLE
  2
LTYPE
 70
     1
  0
LTYPE
  2
CONTINUOUS
 70
     0
  3
Solid line
 72
    65
 73
     0
 40
0.0
  0
ENDTAB
  0
TABLE
  2
LAYER
 70
     3
  0
LAYER
  2
0
 70
     0
 62
     7
  6
CONTINUOUS
  0
LAYER
  2
ASSEMBLY_PLATFORM
 70
     0
 62
     7
  6
CONTINUOUS
  0
LAYER
  2
DEFAULT
 70
     0
 62
     7
  6
CONTINUOUS
  0
ENDTAB
  0
TABLE
  2
STYLE
 70
     1
  0
STYLE
  2
STANDARD
 70
     0
 40
0.0
 41
1.0
 50
0.0
 71
     0
 42
0.2
  3
txt
  4

  0
ENDTAB
  0
TABLE
  2
VIEW
 70
     0
  0
ENDTAB
  0
TABLE
  2
UCS
 70
     0
  0
ENDTAB
  0
TABLE
  2
APPID
 70
     2
  0
APPID
  2
ACAD
 70
     0
  0
APPID
  2
RHINO
 70
     0
  0
ENDTAB
  0
TABLE
  2
DIMSTYLE
 70
     1
  0
DIMSTYLE
  2
STANDARD_ACAD
 70
     0
  3

  4

  5

  6

  7

 40
1.0
 41
0.18
 42
0.0625
 43
0.38
 44
0.18
 45
0.0
 46
0.0
 47
0.0
 48
0.0
140
0.18
141
0.09
142
0.0
143
25.4
144
1.0
145
0.0
146
1.0
147
0.09
 71
     0
 72
     0
 73
     1
 74
     1
 75
     0
 76
     0
 77
     0
 78
     0
170
     0
171
     2
172
     0
173
     0
174
     0
175
     0
176
     0
177
     0
178
     0
  0
ENDTAB
  0
ENDSEC
  0
SECTION
  2
BLOCKS
  0
BLOCK
  8
0
  2
$MODEL_SPACE
 70
     0
 10
0.0
 20
0.0
 30
0.0
  3
$MODEL_SPACE
  1

  0
ENDBLK
  5
21
  8
0
  0
BLOCK
 67
     1
  8
0
  2
$PAPER_SPACE
 70
     0
 10
0.0
 20
0.0
 30
0.0
  3
$PAPER_SPACE
  1

  0
ENDBLK
  5
1D
 67
     1
  8
0
  0
ENDSEC
  0
SECTION
  2
ENTITIES
  0
LINE
  5
60
  8
ASSEMBLY_PLATFORM
 10
-6.024910357285282
 20
303.6287428726852
 30
-0.5
 11
-10.86385554715446
 21
303.6287428726852
 31
-0.5
  0
LINE
  5
61
  8
ASSEMBLY_PLATFORM
 10
-10.86385554715446
 20
303.6287428726852
 30
-0.5
 11
-10.86385554715446
 21
313.6287428726852
 31
-0.5
  0
LINE
  5
62
  8
ASSEMBLY_PLATFORM
 10
-10.86385554715446
 20
313.6287428726852
 30
-0.5
 11
-6.024910357288832
 21
313.6287428726852
 31
-0.5
  0
ARC
  5
63
  8
ASSEMBLY_PLATFORM
 10
-3.035769369977465
 20
308.6287428726852
 30
0.5
 40
10.34871572322044
 50
28.89145020115256
 51
331.1085497988374
210
0.0
220
0.0
230
-1.0
  0
LINE
  5
65
  8
DEFAULT
 10
-64.28332785844941
 20
381.7725990867622
 30
-0.5
 11
-12.32443935982
 21
381.7725990867622
 31
-0.5
  0
LINE
  5
66
  8
DEFAULT
 10
-12.32443935982
 20
381.7725990867622
 30
-0.5
 11
-12.32443935982
 21
425.5066363240402
 31
-0.5
  0
LINE
  5
67
  8
DEFAULT
 10
-12.32443935982
 20
425.5066363240402
 30
-0.5
 11
-64.28332785844941
 21
425.5066363240402
 31
-0.5
  0
LINE
  5
68
  8
DEFAULT
 10
-64.28332785844941
 20
425.5066363240402
 30
-0.5
 11
-64.28332785844941
 21
381.7725990867622
 31
-0.5
  0
LINE
  5
69
  8
ASSEMBLY_PLATFORM
 10
74.65686798095687
 20
314.9365550778674
 30
-0.5
 11
74.6568679809568
 21
345.7849928726852
 31
-0.5
  0
ARC
  5
6A
  8
ASSEMBLY_PLATFORM
 10
70.94294316356236
 20
345.9151756122073
 30
-0.5
 40
3.716205739047266
 50
357.9924556182045
 51
87.84081308454043
  0
LINE
  5
6B
  8
ASSEMBLY_PLATFORM
 10
71.08295493747858
 20
349.6287428726852
 30
-0.5
 11
67.00261356519596
 21
348.5164206638048
 31
-0.5
  0
LINE
  5
6C
  8
ASSEMBLY_PLATFORM
 10
67.00261356519596
 20
348.5164206638048
 30
-0.5
 11
62.87735031791335
 21
347.4758611780779
 31
-0.5
  0
LINE
  5
6D
  8
ASSEMBLY_PLATFORM
 10
62.87735031791335
 20
347.4758611780779
 30
-0.5
 11
58.70716519563074
 21
346.5070644155047
 31
-0.5
  0
LINE
  5
6E
  8
ASSEMBLY_PLATFORM
 10
58.70716519563074
 20
346.5070644155047
 30
-0.5
 11
54.49205819834813
 21
345.610030376085
 31
-0.5
  0
LINE
  5
6F
  8
ASSEMBLY_PLATFORM
 10
54.49205819834813
 20
345.610030376085
 30
-0.5
 11
50.23202932606552
 21
344.784759059819
 31
-0.5
  0
LINE
  5
70
  8
ASSEMBLY_PLATFORM
 10
50.23202932606552
 20
344.784759059819
 30
-0.5
 11
45.92707857878291
 21
344.0312504667064
 31
-0.5
  0
LINE
  5
71
  8
ASSEMBLY_PLATFORM
 10
45.92707857878291
 20
344.0312504667064
 30
-0.5
 11
41.57720595650029
 21
343.3495045967475
 31
-0.5
  0
LINE
  5
72
  8
ASSEMBLY_PLATFORM
 10
41.57720595650029
 20
343.3495045967475
 30
-0.5
 11
37.18241145921768
 21
342.7395214499421
 31
-0.5
  0
LINE
  5
73
  8
ASSEMBLY_PLATFORM
 10
37.18241145921768
 20
342.7395214499421
 30
-0.5
 11
28.25805683965246
 21
341.7348433257921
 31
-0.5
  0
LINE
  5
74
  8
ASSEMBLY_PLATFORM
 10
28.25805683965246
 20
341.7348433257921
 30
-0.5
 11
19.15401472008724
 21
341.0172160942564
 31
-0.5
  0
LINE
  5
75
  8
ASSEMBLY_PLATFORM
 10
19.15401472008724
 20
341.0172160942564
 30
-0.5
 11
9.870285100522013
 21
340.5866397553349
 31
-0.5
  0
LINE
  5
76
  8
ASSEMBLY_PLATFORM
 10
9.870285100522013
 20
340.5866397553349
 30
-0.5
 11
0.4068679809567897
 21
340.4431143090277
 31
-0.5
  0
LINE
  5
77
  8
ASSEMBLY_PLATFORM
 10
0.4068679809567897
 20
340.4431143090277
 30
-0.5
 11
-9.236236638608434
 21
340.5866397553349
 31
-0.5
  0
LINE
  5
78
  8
ASSEMBLY_PLATFORM
 10
-9.236236638608434
 20
340.5866397553349
 30
-0.5
 11
-19.05902875817366
 21
341.0172160942564
 31
-0.5
  0
LINE
  5
79
  8
ASSEMBLY_PLATFORM
 10
-19.05902875817366
 20
341.0172160942564
 30
-0.5
 11
-29.06150837773888
 21
341.7348433257921
 31
-0.5
  0
LINE
  5
7A
  8
ASSEMBLY_PLATFORM
 10
-29.06150837773888
 20
341.7348433257921
 30
-0.5
 11
-39.2436754973041
 21
342.7395214499421
 31
-0.5
  0
LINE
  5
7B
  8
ASSEMBLY_PLATFORM
 10
-39.2436754973041
 20
342.7395214499421
 30
-0.5
 11
-49.60553011686933
 21
344.0312504667064
 31
-0.5
  0
LINE
  5
7C
  8
ASSEMBLY_PLATFORM
 10
-49.60553011686933
 20
344.0312504667064
 30
-0.5
 11
-60.14707223643455
 21
345.610030376085
 31
-0.5
  0
LINE
  5
7D
  8
ASSEMBLY_PLATFORM
 10
-60.14707223643455
 20
345.610030376085
 30
-0.5
 11
-70.86830185599977
 21
347.4758611780779
 31
-0.5
  0
LINE
  5
7E
  8
ASSEMBLY_PLATFORM
 10
-70.86830185599977
 20
347.4758611780779
 30
-0.5
 11
-81.769218975565
 21
349.6287428726852
 31
-0.5
  0
ARC
  5
7F
  8
ASSEMBLY_PLATFORM
 10
-81.62920720164905
 20
345.9151756122076
 30
-0.5
 40
3.716205739046978
 50
92.15918691545559
 51
182.0075443818
  0
LINE
  5
80
  8
ASSEMBLY_PLATFORM
 10
-85.34313201904322
 20
345.7849928726852
 30
-0.5
 11
-85.34313201904322
 21
271.4724928726852
 31
-0.5
  0
ARC
  5
81
  8
ASSEMBLY_PLATFORM
 10
-81.62920720164904
 20
271.3423101331627
 30
-0.5
 40
3.716205739047021
 50
177.9924556182001
 51
267.8408130845442
  0
LINE
  5
82
  8
ASSEMBLY_PLATFORM
 10
-81.769218975565
 20
267.6287428726852
 30
-0.5
 11
-70.86830185599976
 21
269.7816245672924
 31
-0.5
  0
LINE
  5
83
  8
ASSEMBLY_PLATFORM
 10
-70.86830185599976
 20
269.7816245672924
 30
-0.5
 11
-60.14707223643455
 21
271.6474553692853
 31
-0.5
  0
LINE
  5
84
  8
ASSEMBLY_PLATFORM
 10
-60.14707223643455
 20
271.6474553692853
 30
-0.5
 11
-49.60553011686932
 21
273.2262352786639
 31
-0.5
  0
LINE
  5
85
  8
ASSEMBLY_PLATFORM
 10
-49.60553011686932
 20
273.2262352786639
 30
-0.5
 11
-39.2436754973041
 21
274.5179642954282
 31
-0.5
  0
LINE
  5
86
  8
ASSEMBLY_PLATFORM
 10
-39.2436754973041
 20
274.5179642954282
 30
-0.5
 11
-29.06150837773887
 21
275.5226424195782
 31
-0.5
  0
LINE
  5
87
  8
ASSEMBLY_PLATFORM
 10
-29.06150837773887
 20
275.5226424195782
 30
-0.5
 11
-19.05902875817365
 21
276.240269651114
 31
-0.5
  0
LINE
  5
88
  8
ASSEMBLY_PLATFORM
 10
-19.05902875817365
 20
276.240269651114
 30
-0.5
 11
-9.236236638608426
 21
276.6708459900354
 31
-0.5
  0
LINE
  5
89
  8
ASSEMBLY_PLATFORM
 10
-9.236236638608426
 20
276.6708459900354
 30
-0.5
 11
0.4068679809567968
 21
276.8143714363426
 31
-0.5
  0
LINE
  5
8A
  8
ASSEMBLY_PLATFORM
 10
0.4068679809567968
 20
276.8143714363426
 30
-0.5
 11
9.87028510052202
 21
276.6708459900354
 31
-0.5
  0
LINE
  5
8B
  8
ASSEMBLY_PLATFORM
 10
9.87028510052202
 20
276.6708459900354
 30
-0.5
 11
19.15401472008724
 21
276.240269651114
 31
-0.5
  0
LINE
  5
8C
  8
ASSEMBLY_PLATFORM
 10
19.15401472008724
 20
276.240269651114
 30
-0.5
 11
28.25805683965247
 21
275.5226424195782
 31
-0.5
  0
LINE
  5
8D
  8
ASSEMBLY_PLATFORM
 10
28.25805683965247
 20
275.5226424195782
 30
-0.5
 11
37.18241145921769
 21
274.5179642954282
 31
-0.5
  0
LINE
  5
8E
  8
ASSEMBLY_PLATFORM
 10
37.18241145921769
 20
274.5179642954282
 30
-0.5
 11
41.5772059565003
 21
273.9079811486229
 31
-0.5
  0
LINE
  5
8F
  8
ASSEMBLY_PLATFORM
 10
41.5772059565003
 20
273.9079811486229
 30
-0.5
 11
45.92707857878291
 21
273.2262352786639
 31
-0.5
  0
LINE
  5
90
  8
ASSEMBLY_PLATFORM
 10
45.92707857878291
 20
273.2262352786639
 30
-0.5
 11
50.23202932606552
 21
272.4727266855514
 31
-0.5
  0
LINE
  5
91
  8
ASSEMBLY_PLATFORM
 10
50.23202932606552
 20
272.4727266855514
 30
-0.5
 11
54.49205819834813
 21
271.6474553692853
 31
-0.5
  0
LINE
  5
92
  8
ASSEMBLY_PLATFORM
 10
54.49205819834813
 20
271.6474553692853
 30
-0.5
 11
58.70716519563074
 21
270.7504213298656
 31
-0.5
  0
LINE
  5
93
  8
ASSEMBLY_PLATFORM
 10
58.70716519563074
 20
270.7504213298656
 30
-0.5
 11
62.87735031791335
 21
269.7816245672924
 31
-0.5
  0
LINE
  5
94
  8
ASSEMBLY_PLATFORM
 10
62.87735031791335
 20
269.7816245672924
 30
-0.5
 11
67.00261356519596
 21
268.7410650815656
 31
-0.5
  0
LINE
  5
95
  8
ASSEMBLY_PLATFORM
 10
67.00261356519596
 20
268.7410650815656
 30
-0.5
 11
71.08295493747858
 21
267.6287428726852
 31
-0.5
  0
ARC
  5
96
  8
ASSEMBLY_PLATFORM
 10
70.94294316356248
 20
271.3423101331629
 30
-0.5
 40
3.716205739047155
 50
272.1591869154579
 51
2.007544381797238
  0
LINE
  5
97
  8
ASSEMBLY_PLATFORM
 10
74.6568679809568
 20
271.4724928726852
 30
-0.5
 11
74.65686798095687
 21
302.9365550778675
 31
-0.5
  0
ARC
  5
98
  8
ASSEMBLY_PLATFORM
 10
73.65686798095675
 20
302.9365550778665
 30
-0.5
 40
1.000000000000128
 50
0.000000000058624
 51
89.99999999999511
  0
LINE
  5
99
  8
ASSEMBLY_PLATFORM
 10
73.65686798095683
 20
303.9365550778666
 30
-0.5
 11
72.21029562777396
 21
303.9365550778666
 31
-0.5
  0
LINE
  5
9A
  8
ASSEMBLY_PLATFORM
 10
72.21029562777396
 20
303.9365550778666
 30
-0.5
 11
72.21029562777396
 21
313.9365550778666
 31
-0.5
  0
LINE
  5
9B
  8
ASSEMBLY_PLATFORM
 10
72.21029562777396
 20
313.9365550778666
 30
-0.5
 11
73.65686798095683
 21
313.9365550778666
 31
-0.5
  0
ARC
  5
9C
  8
ASSEMBLY_PLATFORM
 10
73.65686798095689
 20
314.9365550778666
 30
-0.5000000000000001
 40
0.9999999999999432
 50
269.9999999999968
 51
0.0000000000488533
  0
LINE
  5
9D
  8
ASSEMBLY_PLATFORM
 10
27.13614445284554
 20
313.6287428726852
 30
-0.5
 11
27.13614445284554
 21
303.6287428726852
 31
-0.5
  0
LINE
  5
9E
  8
ASSEMBLY_PLATFORM
 10
27.13614445284554
 20
303.6287428726852
 30
-0.5
 11
21.13614445284554
 21
303.6287428726852
 31
-0.5
  0
LINE
  5
9F
  8
ASSEMBLY_PLATFORM
 10
21.13614445284554
 20
303.6287428726852
 30
-0.5
 11
21.13614445284554
 21
313.6287428726852
 31
-0.5
  0
LINE
  5
A0
  8
ASSEMBLY_PLATFORM
 10
21.13614445284554
 20
313.6287428726852
 30
-0.5
 11
27.13614445284554
 21
313.6287428726852
 31
-0.5
  0
LINE
  5
A1
  8
ASSEMBLY_PLATFORM
 10
-66.86385554715446
 20
313.6287428726852
 30
-0.5
 11
-66.86385554715446
 21
303.6287428726852
 31
-0.5
  0
LINE
  5
A2
  8
ASSEMBLY_PLATFORM
 10
-66.86385554715446
 20
303.6287428726852
 30
-0.5
 11
-72.86385554715446
 21
303.6287428726852
 31
-0.5
  0
LINE
  5
A3
  8
ASSEMBLY_PLATFORM
 10
-72.86385554715446
 20
303.6287428726852
 30
-0.5
 11
-72.86385554715446
 21
313.6287428726852
 31
-0.5
  0
LINE
  5
A4
  8
ASSEMBLY_PLATFORM
 10
-72.86385554715446
 20
313.6287428726852
 30
-0.5
 11
-66.86385554715446
 21
313.6287428726852
 31
-0.5
  0
CIRCLE
  5
A5
  8
ASSEMBLY_PLATFORM
 10
77.34313201904313
 20
283.378741919011
 30
0.5
 40
1.499999999999957
210
0.0
220
0.0
230
-1.0
  0
CIRCLE
  5
A6
  8
ASSEMBLY_PLATFORM
 10
77.34313201904317
 20
333.8787438263594
 30
0.5
 40
1.499999999999915
210
0.0
220
0.0
230
-1.0
  0
CIRCLE
  5
A7
  8
ASSEMBLY_PLATFORM
 10
56.34313201904313
 20
333.8787438263594
 30
0.5
 40
1.49999999999995
210
0.0
220
0.0
230
-1.0
  0
CIRCLE
  5
A8
  8
ASSEMBLY_PLATFORM
 10
46.34313201904313
 20
340.8787438263594
 30
0.5
 40
1.49999999999995
210
0.0
220
0.0
230
-1.0
  0
CIRCLE
  5
A9
  8
ASSEMBLY_PLATFORM
 10
56.34313201904315
 20
340.8787438263595
 30
0.5
 40
1.499999999999936
210
0.0
220
0.0
230
-1.0
  0
CIRCLE
  5
AA
  8
ASSEMBLY_PLATFORM
 10
46.34313201904309
 20
333.8787438263594
 30
0.5
 40
1.500000000000007
210
0.0
220
0.0
230
-1.0
  0
CIRCLE
  5
AB
  8
ASSEMBLY_PLATFORM
 10
-45.65686798095705
 20
320.8787438263594
 30
0.5
 40
1.500000000000014
210
0.0
220
0.0
230
-1.0
  0
CIRCLE
  5
AC
  8
ASSEMBLY_PLATFORM
 10
-45.656867980957
 20
313.8787438263594
 30
0.5
 40
1.499999999999972
210
0.0
220
0.0
230
-1.0
  0
CIRCLE
  5
AD
  8
ASSEMBLY_PLATFORM
 10
-45.656867980957
 20
303.378741919011
 30
0.5
 40
1.499999999999972
210
0.0
220
0.0
230
-1.0
  0
CIRCLE
  5
AE
  8
ASSEMBLY_PLATFORM
 10
-45.65686798095702
 20
296.378741919011
 30
0.5
 40
1.499999999999993
210
0.0
220
0.0
230
-1.0
  0
CIRCLE
  5
AF
  8
ASSEMBLY_PLATFORM
 10
-35.65686798095697
 20
296.378741919011
 30
0.5
 40
1.499999999999943
210
0.0
220
0.0
230
-1.0
  0
CIRCLE
  5
B0
  8
ASSEMBLY_PLATFORM
 10
-35.65686798095703
 20
303.378741919011
 30
0.5
 40
1.5
210
0.0
220
0.0
230
-1.0
  0
CIRCLE
  5
B1
  8
ASSEMBLY_PLATFORM
 10
-35.65686798095703
 20
320.8787438263594
 30
0.5
 40
1.5
210
0.0
220
0.0
230
-1.0
  0
CIRCLE
  5
B2
  8
ASSEMBLY_PLATFORM
 10
-35.65686798095709
 20
313.8787438263593
 30
0.5
 40
1.500000000000057
210
0.0
220
0.0
230
-1.0
  0
CIRCLE
  5
B3
  8
ASSEMBLY_PLATFORM
 10
46.34313201904313
 20
276.378741919011
 30
0.5
 40
1.49999999999995
210
0.0
220
0.0
230
-1.0
  0
CIRCLE
  5
B4
  8
ASSEMBLY_PLATFORM
 10
46.34313201904315
 20
283.378741919011
 30
0.5
 40
1.499999999999929
210
0.0
220
0.0
230
-1.0
  0
CIRCLE
  5
B5
  8
ASSEMBLY_PLATFORM
 10
56.34313201904309
 20
276.378741919011
 30
0.5
 40
1.499999999999993
210
0.0
220
0.0
230
-1.0
  0
CIRCLE
  5
B6
  8
ASSEMBLY_PLATFORM
 10
56.34313201904315
 20
283.378741919011
 30
0.5
 40
1.499999999999936
210
0.0
220
0.0
230
-1.0
  0
ENDSEC
  0
EOF
