  0
SECTION
  2
HEADER
  9
$ACADVER
  1
AC1009
  9
$DWGCODEPAGE
  3
ansi_1251
  9
$INSBASE
 10
0.0
 20
0.0
 30
0.0
  9
$EXTMIN
 10
1.000000000000000E+20
 20
1.000000000000000E+20
 30
1.000000000000000E+20
  9
$EXTMAX
 10
-1.000000000000000E+20
 20
-1.000000000000000E+20
 30
-1.000000000000000E+20
  9
$LIMMIN
 10
0.0
 20
0.0
  9
$LIMMAX
 10
12.0
 20
9.0
  9
$ORTHOMODE
 70
     0
  9
$REGENMODE
 70
     1
  9
$FILLMODE
 70
     1
  9
$QTEXTMODE
 70
     0
  9
$MIRRTEXT
 70
     1
  9
$DRAGMODE
 70
     2
  9
$LTSCALE
 40
1.0
  9
$OSMODE
 70
    37
  9
$ATTMODE
 70
     1
  9
$TEXTSIZE
 40
0.2
  9
$TRACEWID
 40
0.05
  9
$TEXTSTYLE
  7
STANDARD
  9
$CLAYER
  8
DEFAULT
  9
$CELTYPE
  6
BYLAYER
  9
$CECOLOR
 62
   256
  9
$DIMSCALE
 40
1.0
  9
$DIMASZ
 40
0.18
  9
$DIMEXO
 40
0.0625
  9
$DIMDLI
 40
0.38
  9
$DIMRND
 40
0.0
  9
$DIMDLE
 40
0.0
  9
$DIMEXE
 40
0.18
  9
$DIMTP
 40
0.0
  9
$DIMTM
 40
0.0
  9
$DIMTXT
 40
0.18
  9
$DIMCEN
 40
0.09
  9
$DIMTSZ
 40
0.0
  9
$DIMTOL
 70
     0
  9
$DIMLIM
 70
     0
  9
$DIMTIH
 70
     1
  9
$DIMTOH
 70
     1
  9
$DIMSE1
 70
     0
  9
$DIMSE2
 70
     0
  9
$DIMTAD
 70
     0
  9
$DIMZIN
 70
     0
  9
$DIMBLK
  1

  9
$DIMASO
 70
     1
  9
$DIMSHO
 70
     1
  9
$DIMPOST
  1

  9
$DIMAPOST
  1

  9
$DIMALT
 70
     0
  9
$DIMALTD
 70
     2
  9
$DIMALTF
 40
25.4
  9
$DIMLFAC
 40
1.0
  9
$DIMTOFL
 70
     0
  9
$DIMTVP
 40
0.0
  9
$DIMTIX
 70
     0
  9
$DIMSOXD
 70
     0
  9
$DIMSAH
 70
     0
  9
$DIMBLK1
  1

  9
$DIMBLK2
  1

  9
$DIMSTYLE
  2
STANDARD_ACAD
  9
$DIMCLRD
 70
     0
  9
$DIMCLRE
 70
     0
  9
$DIMCLRT
 70
     0
  9
$DIMTFAC
 40
1.0
  9
$DIMGAP
 40
0.09
  9
$LUNITS
 70
     2
  9
$LUPREC
 70
     3
  9
$SKETCHINC
 40
0.1
  9
$FILLETRAD
 40
0.5
  9
$AUNITS
 70
     0
  9
$AUPREC
 70
     0
  9
$MENU
  1
.
  9
$ELEVATION
 40
0.0
  9
$PELEVATION
 40
0.0
  9
$THICKNESS
 40
0.0
  9
$LIMCHECK
 70
     0
  9
$CHAMFERA
 40
0.0
  9
$CHAMFERB
 40
0.0
  9
$SKPOLY
 70
     0
  9
$TDCREATE
 40
2460254.699137211
  9
$TDUPDATE
 40
2460254.699152072
  9
$TDINDWG
 40
0.0000000116
  9
$TDUSRTIMER
 40
0.0000000116
  9
$USRTIMER
 70
     1
  9
$ANGBASE
 50
0.0
  9
$ANGDIR
 70
     0
  9
$PDMODE
 70
     0
  9
$PDSIZE
 40
0.0
  9
$PLINEWID
 40
0.0
  9
$COORDS
 70
     1
  9
$SPLFRAME
 70
     0
  9
$SPLINETYPE
 70
     6
  9
$SPLINESEGS
 70
     8
  9
$ATTDIA
 70
     0
  9
$ATTREQ
 70
     1
  9
$HANDLING
 70
     1
  9
$HANDSEED
  5
159
  9
$SURFTAB1
 70
     6
  9
$SURFTAB2
 70
     6
  9
$SURFTYPE
 70
     6
  9
$SURFU
 70
     6
  9
$SURFV
 70
     6
  9
$UCSNAME
  2

  9
$UCSORG
 10
0.0
 20
0.0
 30
0.0
  9
$UCSXDIR
 10
1.0
 20
0.0
 30
0.0
  9
$UCSYDIR
 10
0.0
 20
1.0
 30
0.0
  9
$PUCSNAME
  2

  9
$PUCSORG
 10
0.0
 20
0.0
 30
0.0
  9
$PUCSXDIR
 10
1.0
 20
0.0
 30
0.0
  9
$PUCSYDIR
 10
0.0
 20
1.0
 30
0.0
  9
$USERI1
 70
     0
  9
$USERI2
 70
     0
  9
$USERI3
 70
     0
  9
$USERI4
 70
     0
  9
$USERI5
 70
     0
  9
$USERR1
 40
0.0
  9
$USERR2
 40
0.0
  9
$USERR3
 40
0.0
  9
$USERR4
 40
0.0
  9
$USERR5
 40
0.0
  9
$WORLDVIEW
 70
     1
  9
$SHADEDGE
 70
     3
  9
$SHADEDIF
 70
    70
  9
$TILEMODE
 70
     1
  9
$MAXACTVP
 70
    64
  9
$PLIMCHECK
 70
     0
  9
$PEXTMIN
 10
1.000000000000000E+20
 20
1.000000000000000E+20
 30
1.000000000000000E+20
  9
$PEXTMAX
 10
-1.000000000000000E+20
 20
-1.000000000000000E+20
 30
-1.000000000000000E+20
  9
$PLIMMIN
 10
0.0
 20
0.0
  9
$PLIMMAX
 10
12.0
 20
9.0
  9
$UNITMODE
 70
     0
  9
$VISRETAIN
 70
     1
  9
$PLINEGEN
 70
     0
  9
$PSLTSCALE
 70
     1
  0
ENDSEC
  0
SECTION
  2
TABLES
  0
TABLE
  2
VPORT
 70
     1
  0
VPORT
  2
*ACTIVE
 70
     0
 10
0.0
 20
0.0
 11
1.0
 21
1.0
 12
10.42990654205607
 22
4.5
 13
0.0
 23
0.0
 14
0.5
 24
0.5
 15
0.5
 25
0.5
 16
0.0
 26
0.0
 36
1.0
 17
0.0
 27
0.0
 37
0.0
 40
9.0
 41
1.972972972850329
 42
50.0
 43
0.0
 44
0.0
 50
0.0
 51
0.0
 71
     0
 72
   100
 73
     1
 74
     3
 75
     0
 76
     0
 77
     0
 78
     0
  0
ENDTAB
  0
TABLE
  2
LTYPE
 70
     1
  0
LTYPE
  2
CONTINUOUS
 70
     0
  3
Solid line
 72
    65
 73
     0
 40
0.0
  0
ENDTAB
  0
TABLE
  2
LAYER
 70
     3
  0
LAYER
  2
0
 70
     0
 62
     7
  6
CONTINUOUS
  0
LAYER
  2
DEFAULT
 70
     0
 62
     7
  6
CONTINUOUS
  0
LAYER
  2
ASSEMBLY$PLATFORM
 70
     0
 62
     7
  6
CONTINUOUS
  0
ENDTAB
  0
TABLE
  2
STYLE
 70
     1
  0
STYLE
  2
STANDARD
 70
     0
 40
0.0
 41
1.0
 50
0.0
 71
     0
 42
0.2
  3
txt
  4

  0
ENDTAB
  0
TABLE
  2
VIEW
 70
     0
  0
ENDTAB
  0
TABLE
  2
UCS
 70
     0
  0
ENDTAB
  0
TABLE
  2
APPID
 70
     1
  0
APPID
  2
ACAD
 70
     0
  0
ENDTAB
  0
TABLE
  2
DIMSTYLE
 70
     1
  0
DIMSTYLE
  2
STANDARD_ACAD
 70
     0
  3

  4

  5

  6

  7

 40
1.0
 41
0.18
 42
0.0625
 43
0.38
 44
0.18
 45
0.0
 46
0.0
 47
0.0
 48
0.0
140
0.18
141
0.09
142
0.0
143
25.4
144
1.0
145
0.0
146
1.0
147
0.09
 71
     0
 72
     0
 73
     1
 74
     1
 75
     0
 76
     0
 77
     0
 78
     0
170
     0
171
     2
172
     0
173
     0
174
     0
175
     0
176
     0
177
     0
178
     0
  0
ENDTAB
  0
ENDSEC
  0
SECTION
  2
BLOCKS
  0
BLOCK
  8
0
  2
$MODEL_SPACE
 70
     0
 10
0.0
 20
0.0
 30
0.0
  3
$MODEL_SPACE
  1

  0
ENDBLK
  5
21
  8
0
  0
BLOCK
 67
     1
  8
0
  2
$PAPER_SPACE
 70
     0
 10
0.0
 20
0.0
 30
0.0
  3
$PAPER_SPACE
  1

  0
ENDBLK
  5
1D
 67
     1
  8
0
  0
ENDSEC
  0
SECTION
  2
ENTITIES
  0
LINE
  5
6F
  8
DEFAULT
 10
-25.0
 20
-5.0
 30
0.0
 11
-22.0
 21
-5.0
 31
0.0
  0
LINE
  5
70
  8
DEFAULT
 10
-22.0
 20
-5.0
 30
0.0
 11
-22.0
 21
5.0
 31
0.0
  0
LINE
  5
71
  8
DEFAULT
 10
-22.0
 20
5.0
 30
0.0
 11
-25.0
 21
5.0
 31
0.0
  0
LINE
  5
72
  8
DEFAULT
 10
-25.0
 20
5.0
 30
0.0
 11
-25.0
 21
-5.0
 31
0.0
  0
LINE
  5
73
  8
DEFAULT
 10
-64.0
 20
-5.0
 30
0.0
 11
-61.0
 21
-5.0
 31
0.0
  0
LINE
  5
74
  8
DEFAULT
 10
-61.0
 20
-5.0
 30
0.0
 11
-61.0
 21
5.0
 31
0.0
  0
LINE
  5
75
  8
DEFAULT
 10
-61.0
 20
5.0
 30
0.0
 11
-64.0
 21
5.0
 31
0.0
  0
LINE
  5
76
  8
DEFAULT
 10
-64.0
 20
5.0
 30
0.0
 11
-64.0
 21
-5.0
 31
0.0
  0
ARC
  5
78
  8
ASSEMBLY$PLATFORM
 10
-64.76535165449442
 20
-37.28643273952229
 30
-0.7100677490232379
 40
3.716205739047143
 50
177.9924556182027
 51
267.8408130845423
210
1.799919886601664E-15
220
-1.673562838358775E-15
230
-1.0
  0
LINE
  5
79
  8
ASSEMBLY$PLATFORM
 10
64.90536342841051
 20
-40.99999999999999
 30
0.7100677490234233
 11
60.8474829936279
 21
-39.24414062499999
 31
0.7100677490234233
  0
LINE
  5
7A
  8
ASSEMBLY$PLATFORM
 10
60.8474829936279
 20
-39.24414062499999
 30
0.7100677490234233
 11
56.78960255884529
 21
-37.60156249999999
 31
0.7100677490234233
  0
LINE
  5
7B
  8
ASSEMBLY$PLATFORM
 10
56.78960255884529
 20
-37.60156249999999
 30
0.7100677490234233
 11
52.73172212406268
 21
-36.07226562499999
 31
0.7100677490234233
  0
LINE
  5
7C
  8
ASSEMBLY$PLATFORM
 10
52.73172212406268
 20
-36.07226562499999
 30
0.7100677490234233
 11
48.67384168928007
 21
-34.65624999999999
 31
0.7100677490234233
  0
LINE
  5
7D
  8
ASSEMBLY$PLATFORM
 10
48.67384168928007
 20
-34.65624999999999
 30
0.7100677490234233
 11
44.61596125449746
 21
-33.35351562499999
 31
0.7100677490234233
  0
LINE
  5
7E
  8
ASSEMBLY$PLATFORM
 10
44.61596125449746
 20
-33.35351562499999
 30
0.7100677490234233
 11
40.55808081971485
 21
-32.16406249999999
 31
0.7100677490234233
  0
LINE
  5
7F
  8
ASSEMBLY$PLATFORM
 10
40.55808081971485
 20
-32.16406249999999
 30
0.7100677490234233
 11
36.50020038493223
 21
-31.08789062499999
 31
0.7100677490234233
  0
LINE
  5
80
  8
ASSEMBLY$PLATFORM
 10
36.50020038493223
 20
-31.08789062499999
 30
0.7100677490234233
 11
32.44231995014962
 21
-30.12499999999999
 31
0.7100677490234233
  0
LINE
  5
81
  8
ASSEMBLY$PLATFORM
 10
32.44231995014962
 20
-30.12499999999999
 30
0.7100677490234233
 11
28.38443951536701
 21
-29.27539062499999
 31
0.7100677490234233
  0
LINE
  5
82
  8
ASSEMBLY$PLATFORM
 10
28.38443951536701
 20
-29.27539062499999
 30
0.7100677490234233
 11
24.32655908058441
 21
-28.53906249999999
 31
0.7100677490234233
  0
LINE
  5
83
  8
ASSEMBLY$PLATFORM
 10
24.32655908058441
 20
-28.53906249999999
 30
0.7100677490234233
 11
20.2686786458018
 21
-27.91601562499999
 31
0.7100677490234233
  0
LINE
  5
84
  8
ASSEMBLY$PLATFORM
 10
20.2686786458018
 20
-27.91601562499999
 30
0.7100677490234233
 11
16.21079821101919
 21
-27.40624999999999
 31
0.7100677490234233
  0
LINE
  5
85
  8
ASSEMBLY$PLATFORM
 10
16.21079821101919
 20
-27.40624999999999
 30
0.7100677490234233
 11
12.15291777623658
 21
-27.00976562499999
 31
0.7100677490234233
  0
LINE
  5
86
  8
ASSEMBLY$PLATFORM
 10
12.15291777623658
 20
-27.00976562499999
 30
0.7100677490234233
 11
8.095037341453967
 21
-26.72656249999999
 31
0.7100677490234233
  0
LINE
  5
87
  8
ASSEMBLY$PLATFORM
 10
8.095037341453967
 20
-26.72656249999999
 30
0.7100677490234233
 11
4.037156906671356
 21
-26.55664062499999
 31
0.7100677490234233
  0
LINE
  5
88
  8
ASSEMBLY$PLATFORM
 10
4.037156906671356
 20
-26.55664062499999
 30
0.7100677490234233
 11
-0.0207235281112546
 21
-26.5
 31
0.7100677490234233
  0
LINE
  5
89
  8
ASSEMBLY$PLATFORM
 10
-0.0207235281112546
 20
-26.5
 30
0.7100677490234233
 11
-4.078603962893865
 21
-26.556640625
 31
0.7100677490234233
  0
LINE
  5
8A
  8
ASSEMBLY$PLATFORM
 10
-4.078603962893865
 20
-26.556640625
 30
0.7100677490234233
 11
-8.136484397676476
 21
-26.7265625
 31
0.7100677490234233
  0
LINE
  5
8B
  8
ASSEMBLY$PLATFORM
 10
-8.136484397676476
 20
-26.7265625
 30
0.7100677490234233
 11
-12.19436483245909
 21
-27.009765625
 31
0.7100677490234233
  0
LINE
  5
8C
  8
ASSEMBLY$PLATFORM
 10
-12.19436483245909
 20
-27.009765625
 30
0.7100677490234233
 11
-16.2522452672417
 21
-27.40625
 31
0.7100677490234233
  0
LINE
  5
8D
  8
ASSEMBLY$PLATFORM
 10
-16.2522452672417
 20
-27.40625
 30
0.7100677490234233
 11
-20.31012570202431
 21
-27.916015625
 31
0.7100677490234233
  0
LINE
  5
8E
  8
ASSEMBLY$PLATFORM
 10
-20.31012570202431
 20
-27.916015625
 30
0.7100677490234233
 11
-24.36800613680692
 21
-28.5390625
 31
0.7100677490234233
  0
LINE
  5
8F
  8
ASSEMBLY$PLATFORM
 10
-24.36800613680692
 20
-28.5390625
 30
0.7100677490234233
 11
-28.42588657158954
 21
-29.275390625
 31
0.7100677490234233
  0
LINE
  5
90
  8
ASSEMBLY$PLATFORM
 10
-28.42588657158954
 20
-29.275390625
 30
0.7100677490234233
 11
-32.48376700637215
 21
-30.125
 31
0.7100677490234233
  0
LINE
  5
91
  8
ASSEMBLY$PLATFORM
 10
-32.48376700637215
 20
-30.125
 30
0.7100677490234233
 11
-36.54164744115476
 21
-31.087890625
 31
0.7100677490234233
  0
LINE
  5
92
  8
ASSEMBLY$PLATFORM
 10
-36.54164744115476
 20
-31.087890625
 30
0.7100677490234233
 11
-40.59952787593737
 21
-32.1640625
 31
0.7100677490234233
  0
LINE
  5
93
  8
ASSEMBLY$PLATFORM
 10
-40.59952787593737
 20
-32.1640625
 30
0.7100677490234233
 11
-44.65740831071998
 21
-33.353515625
 31
0.7100677490234233
  0
LINE
  5
94
  8
ASSEMBLY$PLATFORM
 10
-44.65740831071998
 20
-33.353515625
 30
0.7100677490234233
 11
-48.71528874550259
 21
-34.65625
 31
0.7100677490234233
  0
LINE
  5
95
  8
ASSEMBLY$PLATFORM
 10
-48.71528874550259
 20
-34.65625
 30
0.7100677490234233
 11
-52.7731691802852
 21
-36.072265625
 31
0.7100677490234233
  0
LINE
  5
96
  8
ASSEMBLY$PLATFORM
 10
-52.7731691802852
 20
-36.072265625
 30
0.7100677490234233
 11
-56.83104961506781
 21
-37.6015625
 31
0.7100677490234233
  0
LINE
  5
97
  8
ASSEMBLY$PLATFORM
 10
-56.83104961506781
 20
-37.6015625
 30
0.7100677490234233
 11
-60.88893004985042
 21
-39.244140625
 31
0.7100677490234233
  0
LINE
  5
98
  8
ASSEMBLY$PLATFORM
 10
-60.88893004985042
 20
-39.244140625
 30
0.7100677490234233
 11
-64.94681048463303
 21
-41.0
 31
0.7100677490234233
  0
LINE
  5
99
  8
ASSEMBLY$PLATFORM
 10
-64.94681048463303
 20
-41.0
 30
0.7100677490234233
 11
-65.0761088292342
 21
-40.99286730052444
 31
0.7100677490234236
  0
LINE
  5
9A
  8
ASSEMBLY$PLATFORM
 10
-65.0761088292342
 20
-40.99286730052444
 30
0.7100677490234236
 11
-65.20508016558264
 21
-40.98123408433598
 31
0.7100677490234238
  0
LINE
  5
9B
  8
ASSEMBLY$PLATFORM
 10
-65.20508016558264
 20
-40.98123408433598
 30
0.7100677490234238
 11
-65.33356789097985
 21
-40.96511447700001
 31
0.7100677490234242
  0
LINE
  5
9C
  8
ASSEMBLY$PLATFORM
 10
-65.33356789097985
 20
-40.96511447700001
 30
0.7100677490234242
 11
-65.4614159899489
 21
-40.94452805165646
 31
0.7100677490234243
  0
LINE
  5
9D
  8
ASSEMBLY$PLATFORM
 10
-65.4614159899489
 20
-40.94452805165646
 30
0.7100677490234243
 11
-65.58846922367543
 21
-40.91949980525315
 31
0.7100677490234246
  0
LINE
  5
9E
  8
ASSEMBLY$PLATFORM
 10
-65.58846922367543
 20
-40.91949980525315
 30
0.7100677490234246
 11
-65.7145733185059
 21
-40.8900601281934
 31
0.7100677490234247
  0
LINE
  5
9F
  8
ASSEMBLY$PLATFORM
 10
-65.7145733185059
 20
-40.8900601281934
 30
0.7100677490234247
 11
-65.83957515327312
 21
-40.85624476743468
 31
0.7100677490234251
  0
LINE
  5
A0
  8
ASSEMBLY$PLATFORM
 10
-65.83957515327312
 20
-40.85624476743468
 30
0.7100677490234251
 11
-65.96332294522264
 21
-40.81809478308308
 31
0.7100677490234252
  0
LINE
  5
A1
  8
ASSEMBLY$PLATFORM
 10
-65.96332294522264
 20
-40.81809478308308
 30
0.7100677490234252
 11
-66.0856664343143
 21
-40.7756564985363
 31
0.7100677490234253
  0
LINE
  5
A2
  8
ASSEMBLY$PLATFORM
 10
-66.0856664343143
 20
-40.7756564985363
 30
0.7100677490234253
 11
-66.20645706567477
 21
-40.72898144423566
 31
0.7100677490234256
  0
LINE
  5
A3
  8
ASSEMBLY$PLATFORM
 10
-66.20645706567477
 20
-40.72898144423566
 30
0.7100677490234256
 11
-66.32554816997887
 21
-40.67812629509575
 31
0.7100677490234257
  0
LINE
  5
A4
  8
ASSEMBLY$PLATFORM
 10
-66.32554816997887
 20
-40.67812629509575
 30
0.7100677490234257
 11
-66.44279514154249
 21
-40.62315280168708
 31
0.7100677490234258
  0
LINE
  5
A5
  8
ASSEMBLY$PLATFORM
 10
-66.44279514154249
 20
-40.62315280168708
 30
0.7100677490234258
 11
-66.55805561390915
 21
-40.56412771525577
 31
0.7100677490234261
  0
LINE
  5
A6
  8
ASSEMBLY$PLATFORM
 10
-66.55805561390915
 20
-40.56412771525577
 30
0.7100677490234261
 11
-66.67118963271732
 21
-40.50112270667146
 31
0.7100677490234261
  0
LINE
  5
A7
  8
ASSEMBLY$PLATFORM
 10
-66.67118963271732
 20
-40.50112270667146
 30
0.7100677490234261
 11
-66.78205982563955
 21
-40.43421427940107
 31
0.7100677490234262
  0
LINE
  5
A8
  8
ASSEMBLY$PLATFORM
 10
-66.78205982563955
 20
-40.43421427940107
 30
0.7100677490234262
 11
-66.89053156918577
 21
-40.36348367661518
 31
0.7100677490234263
  0
LINE
  5
A9
  8
ASSEMBLY$PLATFORM
 10
-66.89053156918577
 20
-40.36348367661518
 30
0.7100677490234263
 11
-66.99647315216914
 21
-40.28901678253889
 31
0.7100677490234265
  0
LINE
  5
AA
  8
ASSEMBLY$PLATFORM
 10
-66.99647315216914
 20
-40.28901678253889
 30
0.7100677490234265
 11
-67.09975593563588
 21
-40.21090401816718
 31
0.7100677490234265
  0
LINE
  5
AB
  8
ASSEMBLY$PLATFORM
 10
-67.09975593563588
 20
-40.21090401816718
 30
0.7100677490234265
 11
-67.20025450906381
 21
-40.12924023147221
 31
0.7100677490234266
  0
LINE
  5
AC
  8
ASSEMBLY$PLATFORM
 10
-67.20025450906381
 20
-40.12924023147221
 30
0.7100677490234266
 11
-67.29784684264179
 21
-40.04412458223435
 31
0.7100677490234266
  0
LINE
  5
AD
  8
ASSEMBLY$PLATFORM
 10
-67.29784684264179
 20
-40.04412458223435
 30
0.7100677490234266
 11
-67.39241443544385
 21
-39.95566042163781
 31
0.7100677490234266
  0
LINE
  5
AE
  8
ASSEMBLY$PLATFORM
 10
-67.39241443544385
 20
-39.95566042163781
 30
0.7100677490234266
 11
-67.48384245931763
 21
-39.86395516677775
 31
0.7100677490234266
  0
LINE
  5
AF
  8
ASSEMBLY$PLATFORM
 10
-67.48384245931763
 20
-39.86395516677775
 30
0.7100677490234266
 11
-67.57201989831434
 21
-39.76912017022904
 31
0.7100677490234266
  0
LINE
  5
B0
  8
ASSEMBLY$PLATFORM
 10
-67.57201989831434
 20
-39.76912017022904
 30
0.7100677490234266
 11
-67.65683968348901
 21
-39.67127058483742
 31
0.7100677490234266
  0
LINE
  5
B1
  8
ASSEMBLY$PLATFORM
 10
-67.65683968348901
 20
-39.67127058483742
 30
0.7100677490234266
 11
-67.73819882290854
 21
-39.57052522389545
 31
0.7100677490234266
  0
LINE
  5
B2
  8
ASSEMBLY$PLATFORM
 10
-67.73819882290854
 20
-39.57052522389545
 30
0.7100677490234266
 11
-67.81599852670873
 21
-39.46700641687463
 31
0.7100677490234265
  0
LINE
  5
B3
  8
ASSEMBLY$PLATFORM
 10
-67.81599852670873
 20
-39.46700641687463
 30
0.7100677490234265
 11
-67.8901443270495
 21
-39.36083986088726
 31
0.7100677490234265
  0
LINE
  5
B4
  8
ASSEMBLY$PLATFORM
 10
-67.8901443270495
 20
-39.36083986088726
 30
0.7100677490234265
 11
-67.96054619282205
 21
-39.25215446805928
 31
0.7100677490234264
  0
LINE
  5
B5
  8
ASSEMBLY$PLATFORM
 10
-67.96054619282205
 20
-39.25215446805928
 30
0.7100677490234264
 11
-68.02711863896823
 21
-39.14108220900012
 31
0.7100677490234264
  0
LINE
  5
B6
  8
ASSEMBLY$PLATFORM
 10
-68.02711863896823
 20
-39.14108220900012
 30
0.7100677490234264
 11
-68.0897808302807
 21
-39.02775795255732
 31
0.7100677490234263
  0
LINE
  5
B7
  8
ASSEMBLY$PLATFORM
 10
-68.0897808302807
 20
-39.02775795255732
 30
0.7100677490234263
 11
-68.14845667955639
 21
-38.91231930205323
 31
0.7100677490234261
  0
LINE
  5
B8
  8
ASSEMBLY$PLATFORM
 10
-68.14845667955639
 20
-38.91231930205323
 30
0.7100677490234261
 11
-68.2030749399848
 21
-38.79490642820131
 31
0.710067749023426
  0
LINE
  5
B9
  8
ASSEMBLY$PLATFORM
 10
-68.2030749399848
 20
-38.79490642820131
 30
0.710067749023426
 11
-68.25356929165946
 21
-38.67566189890386
 31
0.7100677490234258
  0
LINE
  5
BA
  8
ASSEMBLY$PLATFORM
 10
-68.25356929165946
 20
-38.67566189890386
 30
0.7100677490234258
 11
-68.29987842210602
 21
-38.55473050614054
 31
0.7100677490234256
  0
LINE
  5
BB
  8
ASSEMBLY$PLATFORM
 10
-68.29987842210602
 20
-38.55473050614054
 30
0.7100677490234256
 11
-68.34194610073094
 21
-38.43225909015493
 31
0.7100677490234255
  0
LINE
  5
BC
  8
ASSEMBLY$PLATFORM
 10
-68.34194610073094
 20
-38.43225909015493
 30
0.7100677490234255
 11
-68.37972124709891
 21
-38.30839636115501
 31
0.7100677490234254
  0
LINE
  5
BD
  8
ASSEMBLY$PLATFORM
 10
-68.37972124709891
 20
-38.30839636115501
 30
0.7100677490234254
 11
-68.41315799295707
 21
-38.18329271874276
 31
0.7100677490234252
  0
LINE
  5
BE
  8
ASSEMBLY$PLATFORM
 10
-68.41315799295707
 20
-38.18329271874276
 30
0.7100677490234252
 11
-68.44221573793033
 21
-38.0571000692917
 31
0.710067749023425
  0
LINE
  5
BF
  8
ASSEMBLY$PLATFORM
 10
-68.44221573793033
 20
-38.0571000692917
 30
0.710067749023425
 11
-68.46685919881999
 21
-37.92997164149613
 31
0.7100677490234247
  0
LINE
  5
C0
  8
ASSEMBLY$PLATFORM
 10
-68.46685919881999
 20
-37.92997164149613
 30
0.7100677490234247
 11
-68.48705845244638
 21
-37.80206180031357
 31
0.7100677490234245
  0
LINE
  5
C1
  8
ASSEMBLY$PLATFORM
 10
-68.48705845244638
 20
-37.80206180031357
 30
0.7100677490234245
 11
-68.50278897198262
 21
-37.67352585952839
 31
0.7100677490234243
  0
LINE
  5
C2
  8
ASSEMBLY$PLATFORM
 10
-68.50278897198262
 20
-37.67352585952839
 30
0.7100677490234243
 11
-68.51403165673646
 21
-37.54451989316274
 31
0.7100677490234241
  0
LINE
  5
C3
  8
ASSEMBLY$PLATFORM
 10
-68.51403165673646
 20
-37.54451989316274
 30
0.7100677490234241
 11
-68.52077285534301
 21
-37.41520054596457
 31
0.7100677490234237
  0
LINE
  5
C4
  8
ASSEMBLY$PLATFORM
 10
-68.52077285534301
 20
-37.41520054596457
 30
0.7100677490234237
 11
-68.52300438234084
 21
-37.28572484320275
 31
0.7100677490234236
  0
LINE
  5
C5
  8
ASSEMBLY$PLATFORM
 10
-68.52300438234084
 20
-37.28572484320275
 30
0.7100677490234236
 11
-68.52072352811126
 21
-37.15625
 31
0.7100677490234233
  0
LINE
  5
C6
  8
ASSEMBLY$PLATFORM
 10
-68.52072352811126
 20
-37.15625
 30
0.7100677490234233
 11
-68.52072352811126
 21
37.15625
 31
0.7100677490234233
  0
LINE
  5
C7
  8
ASSEMBLY$PLATFORM
 10
-68.52072352811126
 20
37.15625
 30
0.7100677490234233
 11
-68.52300438234086
 21
37.28572484320282
 31
0.7100677490234236
  0
LINE
  5
C8
  8
ASSEMBLY$PLATFORM
 10
-68.52300438234086
 20
37.28572484320282
 30
0.7100677490234236
 11
-68.52077285534303
 21
37.41520054596464
 31
0.7100677490234241
  0
LINE
  5
C9
  8
ASSEMBLY$PLATFORM
 10
-68.52077285534303
 20
37.41520054596464
 30
0.7100677490234241
 11
-68.51403165673649
 21
37.54451989316274
 31
0.7100677490234243
  0
LINE
  5
CA
  8
ASSEMBLY$PLATFORM
 10
-68.51403165673649
 20
37.54451989316274
 30
0.7100677490234243
 11
-68.50278897198265
 21
37.6735258595284
 31
0.7100677490234246
  0
LINE
  5
CB
  8
ASSEMBLY$PLATFORM
 10
-68.50278897198265
 20
37.6735258595284
 30
0.7100677490234246
 11
-68.48705845244639
 21
37.80206180031357
 31
0.710067749023425
  0
LINE
  5
CC
  8
ASSEMBLY$PLATFORM
 10
-68.48705845244639
 20
37.80206180031357
 30
0.710067749023425
 11
-68.46685919882002
 21
37.92997164149615
 31
0.7100677490234253
  0
LINE
  5
CD
  8
ASSEMBLY$PLATFORM
 10
-68.46685919882002
 20
37.92997164149615
 30
0.7100677490234253
 11
-68.44221573793034
 21
38.05710006929171
 31
0.7100677490234255
  0
LINE
  5
CE
  8
ASSEMBLY$PLATFORM
 10
-68.44221573793034
 20
38.05710006929171
 30
0.7100677490234255
 11
-68.4131579929571
 21
38.18329271874278
 31
0.7100677490234257
  0
LINE
  5
CF
  8
ASSEMBLY$PLATFORM
 10
-68.4131579929571
 20
38.18329271874278
 30
0.7100677490234257
 11
-68.37972124709894
 21
38.30839636115503
 31
0.710067749023426
  0
LINE
  5
D0
  8
ASSEMBLY$PLATFORM
 10
-68.37972124709894
 20
38.30839636115503
 30
0.710067749023426
 11
-68.34194610073096
 21
38.43225909015494
 31
0.7100677490234262
  0
LINE
  5
D1
  8
ASSEMBLY$PLATFORM
 10
-68.34194610073096
 20
38.43225909015494
 30
0.7100677490234262
 11
-68.29987842210608
 21
38.55473050614049
 31
0.7100677490234264
  0
LINE
  5
D2
  8
ASSEMBLY$PLATFORM
 10
-68.29987842210608
 20
38.55473050614049
 30
0.7100677490234264
 11
-68.25356929165949
 21
38.67566189890388
 31
0.7100677490234266
  0
LINE
  5
D3
  8
ASSEMBLY$PLATFORM
 10
-68.25356929165949
 20
38.67566189890388
 30
0.7100677490234266
 11
-68.20307493998483
 21
38.79490642820132
 31
0.7100677490234268
  0
LINE
  5
D4
  8
ASSEMBLY$PLATFORM
 10
-68.20307493998483
 20
38.79490642820132
 30
0.7100677490234268
 11
-68.14845667955642
 21
38.91231930205324
 31
0.710067749023427
  0
LINE
  5
D5
  8
ASSEMBLY$PLATFORM
 10
-68.14845667955642
 20
38.91231930205324
 30
0.710067749023427
 11
-68.08978083028077
 21
39.02775795255727
 31
0.7100677490234271
  0
LINE
  5
D6
  8
ASSEMBLY$PLATFORM
 10
-68.08978083028077
 20
39.02775795255727
 30
0.7100677490234271
 11
-68.02711863896828
 21
39.14108220900014
 31
0.7100677490234273
  0
LINE
  5
D7
  8
ASSEMBLY$PLATFORM
 10
-68.02711863896828
 20
39.14108220900014
 30
0.7100677490234273
 11
-67.96054619282205
 21
39.25215446805937
 31
0.7100677490234274
  0
LINE
  5
D8
  8
ASSEMBLY$PLATFORM
 10
-67.96054619282205
 20
39.25215446805937
 30
0.7100677490234274
 11
-67.89014432704953
 21
39.36083986088728
 31
0.7100677490234274
  0
LINE
  5
D9
  8
ASSEMBLY$PLATFORM
 10
-67.89014432704953
 20
39.36083986088728
 30
0.7100677490234274
 11
-67.81599852670875
 21
39.46700641687465
 31
0.7100677490234275
  0
LINE
  5
DA
  8
ASSEMBLY$PLATFORM
 10
-67.81599852670875
 20
39.46700641687465
 30
0.7100677490234275
 11
-67.73819882290861
 21
39.57052522389542
 31
0.7100677490234276
  0
LINE
  5
DB
  8
ASSEMBLY$PLATFORM
 10
-67.73819882290861
 20
39.57052522389542
 30
0.7100677490234276
 11
-67.65683968348904
 21
39.67127058483744
 31
0.7100677490234276
  0
LINE
  5
DC
  8
ASSEMBLY$PLATFORM
 10
-67.65683968348904
 20
39.67127058483744
 30
0.7100677490234276
 11
-67.57201989831437
 21
39.76912017022907
 31
0.7100677490234276
  0
LINE
  5
DD
  8
ASSEMBLY$PLATFORM
 10
-67.57201989831437
 20
39.76912017022907
 30
0.7100677490234276
 11
-67.48384245931764
 21
39.86395516677777
 31
0.7100677490234276
  0
LINE
  5
DE
  8
ASSEMBLY$PLATFORM
 10
-67.48384245931764
 20
39.86395516677777
 30
0.7100677490234276
 11
-67.39241443544387
 21
39.95566042163784
 31
0.7100677490234276
  0
LINE
  5
DF
  8
ASSEMBLY$PLATFORM
 10
-67.39241443544387
 20
39.95566042163784
 30
0.7100677490234276
 11
-67.29784684264186
 21
40.04412458223433
 31
0.7100677490234276
  0
LINE
  5
E0
  8
ASSEMBLY$PLATFORM
 10
-67.29784684264186
 20
40.04412458223433
 30
0.7100677490234276
 11
-67.2002545090638
 21
40.12924023147229
 31
0.7100677490234275
  0
LINE
  5
E1
  8
ASSEMBLY$PLATFORM
 10
-67.2002545090638
 20
40.12924023147229
 30
0.7100677490234275
 11
-67.09975593563591
 21
40.21090401816721
 31
0.7100677490234274
  0
LINE
  5
E2
  8
ASSEMBLY$PLATFORM
 10
-67.09975593563591
 20
40.21090401816721
 30
0.7100677490234274
 11
-66.99647315216922
 21
40.28901678253888
 31
0.7100677490234274
  0
LINE
  5
E3
  8
ASSEMBLY$PLATFORM
 10
-66.99647315216922
 20
40.28901678253888
 30
0.7100677490234274
 11
-66.8905315691858
 21
40.36348367661521
 31
0.7100677490234273
  0
LINE
  5
E4
  8
ASSEMBLY$PLATFORM
 10
-66.8905315691858
 20
40.36348367661521
 30
0.7100677490234273
 11
-66.78205982563962
 21
40.43421427940106
 31
0.7100677490234272
  0
LINE
  5
E5
  8
ASSEMBLY$PLATFORM
 10
-66.78205982563962
 20
40.43421427940106
 30
0.7100677490234272
 11
-66.67118963271733
 21
40.50112270667149
 31
0.710067749023427
  0
LINE
  5
E6
  8
ASSEMBLY$PLATFORM
 10
-66.67118963271733
 20
40.50112270667149
 30
0.710067749023427
 11
-66.55805561390918
 21
40.56412771525581
 31
0.7100677490234268
  0
LINE
  5
E7
  8
ASSEMBLY$PLATFORM
 10
-66.55805561390918
 20
40.56412771525581
 30
0.7100677490234268
 11
-66.4427951415425
 21
40.62315280168711
 31
0.7100677490234266
  0
LINE
  5
E8
  8
ASSEMBLY$PLATFORM
 10
-66.4427951415425
 20
40.62315280168711
 30
0.7100677490234266
 11
-66.32554816997883
 21
40.67812629509581
 31
0.7100677490234264
  0
LINE
  5
E9
  8
ASSEMBLY$PLATFORM
 10
-66.32554816997883
 20
40.67812629509581
 30
0.7100677490234264
 11
-66.20645706567478
 21
40.72898144423569
 31
0.7100677490234263
  0
LINE
  5
EA
  8
ASSEMBLY$PLATFORM
 10
-66.20645706567478
 20
40.72898144423569
 30
0.7100677490234263
 11
-66.08566643431438
 21
40.77565649853631
 31
0.7100677490234261
  0
LINE
  5
EB
  8
ASSEMBLY$PLATFORM
 10
-66.08566643431438
 20
40.77565649853631
 30
0.7100677490234261
 11
-65.96332294522266
 21
40.8180947830831
 31
0.7100677490234258
  0
LINE
  5
EC
  8
ASSEMBLY$PLATFORM
 10
-65.96332294522266
 20
40.8180947830831
 30
0.7100677490234258
 11
-65.83957515327313
 21
40.8562447674347
 31
0.7100677490234256
  0
LINE
  5
ED
  8
ASSEMBLY$PLATFORM
 10
-65.83957515327313
 20
40.8562447674347
 30
0.7100677490234256
 11
-65.71457331850598
 21
40.89006012819341
 31
0.7100677490234253
  0
LINE
  5
EE
  8
ASSEMBLY$PLATFORM
 10
-65.71457331850598
 20
40.89006012819341
 30
0.7100677490234253
 11
-65.58846922367546
 21
40.91949980525317
 31
0.7100677490234251
  0
LINE
  5
EF
  8
ASSEMBLY$PLATFORM
 10
-65.58846922367546
 20
40.91949980525317
 30
0.7100677490234251
 11
-65.46141598994885
 21
40.94452805165648
 31
0.7100677490234246
  0
LINE
  5
F0
  8
ASSEMBLY$PLATFORM
 10
-65.46141598994885
 20
40.94452805165648
 30
0.7100677490234246
 11
-65.33356789097985
 21
40.96511447700004
 31
0.7100677490234244
  0
LINE
  5
F1
  8
ASSEMBLY$PLATFORM
 10
-65.33356789097985
 20
40.96511447700004
 30
0.7100677490234244
 11
-65.20508016558273
 21
40.98123408433599
 31
0.7100677490234241
  0
LINE
  5
F2
  8
ASSEMBLY$PLATFORM
 10
-65.20508016558273
 20
40.98123408433599
 30
0.7100677490234241
 11
-65.0761088292342
 21
40.99286730052446
 31
0.7100677490234237
  0
LINE
  5
F3
  8
ASSEMBLY$PLATFORM
 10
-65.0761088292342
 20
40.99286730052446
 30
0.7100677490234237
 11
-64.94681048463303
 21
41.00000000000001
 31
0.7100677490234233
  0
LINE
  5
F4
  8
ASSEMBLY$PLATFORM
 10
-64.94681048463303
 20
41.0
 30
0.7100677490234233
 11
-60.88893004985042
 21
39.244140625
 31
0.7100677490234233
  0
LINE
  5
F5
  8
ASSEMBLY$PLATFORM
 10
-60.88893004985042
 20
39.244140625
 30
0.7100677490234233
 11
-56.83104961506781
 21
37.6015625
 31
0.7100677490234233
  0
LINE
  5
F6
  8
ASSEMBLY$PLATFORM
 10
-56.83104961506781
 20
37.6015625
 30
0.7100677490234233
 11
-52.7731691802852
 21
36.072265625
 31
0.7100677490234233
  0
LINE
  5
F7
  8
ASSEMBLY$PLATFORM
 10
-52.7731691802852
 20
36.072265625
 30
0.7100677490234233
 11
-48.71528874550259
 21
34.65625
 31
0.7100677490234233
  0
LINE
  5
F8
  8
ASSEMBLY$PLATFORM
 10
-48.71528874550259
 20
34.65625
 30
0.7100677490234233
 11
-44.65740831071998
 21
33.353515625
 31
0.7100677490234233
  0
LINE
  5
F9
  8
ASSEMBLY$PLATFORM
 10
-44.65740831071998
 20
33.353515625
 30
0.7100677490234233
 11
-40.59952787593737
 21
32.1640625
 31
0.7100677490234233
  0
LINE
  5
FA
  8
ASSEMBLY$PLATFORM
 10
-40.59952787593737
 20
32.1640625
 30
0.7100677490234233
 11
-36.54164744115476
 21
31.087890625
 31
0.7100677490234233
  0
LINE
  5
FB
  8
ASSEMBLY$PLATFORM
 10
-36.54164744115476
 20
31.087890625
 30
0.7100677490234233
 11
-32.48376700637215
 21
30.125
 31
0.7100677490234233
  0
LINE
  5
FC
  8
ASSEMBLY$PLATFORM
 10
-32.48376700637215
 20
30.125
 30
0.7100677490234233
 11
-28.42588657158954
 21
29.27539062500001
 31
0.7100677490234233
  0
LINE
  5
FD
  8
ASSEMBLY$PLATFORM
 10
-28.42588657158954
 20
29.27539062500001
 30
0.7100677490234233
 11
-24.36800613680693
 21
28.53906250000001
 31
0.7100677490234233
  0
LINE
  5
FE
  8
ASSEMBLY$PLATFORM
 10
-24.36800613680693
 20
28.53906250000001
 30
0.7100677490234233
 11
-20.31012570202432
 21
27.91601562500001
 31
0.7100677490234233
  0
LINE
  5
FF
  8
ASSEMBLY$PLATFORM
 10
-20.31012570202432
 20
27.91601562500001
 30
0.7100677490234233
 11
-16.2522452672417
 21
27.40625000000001
 31
0.7100677490234233
  0
LINE
  5
100
  8
ASSEMBLY$PLATFORM
 10
-16.2522452672417
 20
27.40625000000001
 30
0.7100677490234233
 11
-12.19436483245909
 21
27.00976562500001
 31
0.7100677490234233
  0
LINE
  5
101
  8
ASSEMBLY$PLATFORM
 10
-12.19436483245909
 20
27.00976562500001
 30
0.7100677490234233
 11
-8.136484397676483
 21
26.72656250000001
 31
0.7100677490234233
  0
LINE
  5
102
  8
ASSEMBLY$PLATFORM
 10
-8.136484397676483
 20
26.72656250000001
 30
0.7100677490234233
 11
-4.078603962893872
 21
26.55664062500001
 31
0.7100677490234233
  0
LINE
  5
103
  8
ASSEMBLY$PLATFORM
 10
-4.078603962893872
 20
26.55664062500001
 30
0.7100677490234233
 11
-0.0207235281112617
 21
26.50000000000001
 31
0.7100677490234233
  0
LINE
  5
104
  8
ASSEMBLY$PLATFORM
 10
-0.0207235281112617
 20
26.50000000000001
 30
0.7100677490234233
 11
4.037156906671349
 21
26.55664062500001
 31
0.7100677490234233
  0
LINE
  5
105
  8
ASSEMBLY$PLATFORM
 10
4.037156906671349
 20
26.55664062500001
 30
0.7100677490234233
 11
8.09503734145396
 21
26.72656250000001
 31
0.7100677490234233
  0
LINE
  5
106
  8
ASSEMBLY$PLATFORM
 10
8.09503734145396
 20
26.72656250000001
 30
0.7100677490234233
 11
12.15291777623657
 21
27.00976562500001
 31
0.7100677490234233
  0
LINE
  5
107
  8
ASSEMBLY$PLATFORM
 10
12.15291777623657
 20
27.00976562500001
 30
0.7100677490234233
 11
16.21079821101918
 21
27.40625000000001
 31
0.7100677490234233
  0
LINE
  5
108
  8
ASSEMBLY$PLATFORM
 10
16.21079821101918
 20
27.40625000000001
 30
0.7100677490234233
 11
20.26867864580179
 21
27.91601562500001
 31
0.7100677490234233
  0
LINE
  5
109
  8
ASSEMBLY$PLATFORM
 10
20.26867864580179
 20
27.91601562500001
 30
0.7100677490234233
 11
24.3265590805844
 21
28.53906250000001
 31
0.7100677490234233
  0
LINE
  5
10A
  8
ASSEMBLY$PLATFORM
 10
24.3265590805844
 20
28.53906250000001
 30
0.7100677490234233
 11
28.38443951536701
 21
29.27539062500001
 31
0.7100677490234233
  0
LINE
  5
10B
  8
ASSEMBLY$PLATFORM
 10
28.38443951536701
 20
29.27539062500001
 30
0.7100677490234233
 11
32.44231995014962
 21
30.12500000000001
 31
0.7100677490234233
  0
LINE
  5
10C
  8
ASSEMBLY$PLATFORM
 10
32.44231995014962
 20
30.12500000000001
 30
0.7100677490234233
 11
36.50020038493223
 21
31.08789062500001
 31
0.7100677490234233
  0
LINE
  5
10D
  8
ASSEMBLY$PLATFORM
 10
36.50020038493223
 20
31.08789062500001
 30
0.7100677490234233
 11
40.55808081971485
 21
32.16406250000001
 31
0.7100677490234233
  0
LINE
  5
10E
  8
ASSEMBLY$PLATFORM
 10
40.55808081971485
 20
32.16406250000001
 30
0.7100677490234233
 11
44.61596125449746
 21
33.35351562500001
 31
0.7100677490234233
  0
LINE
  5
10F
  8
ASSEMBLY$PLATFORM
 10
44.61596125449746
 20
33.35351562500001
 30
0.7100677490234233
 11
48.67384168928007
 21
34.65625000000001
 31
0.7100677490234233
  0
LINE
  5
110
  8
ASSEMBLY$PLATFORM
 10
48.67384168928007
 20
34.65625000000001
 30
0.7100677490234233
 11
52.73172212406268
 21
36.07226562500001
 31
0.7100677490234233
  0
LINE
  5
111
  8
ASSEMBLY$PLATFORM
 10
52.73172212406268
 20
36.07226562500001
 30
0.7100677490234233
 11
56.78960255884529
 21
37.60156250000001
 31
0.7100677490234233
  0
LINE
  5
112
  8
ASSEMBLY$PLATFORM
 10
56.78960255884529
 20
37.60156250000001
 30
0.7100677490234233
 11
60.8474829936279
 21
39.24414062500001
 31
0.7100677490234233
  0
LINE
  5
113
  8
ASSEMBLY$PLATFORM
 10
60.8474829936279
 20
39.24414062500001
 30
0.7100677490234233
 11
64.90536342841051
 21
41.00000000000001
 31
0.7100677490234233
  0
LINE
  5
114
  8
ASSEMBLY$PLATFORM
 10
64.90536342841051
 20
41.00000000000001
 30
0.7100677490234233
 11
65.03466177301168
 21
40.99286730052447
 31
0.7100677490234236
  0
LINE
  5
115
  8
ASSEMBLY$PLATFORM
 10
65.03466177301168
 20
40.99286730052447
 30
0.7100677490234236
 11
65.16363310936013
 21
40.98123408433601
 31
0.7100677490234241
  0
LINE
  5
116
  8
ASSEMBLY$PLATFORM
 10
65.16363310936013
 20
40.98123408433601
 30
0.7100677490234241
 11
65.29212083475734
 21
40.96511447700004
 31
0.7100677490234243
  0
LINE
  5
117
  8
ASSEMBLY$PLATFORM
 10
65.29212083475734
 20
40.96511447700004
 30
0.7100677490234243
 11
65.41996893372634
 21
40.9445280516565
 31
0.7100677490234246
  0
LINE
  5
118
  8
ASSEMBLY$PLATFORM
 10
65.41996893372634
 20
40.9445280516565
 30
0.7100677490234246
 11
65.54702216745292
 21
40.91949980525319
 31
0.710067749023425
  0
LINE
  5
119
  8
ASSEMBLY$PLATFORM
 10
65.54702216745292
 20
40.91949980525319
 30
0.710067749023425
 11
65.67312626228346
 21
40.89006012819343
 31
0.7100677490234253
  0
LINE
  5
11A
  8
ASSEMBLY$PLATFORM
 10
65.67312626228346
 20
40.89006012819343
 30
0.7100677490234253
 11
65.79812809705064
 21
40.85624476743472
 31
0.7100677490234255
  0
LINE
  5
11B
  8
ASSEMBLY$PLATFORM
 10
65.79812809705064
 20
40.85624476743472
 30
0.7100677490234255
 11
65.92187588900018
 21
40.81809478308312
 31
0.7100677490234257
  0
LINE
  5
11C
  8
ASSEMBLY$PLATFORM
 10
65.92187588900018
 20
40.81809478308312
 30
0.7100677490234257
 11
66.04421937809182
 21
40.77565649853634
 31
0.710067749023426
  0
LINE
  5
11D
  8
ASSEMBLY$PLATFORM
 10
66.04421937809182
 20
40.77565649853634
 30
0.710067749023426
 11
66.16501000945223
 21
40.72898144423573
 31
0.7100677490234262
  0
LINE
  5
11E
  8
ASSEMBLY$PLATFORM
 10
66.16501000945223
 20
40.72898144423573
 30
0.7100677490234262
 11
66.28410111375634
 21
40.67812629509582
 31
0.7100677490234264
  0
LINE
  5
11F
  8
ASSEMBLY$PLATFORM
 10
66.28410111375634
 20
40.67812629509582
 30
0.7100677490234264
 11
66.40134808531997
 21
40.62315280168716
 31
0.7100677490234266
  0
LINE
  5
120
  8
ASSEMBLY$PLATFORM
 10
66.40134808531997
 20
40.62315280168716
 30
0.7100677490234266
 11
66.51660855768668
 21
40.56412771525583
 31
0.7100677490234267
  0
LINE
  5
121
  8
ASSEMBLY$PLATFORM
 10
66.51660855768668
 20
40.56412771525583
 30
0.7100677490234267
 11
66.62974257649486
 21
40.5011227066715
 31
0.710067749023427
  0
LINE
  5
122
  8
ASSEMBLY$PLATFORM
 10
66.62974257649486
 20
40.5011227066715
 30
0.710067749023427
 11
66.74061276941707
 21
40.43421427940113
 31
0.7100677490234271
  0
LINE
  5
123
  8
ASSEMBLY$PLATFORM
 10
66.74061276941707
 20
40.43421427940113
 30
0.7100677490234271
 11
66.8490845129633
 21
40.36348367661523
 31
0.7100677490234273
  0
LINE
  5
124
  8
ASSEMBLY$PLATFORM
 10
66.8490845129633
 20
40.36348367661523
 30
0.7100677490234273
 11
66.9550260959467
 21
40.28901678253892
 31
0.7100677490234274
  0
LINE
  5
125
  8
ASSEMBLY$PLATFORM
 10
66.9550260959467
 20
40.28901678253892
 30
0.7100677490234274
 11
67.0583088794134
 21
40.21090401816725
 31
0.7100677490234274
  0
LINE
  5
126
  8
ASSEMBLY$PLATFORM
 10
67.0583088794134
 20
40.21090401816725
 30
0.7100677490234274
 11
67.15880745284134
 21
40.12924023147227
 31
0.7100677490234275
  0
LINE
  5
127
  8
ASSEMBLY$PLATFORM
 10
67.15880745284134
 20
40.12924023147227
 30
0.7100677490234275
 11
67.25639978641935
 21
40.04412458223437
 31
0.7100677490234276
  0
LINE
  5
128
  8
ASSEMBLY$PLATFORM
 10
67.25639978641935
 20
40.04412458223437
 30
0.7100677490234276
 11
67.35096737922139
 21
39.95566042163787
 31
0.7100677490234276
  0
LINE
  5
129
  8
ASSEMBLY$PLATFORM
 10
67.35096737922139
 20
39.95566042163787
 30
0.7100677490234276
 11
67.44239540309515
 21
39.86395516677781
 31
0.7100677490234275
  0
LINE
  5
12A
  8
ASSEMBLY$PLATFORM
 10
67.44239540309515
 20
39.86395516677781
 30
0.7100677490234275
 11
67.53057284209184
 21
39.76912017022913
 31
0.7100677490234276
  0
LINE
  5
12B
  8
ASSEMBLY$PLATFORM
 10
67.53057284209184
 20
39.76912017022913
 30
0.7100677490234276
 11
67.61539262726656
 21
39.67127058483747
 31
0.7100677490234276
  0
LINE
  5
12C
  8
ASSEMBLY$PLATFORM
 10
67.61539262726656
 20
39.67127058483747
 30
0.7100677490234276
 11
67.69675176668606
 21
39.5705252238955
 31
0.7100677490234275
  0
LINE
  5
12D
  8
ASSEMBLY$PLATFORM
 10
67.69675176668606
 20
39.5705252238955
 30
0.7100677490234275
 11
67.77455147048623
 21
39.4670064168747
 31
0.7100677490234275
  0
LINE
  5
12E
  8
ASSEMBLY$PLATFORM
 10
67.77455147048623
 20
39.4670064168747
 30
0.7100677490234275
 11
67.84869727082703
 21
39.3608398608873
 31
0.7100677490234274
  0
LINE
  5
12F
  8
ASSEMBLY$PLATFORM
 10
67.84869727082703
 20
39.3608398608873
 30
0.7100677490234274
 11
67.91909913659956
 21
39.25215446805938
 31
0.7100677490234273
  0
LINE
  5
130
  8
ASSEMBLY$PLATFORM
 10
67.91909913659956
 20
39.25215446805938
 30
0.7100677490234273
 11
67.98567158274578
 21
39.14108220900015
 31
0.7100677490234272
  0
LINE
  5
131
  8
ASSEMBLY$PLATFORM
 10
67.98567158274578
 20
39.14108220900015
 30
0.7100677490234272
 11
68.04833377405824
 21
39.02775795255734
 31
0.7100677490234272
  0
LINE
  5
132
  8
ASSEMBLY$PLATFORM
 10
68.04833377405824
 20
39.02775795255734
 30
0.7100677490234272
 11
68.1070096233339
 21
38.91231930205331
 31
0.710067749023427
  0
LINE
  5
133
  8
ASSEMBLY$PLATFORM
 10
68.1070096233339
 20
38.91231930205331
 30
0.710067749023427
 11
68.16162788376235
 21
38.79490642820132
 31
0.7100677490234268
  0
LINE
  5
134
  8
ASSEMBLY$PLATFORM
 10
68.16162788376235
 20
38.79490642820132
 30
0.7100677490234268
 11
68.212122235437
 21
38.67566189890391
 31
0.7100677490234266
  0
LINE
  5
135
  8
ASSEMBLY$PLATFORM
 10
68.212122235437
 20
38.67566189890391
 30
0.7100677490234266
 11
68.25843136588355
 21
38.55473050614055
 31
0.7100677490234264
  0
LINE
  5
136
  8
ASSEMBLY$PLATFORM
 10
68.25843136588355
 20
38.55473050614055
 30
0.7100677490234264
 11
68.30049904450847
 21
38.43225909015493
 31
0.7100677490234263
  0
LINE
  5
137
  8
ASSEMBLY$PLATFORM
 10
68.30049904450847
 20
38.43225909015493
 30
0.7100677490234263
 11
68.33827419087642
 21
38.3083963611551
 31
0.7100677490234261
  0
LINE
  5
138
  8
ASSEMBLY$PLATFORM
 10
68.33827419087642
 20
38.3083963611551
 30
0.7100677490234261
 11
68.37171093673457
 21
38.18329271874282
 31
0.7100677490234257
  0
LINE
  5
139
  8
ASSEMBLY$PLATFORM
 10
68.37171093673457
 20
38.18329271874282
 30
0.7100677490234257
 11
68.40076868170783
 21
38.05710006929175
 31
0.7100677490234255
  0
LINE
  5
13A
  8
ASSEMBLY$PLATFORM
 10
68.40076868170783
 20
38.05710006929175
 30
0.7100677490234255
 11
68.42541214259751
 21
37.92997164149615
 31
0.7100677490234252
  0
LINE
  5
13B
  8
ASSEMBLY$PLATFORM
 10
68.42541214259751
 20
37.92997164149615
 30
0.7100677490234252
 11
68.44561139622388
 21
37.80206180031361
 31
0.710067749023425
  0
LINE
  5
13C
  8
ASSEMBLY$PLATFORM
 10
68.44561139622388
 20
37.80206180031361
 30
0.710067749023425
 11
68.46134191576014
 21
37.67352585952839
 31
0.7100677490234245
  0
LINE
  5
13D
  8
ASSEMBLY$PLATFORM
 10
68.46134191576014
 20
37.67352585952839
 30
0.7100677490234245
 11
68.47258460051397
 21
37.54451989316276
 31
0.7100677490234243
  0
LINE
  5
13E
  8
ASSEMBLY$PLATFORM
 10
68.47258460051397
 20
37.54451989316276
 30
0.7100677490234243
 11
68.4793257991205
 21
37.41520054596464
 31
0.710067749023424
  0
LINE
  5
13F
  8
ASSEMBLY$PLATFORM
 10
68.4793257991205
 20
37.41520054596464
 30
0.710067749023424
 11
68.48155732611833
 21
37.28572484320281
 31
0.7100677490234236
  0
LINE
  5
140
  8
ASSEMBLY$PLATFORM
 10
68.48155732611833
 20
37.28572484320281
 30
0.7100677490234236
 11
68.47927647188874
 21
37.15625000000001
 31
0.7100677490234232
  0
LINE
  5
141
  8
ASSEMBLY$PLATFORM
 10
68.47927647188874
 20
37.15625000000001
 30
0.7100677490234232
 11
68.47927647188874
 21
-37.15624999999999
 31
0.7100677490234233
  0
CIRCLE
  5
142
  8
ASSEMBLY$PLATFORM
 10
62.47927647188868
 20
-25.25000095367412
 30
0.7100677490234127
 40
1.499999999999943
  0
CIRCLE
  5
143
  8
ASSEMBLY$PLATFORM
 10
52.47927647188869
 20
-32.25000095367413
 30
0.7100677490234196
 40
1.499999999999936
  0
CIRCLE
  5
144
  8
ASSEMBLY$PLATFORM
 10
62.47927647188868
 20
-32.25000095367412
 30
0.7100677490234162
 40
1.499999999999943
  0
CIRCLE
  5
145
  8
ASSEMBLY$PLATFORM
 10
52.47927647188865
 20
-25.25000095367418
 30
0.7100677490234233
 40
1.499999999999993
  0
CIRCLE
  5
146
  8
ASSEMBLY$PLATFORM
 10
-39.52072352811148
 20
-12.2500009536742
 30
0.710067749023427
 40
1.499999999999993
  0
CIRCLE
  5
147
  8
ASSEMBLY$PLATFORM
 10
-39.52072352811149
 20
-5.250000953674203
 30
0.7100677490234268
 40
1.5
  0
CIRCLE
  5
148
  8
ASSEMBLY$PLATFORM
 10
-39.52072352811149
 20
5.250000953674203
 30
0.7100677490234268
 40
1.5
  0
CIRCLE
  5
149
  8
ASSEMBLY$PLATFORM
 10
-39.52072352811149
 20
12.2500009536742
 30
0.7100677490234304
 40
1.5
  0
CIRCLE
  5
14A
  8
ASSEMBLY$PLATFORM
 10
-29.52072352811149
 20
12.25000095367421
 30
0.7100677490234233
 40
1.500000000000004
  0
CIRCLE
  5
14B
  8
ASSEMBLY$PLATFORM
 10
-29.52072352811149
 20
5.250000953674204
 30
0.7100677490234304
 40
1.5
  0
CIRCLE
  5
14C
  8
ASSEMBLY$PLATFORM
 10
-29.52072352811149
 20
-12.2500009536742
 30
0.7100677490234304
 40
1.500000000000004
  0
CIRCLE
  5
14D
  8
ASSEMBLY$PLATFORM
 10
-29.52072352811149
 20
-5.250000953674203
 30
0.7100677490234304
 40
1.500000000000004
  0
CIRCLE
  5
14E
  8
ASSEMBLY$PLATFORM
 10
52.47927647188867
 20
32.25000095367427
 30
0.7100677490234196
 40
1.49999999999995
  0
CIRCLE
  5
14F
  8
ASSEMBLY$PLATFORM
 10
52.47927647188868
 20
25.25000095367428
 30
0.7100677490234197
 40
1.499999999999943
  0
CIRCLE
  5
150
  8
ASSEMBLY$PLATFORM
 10
62.47927647188862
 20
32.25000095367422
 30
0.7100677490234197
 40
1.500000000000007
  0
CIRCLE
  5
151
  8
ASSEMBLY$PLATFORM
 10
62.47927647188868
 20
25.25000095367427
 30
0.7100677490234162
 40
1.499999999999943
  0
ENDSEC
  0
EOF
