  0
SECTION
  2
HEADER
  9
$ACADVER
  1
AC1009
  9
$DWGCODEPAGE
  3
ansi_1252
  9
$INSBASE
 10
0.0
 20
0.0
 30
0.0
  9
$EXTMIN
 10
-85.34541294069606
 20
556.5758645089603
 30
-0.5000000000000001
  9
$EXTMAX
 10
74.65914890260969
 20
638.5758645089603
 30
-0.5
  9
$LIMMIN
 10
0.0
 20
0.0
  9
$LIMMAX
 10
12.0
 20
9.0
  9
$ORTHOMODE
 70
     0
  9
$REGENMODE
 70
     1
  9
$FILLMODE
 70
     1
  9
$QTEXTMODE
 70
     0
  9
$MIRRTEXT
 70
     1
  9
$DRAGMODE
 70
     2
  9
$LTSCALE
 40
1.0
  9
$OSMODE
 70
    37
  9
$ATTMODE
 70
     1
  9
$TEXTSIZE
 40
0.2
  9
$TRACEWID
 40
0.05
  9
$TEXTSTYLE
  7
STANDARD
  9
$CLAYER
  8
DEFAULT
  9
$CELTYPE
  6
BYLAYER
  9
$CECOLOR
 62
   256
  9
$DIMSCALE
 40
1.0
  9
$DIMASZ
 40
0.18
  9
$DIMEXO
 40
0.0625
  9
$DIMDLI
 40
0.38
  9
$DIMRND
 40
0.0
  9
$DIMDLE
 40
0.0
  9
$DIMEXE
 40
0.18
  9
$DIMTP
 40
0.0
  9
$DIMTM
 40
0.0
  9
$DIMTXT
 40
0.18
  9
$DIMCEN
 40
0.09
  9
$DIMTSZ
 40
0.0
  9
$DIMTOL
 70
     0
  9
$DIMLIM
 70
     0
  9
$DIMTIH
 70
     1
  9
$DIMTOH
 70
     1
  9
$DIMSE1
 70
     0
  9
$DIMSE2
 70
     0
  9
$DIMTAD
 70
     0
  9
$DIMZIN
 70
     0
  9
$DIMBLK
  1

  9
$DIMASO
 70
     1
  9
$DIMSHO
 70
     1
  9
$DIMPOST
  1

  9
$DIMAPOST
  1

  9
$DIMALT
 70
     0
  9
$DIMALTD
 70
     2
  9
$DIMALTF
 40
25.4
  9
$DIMLFAC
 40
1.0
  9
$DIMTOFL
 70
     0
  9
$DIMTVP
 40
0.0
  9
$DIMTIX
 70
     0
  9
$DIMSOXD
 70
     0
  9
$DIMSAH
 70
     0
  9
$DIMBLK1
  1

  9
$DIMBLK2
  1

  9
$DIMSTYLE
  2
STANDARD_ACAD
  9
$DIMCLRD
 70
     0
  9
$DIMCLRE
 70
     0
  9
$DIMCLRT
 70
     0
  9
$DIMTFAC
 40
1.0
  9
$DIMGAP
 40
0.09
  9
$LUNITS
 70
     2
  9
$LUPREC
 70
     3
  9
$SKETCHINC
 40
0.1
  9
$FILLETRAD
 40
0.0
  9
$AUNITS
 70
     0
  9
$AUPREC
 70
     0
  9
$MENU
  1
.
  9
$ELEVATION
 40
0.0
  9
$PELEVATION
 40
0.0
  9
$THICKNESS
 40
0.0
  9
$LIMCHECK
 70
     0
  9
$CHAMFERA
 40
0.0
  9
$CHAMFERB
 40
0.0
  9
$SKPOLY
 70
     0
  9
$TDCREATE
 40
2460258.783103449
  9
$TDUPDATE
 40
2460258.783114178
  9
$TDINDWG
 40
0.0000000116
  9
$TDUSRTIMER
 40
0.0000000116
  9
$USRTIMER
 70
     1
  9
$ANGBASE
 50
0.0
  9
$ANGDIR
 70
     0
  9
$PDMODE
 70
     0
  9
$PDSIZE
 40
0.0
  9
$PLINEWID
 40
0.0
  9
$COORDS
 70
     1
  9
$SPLFRAME
 70
     0
  9
$SPLINETYPE
 70
     6
  9
$SPLINESEGS
 70
     8
  9
$ATTDIA
 70
     0
  9
$ATTREQ
 70
     1
  9
$HANDLING
 70
     1
  9
$HANDSEED
  5
BC
  9
$SURFTAB1
 70
     6
  9
$SURFTAB2
 70
     6
  9
$SURFTYPE
 70
     6
  9
$SURFU
 70
     6
  9
$SURFV
 70
     6
  9
$UCSNAME
  2

  9
$UCSORG
 10
0.0
 20
0.0
 30
0.0
  9
$UCSXDIR
 10
1.0
 20
0.0
 30
0.0
  9
$UCSYDIR
 10
0.0
 20
1.0
 30
0.0
  9
$PUCSNAME
  2

  9
$PUCSORG
 10
0.0
 20
0.0
 30
0.0
  9
$PUCSXDIR
 10
1.0
 20
0.0
 30
0.0
  9
$PUCSYDIR
 10
0.0
 20
1.0
 30
0.0
  9
$USERI1
 70
     0
  9
$USERI2
 70
     0
  9
$USERI3
 70
     0
  9
$USERI4
 70
     0
  9
$USERI5
 70
     0
  9
$USERR1
 40
0.0
  9
$USERR2
 40
0.0
  9
$USERR3
 40
0.0
  9
$USERR4
 40
0.0
  9
$USERR5
 40
0.0
  9
$WORLDVIEW
 70
     1
  9
$SHADEDGE
 70
     3
  9
$SHADEDIF
 70
    70
  9
$TILEMODE
 70
     1
  9
$MAXACTVP
 70
    64
  9
$PLIMCHECK
 70
     0
  9
$PEXTMIN
 10
1.000000000000000E+20
 20
1.000000000000000E+20
 30
1.000000000000000E+20
  9
$PEXTMAX
 10
-1.000000000000000E+20
 20
-1.000000000000000E+20
 30
-1.000000000000000E+20
  9
$PLIMMIN
 10
0.0
 20
0.0
  9
$PLIMMAX
 10
12.0
 20
9.0
  9
$UNITMODE
 70
     0
  9
$VISRETAIN
 70
     1
  9
$PLINEGEN
 70
     0
  9
$PSLTSCALE
 70
     1
  0
ENDSEC
  0
SECTION
  2
TABLES
  0
TABLE
  2
VPORT
 70
     1
  0
VPORT
  2
*ACTIVE
 70
     0
 10
0.0
 20
0.0
 11
1.0
 21
1.0
 12
10.42990654205607
 22
4.5
 13
0.0
 23
0.0
 14
0.5
 24
0.5
 15
0.5
 25
0.5
 16
0.0
 26
0.0
 36
1.0
 17
0.0
 27
0.0
 37
0.0
 40
9.0
 41
1.972972972850329
 42
50.0
 43
0.0
 44
0.0
 50
0.0
 51
0.0
 71
     0
 72
   100
 73
     1
 74
     3
 75
     0
 76
     0
 77
     0
 78
     0
  0
ENDTAB
  0
TABLE
  2
LTYPE
 70
     1
  0
LTYPE
  2
CONTINUOUS
 70
     0
  3
Solid line
 72
    65
 73
     0
 40
0.0
  0
ENDTAB
  0
TABLE
  2
LAYER
 70
     3
  0
LAYER
  2
0
 70
     0
 62
     7
  6
CONTINUOUS
  0
LAYER
  2
ASSEMBLY_PLATFORM
 70
     0
 62
     7
  6
CONTINUOUS
  0
LAYER
  2
DEFAULT
 70
     0
 62
     7
  6
CONTINUOUS
  0
ENDTAB
  0
TABLE
  2
STYLE
 70
     1
  0
STYLE
  2
STANDARD
 70
     0
 40
0.0
 41
1.0
 50
0.0
 71
     0
 42
0.2
  3
txt
  4

  0
ENDTAB
  0
TABLE
  2
VIEW
 70
     0
  0
ENDTAB
  0
TABLE
  2
UCS
 70
     0
  0
ENDTAB
  0
TABLE
  2
APPID
 70
     2
  0
APPID
  2
ACAD
 70
     0
  0
APPID
  2
RHINO
 70
     0
  0
ENDTAB
  0
TABLE
  2
DIMSTYLE
 70
     1
  0
DIMSTYLE
  2
STANDARD_ACAD
 70
     0
  3

  4

  5

  6

  7

 40
1.0
 41
0.18
 42
0.0625
 43
0.38
 44
0.18
 45
0.0
 46
0.0
 47
0.0
 48
0.0
140
0.18
141
0.09
142
0.0
143
25.4
144
1.0
145
0.0
146
1.0
147
0.09
 71
     0
 72
     0
 73
     1
 74
     1
 75
     0
 76
     0
 77
     0
 78
     0
170
     0
171
     2
172
     0
173
     0
174
     0
175
     0
176
     0
177
     0
178
     0
  0
ENDTAB
  0
ENDSEC
  0
SECTION
  2
BLOCKS
  0
BLOCK
  8
0
  2
$MODEL_SPACE
 70
     0
 10
0.0
 20
0.0
 30
0.0
  3
$MODEL_SPACE
  1

  0
ENDBLK
  5
21
  8
0
  0
BLOCK
 67
     1
  8
0
  2
$PAPER_SPACE
 70
     0
 10
0.0
 20
0.0
 30
0.0
  3
$PAPER_SPACE
  1

  0
ENDBLK
  5
1D
 67
     1
  8
0
  0
ENDSEC
  0
SECTION
  2
ENTITIES
  0
CIRCLE
  5
60
  8
ASSEMBLY_PLATFORM
 10
56.34313201904313
 20
572.3258635552861
 30
0.5
 40
1.49999999999995
210
0.0
220
0.0
230
-1.0
  0
CIRCLE
  5
61
  8
ASSEMBLY_PLATFORM
 10
56.34313201904309
 20
565.3258635552861
 30
0.5
 40
1.499999999999993
210
0.0
220
0.0
230
-1.0
  0
CIRCLE
  5
62
  8
ASSEMBLY_PLATFORM
 10
46.34313201904315
 20
572.3258635552862
 30
0.5
 40
1.499999999999929
210
0.0
220
0.0
230
-1.0
  0
CIRCLE
  5
63
  8
ASSEMBLY_PLATFORM
 10
46.34313201904311
 20
565.3258635552861
 30
0.5
 40
1.499999999999972
210
0.0
220
0.0
230
-1.0
  0
CIRCLE
  5
64
  8
ASSEMBLY_PLATFORM
 10
-35.65686798095714
 20
602.8258654626344
 30
0.5
 40
1.500000000000114
210
0.0
220
0.0
230
-1.0
  0
CIRCLE
  5
65
  8
ASSEMBLY_PLATFORM
 10
-35.65686798095714
 20
609.8258654626344
 30
0.5
 40
1.500000000000114
210
0.0
220
0.0
230
-1.0
  0
CIRCLE
  5
66
  8
ASSEMBLY_PLATFORM
 10
-35.65686798095714
 20
592.325863555286
 30
0.5
 40
1.500000000000114
210
0.0
220
0.0
230
-1.0
  0
CIRCLE
  5
67
  8
ASSEMBLY_PLATFORM
 10
-35.65686798095703
 20
585.3258635552861
 30
0.5
 40
1.5
210
0.0
220
0.0
230
-1.0
  0
CIRCLE
  5
68
  8
ASSEMBLY_PLATFORM
 10
-45.65686798095702
 20
585.3258635552861
 30
0.5
 40
1.499999999999993
210
0.0
220
0.0
230
-1.0
  0
CIRCLE
  5
69
  8
ASSEMBLY_PLATFORM
 10
-45.65686798095702
 20
592.3258635552861
 30
0.5
 40
1.499999999999993
210
0.0
220
0.0
230
-1.0
  0
CIRCLE
  5
6A
  8
ASSEMBLY_PLATFORM
 10
-45.65686798095702
 20
602.8258654626345
 30
0.5
 40
1.499999999999993
210
0.0
220
0.0
230
-1.0
  0
CIRCLE
  5
6B
  8
ASSEMBLY_PLATFORM
 10
-45.65686798095702
 20
609.8258654626345
 30
0.5
 40
1.499999999999993
210
0.0
220
0.0
230
-1.0
  0
CIRCLE
  5
6C
  8
ASSEMBLY_PLATFORM
 10
46.34313201904309
 20
622.8258654626345
 30
0.5
 40
1.500000000000007
210
0.0
220
0.0
230
-1.0
  0
CIRCLE
  5
6D
  8
ASSEMBLY_PLATFORM
 10
56.34313201904317
 20
629.8258654626346
 30
0.5
 40
1.499999999999915
210
0.0
220
0.0
230
-1.0
  0
CIRCLE
  5
6E
  8
ASSEMBLY_PLATFORM
 10
46.34313201904311
 20
629.8258654626345
 30
0.5
 40
1.499999999999972
210
0.0
220
0.0
230
-1.0
  0
CIRCLE
  5
6F
  8
ASSEMBLY_PLATFORM
 10
56.34313201904309
 20
622.8258654626345
 30
0.5
 40
1.499999999999993
210
0.0
220
0.0
230
-1.0
  0
CIRCLE
  5
70
  8
ASSEMBLY_PLATFORM
 10
77.34313201904313
 20
622.8258654626345
 30
0.5
 40
1.499999999999957
210
0.0
220
0.0
230
-1.0
  0
CIRCLE
  5
71
  8
ASSEMBLY_PLATFORM
 10
77.34313201904313
 20
572.3258635552861
 30
0.5
 40
1.499999999999957
210
0.0
220
0.0
230
-1.0
  0
LINE
  5
72
  8
ASSEMBLY_PLATFORM
 10
-66.86385554715446
 20
602.5758645089603
 30
-0.5
 11
-66.86385554715446
 21
592.5758645089603
 31
-0.5
  0
LINE
  5
73
  8
ASSEMBLY_PLATFORM
 10
-66.86385554715446
 20
592.5758645089603
 30
-0.5
 11
-72.86385554715446
 21
592.5758645089603
 31
-0.5
  0
LINE
  5
74
  8
ASSEMBLY_PLATFORM
 10
-72.86385554715446
 20
592.5758645089603
 30
-0.5
 11
-72.86385554715446
 21
602.5758645089603
 31
-0.5
  0
LINE
  5
75
  8
ASSEMBLY_PLATFORM
 10
-72.86385554715446
 20
602.5758645089603
 30
-0.5
 11
-66.86385554715446
 21
602.5758645089603
 31
-0.5
  0
LINE
  5
76
  8
ASSEMBLY_PLATFORM
 10
27.13614445284554
 20
602.5758645089603
 30
-0.5
 11
27.13614445284554
 21
592.5758645089603
 31
-0.5
  0
LINE
  5
77
  8
ASSEMBLY_PLATFORM
 10
27.13614445284554
 20
592.5758645089603
 30
-0.5
 11
21.13614445284554
 21
592.5758645089603
 31
-0.5
  0
LINE
  5
78
  8
ASSEMBLY_PLATFORM
 10
21.13614445284554
 20
592.5758645089603
 30
-0.5
 11
21.13614445284554
 21
602.5758645089603
 31
-0.5
  0
LINE
  5
79
  8
ASSEMBLY_PLATFORM
 10
21.13614445284554
 20
602.5758645089603
 30
-0.5
 11
27.13614445284554
 21
602.5758645089603
 31
-0.5
  0
LINE
  5
7A
  8
ASSEMBLY_PLATFORM
 10
74.65686798095687
 20
603.8836767141426
 30
-0.5
 11
74.6568679809568
 21
634.7321145089603
 31
-0.5
  0
ARC
  5
7B
  8
ASSEMBLY_PLATFORM
 10
70.94294316356242
 20
634.8622972484825
 30
-0.5
 40
3.716205739047211
 50
357.9924556182045
 51
87.8408130845413
  0
LINE
  5
7C
  8
ASSEMBLY_PLATFORM
 10
71.08295493747858
 20
638.5758645089603
 30
-0.5
 11
67.00261356519596
 21
637.4635423000799
 31
-0.5
  0
LINE
  5
7D
  8
ASSEMBLY_PLATFORM
 10
67.00261356519596
 20
637.4635423000799
 30
-0.5
 11
62.87735031791335
 21
636.4229828143531
 31
-0.5
  0
LINE
  5
7E
  8
ASSEMBLY_PLATFORM
 10
62.87735031791335
 20
636.4229828143531
 30
-0.5
 11
58.70716519563074
 21
635.4541860517799
 31
-0.5
  0
LINE
  5
7F
  8
ASSEMBLY_PLATFORM
 10
58.70716519563074
 20
635.4541860517799
 30
-0.5
 11
54.49205819834813
 21
634.5571520123602
 31
-0.5
  0
LINE
  5
80
  8
ASSEMBLY_PLATFORM
 10
54.49205819834813
 20
634.5571520123602
 30
-0.5
 11
50.23202932606552
 21
633.7318806960941
 31
-0.5
  0
LINE
  5
81
  8
ASSEMBLY_PLATFORM
 10
50.23202932606552
 20
633.7318806960941
 30
-0.5
 11
45.92707857878291
 21
632.9783721029817
 31
-0.5
  0
LINE
  5
82
  8
ASSEMBLY_PLATFORM
 10
45.92707857878291
 20
632.9783721029817
 30
-0.5
 11
41.57720595650029
 21
632.2966262330226
 31
-0.5
  0
LINE
  5
83
  8
ASSEMBLY_PLATFORM
 10
41.57720595650029
 20
632.2966262330226
 30
-0.5
 11
37.18241145921768
 21
631.6866430862173
 31
-0.5
  0
LINE
  5
84
  8
ASSEMBLY_PLATFORM
 10
37.18241145921768
 20
631.6866430862173
 30
-0.5
 11
28.25805683965246
 21
630.6819649620672
 31
-0.5
  0
LINE
  5
85
  8
ASSEMBLY_PLATFORM
 10
28.25805683965246
 20
630.6819649620672
 30
-0.5
 11
19.15401472008724
 21
629.9643377305315
 31
-0.5
  0
LINE
  5
86
  8
ASSEMBLY_PLATFORM
 10
19.15401472008724
 20
629.9643377305315
 30
-0.5
 11
9.870285100522013
 21
629.5337613916101
 31
-0.5
  0
LINE
  5
87
  8
ASSEMBLY_PLATFORM
 10
9.870285100522013
 20
629.5337613916101
 30
-0.5
 11
0.4068679809567897
 21
629.390235945303
 31
-0.5
  0
LINE
  5
88
  8
ASSEMBLY_PLATFORM
 10
0.4068679809567897
 20
629.390235945303
 30
-0.5
 11
-9.236236638608434
 21
629.5337613916101
 31
-0.5
  0
LINE
  5
89
  8
ASSEMBLY_PLATFORM
 10
-9.236236638608434
 20
629.5337613916101
 30
-0.5
 11
-19.05902875817366
 21
629.9643377305315
 31
-0.5
  0
LINE
  5
8A
  8
ASSEMBLY_PLATFORM
 10
-19.05902875817366
 20
629.9643377305315
 30
-0.5
 11
-29.06150837773888
 21
630.6819649620672
 31
-0.5
  0
LINE
  5
8B
  8
ASSEMBLY_PLATFORM
 10
-29.06150837773888
 20
630.6819649620672
 30
-0.5
 11
-39.2436754973041
 21
631.6866430862173
 31
-0.5
  0
LINE
  5
8C
  8
ASSEMBLY_PLATFORM
 10
-39.2436754973041
 20
631.6866430862173
 30
-0.5
 11
-49.60553011686933
 21
632.9783721029817
 31
-0.5
  0
LINE
  5
8D
  8
ASSEMBLY_PLATFORM
 10
-49.60553011686933
 20
632.9783721029817
 30
-0.5
 11
-60.14707223643455
 21
634.5571520123602
 31
-0.5
  0
LINE
  5
8E
  8
ASSEMBLY_PLATFORM
 10
-60.14707223643455
 20
634.5571520123602
 30
-0.5
 11
-70.86830185599977
 21
636.4229828143531
 31
-0.5
  0
LINE
  5
8F
  8
ASSEMBLY_PLATFORM
 10
-70.86830185599977
 20
636.4229828143531
 30
-0.5
 11
-81.769218975565
 21
638.5758645089603
 31
-0.5
  0
ARC
  5
90
  8
ASSEMBLY_PLATFORM
 10
-81.62920720164905
 20
634.8622972484828
 30
-0.5
 40
3.716205739046921
 50
92.15918691545563
 51
182.0075443818009
  0
LINE
  5
91
  8
ASSEMBLY_PLATFORM
 10
-85.34313201904322
 20
634.7321145089603
 30
-0.5
 11
-85.34313201904322
 21
560.4196145089603
 31
-0.5
  0
ARC
  5
92
  8
ASSEMBLY_PLATFORM
 10
-81.62920720164914
 20
560.2894317694378
 30
-0.5
 40
3.716205739046924
 50
177.9924556181991
 51
267.8408130845457
  0
LINE
  5
93
  8
ASSEMBLY_PLATFORM
 10
-81.769218975565
 20
556.5758645089603
 30
-0.5
 11
-70.86830185599976
 21
558.7287462035675
 31
-0.5
  0
LINE
  5
94
  8
ASSEMBLY_PLATFORM
 10
-70.86830185599976
 20
558.7287462035675
 30
-0.5
 11
-60.14707223643455
 21
560.5945770055604
 31
-0.5
  0
LINE
  5
95
  8
ASSEMBLY_PLATFORM
 10
-60.14707223643455
 20
560.5945770055604
 30
-0.5
 11
-49.60553011686932
 21
562.173356914939
 31
-0.5
  0
LINE
  5
96
  8
ASSEMBLY_PLATFORM
 10
-49.60553011686932
 20
562.173356914939
 30
-0.5
 11
-39.2436754973041
 21
563.4650859317034
 31
-0.5
  0
LINE
  5
97
  8
ASSEMBLY_PLATFORM
 10
-39.2436754973041
 20
563.4650859317034
 30
-0.5
 11
-29.06150837773887
 21
564.4697640558534
 31
-0.5
  0
LINE
  5
98
  8
ASSEMBLY_PLATFORM
 10
-29.06150837773887
 20
564.4697640558534
 30
-0.5
 11
-19.05902875817365
 21
565.1873912873891
 31
-0.5
  0
LINE
  5
99
  8
ASSEMBLY_PLATFORM
 10
-19.05902875817365
 20
565.1873912873891
 30
-0.5
 11
-9.236236638608426
 21
565.6179676263105
 31
-0.5
  0
LINE
  5
9A
  8
ASSEMBLY_PLATFORM
 10
-9.236236638608426
 20
565.6179676263105
 30
-0.5
 11
0.4068679809567968
 21
565.7614930726177
 31
-0.5
  0
LINE
  5
9B
  8
ASSEMBLY_PLATFORM
 10
0.4068679809567968
 20
565.7614930726177
 30
-0.5
 11
9.87028510052202
 21
565.6179676263105
 31
-0.5
  0
LINE
  5
9C
  8
ASSEMBLY_PLATFORM
 10
9.87028510052202
 20
565.6179676263105
 30
-0.5
 11
19.15401472008724
 21
565.1873912873891
 31
-0.5
  0
LINE
  5
9D
  8
ASSEMBLY_PLATFORM
 10
19.15401472008724
 20
565.1873912873891
 30
-0.5
 11
28.25805683965247
 21
564.4697640558534
 31
-0.5
  0
LINE
  5
9E
  8
ASSEMBLY_PLATFORM
 10
28.25805683965247
 20
564.4697640558534
 30
-0.5
 11
37.18241145921769
 21
563.4650859317034
 31
-0.5
  0
LINE
  5
9F
  8
ASSEMBLY_PLATFORM
 10
37.18241145921769
 20
563.4650859317034
 30
-0.5
 11
41.5772059565003
 21
562.855102784898
 31
-0.5
  0
LINE
  5
A0
  8
ASSEMBLY_PLATFORM
 10
41.5772059565003
 20
562.855102784898
 30
-0.5
 11
45.92707857878291
 21
562.173356914939
 31
-0.5
  0
LINE
  5
A1
  8
ASSEMBLY_PLATFORM
 10
45.92707857878291
 20
562.173356914939
 30
-0.5
 11
50.23202932606552
 21
561.4198483218265
 31
-0.5
  0
LINE
  5
A2
  8
ASSEMBLY_PLATFORM
 10
50.23202932606552
 20
561.4198483218265
 30
-0.5
 11
54.49205819834813
 21
560.5945770055604
 31
-0.5
  0
LINE
  5
A3
  8
ASSEMBLY_PLATFORM
 10
54.49205819834813
 20
560.5945770055604
 30
-0.5
 11
58.70716519563074
 21
559.6975429661408
 31
-0.5
  0
LINE
  5
A4
  8
ASSEMBLY_PLATFORM
 10
58.70716519563074
 20
559.6975429661408
 30
-0.5
 11
62.87735031791335
 21
558.7287462035675
 31
-0.5
  0
LINE
  5
A5
  8
ASSEMBLY_PLATFORM
 10
62.87735031791335
 20
558.7287462035675
 30
-0.5
 11
67.00261356519596
 21
557.6881867178407
 31
-0.5
  0
LINE
  5
A6
  8
ASSEMBLY_PLATFORM
 10
67.00261356519596
 20
557.6881867178407
 30
-0.5
 11
71.08295493747858
 21
556.5758645089603
 31
-0.5
  0
ARC
  5
A7
  8
ASSEMBLY_PLATFORM
 10
70.94294316356253
 20
560.289431769438
 30
-0.5
 40
3.716205739047152
 50
272.159186915457
 51
2.007544381797238
  0
LINE
  5
A8
  8
ASSEMBLY_PLATFORM
 10
74.6568679809568
 20
560.4196145089603
 30
-0.5
 11
74.65686798095687
 21
591.8836767141427
 31
-0.5
  0
ARC
  5
A9
  8
ASSEMBLY_PLATFORM
 10
73.65686798095666
 20
591.8836767141416
 30
-0.5
 40
1.000000000000213
 50
0.000000000058624
 51
89.99999999999022
  0
LINE
  5
AA
  8
ASSEMBLY_PLATFORM
 10
73.65686798095683
 20
592.8836767141418
 30
-0.5
 11
72.21029562777396
 21
592.8836767141418
 31
-0.5
  0
LINE
  5
AB
  8
ASSEMBLY_PLATFORM
 10
72.21029562777396
 20
592.8836767141418
 30
-0.5
 11
72.21029562777396
 21
602.8836767141418
 31
-0.5
  0
LINE
  5
AC
  8
ASSEMBLY_PLATFORM
 10
72.21029562777396
 20
602.8836767141418
 30
-0.5
 11
73.65686798095683
 21
602.8836767141418
 31
-0.5
  0
ARC
  5
AD
  8
ASSEMBLY_PLATFORM
 10
73.6568679809567
 20
603.883676714142
 30
-0.5000000000000001
 40
1.000000000000227
 50
270.0000000000073
 51
0.0000000000325689
  0
LINE
  5
AE
  8
ASSEMBLY_PLATFORM
 10
-6.024910357285282
 20
592.5758645089603
 30
-0.5
 11
-10.86385554715446
 21
592.5758645089603
 31
-0.5
  0
LINE
  5
AF
  8
ASSEMBLY_PLATFORM
 10
-10.86385554715446
 20
592.5758645089603
 30
-0.5
 11
-10.86385554715446
 21
602.5758645089603
 31
-0.5
  0
LINE
  5
B0
  8
ASSEMBLY_PLATFORM
 10
-10.86385554715446
 20
602.5758645089603
 30
-0.5
 11
-6.024910357288832
 21
602.5758645089603
 31
-0.5
  0
ARC
  5
B1
  8
ASSEMBLY_PLATFORM
 10
-3.035769369977465
 20
597.5758645089603
 30
0.5
 40
10.34871572322044
 50
28.89145020115256
 51
331.1085497988374
210
0.0
220
0.0
230
-1.0
  0
CIRCLE
  5
B3
  8
DEFAULT
 10
3.035769370065054
 20
616.8162710176671
 30
-0.5
 40
1.500000000000052
  0
CIRCLE
  5
B4
  8
DEFAULT
 10
-3.035769370065168
 20
578.3354580002535
 30
0.5
 40
1.499999999999938
210
0.0
220
0.0
230
-1.0
  0
ENDSEC
  0
EOF
