<?xml version="1.0" encoding="utf-8" standalone="no"?>
<!DOCTYPE svg PUBLIC "-//W3C//DTD SVG 1.1//EN" "http://www.w3.org/Graphics/SVG/1.1/DTD/svg11.dtd">
<svg version="1.1" width="612pt" height="792pt" viewBox="0 0 612 792" overflow="visible" xmlns="http://www.w3.org/2000/svg">
  <path d="M221.353,346.0955 L252.354,346.0955 C255.9921,349.5968 258.6306,355.4943 258.6306,361.3918 C258.6306,367.2893 255.9921,373.1868 252.354,376.6881 L221.353,376.6881 C217.7148,373.1868 215.0764,367.2893 215.0764,361.3918 C215.0764,355.4943 217.7148,349.5968 221.353,346.0955 z" stroke="#000000" stroke-width="0.24" fill="none" />
  <path d="M215.0764,376.6881 L258.6306,376.6881 L258.6306,346.0956 L215.0764,346.0956 z" stroke="#000000" stroke-width="0.24" fill="none" />
  <text x="280.507474943746" y="361.300882355921" transform="rotate(-90 280.507474943746,361.300882355921)" font-family="Arial" text-anchor="middle" fill="#000000" font-size="11.2009525299072">3.80</text>
  <polygon fill="#000000" fill-opacity="1" points="282.7827,346.0956 284.7953,338.0449 280.77,338.0449" xmlns="" />
  <polygon fill="#000000" fill-opacity="1" points="282.7827,376.6881 280.77,384.7388 284.7953,384.7388" xmlns="" />
  <path d="M262.656,346.0956 L286.808,346.0956" stroke="#000000" stroke-width="0.24" fill="none" />
  <path d="M262.656,376.6881 L286.808,376.6881" stroke="#000000" stroke-width="0.24" fill="none" />
  <path d="M282.7827,334.0195 L282.7827,388.7642" stroke="#000000" stroke-width="0.24" fill="none" />
  <text x="236.900715118356" y="327.89398952873" font-family="Arial" text-anchor="middle" fill="#000000" font-size="11.2009525299072">5.41</text>
  <polygon fill="#000000" fill-opacity="1" points="215.0764,329.9942 223.1271,332.0068 223.1271,327.9815" xmlns="" />
  <polygon fill="#000000" fill-opacity="1" points="258.6306,329.9942 250.5799,327.9815 250.5799,332.0068" xmlns="" />
  <path d="M215.0764,342.0702 L215.0764,325.9688" stroke="#000000" stroke-width="0.24" fill="none" />
  <path d="M258.6306,342.0702 L258.6306,325.9688" stroke="#000000" stroke-width="0.24" fill="none" />
  <path d="M215.0764,329.9942 L258.6306,329.9942" stroke="#000000" stroke-width="0.24" fill="none" />
</svg>