  0
SECTION
  2
HEADER
  9
$ACADVER
  1
AC1009
  9
$DWGCODEPAGE
  3
ansi_1252
  9
$INSBASE
 10
0.0
 20
0.0
 30
0.0
  9
$EXTMIN
 10
-1629.445588486117
 20
-316.3259672540428
 30
-0.7293238221600248
  9
$EXTMAX
 10
-1539.445588486117
 20
-248.3259672540422
 30
-0.7293238221600237
  9
$LIMMIN
 10
0.0
 20
0.0
  9
$LIMMAX
 10
12.0
 20
9.0
  9
$ORTHOMODE
 70
     0
  9
$REGENMODE
 70
     1
  9
$FILLMODE
 70
     1
  9
$QTEXTMODE
 70
     0
  9
$MIRRTEXT
 70
     1
  9
$DRAGMODE
 70
     2
  9
$LTSCALE
 40
1.0
  9
$OSMODE
 70
    37
  9
$ATTMODE
 70
     1
  9
$TEXTSIZE
 40
0.2
  9
$TRACEWID
 40
0.05
  9
$TEXTSTYLE
  7
STANDARD
  9
$CLAYER
  8
DEFAULT
  9
$CELTYPE
  6
BYLAYER
  9
$CECOLOR
 62
   256
  9
$DIMSCALE
 40
1.0
  9
$DIMASZ
 40
0.18
  9
$DIMEXO
 40
0.0625
  9
$DIMDLI
 40
0.38
  9
$DIMRND
 40
0.0
  9
$DIMDLE
 40
0.0
  9
$DIMEXE
 40
0.18
  9
$DIMTP
 40
0.0
  9
$DIMTM
 40
0.0
  9
$DIMTXT
 40
0.18
  9
$DIMCEN
 40
0.09
  9
$DIMTSZ
 40
0.0
  9
$DIMTOL
 70
     0
  9
$DIMLIM
 70
     0
  9
$DIMTIH
 70
     1
  9
$DIMTOH
 70
     1
  9
$DIMSE1
 70
     0
  9
$DIMSE2
 70
     0
  9
$DIMTAD
 70
     0
  9
$DIMZIN
 70
     0
  9
$DIMBLK
  1

  9
$DIMASO
 70
     1
  9
$DIMSHO
 70
     1
  9
$DIMPOST
  1

  9
$DIMAPOST
  1

  9
$DIMALT
 70
     0
  9
$DIMALTD
 70
     2
  9
$DIMALTF
 40
25.4
  9
$DIMLFAC
 40
1.0
  9
$DIMTOFL
 70
     0
  9
$DIMTVP
 40
0.0
  9
$DIMTIX
 70
     0
  9
$DIMSOXD
 70
     0
  9
$DIMSAH
 70
     0
  9
$DIMBLK1
  1

  9
$DIMBLK2
  1

  9
$DIMSTYLE
  2
STANDARD_ACAD
  9
$DIMCLRD
 70
     0
  9
$DIMCLRE
 70
     0
  9
$DIMCLRT
 70
     0
  9
$DIMTFAC
 40
1.0
  9
$DIMGAP
 40
0.09
  9
$LUNITS
 70
     2
  9
$LUPREC
 70
     3
  9
$SKETCHINC
 40
0.1
  9
$FILLETRAD
 40
0.0
  9
$AUNITS
 70
     0
  9
$AUPREC
 70
     0
  9
$MENU
  1
.
  9
$ELEVATION
 40
0.0
  9
$PELEVATION
 40
0.0
  9
$THICKNESS
 40
0.0
  9
$LIMCHECK
 70
     0
  9
$CHAMFERA
 40
0.0
  9
$CHAMFERB
 40
0.0
  9
$SKPOLY
 70
     0
  9
$TDCREATE
 40
2460027.994319722
  9
$TDUPDATE
 40
2460027.994332685
  9
$TDINDWG
 40
0.0000000116
  9
$TDUSRTIMER
 40
0.0000000116
  9
$USRTIMER
 70
     1
  9
$ANGBASE
 50
0.0
  9
$ANGDIR
 70
     0
  9
$PDMODE
 70
     0
  9
$PDSIZE
 40
0.0
  9
$PLINEWID
 40
0.0
  9
$COORDS
 70
     1
  9
$SPLFRAME
 70
     0
  9
$SPLINETYPE
 70
     6
  9
$SPLINESEGS
 70
     8
  9
$ATTDIA
 70
     0
  9
$ATTREQ
 70
     1
  9
$HANDLING
 70
     1
  9
$HANDSEED
  5
149
  9
$SURFTAB1
 70
     6
  9
$SURFTAB2
 70
     6
  9
$SURFTYPE
 70
     6
  9
$SURFU
 70
     6
  9
$SURFV
 70
     6
  9
$UCSNAME
  2

  9
$UCSORG
 10
0.0
 20
0.0
 30
0.0
  9
$UCSXDIR
 10
1.0
 20
0.0
 30
0.0
  9
$UCSYDIR
 10
0.0
 20
1.0
 30
0.0
  9
$PUCSNAME
  2

  9
$PUCSORG
 10
0.0
 20
0.0
 30
0.0
  9
$PUCSXDIR
 10
1.0
 20
0.0
 30
0.0
  9
$PUCSYDIR
 10
0.0
 20
1.0
 30
0.0
  9
$USERI1
 70
     0
  9
$USERI2
 70
     0
  9
$USERI3
 70
     0
  9
$USERI4
 70
     0
  9
$USERI5
 70
     0
  9
$USERR1
 40
0.0
  9
$USERR2
 40
0.0
  9
$USERR3
 40
0.0
  9
$USERR4
 40
0.0
  9
$USERR5
 40
0.0
  9
$WORLDVIEW
 70
     1
  9
$SHADEDGE
 70
     3
  9
$SHADEDIF
 70
    70
  9
$TILEMODE
 70
     1
  9
$MAXACTVP
 70
    64
  9
$PLIMCHECK
 70
     0
  9
$PEXTMIN
 10
1.000000000000000E+20
 20
1.000000000000000E+20
 30
1.000000000000000E+20
  9
$PEXTMAX
 10
-1.000000000000000E+20
 20
-1.000000000000000E+20
 30
-1.000000000000000E+20
  9
$PLIMMIN
 10
0.0
 20
0.0
  9
$PLIMMAX
 10
12.0
 20
9.0
  9
$UNITMODE
 70
     0
  9
$VISRETAIN
 70
     1
  9
$PLINEGEN
 70
     0
  9
$PSLTSCALE
 70
     1
  0
ENDSEC
  0
SECTION
  2
TABLES
  0
TABLE
  2
VPORT
 70
     1
  0
VPORT
  2
*ACTIVE
 70
     0
 10
0.0
 20
0.0
 11
1.0
 21
1.0
 12
10.42990654205607
 22
4.5
 13
0.0
 23
0.0
 14
0.5
 24
0.5
 15
0.5
 25
0.5
 16
0.0
 26
0.0
 36
1.0
 17
0.0
 27
0.0
 37
0.0
 40
9.0
 41
1.972972972850329
 42
50.0
 43
0.0
 44
0.0
 50
0.0
 51
0.0
 71
     0
 72
   100
 73
     1
 74
     3
 75
     0
 76
     0
 77
     0
 78
     0
  0
ENDTAB
  0
TABLE
  2
LTYPE
 70
     1
  0
LTYPE
  2
CONTINUOUS
 70
     0
  3
Solid line
 72
    65
 73
     0
 40
0.0
  0
ENDTAB
  0
TABLE
  2
LAYER
 70
     2
  0
LAYER
  2
0
 70
     0
 62
     7
  6
CONTINUOUS
  0
LAYER
  2
DEFAULT
 70
     0
 62
     7
  6
CONTINUOUS
  0
ENDTAB
  0
TABLE
  2
STYLE
 70
     1
  0
STYLE
  2
STANDARD
 70
     0
 40
0.0
 41
1.0
 50
0.0
 71
     0
 42
0.2
  3
txt
  4

  0
ENDTAB
  0
TABLE
  2
VIEW
 70
     0
  0
ENDTAB
  0
TABLE
  2
UCS
 70
     0
  0
ENDTAB
  0
TABLE
  2
APPID
 70
     2
  0
APPID
  2
ACAD
 70
     0
  0
APPID
  2
RHINO
 70
     0
  0
ENDTAB
  0
TABLE
  2
DIMSTYLE
 70
     1
  0
DIMSTYLE
  2
STANDARD_ACAD
 70
     0
  3

  4

  5

  6

  7

 40
1.0
 41
0.18
 42
0.0625
 43
0.38
 44
0.18
 45
0.0
 46
0.0
 47
0.0
 48
0.0
140
0.18
141
0.09
142
0.0
143
25.4
144
1.0
145
0.0
146
1.0
147
0.09
 71
     0
 72
     0
 73
     1
 74
     1
 75
     0
 76
     0
 77
     0
 78
     0
170
     0
171
     2
172
     0
173
     0
174
     0
175
     0
176
     0
177
     0
178
     0
  0
ENDTAB
  0
ENDSEC
  0
SECTION
  2
BLOCKS
  0
BLOCK
  8
0
  2
$MODEL_SPACE
 70
     0
 10
0.0
 20
0.0
 30
0.0
  3
$MODEL_SPACE
  1

  0
ENDBLK
  5
21
  8
0
  0
BLOCK
 67
     1
  8
0
  2
$PAPER_SPACE
 70
     0
 10
0.0
 20
0.0
 30
0.0
  3
$PAPER_SPACE
  1

  0
ENDBLK
  5
1D
 67
     1
  8
0
  0
ENDSEC
  0
SECTION
  2
ENTITIES
  0
POLYLINE
  5
60
  8
DEFAULT
 66
     1
 10
0.0
 20
0.0
 30
-0.7293238221600241
 70
     1
  0
VERTEX
  5
61
  8
DEFAULT
 10
-1566.865867398854
 20
-304.5842792105035
 30
-0.7293238221600241
 42
0.1208163472998055
  0
VERTEX
  5
62
  8
DEFAULT
 10
-1567.186802967186
 20
-303.1155910164392
 30
-0.7293238221600241
 42
0.0931851832650596
  0
VERTEX
  5
63
  8
DEFAULT
 10
-1568.029938782297
 20
-302.0331134215548
 30
-0.7293238221600241
 42
0.0647475266705005
  0
VERTEX
  5
64
  8
DEFAULT
 10
-1569.22120809526
 20
-301.2334942936754
 30
-0.7293238221600241
  0
VERTEX
  5
65
  8
DEFAULT
 10
-1570.58654415715
 20
-300.613381500626
 30
-0.7293238221600241
  0
VERTEX
  5
66
  8
DEFAULT
 10
-1571.95188021904
 20
-300.063983324328
 30
-0.7293238221600241
 42
-0.0447870978968289
  0
VERTEX
  5
67
  8
DEFAULT
 10
-1573.143149532003
 20
-299.4710684607979
 30
-0.7293238221600241
 42
-0.0884865985848537
  0
VERTEX
  5
68
  8
DEFAULT
 10
-1573.986285347114
 20
-298.731284777862
 30
-0.7293238221600241
 42
-0.1709723636926919
  0
VERTEX
  5
69
  8
DEFAULT
 10
-1574.307220915447
 20
-297.7412801433447
 30
-0.7293238221600241
 42
-0.2585222193813208
  0
VERTEX
  5
6A
  8
DEFAULT
 10
-1573.523920545279
 20
-296.2508336056645
 30
-0.7293238221600241
 42
-0.149757998720271
  0
VERTEX
  5
6B
  8
DEFAULT
 10
-1571.076106888505
 20
-295.6959958434623
 30
-0.7293238221600241
 42
-0.0370890519023818
  0
VERTEX
  5
6C
  8
DEFAULT
 10
-1569.45511028913
 20
-295.821106319253
 30
-0.7293238221600241
 42
-0.0325522327707924
  0
VERTEX
  5
6D
  8
DEFAULT
 10
-1567.779717830716
 20
-296.185558574817
 30
-0.7293238221600241
  0
VERTEX
  5
6E
  8
DEFAULT
 10
-1567.779717830716
 20
-294.4448910855557
 30
-0.7293238221600241
  0
VERTEX
  5
6F
  8
DEFAULT
 10
-1568.55757861498
 20
-294.2817035084374
 30
-0.7293238221600241
  0
VERTEX
  5
70
  8
DEFAULT
 10
-1569.406154015995
 20
-294.1457138608388
 30
-0.7293238221600241
  0
VERTEX
  5
71
  8
DEFAULT
 10
-1570.254729417009
 20
-294.0532409004717
 30
-0.7293238221600241
  0
VERTEX
  5
72
  8
DEFAULT
 10
-1571.032590201273
 20
-294.0206033850484
 30
-0.7293238221600241
 42
0.0804133867089673
  0
VERTEX
  5
73
  8
DEFAULT
 10
-1573.431447584912
 20
-294.3578577110924
 30
-0.7293238221600241
 42
0.0963710259017431
  0
VERTEX
  5
74
  8
DEFAULT
 10
-1575.079642113806
 20
-295.2445102134351
 30
-0.7293238221600241
 42
0.1158538840155123
  0
VERTEX
  5
75
  8
DEFAULT
 10
-1576.026130061092
 20
-296.5010545572458
 30
-0.7293238221600241
 42
0.103052426316096
  0
VERTEX
  5
76
  8
DEFAULT
 10
-1576.330746871713
 20
-297.9371052358864
 30
-0.7293238221600241
 42
0.1227162078412232
  0
VERTEX
  5
77
  8
DEFAULT
 10
-1576.00981130338
 20
-299.3840350863352
 30
-0.7293238221600241
 42
0.0943594264567184
  0
VERTEX
  5
78
  8
DEFAULT
 10
-1575.166675488269
 20
-300.4447543376037
 30
-0.7293238221600241
 42
0.0633904142684501
  0
VERTEX
  5
79
  8
DEFAULT
 10
-1573.975406175306
 20
-301.2280547077712
 30
-0.7293238221600241
  0
VERTEX
  5
7A
  8
DEFAULT
 10
-1572.610070113416
 20
-301.8427279149167
 30
-0.7293238221600241
  0
VERTEX
  5
7B
  8
DEFAULT
 10
-1571.244734051527
 20
-302.392126091215
 30
-0.7293238221600241
 42
-0.0428879262111679
  0
VERTEX
  5
7C
  8
DEFAULT
 10
-1570.053464738564
 20
-302.979601368841
 30
-0.7293238221600241
 42
-0.0887487688267377
  0
VERTEX
  5
7D
  8
DEFAULT
 10
-1569.210328923453
 20
-303.7085058799689
 30
-0.7293238221600241
 42
-0.1727070414196719
  0
VERTEX
  5
7E
  8
DEFAULT
 10
-1568.88939335512
 20
-304.6930709285825
 30
-0.7293238221600241
 42
-0.1090694311757057
  0
VERTEX
  5
7F
  8
DEFAULT
 10
-1569.079778861758
 20
-305.6395588758686
 30
-0.7293238221600241
 42
-0.1370730649653035
  0
VERTEX
  5
80
  8
DEFAULT
 10
-1569.689012482999
 20
-306.3412654574773
 30
-0.7293238221600241
 42
-0.0955360938044982
  0
VERTEX
  5
81
  8
DEFAULT
 10
-1570.76605049198
 20
-306.7764323297924
 30
-0.7293238221600241
 42
-0.0540023316271356
  0
VERTEX
  5
82
  8
DEFAULT
 10
-1572.359849161835
 20
-306.9233011491987
 30
-0.7293238221600241
 42
-0.0420626843628351
  0
VERTEX
  5
83
  8
DEFAULT
 10
-1574.671673171011
 20
-306.7492344002728
 30
-0.7293238221600241
 42
-0.0468402533301032
  0
VERTEX
  5
84
  8
DEFAULT
 10
-1576.504813620639
 20
-306.2705508407256
 30
-0.7293238221600241
  0
VERTEX
  5
85
  8
DEFAULT
 10
-1576.504813620639
 20
-308.1417683916817
 30
-0.7293238221600241
  0
VERTEX
  5
86
  8
DEFAULT
 10
-1575.67799656324
 20
-308.3267143124159
 30
-0.7293238221600241
  0
VERTEX
  5
87
  8
DEFAULT
 10
-1574.704310686434
 20
-308.4790227177263
 30
-0.7293238221600241
  0
VERTEX
  5
88
  8
DEFAULT
 10
-1573.627272677454
 20
-308.5878144358052
 30
-0.7293238221600241
  0
VERTEX
  5
89
  8
DEFAULT
 10
-1572.501278395338
 20
-308.6313311230366
 30
-0.7293238221600241
 42
0.0590821035698192
  0
VERTEX
  5
8A
  8
DEFAULT
 10
-1570.211212729778
 20
-308.3811101714551
 30
-0.7293238221600241
 42
0.0913308735164088
  0
VERTEX
  5
8B
  8
DEFAULT
 10
-1568.432468139189
 20
-307.6250077308076
 30
-0.7293238221600241
 42
0.1206547980926608
  0
VERTEX
  5
8C
  8
DEFAULT
 10
-1567.279275927553
 20
-306.3575842151888
 30
-0.7293238221600241
 42
0.1263662486970862
  0
SEQEND
  5
8D
  8
DEFAULT
  0
POLYLINE
  5
8E
  8
DEFAULT
 66
     1
 10
0.0
 20
0.0
 30
-0.7293238221600248
 70
     1
  0
VERTEX
  5
8F
  8
DEFAULT
 10
-1609.316395793218
 20
-295.8483042487725
 30
-0.7293238221600248
  0
VERTEX
  5
90
  8
DEFAULT
 10
-1609.316395793218
 20
-306.7818719156961
 30
-0.7293238221600248
  0
VERTEX
  5
91
  8
DEFAULT
 10
-1612.591026507391
 20
-306.781871915696
 30
-0.7293238221600248
  0
VERTEX
  5
92
  8
DEFAULT
 10
-1612.591026507391
 20
-308.4355060304945
 30
-0.7293238221600248
  0
VERTEX
  5
93
  8
DEFAULT
 10
-1604.083514153625
 20
-308.4355060304946
 30
-0.7293238221600248
  0
VERTEX
  5
94
  8
DEFAULT
 10
-1604.083514153625
 20
-306.7818719156961
 30
-0.7293238221600248
  0
VERTEX
  5
95
  8
DEFAULT
 10
-1607.358144867799
 20
-306.7818719156961
 30
-0.7293238221600248
  0
VERTEX
  5
96
  8
DEFAULT
 10
-1607.358144867799
 20
-295.8483042487725
 30
-0.7293238221600248
  0
VERTEX
  5
97
  8
DEFAULT
 10
-1604.083514153625
 20
-295.8483042487725
 30
-0.7293238221600248
  0
VERTEX
  5
98
  8
DEFAULT
 10
-1604.083514153625
 20
-294.2164284775897
 30
-0.7293238221600248
  0
VERTEX
  5
99
  8
DEFAULT
 10
-1612.591026507391
 20
-294.2164284775897
 30
-0.7293238221600248
  0
VERTEX
  5
9A
  8
DEFAULT
 10
-1612.591026507391
 20
-295.8483042487723
 30
-0.7293238221600248
  0
SEQEND
  5
9B
  8
DEFAULT
  0
POLYLINE
  5
9C
  8
DEFAULT
 66
     1
 10
0.0
 20
0.0
 30
-0.7293238221600239
 70
     1
  0
VERTEX
  5
9D
  8
DEFAULT
 10
-1591.246091420322
 20
-308.4355060304946
 30
-0.7293238221600239
  0
VERTEX
  5
9E
  8
DEFAULT
 10
-1591.246091420322
 20
-294.2164284775897
 30
-0.7293238221600239
  0
VERTEX
  5
9F
  8
DEFAULT
 10
-1593.052033940431
 20
-294.2164284775897
 30
-0.7293238221600239
  0
VERTEX
  5
A0
  8
DEFAULT
 10
-1593.052033940431
 20
-305.8680214838341
 30
-0.7293238221600239
  0
VERTEX
  5
A1
  8
DEFAULT
 10
-1594.477205447264
 20
-302.6151491132765
 30
-0.7293238221600239
  0
VERTEX
  5
A2
  8
DEFAULT
 10
-1598.426344813526
 20
-294.2164284775897
 30
-0.7293238221600239
  0
VERTEX
  5
A3
  8
DEFAULT
 10
-1600.917675157531
 20
-294.2164284775897
 30
-0.7293238221600239
  0
VERTEX
  5
A4
  8
DEFAULT
 10
-1600.917675157531
 20
-308.4355060304946
 30
-0.7293238221600239
  0
VERTEX
  5
A5
  8
DEFAULT
 10
-1599.111732637422
 20
-308.4355060304946
 30
-0.7293238221600239
  0
VERTEX
  5
A6
  8
DEFAULT
 10
-1599.111732637422
 20
-296.7186379934033
 30
-0.7293238221600239
  0
VERTEX
  5
A7
  8
DEFAULT
 10
-1597.915023738555
 20
-299.5689810070691
 30
-0.7293238221600239
  0
VERTEX
  5
A8
  8
DEFAULT
 10
-1593.770059279751
 20
-308.4355060304946
 30
-0.7293238221600239
  0
SEQEND
  5
A9
  8
DEFAULT
  0
POLYLINE
  5
AA
  8
DEFAULT
 66
     1
 10
0.0
 20
0.0
 30
-0.7293238221600248
 70
     1
  0
VERTEX
  5
AB
  8
DEFAULT
 10
-1584.816500881863
 20
-295.8483042487726
 30
-0.7293238221600248
  0
VERTEX
  5
AC
  8
DEFAULT
 10
-1584.816500881863
 20
-306.7818719156963
 30
-0.7293238221600248
  0
VERTEX
  5
AD
  8
DEFAULT
 10
-1588.091131596036
 20
-306.7818719156961
 30
-0.7293238221600248
  0
VERTEX
  5
AE
  8
DEFAULT
 10
-1588.091131596036
 20
-308.4355060304946
 30
-0.7293238221600248
  0
VERTEX
  5
AF
  8
DEFAULT
 10
-1579.58361924227
 20
-308.4355060304948
 30
-0.7293238221600248
  0
VERTEX
  5
B0
  8
DEFAULT
 10
-1579.58361924227
 20
-306.7818719156963
 30
-0.7293238221600248
  0
VERTEX
  5
B1
  8
DEFAULT
 10
-1582.858249956443
 20
-306.7818719156963
 30
-0.7293238221600248
  0
VERTEX
  5
B2
  8
DEFAULT
 10
-1582.858249956443
 20
-295.8483042487726
 30
-0.7293238221600248
  0
VERTEX
  5
B3
  8
DEFAULT
 10
-1579.58361924227
 20
-295.8483042487726
 30
-0.7293238221600248
  0
VERTEX
  5
B4
  8
DEFAULT
 10
-1579.58361924227
 20
-294.2164284775899
 30
-0.7293238221600248
  0
VERTEX
  5
B5
  8
DEFAULT
 10
-1588.091131596036
 20
-294.2164284775897
 30
-0.7293238221600248
  0
VERTEX
  5
B6
  8
DEFAULT
 10
-1588.091131596036
 20
-295.8483042487725
 30
-0.7293238221600248
  0
SEQEND
  5
B7
  8
DEFAULT
  0
POLYLINE
  5
B8
  8
DEFAULT
 66
     1
 10
0.0
 20
0.0
 30
-0.7293238221600237
 70
     1
  0
VERTEX
  5
B9
  8
DEFAULT
 10
-1554.409215678826
 20
-308.435506030495
 30
-0.7293238221600237
  0
VERTEX
  5
BA
  8
DEFAULT
 10
-1554.409215678826
 20
-294.2164284775902
 30
-0.7293238221600237
  0
VERTEX
  5
BB
  8
DEFAULT
 10
-1556.34570826063
 20
-294.2164284775902
 30
-0.7293238221600237
  0
VERTEX
  5
BC
  8
DEFAULT
 10
-1556.34570826063
 20
-300.2326104873503
 30
-0.7293238221600237
  0
VERTEX
  5
BD
  8
DEFAULT
 10
-1562.318373583158
 20
-300.2326104873503
 30
-0.7293238221600237
  0
VERTEX
  5
BE
  8
DEFAULT
 10
-1562.318373583158
 20
-294.2164284775902
 30
-0.7293238221600237
  0
VERTEX
  5
BF
  8
DEFAULT
 10
-1564.254866164961
 20
-294.2164284775899
 30
-0.7293238221600237
  0
VERTEX
  5
C0
  8
DEFAULT
 10
-1564.254866164962
 20
-308.4355060304948
 30
-0.7293238221600237
  0
VERTEX
  5
C1
  8
DEFAULT
 10
-1562.318373583158
 20
-308.435506030495
 30
-0.7293238221600237
  0
VERTEX
  5
C2
  8
DEFAULT
 10
-1562.318373583158
 20
-301.9080029457645
 30
-0.7293238221600237
  0
VERTEX
  5
C3
  8
DEFAULT
 10
-1556.34570826063
 20
-301.9080029457645
 30
-0.7293238221600237
  0
VERTEX
  5
C4
  8
DEFAULT
 10
-1556.34570826063
 20
-308.435506030495
 30
-0.7293238221600237
  0
SEQEND
  5
C5
  8
DEFAULT
  0
POLYLINE
  5
C6
  8
DEFAULT
 66
     1
 10
0.0
 20
0.0
 30
-0.7293238221600248
 70
     1
  0
VERTEX
  5
C7
  8
DEFAULT
 10
-1616.464011670998
 20
-295.8700625923882
 30
-0.7293238221600248
  0
VERTEX
  5
C8
  8
DEFAULT
 10
-1616.464011670998
 20
-294.2164284775897
 30
-0.7293238221600248
  0
VERTEX
  5
C9
  8
DEFAULT
 10
-1624.481961293408
 20
-294.2164284775897
 30
-0.7293238221600248
  0
VERTEX
  5
CA
  8
DEFAULT
 10
-1624.481961293408
 20
-308.4355060304945
 30
-0.7293238221600248
  0
VERTEX
  5
CB
  8
DEFAULT
 10
-1622.501952024373
 20
-308.4355060304945
 30
-0.7293238221600248
  0
VERTEX
  5
CC
  8
DEFAULT
 10
-1622.501952024373
 20
-302.1038280383059
 30
-0.7293238221600248
  0
VERTEX
  5
CD
  8
DEFAULT
 10
-1616.779507653426
 20
-302.1038280383059
 30
-0.7293238221600248
  0
VERTEX
  5
CE
  8
DEFAULT
 10
-1616.779507653426
 20
-300.4828314389309
 30
-0.7293238221600248
  0
VERTEX
  5
CF
  8
DEFAULT
 10
-1622.501952024373
 20
-300.4828314389309
 30
-0.7293238221600248
  0
VERTEX
  5
D0
  8
DEFAULT
 10
-1622.501952024373
 20
-295.8700625923882
 30
-0.7293238221600248
  0
SEQEND
  5
D1
  8
DEFAULT
  0
POLYLINE
  5
D2
  8
DEFAULT
 66
     1
 10
0.0
 20
0.0
 30
-0.7293238221600242
 70
     1
  0
VERTEX
  5
D3
  8
DEFAULT
 10
-1582.330746871713
 20
-265.8880122147992
 30
-0.7293238221600242
  0
VERTEX
  5
D4
  8
DEFAULT
 10
-1580.209308369176
 20
-270.4355060304948
 30
-0.7293238221600242
  0
VERTEX
  5
D5
  8
DEFAULT
 10
-1578.022594835791
 20
-270.4355060304948
 30
-0.7293238221600242
  0
VERTEX
  5
D6
  8
DEFAULT
 10
-1580.274583400023
 20
-265.7574621531046
 30
-0.7293238221600242
 42
0.0519449901544047
  0
VERTEX
  5
D7
  8
DEFAULT
 10
-1581.128598386942
 20
-264.3812469194073
 30
-0.7293238221600242
 42
0.1429093754340572
  0
VERTEX
  5
D8
  8
DEFAULT
 10
-1582.145800950979
 20
-263.6577819941832
 30
-0.7293238221600242
 42
0.081278018480013
  0
VERTEX
  5
D9
  8
DEFAULT
 10
-1580.834860748129
 20
-263.1301421615005
 30
-0.7293238221600242
 42
0.0865218866112696
  0
VERTEX
  5
DA
  8
DEFAULT
 10
-1579.877493629035
 20
-262.2924459322936
 30
-0.7293238221600242
 42
0.0895311287326228
  0
VERTEX
  5
DB
  8
DEFAULT
 10
-1579.295457937313
 20
-261.2154079233129
 30
-0.7293238221600242
 42
0.0803751460291816
  0
VERTEX
  5
DC
  8
DEFAULT
 10
-1579.099632844771
 20
-259.9588635795023
 30
-0.7293238221600242
 42
0.0928394906330313
  0
VERTEX
  5
DD
  8
DEFAULT
 10
-1579.366172554064
 20
-258.4303399404946
 30
-0.7293238221600242
 42
0.1260526107104471
  0
VERTEX
  5
DE
  8
DEFAULT
 10
-1580.203868783271
 20
-257.2499497993392
 30
-0.7293238221600242
 42
0.1037334720254814
  0
VERTEX
  5
DF
  8
DEFAULT
 10
-1581.667117391432
 20
-256.4884077727871
 30
-0.7293238221600242
 42
0.0733819500965122
  0
VERTEX
  5
E0
  8
DEFAULT
 10
-1583.799435065777
 20
-256.2164284775902
 30
-0.7293238221600242
  0
VERTEX
  5
E1
  8
DEFAULT
 10
-1587.607145198537
 20
-256.2164284775902
 30
-0.7293238221600242
  0
VERTEX
  5
E2
  8
DEFAULT
 10
-1587.607145198537
 20
-270.4355060304948
 30
-0.7293238221600242
  0
VERTEX
  5
E3
  8
DEFAULT
 10
-1585.670652616733
 20
-270.4355060304948
 30
-0.7293238221600242
  0
VERTEX
  5
E4
  8
DEFAULT
 10
-1585.670652616733
 20
-264.1038280383062
 30
-0.7293238221600242
  0
VERTEX
  5
E5
  8
DEFAULT
 10
-1584.756802184871
 20
-264.1038280383062
 30
-0.7293238221600242
  0
VERTEX
  5
E6
  8
DEFAULT
 10
-1583.989820572415
 20
-264.1908614127693
 30
-0.7293238221600242
 42
-0.0911775634952754
  0
VERTEX
  5
E7
  8
DEFAULT
 10
-1583.358828607558
 20
-264.4791594656782
 30
-0.7293238221600242
 42
-0.0828634303786604
  0
VERTEX
  5
E8
  8
DEFAULT
 10
-1582.820309603068
 20
-265.0231180560725
 30
-0.7293238221600242
  0
SEQEND
  5
E9
  8
DEFAULT
  0
POLYLINE
  5
EA
  8
DEFAULT
 66
     1
 10
0.0
 20
0.0
 30
-0.7293238221600242
 70
     1
  0
VERTEX
  5
EB
  8
DEFAULT
 10
-1615.359912480449
 20
-266.5842792105038
 30
-0.7293238221600242
 42
0.1208163472995154
  0
VERTEX
  5
EC
  8
DEFAULT
 10
-1615.680848048781
 20
-265.1155910164395
 30
-0.7293238221600242
 42
0.0931851832650327
  0
VERTEX
  5
ED
  8
DEFAULT
 10
-1616.523983863893
 20
-264.033113421555
 30
-0.7293238221600242
 42
0.0647475266703662
  0
VERTEX
  5
EE
  8
DEFAULT
 10
-1617.715253176856
 20
-263.2334942936754
 30
-0.7293238221600242
  0
VERTEX
  5
EF
  8
DEFAULT
 10
-1619.080589238746
 20
-262.6133815006261
 30
-0.7293238221600242
  0
VERTEX
  5
F0
  8
DEFAULT
 10
-1620.445925300635
 20
-262.0639833243279
 30
-0.7293238221600242
 42
-0.0447870978970135
  0
VERTEX
  5
F1
  8
DEFAULT
 10
-1621.637194613598
 20
-261.4710684607983
 30
-0.7293238221600242
 42
-0.0884865985847788
  0
VERTEX
  5
F2
  8
DEFAULT
 10
-1622.48033042871
 20
-260.7312847778621
 30
-0.7293238221600242
 42
-0.1709723636925165
  0
VERTEX
  5
F3
  8
DEFAULT
 10
-1622.801265997042
 20
-259.7412801433446
 30
-0.7293238221600242
 42
-0.2585222193811973
  0
VERTEX
  5
F4
  8
DEFAULT
 10
-1622.017965626874
 20
-258.2508336056645
 30
-0.7293238221600242
 42
-0.1497579987202979
  0
VERTEX
  5
F5
  8
DEFAULT
 10
-1619.570151970101
 20
-257.6959958434625
 30
-0.7293238221600242
 42
-0.0370890519023771
  0
VERTEX
  5
F6
  8
DEFAULT
 10
-1617.949155370726
 20
-257.8211063192531
 30
-0.7293238221600242
 42
-0.0325522327708972
  0
VERTEX
  5
F7
  8
DEFAULT
 10
-1616.273762912312
 20
-258.1855585748172
 30
-0.7293238221600242
  0
VERTEX
  5
F8
  8
DEFAULT
 10
-1616.273762912312
 20
-256.4448910855557
 30
-0.7293238221600242
  0
VERTEX
  5
F9
  8
DEFAULT
 10
-1617.051623696575
 20
-256.2817035084374
 30
-0.7293238221600242
  0
VERTEX
  5
FA
  8
DEFAULT
 10
-1617.90019909759
 20
-256.1457138608389
 30
-0.7293238221600242
  0
VERTEX
  5
FB
  8
DEFAULT
 10
-1618.748774498605
 20
-256.0532409004719
 30
-0.7293238221600242
  0
VERTEX
  5
FC
  8
DEFAULT
 10
-1619.526635282869
 20
-256.0206033850483
 30
-0.7293238221600242
 42
0.0804133867090491
  0
VERTEX
  5
FD
  8
DEFAULT
 10
-1621.925492666508
 20
-256.3578577110927
 30
-0.7293238221600242
 42
0.0963710259018795
  0
VERTEX
  5
FE
  8
DEFAULT
 10
-1623.573687195402
 20
-257.2445102134353
 30
-0.7293238221600242
 42
0.115853884015494
  0
VERTEX
  5
FF
  8
DEFAULT
 10
-1624.520175142688
 20
-258.5010545572459
 30
-0.7293238221600242
 42
0.1030524263163792
  0
VERTEX
  5
100
  8
DEFAULT
 10
-1624.824791953308
 20
-259.9371052358866
 30
-0.7293238221600242
 42
0.1227162078411037
  0
VERTEX
  5
101
  8
DEFAULT
 10
-1624.503856384976
 20
-261.3840350863352
 30
-0.7293238221600242
 42
0.0943594264568331
  0
VERTEX
  5
102
  8
DEFAULT
 10
-1623.660720569865
 20
-262.4447543376039
 30
-0.7293238221600242
 42
0.0633904142682247
  0
VERTEX
  5
103
  8
DEFAULT
 10
-1622.469451256902
 20
-263.2280547077715
 30
-0.7293238221600242
  0
VERTEX
  5
104
  8
DEFAULT
 10
-1621.104115195012
 20
-263.842727914917
 30
-0.7293238221600242
  0
VERTEX
  5
105
  8
DEFAULT
 10
-1619.738779133123
 20
-264.3921260912151
 30
-0.7293238221600242
 42
-0.0428879262111041
  0
VERTEX
  5
106
  8
DEFAULT
 10
-1618.54750982016
 20
-264.9796013688409
 30
-0.7293238221600242
 42
-0.0887487688266699
  0
VERTEX
  5
107
  8
DEFAULT
 10
-1617.704374005048
 20
-265.7085058799692
 30
-0.7293238221600242
 42
-0.1727070414196893
  0
VERTEX
  5
108
  8
DEFAULT
 10
-1617.383438436716
 20
-266.6930709285826
 30
-0.7293238221600242
 42
-0.1090694311757714
  0
VERTEX
  5
109
  8
DEFAULT
 10
-1617.573823943354
 20
-267.6395588758685
 30
-0.7293238221600242
 42
-0.1370730649653479
  0
VERTEX
  5
10A
  8
DEFAULT
 10
-1618.183057564595
 20
-268.3412654574771
 30
-0.7293238221600242
 42
-0.0955360938046604
  0
VERTEX
  5
10B
  8
DEFAULT
 10
-1619.260095573576
 20
-268.7764323297924
 30
-0.7293238221600242
 42
-0.0540023316271924
  0
VERTEX
  5
10C
  8
DEFAULT
 10
-1620.853894243431
 20
-268.9233011491989
 30
-0.7293238221600242
 42
-0.0420626843629116
  0
VERTEX
  5
10D
  8
DEFAULT
 10
-1623.165718252606
 20
-268.7492344002727
 30
-0.7293238221600242
 42
-0.046840253330217
  0
VERTEX
  5
10E
  8
DEFAULT
 10
-1624.998858702234
 20
-268.2705508407258
 30
-0.7293238221600242
  0
VERTEX
  5
10F
  8
DEFAULT
 10
-1624.998858702234
 20
-270.1417683916819
 30
-0.7293238221600242
  0
VERTEX
  5
110
  8
DEFAULT
 10
-1624.172041644835
 20
-270.3267143124159
 30
-0.7293238221600242
  0
VERTEX
  5
111
  8
DEFAULT
 10
-1623.19835576803
 20
-270.4790227177264
 30
-0.7293238221600242
  0
VERTEX
  5
112
  8
DEFAULT
 10
-1622.121317759049
 20
-270.5878144358052
 30
-0.7293238221600242
  0
VERTEX
  5
113
  8
DEFAULT
 10
-1620.995323476933
 20
-270.6313311230367
 30
-0.7293238221600242
 42
0.0590821035697899
  0
VERTEX
  5
114
  8
DEFAULT
 10
-1618.705257811374
 20
-270.3811101714554
 30
-0.7293238221600242
 42
0.0913308735163173
  0
VERTEX
  5
115
  8
DEFAULT
 10
-1616.926513220784
 20
-269.6250077308073
 30
-0.7293238221600242
 42
0.1206547980929607
  0
VERTEX
  5
116
  8
DEFAULT
 10
-1615.773321009149
 20
-268.3575842151889
 30
-0.7293238221600242
 42
0.1263662486972668
  0
SEQEND
  5
117
  8
DEFAULT
  0
POLYLINE
  5
118
  8
DEFAULT
 66
     1
 10
0.0
 20
0.0
 30
-0.7293238221600242
 70
     1
  0
VERTEX
  5
119
  8
DEFAULT
 10
-1602.642160637033
 20
-257.8700625923885
 30
-0.7293238221600242
  0
VERTEX
  5
11A
  8
DEFAULT
 10
-1602.642160637033
 20
-256.2164284775902
 30
-0.7293238221600242
  0
VERTEX
  5
11B
  8
DEFAULT
 10
-1613.020890541754
 20
-256.2164284775902
 30
-0.7293238221600242
  0
VERTEX
  5
11C
  8
DEFAULT
 10
-1613.020890541754
 20
-257.8700625923885
 30
-0.7293238221600242
  0
VERTEX
  5
11D
  8
DEFAULT
 10
-1608.810651052103
 20
-257.8700625923885
 30
-0.7293238221600242
  0
VERTEX
  5
11E
  8
DEFAULT
 10
-1608.810651052103
 20
-270.4355060304948
 30
-0.7293238221600242
  0
VERTEX
  5
11F
  8
DEFAULT
 10
-1606.852400126684
 20
-270.4355060304948
 30
-0.7293238221600242
  0
VERTEX
  5
120
  8
DEFAULT
 10
-1606.852400126684
 20
-257.8700625923885
 30
-0.7293238221600242
  0
SEQEND
  5
121
  8
DEFAULT
  0
POLYLINE
  5
122
  8
DEFAULT
 66
     1
 10
0.0
 20
0.0
 30
-0.7293238221600242
 70
     1
  0
VERTEX
  5
123
  8
DEFAULT
 10
-1589.565396123956
 20
-270.4355060304948
 30
-0.7293238221600242
  0
VERTEX
  5
124
  8
DEFAULT
 10
-1594.22168165773
 20
-256.2164284775902
 30
-0.7293238221600242
  0
VERTEX
  5
125
  8
DEFAULT
 10
-1596.876199578854
 20
-256.2164284775902
 30
-0.7293238221600242
  0
VERTEX
  5
126
  8
DEFAULT
 10
-1601.597760143476
 20
-270.4355060304948
 30
-0.7293238221600242
  0
VERTEX
  5
127
  8
DEFAULT
 10
-1599.585113359017
 20
-270.4355060304948
 30
-0.7293238221600242
  0
VERTEX
  5
128
  8
DEFAULT
 10
-1598.584229552692
 20
-267.3349420652478
 30
-0.7293238221600242
  0
VERTEX
  5
129
  8
DEFAULT
 10
-1592.665960089203
 20
-267.3349420652478
 30
-0.7293238221600242
  0
VERTEX
  5
12A
  8
DEFAULT
 10
-1591.675955454685
 20
-270.4355060304948
 30
-0.7293238221600242
  0
SEQEND
  5
12B
  8
DEFAULT
  0
POLYLINE
  5
12C
  8
DEFAULT
 66
     1
 10
0.0
 20
0.0
 30
-0.7293238221600242
 70
     1
  0
VERTEX
  5
12D
  8
DEFAULT
 10
-1565.89231827
 20
-257.8700625923885
 30
-0.7293238221600242
  0
VERTEX
  5
12E
  8
DEFAULT
 10
-1565.89231827
 20
-256.2164284775902
 30
-0.7293238221600242
  0
VERTEX
  5
12F
  8
DEFAULT
 10
-1576.271048174721
 20
-256.2164284775902
 30
-0.7293238221600242
  0
VERTEX
  5
130
  8
DEFAULT
 10
-1576.271048174721
 20
-257.8700625923885
 30
-0.7293238221600242
  0
VERTEX
  5
131
  8
DEFAULT
 10
-1572.06080868507
 20
-257.8700625923885
 30
-0.7293238221600242
  0
VERTEX
  5
132
  8
DEFAULT
 10
-1572.06080868507
 20
-270.4355060304948
 30
-0.7293238221600242
  0
VERTEX
  5
133
  8
DEFAULT
 10
-1570.102557759651
 20
-270.4355060304948
 30
-0.7293238221600242
  0
VERTEX
  5
134
  8
DEFAULT
 10
-1570.102557759651
 20
-257.8700625923885
 30
-0.7293238221600242
  0
SEQEND
  5
135
  8
DEFAULT
  0
POLYLINE
  5
136
  8
DEFAULT
 66
     1
 10
0.0
 20
0.0
 30
-0.7293238221600242
 70
     1
  0
VERTEX
  5
137
  8
DEFAULT
 10
-1629.445588486117
 20
-248.3259672540428
 30
-0.7293238221600242
  0
VERTEX
  5
138
  8
DEFAULT
 10
-1629.445588486117
 20
-278.3259672540428
 30
-0.7293238221600242
  0
VERTEX
  5
139
  8
DEFAULT
 10
-1539.445588486117
 20
-278.3259672540422
 30
-0.7293238221600242
  0
VERTEX
  5
13A
  8
DEFAULT
 10
-1539.445588486117
 20
-248.3259672540422
 30
-0.7293238221600242
  0
SEQEND
  5
13B
  8
DEFAULT
  0
POLYLINE
  5
13C
  8
DEFAULT
 66
     1
 10
0.0
 20
0.0
 30
-0.7293238221600242
 70
     1
  0
VERTEX
  5
13D
  8
DEFAULT
 10
-1629.445588486117
 20
-286.3259672540428
 30
-0.7293238221600242
  0
VERTEX
  5
13E
  8
DEFAULT
 10
-1629.445588486117
 20
-316.3259672540428
 30
-0.7293238221600242
  0
VERTEX
  5
13F
  8
DEFAULT
 10
-1539.445588486117
 20
-316.3259672540422
 30
-0.7293238221600242
  0
VERTEX
  5
140
  8
DEFAULT
 10
-1539.445588486117
 20
-286.3259672540422
 30
-0.7293238221600242
  0
SEQEND
  5
141
  8
DEFAULT
  0
ENDSEC
  0
EOF
