  0
SECTION
  2
HEADER
  9
$ACADVER
  1
AC1009
  9
$DWGCODEPAGE
  3
ansi_1252
  9
$INSBASE
 10
0.0
 20
0.0
 30
0.0
  9
$EXTMIN
 10
900.0
 20
-2128.0
 30
0.0
  9
$EXTMAX
 10
1366.0
 20
-1893.0
 30
0.0
  9
$LIMMIN
 10
0.0
 20
0.0
  9
$LIMMAX
 10
12.0
 20
9.0
  9
$ORTHOMODE
 70
     0
  9
$REGENMODE
 70
     1
  9
$FILLMODE
 70
     1
  9
$QTEXTMODE
 70
     0
  9
$MIRRTEXT
 70
     1
  9
$DRAGMODE
 70
     2
  9
$LTSCALE
 40
1.0
  9
$OSMODE
 70
    37
  9
$ATTMODE
 70
     1
  9
$TEXTSIZE
 40
0.2
  9
$TRACEWID
 40
0.05
  9
$TEXTSTYLE
  7
STANDARD
  9
$CLAYER
  8
V2_X8M8_BEARINGS
  9
$CELTYPE
  6
BYLAYER
  9
$CECOLOR
 62
   256
  9
$DIMSCALE
 40
1.0
  9
$DIMASZ
 40
0.18
  9
$DIMEXO
 40
0.0625
  9
$DIMDLI
 40
0.38
  9
$DIMRND
 40
0.0
  9
$DIMDLE
 40
0.0
  9
$DIMEXE
 40
0.18
  9
$DIMTP
 40
0.0
  9
$DIMTM
 40
0.0
  9
$DIMTXT
 40
0.18
  9
$DIMCEN
 40
0.09
  9
$DIMTSZ
 40
0.0
  9
$DIMTOL
 70
     0
  9
$DIMLIM
 70
     0
  9
$DIMTIH
 70
     1
  9
$DIMTOH
 70
     1
  9
$DIMSE1
 70
     0
  9
$DIMSE2
 70
     0
  9
$DIMTAD
 70
     0
  9
$DIMZIN
 70
     0
  9
$DIMBLK
  1

  9
$DIMASO
 70
     1
  9
$DIMSHO
 70
     1
  9
$DIMPOST
  1

  9
$DIMAPOST
  1

  9
$DIMALT
 70
     0
  9
$DIMALTD
 70
     2
  9
$DIMALTF
 40
25.4
  9
$DIMLFAC
 40
1.0
  9
$DIMTOFL
 70
     0
  9
$DIMTVP
 40
0.0
  9
$DIMTIX
 70
     0
  9
$DIMSOXD
 70
     0
  9
$DIMSAH
 70
     0
  9
$DIMBLK1
  1

  9
$DIMBLK2
  1

  9
$DIMSTYLE
  2
STANDARD_ACAD
  9
$DIMCLRD
 70
     0
  9
$DIMCLRE
 70
     0
  9
$DIMCLRT
 70
     0
  9
$DIMTFAC
 40
1.0
  9
$DIMGAP
 40
0.09
  9
$LUNITS
 70
     2
  9
$LUPREC
 70
     3
  9
$SKETCHINC
 40
0.1
  9
$FILLETRAD
 40
0.0
  9
$AUNITS
 70
     0
  9
$AUPREC
 70
     0
  9
$MENU
  1
.
  9
$ELEVATION
 40
0.0
  9
$PELEVATION
 40
0.0
  9
$THICKNESS
 40
0.0
  9
$LIMCHECK
 70
     0
  9
$CHAMFERA
 40
0.0
  9
$CHAMFERB
 40
0.0
  9
$SKPOLY
 70
     0
  9
$TDCREATE
 40
2460417.741742222
  9
$TDUPDATE
 40
2460417.741759965
  9
$TDINDWG
 40
0.0000000116
  9
$TDUSRTIMER
 40
0.0000000116
  9
$USRTIMER
 70
     1
  9
$ANGBASE
 50
0.0
  9
$ANGDIR
 70
     0
  9
$PDMODE
 70
     0
  9
$PDSIZE
 40
0.0
  9
$PLINEWID
 40
0.0
  9
$COORDS
 70
     1
  9
$SPLFRAME
 70
     0
  9
$SPLINETYPE
 70
     6
  9
$SPLINESEGS
 70
     8
  9
$ATTDIA
 70
     0
  9
$ATTREQ
 70
     1
  9
$HANDLING
 70
     1
  9
$HANDSEED
  5
B5
  9
$SURFTAB1
 70
     6
  9
$SURFTAB2
 70
     6
  9
$SURFTYPE
 70
     6
  9
$SURFU
 70
     6
  9
$SURFV
 70
     6
  9
$UCSNAME
  2

  9
$UCSORG
 10
0.0
 20
0.0
 30
0.0
  9
$UCSXDIR
 10
1.0
 20
0.0
 30
0.0
  9
$UCSYDIR
 10
0.0
 20
1.0
 30
0.0
  9
$PUCSNAME
  2

  9
$PUCSORG
 10
0.0
 20
0.0
 30
0.0
  9
$PUCSXDIR
 10
1.0
 20
0.0
 30
0.0
  9
$PUCSYDIR
 10
0.0
 20
1.0
 30
0.0
  9
$USERI1
 70
     0
  9
$USERI2
 70
     0
  9
$USERI3
 70
     0
  9
$USERI4
 70
     0
  9
$USERI5
 70
     0
  9
$USERR1
 40
0.0
  9
$USERR2
 40
0.0
  9
$USERR3
 40
0.0
  9
$USERR4
 40
0.0
  9
$USERR5
 40
0.0
  9
$WORLDVIEW
 70
     1
  9
$SHADEDGE
 70
     3
  9
$SHADEDIF
 70
    70
  9
$TILEMODE
 70
     1
  9
$MAXACTVP
 70
    64
  9
$PLIMCHECK
 70
     0
  9
$PEXTMIN
 10
1.000000000000000E+20
 20
1.000000000000000E+20
 30
1.000000000000000E+20
  9
$PEXTMAX
 10
-1.000000000000000E+20
 20
-1.000000000000000E+20
 30
-1.000000000000000E+20
  9
$PLIMMIN
 10
0.0
 20
0.0
  9
$PLIMMAX
 10
12.0
 20
9.0
  9
$UNITMODE
 70
     0
  9
$VISRETAIN
 70
     1
  9
$PLINEGEN
 70
     0
  9
$PSLTSCALE
 70
     1
  0
ENDSEC
  0
SECTION
  2
TABLES
  0
TABLE
  2
VPORT
 70
     1
  0
VPORT
  2
*ACTIVE
 70
     0
 10
0.0
 20
0.0
 11
1.0
 21
1.0
 12
10.42990654205607
 22
4.5
 13
0.0
 23
0.0
 14
0.5
 24
0.5
 15
0.5
 25
0.5
 16
0.0
 26
0.0
 36
1.0
 17
0.0
 27
0.0
 37
0.0
 40
9.0
 41
1.972972972850329
 42
50.0
 43
0.0
 44
0.0
 50
0.0
 51
0.0
 71
     0
 72
   100
 73
     1
 74
     3
 75
     0
 76
     0
 77
     0
 78
     0
  0
ENDTAB
  0
TABLE
  2
LTYPE
 70
     1
  0
LTYPE
  2
CONTINUOUS
 70
     0
  3
Solid line
 72
    65
 73
     0
 40
0.0
  0
ENDTAB
  0
TABLE
  2
LAYER
 70
     2
  0
LAYER
  2
0
 70
     0
 62
     7
  6
CONTINUOUS
  0
LAYER
  2
V2_X8M8_BEARINGS
 70
     0
 62
     7
  6
CONTINUOUS
  0
ENDTAB
  0
TABLE
  2
STYLE
 70
     1
  0
STYLE
  2
STANDARD
 70
     0
 40
0.0
 41
1.0
 50
0.0
 71
     0
 42
0.2
  3
txt
  4

  0
ENDTAB
  0
TABLE
  2
VIEW
 70
     0
  0
ENDTAB
  0
TABLE
  2
UCS
 70
     0
  0
ENDTAB
  0
TABLE
  2
APPID
 70
     2
  0
APPID
  2
ACAD
 70
     0
  0
APPID
  2
RHINO
 70
     0
  0
ENDTAB
  0
TABLE
  2
DIMSTYLE
 70
     1
  0
DIMSTYLE
  2
STANDARD_ACAD
 70
     0
  3

  4

  5

  6

  7

 40
1.0
 41
0.18
 42
0.0625
 43
0.38
 44
0.18
 45
0.0
 46
0.0
 47
0.0
 48
0.0
140
0.18
141
0.09
142
0.0
143
25.4
144
1.0
145
0.0
146
1.0
147
0.09
 71
     0
 72
     0
 73
     1
 74
     1
 75
     0
 76
     0
 77
     0
 78
     0
170
     0
171
     2
172
     0
173
     0
174
     0
175
     0
176
     0
177
     0
178
     0
  0
ENDTAB
  0
ENDSEC
  0
SECTION
  2
BLOCKS
  0
BLOCK
  8
0
  2
$MODEL_SPACE
 70
     0
 10
0.0
 20
0.0
 30
0.0
  3
$MODEL_SPACE
  1

  0
ENDBLK
  5
21
  8
0
  0
BLOCK
 67
     1
  8
0
  2
$PAPER_SPACE
 70
     0
 10
0.0
 20
0.0
 30
0.0
  3
$PAPER_SPACE
  1

  0
ENDBLK
  5
1D
 67
     1
  8
0
  0
ENDSEC
  0
SECTION
  2
ENTITIES
  0
LINE
  5
60
  8
V2_X8M8_BEARINGS
 10
907.4477066332386
 20
-2128.0
 30
0.0
 11
1324.623251040766
 21
-2128.0
 31
0.0
  0
LINE
  5
61
  8
V2_X8M8_BEARINGS
 10
1324.623251040766
 20
-2128.0
 30
0.0
 11
1324.623251040766
 21
-2109.0
 31
0.0
  0
LINE
  5
62
  8
V2_X8M8_BEARINGS
 10
1324.623251040766
 20
-2109.0
 30
0.0
 11
907.4477066332386
 21
-2109.0
 31
0.0
  0
LINE
  5
63
  8
V2_X8M8_BEARINGS
 10
907.4477066332386
 20
-2109.0
 30
0.0
 11
907.4477066332386
 21
-2128.0
 31
0.0
  0
LINE
  5
64
  8
V2_X8M8_BEARINGS
 10
903.0
 20
-2043.0
 30
0.0
 11
1333.0
 21
-2043.0
 31
0.0
  0
LINE
  5
65
  8
V2_X8M8_BEARINGS
 10
1333.0
 20
-2043.0
 30
0.0
 11
1333.0
 21
-1893.0
 31
0.0
  0
LINE
  5
66
  8
V2_X8M8_BEARINGS
 10
1333.0
 20
-1893.0
 30
0.0
 11
903.0
 21
-1893.0
 31
0.0
  0
LINE
  5
67
  8
V2_X8M8_BEARINGS
 10
903.0
 20
-1893.0
 30
0.0
 11
903.0
 21
-2043.0
 31
0.0
  0
LINE
  5
68
  8
V2_X8M8_BEARINGS
 10
1179.623251040766
 20
-2084.0
 30
0.0
 11
1179.623251040766
 21
-2089.0
 31
0.0
  0
LINE
  5
69
  8
V2_X8M8_BEARINGS
 10
1179.623251040766
 20
-2089.0
 30
0.0
 11
1176.623251040766
 21
-2089.0
 31
0.0
  0
LINE
  5
6A
  8
V2_X8M8_BEARINGS
 10
1176.623251040766
 20
-2089.0
 30
0.0
 11
1176.623251040766
 21
-2084.0
 31
0.0
  0
LINE
  5
6B
  8
V2_X8M8_BEARINGS
 10
1176.623251040766
 20
-2084.0
 30
0.0
 11
1055.447706633238
 21
-2084.0
 31
0.0
  0
LINE
  5
6C
  8
V2_X8M8_BEARINGS
 10
1055.447706633238
 20
-2084.0
 30
0.0
 11
1055.447706633239
 21
-2089.0
 31
0.0
  0
LINE
  5
6D
  8
V2_X8M8_BEARINGS
 10
1055.447706633239
 20
-2089.0
 30
0.0
 11
1052.447706633239
 21
-2089.0
 31
0.0
  0
LINE
  5
6E
  8
V2_X8M8_BEARINGS
 10
1052.447706633239
 20
-2089.0
 30
0.0
 11
1052.447706633239
 21
-2084.0
 31
0.0
  0
LINE
  5
6F
  8
V2_X8M8_BEARINGS
 10
1052.447706633239
 20
-2084.0
 30
0.0
 11
977.4477066332385
 21
-2084.0
 31
0.0
  0
LINE
  5
70
  8
V2_X8M8_BEARINGS
 10
977.4477066332385
 20
-2084.0
 30
0.0
 11
977.4477066332386
 21
-2089.0
 31
0.0
  0
LINE
  5
71
  8
V2_X8M8_BEARINGS
 10
977.4477066332386
 20
-2089.0
 30
0.0
 11
974.4477066332386
 21
-2089.0
 31
0.0
  0
LINE
  5
72
  8
V2_X8M8_BEARINGS
 10
974.4477066332386
 20
-2089.0
 30
0.0
 11
974.4477066332387
 21
-2084.0
 31
0.0
  0
LINE
  5
73
  8
V2_X8M8_BEARINGS
 10
974.4477066332387
 20
-2084.0
 30
0.0
 11
907.4477066332387
 21
-2084.0
 31
0.0
  0
LINE
  5
74
  8
V2_X8M8_BEARINGS
 10
907.4477066332387
 20
-2084.0
 30
0.0
 11
907.4477066332386
 21
-2089.0
 31
0.0
  0
LINE
  5
75
  8
V2_X8M8_BEARINGS
 10
907.4477066332386
 20
-2089.0
 30
0.0
 11
904.4477066332386
 21
-2089.0
 31
0.0
  0
LINE
  5
76
  8
V2_X8M8_BEARINGS
 10
904.4477066332386
 20
-2089.0
 30
0.0
 11
904.4477066332386
 21
-2084.0
 31
0.0
  0
LINE
  5
77
  8
V2_X8M8_BEARINGS
 10
904.4477066332386
 20
-2084.0
 30
0.0
 11
901.0354788370023
 21
-2084.0
 31
0.0
  0
LINE
  5
78
  8
V2_X8M8_BEARINGS
 10
901.0354788370023
 20
-2084.0
 30
0.0
 11
901.0354788370023
 21
-2095.0
 31
0.0
  0
LINE
  5
79
  8
V2_X8M8_BEARINGS
 10
901.0354788370023
 20
-2095.0
 30
0.0
 11
1331.035478837002
 21
-2095.0
 31
0.0
  0
LINE
  5
7A
  8
V2_X8M8_BEARINGS
 10
1331.035478837002
 20
-2095.0
 30
0.0
 11
1331.035478837002
 21
-2084.0
 31
0.0
  0
LINE
  5
7B
  8
V2_X8M8_BEARINGS
 10
1331.035478837002
 20
-2084.0
 30
0.0
 11
1327.623251040766
 21
-2084.0
 31
0.0
  0
LINE
  5
7C
  8
V2_X8M8_BEARINGS
 10
1327.623251040766
 20
-2084.0
 30
0.0
 11
1327.623251040766
 21
-2089.0
 31
0.0
  0
LINE
  5
7D
  8
V2_X8M8_BEARINGS
 10
1327.623251040766
 20
-2089.0
 30
0.0
 11
1324.623251040766
 21
-2089.0
 31
0.0
  0
LINE
  5
7E
  8
V2_X8M8_BEARINGS
 10
1324.623251040766
 20
-2089.0
 30
0.0
 11
1324.623251040766
 21
-2084.0
 31
0.0
  0
LINE
  5
7F
  8
V2_X8M8_BEARINGS
 10
1324.623251040766
 20
-2084.0
 30
0.0
 11
1257.623251040766
 21
-2084.0
 31
0.0
  0
LINE
  5
80
  8
V2_X8M8_BEARINGS
 10
1257.623251040766
 20
-2084.0
 30
0.0
 11
1257.623251040766
 21
-2089.0
 31
0.0
  0
LINE
  5
81
  8
V2_X8M8_BEARINGS
 10
1257.623251040766
 20
-2089.0
 30
0.0
 11
1254.623251040766
 21
-2089.0
 31
0.0
  0
LINE
  5
82
  8
V2_X8M8_BEARINGS
 10
1254.623251040766
 20
-2089.0
 30
0.0
 11
1254.623251040766
 21
-2084.0
 31
0.0
  0
LINE
  5
83
  8
V2_X8M8_BEARINGS
 10
1254.623251040766
 20
-2084.0
 30
0.0
 11
1179.623251040766
 21
-2084.0
 31
0.0
  0
LINE
  5
84
  8
V2_X8M8_BEARINGS
 10
910.0354788369959
 20
-2077.0
 30
0.0
 11
910.0354788369959
 21
-2071.0
 31
0.0
  0
LINE
  5
85
  8
V2_X8M8_BEARINGS
 10
910.0354788369959
 20
-2071.0
 30
0.0
 11
907.0354788369959
 21
-2071.0
 31
0.0
  0
LINE
  5
86
  8
V2_X8M8_BEARINGS
 10
907.0354788369959
 20
-2071.0
 30
0.0
 11
907.0354788369959
 21
-2077.0
 31
0.0
  0
LINE
  5
87
  8
V2_X8M8_BEARINGS
 10
907.0354788369959
 20
-2077.0
 30
0.0
 11
900.0
 21
-2077.0
 31
0.0
  0
LINE
  5
88
  8
V2_X8M8_BEARINGS
 10
900.0
 20
-2077.0
 30
0.0
 11
900.0
 21
-2063.0
 31
0.0
  0
LINE
  5
89
  8
V2_X8M8_BEARINGS
 10
900.0
 20
-2063.0
 30
0.0
 11
1050.0
 21
-2077.0
 31
0.0
  0
LINE
  5
8A
  8
V2_X8M8_BEARINGS
 10
1050.0
 20
-2077.0
 30
0.0
 11
910.0354788369959
 21
-2077.0
 31
0.0
  0
LINE
  5
8B
  8
V2_X8M8_BEARINGS
 10
1039.964521163004
 20
-2058.0
 30
0.0
 11
1039.964521163004
 21
-2064.0
 31
0.0
  0
LINE
  5
8C
  8
V2_X8M8_BEARINGS
 10
1039.964521163004
 20
-2064.0
 30
0.0
 11
1042.964521163004
 21
-2064.0
 31
0.0
  0
LINE
  5
8D
  8
V2_X8M8_BEARINGS
 10
1042.964521163004
 20
-2064.0
 30
0.0
 11
1042.964521163004
 21
-2058.0
 31
0.0
  0
LINE
  5
8E
  8
V2_X8M8_BEARINGS
 10
1042.964521163004
 20
-2058.0
 30
0.0
 11
1050.0
 21
-2058.0
 31
0.0
  0
LINE
  5
8F
  8
V2_X8M8_BEARINGS
 10
1050.0
 20
-2058.0
 30
0.0
 11
1050.0
 21
-2072.0
 31
0.0
  0
LINE
  5
90
  8
V2_X8M8_BEARINGS
 10
1050.0
 20
-2072.0
 30
0.0
 11
900.0
 21
-2058.0
 31
0.0
  0
LINE
  5
91
  8
V2_X8M8_BEARINGS
 10
900.0
 20
-2058.0
 30
0.0
 11
1039.964521163004
 21
-2058.0
 31
0.0
  0
LINE
  5
92
  8
V2_X8M8_BEARINGS
 10
1197.964521163004
 20
-2058.0
 30
0.0
 11
1197.964521163004
 21
-2064.0
 31
0.0
  0
LINE
  5
93
  8
V2_X8M8_BEARINGS
 10
1197.964521163004
 20
-2064.0
 30
0.0
 11
1200.964521163004
 21
-2064.0
 31
0.0
  0
LINE
  5
94
  8
V2_X8M8_BEARINGS
 10
1200.964521163004
 20
-2064.0
 30
0.0
 11
1200.964521163004
 21
-2058.0
 31
0.0
  0
LINE
  5
95
  8
V2_X8M8_BEARINGS
 10
1200.964521163004
 20
-2058.0
 30
0.0
 11
1208.0
 21
-2058.0
 31
0.0
  0
LINE
  5
96
  8
V2_X8M8_BEARINGS
 10
1208.0
 20
-2058.0
 30
0.0
 11
1208.0
 21
-2072.0
 31
0.0
  0
LINE
  5
97
  8
V2_X8M8_BEARINGS
 10
1208.0
 20
-2072.0
 30
0.0
 11
1058.0
 21
-2058.0
 31
0.0
  0
LINE
  5
98
  8
V2_X8M8_BEARINGS
 10
1058.0
 20
-2058.0
 30
0.0
 11
1197.964521163004
 21
-2058.0
 31
0.0
  0
LINE
  5
99
  8
V2_X8M8_BEARINGS
 10
1068.035478836996
 20
-2077.0
 30
0.0
 11
1068.035478836996
 21
-2071.0
 31
0.0
  0
LINE
  5
9A
  8
V2_X8M8_BEARINGS
 10
1068.035478836996
 20
-2071.0
 30
0.0
 11
1065.035478836996
 21
-2071.0
 31
0.0
  0
LINE
  5
9B
  8
V2_X8M8_BEARINGS
 10
1065.035478836996
 20
-2071.0
 30
0.0
 11
1065.035478836996
 21
-2077.0
 31
0.0
  0
LINE
  5
9C
  8
V2_X8M8_BEARINGS
 10
1065.035478836996
 20
-2077.0
 30
0.0
 11
1058.0
 21
-2077.0
 31
0.0
  0
LINE
  5
9D
  8
V2_X8M8_BEARINGS
 10
1058.0
 20
-2077.0
 30
0.0
 11
1058.0
 21
-2063.0
 31
0.0
  0
LINE
  5
9E
  8
V2_X8M8_BEARINGS
 10
1058.0
 20
-2063.0
 30
0.0
 11
1208.0
 21
-2077.0
 31
0.0
  0
LINE
  5
9F
  8
V2_X8M8_BEARINGS
 10
1208.0
 20
-2077.0
 30
0.0
 11
1068.035478836996
 21
-2077.0
 31
0.0
  0
LINE
  5
A0
  8
V2_X8M8_BEARINGS
 10
1226.035478836996
 20
-2077.0
 30
0.0
 11
1226.035478836996
 21
-2071.0
 31
0.0
  0
LINE
  5
A1
  8
V2_X8M8_BEARINGS
 10
1226.035478836996
 20
-2071.0
 30
0.0
 11
1223.035478836996
 21
-2071.0
 31
0.0
  0
LINE
  5
A2
  8
V2_X8M8_BEARINGS
 10
1223.035478836996
 20
-2071.0
 30
0.0
 11
1223.035478836996
 21
-2077.0
 31
0.0
  0
LINE
  5
A3
  8
V2_X8M8_BEARINGS
 10
1223.035478836996
 20
-2077.0
 30
0.0
 11
1216.0
 21
-2077.0
 31
0.0
  0
LINE
  5
A4
  8
V2_X8M8_BEARINGS
 10
1216.0
 20
-2077.0
 30
0.0
 11
1216.0
 21
-2063.0
 31
0.0
  0
LINE
  5
A5
  8
V2_X8M8_BEARINGS
 10
1216.0
 20
-2063.0
 30
0.0
 11
1366.0
 21
-2077.0
 31
0.0
  0
LINE
  5
A6
  8
V2_X8M8_BEARINGS
 10
1366.0
 20
-2077.0
 30
0.0
 11
1226.035478836996
 21
-2077.0
 31
0.0
  0
LINE
  5
A7
  8
V2_X8M8_BEARINGS
 10
1355.964521163004
 20
-2058.0
 30
0.0
 11
1355.964521163004
 21
-2064.0
 31
0.0
  0
LINE
  5
A8
  8
V2_X8M8_BEARINGS
 10
1355.964521163004
 20
-2064.0
 30
0.0
 11
1358.964521163004
 21
-2064.0
 31
0.0
  0
LINE
  5
A9
  8
V2_X8M8_BEARINGS
 10
1358.964521163004
 20
-2064.0
 30
0.0
 11
1358.964521163004
 21
-2058.0
 31
0.0
  0
LINE
  5
AA
  8
V2_X8M8_BEARINGS
 10
1358.964521163004
 20
-2058.0
 30
0.0
 11
1366.0
 21
-2058.0
 31
0.0
  0
LINE
  5
AB
  8
V2_X8M8_BEARINGS
 10
1366.0
 20
-2058.0
 30
0.0
 11
1366.0
 21
-2072.0
 31
0.0
  0
LINE
  5
AC
  8
V2_X8M8_BEARINGS
 10
1366.0
 20
-2072.0
 30
0.0
 11
1216.0
 21
-2058.0
 31
0.0
  0
LINE
  5
AD
  8
V2_X8M8_BEARINGS
 10
1216.0
 20
-2058.0
 30
0.0
 11
1355.964521163004
 21
-2058.0
 31
0.0
  0
ENDSEC
  0
EOF
