  0
SECTION
  2
HEADER
  9
$ACADVER
  1
AC1009
  9
$DWGCODEPAGE
  3
ansi_1252
  9
$INSBASE
 10
0.0
 20
0.0
 30
0.0
  9
$EXTMIN
 10
-605.905910171366
 20
-48.00636230469404
 30
0.0
  9
$EXTMAX
 10
-17.01923278318333
 20
48.00636230469401
 30
8.364120078501438
  9
$LIMMIN
 10
0.0
 20
0.0
  9
$LIMMAX
 10
12.0
 20
9.0
  9
$ORTHOMODE
 70
     0
  9
$REGENMODE
 70
     1
  9
$FILLMODE
 70
     1
  9
$QTEXTMODE
 70
     0
  9
$MIRRTEXT
 70
     1
  9
$DRAGMODE
 70
     2
  9
$LTSCALE
 40
1.0
  9
$OSMODE
 70
    37
  9
$ATTMODE
 70
     1
  9
$TEXTSIZE
 40
0.2
  9
$TRACEWID
 40
0.05
  9
$TEXTSTYLE
  7
STANDARD
  9
$CLAYER
  8
DEFAULT
  9
$CELTYPE
  6
BYLAYER
  9
$CECOLOR
 62
   256
  9
$DIMSCALE
 40
1.0
  9
$DIMASZ
 40
0.18
  9
$DIMEXO
 40
0.0625
  9
$DIMDLI
 40
0.38
  9
$DIMRND
 40
0.0
  9
$DIMDLE
 40
0.0
  9
$DIMEXE
 40
0.18
  9
$DIMTP
 40
0.0
  9
$DIMTM
 40
0.0
  9
$DIMTXT
 40
0.18
  9
$DIMCEN
 40
0.09
  9
$DIMTSZ
 40
0.0
  9
$DIMTOL
 70
     0
  9
$DIMLIM
 70
     0
  9
$DIMTIH
 70
     1
  9
$DIMTOH
 70
     1
  9
$DIMSE1
 70
     0
  9
$DIMSE2
 70
     0
  9
$DIMTAD
 70
     0
  9
$DIMZIN
 70
     0
  9
$DIMBLK
  1

  9
$DIMASO
 70
     1
  9
$DIMSHO
 70
     1
  9
$DIMPOST
  1

  9
$DIMAPOST
  1

  9
$DIMALT
 70
     0
  9
$DIMALTD
 70
     2
  9
$DIMALTF
 40
25.4
  9
$DIMLFAC
 40
1.0
  9
$DIMTOFL
 70
     0
  9
$DIMTVP
 40
0.0
  9
$DIMTIX
 70
     0
  9
$DIMSOXD
 70
     0
  9
$DIMSAH
 70
     0
  9
$DIMBLK1
  1

  9
$DIMBLK2
  1

  9
$DIMSTYLE
  2
STANDARD_ACAD
  9
$DIMCLRD
 70
     0
  9
$DIMCLRE
 70
     0
  9
$DIMCLRT
 70
     0
  9
$DIMTFAC
 40
1.0
  9
$DIMGAP
 40
0.09
  9
$LUNITS
 70
     2
  9
$LUPREC
 70
     3
  9
$SKETCHINC
 40
0.1
  9
$FILLETRAD
 40
0.0
  9
$AUNITS
 70
     0
  9
$AUPREC
 70
     0
  9
$MENU
  1
.
  9
$ELEVATION
 40
0.0
  9
$PELEVATION
 40
0.0
  9
$THICKNESS
 40
0.0
  9
$LIMCHECK
 70
     0
  9
$CHAMFERA
 40
0.0
  9
$CHAMFERB
 40
0.0
  9
$SKPOLY
 70
     0
  9
$TDCREATE
 40
2460544.795528391
  9
$TDUPDATE
 40
2460544.795539757
  9
$TDINDWG
 40
0.0000000116
  9
$TDUSRTIMER
 40
0.0000000116
  9
$USRTIMER
 70
     1
  9
$ANGBASE
 50
0.0
  9
$ANGDIR
 70
     0
  9
$PDMODE
 70
     0
  9
$PDSIZE
 40
0.0
  9
$PLINEWID
 40
0.0
  9
$COORDS
 70
     1
  9
$SPLFRAME
 70
     0
  9
$SPLINETYPE
 70
     6
  9
$SPLINESEGS
 70
     8
  9
$ATTDIA
 70
     0
  9
$ATTREQ
 70
     1
  9
$HANDLING
 70
     1
  9
$HANDSEED
  5
44C
  9
$SURFTAB1
 70
     6
  9
$SURFTAB2
 70
     6
  9
$SURFTYPE
 70
     6
  9
$SURFU
 70
     6
  9
$SURFV
 70
     6
  9
$UCSNAME
  2

  9
$UCSORG
 10
0.0
 20
0.0
 30
0.0
  9
$UCSXDIR
 10
1.0
 20
0.0
 30
0.0
  9
$UCSYDIR
 10
0.0
 20
1.0
 30
0.0
  9
$PUCSNAME
  2

  9
$PUCSORG
 10
0.0
 20
0.0
 30
0.0
  9
$PUCSXDIR
 10
1.0
 20
0.0
 30
0.0
  9
$PUCSYDIR
 10
0.0
 20
1.0
 30
0.0
  9
$USERI1
 70
     0
  9
$USERI2
 70
     0
  9
$USERI3
 70
     0
  9
$USERI4
 70
     0
  9
$USERI5
 70
     0
  9
$USERR1
 40
0.0
  9
$USERR2
 40
0.0
  9
$USERR3
 40
0.0
  9
$USERR4
 40
0.0
  9
$USERR5
 40
0.0
  9
$WORLDVIEW
 70
     1
  9
$SHADEDGE
 70
     3
  9
$SHADEDIF
 70
    70
  9
$TILEMODE
 70
     1
  9
$MAXACTVP
 70
    64
  9
$PLIMCHECK
 70
     0
  9
$PEXTMIN
 10
1.000000000000000E+20
 20
1.000000000000000E+20
 30
1.000000000000000E+20
  9
$PEXTMAX
 10
-1.000000000000000E+20
 20
-1.000000000000000E+20
 30
-1.000000000000000E+20
  9
$PLIMMIN
 10
0.0
 20
0.0
  9
$PLIMMAX
 10
12.0
 20
9.0
  9
$UNITMODE
 70
     0
  9
$VISRETAIN
 70
     1
  9
$PLINEGEN
 70
     0
  9
$PSLTSCALE
 70
     1
  0
ENDSEC
  0
SECTION
  2
TABLES
  0
TABLE
  2
VPORT
 70
     1
  0
VPORT
  2
*ACTIVE
 70
     0
 10
0.0
 20
0.0
 11
1.0
 21
1.0
 12
10.42990654205607
 22
4.5
 13
0.0
 23
0.0
 14
0.5
 24
0.5
 15
0.5
 25
0.5
 16
0.0
 26
0.0
 36
1.0
 17
0.0
 27
0.0
 37
0.0
 40
9.0
 41
1.972972972850329
 42
50.0
 43
0.0
 44
0.0
 50
0.0
 51
0.0
 71
     0
 72
   100
 73
     1
 74
     3
 75
     0
 76
     0
 77
     0
 78
     0
  0
ENDTAB
  0
TABLE
  2
LTYPE
 70
     1
  0
LTYPE
  2
CONTINUOUS
 70
     0
  3
Solid line
 72
    65
 73
     0
 40
0.0
  0
ENDTAB
  0
TABLE
  2
LAYER
 70
     3
  0
LAYER
  2
0
 70
     0
 62
     7
  6
CONTINUOUS
  0
LAYER
  2
LAYER_1
 70
     0
 62
     7
  6
CONTINUOUS
  0
LAYER
  2
DEFAULT
 70
     0
 62
     7
  6
CONTINUOUS
  0
ENDTAB
  0
TABLE
  2
STYLE
 70
     4
  0
STYLE
  2
STANDARD
 70
     0
 40
0.0
 41
1.0
 50
0.0
 71
     0
 42
0.2
  3
txt
  4

  0
STYLE
  2
DEFAULT
 70
     0
 40
0.0
 41
1.0
 50
0.0
 71
     0
 42
0.2
  3

  4

  0
STYLE
  2
MTXPL_CONSOLAS
 70
     0
 40
0.2
 41
1.0
 50
0.0
 71
     0
 42
0.2
  3
txt.shx
  4

  0
STYLE
  2
MTXPL_INTER
 70
     0
 40
0.2
 41
1.0
 50
0.0
 71
     0
 42
0.2
  3
txt.shx
  4

  0
ENDTAB
  0
TABLE
  2
VIEW
 70
     0
  0
ENDTAB
  0
TABLE
  2
UCS
 70
     0
  0
ENDTAB
  0
TABLE
  2
APPID
 70
     3
  0
APPID
  2
ACAD
 70
     0
  0
APPID
  2
RHINO
 70
     0
  0
APPID
  2
ACADANNOTATIVE
 70
     0
  0
ENDTAB
  0
TABLE
  2
DIMSTYLE
 70
     1
  0
DIMSTYLE
  2
STANDARD_ACAD
 70
     0
  3

  4

  5

  6

  7

 40
1.0
 41
0.18
 42
0.0625
 43
0.38
 44
0.18
 45
0.0
 46
0.0
 47
0.0
 48
0.0
140
0.18
141
0.09
142
0.0
143
25.4
144
1.0
145
0.0
146
1.0
147
0.09
 71
     0
 72
     0
 73
     1
 74
     1
 75
     0
 76
     0
 77
     0
 78
     0
170
     0
171
     2
172
     0
173
     0
174
     0
175
     0
176
     0
177
     0
178
     0
  0
ENDTAB
  0
ENDSEC
  0
SECTION
  2
BLOCKS
  0
BLOCK
  8
0
  2
$MODEL_SPACE
 70
     0
 10
0.0
 20
0.0
 30
0.0
  3
$MODEL_SPACE
  1

  0
ENDBLK
  5
21
  8
0
  0
BLOCK
 67
     1
  8
0
  2
$PAPER_SPACE
 70
     0
 10
0.0
 20
0.0
 30
0.0
  3
$PAPER_SPACE
  1

  0
ENDBLK
  5
1D
 67
     1
  8
0
  0
ENDSEC
  0
SECTION
  2
ENTITIES
  0
LINE
  5
60
  8
LAYER_1
 10
-604.0782834515196
 20
39.2110584727274
 30
0.0
 11
-604.346985334512
 21
39.37530000675294
 31
0.0
  0
LINE
  5
61
  8
LAYER_1
 10
-604.346985334512
 20
39.37530000675294
 30
0.0
 11
-604.4442491896236
 21
39.67672861603322
 31
0.0
  0
LINE
  5
62
  8
LAYER_1
 10
-604.4442491896236
 20
39.67672861603322
 30
0.0
 11
-604.4185161367511
 21
40.0188386474878
 31
0.0
  0
LINE
  5
63
  8
LAYER_1
 10
-604.4185161367511
 20
40.0188386474878
 30
0.0
 11
-604.2507763691829
 21
40.25909482406202
 31
0.0
  0
LINE
  5
64
  8
LAYER_1
 10
-604.2507763691829
 20
40.25909482406202
 30
0.0
 11
-603.8782203636081
 21
40.39040904629553
 31
0.0
  0
LINE
  5
65
  8
LAYER_1
 10
-603.8782203636081
 20
40.39040904629553
 30
0.0
 11
-602.7170482005665
 21
40.41599403465953
 31
0.0
  0
LINE
  5
66
  8
LAYER_1
 10
-602.7170482005665
 20
40.41599403465953
 30
0.0
 11
-602.6993475076056
 21
40.41638794212595
 31
0.0
  0
LINE
  5
67
  8
LAYER_1
 10
-602.6993475076056
 20
40.41638794212595
 30
0.0
 11
-602.6993368916599
 21
39.17682763452517
 31
0.0
  0
LINE
  5
68
  8
LAYER_1
 10
-602.6993368916599
 20
39.17682763452517
 30
0.0
 11
-603.8041272072682
 21
39.15727753204092
 31
0.0
  0
LINE
  5
69
  8
LAYER_1
 10
-603.8041272072682
 20
39.15727753204092
 30
0.0
 11
-604.0782834515196
 21
39.2110584727274
 31
0.0
  0
LINE
  5
6A
  8
LAYER_1
 10
-581.6218791587378
 20
46.85830259747168
 30
0.0
 11
-579.5206985098866
 21
46.86756696584239
 31
0.0
  0
LINE
  5
6B
  8
LAYER_1
 10
-579.5206985098866
 20
46.86756696584239
 30
0.0
 11
-579.5207040972266
 21
47.98638653333066
 31
0.0
  0
LINE
  5
6C
  8
LAYER_1
 10
-579.5207040972266
 20
47.98638653333066
 30
0.0
 11
-585.1557040567702
 21
47.98638653333066
 31
0.0
  0
LINE
  5
6D
  8
LAYER_1
 10
-585.1557040567702
 20
47.98638653333066
 30
0.0
 11
-585.1557040567702
 21
46.85774386347673
 31
0.0
  0
LINE
  5
6E
  8
LAYER_1
 10
-585.1557040567702
 20
46.85774386347673
 30
0.0
 11
-583.0355320394297
 21
46.85774386347673
 31
0.0
  0
LINE
  5
6F
  8
LAYER_1
 10
-583.0355320394297
 20
46.85774386347673
 30
0.0
 11
-583.0355320394297
 21
44.03110858288709
 31
0.0
  0
LINE
  5
70
  8
LAYER_1
 10
-583.0355320394297
 20
44.03110858288709
 30
0.0
 11
-581.6218791587378
 21
44.10933134218389
 31
0.0
  0
LINE
  5
71
  8
LAYER_1
 10
-581.6218791587378
 20
44.10933134218389
 30
0.0
 11
-581.6218791587378
 21
46.85830259747168
 31
0.0
  0
LINE
  5
72
  8
LAYER_1
 10
-569.169598106279
 20
45.8627615399012
 30
0.0
 11
-567.4929491341513
 21
47.99958383029205
 31
0.0
  0
LINE
  5
73
  8
LAYER_1
 10
-567.4929491341513
 20
47.99958383029205
 30
0.0
 11
-569.1070757722409
 21
47.99923741521515
 31
0.0
  0
LINE
  5
74
  8
LAYER_1
 10
-569.1070757722409
 20
47.99923741521515
 30
0.0
 11
-570.2519273152893
 21
46.54277992316811
 31
0.0
  0
LINE
  5
75
  8
LAYER_1
 10
-570.2519273152893
 20
46.54277992316811
 30
0.0
 11
-570.5831951135713
 21
46.54317662430456
 31
0.0
  0
LINE
  5
76
  8
LAYER_1
 10
-570.5831951135713
 20
46.54317662430456
 30
0.0
 11
-571.7554022730135
 21
48.00003081748805
 31
0.0
  0
LINE
  5
77
  8
LAYER_1
 10
-571.7554022730135
 20
48.00003081748805
 30
0.0
 11
-573.5462732357344
 21
47.99979614921011
 31
0.0
  0
LINE
  5
78
  8
LAYER_1
 10
-573.5462732357344
 20
47.99979614921011
 30
0.0
 11
-571.8329824882162
 21
45.92604933951229
 31
0.0
  0
LINE
  5
79
  8
LAYER_1
 10
-571.8329824882162
 20
45.92604933951229
 30
0.0
 11
-572.8688082668245
 21
44.59079242565575
 31
0.0
  0
LINE
  5
7A
  8
LAYER_1
 10
-572.8688082668245
 20
44.59079242565575
 30
0.0
 11
-571.1478516888952
 21
44.68560176232744
 31
0.0
  0
LINE
  5
7B
  8
LAYER_1
 10
-571.1478516888952
 20
44.68560176232744
 30
0.0
 11
-570.6850595843975
 21
45.27651324807537
 31
0.0
  0
LINE
  5
7C
  8
LAYER_1
 10
-570.6850595843975
 20
45.27651324807537
 30
0.0
 11
-570.4199481260569
 21
45.27513373384177
 31
0.0
  0
LINE
  5
7D
  8
LAYER_1
 10
-570.4199481260569
 20
45.27513373384177
 30
0.0
 11
-570.0028453765303
 21
44.7484777749842
 31
0.0
  0
LINE
  5
7E
  8
LAYER_1
 10
-570.0028453765303
 20
44.7484777749842
 30
0.0
 11
-568.3360228591725
 21
44.84071414160901
 31
0.0
  0
LINE
  5
7F
  8
LAYER_1
 10
-568.3360228591725
 20
44.84071414160901
 30
0.0
 11
-569.169598106279
 21
45.8627615399012
 31
0.0
  0
LINE
  5
80
  8
LAYER_1
 10
-592.9849641613882
 20
43.48360458247491
 30
0.0
 11
-592.9849641613882
 21
46.41243286947987
 31
0.0
  0
LINE
  5
81
  8
LAYER_1
 10
-592.9849641613882
 20
46.41243286947987
 30
0.0
 11
-593.1495107641749
 21
46.41184172891322
 31
0.0
  0
LINE
  5
82
  8
LAYER_1
 10
-593.1495107641749
 20
46.41184172891322
 30
0.0
 11
-595.7228104641019
 21
43.3322116953979
 31
0.0
  0
LINE
  5
83
  8
LAYER_1
 10
-595.7228104641019
 20
43.3322116953979
 30
0.0
 11
-597.3879495159331
 21
43.24191581193762
 31
0.0
  0
LINE
  5
84
  8
LAYER_1
 10
-597.3879495159331
 20
43.24191581193762
 30
0.0
 11
-597.387955662007
 21
47.99923741521515
 31
0.0
  0
LINE
  5
85
  8
LAYER_1
 10
-597.387955662007
 20
47.99923741521515
 30
0.0
 11
-595.9843599932249
 21
48.00022302198228
 31
0.0
  0
LINE
  5
86
  8
LAYER_1
 10
-595.9843599932249
 20
48.00022302198228
 30
0.0
 11
-595.9843599932249
 21
44.9742515664086
 31
0.0
  0
LINE
  5
87
  8
LAYER_1
 10
-595.9843599932249
 20
44.9742515664086
 30
0.0
 11
-595.8326056052531
 21
44.9776218498663
 31
0.0
  0
LINE
  5
88
  8
LAYER_1
 10
-595.8326056052531
 20
44.9776218498663
 30
0.0
 11
-593.2236530891064
 21
48.00125556240499
 31
0.0
  0
LINE
  5
89
  8
LAYER_1
 10
-593.2236530891064
 20
48.00125556240499
 30
0.0
 11
-591.5884174806865
 21
47.99987604817137
 31
0.0
  0
LINE
  5
8A
  8
LAYER_1
 10
-591.5884174806865
 20
47.99987604817137
 30
0.0
 11
-591.5884085409427
 21
43.56065455911629
 31
0.0
  0
LINE
  5
8B
  8
LAYER_1
 10
-591.5884085409427
 20
43.56065455911629
 30
0.0
 11
-592.9849641613882
 21
43.48360458247491
 31
0.0
  0
LINE
  5
8C
  8
LAYER_1
 10
-573.9711904389146
 20
44.74125949050308
 30
0.0
 11
-577.600782343686
 21
44.74125949050308
 31
0.0
  0
LINE
  5
8D
  8
LAYER_1
 10
-577.600782343686
 20
44.74125949050308
 30
0.0
 11
-577.600782343686
 21
45.34245726909856
 31
0.0
  0
LINE
  5
8E
  8
LAYER_1
 10
-577.600782343686
 20
45.34245726909856
 30
0.0
 11
-574.4094055111752
 21
45.34245726909856
 31
0.0
  0
LINE
  5
8F
  8
LAYER_1
 10
-574.4094055111752
 20
45.34245726909856
 30
0.0
 11
-574.4094055111752
 21
46.36885161787167
 31
0.0
  0
LINE
  5
90
  8
LAYER_1
 10
-574.4094055111752
 20
46.36885161787167
 30
0.0
 11
-577.5976031472544
 21
46.36963999153856
 31
0.0
  0
LINE
  5
91
  8
LAYER_1
 10
-577.5976031472544
 20
46.36963999153856
 30
0.0
 11
-577.597653433314
 21
46.91585219895437
 31
0.0
  0
LINE
  5
92
  8
LAYER_1
 10
-577.597653433314
 20
46.91585219895437
 30
0.0
 11
-574.0321483177665
 21
46.91585219895437
 31
0.0
  0
LINE
  5
93
  8
LAYER_1
 10
-574.0321483177665
 20
46.91585219895437
 30
0.0
 11
-574.0321483177665
 21
47.99197387328043
 31
0.0
  0
LINE
  5
94
  8
LAYER_1
 10
-574.0321483177665
 20
47.99197387328043
 30
0.0
 11
-579.0159996795637
 21
47.99197387328043
 31
0.0
  0
LINE
  5
95
  8
LAYER_1
 10
-579.0159996795637
 20
47.99197387328043
 30
0.0
 11
-579.0159996795637
 21
44.25236724489802
 31
0.0
  0
LINE
  5
96
  8
LAYER_1
 10
-579.0159996795637
 20
44.25236724489802
 30
0.0
 11
-573.9711904389146
 21
44.53061677439671
 31
0.0
  0
LINE
  5
97
  8
LAYER_1
 10
-573.9711904389146
 20
44.53061677439671
 30
0.0
 11
-573.9711904389146
 21
44.74125949050308
 31
0.0
  0
LINE
  5
98
  8
LAYER_1
 10
-601.258417792013
 20
43.02818106190297
 30
0.0
 11
-602.6649691636287
 21
42.95073717779518
 31
0.0
  0
LINE
  5
99
  8
LAYER_1
 10
-602.6649691636287
 20
42.95073717779518
 30
0.0
 11
-602.6649747509687
 21
43.72492235363957
 31
0.0
  0
LINE
  5
9A
  8
LAYER_1
 10
-602.6649747509687
 20
43.72492235363957
 30
0.0
 11
-604.200040528769
 21
43.72689356717383
 31
0.0
  0
LINE
  5
9B
  8
LAYER_1
 10
-604.200040528769
 20
43.72689356717383
 30
0.0
 11
-604.6235871574595
 21
43.78441020335077
 31
0.0
  0
LINE
  5
9C
  8
LAYER_1
 10
-604.6235871574595
 20
43.78441020335077
 30
0.0
 11
-605.0065870188685
 21
43.93856882370299
 31
0.0
  0
LINE
  5
9D
  8
LAYER_1
 10
-605.0065870188685
 20
43.93856882370299
 30
0.0
 11
-605.3450082884882
 21
44.18878778614159
 31
0.0
  0
LINE
  5
9E
  8
LAYER_1
 10
-605.3450082884882
 20
44.18878778614159
 30
0.0
 11
-605.6348191418109
 21
44.53448768351392
 31
0.0
  0
LINE
  5
9F
  8
LAYER_1
 10
-605.6348191418109
 20
44.53448768351392
 30
0.0
 11
-605.8091201226821
 21
44.90627934098362
 31
0.0
  0
LINE
  5
A0
  8
LAYER_1
 10
-605.8091201226821
 20
44.90627934098362
 30
0.0
 11
-605.8772633207095
 21
45.33297443573581
 31
0.0
  0
LINE
  5
A1
  8
LAYER_1
 10
-605.8772633207095
 20
45.33297443573581
 30
0.0
 11
-605.8790373011434
 21
45.94261468499535
 31
0.0
  0
LINE
  5
A2
  8
LAYER_1
 10
-605.8790373011434
 20
45.94261468499535
 30
0.0
 11
-605.8134391364632
 21
46.41019234616003
 31
0.0
  0
LINE
  5
A3
  8
LAYER_1
 10
-605.8134391364632
 20
46.41019234616003
 30
0.0
 11
-605.631468414043
 21
46.83356632604607
 31
0.0
  0
LINE
  5
A4
  8
LAYER_1
 10
-605.631468414043
 20
46.83356632604607
 30
0.0
 11
-605.4271198363901
 21
47.10686714855122
 31
0.0
  0
LINE
  5
A5
  8
LAYER_1
 10
-605.4271198363901
 20
47.10686714855122
 30
0.0
 11
-605.1643293590645
 21
47.32143105983435
 31
0.0
  0
LINE
  5
A6
  8
LAYER_1
 10
-605.1643293590645
 20
47.32143105983435
 30
0.0
 11
-604.6063032800589
 21
47.57489459058185
 31
0.0
  0
LINE
  5
A7
  8
LAYER_1
 10
-604.6063032800589
 20
47.57489459058185
 30
0.0
 11
-604.1109878284476
 21
47.62807433348974
 31
0.0
  0
LINE
  5
A8
  8
LAYER_1
 10
-604.1109878284476
 20
47.62807433348974
 30
0.0
 11
-602.6789525993211
 21
47.62846879969021
 31
0.0
  0
LINE
  5
A9
  8
LAYER_1
 10
-602.6789525993211
 20
47.62846879969021
 30
0.0
 11
-602.6789431008431
 21
47.99867868122018
 31
0.0
  0
LINE
  5
AA
  8
LAYER_1
 10
-602.6789431008431
 20
47.99867868122018
 30
0.0
 11
-601.2625524235759
 21
47.99867868122018
 31
0.0
  0
LINE
  5
AB
  8
LAYER_1
 10
-601.2625524235759
 20
47.99867868122018
 30
0.0
 11
-601.2625524235759
 21
47.62823804255029
 31
0.0
  0
LINE
  5
AC
  8
LAYER_1
 10
-601.2625524235759
 20
47.62823804255029
 30
0.0
 11
-599.6732224001834
 21
47.62823804255029
 31
0.0
  0
LINE
  5
AD
  8
LAYER_1
 10
-599.6732224001834
 20
47.62823804255029
 30
0.0
 11
-599.1151454763842
 21
47.51032505518627
 31
0.0
  0
LINE
  5
AE
  8
LAYER_1
 10
-599.1151454763842
 20
47.51032505518627
 30
0.0
 11
-598.6116333970667
 21
47.19164162267309
 31
0.0
  0
LINE
  5
AF
  8
LAYER_1
 10
-598.6116333970667
 20
47.19164162267309
 30
0.0
 11
-598.268854002286
 21
46.7448734504174
 31
0.0
  0
LINE
  5
B0
  8
LAYER_1
 10
-598.268854002286
 20
46.7448734504174
 30
0.0
 11
-598.0901434927266
 21
46.22662364451425
 31
0.0
  0
LINE
  5
B1
  8
LAYER_1
 10
-598.0901434927266
 20
46.22662364451425
 30
0.0
 11
-598.0456241267409
 21
45.66184694138138
 31
0.0
  0
LINE
  5
B2
  8
LAYER_1
 10
-598.0456241267409
 20
45.66184694138138
 30
0.0
 11
-598.1054181626812
 21
45.07549807743641
 31
0.0
  0
LINE
  5
B3
  8
LAYER_1
 10
-598.1054181626812
 20
45.07549807743641
 30
0.0
 11
-598.3016215161556
 21
44.54843312529452
 31
0.0
  0
LINE
  5
B4
  8
LAYER_1
 10
-598.3016215161556
 20
44.54843312529452
 30
0.0
 11
-598.652314260507
 21
44.13886769736037
 31
0.0
  0
LINE
  5
B5
  8
LAYER_1
 10
-598.652314260507
 20
44.13886769736037
 30
0.0
 11
-599.1030852031026
 21
43.86046172234312
 31
0.0
  0
LINE
  5
B6
  8
LAYER_1
 10
-599.1030852031026
 20
43.86046172234312
 30
0.0
 11
-599.59952315131
 21
43.72687624641996
 31
0.0
  0
LINE
  5
B7
  8
LAYER_1
 10
-599.59952315131
 20
43.72687624641996
 30
0.0
 11
-601.2584099697372
 21
43.72470779978548
 31
0.0
  0
LINE
  5
B8
  8
LAYER_1
 10
-601.2584099697372
 20
43.72470779978548
 30
0.0
 11
-601.2584239380869
 21
43.72470444738151
 31
0.0
  0
LINE
  5
B9
  8
LAYER_1
 10
-601.2584239380869
 20
43.72470444738151
 30
0.0
 11
-601.258417792013
 21
43.02818106190297
 31
0.0
  0
LINE
  5
BA
  8
LAYER_1
 10
-600.054463366976
 20
45.01163142940658
 30
0.0
 11
-599.6996672801656
 21
45.14606003492811
 31
0.0
  0
LINE
  5
BB
  8
LAYER_1
 10
-599.6996672801656
 20
45.14606003492811
 30
0.0
 11
-599.5653353356252
 21
45.29703778264688
 31
0.0
  0
LINE
  5
BC
  8
LAYER_1
 10
-599.5653353356252
 20
45.29703778264688
 30
0.0
 11
-599.5167305066682
 21
45.51425959154415
 31
0.0
  0
LINE
  5
BD
  8
LAYER_1
 10
-599.5167305066682
 20
45.51425959154415
 30
0.0
 11
-599.5179133465356
 21
45.91062604631495
 31
0.0
  0
LINE
  5
BE
  8
LAYER_1
 10
-599.5179133465356
 20
45.91062604631495
 30
0.0
 11
-599.5323219787979
 21
46.02479160477466
 31
0.0
  0
LINE
  5
BF
  8
LAYER_1
 10
-599.5323219787979
 20
46.02479160477466
 30
0.0
 11
-599.7145664808756
 21
46.26373922633259
 31
0.0
  0
LINE
  5
C0
  8
LAYER_1
 10
-599.7145664808756
 20
46.26373922633259
 30
0.0
 11
-599.9827163346811
 21
46.34286657596725
 31
0.0
  0
LINE
  5
C1
  8
LAYER_1
 10
-599.9827163346811
 20
46.34286657596725
 30
0.0
 11
-601.2505396426839
 21
46.347459369406
 31
0.0
  0
LINE
  5
C2
  8
LAYER_1
 10
-601.2505396426839
 20
46.347459369406
 30
0.0
 11
-601.2505396426839
 21
45.00554067012733
 31
0.0
  0
LINE
  5
C3
  8
LAYER_1
 10
-601.2505396426839
 20
45.00554067012733
 30
0.0
 11
-600.054463366976
 21
45.01163142940658
 31
0.0
  0
LINE
  5
C4
  8
LAYER_1
 10
-602.680172315632
 20
46.34761972606253
 30
0.0
 11
-603.882120885627
 21
46.34840809972943
 31
0.0
  0
LINE
  5
C5
  8
LAYER_1
 10
-603.882120885627
 20
46.34840809972943
 30
0.0
 11
-604.087365672608
 21
46.33501971574179
 31
0.0
  0
LINE
  5
C6
  8
LAYER_1
 10
-604.087365672608
 20
46.33501971574179
 30
0.0
 11
-604.263901589459
 21
46.25141076073341
 31
0.0
  0
LINE
  5
C7
  8
LAYER_1
 10
-604.263901589459
 20
46.25141076073341
 30
0.0
 11
-604.410176473142
 21
46.01273133149304
 31
0.0
  0
LINE
  5
C8
  8
LAYER_1
 10
-604.410176473142
 20
46.01273133149304
 30
0.0
 11
-604.4099792400418
 21
45.5546303576172
 31
0.0
  0
LINE
  5
C9
  8
LAYER_1
 10
-604.4099792400418
 20
45.5546303576172
 30
0.0
 11
-604.3341020460559
 21
45.26154197067997
 31
0.0
  0
LINE
  5
CA
  8
LAYER_1
 10
-604.3341020460559
 20
45.26154197067997
 30
0.0
 11
-604.1245851789492
 21
45.08495912017335
 31
0.0
  0
LINE
  5
CB
  8
LAYER_1
 10
-604.1245851789492
 20
45.08495912017335
 30
0.0
 11
-603.8003406669841
 21
45.00924954638596
 31
0.0
  0
LINE
  5
CC
  8
LAYER_1
 10
-603.8003406669841
 20
45.00924954638596
 30
0.0
 11
-602.6801907538538
 21
45.0057211412077
 31
0.0
  0
LINE
  5
CD
  8
LAYER_1
 10
-602.6801907538538
 20
45.0057211412077
 30
0.0
 11
-602.680172315632
 21
45.00554067012733
 31
0.0
  0
LINE
  5
CE
  8
LAYER_1
 10
-602.680172315632
 20
45.00554067012733
 30
0.0
 11
-602.680172315632
 21
46.34761972606253
 31
0.0
  0
LINE
  5
CF
  8
LAYER_1
 10
-595.8874699311558
 20
42.37626308744551
 30
0.0
 11
-598.0736284333032
 21
37.40777691051021
 31
0.0
  0
LINE
  5
D0
  8
LAYER_1
 10
-598.0736284333032
 20
37.40777691051021
 30
0.0
 11
-596.6833920943407
 21
37.40787580642733
 31
0.0
  0
LINE
  5
D1
  8
LAYER_1
 10
-596.6833920943407
 20
37.40787580642733
 30
0.0
 11
-596.2679258766857
 21
38.32340615591708
 31
0.0
  0
LINE
  5
D2
  8
LAYER_1
 10
-596.2679258766857
 20
38.32340615591708
 30
0.0
 11
-593.4348567741438
 21
38.3230820902
 31
0.0
  0
LINE
  5
D3
  8
LAYER_1
 10
-593.4348567741438
 20
38.3230820902
 30
0.0
 11
-593.0124521977391
 21
37.40831720628339
 31
0.0
  0
LINE
  5
D4
  8
LAYER_1
 10
-593.0124521977391
 20
37.40831720628339
 30
0.0
 11
-591.5571753106235
 21
37.40843454042228
 31
0.0
  0
LINE
  5
D5
  8
LAYER_1
 10
-591.5571753106235
 20
37.40843454042228
 30
0.0
 11
-593.7841213944041
 21
42.48922625034801
 31
0.0
  0
LINE
  5
D6
  8
LAYER_1
 10
-593.7841213944041
 20
42.48922625034801
 30
0.0
 11
-595.8874699311558
 21
42.37626308744551
 31
0.0
  0
LINE
  5
D7
  8
LAYER_1
 10
-594.9445001551727
 20
41.30678867145762
 30
0.0
 11
-594.7543098969525
 21
41.3172353209617
 31
0.0
  0
LINE
  5
D8
  8
LAYER_1
 10
-594.7543098969525
 20
41.3172353209617
 30
0.0
 11
-593.9889560706326
 21
39.63823966605521
 31
0.0
  0
LINE
  5
D9
  8
LAYER_1
 10
-593.9889560706326
 20
39.63823966605521
 30
0.0
 11
-595.7236547111684
 21
39.58973205681328
 31
0.0
  0
LINE
  5
DA
  8
LAYER_1
 10
-595.7236547111684
 20
39.58973205681328
 30
0.0
 11
-594.9445001551727
 21
41.30678867145762
 31
0.0
  0
LINE
  5
DB
  8
LAYER_1
 10
-599.6241594093503
 20
39.45677459790055
 30
0.0
 11
-599.8160007265258
 21
39.30847989082561
 31
0.0
  0
LINE
  5
DC
  8
LAYER_1
 10
-599.8160007265258
 20
39.30847989082561
 30
0.0
 11
-600.1209482425065
 21
39.22153529386726
 31
0.0
  0
LINE
  5
DD
  8
LAYER_1
 10
-600.1209482425065
 20
39.22153529386726
 30
0.0
 11
-601.2764213187993
 21
39.201430368526
 31
0.0
  0
LINE
  5
DE
  8
LAYER_1
 10
-601.2764213187993
 20
39.201430368526
 30
0.0
 11
-601.2764090266514
 21
40.45521101503302
 31
0.0
  0
LINE
  5
DF
  8
LAYER_1
 10
-601.2764090266514
 20
40.45521101503302
 30
0.0
 11
-600.0903843755132
 21
40.50034889955124
 31
0.0
  0
LINE
  5
E0
  8
LAYER_1
 10
-600.0903843755132
 20
40.50034889955124
 30
0.0
 11
-599.7637942982371
 21
40.39688644949928
 31
0.0
  0
LINE
  5
E1
  8
LAYER_1
 10
-599.7637942982371
 20
40.39688644949928
 30
0.0
 11
-599.6237023649426
 21
40.25930099690616
 31
0.0
  0
LINE
  5
E2
  8
LAYER_1
 10
-599.6237023649426
 20
40.25930099690616
 30
0.0
 11
-599.5631618603848
 21
40.08132019394414
 31
0.0
  0
LINE
  5
E3
  8
LAYER_1
 10
-599.5631618603848
 20
40.08132019394414
 30
0.0
 11
-599.5542673739187
 21
39.69476454939108
 31
0.0
  0
LINE
  5
E4
  8
LAYER_1
 10
-599.5542673739187
 20
39.69476454939108
 30
0.0
 11
-599.5542791073326
 21
39.69477404786899
 31
0.0
  0
LINE
  5
E5
  8
LAYER_1
 10
-599.5542791073326
 20
39.69477404786899
 30
0.0
 11
-599.6241594093503
 21
39.45677459790055
 31
0.0
  0
LINE
  5
E6
  8
LAYER_1
 10
-585.1855952080334
 20
42.95008122408507
 30
0.0
 11
-581.1886357015645
 21
43.17754518584425
 31
0.0
  0
LINE
  5
E7
  8
LAYER_1
 10
-581.1886357015645
 20
43.17754518584425
 30
0.0
 11
-580.6181096256233
 21
43.037410788766
 31
0.0
  0
LINE
  5
E8
  8
LAYER_1
 10
-580.6181096256233
 20
43.037410788766
 30
0.0
 11
-580.1167548182602
 21
42.65796559303305
 31
0.0
  0
LINE
  5
E9
  8
LAYER_1
 10
-580.1167548182602
 20
42.65796559303305
 30
0.0
 11
-579.9098422103043
 21
42.2991510913307
 31
0.0
  0
LINE
  5
EA
  8
LAYER_1
 10
-579.9098422103043
 20
42.2991510913307
 30
0.0
 11
-579.7954866822864
 21
41.8679157241353
 31
0.0
  0
LINE
  5
EB
  8
LAYER_1
 10
-579.7954866822864
 20
41.8679157241353
 30
0.0
 11
-579.7486362780735
 21
41.16759518242695
 31
0.0
  0
LINE
  5
EC
  8
LAYER_1
 10
-579.7486362780735
 20
41.16759518242695
 30
0.0
 11
-579.8334889749548
 21
40.46790712760084
 31
0.0
  0
LINE
  5
ED
  8
LAYER_1
 10
-579.8334889749548
 20
40.46790712760084
 30
0.0
 11
-580.1100505690545
 21
39.76116896722611
 31
0.0
  0
LINE
  5
EE
  8
LAYER_1
 10
-580.1100505690545
 20
39.76116896722611
 30
0.0
 11
-580.337486594114
 21
39.51781963925576
 31
0.0
  0
LINE
  5
EF
  8
LAYER_1
 10
-580.337486594114
 20
39.51781963925576
 30
0.0
 11
-580.6396862563074
 21
39.34551110381072
 31
0.0
  0
LINE
  5
F0
  8
LAYER_1
 10
-580.6396862563074
 20
39.34551110381072
 30
0.0
 11
-581.0651487838666
 21
39.20585945290419
 31
0.0
  0
LINE
  5
F1
  8
LAYER_1
 10
-581.0651487838666
 20
39.20585945290419
 30
0.0
 11
-581.5000863225127
 21
39.15118118542168
 31
0.0
  0
LINE
  5
F2
  8
LAYER_1
 10
-581.5000863225127
 20
39.15118118542168
 30
0.0
 11
-583.4248578871297
 21
39.09325108608849
 31
0.0
  0
LINE
  5
F3
  8
LAYER_1
 10
-583.4248578871297
 20
39.09325108608849
 30
0.0
 11
-583.7122706541461
 21
39.09301753527853
 31
0.0
  0
LINE
  5
F4
  8
LAYER_1
 10
-583.7122706541461
 20
39.09301753527853
 30
0.0
 11
-583.7122706541461
 21
37.40843454042228
 31
0.0
  0
LINE
  5
F5
  8
LAYER_1
 10
-583.7122706541461
 20
37.40843454042228
 30
0.0
 11
-585.170851335374
 21
37.40871390741977
 31
0.0
  0
LINE
  5
F6
  8
LAYER_1
 10
-585.170851335374
 20
37.40871390741977
 30
0.0
 11
-585.1855952080334
 21
42.95008122408507
 31
0.0
  0
LINE
  5
F7
  8
LAYER_1
 10
-581.3092674885481
 20
41.50842459556503
 30
0.0
 11
-581.3585444745011
 21
41.56107242370972
 31
0.0
  0
LINE
  5
F8
  8
LAYER_1
 10
-581.3585444745011
 20
41.56107242370972
 30
0.0
 11
-581.6926243809799
 21
41.63654565301725
 31
0.0
  0
LINE
  5
F9
  8
LAYER_1
 10
-581.6926243809799
 20
41.63654565301725
 30
0.0
 11
-583.699591303598
 21
41.55709088526152
 31
0.0
  0
LINE
  5
FA
  8
LAYER_1
 10
-583.699591303598
 20
41.55709088526152
 30
0.0
 11
-583.69958739246
 21
40.58930717382748
 31
0.0
  0
LINE
  5
FB
  8
LAYER_1
 10
-583.69958739246
 20
40.58930717382748
 30
0.0
 11
-583.5829187057029
 21
40.58729684891361
 31
0.0
  0
LINE
  5
FC
  8
LAYER_1
 10
-583.5829187057029
 20
40.58729684891361
 30
0.0
 11
-581.9169527275592
 21
40.64780941677161
 31
0.0
  0
LINE
  5
FD
  8
LAYER_1
 10
-581.9169527275592
 20
40.64780941677161
 30
0.0
 11
-581.4994560705663
 21
40.71602860262232
 31
0.0
  0
LINE
  5
FE
  8
LAYER_1
 10
-581.4994560705663
 20
40.71602860262232
 30
0.0
 11
-581.3279906647198
 21
40.85085111561033
 31
0.0
  0
LINE
  5
FF
  8
LAYER_1
 10
-581.3279906647198
 20
40.85085111561033
 30
0.0
 11
-581.2207634650097
 21
41.21471433769138
 31
0.0
  0
LINE
  5
100
  8
LAYER_1
 10
-581.2207634650097
 20
41.21471433769138
 30
0.0
 11
-581.3092674885481
 21
41.50842459556503
 31
0.0
  0
LINE
  5
101
  8
LAYER_1
 10
-573.2559662266242
 20
43.61893610213232
 30
0.0
 11
-573.2560109253437
 21
37.40843454042228
 31
0.0
  0
LINE
  5
102
  8
LAYER_1
 10
-573.2560109253437
 20
37.40843454042228
 30
0.0
 11
-574.7003941757594
 21
37.40843454042228
 31
0.0
  0
LINE
  5
103
  8
LAYER_1
 10
-574.7003941757594
 20
37.40843454042228
 30
0.0
 11
-574.7003941757594
 21
41.25028948988556
 31
0.0
  0
LINE
  5
104
  8
LAYER_1
 10
-574.7003941757594
 20
41.25028948988556
 30
0.0
 11
-574.8777922191646
 21
41.24950111621861
 31
0.0
  0
LINE
  5
105
  8
LAYER_1
 10
-574.8777922191646
 20
41.24950111621861
 30
0.0
 11
-577.3834404069798
 21
37.40943970287925
 31
0.0
  0
LINE
  5
106
  8
LAYER_1
 10
-577.3834404069798
 20
37.40943970287925
 30
0.0
 11
-579.0446627335061
 21
37.40955200841228
 31
0.0
  0
LINE
  5
107
  8
LAYER_1
 10
-579.0446627335061
 20
37.40955200841228
 30
0.0
 11
-579.0387496516372
 21
43.30112261844936
 31
0.0
  0
LINE
  5
108
  8
LAYER_1
 10
-579.0387496516372
 20
43.30112261844936
 30
0.0
 11
-577.6385063868248
 21
43.3780150321041
 31
0.0
  0
LINE
  5
109
  8
LAYER_1
 10
-577.6385063868248
 20
43.3780150321041
 30
0.0
 11
-577.6385527617464
 21
39.63722444638636
 31
0.0
  0
LINE
  5
10A
  8
LAYER_1
 10
-577.6385527617464
 20
39.63722444638636
 30
0.0
 11
-577.455832777039
 21
39.63682998018588
 31
0.0
  0
LINE
  5
10B
  8
LAYER_1
 10
-577.455832777039
 20
39.63682998018588
 30
0.0
 11
-574.9678601391549
 21
43.5248955834377
 31
0.0
  0
LINE
  5
10C
  8
LAYER_1
 10
-574.9678601391549
 20
43.5248955834377
 30
0.0
 11
-573.2559662266242
 21
43.61893610213232
 31
0.0
  0
LINE
  5
10D
  8
LAYER_1
 10
-589.6739076246213
 20
40.78487580548344
 30
0.0
 11
-589.4574423415531
 21
40.78605864535081
 31
0.0
  0
LINE
  5
10E
  8
LAYER_1
 10
-589.4574423415531
 20
40.78605864535081
 30
0.0
 11
-588.6036191332028
 21
40.83966973090287
 31
0.0
  0
LINE
  5
10F
  8
LAYER_1
 10
-588.6036191332028
 20
40.83966973090287
 30
0.0
 11
-587.1812662054751
 21
40.87245177185618
 31
0.0
  0
LINE
  5
110
  8
LAYER_1
 10
-587.1812662054751
 20
40.87245177185618
 30
0.0
 11
-586.5994034167759
 21
40.73860704335938
 31
0.0
  0
LINE
  5
111
  8
LAYER_1
 10
-586.5994034167759
 20
40.73860704335938
 30
0.0
 11
-586.3373599668015
 21
40.5708773330032
 31
0.0
  0
LINE
  5
112
  8
LAYER_1
 10
-586.3373599668015
 20
40.5708773330032
 30
0.0
 11
-586.1046584325734
 21
40.32052650934172
 31
0.0
  0
LINE
  5
113
  8
LAYER_1
 10
-586.1046584325734
 20
40.32052650934172
 30
0.0
 11
-585.9019687361515
 21
39.90565087351929
 31
0.0
  0
LINE
  5
114
  8
LAYER_1
 10
-585.9019687361515
 20
39.90565087351929
 30
0.0
 11
-585.8255126937468
 21
39.42661916545761
 31
0.0
  0
LINE
  5
115
  8
LAYER_1
 10
-585.8255126937468
 20
39.42661916545761
 30
0.0
 11
-585.8231671284359
 21
38.89269016618742
 31
0.0
  0
LINE
  5
116
  8
LAYER_1
 10
-585.8231671284359
 20
38.89269016618742
 30
0.0
 11
-585.8540165085005
 21
38.46376237039129
 31
0.0
  0
LINE
  5
117
  8
LAYER_1
 10
-585.8540165085005
 20
38.46376237039129
 30
0.0
 11
-585.9888909837501
 21
38.09277026126843
 31
0.0
  0
LINE
  5
118
  8
LAYER_1
 10
-585.9888909837501
 20
38.09277026126843
 30
0.0
 11
-586.2203666555932
 21
37.79137349982584
 31
0.0
  0
LINE
  5
119
  8
LAYER_1
 10
-586.2203666555932
 20
37.79137349982584
 30
0.0
 11
-586.5410173905027
 21
37.5712339820068
 31
0.0
  0
LINE
  5
11A
  8
LAYER_1
 10
-586.5410173905027
 20
37.5712339820068
 30
0.0
 11
-587.1879307845672
 21
37.40706173099666
 31
0.0
  0
LINE
  5
11B
  8
LAYER_1
 10
-587.1879307845672
 20
37.40706173099666
 30
0.0
 11
-591.0916934606739
 21
37.40844124523026
 31
0.0
  0
LINE
  5
11C
  8
LAYER_1
 10
-591.0916934606739
 20
37.40844124523026
 30
0.0
 11
-591.0916940194079
 21
42.63762599941393
 31
0.0
  0
LINE
  5
11D
  8
LAYER_1
 10
-591.0916940194079
 20
42.63762599941393
 30
0.0
 11
-586.1509769220231
 21
42.90943947202445
 31
0.0
  0
LINE
  5
11E
  8
LAYER_1
 10
-586.1509769220231
 20
42.90943947202445
 30
0.0
 11
-586.1523564362567
 21
41.5058438032422
 31
0.0
  0
LINE
  5
11F
  8
LAYER_1
 10
-586.1523564362567
 20
41.5058438032422
 30
0.0
 11
-589.6731192509544
 21
41.30918564029612
 31
0.0
  0
LINE
  5
120
  8
LAYER_1
 10
-589.6731192509544
 20
41.30918564029612
 30
0.0
 11
-589.6739076246213
 21
40.78487580548344
 31
0.0
  0
LINE
  5
121
  8
LAYER_1
 10
-589.6762531899321
 20
38.68849412291509
 30
0.0
 11
-587.7708026468615
 21
38.71843500150392
 31
0.0
  0
LINE
  5
122
  8
LAYER_1
 10
-587.7708026468615
 20
38.71843500150392
 30
0.0
 11
-587.4722565462612
 21
38.75184729440356
 31
0.0
  0
LINE
  5
123
  8
LAYER_1
 10
-587.4722565462612
 20
38.75184729440356
 30
0.0
 11
-587.3495652657721
 21
38.81944907918985
 31
0.0
  0
LINE
  5
124
  8
LAYER_1
 10
-587.3495652657721
 20
38.81944907918985
 30
0.0
 11
-587.2995149919701
 21
38.94848087305392
 31
0.0
  0
LINE
  5
125
  8
LAYER_1
 10
-587.2995149919701
 20
38.94848087305392
 30
0.0
 11
-587.2995105220982
 21
39.40143870050596
 31
0.0
  0
LINE
  5
126
  8
LAYER_1
 10
-587.2995105220982
 20
39.40143870050596
 30
0.0
 11
-587.3541591766789
 21
39.53215898850286
 31
0.0
  0
LINE
  5
127
  8
LAYER_1
 10
-587.3541591766789
 20
39.53215898850286
 30
0.0
 11
-587.4611399746972
 21
39.60107100450736
 31
0.0
  0
LINE
  5
128
  8
LAYER_1
 10
-587.4611399746972
 20
39.60107100450736
 30
0.0
 11
-588.7144652529983
 21
39.61464209451134
 31
0.0
  0
LINE
  5
129
  8
LAYER_1
 10
-588.7144652529983
 20
39.61464209451134
 30
0.0
 11
-589.6762520724642
 21
39.57469764247647
 31
0.0
  0
LINE
  5
12A
  8
LAYER_1
 10
-589.6762520724642
 20
39.57469764247647
 30
0.0
 11
-589.6762531899321
 21
39.57464623894893
 31
0.0
  0
LINE
  5
12B
  8
LAYER_1
 10
-589.6762531899321
 20
39.57464623894893
 30
0.0
 11
-589.6762531899321
 21
38.68849412291509
 31
0.0
  0
LINE
  5
12C
  8
LAYER_1
 10
-564.8353364743823
 20
44.08055710017653
 30
0.0
 11
-567.0684230447678
 21
37.40860271935479
 31
0.0
  0
LINE
  5
12D
  8
LAYER_1
 10
-567.0684230447678
 20
37.40860271935479
 30
0.0
 11
-565.6429250033824
 21
37.40843454042228
 31
0.0
  0
LINE
  5
12E
  8
LAYER_1
 10
-565.6429250033824
 20
37.40843454042228
 30
0.0
 11
-565.23471227045
 21
38.64094027260258
 31
0.0
  0
LINE
  5
12F
  8
LAYER_1
 10
-565.23471227045
 20
38.64094027260258
 30
0.0
 11
-562.3905344186201
 21
38.64100173334201
 31
0.0
  0
LINE
  5
130
  8
LAYER_1
 10
-562.3905344186201
 20
38.64100173334201
 30
0.0
 11
-562.0160077582449
 21
37.40826133288384
 31
0.0
  0
LINE
  5
131
  8
LAYER_1
 10
-562.0160077582449
 20
37.40826133288384
 30
0.0
 11
-560.4992740428197
 21
37.40944417275121
 31
0.0
  0
LINE
  5
132
  8
LAYER_1
 10
-560.4992740428197
 20
37.40944417275121
 30
0.0
 11
-562.7069510673157
 21
44.20002504424859
 31
0.0
  0
LINE
  5
133
  8
LAYER_1
 10
-562.7069510673157
 20
44.20002504424859
 30
0.0
 11
-564.8353364743823
 21
44.08055710017653
 31
0.0
  0
LINE
  5
134
  8
LAYER_1
 10
-564.0057226513002
 20
42.63082061935513
 30
0.0
 11
-563.801734457074
 21
42.64678644326158
 31
0.0
  0
LINE
  5
135
  8
LAYER_1
 10
-563.801734457074
 20
42.64678644326158
 30
0.0
 11
-563.0444208129419
 21
40.38336061694891
 31
0.0
  0
LINE
  5
136
  8
LAYER_1
 10
-563.0444208129419
 20
40.38336061694891
 30
0.0
 11
-564.7819159171224
 21
40.3389943440777
 31
0.0
  0
LINE
  5
137
  8
LAYER_1
 10
-564.7819159171224
 20
40.3389943440777
 30
0.0
 11
-564.0057226513002
 21
42.63082061935513
 31
0.0
  0
LINE
  5
138
  8
LAYER_1
 10
-569.6523442779392
 20
40.93516351671839
 30
0.0
 11
-567.000201623981
 21
43.9633285619564
 31
0.0
  0
LINE
  5
139
  8
LAYER_1
 10
-567.000201623981
 20
43.9633285619564
 30
0.0
 11
-568.8780618823798
 21
43.86225078859502
 31
0.0
  0
LINE
  5
13A
  8
LAYER_1
 10
-568.8780618823798
 20
43.86225078859502
 30
0.0
 11
-570.8879845078313
 21
41.61972161369447
 31
0.0
  0
LINE
  5
13B
  8
LAYER_1
 10
-570.8879845078313
 20
41.61972161369447
 30
0.0
 11
-571.0756716377541
 21
41.51897908073012
 31
0.0
  0
LINE
  5
13C
  8
LAYER_1
 10
-571.0756716377541
 20
41.51897908073012
 30
0.0
 11
-571.0756632567443
 21
43.738890703514
 31
0.0
  0
LINE
  5
13D
  8
LAYER_1
 10
-571.0756632567443
 20
43.738890703514
 30
0.0
 11
-572.474744354847
 21
43.66083556441571
 31
0.0
  0
LINE
  5
13E
  8
LAYER_1
 10
-572.474744354847
 20
43.66083556441571
 30
0.0
 11
-572.4747890535666
 21
37.40843454042228
 31
0.0
  0
LINE
  5
13F
  8
LAYER_1
 10
-572.4747890535666
 20
37.40843454042228
 30
0.0
 11
-571.0716962453798
 21
37.40843454042228
 31
0.0
  0
LINE
  5
140
  8
LAYER_1
 10
-571.0716962453798
 20
37.40843454042228
 30
0.0
 11
-571.0716962453798
 21
39.91435650789504
 31
0.0
  0
LINE
  5
141
  8
LAYER_1
 10
-571.0716962453798
 20
39.91435650789504
 30
0.0
 11
-568.8879235373911
 21
37.40971404127079
 31
0.0
  0
LINE
  5
142
  8
LAYER_1
 10
-568.8879235373911
 20
37.40971404127079
 30
0.0
 11
-566.9359304525387
 21
37.40853120140342
 31
0.0
  0
LINE
  5
143
  8
LAYER_1
 10
-566.9359304525387
 20
37.40853120140342
 30
0.0
 11
-569.6523442779392
 21
40.67199980508413
 31
0.0
  0
LINE
  5
144
  8
LAYER_1
 10
-569.6523442779392
 20
40.67199980508413
 30
0.0
 11
-569.6523442779392
 21
40.93516351671839
 31
0.0
  0
LINE
  5
145
  8
LAYER_1
 10
-585.8911762303046
 20
44.0802185073756
 30
0.0
 11
-585.5810738344862
 21
44.4516564862265
 31
0.0
  0
LINE
  5
146
  8
LAYER_1
 10
-585.5810738344862
 20
44.4516564862265
 30
0.0
 11
-585.5012251592641
 21
44.79584836054637
 31
0.0
  0
LINE
  5
147
  8
LAYER_1
 10
-585.5012251592641
 20
44.79584836054637
 30
0.0
 11
-585.5317968485333
 21
45.18986925000625
 31
0.0
  0
LINE
  5
148
  8
LAYER_1
 10
-585.5317968485333
 20
45.18986925000625
 30
0.0
 11
-585.7793657356337
 21
45.60143271070645
 31
0.0
  0
LINE
  5
149
  8
LAYER_1
 10
-585.7793657356337
 20
45.60143271070645
 30
0.0
 11
-586.1491425983174
 21
45.82929057993211
 31
0.0
  0
LINE
  5
14A
  8
LAYER_1
 10
-586.1491425983174
 20
45.82929057993211
 30
0.0
 11
-586.28613355794
 21
45.88566404635536
 31
0.0
  0
LINE
  5
14B
  8
LAYER_1
 10
-586.28613355794
 20
45.88566404635536
 30
0.0
 11
-586.286134675408
 21
46.08166234445339
 31
0.0
  0
LINE
  5
14C
  8
LAYER_1
 10
-586.286134675408
 20
46.08166234445339
 30
0.0
 11
-586.0635987474845
 21
46.14850201607054
 31
0.0
  0
LINE
  5
14D
  8
LAYER_1
 10
-586.0635987474845
 20
46.14850201607054
 30
0.0
 11
-585.8394089669359
 21
46.29872882530006
 31
0.0
  0
LINE
  5
14E
  8
LAYER_1
 10
-585.8394089669359
 20
46.29872882530006
 30
0.0
 11
-585.710142504794
 21
46.4971486765323
 31
0.0
  0
LINE
  5
14F
  8
LAYER_1
 10
-585.710142504794
 20
46.4971486765323
 30
0.0
 11
-585.6404052386789
 21
46.95743765273254
 31
0.0
  0
LINE
  5
150
  8
LAYER_1
 10
-585.6404052386789
 20
46.95743765273254
 30
0.0
 11
-585.7185168099106
 21
47.34134657435133
 31
0.0
  0
LINE
  5
151
  8
LAYER_1
 10
-585.7185168099106
 20
47.34134657435133
 30
0.0
 11
-585.9602933016852
 21
47.6133746008159
 31
0.0
  0
LINE
  5
152
  8
LAYER_1
 10
-585.9602933016852
 20
47.6133746008159
 30
0.0
 11
-586.5046840362774
 21
47.87406032718248
 31
0.0
  0
LINE
  5
153
  8
LAYER_1
 10
-586.5046840362774
 20
47.87406032718248
 30
0.0
 11
-587.0925347772009
 21
47.98592054917889
 31
0.0
  0
LINE
  5
154
  8
LAYER_1
 10
-587.0925347772009
 20
47.98592054917889
 30
0.0
 11
-588.3072498602471
 21
48.00130473099655
 31
0.0
  0
LINE
  5
155
  8
LAYER_1
 10
-588.3072498602471
 20
48.00130473099655
 30
0.0
 11
-589.5965604014946
 21
47.95852246900118
 31
0.0
  0
LINE
  5
156
  8
LAYER_1
 10
-589.5965604014946
 20
47.95852246900118
 30
0.0
 11
-590.1834903487943
 21
47.77849334721354
 31
0.0
  0
LINE
  5
157
  8
LAYER_1
 10
-590.1834903487943
 20
47.77849334721354
 30
0.0
 11
-590.6617549150809
 21
47.37704241308846
 31
0.0
  0
LINE
  5
158
  8
LAYER_1
 10
-590.6617549150809
 20
47.37704241308846
 30
0.0
 11
-590.8262473206702
 21
46.98300140920473
 31
0.0
  0
LINE
  5
159
  8
LAYER_1
 10
-590.8262473206702
 20
46.98300140920473
 30
0.0
 11
-590.9140149328032
 21
46.48411844103551
 31
0.0
  0
LINE
  5
15A
  8
LAYER_1
 10
-590.9140149328032
 20
46.48411844103551
 30
0.0
 11
-589.558360316992
 21
46.48450955483194
 31
0.0
  0
LINE
  5
15B
  8
LAYER_1
 10
-589.558360316992
 20
46.48450955483194
 30
0.0
 11
-589.451692410011
 21
46.73929058033958
 31
0.0
  0
LINE
  5
15C
  8
LAYER_1
 10
-589.451692410011
 20
46.73929058033958
 30
0.0
 11
-589.22485199539
 21
46.90535693959274
 31
0.0
  0
LINE
  5
15D
  8
LAYER_1
 10
-589.22485199539
 20
46.90535693959274
 30
0.0
 11
-588.7559490171893
 21
47.01256458361297
 31
0.0
  0
LINE
  5
15E
  8
LAYER_1
 10
-588.7559490171893
 20
47.01256458361297
 30
0.0
 11
-587.9761854411391
 21
47.02541602423146
 31
0.0
  0
LINE
  5
15F
  8
LAYER_1
 10
-587.9761854411391
 20
47.02541602423146
 30
0.0
 11
-587.2637940102031
 21
46.95424001807923
 31
0.0
  0
LINE
  5
160
  8
LAYER_1
 10
-587.2637940102031
 20
46.95424001807923
 30
0.0
 11
-587.0778043141572
 21
46.85504741321698
 31
0.0
  0
LINE
  5
161
  8
LAYER_1
 10
-587.0778043141572
 20
46.85504741321698
 30
0.0
 11
-587.0410804048693
 21
46.68520568835977
 31
0.0
  0
LINE
  5
162
  8
LAYER_1
 10
-587.0410804048693
 20
46.68520568835977
 30
0.0
 11
-587.1515158551786
 21
46.51735976133266
 31
0.0
  0
LINE
  5
163
  8
LAYER_1
 10
-587.1515158551786
 20
46.51735976133266
 30
0.0
 11
-587.3071579142875
 21
46.44887182443036
 31
0.0
  0
LINE
  5
164
  8
LAYER_1
 10
-587.3071579142875
 20
46.44887182443036
 30
0.0
 11
-587.8310738416336
 21
46.3729845732325
 31
0.0
  0
LINE
  5
165
  8
LAYER_1
 10
-587.8310738416336
 20
46.3729845732325
 30
0.0
 11
-588.872006448956
 21
46.36923937926416
 31
0.0
  0
LINE
  5
166
  8
LAYER_1
 10
-588.872006448956
 20
46.36923937926416
 30
0.0
 11
-589.0700826787814
 21
46.36885161787167
 31
0.0
  0
LINE
  5
167
  8
LAYER_1
 10
-589.0700826787814
 20
46.36885161787167
 30
0.0
 11
-589.0700826787814
 21
45.3905083926666
 31
0.0
  0
LINE
  5
168
  8
LAYER_1
 10
-589.0700826787814
 20
45.3905083926666
 30
0.0
 11
-587.8144956452686
 21
45.38816282735571
 31
0.0
  0
LINE
  5
169
  8
LAYER_1
 10
-587.8144956452686
 20
45.38816282735571
 30
0.0
 11
-587.2673408536034
 21
45.32999582480861
 31
0.0
  0
LINE
  5
16A
  8
LAYER_1
 10
-587.2673408536034
 20
45.32999582480861
 30
0.0
 11
-587.1005470226887
 21
45.27697364488722
 31
0.0
  0
LINE
  5
16B
  8
LAYER_1
 10
-587.1005470226887
 20
45.27697364488722
 30
0.0
 11
-586.9929862587837
 21
45.18894845638251
 31
0.0
  0
LINE
  5
16C
  8
LAYER_1
 10
-586.9929862587837
 20
45.18894845638251
 30
0.0
 11
-586.9581553402709
 21
45.06592640536847
 31
0.0
  0
LINE
  5
16D
  8
LAYER_1
 10
-586.9581553402709
 20
45.06592640536847
 30
0.0
 11
-587.0653037584875
 21
44.82500254167029
 31
0.0
  0
LINE
  5
16E
  8
LAYER_1
 10
-587.0653037584875
 20
44.82500254167029
 30
0.0
 11
-587.3450981874823
 21
44.68115703339737
 31
0.0
  0
LINE
  5
16F
  8
LAYER_1
 10
-587.3450981874823
 20
44.68115703339737
 30
0.0
 11
-587.658170813218
 21
44.62515344887882
 31
0.0
  0
LINE
  5
170
  8
LAYER_1
 10
-587.658170813218
 20
44.62515344887882
 30
0.0
 11
-588.5171740444358
 21
44.62810971044628
 31
0.0
  0
LINE
  5
171
  8
LAYER_1
 10
-588.5171740444358
 20
44.62810971044628
 30
0.0
 11
-588.899481634425
 21
44.66920459577683
 31
0.0
  0
LINE
  5
172
  8
LAYER_1
 10
-588.899481634425
 20
44.66920459577683
 30
0.0
 11
-589.2652015295714
 21
44.78538327282044
 31
0.0
  0
LINE
  5
173
  8
LAYER_1
 10
-589.2652015295714
 20
44.78538327282044
 30
0.0
 11
-589.4631039931244
 21
44.93268566832026
 31
0.0
  0
LINE
  5
174
  8
LAYER_1
 10
-589.4631039931244
 20
44.93268566832026
 30
0.0
 11
-589.5735193290097
 21
45.161309561853
 31
0.0
  0
LINE
  5
175
  8
LAYER_1
 10
-589.5735193290097
 20
45.161309561853
 30
0.0
 11
-589.6091570594112
 21
45.33535687749041
 31
0.0
  0
LINE
  5
176
  8
LAYER_1
 10
-589.6091570594112
 20
45.33535687749041
 30
0.0
 11
-590.9871682985636
 21
45.33634248425754
 31
0.0
  0
LINE
  5
177
  8
LAYER_1
 10
-590.9871682985636
 20
45.33634248425754
 30
0.0
 11
-590.9512545535684
 21
44.86154597987776
 31
0.0
  0
LINE
  5
178
  8
LAYER_1
 10
-590.9512545535684
 20
44.86154597987776
 30
0.0
 11
-590.8133377717163
 21
44.44185964435859
 31
0.0
  0
LINE
  5
179
  8
LAYER_1
 10
-590.8133377717163
 20
44.44185964435859
 30
0.0
 11
-590.5269385481668
 21
44.10186609727698
 31
0.0
  0
LINE
  5
17A
  8
LAYER_1
 10
-590.5269385481668
 20
44.10186609727698
 30
0.0
 11
-589.7307928913839
 21
43.73086728334611
 31
0.0
  0
LINE
  5
17B
  8
LAYER_1
 10
-589.7307928913839
 20
43.73086728334611
 30
0.0
 11
-589.3121335089475
 21
43.68634065381838
 31
0.0
  0
LINE
  5
17C
  8
LAYER_1
 10
-589.3121335089475
 20
43.68634065381838
 30
0.0
 11
-586.3277044846343
 21
43.85007876851442
 31
0.0
  0
LINE
  5
17D
  8
LAYER_1
 10
-586.3277044846343
 20
43.85007876851442
 30
0.0
 11
-585.8911762303046
 21
44.0802185073756
 31
0.0
  0
LINE
  5
17E
  8
LAYER_1
 10
-598.1086699945322
 20
40.52227753265207
 30
0.0
 11
-598.344846295475
 21
41.1209246905605
 31
0.0
  0
LINE
  5
17F
  8
LAYER_1
 10
-598.344846295475
 20
41.1209246905605
 30
0.0
 11
-598.5452747954191
 21
41.34655544608215
 31
0.0
  0
LINE
  5
180
  8
LAYER_1
 10
-598.5452747954191
 20
41.34655544608215
 30
0.0
 11
-598.8253580898893
 21
41.5295073053975
 31
0.0
  0
LINE
  5
181
  8
LAYER_1
 10
-598.8253580898893
 20
41.5295073053975
 30
0.0
 11
-599.3950963508976
 21
41.7225387259822
 31
0.0
  0
LINE
  5
182
  8
LAYER_1
 10
-599.3950963508976
 20
41.7225387259822
 30
0.0
 11
-599.9867425718489
 21
41.79081490270043
 31
0.0
  0
LINE
  5
183
  8
LAYER_1
 10
-599.9867425718489
 20
41.79081490270043
 30
0.0
 11
-601.098790842052
 21
41.7468989694292
 31
0.0
  0
LINE
  5
184
  8
LAYER_1
 10
-601.098790842052
 20
41.7468989694292
 30
0.0
 11
-601.2764257886711
 21
41.74372536033773
 31
0.0
  0
LINE
  5
185
  8
LAYER_1
 10
-601.2764257886711
 20
41.74372536033773
 30
0.0
 11
-601.2764090266514
 21
42.07721580245176
 31
0.0
  0
LINE
  5
186
  8
LAYER_1
 10
-601.2764090266514
 20
42.07721580245176
 30
0.0
 11
-602.6993368916599
 21
41.99876619715302
 31
0.0
  0
LINE
  5
187
  8
LAYER_1
 10
-602.6993368916599
 20
41.99876619715302
 30
0.0
 11
-602.6993368916599
 21
41.65201923227414
 31
0.0
  0
LINE
  5
188
  8
LAYER_1
 10
-602.6993368916599
 20
41.65201923227414
 30
0.0
 11
-602.8676677997945
 21
41.64912163777619
 31
0.0
  0
LINE
  5
189
  8
LAYER_1
 10
-602.8676677997945
 20
41.64912163777619
 30
0.0
 11
-604.3471507197746
 21
41.51759062675261
 31
0.0
  0
LINE
  5
18A
  8
LAYER_1
 10
-604.3471507197746
 20
41.51759062675261
 30
0.0
 11
-604.886835237927
 21
41.35836596526796
 31
0.0
  0
LINE
  5
18B
  8
LAYER_1
 10
-604.886835237927
 20
41.35836596526796
 30
0.0
 11
-605.3575110790939
 21
41.09762548296995
 31
0.0
  0
LINE
  5
18C
  8
LAYER_1
 10
-605.3575110790939
 20
41.09762548296995
 30
0.0
 11
-605.7115210271734
 21
40.67932536649225
 31
0.0
  0
LINE
  5
18D
  8
LAYER_1
 10
-605.7115210271734
 20
40.67932536649225
 30
0.0
 11
-605.8529025185285
 21
40.33649345071622
 31
0.0
  0
LINE
  5
18E
  8
LAYER_1
 10
-605.8529025185285
 20
40.33649345071622
 30
0.0
 11
-605.905910171366
 21
39.9661628826433
 31
0.0
  0
LINE
  5
18F
  8
LAYER_1
 10
-605.905910171366
 20
39.9661628826433
 30
0.0
 11
-605.8942806819945
 21
39.46747714757431
 31
0.0
  0
LINE
  5
190
  8
LAYER_1
 10
-605.8942806819945
 20
39.46747714757431
 30
0.0
 11
-605.7504206466376
 21
38.88212506507641
 31
0.0
  0
LINE
  5
191
  8
LAYER_1
 10
-605.7504206466376
 20
38.88212506507641
 30
0.0
 11
-605.3880654476093
 21
38.40582668371816
 31
0.0
  0
LINE
  5
192
  8
LAYER_1
 10
-605.3880654476093
 20
38.40582668371816
 30
0.0
 11
-604.7972087177927
 21
38.05840253323738
 31
0.0
  0
LINE
  5
193
  8
LAYER_1
 10
-604.7972087177927
 20
38.05840253323738
 30
0.0
 11
-604.1315341536449
 21
37.9512932264002
 31
0.0
  0
LINE
  5
194
  8
LAYER_1
 10
-604.1315341536449
 20
37.9512932264002
 30
0.0
 11
-602.8843840034563
 21
37.97007786331135
 31
0.0
  0
LINE
  5
195
  8
LAYER_1
 10
-602.8843840034563
 20
37.97007786331135
 30
0.0
 11
-602.6993380091278
 21
37.9729754578093
 31
0.0
  0
LINE
  5
196
  8
LAYER_1
 10
-602.6993380091278
 20
37.9729754578093
 30
0.0
 11
-602.6993368916599
 21
37.40843454042228
 31
0.0
  0
LINE
  5
197
  8
LAYER_1
 10
-602.6993368916599
 20
37.40843454042228
 30
0.0
 11
-601.2764090266514
 21
37.40843454042228
 31
0.0
  0
LINE
  5
198
  8
LAYER_1
 10
-601.2764090266514
 20
37.40843454042228
 30
0.0
 11
-601.2764090266514
 21
37.99678143713328
 31
0.0
  0
LINE
  5
199
  8
LAYER_1
 10
-601.2764090266514
 20
37.99678143713328
 30
0.0
 11
-599.9721003887765
 21
38.01828599113198
 31
0.0
  0
LINE
  5
19A
  8
LAYER_1
 10
-599.9721003887765
 20
38.01828599113198
 30
0.0
 11
-599.4947689082617
 21
38.0622807058965
 31
0.0
  0
LINE
  5
19B
  8
LAYER_1
 10
-599.4947689082617
 20
38.0622807058965
 30
0.0
 11
-599.0348688109218
 21
38.20295763368384
 31
0.0
  0
LINE
  5
19C
  8
LAYER_1
 10
-599.0348688109218
 20
38.20295763368384
 30
0.0
 11
-598.5789759537943
 21
38.49634214963841
 31
0.0
  0
LINE
  5
19D
  8
LAYER_1
 10
-598.5789759537943
 20
38.49634214963841
 30
0.0
 11
-598.2498028492594
 21
38.93085952032028
 31
0.0
  0
LINE
  5
19E
  8
LAYER_1
 10
-598.2498028492594
 20
38.93085952032028
 30
0.0
 11
-598.1118486322296
 21
39.30577617702396
 31
0.0
  0
LINE
  5
19F
  8
LAYER_1
 10
-598.1118486322296
 20
39.30577617702396
 30
0.0
 11
-598.0830090183447
 21
39.71064544573032
 31
0.0
  0
LINE
  5
1A0
  8
LAYER_1
 10
-598.0830090183447
 20
39.71064544573032
 30
0.0
 11
-598.0830263390985
 21
39.71054319740924
 31
0.0
  0
LINE
  5
1A1
  8
LAYER_1
 10
-598.0830263390985
 20
39.71054319740924
 30
0.0
 11
-598.1086699945322
 21
40.52227753265207
 31
0.0
  0
LINE
  5
1A2
  8
LAYER_1
 10
-548.818387262063
 20
40.52227753265207
 30
0.0
 11
-549.0545635630058
 21
41.1209246905605
 31
0.0
  0
LINE
  5
1A3
  8
LAYER_1
 10
-549.0545635630058
 20
41.1209246905605
 30
0.0
 11
-549.2549920629499
 21
41.34655544608215
 31
0.0
  0
LINE
  5
1A4
  8
LAYER_1
 10
-549.2549920629499
 20
41.34655544608215
 30
0.0
 11
-549.53507535742
 21
41.5295073053975
 31
0.0
  0
LINE
  5
1A5
  8
LAYER_1
 10
-549.53507535742
 20
41.5295073053975
 30
0.0
 11
-550.1048136184284
 21
41.7225387259822
 31
0.0
  0
LINE
  5
1A6
  8
LAYER_1
 10
-550.1048136184284
 20
41.7225387259822
 30
0.0
 11
-550.6964598393797
 21
41.79081490270043
 31
0.0
  0
LINE
  5
1A7
  8
LAYER_1
 10
-550.6964598393797
 20
41.79081490270043
 30
0.0
 11
-551.8085081095828
 21
41.7468989694292
 31
0.0
  0
LINE
  5
1A8
  8
LAYER_1
 10
-551.8085081095828
 20
41.7468989694292
 30
0.0
 11
-551.9861430562019
 21
41.74372536033773
 31
0.0
  0
LINE
  5
1A9
  8
LAYER_1
 10
-551.9861430562019
 20
41.74372536033773
 30
0.0
 11
-551.9861262941822
 21
42.07721580245176
 31
0.0
  0
LINE
  5
1AA
  8
LAYER_1
 10
-551.9861262941822
 20
42.07721580245176
 30
0.0
 11
-553.4090541591906
 21
41.99876619715302
 31
0.0
  0
LINE
  5
1AB
  8
LAYER_1
 10
-553.4090541591906
 20
41.99876619715302
 30
0.0
 11
-553.4090541591906
 21
41.65201923227414
 31
0.0
  0
LINE
  5
1AC
  8
LAYER_1
 10
-553.4090541591906
 20
41.65201923227414
 30
0.0
 11
-553.5773850673253
 21
41.64912163777619
 31
0.0
  0
LINE
  5
1AD
  8
LAYER_1
 10
-553.5773850673253
 20
41.64912163777619
 30
0.0
 11
-555.0568679873054
 21
41.51759062675261
 31
0.0
  0
LINE
  5
1AE
  8
LAYER_1
 10
-555.0568679873054
 20
41.51759062675261
 30
0.0
 11
-555.5965525054578
 21
41.35836596526796
 31
0.0
  0
LINE
  5
1AF
  8
LAYER_1
 10
-555.5965525054578
 20
41.35836596526796
 30
0.0
 11
-556.0672283466247
 21
41.09762548296995
 31
0.0
  0
LINE
  5
1B0
  8
LAYER_1
 10
-556.0672283466247
 20
41.09762548296995
 30
0.0
 11
-556.4212382947042
 21
40.67932536649225
 31
0.0
  0
LINE
  5
1B1
  8
LAYER_1
 10
-556.4212382947042
 20
40.67932536649225
 30
0.0
 11
-556.5626197860593
 21
40.33649345071622
 31
0.0
  0
LINE
  5
1B2
  8
LAYER_1
 10
-556.5626197860593
 20
40.33649345071622
 30
0.0
 11
-556.6156274388968
 21
39.9661628826433
 31
0.0
  0
LINE
  5
1B3
  8
LAYER_1
 10
-556.6156274388968
 20
39.9661628826433
 30
0.0
 11
-556.6039979495253
 21
39.46747714757431
 31
0.0
  0
LINE
  5
1B4
  8
LAYER_1
 10
-556.6039979495253
 20
39.46747714757431
 30
0.0
 11
-556.4601379141684
 21
38.88212506507641
 31
0.0
  0
LINE
  5
1B5
  8
LAYER_1
 10
-556.4601379141684
 20
38.88212506507641
 30
0.0
 11
-556.09778271514
 21
38.40582668371816
 31
0.0
  0
LINE
  5
1B6
  8
LAYER_1
 10
-556.09778271514
 20
38.40582668371816
 30
0.0
 11
-555.5069259853235
 21
38.05840253323738
 31
0.0
  0
LINE
  5
1B7
  8
LAYER_1
 10
-555.5069259853235
 20
38.05840253323738
 30
0.0
 11
-554.8412514211757
 21
37.9512932264002
 31
0.0
  0
LINE
  5
1B8
  8
LAYER_1
 10
-554.8412514211757
 20
37.9512932264002
 30
0.0
 11
-553.594101270987
 21
37.97007786331135
 31
0.0
  0
LINE
  5
1B9
  8
LAYER_1
 10
-553.594101270987
 20
37.97007786331135
 30
0.0
 11
-553.4090552766586
 21
37.9729754578093
 31
0.0
  0
LINE
  5
1BA
  8
LAYER_1
 10
-553.4090552766586
 20
37.9729754578093
 30
0.0
 11
-553.4090541591906
 21
37.40843454042228
 31
0.0
  0
LINE
  5
1BB
  8
LAYER_1
 10
-553.4090541591906
 20
37.40843454042228
 30
0.0
 11
-551.9861262941822
 21
37.40843454042228
 31
0.0
  0
LINE
  5
1BC
  8
LAYER_1
 10
-551.9861262941822
 20
37.40843454042228
 30
0.0
 11
-551.9861262941822
 21
37.99678143713328
 31
0.0
  0
LINE
  5
1BD
  8
LAYER_1
 10
-551.9861262941822
 20
37.99678143713328
 30
0.0
 11
-550.6818176563073
 21
38.01828599113198
 31
0.0
  0
LINE
  5
1BE
  8
LAYER_1
 10
-550.6818176563073
 20
38.01828599113198
 30
0.0
 11
-550.2044861757925
 21
38.0622807058965
 31
0.0
  0
LINE
  5
1BF
  8
LAYER_1
 10
-550.2044861757925
 20
38.0622807058965
 30
0.0
 11
-549.7445860784526
 21
38.20295763368384
 31
0.0
  0
LINE
  5
1C0
  8
LAYER_1
 10
-549.7445860784526
 20
38.20295763368384
 30
0.0
 11
-549.288693221325
 21
38.49634214963841
 31
0.0
  0
LINE
  5
1C1
  8
LAYER_1
 10
-549.288693221325
 20
38.49634214963841
 30
0.0
 11
-548.9595201167901
 21
38.93085952032028
 31
0.0
  0
LINE
  5
1C2
  8
LAYER_1
 10
-548.9595201167901
 20
38.93085952032028
 30
0.0
 11
-548.8215658997603
 21
39.30577617702396
 31
0.0
  0
LINE
  5
1C3
  8
LAYER_1
 10
-548.8215658997603
 20
39.30577617702396
 30
0.0
 11
-548.7927262858755
 21
39.71064544573032
 31
0.0
  0
LINE
  5
1C4
  8
LAYER_1
 10
-548.7927262858755
 20
39.71064544573032
 30
0.0
 11
-548.7927436066293
 21
39.71054319740924
 31
0.0
  0
LINE
  5
1C5
  8
LAYER_1
 10
-548.7927436066293
 20
39.71054319740924
 30
0.0
 11
-548.818387262063
 21
40.52227753265207
 31
0.0
  0
LINE
  5
1C6
  8
LAYER_1
 10
-536.6008934978354
 20
44.0802185073756
 30
0.0
 11
-536.290791102017
 21
44.4516564862265
 31
0.0
  0
LINE
  5
1C7
  8
LAYER_1
 10
-536.290791102017
 20
44.4516564862265
 30
0.0
 11
-536.2109424267949
 21
44.79584836054637
 31
0.0
  0
LINE
  5
1C8
  8
LAYER_1
 10
-536.2109424267949
 20
44.79584836054637
 30
0.0
 11
-536.2415141160641
 21
45.18986925000625
 31
0.0
  0
LINE
  5
1C9
  8
LAYER_1
 10
-536.2415141160641
 20
45.18986925000625
 30
0.0
 11
-536.4890830031645
 21
45.60143271070645
 31
0.0
  0
LINE
  5
1CA
  8
LAYER_1
 10
-536.4890830031645
 20
45.60143271070645
 30
0.0
 11
-536.8588598658482
 21
45.82929057993211
 31
0.0
  0
LINE
  5
1CB
  8
LAYER_1
 10
-536.8588598658482
 20
45.82929057993211
 30
0.0
 11
-536.9958508254708
 21
45.88566404635536
 31
0.0
  0
LINE
  5
1CC
  8
LAYER_1
 10
-536.9958508254708
 20
45.88566404635536
 30
0.0
 11
-536.9958519429388
 21
46.08166234445339
 31
0.0
  0
LINE
  5
1CD
  8
LAYER_1
 10
-536.9958519429388
 20
46.08166234445339
 30
0.0
 11
-536.7733160150153
 21
46.14850201607054
 31
0.0
  0
LINE
  5
1CE
  8
LAYER_1
 10
-536.7733160150153
 20
46.14850201607054
 30
0.0
 11
-536.5491262344667
 21
46.29872882530006
 31
0.0
  0
LINE
  5
1CF
  8
LAYER_1
 10
-536.5491262344667
 20
46.29872882530006
 30
0.0
 11
-536.4198597723248
 21
46.4971486765323
 31
0.0
  0
LINE
  5
1D0
  8
LAYER_1
 10
-536.4198597723248
 20
46.4971486765323
 30
0.0
 11
-536.3501225062097
 21
46.95743765273254
 31
0.0
  0
LINE
  5
1D1
  8
LAYER_1
 10
-536.3501225062097
 20
46.95743765273254
 30
0.0
 11
-536.4282340774414
 21
47.34134657435133
 31
0.0
  0
LINE
  5
1D2
  8
LAYER_1
 10
-536.4282340774414
 20
47.34134657435133
 30
0.0
 11
-536.670010569216
 21
47.6133746008159
 31
0.0
  0
LINE
  5
1D3
  8
LAYER_1
 10
-536.670010569216
 20
47.6133746008159
 30
0.0
 11
-537.2144013038081
 21
47.87406032718248
 31
0.0
  0
LINE
  5
1D4
  8
LAYER_1
 10
-537.2144013038081
 20
47.87406032718248
 30
0.0
 11
-537.8022520447316
 21
47.98592054917889
 31
0.0
  0
LINE
  5
1D5
  8
LAYER_1
 10
-537.8022520447316
 20
47.98592054917889
 30
0.0
 11
-539.0169671277779
 21
48.00130473099655
 31
0.0
  0
LINE
  5
1D6
  8
LAYER_1
 10
-539.0169671277779
 20
48.00130473099655
 30
0.0
 11
-540.3062776690253
 21
47.95852246900118
 31
0.0
  0
LINE
  5
1D7
  8
LAYER_1
 10
-540.3062776690253
 20
47.95852246900118
 30
0.0
 11
-540.8932076163251
 21
47.77849334721354
 31
0.0
  0
LINE
  5
1D8
  8
LAYER_1
 10
-540.8932076163251
 20
47.77849334721354
 30
0.0
 11
-541.3714721826117
 21
47.37704241308846
 31
0.0
  0
LINE
  5
1D9
  8
LAYER_1
 10
-541.3714721826117
 20
47.37704241308846
 30
0.0
 11
-541.535964588201
 21
46.98300140920473
 31
0.0
  0
LINE
  5
1DA
  8
LAYER_1
 10
-541.535964588201
 20
46.98300140920473
 30
0.0
 11
-541.623732200334
 21
46.48411844103551
 31
0.0
  0
LINE
  5
1DB
  8
LAYER_1
 10
-541.623732200334
 20
46.48411844103551
 30
0.0
 11
-540.2680775845228
 21
46.48450955483194
 31
0.0
  0
LINE
  5
1DC
  8
LAYER_1
 10
-540.2680775845228
 20
46.48450955483194
 30
0.0
 11
-540.1614096775418
 21
46.73929058033958
 31
0.0
  0
LINE
  5
1DD
  8
LAYER_1
 10
-540.1614096775418
 20
46.73929058033958
 30
0.0
 11
-539.9345692629208
 21
46.90535693959274
 31
0.0
  0
LINE
  5
1DE
  8
LAYER_1
 10
-539.9345692629208
 20
46.90535693959274
 30
0.0
 11
-539.4656662847201
 21
47.01256458361297
 31
0.0
  0
LINE
  5
1DF
  8
LAYER_1
 10
-539.4656662847201
 20
47.01256458361297
 30
0.0
 11
-538.6859027086699
 21
47.02541602423146
 31
0.0
  0
LINE
  5
1E0
  8
LAYER_1
 10
-538.6859027086699
 20
47.02541602423146
 30
0.0
 11
-537.9735112777339
 21
46.95424001807923
 31
0.0
  0
LINE
  5
1E1
  8
LAYER_1
 10
-537.9735112777339
 20
46.95424001807923
 30
0.0
 11
-537.787521581688
 21
46.85504741321698
 31
0.0
  0
LINE
  5
1E2
  8
LAYER_1
 10
-537.787521581688
 20
46.85504741321698
 30
0.0
 11
-537.7507976724
 21
46.68520568835977
 31
0.0
  0
LINE
  5
1E3
  8
LAYER_1
 10
-537.7507976724
 20
46.68520568835977
 30
0.0
 11
-537.8612331227093
 21
46.51735976133266
 31
0.0
  0
LINE
  5
1E4
  8
LAYER_1
 10
-537.8612331227093
 20
46.51735976133266
 30
0.0
 11
-538.0168751818182
 21
46.44887182443036
 31
0.0
  0
LINE
  5
1E5
  8
LAYER_1
 10
-538.0168751818182
 20
46.44887182443036
 30
0.0
 11
-538.5407911091644
 21
46.3729845732325
 31
0.0
  0
LINE
  5
1E6
  8
LAYER_1
 10
-538.5407911091644
 20
46.3729845732325
 30
0.0
 11
-539.5817237164867
 21
46.36923937926416
 31
0.0
  0
LINE
  5
1E7
  8
LAYER_1
 10
-539.5817237164867
 20
46.36923937926416
 30
0.0
 11
-539.7797999463122
 21
46.36885161787167
 31
0.0
  0
LINE
  5
1E8
  8
LAYER_1
 10
-539.7797999463122
 20
46.36885161787167
 30
0.0
 11
-539.7797999463122
 21
45.3905083926666
 31
0.0
  0
LINE
  5
1E9
  8
LAYER_1
 10
-539.7797999463122
 20
45.3905083926666
 30
0.0
 11
-538.5242129127994
 21
45.38816282735571
 31
0.0
  0
LINE
  5
1EA
  8
LAYER_1
 10
-538.5242129127994
 20
45.38816282735571
 30
0.0
 11
-537.9770581211342
 21
45.32999582480861
 31
0.0
  0
LINE
  5
1EB
  8
LAYER_1
 10
-537.9770581211342
 20
45.32999582480861
 30
0.0
 11
-537.8102642902195
 21
45.27697364488722
 31
0.0
  0
LINE
  5
1EC
  8
LAYER_1
 10
-537.8102642902195
 20
45.27697364488722
 30
0.0
 11
-537.7027035263145
 21
45.18894845638251
 31
0.0
  0
LINE
  5
1ED
  8
LAYER_1
 10
-537.7027035263145
 20
45.18894845638251
 30
0.0
 11
-537.6678726078017
 21
45.06592640536847
 31
0.0
  0
LINE
  5
1EE
  8
LAYER_1
 10
-537.6678726078017
 20
45.06592640536847
 30
0.0
 11
-537.7750210260183
 21
44.82500254167029
 31
0.0
  0
LINE
  5
1EF
  8
LAYER_1
 10
-537.7750210260183
 20
44.82500254167029
 30
0.0
 11
-538.0548154550131
 21
44.68115703339737
 31
0.0
  0
LINE
  5
1F0
  8
LAYER_1
 10
-538.0548154550131
 20
44.68115703339737
 30
0.0
 11
-538.3678880807488
 21
44.62515344887882
 31
0.0
  0
LINE
  5
1F1
  8
LAYER_1
 10
-538.3678880807488
 20
44.62515344887882
 30
0.0
 11
-539.2268913119666
 21
44.62810971044628
 31
0.0
  0
LINE
  5
1F2
  8
LAYER_1
 10
-539.2268913119666
 20
44.62810971044628
 30
0.0
 11
-539.6091989019558
 21
44.66920459577683
 31
0.0
  0
LINE
  5
1F3
  8
LAYER_1
 10
-539.6091989019558
 20
44.66920459577683
 30
0.0
 11
-539.9749187971022
 21
44.78538327282044
 31
0.0
  0
LINE
  5
1F4
  8
LAYER_1
 10
-539.9749187971022
 20
44.78538327282044
 30
0.0
 11
-540.1728212606552
 21
44.93268566832026
 31
0.0
  0
LINE
  5
1F5
  8
LAYER_1
 10
-540.1728212606552
 20
44.93268566832026
 30
0.0
 11
-540.2832365965405
 21
45.161309561853
 31
0.0
  0
LINE
  5
1F6
  8
LAYER_1
 10
-540.2832365965405
 20
45.161309561853
 30
0.0
 11
-540.318874326942
 21
45.33535687749041
 31
0.0
  0
LINE
  5
1F7
  8
LAYER_1
 10
-540.318874326942
 20
45.33535687749041
 30
0.0
 11
-541.6968855660944
 21
45.33634248425754
 31
0.0
  0
LINE
  5
1F8
  8
LAYER_1
 10
-541.6968855660944
 20
45.33634248425754
 30
0.0
 11
-541.6609718210992
 21
44.86154597987776
 31
0.0
  0
LINE
  5
1F9
  8
LAYER_1
 10
-541.6609718210992
 20
44.86154597987776
 30
0.0
 11
-541.5230550392471
 21
44.44185964435859
 31
0.0
  0
LINE
  5
1FA
  8
LAYER_1
 10
-541.5230550392471
 20
44.44185964435859
 30
0.0
 11
-541.2366558156975
 21
44.10186609727698
 31
0.0
  0
LINE
  5
1FB
  8
LAYER_1
 10
-541.2366558156975
 20
44.10186609727698
 30
0.0
 11
-540.4405101589147
 21
43.73086728334611
 31
0.0
  0
LINE
  5
1FC
  8
LAYER_1
 10
-540.4405101589147
 20
43.73086728334611
 30
0.0
 11
-540.0218507764782
 21
43.68634065381838
 31
0.0
  0
LINE
  5
1FD
  8
LAYER_1
 10
-540.0218507764782
 20
43.68634065381838
 30
0.0
 11
-537.0374217521651
 21
43.85007876851442
 31
0.0
  0
LINE
  5
1FE
  8
LAYER_1
 10
-537.0374217521651
 20
43.85007876851442
 30
0.0
 11
-536.6008934978354
 21
44.0802185073756
 31
0.0
  0
LINE
  5
1FF
  8
LAYER_1
 10
-520.3620615454699
 20
40.93516351671839
 30
0.0
 11
-517.7099188915117
 21
43.9633285619564
 31
0.0
  0
LINE
  5
200
  8
LAYER_1
 10
-517.7099188915117
 20
43.9633285619564
 30
0.0
 11
-519.5877791499106
 21
43.86225078859502
 31
0.0
  0
LINE
  5
201
  8
LAYER_1
 10
-519.5877791499106
 20
43.86225078859502
 30
0.0
 11
-521.5977017753621
 21
41.61972161369447
 31
0.0
  0
LINE
  5
202
  8
LAYER_1
 10
-521.5977017753621
 20
41.61972161369447
 30
0.0
 11
-521.7853889052849
 21
41.51897908073012
 31
0.0
  0
LINE
  5
203
  8
LAYER_1
 10
-521.7853889052849
 20
41.51897908073012
 30
0.0
 11
-521.7853805242751
 21
43.738890703514
 31
0.0
  0
LINE
  5
204
  8
LAYER_1
 10
-521.7853805242751
 20
43.738890703514
 30
0.0
 11
-523.1844616223777
 21
43.66083556441571
 31
0.0
  0
LINE
  5
205
  8
LAYER_1
 10
-523.1844616223777
 20
43.66083556441571
 30
0.0
 11
-523.1845063210974
 21
37.40843454042228
 31
0.0
  0
LINE
  5
206
  8
LAYER_1
 10
-523.1845063210974
 20
37.40843454042228
 30
0.0
 11
-521.7814135129106
 21
37.40843454042228
 31
0.0
  0
LINE
  5
207
  8
LAYER_1
 10
-521.7814135129106
 20
37.40843454042228
 30
0.0
 11
-521.7814135129106
 21
39.91435650789504
 31
0.0
  0
LINE
  5
208
  8
LAYER_1
 10
-521.7814135129106
 20
39.91435650789504
 30
0.0
 11
-519.5976408049219
 21
37.40971404127079
 31
0.0
  0
LINE
  5
209
  8
LAYER_1
 10
-519.5976408049219
 20
37.40971404127079
 30
0.0
 11
-517.6456477200695
 21
37.40853120140342
 31
0.0
  0
LINE
  5
20A
  8
LAYER_1
 10
-517.6456477200695
 20
37.40853120140342
 30
0.0
 11
-520.3620615454699
 21
40.67199980508413
 31
0.0
  0
LINE
  5
20B
  8
LAYER_1
 10
-520.3620615454699
 20
40.67199980508413
 30
0.0
 11
-520.3620615454699
 21
40.93516351671839
 31
0.0
  0
LINE
  5
20C
  8
LAYER_1
 10
-514.715439918831
 20
42.63082061935513
 30
0.0
 11
-514.5114517246047
 21
42.64678644326158
 31
0.0
  0
LINE
  5
20D
  8
LAYER_1
 10
-514.5114517246047
 20
42.64678644326158
 30
0.0
 11
-513.7541380804727
 21
40.38336061694891
 31
0.0
  0
LINE
  5
20E
  8
LAYER_1
 10
-513.7541380804727
 20
40.38336061694891
 30
0.0
 11
-515.4916331846532
 21
40.3389943440777
 31
0.0
  0
LINE
  5
20F
  8
LAYER_1
 10
-515.4916331846532
 20
40.3389943440777
 30
0.0
 11
-514.715439918831
 21
42.63082061935513
 31
0.0
  0
LINE
  5
210
  8
LAYER_1
 10
-515.5450537419131
 20
44.08055710017653
 30
0.0
 11
-517.7781403122985
 21
37.40860271935479
 31
0.0
  0
LINE
  5
211
  8
LAYER_1
 10
-517.7781403122985
 20
37.40860271935479
 30
0.0
 11
-516.3526422709132
 21
37.40843454042228
 31
0.0
  0
LINE
  5
212
  8
LAYER_1
 10
-516.3526422709132
 20
37.40843454042228
 30
0.0
 11
-515.9444295379808
 21
38.64094027260258
 31
0.0
  0
LINE
  5
213
  8
LAYER_1
 10
-515.9444295379808
 20
38.64094027260258
 30
0.0
 11
-513.1002516861508
 21
38.64100173334201
 31
0.0
  0
LINE
  5
214
  8
LAYER_1
 10
-513.1002516861508
 20
38.64100173334201
 30
0.0
 11
-512.7257250257757
 21
37.40826133288384
 31
0.0
  0
LINE
  5
215
  8
LAYER_1
 10
-512.7257250257757
 20
37.40826133288384
 30
0.0
 11
-511.2089913103505
 21
37.40944417275121
 31
0.0
  0
LINE
  5
216
  8
LAYER_1
 10
-511.2089913103505
 20
37.40944417275121
 30
0.0
 11
-513.4166683348465
 21
44.20002504424859
 31
0.0
  0
LINE
  5
217
  8
LAYER_1
 10
-513.4166683348465
 20
44.20002504424859
 30
0.0
 11
-515.5450537419131
 21
44.08055710017653
 31
0.0
  0
LINE
  5
218
  8
LAYER_1
 10
-540.3859704574629
 20
38.68849412291509
 30
0.0
 11
-538.4805199143923
 21
38.71843500150392
 31
0.0
  0
LINE
  5
219
  8
LAYER_1
 10
-538.4805199143923
 20
38.71843500150392
 30
0.0
 11
-538.181973813792
 21
38.75184729440356
 31
0.0
  0
LINE
  5
21A
  8
LAYER_1
 10
-538.181973813792
 20
38.75184729440356
 30
0.0
 11
-538.0592825333028
 21
38.81944907918985
 31
0.0
  0
LINE
  5
21B
  8
LAYER_1
 10
-538.0592825333028
 20
38.81944907918985
 30
0.0
 11
-538.0092322595009
 21
38.94848087305392
 31
0.0
  0
LINE
  5
21C
  8
LAYER_1
 10
-538.0092322595009
 20
38.94848087305392
 30
0.0
 11
-538.009227789629
 21
39.40143870050596
 31
0.0
  0
LINE
  5
21D
  8
LAYER_1
 10
-538.009227789629
 20
39.40143870050596
 30
0.0
 11
-538.0638764442097
 21
39.53215898850286
 31
0.0
  0
LINE
  5
21E
  8
LAYER_1
 10
-538.0638764442097
 20
39.53215898850286
 30
0.0
 11
-538.170857242228
 21
39.60107100450736
 31
0.0
  0
LINE
  5
21F
  8
LAYER_1
 10
-538.170857242228
 20
39.60107100450736
 30
0.0
 11
-539.424182520529
 21
39.61464209451134
 31
0.0
  0
LINE
  5
220
  8
LAYER_1
 10
-539.424182520529
 20
39.61464209451134
 30
0.0
 11
-540.385969339995
 21
39.57469764247647
 31
0.0
  0
LINE
  5
221
  8
LAYER_1
 10
-540.385969339995
 20
39.57469764247647
 30
0.0
 11
-540.3859704574629
 21
39.57464623894893
 31
0.0
  0
LINE
  5
222
  8
LAYER_1
 10
-540.3859704574629
 20
39.57464623894893
 30
0.0
 11
-540.3859704574629
 21
38.68849412291509
 31
0.0
  0
LINE
  5
223
  8
LAYER_1
 10
-540.383624892152
 20
40.78487580548344
 30
0.0
 11
-540.1671596090839
 21
40.78605864535081
 31
0.0
  0
LINE
  5
224
  8
LAYER_1
 10
-540.1671596090839
 20
40.78605864535081
 30
0.0
 11
-539.3133364007335
 21
40.83966973090287
 31
0.0
  0
LINE
  5
225
  8
LAYER_1
 10
-539.3133364007335
 20
40.83966973090287
 30
0.0
 11
-537.8909834730059
 21
40.87245177185618
 31
0.0
  0
LINE
  5
226
  8
LAYER_1
 10
-537.8909834730059
 20
40.87245177185618
 30
0.0
 11
-537.3091206843067
 21
40.73860704335938
 31
0.0
  0
LINE
  5
227
  8
LAYER_1
 10
-537.3091206843067
 20
40.73860704335938
 30
0.0
 11
-537.0470772343323
 21
40.5708773330032
 31
0.0
  0
LINE
  5
228
  8
LAYER_1
 10
-537.0470772343323
 20
40.5708773330032
 30
0.0
 11
-536.8143757001042
 21
40.32052650934172
 31
0.0
  0
LINE
  5
229
  8
LAYER_1
 10
-536.8143757001042
 20
40.32052650934172
 30
0.0
 11
-536.6116860036823
 21
39.90565087351929
 31
0.0
  0
LINE
  5
22A
  8
LAYER_1
 10
-536.6116860036823
 20
39.90565087351929
 30
0.0
 11
-536.5352299612775
 21
39.42661916545761
 31
0.0
  0
LINE
  5
22B
  8
LAYER_1
 10
-536.5352299612775
 20
39.42661916545761
 30
0.0
 11
-536.5328843959667
 21
38.89269016618742
 31
0.0
  0
LINE
  5
22C
  8
LAYER_1
 10
-536.5328843959667
 20
38.89269016618742
 30
0.0
 11
-536.5637337760313
 21
38.46376237039129
 31
0.0
  0
LINE
  5
22D
  8
LAYER_1
 10
-536.5637337760313
 20
38.46376237039129
 30
0.0
 11
-536.6986082512809
 21
38.09277026126843
 31
0.0
  0
LINE
  5
22E
  8
LAYER_1
 10
-536.6986082512809
 20
38.09277026126843
 30
0.0
 11
-536.930083923124
 21
37.79137349982584
 31
0.0
  0
LINE
  5
22F
  8
LAYER_1
 10
-536.930083923124
 20
37.79137349982584
 30
0.0
 11
-537.2507346580335
 21
37.5712339820068
 31
0.0
  0
LINE
  5
230
  8
LAYER_1
 10
-537.2507346580335
 20
37.5712339820068
 30
0.0
 11
-537.897648052098
 21
37.40706173099666
 31
0.0
  0
LINE
  5
231
  8
LAYER_1
 10
-537.897648052098
 20
37.40706173099666
 30
0.0
 11
-541.8014107282047
 21
37.40844124523026
 31
0.0
  0
LINE
  5
232
  8
LAYER_1
 10
-541.8014107282047
 20
37.40844124523026
 30
0.0
 11
-541.8014112869387
 21
42.63762599941393
 31
0.0
  0
LINE
  5
233
  8
LAYER_1
 10
-541.8014112869387
 20
42.63762599941393
 30
0.0
 11
-536.8606941895539
 21
42.90943947202445
 31
0.0
  0
LINE
  5
234
  8
LAYER_1
 10
-536.8606941895539
 20
42.90943947202445
 30
0.0
 11
-536.8620737037875
 21
41.5058438032422
 31
0.0
  0
LINE
  5
235
  8
LAYER_1
 10
-536.8620737037875
 20
41.5058438032422
 30
0.0
 11
-540.3828365184852
 21
41.30918564029612
 31
0.0
  0
LINE
  5
236
  8
LAYER_1
 10
-540.3828365184852
 20
41.30918564029612
 30
0.0
 11
-540.383624892152
 21
40.78487580548344
 31
0.0
  0
LINE
  5
237
  8
LAYER_1
 10
-523.965683494155
 20
43.61893610213232
 30
0.0
 11
-523.9657281928745
 21
37.40843454042228
 31
0.0
  0
LINE
  5
238
  8
LAYER_1
 10
-523.9657281928745
 20
37.40843454042228
 30
0.0
 11
-525.4101114432901
 21
37.40843454042228
 31
0.0
  0
LINE
  5
239
  8
LAYER_1
 10
-525.4101114432901
 20
37.40843454042228
 30
0.0
 11
-525.4101114432901
 21
41.25028948988556
 31
0.0
  0
LINE
  5
23A
  8
LAYER_1
 10
-525.4101114432901
 20
41.25028948988556
 30
0.0
 11
-525.5875094866954
 21
41.24950111621861
 31
0.0
  0
LINE
  5
23B
  8
LAYER_1
 10
-525.5875094866954
 20
41.24950111621861
 30
0.0
 11
-528.0931576745106
 21
37.40943970287925
 31
0.0
  0
LINE
  5
23C
  8
LAYER_1
 10
-528.0931576745106
 20
37.40943970287925
 30
0.0
 11
-529.7543800010369
 21
37.40955200841228
 31
0.0
  0
LINE
  5
23D
  8
LAYER_1
 10
-529.7543800010369
 20
37.40955200841228
 30
0.0
 11
-529.748466919168
 21
43.30112261844936
 31
0.0
  0
LINE
  5
23E
  8
LAYER_1
 10
-529.748466919168
 20
43.30112261844936
 30
0.0
 11
-528.3482236543556
 21
43.3780150321041
 31
0.0
  0
LINE
  5
23F
  8
LAYER_1
 10
-528.3482236543556
 20
43.3780150321041
 30
0.0
 11
-528.3482700292772
 21
39.63722444638636
 31
0.0
  0
LINE
  5
240
  8
LAYER_1
 10
-528.3482700292772
 20
39.63722444638636
 30
0.0
 11
-528.1655500445697
 21
39.63682998018588
 31
0.0
  0
LINE
  5
241
  8
LAYER_1
 10
-528.1655500445697
 20
39.63682998018588
 30
0.0
 11
-525.6775774066857
 21
43.5248955834377
 31
0.0
  0
LINE
  5
242
  8
LAYER_1
 10
-525.6775774066857
 20
43.5248955834377
 30
0.0
 11
-523.965683494155
 21
43.61893610213232
 31
0.0
  0
LINE
  5
243
  8
LAYER_1
 10
-532.0189847560789
 20
41.50842459556503
 30
0.0
 11
-532.0682617420318
 21
41.56107242370972
 31
0.0
  0
LINE
  5
244
  8
LAYER_1
 10
-532.0682617420318
 20
41.56107242370972
 30
0.0
 11
-532.4023416485106
 21
41.63654565301725
 31
0.0
  0
LINE
  5
245
  8
LAYER_1
 10
-532.4023416485106
 20
41.63654565301725
 30
0.0
 11
-534.4093085711288
 21
41.55709088526152
 31
0.0
  0
LINE
  5
246
  8
LAYER_1
 10
-534.4093085711288
 20
41.55709088526152
 30
0.0
 11
-534.4093046599908
 21
40.58930717382748
 31
0.0
  0
LINE
  5
247
  8
LAYER_1
 10
-534.4093046599908
 20
40.58930717382748
 30
0.0
 11
-534.2926359732337
 21
40.58729684891361
 31
0.0
  0
LINE
  5
248
  8
LAYER_1
 10
-534.2926359732337
 20
40.58729684891361
 30
0.0
 11
-532.62666999509
 21
40.64780941677161
 31
0.0
  0
LINE
  5
249
  8
LAYER_1
 10
-532.62666999509
 20
40.64780941677161
 30
0.0
 11
-532.2091733380971
 21
40.71602860262232
 31
0.0
  0
LINE
  5
24A
  8
LAYER_1
 10
-532.2091733380971
 20
40.71602860262232
 30
0.0
 11
-532.0377079322506
 21
40.85085111561033
 31
0.0
  0
LINE
  5
24B
  8
LAYER_1
 10
-532.0377079322506
 20
40.85085111561033
 30
0.0
 11
-531.9304807325404
 21
41.21471433769138
 31
0.0
  0
LINE
  5
24C
  8
LAYER_1
 10
-531.9304807325404
 20
41.21471433769138
 30
0.0
 11
-532.0189847560789
 21
41.50842459556503
 31
0.0
  0
LINE
  5
24D
  8
LAYER_1
 10
-535.8953124755642
 20
42.95008122408507
 30
0.0
 11
-531.8983529690953
 21
43.17754518584425
 31
0.0
  0
LINE
  5
24E
  8
LAYER_1
 10
-531.8983529690953
 20
43.17754518584425
 30
0.0
 11
-531.3278268931541
 21
43.037410788766
 31
0.0
  0
LINE
  5
24F
  8
LAYER_1
 10
-531.3278268931541
 20
43.037410788766
 30
0.0
 11
-530.826472085791
 21
42.65796559303305
 31
0.0
  0
LINE
  5
250
  8
LAYER_1
 10
-530.826472085791
 20
42.65796559303305
 30
0.0
 11
-530.6195594778351
 21
42.2991510913307
 31
0.0
  0
LINE
  5
251
  8
LAYER_1
 10
-530.6195594778351
 20
42.2991510913307
 30
0.0
 11
-530.5052039498172
 21
41.8679157241353
 31
0.0
  0
LINE
  5
252
  8
LAYER_1
 10
-530.5052039498172
 20
41.8679157241353
 30
0.0
 11
-530.4583535456043
 21
41.16759518242695
 31
0.0
  0
LINE
  5
253
  8
LAYER_1
 10
-530.4583535456043
 20
41.16759518242695
 30
0.0
 11
-530.5432062424856
 21
40.46790712760084
 31
0.0
  0
LINE
  5
254
  8
LAYER_1
 10
-530.5432062424856
 20
40.46790712760084
 30
0.0
 11
-530.8197678365852
 21
39.76116896722611
 31
0.0
  0
LINE
  5
255
  8
LAYER_1
 10
-530.8197678365852
 20
39.76116896722611
 30
0.0
 11
-531.0472038616448
 21
39.51781963925576
 31
0.0
  0
LINE
  5
256
  8
LAYER_1
 10
-531.0472038616448
 20
39.51781963925576
 30
0.0
 11
-531.3494035238382
 21
39.34551110381072
 31
0.0
  0
LINE
  5
257
  8
LAYER_1
 10
-531.3494035238382
 20
39.34551110381072
 30
0.0
 11
-531.7748660513973
 21
39.20585945290419
 31
0.0
  0
LINE
  5
258
  8
LAYER_1
 10
-531.7748660513973
 20
39.20585945290419
 30
0.0
 11
-532.2098035900435
 21
39.15118118542168
 31
0.0
  0
LINE
  5
259
  8
LAYER_1
 10
-532.2098035900435
 20
39.15118118542168
 30
0.0
 11
-534.1345751546605
 21
39.09325108608849
 31
0.0
  0
LINE
  5
25A
  8
LAYER_1
 10
-534.1345751546605
 20
39.09325108608849
 30
0.0
 11
-534.4219879216769
 21
39.09301753527853
 31
0.0
  0
LINE
  5
25B
  8
LAYER_1
 10
-534.4219879216769
 20
39.09301753527853
 30
0.0
 11
-534.4219879216769
 21
37.40843454042228
 31
0.0
  0
LINE
  5
25C
  8
LAYER_1
 10
-534.4219879216769
 20
37.40843454042228
 30
0.0
 11
-535.8805686029048
 21
37.40871390741977
 31
0.0
  0
LINE
  5
25D
  8
LAYER_1
 10
-535.8805686029048
 20
37.40871390741977
 30
0.0
 11
-535.8953124755642
 21
42.95008122408507
 31
0.0
  0
LINE
  5
25E
  8
LAYER_1
 10
-550.3338766768811
 20
39.45677459790055
 30
0.0
 11
-550.5257179940565
 21
39.30847989082561
 31
0.0
  0
LINE
  5
25F
  8
LAYER_1
 10
-550.5257179940565
 20
39.30847989082561
 30
0.0
 11
-550.8306655100373
 21
39.22153529386726
 31
0.0
  0
LINE
  5
260
  8
LAYER_1
 10
-550.8306655100373
 20
39.22153529386726
 30
0.0
 11
-551.9861385863301
 21
39.201430368526
 31
0.0
  0
LINE
  5
261
  8
LAYER_1
 10
-551.9861385863301
 20
39.201430368526
 30
0.0
 11
-551.9861262941822
 21
40.45521101503302
 31
0.0
  0
LINE
  5
262
  8
LAYER_1
 10
-551.9861262941822
 20
40.45521101503302
 30
0.0
 11
-550.800101643044
 21
40.50034889955124
 31
0.0
  0
LINE
  5
263
  8
LAYER_1
 10
-550.800101643044
 20
40.50034889955124
 30
0.0
 11
-550.4735115657679
 21
40.39688644949928
 31
0.0
  0
LINE
  5
264
  8
LAYER_1
 10
-550.4735115657679
 20
40.39688644949928
 30
0.0
 11
-550.3334196324734
 21
40.25930099690616
 31
0.0
  0
LINE
  5
265
  8
LAYER_1
 10
-550.3334196324734
 20
40.25930099690616
 30
0.0
 11
-550.2728791279155
 21
40.08132019394414
 31
0.0
  0
LINE
  5
266
  8
LAYER_1
 10
-550.2728791279155
 20
40.08132019394414
 30
0.0
 11
-550.2639846414495
 21
39.69476454939108
 31
0.0
  0
LINE
  5
267
  8
LAYER_1
 10
-550.2639846414495
 20
39.69476454939108
 30
0.0
 11
-550.2639963748634
 21
39.69477404786899
 31
0.0
  0
LINE
  5
268
  8
LAYER_1
 10
-550.2639963748634
 20
39.69477404786899
 30
0.0
 11
-550.3338766768811
 21
39.45677459790055
 31
0.0
  0
LINE
  5
269
  8
LAYER_1
 10
-545.6542174227035
 20
41.30678867145762
 30
0.0
 11
-545.4640271644832
 21
41.3172353209617
 31
0.0
  0
LINE
  5
26A
  8
LAYER_1
 10
-545.4640271644832
 20
41.3172353209617
 30
0.0
 11
-544.6986733381634
 21
39.63823966605521
 31
0.0
  0
LINE
  5
26B
  8
LAYER_1
 10
-544.6986733381634
 20
39.63823966605521
 30
0.0
 11
-546.4333719786991
 21
39.58973205681328
 31
0.0
  0
LINE
  5
26C
  8
LAYER_1
 10
-546.4333719786991
 20
39.58973205681328
 30
0.0
 11
-545.6542174227035
 21
41.30678867145762
 31
0.0
  0
LINE
  5
26D
  8
LAYER_1
 10
-546.5971871986866
 20
42.37626308744551
 30
0.0
 11
-548.7833457008339
 21
37.40777691051021
 31
0.0
  0
LINE
  5
26E
  8
LAYER_1
 10
-548.7833457008339
 20
37.40777691051021
 30
0.0
 11
-547.3931093618714
 21
37.40787580642733
 31
0.0
  0
LINE
  5
26F
  8
LAYER_1
 10
-547.3931093618714
 20
37.40787580642733
 30
0.0
 11
-546.9776431442165
 21
38.32340615591708
 31
0.0
  0
LINE
  5
270
  8
LAYER_1
 10
-546.9776431442165
 20
38.32340615591708
 30
0.0
 11
-544.1445740416746
 21
38.3230820902
 31
0.0
  0
LINE
  5
271
  8
LAYER_1
 10
-544.1445740416746
 20
38.3230820902
 30
0.0
 11
-543.7221694652699
 21
37.40831720628339
 31
0.0
  0
LINE
  5
272
  8
LAYER_1
 10
-543.7221694652699
 20
37.40831720628339
 30
0.0
 11
-542.2668925781543
 21
37.40843454042228
 31
0.0
  0
LINE
  5
273
  8
LAYER_1
 10
-542.2668925781543
 20
37.40843454042228
 30
0.0
 11
-544.4938386619349
 21
42.48922625034801
 31
0.0
  0
LINE
  5
274
  8
LAYER_1
 10
-544.4938386619349
 20
42.48922625034801
 30
0.0
 11
-546.5971871986866
 21
42.37626308744551
 31
0.0
  0
LINE
  5
275
  8
LAYER_1
 10
-553.3898895831628
 20
46.34761972606253
 30
0.0
 11
-554.5918381531578
 21
46.34840809972943
 31
0.0
  0
LINE
  5
276
  8
LAYER_1
 10
-554.5918381531578
 20
46.34840809972943
 30
0.0
 11
-554.7970829401388
 21
46.33501971574179
 31
0.0
  0
LINE
  5
277
  8
LAYER_1
 10
-554.7970829401388
 20
46.33501971574179
 30
0.0
 11
-554.9736188569898
 21
46.25141076073341
 31
0.0
  0
LINE
  5
278
  8
LAYER_1
 10
-554.9736188569898
 20
46.25141076073341
 30
0.0
 11
-555.1198937406728
 21
46.01273133149304
 31
0.0
  0
LINE
  5
279
  8
LAYER_1
 10
-555.1198937406728
 20
46.01273133149304
 30
0.0
 11
-555.1196965075726
 21
45.5546303576172
 31
0.0
  0
LINE
  5
27A
  8
LAYER_1
 10
-555.1196965075726
 20
45.5546303576172
 30
0.0
 11
-555.0438193135867
 21
45.26154197067997
 31
0.0
  0
LINE
  5
27B
  8
LAYER_1
 10
-555.0438193135867
 20
45.26154197067997
 30
0.0
 11
-554.83430244648
 21
45.08495912017335
 31
0.0
  0
LINE
  5
27C
  8
LAYER_1
 10
-554.83430244648
 20
45.08495912017335
 30
0.0
 11
-554.5100579345149
 21
45.00924954638596
 31
0.0
  0
LINE
  5
27D
  8
LAYER_1
 10
-554.5100579345149
 20
45.00924954638596
 30
0.0
 11
-553.3899080213846
 21
45.0057211412077
 31
0.0
  0
LINE
  5
27E
  8
LAYER_1
 10
-553.3899080213846
 20
45.0057211412077
 30
0.0
 11
-553.3898895831628
 21
45.00554067012733
 31
0.0
  0
LINE
  5
27F
  8
LAYER_1
 10
-553.3898895831628
 20
45.00554067012733
 30
0.0
 11
-553.3898895831628
 21
46.34761972606253
 31
0.0
  0
LINE
  5
280
  8
LAYER_1
 10
-550.7641806345068
 20
45.01163142940658
 30
0.0
 11
-550.4093845476964
 21
45.14606003492811
 31
0.0
  0
LINE
  5
281
  8
LAYER_1
 10
-550.4093845476964
 20
45.14606003492811
 30
0.0
 11
-550.2750526031559
 21
45.29703778264688
 31
0.0
  0
LINE
  5
282
  8
LAYER_1
 10
-550.2750526031559
 20
45.29703778264688
 30
0.0
 11
-550.226447774199
 21
45.51425959154415
 31
0.0
  0
LINE
  5
283
  8
LAYER_1
 10
-550.226447774199
 20
45.51425959154415
 30
0.0
 11
-550.2276306140664
 21
45.91062604631495
 31
0.0
  0
LINE
  5
284
  8
LAYER_1
 10
-550.2276306140664
 20
45.91062604631495
 30
0.0
 11
-550.2420392463287
 21
46.02479160477466
 31
0.0
  0
LINE
  5
285
  8
LAYER_1
 10
-550.2420392463287
 20
46.02479160477466
 30
0.0
 11
-550.4242837484064
 21
46.26373922633259
 31
0.0
  0
LINE
  5
286
  8
LAYER_1
 10
-550.4242837484064
 20
46.26373922633259
 30
0.0
 11
-550.6924336022118
 21
46.34286657596725
 31
0.0
  0
LINE
  5
287
  8
LAYER_1
 10
-550.6924336022118
 20
46.34286657596725
 30
0.0
 11
-551.9602569102146
 21
46.347459369406
 31
0.0
  0
LINE
  5
288
  8
LAYER_1
 10
-551.9602569102146
 20
46.347459369406
 30
0.0
 11
-551.9602569102146
 21
45.00554067012733
 31
0.0
  0
LINE
  5
289
  8
LAYER_1
 10
-551.9602569102146
 20
45.00554067012733
 30
0.0
 11
-550.7641806345068
 21
45.01163142940658
 31
0.0
  0
LINE
  5
28A
  8
LAYER_1
 10
-551.9681350595438
 20
43.02818106190297
 30
0.0
 11
-553.3746864311595
 21
42.95073717779518
 31
0.0
  0
LINE
  5
28B
  8
LAYER_1
 10
-553.3746864311595
 20
42.95073717779518
 30
0.0
 11
-553.3746920184994
 21
43.72492235363957
 31
0.0
  0
LINE
  5
28C
  8
LAYER_1
 10
-553.3746920184994
 20
43.72492235363957
 30
0.0
 11
-554.9097577962998
 21
43.72689356717383
 31
0.0
  0
LINE
  5
28D
  8
LAYER_1
 10
-554.9097577962998
 20
43.72689356717383
 30
0.0
 11
-555.3333044249903
 21
43.78441020335077
 31
0.0
  0
LINE
  5
28E
  8
LAYER_1
 10
-555.3333044249903
 20
43.78441020335077
 30
0.0
 11
-555.7163042863992
 21
43.93856882370299
 31
0.0
  0
LINE
  5
28F
  8
LAYER_1
 10
-555.7163042863992
 20
43.93856882370299
 30
0.0
 11
-556.054725556019
 21
44.18878778614159
 31
0.0
  0
LINE
  5
290
  8
LAYER_1
 10
-556.054725556019
 20
44.18878778614159
 30
0.0
 11
-556.3445364093417
 21
44.53448768351392
 31
0.0
  0
LINE
  5
291
  8
LAYER_1
 10
-556.3445364093417
 20
44.53448768351392
 30
0.0
 11
-556.5188373902129
 21
44.90627934098362
 31
0.0
  0
LINE
  5
292
  8
LAYER_1
 10
-556.5188373902129
 20
44.90627934098362
 30
0.0
 11
-556.5869805882403
 21
45.33297443573581
 31
0.0
  0
LINE
  5
293
  8
LAYER_1
 10
-556.5869805882403
 20
45.33297443573581
 30
0.0
 11
-556.5887545686742
 21
45.94261468499535
 31
0.0
  0
LINE
  5
294
  8
LAYER_1
 10
-556.5887545686742
 20
45.94261468499535
 30
0.0
 11
-556.523156403994
 21
46.41019234616003
 31
0.0
  0
LINE
  5
295
  8
LAYER_1
 10
-556.523156403994
 20
46.41019234616003
 30
0.0
 11
-556.3411856815737
 21
46.83356632604607
 31
0.0
  0
LINE
  5
296
  8
LAYER_1
 10
-556.3411856815737
 20
46.83356632604607
 30
0.0
 11
-556.1368371039209
 21
47.10686714855122
 31
0.0
  0
LINE
  5
297
  8
LAYER_1
 10
-556.1368371039209
 20
47.10686714855122
 30
0.0
 11
-555.8740466265953
 21
47.32143105983435
 31
0.0
  0
LINE
  5
298
  8
LAYER_1
 10
-555.8740466265953
 20
47.32143105983435
 30
0.0
 11
-555.3160205475897
 21
47.57489459058185
 31
0.0
  0
LINE
  5
299
  8
LAYER_1
 10
-555.3160205475897
 20
47.57489459058185
 30
0.0
 11
-554.8207050959784
 21
47.62807433348974
 31
0.0
  0
LINE
  5
29A
  8
LAYER_1
 10
-554.8207050959784
 20
47.62807433348974
 30
0.0
 11
-553.3886698668518
 21
47.62846879969021
 31
0.0
  0
LINE
  5
29B
  8
LAYER_1
 10
-553.3886698668518
 20
47.62846879969021
 30
0.0
 11
-553.3886603683738
 21
47.99867868122018
 31
0.0
  0
LINE
  5
29C
  8
LAYER_1
 10
-553.3886603683738
 20
47.99867868122018
 30
0.0
 11
-551.9722696911067
 21
47.99867868122018
 31
0.0
  0
LINE
  5
29D
  8
LAYER_1
 10
-551.9722696911067
 20
47.99867868122018
 30
0.0
 11
-551.9722696911067
 21
47.62823804255029
 31
0.0
  0
LINE
  5
29E
  8
LAYER_1
 10
-551.9722696911067
 20
47.62823804255029
 30
0.0
 11
-550.3829396677141
 21
47.62823804255029
 31
0.0
  0
LINE
  5
29F
  8
LAYER_1
 10
-550.3829396677141
 20
47.62823804255029
 30
0.0
 11
-549.824862743915
 21
47.51032505518627
 31
0.0
  0
LINE
  5
2A0
  8
LAYER_1
 10
-549.824862743915
 20
47.51032505518627
 30
0.0
 11
-549.3213506645975
 21
47.19164162267309
 31
0.0
  0
LINE
  5
2A1
  8
LAYER_1
 10
-549.3213506645975
 20
47.19164162267309
 30
0.0
 11
-548.9785712698168
 21
46.7448734504174
 31
0.0
  0
LINE
  5
2A2
  8
LAYER_1
 10
-548.9785712698168
 20
46.7448734504174
 30
0.0
 11
-548.7998607602574
 21
46.22662364451425
 31
0.0
  0
LINE
  5
2A3
  8
LAYER_1
 10
-548.7998607602574
 20
46.22662364451425
 30
0.0
 11
-548.7553413942717
 21
45.66184694138138
 31
0.0
  0
LINE
  5
2A4
  8
LAYER_1
 10
-548.7553413942717
 20
45.66184694138138
 30
0.0
 11
-548.815135430212
 21
45.07549807743641
 31
0.0
  0
LINE
  5
2A5
  8
LAYER_1
 10
-548.815135430212
 20
45.07549807743641
 30
0.0
 11
-549.0113387836864
 21
44.54843312529452
 31
0.0
  0
LINE
  5
2A6
  8
LAYER_1
 10
-549.0113387836864
 20
44.54843312529452
 30
0.0
 11
-549.3620315280377
 21
44.13886769736037
 31
0.0
  0
LINE
  5
2A7
  8
LAYER_1
 10
-549.3620315280377
 20
44.13886769736037
 30
0.0
 11
-549.8128024706334
 21
43.86046172234312
 31
0.0
  0
LINE
  5
2A8
  8
LAYER_1
 10
-549.8128024706334
 20
43.86046172234312
 30
0.0
 11
-550.3092404188408
 21
43.72687624641996
 31
0.0
  0
LINE
  5
2A9
  8
LAYER_1
 10
-550.3092404188408
 20
43.72687624641996
 30
0.0
 11
-551.9681272372679
 21
43.72470779978548
 31
0.0
  0
LINE
  5
2AA
  8
LAYER_1
 10
-551.9681272372679
 20
43.72470779978548
 30
0.0
 11
-551.9681412056177
 21
43.72470444738151
 31
0.0
  0
LINE
  5
2AB
  8
LAYER_1
 10
-551.9681412056177
 20
43.72470444738151
 30
0.0
 11
-551.9681350595438
 21
43.02818106190297
 31
0.0
  0
LINE
  5
2AC
  8
LAYER_1
 10
-524.6809077064454
 20
44.74125949050308
 30
0.0
 11
-528.3104996112168
 21
44.74125949050308
 31
0.0
  0
LINE
  5
2AD
  8
LAYER_1
 10
-528.3104996112168
 20
44.74125949050308
 30
0.0
 11
-528.3104996112168
 21
45.34245726909856
 31
0.0
  0
LINE
  5
2AE
  8
LAYER_1
 10
-528.3104996112168
 20
45.34245726909856
 30
0.0
 11
-525.119122778706
 21
45.34245726909856
 31
0.0
  0
LINE
  5
2AF
  8
LAYER_1
 10
-525.119122778706
 20
45.34245726909856
 30
0.0
 11
-525.119122778706
 21
46.36885161787167
 31
0.0
  0
LINE
  5
2B0
  8
LAYER_1
 10
-525.119122778706
 20
46.36885161787167
 30
0.0
 11
-528.3073204147852
 21
46.36963999153856
 31
0.0
  0
LINE
  5
2B1
  8
LAYER_1
 10
-528.3073204147852
 20
46.36963999153856
 30
0.0
 11
-528.3073707008448
 21
46.91585219895437
 31
0.0
  0
LINE
  5
2B2
  8
LAYER_1
 10
-528.3073707008448
 20
46.91585219895437
 30
0.0
 11
-524.7418655852973
 21
46.91585219895437
 31
0.0
  0
LINE
  5
2B3
  8
LAYER_1
 10
-524.7418655852973
 20
46.91585219895437
 30
0.0
 11
-524.7418655852973
 21
47.99197387328043
 31
0.0
  0
LINE
  5
2B4
  8
LAYER_1
 10
-524.7418655852973
 20
47.99197387328043
 30
0.0
 11
-529.7257169470945
 21
47.99197387328043
 31
0.0
  0
LINE
  5
2B5
  8
LAYER_1
 10
-529.7257169470945
 20
47.99197387328043
 30
0.0
 11
-529.7257169470945
 21
44.25236724489802
 31
0.0
  0
LINE
  5
2B6
  8
LAYER_1
 10
-529.7257169470945
 20
44.25236724489802
 30
0.0
 11
-524.6809077064454
 21
44.53061677439671
 31
0.0
  0
LINE
  5
2B7
  8
LAYER_1
 10
-524.6809077064454
 20
44.53061677439671
 30
0.0
 11
-524.6809077064454
 21
44.74125949050308
 31
0.0
  0
LINE
  5
2B8
  8
LAYER_1
 10
-543.694681428919
 20
43.48360458247491
 30
0.0
 11
-543.694681428919
 21
46.41243286947987
 31
0.0
  0
LINE
  5
2B9
  8
LAYER_1
 10
-543.694681428919
 20
46.41243286947987
 30
0.0
 11
-543.8592280317057
 21
46.41184172891322
 31
0.0
  0
LINE
  5
2BA
  8
LAYER_1
 10
-543.8592280317057
 20
46.41184172891322
 30
0.0
 11
-546.4325277316327
 21
43.3322116953979
 31
0.0
  0
LINE
  5
2BB
  8
LAYER_1
 10
-546.4325277316327
 20
43.3322116953979
 30
0.0
 11
-548.0976667834639
 21
43.24191581193762
 31
0.0
  0
LINE
  5
2BC
  8
LAYER_1
 10
-548.0976667834639
 20
43.24191581193762
 30
0.0
 11
-548.0976729295378
 21
47.99923741521515
 31
0.0
  0
LINE
  5
2BD
  8
LAYER_1
 10
-548.0976729295378
 20
47.99923741521515
 30
0.0
 11
-546.6940772607556
 21
48.00022302198228
 31
0.0
  0
LINE
  5
2BE
  8
LAYER_1
 10
-546.6940772607556
 20
48.00022302198228
 30
0.0
 11
-546.6940772607556
 21
44.9742515664086
 31
0.0
  0
LINE
  5
2BF
  8
LAYER_1
 10
-546.6940772607556
 20
44.9742515664086
 30
0.0
 11
-546.5423228727839
 21
44.9776218498663
 31
0.0
  0
LINE
  5
2C0
  8
LAYER_1
 10
-546.5423228727839
 20
44.9776218498663
 30
0.0
 11
-543.9333703566372
 21
48.00125556240499
 31
0.0
  0
LINE
  5
2C1
  8
LAYER_1
 10
-543.9333703566372
 20
48.00125556240499
 30
0.0
 11
-542.2981347482173
 21
47.99987604817137
 31
0.0
  0
LINE
  5
2C2
  8
LAYER_1
 10
-542.2981347482173
 20
47.99987604817137
 30
0.0
 11
-542.2981258084735
 21
43.56065455911629
 31
0.0
  0
LINE
  5
2C3
  8
LAYER_1
 10
-542.2981258084735
 20
43.56065455911629
 30
0.0
 11
-543.694681428919
 21
43.48360458247491
 31
0.0
  0
LINE
  5
2C4
  8
LAYER_1
 10
-519.8793153738097
 20
45.8627615399012
 30
0.0
 11
-518.2026664016821
 21
47.99958383029205
 31
0.0
  0
LINE
  5
2C5
  8
LAYER_1
 10
-518.2026664016821
 20
47.99958383029205
 30
0.0
 11
-519.8167930397717
 21
47.99923741521515
 31
0.0
  0
LINE
  5
2C6
  8
LAYER_1
 10
-519.8167930397717
 20
47.99923741521515
 30
0.0
 11
-520.9616445828201
 21
46.54277992316811
 31
0.0
  0
LINE
  5
2C7
  8
LAYER_1
 10
-520.9616445828201
 20
46.54277992316811
 30
0.0
 11
-521.292912381102
 21
46.54317662430456
 31
0.0
  0
LINE
  5
2C8
  8
LAYER_1
 10
-521.292912381102
 20
46.54317662430456
 30
0.0
 11
-522.4651195405443
 21
48.00003081748805
 31
0.0
  0
LINE
  5
2C9
  8
LAYER_1
 10
-522.4651195405443
 20
48.00003081748805
 30
0.0
 11
-524.2559905032651
 21
47.99979614921011
 31
0.0
  0
LINE
  5
2CA
  8
LAYER_1
 10
-524.2559905032651
 20
47.99979614921011
 30
0.0
 11
-522.542699755747
 21
45.92604933951229
 31
0.0
  0
LINE
  5
2CB
  8
LAYER_1
 10
-522.542699755747
 20
45.92604933951229
 30
0.0
 11
-523.5785255343553
 21
44.59079242565575
 31
0.0
  0
LINE
  5
2CC
  8
LAYER_1
 10
-523.5785255343553
 20
44.59079242565575
 30
0.0
 11
-521.857568956426
 21
44.68560176232744
 31
0.0
  0
LINE
  5
2CD
  8
LAYER_1
 10
-521.857568956426
 20
44.68560176232744
 30
0.0
 11
-521.3947768519283
 21
45.27651324807537
 31
0.0
  0
LINE
  5
2CE
  8
LAYER_1
 10
-521.3947768519283
 20
45.27651324807537
 30
0.0
 11
-521.1296653935876
 21
45.27513373384177
 31
0.0
  0
LINE
  5
2CF
  8
LAYER_1
 10
-521.1296653935876
 20
45.27513373384177
 30
0.0
 11
-520.7125626440611
 21
44.7484777749842
 31
0.0
  0
LINE
  5
2D0
  8
LAYER_1
 10
-520.7125626440611
 20
44.7484777749842
 30
0.0
 11
-519.0457401267033
 21
44.84071414160901
 31
0.0
  0
LINE
  5
2D1
  8
LAYER_1
 10
-519.0457401267033
 20
44.84071414160901
 30
0.0
 11
-519.8793153738097
 21
45.8627615399012
 31
0.0
  0
LINE
  5
2D2
  8
LAYER_1
 10
-532.3315964262686
 20
46.85830259747168
 30
0.0
 11
-530.2304157774174
 21
46.86756696584239
 31
0.0
  0
LINE
  5
2D3
  8
LAYER_1
 10
-530.2304157774174
 20
46.86756696584239
 30
0.0
 11
-530.2304213647574
 21
47.98638653333066
 31
0.0
  0
LINE
  5
2D4
  8
LAYER_1
 10
-530.2304213647574
 20
47.98638653333066
 30
0.0
 11
-535.865421324301
 21
47.98638653333066
 31
0.0
  0
LINE
  5
2D5
  8
LAYER_1
 10
-535.865421324301
 20
47.98638653333066
 30
0.0
 11
-535.865421324301
 21
46.85774386347673
 31
0.0
  0
LINE
  5
2D6
  8
LAYER_1
 10
-535.865421324301
 20
46.85774386347673
 30
0.0
 11
-533.7452493069604
 21
46.85774386347673
 31
0.0
  0
LINE
  5
2D7
  8
LAYER_1
 10
-533.7452493069604
 20
46.85774386347673
 30
0.0
 11
-533.7452493069604
 21
44.03110858288709
 31
0.0
  0
LINE
  5
2D8
  8
LAYER_1
 10
-533.7452493069604
 20
44.03110858288709
 30
0.0
 11
-532.3315964262686
 21
44.10933134218389
 31
0.0
  0
LINE
  5
2D9
  8
LAYER_1
 10
-532.3315964262686
 20
44.10933134218389
 30
0.0
 11
-532.3315964262686
 21
46.85830259747168
 31
0.0
  0
LINE
  5
2DA
  8
LAYER_1
 10
-554.7880007190504
 20
39.2110584727274
 30
0.0
 11
-555.0567026020428
 21
39.37530000675294
 31
0.0
  0
LINE
  5
2DB
  8
LAYER_1
 10
-555.0567026020428
 20
39.37530000675294
 30
0.0
 11
-555.1539664571544
 21
39.67672861603322
 31
0.0
  0
LINE
  5
2DC
  8
LAYER_1
 10
-555.1539664571544
 20
39.67672861603322
 30
0.0
 11
-555.1282334042819
 21
40.0188386474878
 31
0.0
  0
LINE
  5
2DD
  8
LAYER_1
 10
-555.1282334042819
 20
40.0188386474878
 30
0.0
 11
-554.9604936367136
 21
40.25909482406202
 31
0.0
  0
LINE
  5
2DE
  8
LAYER_1
 10
-554.9604936367136
 20
40.25909482406202
 30
0.0
 11
-554.5879376311389
 21
40.39040904629553
 31
0.0
  0
LINE
  5
2DF
  8
LAYER_1
 10
-554.5879376311389
 20
40.39040904629553
 30
0.0
 11
-553.4267654680973
 21
40.41599403465953
 31
0.0
  0
LINE
  5
2E0
  8
LAYER_1
 10
-553.4267654680973
 20
40.41599403465953
 30
0.0
 11
-553.4090647751364
 21
40.41638794212595
 31
0.0
  0
LINE
  5
2E1
  8
LAYER_1
 10
-553.4090647751364
 20
40.41638794212595
 30
0.0
 11
-553.4090541591906
 21
39.17682763452517
 31
0.0
  0
LINE
  5
2E2
  8
LAYER_1
 10
-553.4090541591906
 20
39.17682763452517
 30
0.0
 11
-554.5138444747989
 21
39.15727753204092
 31
0.0
  0
LINE
  5
2E3
  8
LAYER_1
 10
-554.5138444747989
 20
39.15727753204092
 30
0.0
 11
-554.7880007190504
 21
39.2110584727274
 31
0.0
  0
TEXT
  5
2E6
  8
DEFAULT
 10
-556.0733817519533
 20
-5.310698161488542
 30
8.0
 40
28.99408284023657
  1
01
  7
MTXPL_CONSOLAS
1001
ACADANNOTATIVE
1000
AnnotativeData
1002
{
1070
     1
1070
     0
1002
}
  0
TEXT
  5
2E7
  8
DEFAULT
 10
-530.5566828878553
 20
-48.27541172815184
 30
0.0
 40
21.37499999999999
  1
S
  7
MTXPL_INTER
1001
ACADANNOTATIVE
1000
AnnotativeData
1002
{
1070
     1
1070
     0
1002
}
  0
TEXT
  5
2E8
  8
DEFAULT
 10
-571.2974328878555
 20
-48.27541172815184
 30
0.0
 40
21.37499999999999
  1
O
  7
MTXPL_INTER
1001
ACADANNOTATIVE
1000
AnnotativeData
1002
{
1070
     1
1070
     0
1002
}
  0
TEXT
  5
2E9
  8
DEFAULT
 10
-549.6445578878555
 20
-47.99753672815184
 30
0.0
 40
21.37499999999999
  1
T
  7
MTXPL_INTER
1001
ACADANNOTATIVE
1000
AnnotativeData
1002
{
1070
     1
1070
     0
1002
}
  0
TEXT
  5
2EA
  8
DEFAULT
 10
-591.1334328878554
 20
-47.99753672815184
 30
0.0
 40
21.37499999999999
  1
B
  7
MTXPL_INTER
1001
ACADANNOTATIVE
1000
AnnotativeData
1002
{
1070
     1
1070
     0
1002
}
  0
LINE
  5
2EB
  8
DEFAULT
 10
-505.7309163315219
 20
-48.00636230469404
 30
8.0
 11
-329.7190914647068
 21
-48.00636230469404
 31
8.0
  0
LINE
  5
2EC
  8
DEFAULT
 10
-329.7190914647068
 20
-48.00636230469404
 30
8.0
 11
-329.7190914647068
 21
48.00636230469401
 31
8.0
  0
LINE
  5
2ED
  8
DEFAULT
 10
-329.7190914647068
 20
48.00636230469401
 30
8.0
 11
-505.7309163315219
 21
48.00636230469401
 31
8.0
  0
LINE
  5
2EE
  8
DEFAULT
 10
-505.7309163315219
 20
48.00636230469401
 30
8.0
 11
-505.7309163315219
 21
-48.00636230469404
 31
8.0
  0
LINE
  5
2EF
  8
DEFAULT
 10
-298.0059124334075
 20
37.40944417275121
 30
8.0
 11
-252.6551262227393
 21
37.40944417275121
 31
8.0
  0
LINE
  5
2F0
  8
DEFAULT
 10
-252.6551262227393
 20
37.40944417275121
 30
8.0
 11
-252.6551262227393
 21
48.00636230469401
 31
8.0
  0
LINE
  5
2F1
  8
DEFAULT
 10
-252.6551262227393
 20
48.00636230469401
 30
8.0
 11
-298.0059124334075
 21
48.00636230469401
 31
8.0
  0
LINE
  5
2F2
  8
DEFAULT
 10
-298.0059124334075
 20
48.00636230469401
 30
8.0
 11
-298.0059124334075
 21
37.40944417275121
 31
8.0
  0
LINE
  5
2F3
  8
DEFAULT
 10
-298.0059124334075
 20
-48.00636230469404
 30
8.0
 11
-121.9940875665924
 21
-48.00636230469404
 31
8.0
  0
LINE
  5
2F4
  8
DEFAULT
 10
-121.9940875665924
 20
-48.00636230469404
 30
8.0
 11
-121.9940875665924
 21
48.00636230469401
 31
8.0
  0
LINE
  5
2F5
  8
DEFAULT
 10
-121.9940875665924
 20
48.00636230469401
 30
8.0
 11
-298.0059124334075
 21
48.00636230469401
 31
8.0
  0
LINE
  5
2F6
  8
DEFAULT
 10
-298.0059124334075
 20
48.00636230469401
 30
8.0
 11
-298.0059124334075
 21
-48.00636230469404
 31
8.0
  0
TEXT
  5
2F7
  8
DEFAULT
 10
-240.6781426120029
 20
-48.27541172815184
 30
0.0
 40
21.37499999999999
  1
S
  7
MTXPL_INTER
1001
ACADANNOTATIVE
1000
AnnotativeData
1002
{
1070
     1
1070
     0
1002
}
  0
TEXT
  5
2F8
  8
DEFAULT
 10
-281.4188926120031
 20
-48.27541172815184
 30
0.0
 40
21.37499999999999
  1
O
  7
MTXPL_INTER
1001
ACADANNOTATIVE
1000
AnnotativeData
1002
{
1070
     1
1070
     0
1002
}
  0
TEXT
  5
2F9
  8
DEFAULT
 10
-259.7660176120031
 20
-47.99753672815184
 30
0.0
 40
21.37499999999999
  1
T
  7
MTXPL_INTER
1001
ACADANNOTATIVE
1000
AnnotativeData
1002
{
1070
     1
1070
     0
1002
}
  0
TEXT
  5
2FA
  8
DEFAULT
 10
-301.2548926120031
 20
-47.99753672815184
 30
0.0
 40
21.37499999999999
  1
B
  7
MTXPL_INTER
1001
ACADANNOTATIVE
1000
AnnotativeData
1002
{
1070
     1
1070
     0
1002
}
  0
LINE
  5
2FB
  8
LAYER_1
 10
-290.2645221744517
 20
40.52227753265207
 30
0.0
 11
-290.5006984753945
 21
41.1209246905605
 31
0.0
  0
LINE
  5
2FC
  8
LAYER_1
 10
-290.5006984753945
 20
41.1209246905605
 30
0.0
 11
-290.7011269753387
 21
41.34655544608215
 31
0.0
  0
LINE
  5
2FD
  8
LAYER_1
 10
-290.7011269753387
 20
41.34655544608215
 30
0.0
 11
-290.9812102698089
 21
41.5295073053975
 31
0.0
  0
LINE
  5
2FE
  8
LAYER_1
 10
-290.9812102698089
 20
41.5295073053975
 30
0.0
 11
-291.5509485308172
 21
41.7225387259822
 31
0.0
  0
LINE
  5
2FF
  8
LAYER_1
 10
-291.5509485308172
 20
41.7225387259822
 30
0.0
 11
-292.1425947517684
 21
41.79081490270043
 31
0.0
  0
LINE
  5
300
  8
LAYER_1
 10
-292.1425947517684
 20
41.79081490270043
 30
0.0
 11
-293.2546430219716
 21
41.7468989694292
 31
0.0
  0
LINE
  5
301
  8
LAYER_1
 10
-293.2546430219716
 20
41.7468989694292
 30
0.0
 11
-293.4322779685907
 21
41.74372536033773
 31
0.0
  0
LINE
  5
302
  8
LAYER_1
 10
-293.4322779685907
 20
41.74372536033773
 30
0.0
 11
-293.4322612065709
 21
42.07721580245176
 31
0.0
  0
LINE
  5
303
  8
LAYER_1
 10
-293.4322612065709
 20
42.07721580245176
 30
0.0
 11
-294.8551890715793
 21
41.99876619715302
 31
0.0
  0
LINE
  5
304
  8
LAYER_1
 10
-294.8551890715793
 20
41.99876619715302
 30
0.0
 11
-294.8551890715793
 21
41.65201923227414
 31
0.0
  0
LINE
  5
305
  8
LAYER_1
 10
-294.8551890715793
 20
41.65201923227414
 30
0.0
 11
-295.023519979714
 21
41.64912163777619
 31
0.0
  0
LINE
  5
306
  8
LAYER_1
 10
-295.023519979714
 20
41.64912163777619
 30
0.0
 11
-296.5030028996941
 21
41.51759062675261
 31
0.0
  0
LINE
  5
307
  8
LAYER_1
 10
-296.5030028996941
 20
41.51759062675261
 30
0.0
 11
-297.0426874178465
 21
41.35836596526796
 31
0.0
  0
LINE
  5
308
  8
LAYER_1
 10
-297.0426874178465
 20
41.35836596526796
 30
0.0
 11
-297.5133632590134
 21
41.09762548296995
 31
0.0
  0
LINE
  5
309
  8
LAYER_1
 10
-297.5133632590134
 20
41.09762548296995
 30
0.0
 11
-297.867373207093
 21
40.67932536649225
 31
0.0
  0
LINE
  5
30A
  8
LAYER_1
 10
-297.867373207093
 20
40.67932536649225
 30
0.0
 11
-298.008754698448
 21
40.33649345071622
 31
0.0
  0
LINE
  5
30B
  8
LAYER_1
 10
-298.008754698448
 20
40.33649345071622
 30
0.0
 11
-298.0617623512855
 21
39.9661628826433
 31
0.0
  0
LINE
  5
30C
  8
LAYER_1
 10
-298.0617623512855
 20
39.9661628826433
 30
0.0
 11
-298.050132861914
 21
39.46747714757431
 31
0.0
  0
LINE
  5
30D
  8
LAYER_1
 10
-298.050132861914
 20
39.46747714757431
 30
0.0
 11
-297.9062728265572
 21
38.88212506507641
 31
0.0
  0
LINE
  5
30E
  8
LAYER_1
 10
-297.9062728265572
 20
38.88212506507641
 30
0.0
 11
-297.5439176275287
 21
38.40582668371816
 31
0.0
  0
LINE
  5
30F
  8
LAYER_1
 10
-297.5439176275287
 20
38.40582668371816
 30
0.0
 11
-296.9530608977122
 21
38.05840253323738
 31
0.0
  0
LINE
  5
310
  8
LAYER_1
 10
-296.9530608977122
 20
38.05840253323738
 30
0.0
 11
-296.2873863335644
 21
37.9512932264002
 31
0.0
  0
LINE
  5
311
  8
LAYER_1
 10
-296.2873863335644
 20
37.9512932264002
 30
0.0
 11
-295.0402361833758
 21
37.97007786331135
 31
0.0
  0
LINE
  5
312
  8
LAYER_1
 10
-295.0402361833758
 20
37.97007786331135
 30
0.0
 11
-294.8551901890473
 21
37.9729754578093
 31
0.0
  0
LINE
  5
313
  8
LAYER_1
 10
-294.8551901890473
 20
37.9729754578093
 30
0.0
 11
-294.8551890715793
 21
37.40843454042228
 31
0.0
  0
LINE
  5
314
  8
LAYER_1
 10
-294.8551890715793
 20
37.40843454042228
 30
0.0
 11
-293.4322612065709
 21
37.40843454042228
 31
0.0
  0
LINE
  5
315
  8
LAYER_1
 10
-293.4322612065709
 20
37.40843454042228
 30
0.0
 11
-293.4322612065709
 21
37.99678143713328
 31
0.0
  0
LINE
  5
316
  8
LAYER_1
 10
-293.4322612065709
 20
37.99678143713328
 30
0.0
 11
-292.1279525686961
 21
38.01828599113198
 31
0.0
  0
LINE
  5
317
  8
LAYER_1
 10
-292.1279525686961
 20
38.01828599113198
 30
0.0
 11
-291.6506210881811
 21
38.0622807058965
 31
0.0
  0
LINE
  5
318
  8
LAYER_1
 10
-291.6506210881811
 20
38.0622807058965
 30
0.0
 11
-291.1907209908414
 21
38.20295763368384
 31
0.0
  0
LINE
  5
319
  8
LAYER_1
 10
-291.1907209908414
 20
38.20295763368384
 30
0.0
 11
-290.7348281337137
 21
38.49634214963841
 31
0.0
  0
LINE
  5
31A
  8
LAYER_1
 10
-290.7348281337137
 20
38.49634214963841
 30
0.0
 11
-290.4056550291788
 21
38.93085952032028
 31
0.0
  0
LINE
  5
31B
  8
LAYER_1
 10
-290.4056550291788
 20
38.93085952032028
 30
0.0
 11
-290.267700812149
 21
39.30577617702396
 31
0.0
  0
LINE
  5
31C
  8
LAYER_1
 10
-290.267700812149
 20
39.30577617702396
 30
0.0
 11
-290.2388611982643
 21
39.71064544573032
 31
0.0
  0
LINE
  5
31D
  8
LAYER_1
 10
-290.2388611982643
 20
39.71064544573032
 30
0.0
 11
-290.2388785190181
 21
39.71054319740924
 31
0.0
  0
LINE
  5
31E
  8
LAYER_1
 10
-290.2388785190181
 20
39.71054319740924
 30
0.0
 11
-290.2645221744517
 21
40.52227753265207
 31
0.0
  0
LINE
  5
31F
  8
LAYER_1
 10
-278.0470284102241
 20
44.0802185073756
 30
0.0
 11
-277.7369260144058
 21
44.4516564862265
 31
0.0
  0
LINE
  5
320
  8
LAYER_1
 10
-277.7369260144058
 20
44.4516564862265
 30
0.0
 11
-277.6570773391836
 21
44.79584836054637
 31
0.0
  0
LINE
  5
321
  8
LAYER_1
 10
-277.6570773391836
 20
44.79584836054637
 30
0.0
 11
-277.6876490284528
 21
45.18986925000625
 31
0.0
  0
LINE
  5
322
  8
LAYER_1
 10
-277.6876490284528
 20
45.18986925000625
 30
0.0
 11
-277.9352179155532
 21
45.60143271070645
 31
0.0
  0
LINE
  5
323
  8
LAYER_1
 10
-277.9352179155532
 20
45.60143271070645
 30
0.0
 11
-278.304994778237
 21
45.82929057993211
 31
0.0
  0
LINE
  5
324
  8
LAYER_1
 10
-278.304994778237
 20
45.82929057993211
 30
0.0
 11
-278.4419857378595
 21
45.88566404635536
 31
0.0
  0
LINE
  5
325
  8
LAYER_1
 10
-278.4419857378595
 20
45.88566404635536
 30
0.0
 11
-278.4419868553275
 21
46.08166234445339
 31
0.0
  0
LINE
  5
326
  8
LAYER_1
 10
-278.4419868553275
 20
46.08166234445339
 30
0.0
 11
-278.219450927404
 21
46.14850201607054
 31
0.0
  0
LINE
  5
327
  8
LAYER_1
 10
-278.219450927404
 20
46.14850201607054
 30
0.0
 11
-277.9952611468554
 21
46.29872882530006
 31
0.0
  0
LINE
  5
328
  8
LAYER_1
 10
-277.9952611468554
 20
46.29872882530006
 30
0.0
 11
-277.8659946847135
 21
46.4971486765323
 31
0.0
  0
LINE
  5
329
  8
LAYER_1
 10
-277.8659946847135
 20
46.4971486765323
 30
0.0
 11
-277.7962574185984
 21
46.95743765273254
 31
0.0
  0
LINE
  5
32A
  8
LAYER_1
 10
-277.7962574185984
 20
46.95743765273254
 30
0.0
 11
-277.8743689898302
 21
47.34134657435133
 31
0.0
  0
LINE
  5
32B
  8
LAYER_1
 10
-277.8743689898302
 20
47.34134657435133
 30
0.0
 11
-278.1161454816047
 21
47.6133746008159
 31
0.0
  0
LINE
  5
32C
  8
LAYER_1
 10
-278.1161454816047
 20
47.6133746008159
 30
0.0
 11
-278.6605362161969
 21
47.87406032718248
 31
0.0
  0
LINE
  5
32D
  8
LAYER_1
 10
-278.6605362161969
 20
47.87406032718248
 30
0.0
 11
-279.2483869571203
 21
47.98592054917889
 31
0.0
  0
LINE
  5
32E
  8
LAYER_1
 10
-279.2483869571203
 20
47.98592054917889
 30
0.0
 11
-280.4631020401666
 21
48.00130473099655
 31
0.0
  0
LINE
  5
32F
  8
LAYER_1
 10
-280.4631020401666
 20
48.00130473099655
 30
0.0
 11
-281.7524125814141
 21
47.95852246900118
 31
0.0
  0
LINE
  5
330
  8
LAYER_1
 10
-281.7524125814141
 20
47.95852246900118
 30
0.0
 11
-282.3393425287139
 21
47.77849334721354
 31
0.0
  0
LINE
  5
331
  8
LAYER_1
 10
-282.3393425287139
 20
47.77849334721354
 30
0.0
 11
-282.8176070950004
 21
47.37704241308846
 31
0.0
  0
LINE
  5
332
  8
LAYER_1
 10
-282.8176070950004
 20
47.37704241308846
 30
0.0
 11
-282.9820995005897
 21
46.98300140920473
 31
0.0
  0
LINE
  5
333
  8
LAYER_1
 10
-282.9820995005897
 20
46.98300140920473
 30
0.0
 11
-283.0698671127228
 21
46.48411844103551
 31
0.0
  0
LINE
  5
334
  8
LAYER_1
 10
-283.0698671127228
 20
46.48411844103551
 30
0.0
 11
-281.7142124969115
 21
46.48450955483194
 31
0.0
  0
LINE
  5
335
  8
LAYER_1
 10
-281.7142124969115
 20
46.48450955483194
 30
0.0
 11
-281.6075445899305
 21
46.73929058033958
 31
0.0
  0
LINE
  5
336
  8
LAYER_1
 10
-281.6075445899305
 20
46.73929058033958
 30
0.0
 11
-281.3807041753096
 21
46.90535693959274
 31
0.0
  0
LINE
  5
337
  8
LAYER_1
 10
-281.3807041753096
 20
46.90535693959274
 30
0.0
 11
-280.9118011971089
 21
47.01256458361297
 31
0.0
  0
LINE
  5
338
  8
LAYER_1
 10
-280.9118011971089
 20
47.01256458361297
 30
0.0
 11
-280.1320376210587
 21
47.02541602423146
 31
0.0
  0
LINE
  5
339
  8
LAYER_1
 10
-280.1320376210587
 20
47.02541602423146
 30
0.0
 11
-279.4196461901227
 21
46.95424001807923
 31
0.0
  0
LINE
  5
33A
  8
LAYER_1
 10
-279.4196461901227
 20
46.95424001807923
 30
0.0
 11
-279.2336564940768
 21
46.85504741321698
 31
0.0
  0
LINE
  5
33B
  8
LAYER_1
 10
-279.2336564940768
 20
46.85504741321698
 30
0.0
 11
-279.1969325847888
 21
46.68520568835977
 31
0.0
  0
LINE
  5
33C
  8
LAYER_1
 10
-279.1969325847888
 20
46.68520568835977
 30
0.0
 11
-279.3073680350981
 21
46.51735976133266
 31
0.0
  0
LINE
  5
33D
  8
LAYER_1
 10
-279.3073680350981
 20
46.51735976133266
 30
0.0
 11
-279.4630100942069
 21
46.44887182443036
 31
0.0
  0
LINE
  5
33E
  8
LAYER_1
 10
-279.4630100942069
 20
46.44887182443036
 30
0.0
 11
-279.9869260215531
 21
46.3729845732325
 31
0.0
  0
LINE
  5
33F
  8
LAYER_1
 10
-279.9869260215531
 20
46.3729845732325
 30
0.0
 11
-281.0278586288755
 21
46.36923937926416
 31
0.0
  0
LINE
  5
340
  8
LAYER_1
 10
-281.0278586288755
 20
46.36923937926416
 30
0.0
 11
-281.225934858701
 21
46.36885161787167
 31
0.0
  0
LINE
  5
341
  8
LAYER_1
 10
-281.225934858701
 20
46.36885161787167
 30
0.0
 11
-281.225934858701
 21
45.3905083926666
 31
0.0
  0
LINE
  5
342
  8
LAYER_1
 10
-281.225934858701
 20
45.3905083926666
 30
0.0
 11
-279.9703478251882
 21
45.38816282735571
 31
0.0
  0
LINE
  5
343
  8
LAYER_1
 10
-279.9703478251882
 20
45.38816282735571
 30
0.0
 11
-279.4231930335229
 21
45.32999582480861
 31
0.0
  0
LINE
  5
344
  8
LAYER_1
 10
-279.4231930335229
 20
45.32999582480861
 30
0.0
 11
-279.2563992026083
 21
45.27697364488722
 31
0.0
  0
LINE
  5
345
  8
LAYER_1
 10
-279.2563992026083
 20
45.27697364488722
 30
0.0
 11
-279.1488384387032
 21
45.18894845638251
 31
0.0
  0
LINE
  5
346
  8
LAYER_1
 10
-279.1488384387032
 20
45.18894845638251
 30
0.0
 11
-279.1140075201903
 21
45.06592640536847
 31
0.0
  0
LINE
  5
347
  8
LAYER_1
 10
-279.1140075201903
 20
45.06592640536847
 30
0.0
 11
-279.2211559384071
 21
44.82500254167029
 31
0.0
  0
LINE
  5
348
  8
LAYER_1
 10
-279.2211559384071
 20
44.82500254167029
 30
0.0
 11
-279.5009503674019
 21
44.68115703339737
 31
0.0
  0
LINE
  5
349
  8
LAYER_1
 10
-279.5009503674019
 20
44.68115703339737
 30
0.0
 11
-279.8140229931375
 21
44.62515344887882
 31
0.0
  0
LINE
  5
34A
  8
LAYER_1
 10
-279.8140229931375
 20
44.62515344887882
 30
0.0
 11
-280.6730262243553
 21
44.62810971044628
 31
0.0
  0
LINE
  5
34B
  8
LAYER_1
 10
-280.6730262243553
 20
44.62810971044628
 30
0.0
 11
-281.0553338143446
 21
44.66920459577683
 31
0.0
  0
LINE
  5
34C
  8
LAYER_1
 10
-281.0553338143446
 20
44.66920459577683
 30
0.0
 11
-281.4210537094909
 21
44.78538327282044
 31
0.0
  0
LINE
  5
34D
  8
LAYER_1
 10
-281.4210537094909
 20
44.78538327282044
 30
0.0
 11
-281.6189561730438
 21
44.93268566832026
 31
0.0
  0
LINE
  5
34E
  8
LAYER_1
 10
-281.6189561730438
 20
44.93268566832026
 30
0.0
 11
-281.7293715089292
 21
45.161309561853
 31
0.0
  0
LINE
  5
34F
  8
LAYER_1
 10
-281.7293715089292
 20
45.161309561853
 30
0.0
 11
-281.7650092393308
 21
45.33535687749041
 31
0.0
  0
LINE
  5
350
  8
LAYER_1
 10
-281.7650092393308
 20
45.33535687749041
 30
0.0
 11
-283.143020478483
 21
45.33634248425754
 31
0.0
  0
LINE
  5
351
  8
LAYER_1
 10
-283.143020478483
 20
45.33634248425754
 30
0.0
 11
-283.107106733488
 21
44.86154597987776
 31
0.0
  0
LINE
  5
352
  8
LAYER_1
 10
-283.107106733488
 20
44.86154597987776
 30
0.0
 11
-282.9691899516358
 21
44.44185964435859
 31
0.0
  0
LINE
  5
353
  8
LAYER_1
 10
-282.9691899516358
 20
44.44185964435859
 30
0.0
 11
-282.6827907280863
 21
44.10186609727698
 31
0.0
  0
LINE
  5
354
  8
LAYER_1
 10
-282.6827907280863
 20
44.10186609727698
 30
0.0
 11
-281.8866450713034
 21
43.73086728334611
 31
0.0
  0
LINE
  5
355
  8
LAYER_1
 10
-281.8866450713034
 20
43.73086728334611
 30
0.0
 11
-281.467985688867
 21
43.68634065381838
 31
0.0
  0
LINE
  5
356
  8
LAYER_1
 10
-281.467985688867
 20
43.68634065381838
 30
0.0
 11
-278.4835566645539
 21
43.85007876851442
 31
0.0
  0
LINE
  5
357
  8
LAYER_1
 10
-278.4835566645539
 20
43.85007876851442
 30
0.0
 11
-278.0470284102241
 21
44.0802185073756
 31
0.0
  0
LINE
  5
358
  8
LAYER_1
 10
-261.8081964578587
 20
40.93516351671839
 30
0.0
 11
-259.1560538039005
 21
43.9633285619564
 31
0.0
  0
LINE
  5
359
  8
LAYER_1
 10
-259.1560538039005
 20
43.9633285619564
 30
0.0
 11
-261.0339140622993
 21
43.86225078859502
 31
0.0
  0
LINE
  5
35A
  8
LAYER_1
 10
-261.0339140622993
 20
43.86225078859502
 30
0.0
 11
-263.0438366877509
 21
41.61972161369447
 31
0.0
  0
LINE
  5
35B
  8
LAYER_1
 10
-263.0438366877509
 20
41.61972161369447
 30
0.0
 11
-263.2315238176736
 21
41.51897908073012
 31
0.0
  0
LINE
  5
35C
  8
LAYER_1
 10
-263.2315238176736
 20
41.51897908073012
 30
0.0
 11
-263.2315154366638
 21
43.738890703514
 31
0.0
  0
LINE
  5
35D
  8
LAYER_1
 10
-263.2315154366638
 20
43.738890703514
 30
0.0
 11
-264.6305965347665
 21
43.66083556441571
 31
0.0
  0
LINE
  5
35E
  8
LAYER_1
 10
-264.6305965347665
 20
43.66083556441571
 30
0.0
 11
-264.6306412334861
 21
37.40843454042228
 31
0.0
  0
LINE
  5
35F
  8
LAYER_1
 10
-264.6306412334861
 20
37.40843454042228
 30
0.0
 11
-263.2275484252994
 21
37.40843454042228
 31
0.0
  0
LINE
  5
360
  8
LAYER_1
 10
-263.2275484252994
 20
37.40843454042228
 30
0.0
 11
-263.2275484252994
 21
39.91435650789504
 31
0.0
  0
LINE
  5
361
  8
LAYER_1
 10
-263.2275484252994
 20
39.91435650789504
 30
0.0
 11
-261.0437757173107
 21
37.40971404127079
 31
0.0
  0
LINE
  5
362
  8
LAYER_1
 10
-261.0437757173107
 20
37.40971404127079
 30
0.0
 11
-259.0917826324583
 21
37.40853120140342
 31
0.0
  0
LINE
  5
363
  8
LAYER_1
 10
-259.0917826324583
 20
37.40853120140342
 30
0.0
 11
-261.8081964578587
 21
40.67199980508413
 31
0.0
  0
LINE
  5
364
  8
LAYER_1
 10
-261.8081964578587
 20
40.67199980508413
 30
0.0
 11
-261.8081964578587
 21
40.93516351671839
 31
0.0
  0
LINE
  5
365
  8
LAYER_1
 10
-256.1615748312198
 20
42.63082061935513
 30
0.0
 11
-255.9575866369935
 21
42.64678644326158
 31
0.0
  0
LINE
  5
366
  8
LAYER_1
 10
-255.9575866369935
 20
42.64678644326158
 30
0.0
 11
-255.2002729928614
 21
40.38336061694891
 31
0.0
  0
LINE
  5
367
  8
LAYER_1
 10
-255.2002729928614
 20
40.38336061694891
 30
0.0
 11
-256.937768097042
 21
40.3389943440777
 31
0.0
  0
LINE
  5
368
  8
LAYER_1
 10
-256.937768097042
 20
40.3389943440777
 30
0.0
 11
-256.1615748312198
 21
42.63082061935513
 31
0.0
  0
LINE
  5
369
  8
LAYER_1
 10
-256.9911886543018
 20
44.08055710017653
 30
0.0
 11
-259.2242752246872
 21
37.40860271935479
 31
0.0
  0
LINE
  5
36A
  8
LAYER_1
 10
-259.2242752246872
 20
37.40860271935479
 30
0.0
 11
-257.7987771833019
 21
37.40843454042228
 31
0.0
  0
LINE
  5
36B
  8
LAYER_1
 10
-257.7987771833019
 20
37.40843454042228
 30
0.0
 11
-257.3905644503695
 21
38.64094027260258
 31
0.0
  0
LINE
  5
36C
  8
LAYER_1
 10
-257.3905644503695
 20
38.64094027260258
 30
0.0
 11
-254.5463865985396
 21
38.64100173334201
 31
0.0
  0
LINE
  5
36D
  8
LAYER_1
 10
-254.5463865985396
 20
38.64100173334201
 30
0.0
 11
-254.1718599381644
 21
37.40826133288384
 31
0.0
  0
LINE
  5
36E
  8
LAYER_1
 10
-254.1718599381644
 20
37.40826133288384
 30
0.0
 11
-252.6551262227393
 21
37.40944417275121
 31
0.0
  0
LINE
  5
36F
  8
LAYER_1
 10
-252.6551262227393
 20
37.40944417275121
 30
0.0
 11
-254.8628032472351
 21
44.20002504424859
 31
0.0
  0
LINE
  5
370
  8
LAYER_1
 10
-254.8628032472351
 20
44.20002504424859
 30
0.0
 11
-256.9911886543018
 21
44.08055710017653
 31
0.0
  0
LINE
  5
371
  8
LAYER_1
 10
-281.8321053698517
 20
38.68849412291509
 30
0.0
 11
-279.926654826781
 21
38.71843500150392
 31
0.0
  0
LINE
  5
372
  8
LAYER_1
 10
-279.926654826781
 20
38.71843500150392
 30
0.0
 11
-279.6281087261808
 21
38.75184729440356
 31
0.0
  0
LINE
  5
373
  8
LAYER_1
 10
-279.6281087261808
 20
38.75184729440356
 30
0.0
 11
-279.5054174456916
 21
38.81944907918985
 31
0.0
  0
LINE
  5
374
  8
LAYER_1
 10
-279.5054174456916
 20
38.81944907918985
 30
0.0
 11
-279.4553671718896
 21
38.94848087305392
 31
0.0
  0
LINE
  5
375
  8
LAYER_1
 10
-279.4553671718896
 20
38.94848087305392
 30
0.0
 11
-279.4553627020177
 21
39.40143870050596
 31
0.0
  0
LINE
  5
376
  8
LAYER_1
 10
-279.4553627020177
 20
39.40143870050596
 30
0.0
 11
-279.5100113565985
 21
39.53215898850286
 31
0.0
  0
LINE
  5
377
  8
LAYER_1
 10
-279.5100113565985
 20
39.53215898850286
 30
0.0
 11
-279.6169921546167
 21
39.60107100450736
 31
0.0
  0
LINE
  5
378
  8
LAYER_1
 10
-279.6169921546167
 20
39.60107100450736
 30
0.0
 11
-280.8703174329178
 21
39.61464209451134
 31
0.0
  0
LINE
  5
379
  8
LAYER_1
 10
-280.8703174329178
 20
39.61464209451134
 30
0.0
 11
-281.8321042523837
 21
39.57469764247647
 31
0.0
  0
LINE
  5
37A
  8
LAYER_1
 10
-281.8321042523837
 20
39.57469764247647
 30
0.0
 11
-281.8321053698517
 21
39.57464623894893
 31
0.0
  0
LINE
  5
37B
  8
LAYER_1
 10
-281.8321053698517
 20
39.57464623894893
 30
0.0
 11
-281.8321053698517
 21
38.68849412291509
 31
0.0
  0
LINE
  5
37C
  8
LAYER_1
 10
-281.8297598045407
 20
40.78487580548344
 30
0.0
 11
-281.6132945214727
 21
40.78605864535081
 31
0.0
  0
LINE
  5
37D
  8
LAYER_1
 10
-281.6132945214727
 20
40.78605864535081
 30
0.0
 11
-280.7594713131222
 21
40.83966973090287
 31
0.0
  0
LINE
  5
37E
  8
LAYER_1
 10
-280.7594713131222
 20
40.83966973090287
 30
0.0
 11
-279.3371183853947
 21
40.87245177185618
 31
0.0
  0
LINE
  5
37F
  8
LAYER_1
 10
-279.3371183853947
 20
40.87245177185618
 30
0.0
 11
-278.7552555966953
 21
40.73860704335938
 31
0.0
  0
LINE
  5
380
  8
LAYER_1
 10
-278.7552555966953
 20
40.73860704335938
 30
0.0
 11
-278.493212146721
 21
40.5708773330032
 31
0.0
  0
LINE
  5
381
  8
LAYER_1
 10
-278.493212146721
 20
40.5708773330032
 30
0.0
 11
-278.260510612493
 21
40.32052650934172
 31
0.0
  0
LINE
  5
382
  8
LAYER_1
 10
-278.260510612493
 20
40.32052650934172
 30
0.0
 11
-278.0578209160711
 21
39.90565087351929
 31
0.0
  0
LINE
  5
383
  8
LAYER_1
 10
-278.0578209160711
 20
39.90565087351929
 30
0.0
 11
-277.9813648736663
 21
39.42661916545761
 31
0.0
  0
LINE
  5
384
  8
LAYER_1
 10
-277.9813648736663
 20
39.42661916545761
 30
0.0
 11
-277.9790193083555
 21
38.89269016618742
 31
0.0
  0
LINE
  5
385
  8
LAYER_1
 10
-277.9790193083555
 20
38.89269016618742
 30
0.0
 11
-278.0098686884201
 21
38.46376237039129
 31
0.0
  0
LINE
  5
386
  8
LAYER_1
 10
-278.0098686884201
 20
38.46376237039129
 30
0.0
 11
-278.1447431636697
 21
38.09277026126843
 31
0.0
  0
LINE
  5
387
  8
LAYER_1
 10
-278.1447431636697
 20
38.09277026126843
 30
0.0
 11
-278.3762188355128
 21
37.79137349982584
 31
0.0
  0
LINE
  5
388
  8
LAYER_1
 10
-278.3762188355128
 20
37.79137349982584
 30
0.0
 11
-278.6968695704223
 21
37.5712339820068
 31
0.0
  0
LINE
  5
389
  8
LAYER_1
 10
-278.6968695704223
 20
37.5712339820068
 30
0.0
 11
-279.3437829644867
 21
37.40706173099666
 31
0.0
  0
LINE
  5
38A
  8
LAYER_1
 10
-279.3437829644867
 20
37.40706173099666
 30
0.0
 11
-283.2475456405935
 21
37.40844124523026
 31
0.0
  0
LINE
  5
38B
  8
LAYER_1
 10
-283.2475456405935
 20
37.40844124523026
 30
0.0
 11
-283.2475461993275
 21
42.63762599941393
 31
0.0
  0
LINE
  5
38C
  8
LAYER_1
 10
-283.2475461993275
 20
42.63762599941393
 30
0.0
 11
-278.3068291019426
 21
42.90943947202445
 31
0.0
  0
LINE
  5
38D
  8
LAYER_1
 10
-278.3068291019426
 20
42.90943947202445
 30
0.0
 11
-278.3082086161762
 21
41.5058438032422
 31
0.0
  0
LINE
  5
38E
  8
LAYER_1
 10
-278.3082086161762
 20
41.5058438032422
 30
0.0
 11
-281.8289714308739
 21
41.30918564029612
 31
0.0
  0
LINE
  5
38F
  8
LAYER_1
 10
-281.8289714308739
 20
41.30918564029612
 30
0.0
 11
-281.8297598045407
 21
40.78487580548344
 31
0.0
  0
LINE
  5
390
  8
LAYER_1
 10
-265.4118184065437
 20
43.61893610213232
 30
0.0
 11
-265.4118631052633
 21
37.40843454042228
 31
0.0
  0
LINE
  5
391
  8
LAYER_1
 10
-265.4118631052633
 20
37.40843454042228
 30
0.0
 11
-266.8562463556788
 21
37.40843454042228
 31
0.0
  0
LINE
  5
392
  8
LAYER_1
 10
-266.8562463556788
 20
37.40843454042228
 30
0.0
 11
-266.8562463556788
 21
41.25028948988556
 31
0.0
  0
LINE
  5
393
  8
LAYER_1
 10
-266.8562463556788
 20
41.25028948988556
 30
0.0
 11
-267.033644399084
 21
41.24950111621861
 31
0.0
  0
LINE
  5
394
  8
LAYER_1
 10
-267.033644399084
 20
41.24950111621861
 30
0.0
 11
-269.5392925868993
 21
37.40943970287925
 31
0.0
  0
LINE
  5
395
  8
LAYER_1
 10
-269.5392925868993
 20
37.40943970287925
 30
0.0
 11
-271.2005149134256
 21
37.40955200841228
 31
0.0
  0
LINE
  5
396
  8
LAYER_1
 10
-271.2005149134256
 20
37.40955200841228
 30
0.0
 11
-271.1946018315567
 21
43.30112261844936
 31
0.0
  0
LINE
  5
397
  8
LAYER_1
 10
-271.1946018315567
 20
43.30112261844936
 30
0.0
 11
-269.7943585667443
 21
43.3780150321041
 31
0.0
  0
LINE
  5
398
  8
LAYER_1
 10
-269.7943585667443
 20
43.3780150321041
 30
0.0
 11
-269.7944049416659
 21
39.63722444638636
 31
0.0
  0
LINE
  5
399
  8
LAYER_1
 10
-269.7944049416659
 20
39.63722444638636
 30
0.0
 11
-269.6116849569585
 21
39.63682998018588
 31
0.0
  0
LINE
  5
39A
  8
LAYER_1
 10
-269.6116849569585
 20
39.63682998018588
 30
0.0
 11
-267.1237123190744
 21
43.5248955834377
 31
0.0
  0
LINE
  5
39B
  8
LAYER_1
 10
-267.1237123190744
 20
43.5248955834377
 30
0.0
 11
-265.4118184065437
 21
43.61893610213232
 31
0.0
  0
LINE
  5
39C
  8
LAYER_1
 10
-273.4651196684677
 20
41.50842459556503
 30
0.0
 11
-273.5143966544206
 21
41.56107242370972
 31
0.0
  0
LINE
  5
39D
  8
LAYER_1
 10
-273.5143966544206
 20
41.56107242370972
 30
0.0
 11
-273.8484765608994
 21
41.63654565301725
 31
0.0
  0
LINE
  5
39E
  8
LAYER_1
 10
-273.8484765608994
 20
41.63654565301725
 30
0.0
 11
-275.8554434835175
 21
41.55709088526152
 31
0.0
  0
LINE
  5
39F
  8
LAYER_1
 10
-275.8554434835175
 20
41.55709088526152
 30
0.0
 11
-275.8554395723796
 21
40.58930717382748
 31
0.0
  0
LINE
  5
3A0
  8
LAYER_1
 10
-275.8554395723796
 20
40.58930717382748
 30
0.0
 11
-275.7387708856224
 21
40.58729684891361
 31
0.0
  0
LINE
  5
3A1
  8
LAYER_1
 10
-275.7387708856224
 20
40.58729684891361
 30
0.0
 11
-274.0728049074788
 21
40.64780941677161
 31
0.0
  0
LINE
  5
3A2
  8
LAYER_1
 10
-274.0728049074788
 20
40.64780941677161
 30
0.0
 11
-273.6553082504859
 21
40.71602860262232
 31
0.0
  0
LINE
  5
3A3
  8
LAYER_1
 10
-273.6553082504859
 20
40.71602860262232
 30
0.0
 11
-273.4838428446393
 21
40.85085111561033
 31
0.0
  0
LINE
  5
3A4
  8
LAYER_1
 10
-273.4838428446393
 20
40.85085111561033
 30
0.0
 11
-273.3766156449292
 21
41.21471433769138
 31
0.0
  0
LINE
  5
3A5
  8
LAYER_1
 10
-273.3766156449292
 20
41.21471433769138
 30
0.0
 11
-273.4651196684677
 21
41.50842459556503
 31
0.0
  0
LINE
  5
3A6
  8
LAYER_1
 10
-277.3414473879529
 20
42.95008122408507
 30
0.0
 11
-273.344487881484
 21
43.17754518584425
 31
0.0
  0
LINE
  5
3A7
  8
LAYER_1
 10
-273.344487881484
 20
43.17754518584425
 30
0.0
 11
-272.7739618055429
 21
43.037410788766
 31
0.0
  0
LINE
  5
3A8
  8
LAYER_1
 10
-272.7739618055429
 20
43.037410788766
 30
0.0
 11
-272.2726069981798
 21
42.65796559303305
 31
0.0
  0
LINE
  5
3A9
  8
LAYER_1
 10
-272.2726069981798
 20
42.65796559303305
 30
0.0
 11
-272.0656943902239
 21
42.2991510913307
 31
0.0
  0
LINE
  5
3AA
  8
LAYER_1
 10
-272.0656943902239
 20
42.2991510913307
 30
0.0
 11
-271.9513388622059
 21
41.8679157241353
 31
0.0
  0
LINE
  5
3AB
  8
LAYER_1
 10
-271.9513388622059
 20
41.8679157241353
 30
0.0
 11
-271.9044884579931
 21
41.16759518242695
 31
0.0
  0
LINE
  5
3AC
  8
LAYER_1
 10
-271.9044884579931
 20
41.16759518242695
 30
0.0
 11
-271.9893411548743
 21
40.46790712760084
 31
0.0
  0
LINE
  5
3AD
  8
LAYER_1
 10
-271.9893411548743
 20
40.46790712760084
 30
0.0
 11
-272.265902748974
 21
39.76116896722611
 31
0.0
  0
LINE
  5
3AE
  8
LAYER_1
 10
-272.265902748974
 20
39.76116896722611
 30
0.0
 11
-272.4933387740335
 21
39.51781963925576
 31
0.0
  0
LINE
  5
3AF
  8
LAYER_1
 10
-272.4933387740335
 20
39.51781963925576
 30
0.0
 11
-272.7955384362269
 21
39.34551110381072
 31
0.0
  0
LINE
  5
3B0
  8
LAYER_1
 10
-272.7955384362269
 20
39.34551110381072
 30
0.0
 11
-273.2210009637861
 21
39.20585945290419
 31
0.0
  0
LINE
  5
3B1
  8
LAYER_1
 10
-273.2210009637861
 20
39.20585945290419
 30
0.0
 11
-273.6559385024322
 21
39.15118118542168
 31
0.0
  0
LINE
  5
3B2
  8
LAYER_1
 10
-273.6559385024322
 20
39.15118118542168
 30
0.0
 11
-275.5807100670493
 21
39.09325108608849
 31
0.0
  0
LINE
  5
3B3
  8
LAYER_1
 10
-275.5807100670493
 20
39.09325108608849
 30
0.0
 11
-275.8681228340656
 21
39.09301753527853
 31
0.0
  0
LINE
  5
3B4
  8
LAYER_1
 10
-275.8681228340656
 20
39.09301753527853
 30
0.0
 11
-275.8681228340656
 21
37.40843454042228
 31
0.0
  0
LINE
  5
3B5
  8
LAYER_1
 10
-275.8681228340656
 20
37.40843454042228
 30
0.0
 11
-277.3267035152935
 21
37.40871390741977
 31
0.0
  0
LINE
  5
3B6
  8
LAYER_1
 10
-277.3267035152935
 20
37.40871390741977
 30
0.0
 11
-277.3414473879529
 21
42.95008122408507
 31
0.0
  0
LINE
  5
3B7
  8
LAYER_1
 10
-291.7800115892699
 20
39.45677459790055
 30
0.0
 11
-291.9718529064453
 21
39.30847989082561
 31
0.0
  0
LINE
  5
3B8
  8
LAYER_1
 10
-291.9718529064453
 20
39.30847989082561
 30
0.0
 11
-292.276800422426
 21
39.22153529386726
 31
0.0
  0
LINE
  5
3B9
  8
LAYER_1
 10
-292.276800422426
 20
39.22153529386726
 30
0.0
 11
-293.4322734987188
 21
39.201430368526
 31
0.0
  0
LINE
  5
3BA
  8
LAYER_1
 10
-293.4322734987188
 20
39.201430368526
 30
0.0
 11
-293.4322612065709
 21
40.45521101503302
 31
0.0
  0
LINE
  5
3BB
  8
LAYER_1
 10
-293.4322612065709
 20
40.45521101503302
 30
0.0
 11
-292.2462365554327
 21
40.50034889955124
 31
0.0
  0
LINE
  5
3BC
  8
LAYER_1
 10
-292.2462365554327
 20
40.50034889955124
 30
0.0
 11
-291.9196464781567
 21
40.39688644949928
 31
0.0
  0
LINE
  5
3BD
  8
LAYER_1
 10
-291.9196464781567
 20
40.39688644949928
 30
0.0
 11
-291.779554544862
 21
40.25930099690616
 31
0.0
  0
LINE
  5
3BE
  8
LAYER_1
 10
-291.779554544862
 20
40.25930099690616
 30
0.0
 11
-291.7190140403043
 21
40.08132019394414
 31
0.0
  0
LINE
  5
3BF
  8
LAYER_1
 10
-291.7190140403043
 20
40.08132019394414
 30
0.0
 11
-291.7101195538382
 21
39.69476454939108
 31
0.0
  0
LINE
  5
3C0
  8
LAYER_1
 10
-291.7101195538382
 20
39.69476454939108
 30
0.0
 11
-291.7101312872521
 21
39.69477404786899
 31
0.0
  0
LINE
  5
3C1
  8
LAYER_1
 10
-291.7101312872521
 20
39.69477404786899
 30
0.0
 11
-291.7800115892699
 21
39.45677459790055
 31
0.0
  0
LINE
  5
3C2
  8
LAYER_1
 10
-287.1003523350922
 20
41.30678867145762
 30
0.0
 11
-286.910162076872
 21
41.3172353209617
 31
0.0
  0
LINE
  5
3C3
  8
LAYER_1
 10
-286.910162076872
 20
41.3172353209617
 30
0.0
 11
-286.1448082505522
 21
39.63823966605521
 31
0.0
  0
LINE
  5
3C4
  8
LAYER_1
 10
-286.1448082505522
 20
39.63823966605521
 30
0.0
 11
-287.8795068910879
 21
39.58973205681328
 31
0.0
  0
LINE
  5
3C5
  8
LAYER_1
 10
-287.8795068910879
 20
39.58973205681328
 30
0.0
 11
-287.1003523350922
 21
41.30678867145762
 31
0.0
  0
LINE
  5
3C6
  8
LAYER_1
 10
-288.0433221110753
 20
42.37626308744551
 30
0.0
 11
-290.2294806132226
 21
37.40777691051021
 31
0.0
  0
LINE
  5
3C7
  8
LAYER_1
 10
-290.2294806132226
 20
37.40777691051021
 30
0.0
 11
-288.8392442742602
 21
37.40787580642733
 31
0.0
  0
LINE
  5
3C8
  8
LAYER_1
 10
-288.8392442742602
 20
37.40787580642733
 30
0.0
 11
-288.4237780566052
 21
38.32340615591708
 31
0.0
  0
LINE
  5
3C9
  8
LAYER_1
 10
-288.4237780566052
 20
38.32340615591708
 30
0.0
 11
-285.5907089540634
 21
38.3230820902
 31
0.0
  0
LINE
  5
3CA
  8
LAYER_1
 10
-285.5907089540634
 20
38.3230820902
 30
0.0
 11
-285.1683043776586
 21
37.40831720628339
 31
0.0
  0
LINE
  5
3CB
  8
LAYER_1
 10
-285.1683043776586
 20
37.40831720628339
 30
0.0
 11
-283.713027490543
 21
37.40843454042228
 31
0.0
  0
LINE
  5
3CC
  8
LAYER_1
 10
-283.713027490543
 20
37.40843454042228
 30
0.0
 11
-285.9399735743236
 21
42.48922625034801
 31
0.0
  0
LINE
  5
3CD
  8
LAYER_1
 10
-285.9399735743236
 20
42.48922625034801
 30
0.0
 11
-288.0433221110753
 21
42.37626308744551
 31
0.0
  0
LINE
  5
3CE
  8
LAYER_1
 10
-294.8360244955516
 20
46.34761972606253
 30
0.0
 11
-296.0379730655465
 21
46.34840809972943
 31
0.0
  0
LINE
  5
3CF
  8
LAYER_1
 10
-296.0379730655465
 20
46.34840809972943
 30
0.0
 11
-296.2432178525275
 21
46.33501971574179
 31
0.0
  0
LINE
  5
3D0
  8
LAYER_1
 10
-296.2432178525275
 20
46.33501971574179
 30
0.0
 11
-296.4197537693785
 21
46.25141076073341
 31
0.0
  0
LINE
  5
3D1
  8
LAYER_1
 10
-296.4197537693785
 20
46.25141076073341
 30
0.0
 11
-296.5660286530616
 21
46.01273133149304
 31
0.0
  0
LINE
  5
3D2
  8
LAYER_1
 10
-296.5660286530616
 20
46.01273133149304
 30
0.0
 11
-296.5658314199613
 21
45.5546303576172
 31
0.0
  0
LINE
  5
3D3
  8
LAYER_1
 10
-296.5658314199613
 20
45.5546303576172
 30
0.0
 11
-296.4899542259754
 21
45.26154197067997
 31
0.0
  0
LINE
  5
3D4
  8
LAYER_1
 10
-296.4899542259754
 20
45.26154197067997
 30
0.0
 11
-296.2804373588688
 21
45.08495912017335
 31
0.0
  0
LINE
  5
3D5
  8
LAYER_1
 10
-296.2804373588688
 20
45.08495912017335
 30
0.0
 11
-295.9561928469037
 21
45.00924954638596
 31
0.0
  0
LINE
  5
3D6
  8
LAYER_1
 10
-295.9561928469037
 20
45.00924954638596
 30
0.0
 11
-294.8360429337734
 21
45.0057211412077
 31
0.0
  0
LINE
  5
3D7
  8
LAYER_1
 10
-294.8360429337734
 20
45.0057211412077
 30
0.0
 11
-294.8360244955516
 21
45.00554067012733
 31
0.0
  0
LINE
  5
3D8
  8
LAYER_1
 10
-294.8360244955516
 20
45.00554067012733
 30
0.0
 11
-294.8360244955516
 21
46.34761972606253
 31
0.0
  0
LINE
  5
3D9
  8
LAYER_1
 10
-292.2103155468956
 20
45.01163142940658
 30
0.0
 11
-291.8555194600852
 21
45.14606003492811
 31
0.0
  0
LINE
  5
3DA
  8
LAYER_1
 10
-291.8555194600852
 20
45.14606003492811
 30
0.0
 11
-291.7211875155447
 21
45.29703778264688
 31
0.0
  0
LINE
  5
3DB
  8
LAYER_1
 10
-291.7211875155447
 20
45.29703778264688
 30
0.0
 11
-291.6725826865877
 21
45.51425959154415
 31
0.0
  0
LINE
  5
3DC
  8
LAYER_1
 10
-291.6725826865877
 20
45.51425959154415
 30
0.0
 11
-291.673765526455
 21
45.91062604631495
 31
0.0
  0
LINE
  5
3DD
  8
LAYER_1
 10
-291.673765526455
 20
45.91062604631495
 30
0.0
 11
-291.6881741587175
 21
46.02479160477466
 31
0.0
  0
LINE
  5
3DE
  8
LAYER_1
 10
-291.6881741587175
 20
46.02479160477466
 30
0.0
 11
-291.8704186607952
 21
46.26373922633259
 31
0.0
  0
LINE
  5
3DF
  8
LAYER_1
 10
-291.8704186607952
 20
46.26373922633259
 30
0.0
 11
-292.1385685146006
 21
46.34286657596725
 31
0.0
  0
LINE
  5
3E0
  8
LAYER_1
 10
-292.1385685146006
 20
46.34286657596725
 30
0.0
 11
-293.4063918226034
 21
46.347459369406
 31
0.0
  0
LINE
  5
3E1
  8
LAYER_1
 10
-293.4063918226034
 20
46.347459369406
 30
0.0
 11
-293.4063918226034
 21
45.00554067012733
 31
0.0
  0
LINE
  5
3E2
  8
LAYER_1
 10
-293.4063918226034
 20
45.00554067012733
 30
0.0
 11
-292.2103155468956
 21
45.01163142940658
 31
0.0
  0
LINE
  5
3E3
  8
LAYER_1
 10
-293.4142699719326
 20
43.02818106190297
 30
0.0
 11
-294.8208213435483
 21
42.95073717779518
 31
0.0
  0
LINE
  5
3E4
  8
LAYER_1
 10
-294.8208213435483
 20
42.95073717779518
 30
0.0
 11
-294.8208269308882
 21
43.72492235363957
 31
0.0
  0
LINE
  5
3E5
  8
LAYER_1
 10
-294.8208269308882
 20
43.72492235363957
 30
0.0
 11
-296.3558927086885
 21
43.72689356717383
 31
0.0
  0
LINE
  5
3E6
  8
LAYER_1
 10
-296.3558927086885
 20
43.72689356717383
 30
0.0
 11
-296.7794393373791
 21
43.78441020335077
 31
0.0
  0
LINE
  5
3E7
  8
LAYER_1
 10
-296.7794393373791
 20
43.78441020335077
 30
0.0
 11
-297.162439198788
 21
43.93856882370299
 31
0.0
  0
LINE
  5
3E8
  8
LAYER_1
 10
-297.162439198788
 20
43.93856882370299
 30
0.0
 11
-297.5008604684077
 21
44.18878778614159
 31
0.0
  0
LINE
  5
3E9
  8
LAYER_1
 10
-297.5008604684077
 20
44.18878778614159
 30
0.0
 11
-297.7906713217304
 21
44.53448768351392
 31
0.0
  0
LINE
  5
3EA
  8
LAYER_1
 10
-297.7906713217304
 20
44.53448768351392
 30
0.0
 11
-297.9649723026016
 21
44.90627934098362
 31
0.0
  0
LINE
  5
3EB
  8
LAYER_1
 10
-297.9649723026016
 20
44.90627934098362
 30
0.0
 11
-298.033115500629
 21
45.33297443573581
 31
0.0
  0
LINE
  5
3EC
  8
LAYER_1
 10
-298.033115500629
 20
45.33297443573581
 30
0.0
 11
-298.034889481063
 21
45.94261468499535
 31
0.0
  0
LINE
  5
3ED
  8
LAYER_1
 10
-298.034889481063
 20
45.94261468499535
 30
0.0
 11
-297.9692913163827
 21
46.41019234616003
 31
0.0
  0
LINE
  5
3EE
  8
LAYER_1
 10
-297.9692913163827
 20
46.41019234616003
 30
0.0
 11
-297.7873205939625
 21
46.83356632604607
 31
0.0
  0
LINE
  5
3EF
  8
LAYER_1
 10
-297.7873205939625
 20
46.83356632604607
 30
0.0
 11
-297.5829720163096
 21
47.10686714855122
 31
0.0
  0
LINE
  5
3F0
  8
LAYER_1
 10
-297.5829720163096
 20
47.10686714855122
 30
0.0
 11
-297.320181538984
 21
47.32143105983435
 31
0.0
  0
LINE
  5
3F1
  8
LAYER_1
 10
-297.320181538984
 20
47.32143105983435
 30
0.0
 11
-296.7621554599784
 21
47.57489459058185
 31
0.0
  0
LINE
  5
3F2
  8
LAYER_1
 10
-296.7621554599784
 20
47.57489459058185
 30
0.0
 11
-296.2668400083671
 21
47.62807433348974
 31
0.0
  0
LINE
  5
3F3
  8
LAYER_1
 10
-296.2668400083671
 20
47.62807433348974
 30
0.0
 11
-294.8348047792405
 21
47.62846879969021
 31
0.0
  0
LINE
  5
3F4
  8
LAYER_1
 10
-294.8348047792405
 20
47.62846879969021
 30
0.0
 11
-294.8347952807626
 21
47.99867868122018
 31
0.0
  0
LINE
  5
3F5
  8
LAYER_1
 10
-294.8347952807626
 20
47.99867868122018
 30
0.0
 11
-293.4184046034954
 21
47.99867868122018
 31
0.0
  0
LINE
  5
3F6
  8
LAYER_1
 10
-293.4184046034954
 20
47.99867868122018
 30
0.0
 11
-293.4184046034954
 21
47.62823804255029
 31
0.0
  0
LINE
  5
3F7
  8
LAYER_1
 10
-293.4184046034954
 20
47.62823804255029
 30
0.0
 11
-291.8290745801029
 21
47.62823804255029
 31
0.0
  0
LINE
  5
3F8
  8
LAYER_1
 10
-291.8290745801029
 20
47.62823804255029
 30
0.0
 11
-291.2709976563038
 21
47.51032505518627
 31
0.0
  0
LINE
  5
3F9
  8
LAYER_1
 10
-291.2709976563038
 20
47.51032505518627
 30
0.0
 11
-290.7674855769862
 21
47.19164162267309
 31
0.0
  0
LINE
  5
3FA
  8
LAYER_1
 10
-290.7674855769862
 20
47.19164162267309
 30
0.0
 11
-290.4247061822056
 21
46.7448734504174
 31
0.0
  0
LINE
  5
3FB
  8
LAYER_1
 10
-290.4247061822056
 20
46.7448734504174
 30
0.0
 11
-290.2459956726461
 21
46.22662364451425
 31
0.0
  0
LINE
  5
3FC
  8
LAYER_1
 10
-290.2459956726461
 20
46.22662364451425
 30
0.0
 11
-290.2014763066604
 21
45.66184694138138
 31
0.0
  0
LINE
  5
3FD
  8
LAYER_1
 10
-290.2014763066604
 20
45.66184694138138
 30
0.0
 11
-290.2612703426008
 21
45.07549807743641
 31
0.0
  0
LINE
  5
3FE
  8
LAYER_1
 10
-290.2612703426008
 20
45.07549807743641
 30
0.0
 11
-290.4574736960751
 21
44.54843312529452
 31
0.0
  0
LINE
  5
3FF
  8
LAYER_1
 10
-290.4574736960751
 20
44.54843312529452
 30
0.0
 11
-290.8081664404264
 21
44.13886769736037
 31
0.0
  0
LINE
  5
400
  8
LAYER_1
 10
-290.8081664404264
 20
44.13886769736037
 30
0.0
 11
-291.2589373830222
 21
43.86046172234312
 31
0.0
  0
LINE
  5
401
  8
LAYER_1
 10
-291.2589373830222
 20
43.86046172234312
 30
0.0
 11
-291.7553753312295
 21
43.72687624641996
 31
0.0
  0
LINE
  5
402
  8
LAYER_1
 10
-291.7553753312295
 20
43.72687624641996
 30
0.0
 11
-293.4142621496566
 21
43.72470779978548
 31
0.0
  0
LINE
  5
403
  8
LAYER_1
 10
-293.4142621496566
 20
43.72470779978548
 30
0.0
 11
-293.4142761180065
 21
43.72470444738151
 31
0.0
  0
LINE
  5
404
  8
LAYER_1
 10
-293.4142761180065
 20
43.72470444738151
 30
0.0
 11
-293.4142699719326
 21
43.02818106190297
 31
0.0
  0
LINE
  5
405
  8
LAYER_1
 10
-266.1270426188341
 20
44.74125949050308
 30
0.0
 11
-269.7566345236054
 21
44.74125949050308
 31
0.0
  0
LINE
  5
406
  8
LAYER_1
 10
-269.7566345236054
 20
44.74125949050308
 30
0.0
 11
-269.7566345236054
 21
45.34245726909856
 31
0.0
  0
LINE
  5
407
  8
LAYER_1
 10
-269.7566345236054
 20
45.34245726909856
 30
0.0
 11
-266.5652576910947
 21
45.34245726909856
 31
0.0
  0
LINE
  5
408
  8
LAYER_1
 10
-266.5652576910947
 20
45.34245726909856
 30
0.0
 11
-266.5652576910947
 21
46.36885161787167
 31
0.0
  0
LINE
  5
409
  8
LAYER_1
 10
-266.5652576910947
 20
46.36885161787167
 30
0.0
 11
-269.753455327174
 21
46.36963999153856
 31
0.0
  0
LINE
  5
40A
  8
LAYER_1
 10
-269.753455327174
 20
46.36963999153856
 30
0.0
 11
-269.7535056132336
 21
46.91585219895437
 31
0.0
  0
LINE
  5
40B
  8
LAYER_1
 10
-269.7535056132336
 20
46.91585219895437
 30
0.0
 11
-266.1880004976861
 21
46.91585219895437
 31
0.0
  0
LINE
  5
40C
  8
LAYER_1
 10
-266.1880004976861
 20
46.91585219895437
 30
0.0
 11
-266.1880004976861
 21
47.99197387328043
 31
0.0
  0
LINE
  5
40D
  8
LAYER_1
 10
-266.1880004976861
 20
47.99197387328043
 30
0.0
 11
-271.1718518594832
 21
47.99197387328043
 31
0.0
  0
LINE
  5
40E
  8
LAYER_1
 10
-271.1718518594832
 20
47.99197387328043
 30
0.0
 11
-271.1718518594832
 21
44.25236724489802
 31
0.0
  0
LINE
  5
40F
  8
LAYER_1
 10
-271.1718518594832
 20
44.25236724489802
 30
0.0
 11
-266.1270426188341
 21
44.53061677439671
 31
0.0
  0
LINE
  5
410
  8
LAYER_1
 10
-266.1270426188341
 20
44.53061677439671
 30
0.0
 11
-266.1270426188341
 21
44.74125949050308
 31
0.0
  0
LINE
  5
411
  8
LAYER_1
 10
-285.1408163413077
 20
43.48360458247491
 30
0.0
 11
-285.1408163413077
 21
46.41243286947987
 31
0.0
  0
LINE
  5
412
  8
LAYER_1
 10
-285.1408163413077
 20
46.41243286947987
 30
0.0
 11
-285.3053629440945
 21
46.41184172891322
 31
0.0
  0
LINE
  5
413
  8
LAYER_1
 10
-285.3053629440945
 20
46.41184172891322
 30
0.0
 11
-287.8786626440215
 21
43.3322116953979
 31
0.0
  0
LINE
  5
414
  8
LAYER_1
 10
-287.8786626440215
 20
43.3322116953979
 30
0.0
 11
-289.5438016958526
 21
43.24191581193762
 31
0.0
  0
LINE
  5
415
  8
LAYER_1
 10
-289.5438016958526
 20
43.24191581193762
 30
0.0
 11
-289.5438078419265
 21
47.99923741521515
 31
0.0
  0
LINE
  5
416
  8
LAYER_1
 10
-289.5438078419265
 20
47.99923741521515
 30
0.0
 11
-288.1402121731443
 21
48.00022302198228
 31
0.0
  0
LINE
  5
417
  8
LAYER_1
 10
-288.1402121731443
 20
48.00022302198228
 30
0.0
 11
-288.1402121731443
 21
44.9742515664086
 31
0.0
  0
LINE
  5
418
  8
LAYER_1
 10
-288.1402121731443
 20
44.9742515664086
 30
0.0
 11
-287.9884577851726
 21
44.9776218498663
 31
0.0
  0
LINE
  5
419
  8
LAYER_1
 10
-287.9884577851726
 20
44.9776218498663
 30
0.0
 11
-285.379505269026
 21
48.00125556240499
 31
0.0
  0
LINE
  5
41A
  8
LAYER_1
 10
-285.379505269026
 20
48.00125556240499
 30
0.0
 11
-283.7442696606061
 21
47.99987604817137
 31
0.0
  0
LINE
  5
41B
  8
LAYER_1
 10
-283.7442696606061
 20
47.99987604817137
 30
0.0
 11
-283.7442607208622
 21
43.56065455911629
 31
0.0
  0
LINE
  5
41C
  8
LAYER_1
 10
-283.7442607208622
 20
43.56065455911629
 30
0.0
 11
-285.1408163413077
 21
43.48360458247491
 31
0.0
  0
LINE
  5
41D
  8
LAYER_1
 10
-261.3254502861985
 20
45.8627615399012
 30
0.0
 11
-259.6488013140709
 21
47.99958383029205
 31
0.0
  0
LINE
  5
41E
  8
LAYER_1
 10
-259.6488013140709
 20
47.99958383029205
 30
0.0
 11
-261.2629279521605
 21
47.99923741521515
 31
0.0
  0
LINE
  5
41F
  8
LAYER_1
 10
-261.2629279521605
 20
47.99923741521515
 30
0.0
 11
-262.4077794952088
 21
46.54277992316811
 31
0.0
  0
LINE
  5
420
  8
LAYER_1
 10
-262.4077794952088
 20
46.54277992316811
 30
0.0
 11
-262.7390472934908
 21
46.54317662430456
 31
0.0
  0
LINE
  5
421
  8
LAYER_1
 10
-262.7390472934908
 20
46.54317662430456
 30
0.0
 11
-263.9112544529331
 21
48.00003081748805
 31
0.0
  0
LINE
  5
422
  8
LAYER_1
 10
-263.9112544529331
 20
48.00003081748805
 30
0.0
 11
-265.7021254156539
 21
47.99979614921011
 31
0.0
  0
LINE
  5
423
  8
LAYER_1
 10
-265.7021254156539
 20
47.99979614921011
 30
0.0
 11
-263.9888346681357
 21
45.92604933951229
 31
0.0
  0
LINE
  5
424
  8
LAYER_1
 10
-263.9888346681357
 20
45.92604933951229
 30
0.0
 11
-265.024660446744
 21
44.59079242565575
 31
0.0
  0
LINE
  5
425
  8
LAYER_1
 10
-265.024660446744
 20
44.59079242565575
 30
0.0
 11
-263.3037038688148
 21
44.68560176232744
 31
0.0
  0
LINE
  5
426
  8
LAYER_1
 10
-263.3037038688148
 20
44.68560176232744
 30
0.0
 11
-262.8409117643171
 21
45.27651324807537
 31
0.0
  0
LINE
  5
427
  8
LAYER_1
 10
-262.8409117643171
 20
45.27651324807537
 30
0.0
 11
-262.5758003059763
 21
45.27513373384177
 31
0.0
  0
LINE
  5
428
  8
LAYER_1
 10
-262.5758003059763
 20
45.27513373384177
 30
0.0
 11
-262.1586975564499
 21
44.7484777749842
 31
0.0
  0
LINE
  5
429
  8
LAYER_1
 10
-262.1586975564499
 20
44.7484777749842
 30
0.0
 11
-260.491875039092
 21
44.84071414160901
 31
0.0
  0
LINE
  5
42A
  8
LAYER_1
 10
-260.491875039092
 20
44.84071414160901
 30
0.0
 11
-261.3254502861985
 21
45.8627615399012
 31
0.0
  0
LINE
  5
42B
  8
LAYER_1
 10
-273.7777313386574
 20
46.85830259747168
 30
0.0
 11
-271.6765506898061
 21
46.86756696584239
 31
0.0
  0
LINE
  5
42C
  8
LAYER_1
 10
-271.6765506898061
 20
46.86756696584239
 30
0.0
 11
-271.6765562771461
 21
47.98638653333066
 31
0.0
  0
LINE
  5
42D
  8
LAYER_1
 10
-271.6765562771461
 20
47.98638653333066
 30
0.0
 11
-277.3115562366897
 21
47.98638653333066
 31
0.0
  0
LINE
  5
42E
  8
LAYER_1
 10
-277.3115562366897
 20
47.98638653333066
 30
0.0
 11
-277.3115562366897
 21
46.85774386347673
 31
0.0
  0
LINE
  5
42F
  8
LAYER_1
 10
-277.3115562366897
 20
46.85774386347673
 30
0.0
 11
-275.1913842193492
 21
46.85774386347673
 31
0.0
  0
LINE
  5
430
  8
LAYER_1
 10
-275.1913842193492
 20
46.85774386347673
 30
0.0
 11
-275.1913842193492
 21
44.03110858288709
 31
0.0
  0
LINE
  5
431
  8
LAYER_1
 10
-275.1913842193492
 20
44.03110858288709
 30
0.0
 11
-273.7777313386574
 21
44.10933134218389
 31
0.0
  0
LINE
  5
432
  8
LAYER_1
 10
-273.7777313386574
 20
44.10933134218389
 30
0.0
 11
-273.7777313386574
 21
46.85830259747168
 31
0.0
  0
LINE
  5
433
  8
LAYER_1
 10
-296.2341356314391
 20
39.2110584727274
 30
0.0
 11
-296.5028375144316
 21
39.37530000675294
 31
0.0
  0
LINE
  5
434
  8
LAYER_1
 10
-296.5028375144316
 20
39.37530000675294
 30
0.0
 11
-296.6001013695432
 21
39.67672861603322
 31
0.0
  0
LINE
  5
435
  8
LAYER_1
 10
-296.6001013695432
 20
39.67672861603322
 30
0.0
 11
-296.5743683166706
 21
40.0188386474878
 31
0.0
  0
LINE
  5
436
  8
LAYER_1
 10
-296.5743683166706
 20
40.0188386474878
 30
0.0
 11
-296.4066285491024
 21
40.25909482406202
 31
0.0
  0
LINE
  5
437
  8
LAYER_1
 10
-296.4066285491024
 20
40.25909482406202
 30
0.0
 11
-296.0340725435276
 21
40.39040904629553
 31
0.0
  0
LINE
  5
438
  8
LAYER_1
 10
-296.0340725435276
 20
40.39040904629553
 30
0.0
 11
-294.8729003804861
 21
40.41599403465953
 31
0.0
  0
LINE
  5
439
  8
LAYER_1
 10
-294.8729003804861
 20
40.41599403465953
 30
0.0
 11
-294.8551996875252
 21
40.41638794212595
 31
0.0
  0
LINE
  5
43A
  8
LAYER_1
 10
-294.8551996875252
 20
40.41638794212595
 30
0.0
 11
-294.8551890715793
 21
39.17682763452517
 31
0.0
  0
LINE
  5
43B
  8
LAYER_1
 10
-294.8551890715793
 20
39.17682763452517
 30
0.0
 11
-295.9599793871877
 21
39.15727753204092
 31
0.0
  0
LINE
  5
43C
  8
LAYER_1
 10
-295.9599793871877
 20
39.15727753204092
 30
0.0
 11
-296.2341356314391
 21
39.2110584727274
 31
0.0
  0
TEXT
  5
43D
  8
DEFAULT
 10
-171.0059226047694
 20
18.42805569074922
 30
8.0
 40
28.99408284023657
  1
01
  7
MTXPL_CONSOLAS
1001
ACADANNOTATIVE
1000
AnnotativeData
1002
{
1070
     1
1070
     0
1002
}
  0
ENDSEC
  0
EOF
