  0
SECTION
  2
HEADER
  9
$ACADVER
  1
AC1009
  9
$DWGCODEPAGE
  3
ansi_1252
  9
$INSBASE
 10
0.0
 20
0.0
 30
0.0
  9
$EXTMIN
 10
-46.99999999999997
 20
142.0
 30
13.49999999999999
  9
$EXTMAX
 10
149.0
 20
258.0
 30
13.50000000042207
  9
$LIMMIN
 10
0.0
 20
0.0
  9
$LIMMAX
 10
12.0
 20
9.0
  9
$ORTHOMODE
 70
     0
  9
$REGENMODE
 70
     1
  9
$FILLMODE
 70
     1
  9
$QTEXTMODE
 70
     0
  9
$MIRRTEXT
 70
     1
  9
$DRAGMODE
 70
     2
  9
$LTSCALE
 40
1.0
  9
$OSMODE
 70
    37
  9
$ATTMODE
 70
     1
  9
$TEXTSIZE
 40
0.2
  9
$TRACEWID
 40
0.05
  9
$TEXTSTYLE
  7
STANDARD
  9
$CLAYER
  8
DEFAULT
  9
$CELTYPE
  6
BYLAYER
  9
$CECOLOR
 62
   256
  9
$DIMSCALE
 40
1.0
  9
$DIMASZ
 40
0.18
  9
$DIMEXO
 40
0.0625
  9
$DIMDLI
 40
0.38
  9
$DIMRND
 40
0.0
  9
$DIMDLE
 40
0.0
  9
$DIMEXE
 40
0.18
  9
$DIMTP
 40
0.0
  9
$DIMTM
 40
0.0
  9
$DIMTXT
 40
0.18
  9
$DIMCEN
 40
0.09
  9
$DIMTSZ
 40
0.0
  9
$DIMTOL
 70
     0
  9
$DIMLIM
 70
     0
  9
$DIMTIH
 70
     1
  9
$DIMTOH
 70
     1
  9
$DIMSE1
 70
     0
  9
$DIMSE2
 70
     0
  9
$DIMTAD
 70
     0
  9
$DIMZIN
 70
     0
  9
$DIMBLK
  1

  9
$DIMASO
 70
     1
  9
$DIMSHO
 70
     1
  9
$DIMPOST
  1

  9
$DIMAPOST
  1

  9
$DIMALT
 70
     0
  9
$DIMALTD
 70
     2
  9
$DIMALTF
 40
25.4
  9
$DIMLFAC
 40
1.0
  9
$DIMTOFL
 70
     0
  9
$DIMTVP
 40
0.0
  9
$DIMTIX
 70
     0
  9
$DIMSOXD
 70
     0
  9
$DIMSAH
 70
     0
  9
$DIMBLK1
  1

  9
$DIMBLK2
  1

  9
$DIMSTYLE
  2
STANDARD_ACAD
  9
$DIMCLRD
 70
     0
  9
$DIMCLRE
 70
     0
  9
$DIMCLRT
 70
     0
  9
$DIMTFAC
 40
1.0
  9
$DIMGAP
 40
0.09
  9
$LUNITS
 70
     2
  9
$LUPREC
 70
     3
  9
$SKETCHINC
 40
0.1
  9
$FILLETRAD
 40
0.0
  9
$AUNITS
 70
     0
  9
$AUPREC
 70
     0
  9
$MENU
  1
.
  9
$ELEVATION
 40
0.0
  9
$PELEVATION
 40
0.0
  9
$THICKNESS
 40
0.0
  9
$LIMCHECK
 70
     0
  9
$CHAMFERA
 40
0.0
  9
$CHAMFERB
 40
0.0
  9
$SKPOLY
 70
     0
  9
$TDCREATE
 40
2460544.56755007
  9
$TDUPDATE
 40
2460544.567564132
  9
$TDINDWG
 40
0.0000000116
  9
$TDUSRTIMER
 40
0.0000000116
  9
$USRTIMER
 70
     1
  9
$ANGBASE
 50
0.0
  9
$ANGDIR
 70
     0
  9
$PDMODE
 70
     0
  9
$PDSIZE
 40
0.0
  9
$PLINEWID
 40
0.0
  9
$COORDS
 70
     1
  9
$SPLFRAME
 70
     0
  9
$SPLINETYPE
 70
     6
  9
$SPLINESEGS
 70
     8
  9
$ATTDIA
 70
     0
  9
$ATTREQ
 70
     1
  9
$HANDLING
 70
     1
  9
$HANDSEED
  5
9B
  9
$SURFTAB1
 70
     6
  9
$SURFTAB2
 70
     6
  9
$SURFTYPE
 70
     6
  9
$SURFU
 70
     6
  9
$SURFV
 70
     6
  9
$UCSNAME
  2

  9
$UCSORG
 10
0.0
 20
0.0
 30
0.0
  9
$UCSXDIR
 10
1.0
 20
0.0
 30
0.0
  9
$UCSYDIR
 10
0.0
 20
1.0
 30
0.0
  9
$PUCSNAME
  2

  9
$PUCSORG
 10
0.0
 20
0.0
 30
0.0
  9
$PUCSXDIR
 10
1.0
 20
0.0
 30
0.0
  9
$PUCSYDIR
 10
0.0
 20
1.0
 30
0.0
  9
$USERI1
 70
     0
  9
$USERI2
 70
     0
  9
$USERI3
 70
     0
  9
$USERI4
 70
     0
  9
$USERI5
 70
     0
  9
$USERR1
 40
0.0
  9
$USERR2
 40
0.0
  9
$USERR3
 40
0.0
  9
$USERR4
 40
0.0
  9
$USERR5
 40
0.0
  9
$WORLDVIEW
 70
     1
  9
$SHADEDGE
 70
     3
  9
$SHADEDIF
 70
    70
  9
$TILEMODE
 70
     1
  9
$MAXACTVP
 70
    64
  9
$PLIMCHECK
 70
     0
  9
$PEXTMIN
 10
1.000000000000000E+20
 20
1.000000000000000E+20
 30
1.000000000000000E+20
  9
$PEXTMAX
 10
-1.000000000000000E+20
 20
-1.000000000000000E+20
 30
-1.000000000000000E+20
  9
$PLIMMIN
 10
0.0
 20
0.0
  9
$PLIMMAX
 10
12.0
 20
9.0
  9
$UNITMODE
 70
     0
  9
$VISRETAIN
 70
     1
  9
$PLINEGEN
 70
     0
  9
$PSLTSCALE
 70
     1
  0
ENDSEC
  0
SECTION
  2
TABLES
  0
TABLE
  2
VPORT
 70
     1
  0
VPORT
  2
*ACTIVE
 70
     0
 10
0.0
 20
0.0
 11
1.0
 21
1.0
 12
10.42990654205607
 22
4.5
 13
0.0
 23
0.0
 14
0.5
 24
0.5
 15
0.5
 25
0.5
 16
0.0
 26
0.0
 36
1.0
 17
0.0
 27
0.0
 37
0.0
 40
9.0
 41
1.972972972850329
 42
50.0
 43
0.0
 44
0.0
 50
0.0
 51
0.0
 71
     0
 72
   100
 73
     1
 74
     3
 75
     0
 76
     0
 77
     0
 78
     0
  0
ENDTAB
  0
TABLE
  2
LTYPE
 70
     1
  0
LTYPE
  2
CONTINUOUS
 70
     0
  3
Solid line
 72
    65
 73
     0
 40
0.0
  0
ENDTAB
  0
TABLE
  2
LAYER
 70
     2
  0
LAYER
  2
0
 70
     0
 62
     7
  6
CONTINUOUS
  0
LAYER
  2
DEFAULT
 70
     0
 62
     7
  6
CONTINUOUS
  0
ENDTAB
  0
TABLE
  2
STYLE
 70
     1
  0
STYLE
  2
STANDARD
 70
     0
 40
0.0
 41
1.0
 50
0.0
 71
     0
 42
0.2
  3
txt
  4

  0
ENDTAB
  0
TABLE
  2
VIEW
 70
     0
  0
ENDTAB
  0
TABLE
  2
UCS
 70
     0
  0
ENDTAB
  0
TABLE
  2
APPID
 70
     2
  0
APPID
  2
ACAD
 70
     0
  0
APPID
  2
RHINO
 70
     0
  0
ENDTAB
  0
TABLE
  2
DIMSTYLE
 70
     1
  0
DIMSTYLE
  2
STANDARD_ACAD
 70
     0
  3

  4

  5

  6

  7

 40
1.0
 41
0.18
 42
0.0625
 43
0.38
 44
0.18
 45
0.0
 46
0.0
 47
0.0
 48
0.0
140
0.18
141
0.09
142
0.0
143
25.4
144
1.0
145
0.0
146
1.0
147
0.09
 71
     0
 72
     0
 73
     1
 74
     1
 75
     0
 76
     0
 77
     0
 78
     0
170
     0
171
     2
172
     0
173
     0
174
     0
175
     0
176
     0
177
     0
178
     0
  0
ENDTAB
  0
ENDSEC
  0
SECTION
  2
BLOCKS
  0
BLOCK
  8
0
  2
$MODEL_SPACE
 70
     0
 10
0.0
 20
0.0
 30
0.0
  3
$MODEL_SPACE
  1

  0
ENDBLK
  5
21
  8
0
  0
BLOCK
 67
     1
  8
0
  2
$PAPER_SPACE
 70
     0
 10
0.0
 20
0.0
 30
0.0
  3
$PAPER_SPACE
  1

  0
ENDBLK
  5
1D
 67
     1
  8
0
  0
ENDSEC
  0
SECTION
  2
ENTITIES
  0
ARC
  5
60
  8
DEFAULT
 10
36.22221283388333
 20
152.0887871651999
 30
-13.50000000021103
 40
9.800237166116636
 50
359.6675396125435
 51
359.9999999999883
210
0.0
220
0.0
230
-1.0
  0
LINE
  5
61
  8
DEFAULT
 10
-46.02244999999996
 20
152.0887871651979
 30
13.5
 11
-46.02244999999996
 21
199.71
 31
13.5
  0
LINE
  5
62
  8
DEFAULT
 10
-46.02244999999996
 20
199.71
 30
13.5
 11
-46.02244999999996
 21
247.3312128348021
 31
13.5
  0
ARC
  5
63
  8
DEFAULT
 10
36.22221283382628
 20
247.3312128348
 30
-13.50000000021104
 40
9.80023716617368
 50
0.0000000000124623
 51
0.3324603874554009
210
0.0
220
0.0
230
-1.0
  0
ARC
  5
64
  8
DEFAULT
 10
36.222212834802
 20
247.3312128348019
 30
-13.50000000000001
 40
9.800237165197968
 50
0.3324603874770356
 51
89.39253929496589
210
0.0
220
0.0
230
-1.0
  0
ARC
  5
65
  8
DEFAULT
 10
36.22221283478528
 20
247.3312128327457
 30
-13.5
 40
9.800237167254238
 50
89.3925392949956
 51
89.99999999990139
210
0.0
220
0.0
230
-1.0
  0
LINE
  5
66
  8
DEFAULT
 10
-36.22221283480215
 20
257.13145
 30
13.5
 11
36.75853916864937
 21
257.13145
 31
13.49999999999999
  0
LINE
  5
67
  8
DEFAULT
 10
36.75853916864937
 20
257.13145
 30
13.49999999999999
 11
43.66975706390891
 21
257.13145
 31
13.5
  0
LINE
  5
68
  8
DEFAULT
 10
43.66975706390891
 20
257.13145
 30
13.5
 11
58.3302429360912
 21
257.13145
 31
13.50000000000001
  0
LINE
  5
69
  8
DEFAULT
 10
58.3302429360912
 20
257.13145
 30
13.50000000000001
 11
65.18544162329513
 21
257.13145
 31
13.50000000000002
  0
LINE
  5
6A
  8
DEFAULT
 10
65.18544162329513
 20
257.13145
 30
13.50000000000002
 11
138.2222128348022
 21
257.13145
 31
13.5
  0
ARC
  5
6B
  8
DEFAULT
 10
-138.2222128348126
 20
247.3312128354958
 30
-13.5000000001252
 40
9.800237164504153
 50
89.99999999993919
 51
90.61041310127739
210
0.0
220
0.0
230
-1.0
  0
ARC
  5
6C
  8
DEFAULT
 10
-138.2222128348022
 20
247.3312128348022
 30
-13.5
 40
9.800237165197858
 50
90.610413101295
 51
179.6675396125248
210
0.0
220
0.0
230
-1.0
  0
ARC
  5
6D
  8
DEFAULT
 10
-138.222212817766
 20
247.3312128347594
 30
-13.50000000042207
 40
9.800237182233984
 50
179.6675396128526
 51
179.9999999997501
210
0.0
220
0.0
230
-1.0
  0
LINE
  5
6E
  8
DEFAULT
 10
148.02245
 20
247.3312128348022
 30
13.5
 11
148.02245
 21
199.71
 31
13.5
  0
LINE
  5
6F
  8
DEFAULT
 10
148.02245
 20
199.71
 30
13.5
 11
148.02245
 21
152.0887871651979
 31
13.5
  0
ARC
  5
70
  8
DEFAULT
 10
-138.2222128178109
 20
152.0887871652405
 30
-13.50000000042207
 40
9.80023718218905
 50
180.0000000002492
 51
180.3324603871482
210
0.0
220
0.0
230
-1.0
  0
ARC
  5
71
  8
DEFAULT
 10
-138.2222128348021
 20
152.0887871651979
 30
-13.50000000000001
 40
9.800237165197853
 50
180.3324603874754
 51
269.3895868987048
210
0.0
220
0.0
230
-1.0
  0
ARC
  5
72
  8
DEFAULT
 10
-138.2222128347992
 20
152.0887871655082
 30
-13.5000000001252
 40
9.800237165508179
 50
269.389586898707
 51
269.9999999999827
210
0.0
220
0.0
230
-1.0
  0
LINE
  5
73
  8
DEFAULT
 10
138.2222128348022
 20
142.28855
 30
13.5
 11
65.18544162329513
 21
142.28855
 31
13.50000000000002
  0
LINE
  5
74
  8
DEFAULT
 10
65.18544162329513
 20
142.28855
 30
13.50000000000002
 11
58.3302429360912
 21
142.28855
 31
13.50000000000001
  0
LINE
  5
75
  8
DEFAULT
 10
58.3302429360912
 20
142.28855
 30
13.50000000000001
 11
43.66975706390891
 21
142.28855
 31
13.5
  0
LINE
  5
76
  8
DEFAULT
 10
43.66975706390891
 20
142.28855
 30
13.5
 11
36.75853916864937
 21
142.28855
 31
13.49999999999999
  0
LINE
  5
77
  8
DEFAULT
 10
36.75853916864937
 20
142.28855
 30
13.49999999999999
 11
-36.22221283480215
 21
142.28855
 31
13.5
  0
ARC
  5
78
  8
DEFAULT
 10
36.22221283480126
 20
152.0887871652498
 30
-13.5
 40
9.800237165249825
 50
270.0000000000052
 51
270.6074607050352
210
0.0
220
0.0
230
-1.0
  0
ARC
  5
79
  8
DEFAULT
 10
36.22221283480204
 20
152.0887871651979
 30
-13.5
 40
9.800237165197922
 50
270.6074607050339
 51
359.667539612524
210
0.0
220
0.0
230
-1.0
  0
ARC
  5
7A
  8
DEFAULT
 10
37.10102051454039
 20
151.8989794855656
 30
-13.50000000021103
 40
9.898979485459577
 50
359.6675396125252
 51
0.0000000000047707
210
0.0
220
0.0
230
-1.0
  0
LINE
  5
7B
  8
DEFAULT
 10
-46.99999999999997
 20
151.8989794855664
 30
13.5
 11
-46.99999999999997
 21
200.0
 31
13.5
  0
LINE
  5
7C
  8
DEFAULT
 10
-46.99999999999997
 20
200.0
 30
13.5
 11
-46.99999999999997
 21
248.1010205144336
 31
13.5
  0
ARC
  5
7D
  8
DEFAULT
 10
37.10102051452072
 20
248.1010205144343
 30
-13.50000000021104
 40
9.898979485479252
 50
359.9999999999956
 51
0.3324603874745304
210
0.0
220
0.0
230
-1.0
  0
ARC
  5
7E
  8
DEFAULT
 10
37.10102051443339
 20
248.1010205144335
 30
-13.50000000000001
 40
9.898979485566581
 50
0.3324603874766972
 51
89.39253929496539
210
0.0
220
0.0
230
-1.0
  0
ARC
  5
7F
  8
DEFAULT
 10
37.10102051441617
 20
248.1010205112251
 30
-13.5
 40
9.89897948877487
 50
89.39253929506258
 51
89.99999999989896
210
0.0
220
0.0
230
-1.0
  0
LINE
  5
80
  8
DEFAULT
 10
-37.10102051443363
 20
258.0
 30
13.5
 11
36.61504928526993
 21
258.0
 31
13.49999999999999
  0
LINE
  5
81
  8
DEFAULT
 10
36.61504928526993
 20
258.0
 30
13.49999999999999
 11
43.59590117816106
 21
258.0
 31
13.5
  0
LINE
  5
82
  8
DEFAULT
 10
43.59590117816106
 20
258.0
 30
13.5
 11
58.40409882183904
 21
258.0
 31
13.50000000000001
  0
LINE
  5
83
  8
DEFAULT
 10
58.40409882183904
 20
258.0
 30
13.50000000000001
 11
65.32836708496768
 21
258.0
 31
13.50000000000002
  0
LINE
  5
84
  8
DEFAULT
 10
65.32836708496768
 20
258.0
 30
13.50000000000002
 11
139.1010205144337
 21
258.0
 31
13.5
  0
ARC
  5
85
  8
DEFAULT
 10
-139.1010205144297
 20
248.1010205132826
 30
-13.5000000001252
 40
9.898979486717366
 50
90.00000000002288
 51
90.6104131012469
210
0.0
220
0.0
230
-1.0
  0
ARC
  5
86
  8
DEFAULT
 10
-139.1010205144336
 20
248.1010205144337
 30
-13.50000000000001
 40
9.898979485566366
 50
90.61041310129535
 51
179.6675396125248
210
0.0
220
0.0
230
-1.0
  0
ARC
  5
87
  8
DEFAULT
 10
-139.1010204916766
 20
248.1010205143717
 30
-13.50000000042207
 40
9.898979508323322
 50
179.6675396129305
 51
179.9999999996415
210
0.0
220
0.0
230
-1.0
  0
LINE
  5
88
  8
DEFAULT
 10
149.0
 20
248.1010205144336
 30
13.5
 11
149.0
 21
200.0
 31
13.5
  0
LINE
  5
89
  8
DEFAULT
 10
149.0
 20
200.0
 30
13.5
 11
149.0
 21
151.8989794855664
 31
13.5
  0
ARC
  5
8A
  8
DEFAULT
 10
-139.1010204916766
 20
151.8989794856283
 30
-13.50000000042207
 40
9.898979508323322
 50
180.0000000003585
 51
180.3324603870696
210
0.0
220
0.0
230
-1.0
  0
ARC
  5
8B
  8
DEFAULT
 10
-139.1010205144336
 20
151.8989794855664
 30
-13.5
 40
9.898979485566366
 50
180.3324603874754
 51
269.3895868987048
210
0.0
220
0.0
230
-1.0
  0
ARC
  5
8C
  8
DEFAULT
 10
-139.1010205144217
 20
151.8989794877244
 30
-13.5000000001252
 40
9.898979487724375
 50
269.3895868987686
 51
269.9999999999306
210
0.0
220
0.0
230
-1.0
  0
LINE
  5
8D
  8
DEFAULT
 10
139.1010205144337
 20
142.0
 30
13.5
 11
65.32836708496768
 21
142.0
 31
13.50000000000002
  0
LINE
  5
8E
  8
DEFAULT
 10
65.32836708496768
 20
142.0
 30
13.50000000000002
 11
58.40409882183904
 21
142.0
 31
13.50000000000001
  0
LINE
  5
8F
  8
DEFAULT
 10
58.40409882183904
 20
142.0
 30
13.50000000000001
 11
43.59590117816106
 21
142.0
 31
13.5
  0
LINE
  5
90
  8
DEFAULT
 10
43.59590117816106
 20
142.0
 30
13.5
 11
36.61504928526993
 21
142.0
 31
13.49999999999999
  0
LINE
  5
91
  8
DEFAULT
 10
36.61504928526993
 20
142.0
 30
13.49999999999999
 11
-37.10102051443363
 21
142.0
 31
13.5
  0
ARC
  5
92
  8
DEFAULT
 10
37.10102051444825
 20
151.8989794827217
 30
-13.5
 40
9.8989794827217
 50
269.9999999999154
 51
270.6074607051232
210
0.0
220
0.0
230
-1.0
  0
ARC
  5
93
  8
DEFAULT
 10
37.10102051443347
 20
151.8989794855665
 30
-13.50000000000001
 40
9.89897948556651
 50
270.6074607050342
 51
359.6675396125235
210
0.0
220
0.0
230
-1.0
  0
ENDSEC
  0
EOF
